G04 #@! TF.GenerationSoftware,KiCad,Pcbnew,(5.0.1)-4*
G04 #@! TF.CreationDate,2019-05-20T12:36:30-07:00*
G04 #@! TF.ProjectId,Fanout_circuit,46616E6F75745F636972637569742E6B,rev?*
G04 #@! TF.SameCoordinates,Original*
G04 #@! TF.FileFunction,Legend,Top*
G04 #@! TF.FilePolarity,Positive*
%FSLAX46Y46*%
G04 Gerber Fmt 4.6, Leading zero omitted, Abs format (unit mm)*
G04 Created by KiCad (PCBNEW (5.0.1)-4) date 5/20/2019 12:36:30 PM*
%MOMM*%
%LPD*%
G01*
G04 APERTURE LIST*
%ADD10C,0.300000*%
%ADD11C,0.200000*%
%ADD12C,0.150000*%
%ADD13C,0.120000*%
G04 APERTURE END LIST*
D10*
X122089285Y-74367857D02*
X122589285Y-74367857D01*
X122803571Y-75153571D02*
X122089285Y-75153571D01*
X122089285Y-73653571D01*
X122803571Y-73653571D01*
X123660714Y-75153571D02*
X123517857Y-75082142D01*
X123446428Y-74939285D01*
X123446428Y-73653571D01*
X124446428Y-75153571D02*
X124303571Y-75082142D01*
X124232142Y-74939285D01*
X124232142Y-73653571D01*
X125017857Y-75153571D02*
X125017857Y-73653571D01*
X125017857Y-74225000D02*
X125160714Y-74153571D01*
X125446428Y-74153571D01*
X125589285Y-74225000D01*
X125660714Y-74296428D01*
X125732142Y-74439285D01*
X125732142Y-74867857D01*
X125660714Y-75010714D01*
X125589285Y-75082142D01*
X125446428Y-75153571D01*
X125160714Y-75153571D01*
X125017857Y-75082142D01*
X127017857Y-75153571D02*
X127017857Y-74367857D01*
X126946428Y-74225000D01*
X126803571Y-74153571D01*
X126517857Y-74153571D01*
X126375000Y-74225000D01*
X127017857Y-75082142D02*
X126875000Y-75153571D01*
X126517857Y-75153571D01*
X126375000Y-75082142D01*
X126303571Y-74939285D01*
X126303571Y-74796428D01*
X126375000Y-74653571D01*
X126517857Y-74582142D01*
X126875000Y-74582142D01*
X127017857Y-74510714D01*
X127589285Y-74153571D02*
X127946428Y-75153571D01*
X128303571Y-74153571D02*
X127946428Y-75153571D01*
X127803571Y-75510714D01*
X127732142Y-75582142D01*
X127589285Y-75653571D01*
X118053571Y-76917857D02*
X117553571Y-76917857D01*
X117553571Y-77703571D02*
X117553571Y-76203571D01*
X118267857Y-76203571D01*
X119482142Y-77703571D02*
X119482142Y-76917857D01*
X119410714Y-76775000D01*
X119267857Y-76703571D01*
X118982142Y-76703571D01*
X118839285Y-76775000D01*
X119482142Y-77632142D02*
X119339285Y-77703571D01*
X118982142Y-77703571D01*
X118839285Y-77632142D01*
X118767857Y-77489285D01*
X118767857Y-77346428D01*
X118839285Y-77203571D01*
X118982142Y-77132142D01*
X119339285Y-77132142D01*
X119482142Y-77060714D01*
X120196428Y-76703571D02*
X120196428Y-77703571D01*
X120196428Y-76846428D02*
X120267857Y-76775000D01*
X120410714Y-76703571D01*
X120625000Y-76703571D01*
X120767857Y-76775000D01*
X120839285Y-76917857D01*
X120839285Y-77703571D01*
X121767857Y-77703571D02*
X121625000Y-77632142D01*
X121553571Y-77560714D01*
X121482142Y-77417857D01*
X121482142Y-76989285D01*
X121553571Y-76846428D01*
X121625000Y-76775000D01*
X121767857Y-76703571D01*
X121982142Y-76703571D01*
X122125000Y-76775000D01*
X122196428Y-76846428D01*
X122267857Y-76989285D01*
X122267857Y-77417857D01*
X122196428Y-77560714D01*
X122125000Y-77632142D01*
X121982142Y-77703571D01*
X121767857Y-77703571D01*
X123553571Y-76703571D02*
X123553571Y-77703571D01*
X122910714Y-76703571D02*
X122910714Y-77489285D01*
X122982142Y-77632142D01*
X123125000Y-77703571D01*
X123339285Y-77703571D01*
X123482142Y-77632142D01*
X123553571Y-77560714D01*
X124053571Y-76703571D02*
X124625000Y-76703571D01*
X124267857Y-76203571D02*
X124267857Y-77489285D01*
X124339285Y-77632142D01*
X124482142Y-77703571D01*
X124625000Y-77703571D01*
X126910714Y-77632142D02*
X126767857Y-77703571D01*
X126482142Y-77703571D01*
X126339285Y-77632142D01*
X126267857Y-77560714D01*
X126196428Y-77417857D01*
X126196428Y-76989285D01*
X126267857Y-76846428D01*
X126339285Y-76775000D01*
X126482142Y-76703571D01*
X126767857Y-76703571D01*
X126910714Y-76775000D01*
X127553571Y-77703571D02*
X127553571Y-76703571D01*
X127553571Y-76203571D02*
X127482142Y-76275000D01*
X127553571Y-76346428D01*
X127625000Y-76275000D01*
X127553571Y-76203571D01*
X127553571Y-76346428D01*
X128267857Y-77703571D02*
X128267857Y-76703571D01*
X128267857Y-76989285D02*
X128339285Y-76846428D01*
X128410714Y-76775000D01*
X128553571Y-76703571D01*
X128696428Y-76703571D01*
X129839285Y-77632142D02*
X129696428Y-77703571D01*
X129410714Y-77703571D01*
X129267857Y-77632142D01*
X129196428Y-77560714D01*
X129125000Y-77417857D01*
X129125000Y-76989285D01*
X129196428Y-76846428D01*
X129267857Y-76775000D01*
X129410714Y-76703571D01*
X129696428Y-76703571D01*
X129839285Y-76775000D01*
X131125000Y-76703571D02*
X131125000Y-77703571D01*
X130482142Y-76703571D02*
X130482142Y-77489285D01*
X130553571Y-77632142D01*
X130696428Y-77703571D01*
X130910714Y-77703571D01*
X131053571Y-77632142D01*
X131125000Y-77560714D01*
X131839285Y-77703571D02*
X131839285Y-76703571D01*
X131839285Y-76203571D02*
X131767857Y-76275000D01*
X131839285Y-76346428D01*
X131910714Y-76275000D01*
X131839285Y-76203571D01*
X131839285Y-76346428D01*
X132339285Y-76703571D02*
X132910714Y-76703571D01*
X132553571Y-76203571D02*
X132553571Y-77489285D01*
X132625000Y-77632142D01*
X132767857Y-77703571D01*
X132910714Y-77703571D01*
X120196428Y-78896428D02*
X120267857Y-78825000D01*
X120410714Y-78753571D01*
X120767857Y-78753571D01*
X120910714Y-78825000D01*
X120982142Y-78896428D01*
X121053571Y-79039285D01*
X121053571Y-79182142D01*
X120982142Y-79396428D01*
X120125000Y-80253571D01*
X121053571Y-80253571D01*
X121982142Y-78753571D02*
X122125000Y-78753571D01*
X122267857Y-78825000D01*
X122339285Y-78896428D01*
X122410714Y-79039285D01*
X122482142Y-79325000D01*
X122482142Y-79682142D01*
X122410714Y-79967857D01*
X122339285Y-80110714D01*
X122267857Y-80182142D01*
X122125000Y-80253571D01*
X121982142Y-80253571D01*
X121839285Y-80182142D01*
X121767857Y-80110714D01*
X121696428Y-79967857D01*
X121625000Y-79682142D01*
X121625000Y-79325000D01*
X121696428Y-79039285D01*
X121767857Y-78896428D01*
X121839285Y-78825000D01*
X121982142Y-78753571D01*
X123910714Y-80253571D02*
X123053571Y-80253571D01*
X123482142Y-80253571D02*
X123482142Y-78753571D01*
X123339285Y-78967857D01*
X123196428Y-79110714D01*
X123053571Y-79182142D01*
X124625000Y-80253571D02*
X124910714Y-80253571D01*
X125053571Y-80182142D01*
X125125000Y-80110714D01*
X125267857Y-79896428D01*
X125339285Y-79610714D01*
X125339285Y-79039285D01*
X125267857Y-78896428D01*
X125196428Y-78825000D01*
X125053571Y-78753571D01*
X124767857Y-78753571D01*
X124625000Y-78825000D01*
X124553571Y-78896428D01*
X124482142Y-79039285D01*
X124482142Y-79396428D01*
X124553571Y-79539285D01*
X124625000Y-79610714D01*
X124767857Y-79682142D01*
X125053571Y-79682142D01*
X125196428Y-79610714D01*
X125267857Y-79539285D01*
X125339285Y-79396428D01*
X125982142Y-79682142D02*
X127125000Y-79682142D01*
X128125000Y-78753571D02*
X128267857Y-78753571D01*
X128410714Y-78825000D01*
X128482142Y-78896428D01*
X128553571Y-79039285D01*
X128625000Y-79325000D01*
X128625000Y-79682142D01*
X128553571Y-79967857D01*
X128482142Y-80110714D01*
X128410714Y-80182142D01*
X128267857Y-80253571D01*
X128125000Y-80253571D01*
X127982142Y-80182142D01*
X127910714Y-80110714D01*
X127839285Y-79967857D01*
X127767857Y-79682142D01*
X127767857Y-79325000D01*
X127839285Y-79039285D01*
X127910714Y-78896428D01*
X127982142Y-78825000D01*
X128125000Y-78753571D01*
X129982142Y-78753571D02*
X129267857Y-78753571D01*
X129196428Y-79467857D01*
X129267857Y-79396428D01*
X129410714Y-79325000D01*
X129767857Y-79325000D01*
X129910714Y-79396428D01*
X129982142Y-79467857D01*
X130053571Y-79610714D01*
X130053571Y-79967857D01*
X129982142Y-80110714D01*
X129910714Y-80182142D01*
X129767857Y-80253571D01*
X129410714Y-80253571D01*
X129267857Y-80182142D01*
X129196428Y-80110714D01*
D11*
X145000000Y-72000000D02*
X115000000Y-72000000D01*
X145000000Y-95000000D02*
X145000000Y-72000000D01*
X115000000Y-95000000D02*
X145000000Y-95000000D01*
X115000000Y-72000000D02*
X115000000Y-95000000D01*
D12*
G04 #@! TO.C,CON1*
X117460000Y-85805000D02*
X117460000Y-92455000D01*
X117460000Y-92455000D02*
X124040000Y-92455000D01*
X124040000Y-92455000D02*
X124040000Y-85815000D01*
X124040000Y-85815000D02*
X117440000Y-85815000D01*
G04 #@! TO.C,CON2*
X137085000Y-86305000D02*
X137085000Y-92955000D01*
X137085000Y-92955000D02*
X143665000Y-92955000D01*
X143665000Y-92955000D02*
X143665000Y-86315000D01*
X143665000Y-86315000D02*
X137065000Y-86315000D01*
G04 #@! TO.C,CON3*
X143690000Y-76265000D02*
X137090000Y-76265000D01*
X143690000Y-82905000D02*
X143690000Y-76265000D01*
X137110000Y-82905000D02*
X143690000Y-82905000D01*
X137110000Y-76255000D02*
X137110000Y-82905000D01*
D13*
G04 #@! TO.C,J3*
X121120000Y-75380000D02*
X121120000Y-72720000D01*
X118520000Y-75380000D02*
X121120000Y-75380000D01*
X118520000Y-72720000D02*
X121120000Y-72720000D01*
X118520000Y-75380000D02*
X118520000Y-72720000D01*
X117250000Y-75380000D02*
X115920000Y-75380000D01*
X115920000Y-75380000D02*
X115920000Y-74050000D01*
G04 #@! TD*
M02*
