M48
;DRILL file {KiCad (5.0.1)-4} date 5/20/2019 12:36:37 PM
;FORMAT={2:4/ absolute / inch / suppress leading zeros}
FMAT,2
INCH,TZ
T1C0.0138
T2C0.0157
T3C0.0394
%
G90
G05
M72
T1
X50699Y-35089
T2
X45669Y-32953
X45679Y-34961
X45689Y-31260
X45689Y-32156
X45689Y-35906
X45689Y-36919
X45719Y-33917
X46555Y-35138
X46585Y-32923
X46594Y-32146
X46604Y-31270
X46624Y-36890
X47539Y-34154
X47539Y-36024
X47549Y-32165
X47549Y-36880
X48474Y-32175
X48474Y-36880
X48494Y-33041
X49232Y-35561
X49242Y-34606
X49311Y-32165
X49341Y-33041
X49823Y-34587
X49823Y-35502
X49833Y-36890
X50187Y-32165
X50217Y-33022
X50276Y-34154
X50285Y-35994
X50886Y-34144
X51014Y-29055
X51014Y-32096
X51033Y-36024
X51043Y-30758
X51043Y-33012
X51201Y-36890
X51506Y-34469
X51535Y-35728
X51791Y-31368
X51811Y-31900
X51821Y-32431
X51821Y-32953
X51831Y-33445
X51841Y-33967
X51909Y-29528
X51949Y-28691
X51988Y-30955
X52077Y-35689
X52431Y-30522
X52441Y-30010
X52490Y-36850
X52559Y-31713
X52569Y-32224
X52569Y-32736
X52569Y-33297
X52569Y-33839
X52569Y-34360
X52569Y-34892
X52579Y-35738
X52933Y-30531
X52943Y-30010
X53031Y-28691
X53071Y-34843
X53071Y-35797
X53081Y-31781
X53100Y-29528
X53297Y-32628
X53297Y-33937
X53524Y-30049
X53524Y-30541
X53524Y-36900
X53583Y-35837
X53593Y-31880
X53602Y-34783
X54222Y-28681
X54232Y-29537
X54301Y-33307
X54537Y-36959
X55148Y-28691
X55226Y-36201
X55246Y-30404
X55246Y-34390
X55285Y-32224
X56191Y-31299
X56191Y-36988
X56201Y-35364
X56220Y-28720
X56230Y-29547
X56289Y-33287
T3
X46161Y-29154
X47161Y-29154
T0
M30
