G04 #@! TF.GenerationSoftware,KiCad,Pcbnew,(5.0.1)-4*
G04 #@! TF.CreationDate,2019-05-20T12:36:30-07:00*
G04 #@! TF.ProjectId,Fanout_circuit,46616E6F75745F636972637569742E6B,rev?*
G04 #@! TF.SameCoordinates,Original*
G04 #@! TF.FileFunction,Copper,L4,Bot,Signal*
G04 #@! TF.FilePolarity,Positive*
%FSLAX46Y46*%
G04 Gerber Fmt 4.6, Leading zero omitted, Abs format (unit mm)*
G04 Created by KiCad (PCBNEW (5.0.1)-4) date 5/20/2019 12:36:30 PM*
%MOMM*%
%LPD*%
G01*
G04 APERTURE LIST*
G04 #@! TA.AperFunction,ViaPad*
%ADD10C,0.600000*%
G04 #@! TD*
G04 #@! TA.AperFunction,ComponentPad*
%ADD11R,1.700000X1.700000*%
G04 #@! TD*
G04 #@! TA.AperFunction,ComponentPad*
%ADD12O,1.700000X1.700000*%
G04 #@! TD*
G04 #@! TA.AperFunction,ViaPad*
%ADD13C,0.800000*%
G04 #@! TD*
G04 #@! TA.AperFunction,Conductor*
%ADD14C,0.250000*%
G04 #@! TD*
G04 #@! TA.AperFunction,Conductor*
%ADD15C,0.254000*%
G04 #@! TD*
G04 APERTURE END LIST*
D10*
G04 #@! TO.N,GND*
G04 #@! TO.C,R1*
X128775000Y-89125000D03*
G04 #@! TD*
D11*
G04 #@! TO.P,J3,1*
G04 #@! TO.N,+5V*
X117250000Y-74050000D03*
D12*
G04 #@! TO.P,J3,2*
G04 #@! TO.N,GND*
X119790000Y-74050000D03*
G04 #@! TD*
D13*
G04 #@! TO.N,GND*
X118250000Y-89250000D03*
X120750000Y-91500000D03*
X120750000Y-86750000D03*
X125075000Y-87900000D03*
X126550000Y-87850000D03*
X127700000Y-86750000D03*
X129250000Y-86725000D03*
X130825000Y-87550000D03*
X125050000Y-90325000D03*
X126550000Y-90175000D03*
X127725000Y-91425000D03*
X129625000Y-91500000D03*
X130900000Y-90750000D03*
X134475000Y-76225000D03*
X133200000Y-76225000D03*
X133175000Y-77525000D03*
X134450000Y-77550000D03*
X135950000Y-77575000D03*
X135950000Y-76325000D03*
X140325000Y-77225000D03*
X142725000Y-79500000D03*
X140425000Y-81850000D03*
X131675000Y-86275000D03*
X131650000Y-84950000D03*
X131625000Y-83700000D03*
X131625000Y-82375000D03*
X131600000Y-81025000D03*
X131550000Y-79675000D03*
X132050000Y-78625000D03*
X132275000Y-90650000D03*
X133550000Y-90775000D03*
X134800000Y-90925000D03*
X136100000Y-91025000D03*
X140275000Y-91950000D03*
X142750000Y-89825000D03*
X140325000Y-87350000D03*
X136150000Y-88350000D03*
X134800000Y-88500000D03*
X133525000Y-88625000D03*
X133525000Y-87275000D03*
X133525000Y-85950000D03*
X133525000Y-84575000D03*
X133525000Y-83150000D03*
X133525000Y-81850000D03*
X133500000Y-80550000D03*
X134825000Y-80725000D03*
X136125000Y-80975000D03*
X120775000Y-81700000D03*
X118350000Y-81650000D03*
X116050000Y-81675000D03*
X116000000Y-83700000D03*
X118325000Y-83625000D03*
X116125000Y-86150000D03*
X116025000Y-88800000D03*
X116050000Y-91200000D03*
X116050000Y-93775000D03*
X118425000Y-93700000D03*
X120775000Y-93675000D03*
X123125000Y-93675000D03*
X126575000Y-93700000D03*
X130050000Y-93700000D03*
X133325000Y-93600000D03*
X135950000Y-93725000D03*
X138525000Y-93875000D03*
X142725000Y-93950000D03*
X137750000Y-75025000D03*
X142825000Y-75050000D03*
X142800000Y-72950000D03*
X140075000Y-72875000D03*
X137725000Y-72850000D03*
X137925000Y-84600000D03*
X142975000Y-84550000D03*
X135375000Y-82875000D03*
X135375000Y-86200000D03*
X129650000Y-78125000D03*
X129575000Y-73800000D03*
X129575000Y-81525000D03*
X129650000Y-83850000D03*
X127550000Y-83875000D03*
X127475000Y-81700000D03*
X125325000Y-83925000D03*
X125250000Y-81700000D03*
X123175000Y-83925000D03*
X123125000Y-81725000D03*
X134700000Y-72875000D03*
X131950000Y-72875000D03*
X131850000Y-75000000D03*
X134875000Y-75000000D03*
X116050000Y-79400000D03*
X118375000Y-79425000D03*
G04 #@! TD*
D14*
G04 #@! TO.N,GND*
X125075000Y-87900000D02*
X126500000Y-87900000D01*
X126500000Y-87900000D02*
X126550000Y-87850000D01*
X127700000Y-86750000D02*
X129225000Y-86750000D01*
X129225000Y-86750000D02*
X129250000Y-86725000D01*
X125050000Y-90325000D02*
X126400000Y-90325000D01*
X126400000Y-90325000D02*
X126550000Y-90175000D01*
X127725000Y-91425000D02*
X129550000Y-91425000D01*
X129550000Y-91425000D02*
X129625000Y-91500000D01*
X134475000Y-76225000D02*
X133200000Y-76225000D01*
X133175000Y-77525000D02*
X134425000Y-77525000D01*
X134425000Y-77525000D02*
X134450000Y-77550000D01*
X135950000Y-77575000D02*
X135950000Y-76325000D01*
X131675000Y-86275000D02*
X131675000Y-84975000D01*
X131675000Y-84975000D02*
X131650000Y-84950000D01*
X131625000Y-83700000D02*
X131625000Y-82375000D01*
X131600000Y-81025000D02*
X131600000Y-79725000D01*
X131600000Y-79725000D02*
X131550000Y-79675000D01*
X132275000Y-90650000D02*
X133425000Y-90650000D01*
X133425000Y-90650000D02*
X133550000Y-90775000D01*
X134800000Y-90925000D02*
X136000000Y-90925000D01*
X136000000Y-90925000D02*
X136100000Y-91025000D01*
X136150000Y-88350000D02*
X134950000Y-88350000D01*
X134950000Y-88350000D02*
X134800000Y-88500000D01*
X133525000Y-88625000D02*
X133525000Y-87275000D01*
X133525000Y-85950000D02*
X133525000Y-84575000D01*
X133525000Y-83150000D02*
X133525000Y-81850000D01*
X133500000Y-80550000D02*
X134650000Y-80550000D01*
X134650000Y-80550000D02*
X134825000Y-80725000D01*
X120775000Y-81700000D02*
X118400000Y-81700000D01*
X118400000Y-81700000D02*
X118350000Y-81650000D01*
X116050000Y-81675000D02*
X116050000Y-83650000D01*
X116050000Y-83650000D02*
X116000000Y-83700000D01*
X118325000Y-83625000D02*
X116125000Y-85825000D01*
X116125000Y-85825000D02*
X116125000Y-86150000D01*
X116025000Y-88800000D02*
X116025000Y-91175000D01*
X116025000Y-91175000D02*
X116050000Y-91200000D01*
X116050000Y-93775000D02*
X118350000Y-93775000D01*
X118350000Y-93775000D02*
X118425000Y-93700000D01*
X120775000Y-93675000D02*
X123125000Y-93675000D01*
X126575000Y-93700000D02*
X130050000Y-93700000D01*
X133325000Y-93600000D02*
X135825000Y-93600000D01*
X135825000Y-93600000D02*
X135950000Y-93725000D01*
X138525000Y-93875000D02*
X142650000Y-93875000D01*
X142650000Y-93875000D02*
X142725000Y-93950000D01*
X142825000Y-75050000D02*
X142825000Y-72975000D01*
X142825000Y-72975000D02*
X142800000Y-72950000D01*
X140075000Y-72875000D02*
X137750000Y-72875000D01*
X137750000Y-72875000D02*
X137725000Y-72850000D01*
X137925000Y-84600000D02*
X142925000Y-84600000D01*
X142925000Y-84600000D02*
X142975000Y-84550000D01*
X135375000Y-82875000D02*
X135375000Y-86200000D01*
X127475000Y-83800000D02*
X127550000Y-83875000D01*
X129650000Y-73875000D02*
X129575000Y-73800000D01*
X125325000Y-83925000D02*
X125325000Y-81775000D01*
X129650000Y-83850000D02*
X129650000Y-81600000D01*
X129650000Y-78125000D02*
X129650000Y-73875000D01*
X127475000Y-81700000D02*
X127475000Y-83800000D01*
X129650000Y-81600000D02*
X129575000Y-81525000D01*
X125325000Y-81775000D02*
X125250000Y-81700000D01*
X123125000Y-83875000D02*
X123175000Y-83925000D01*
X123125000Y-81725000D02*
X123125000Y-83875000D01*
X134700000Y-72875000D02*
X131950000Y-72875000D01*
X131850000Y-75000000D02*
X134875000Y-75000000D01*
X116050000Y-81675000D02*
X116050000Y-79400000D01*
G04 #@! TD*
D15*
G04 #@! TO.N,GND*
G36*
X144873000Y-94873000D02*
X115127000Y-94873000D01*
X115127000Y-73200000D01*
X116066594Y-73200000D01*
X116066594Y-74900000D01*
X116091973Y-75027589D01*
X116164246Y-75135754D01*
X116272411Y-75208027D01*
X116400000Y-75233406D01*
X118100000Y-75233406D01*
X118227589Y-75208027D01*
X118335754Y-75135754D01*
X118408027Y-75027589D01*
X118433406Y-74900000D01*
X118433406Y-73200000D01*
X118408027Y-73072411D01*
X118335754Y-72964246D01*
X118227589Y-72891973D01*
X118100000Y-72866594D01*
X116400000Y-72866594D01*
X116272411Y-72891973D01*
X116164246Y-72964246D01*
X116091973Y-73072411D01*
X116066594Y-73200000D01*
X115127000Y-73200000D01*
X115127000Y-72127000D01*
X144873000Y-72127000D01*
X144873000Y-94873000D01*
X144873000Y-94873000D01*
G37*
X144873000Y-94873000D02*
X115127000Y-94873000D01*
X115127000Y-73200000D01*
X116066594Y-73200000D01*
X116066594Y-74900000D01*
X116091973Y-75027589D01*
X116164246Y-75135754D01*
X116272411Y-75208027D01*
X116400000Y-75233406D01*
X118100000Y-75233406D01*
X118227589Y-75208027D01*
X118335754Y-75135754D01*
X118408027Y-75027589D01*
X118433406Y-74900000D01*
X118433406Y-73200000D01*
X118408027Y-73072411D01*
X118335754Y-72964246D01*
X118227589Y-72891973D01*
X118100000Y-72866594D01*
X116400000Y-72866594D01*
X116272411Y-72891973D01*
X116164246Y-72964246D01*
X116091973Y-73072411D01*
X116066594Y-73200000D01*
X115127000Y-73200000D01*
X115127000Y-72127000D01*
X144873000Y-72127000D01*
X144873000Y-94873000D01*
G04 #@! TD*
M02*
