G04 #@! TF.GenerationSoftware,KiCad,Pcbnew,(5.0.1)-4*
G04 #@! TF.CreationDate,2019-05-20T12:36:30-07:00*
G04 #@! TF.ProjectId,Fanout_circuit,46616E6F75745F636972637569742E6B,rev?*
G04 #@! TF.SameCoordinates,Original*
G04 #@! TF.FileFunction,Soldermask,Top*
G04 #@! TF.FilePolarity,Negative*
%FSLAX46Y46*%
G04 Gerber Fmt 4.6, Leading zero omitted, Abs format (unit mm)*
G04 Created by KiCad (PCBNEW (5.0.1)-4) date 5/20/2019 12:36:31 PM*
%MOMM*%
%LPD*%
G01*
G04 APERTURE LIST*
%ADD10C,0.200000*%
G04 APERTURE END LIST*
D10*
G36*
X142856552Y-93516331D02*
X142938625Y-93550327D01*
X142938626Y-93550328D01*
X142938629Y-93550329D01*
X143003160Y-93593448D01*
X143012500Y-93599689D01*
X143075311Y-93662500D01*
X143075313Y-93662503D01*
X143075314Y-93662504D01*
X143124671Y-93736371D01*
X143124672Y-93736374D01*
X143124673Y-93736375D01*
X143158669Y-93818448D01*
X143176000Y-93905579D01*
X143176000Y-93994421D01*
X143158669Y-94081552D01*
X143125139Y-94162500D01*
X143124671Y-94163629D01*
X143082995Y-94226000D01*
X143075311Y-94237500D01*
X143012500Y-94300311D01*
X143012497Y-94300313D01*
X143012496Y-94300314D01*
X142938629Y-94349671D01*
X142938626Y-94349672D01*
X142938625Y-94349673D01*
X142856552Y-94383669D01*
X142769421Y-94401000D01*
X142680579Y-94401000D01*
X142593448Y-94383669D01*
X142511375Y-94349673D01*
X142511374Y-94349672D01*
X142511371Y-94349671D01*
X142437504Y-94300314D01*
X142437503Y-94300313D01*
X142437500Y-94300311D01*
X142374689Y-94237500D01*
X142367005Y-94226000D01*
X142325329Y-94163629D01*
X142324861Y-94162500D01*
X142291331Y-94081552D01*
X142274000Y-93994421D01*
X142274000Y-93905579D01*
X142291331Y-93818448D01*
X142325327Y-93736375D01*
X142325328Y-93736374D01*
X142325329Y-93736371D01*
X142374686Y-93662504D01*
X142374687Y-93662503D01*
X142374689Y-93662500D01*
X142437500Y-93599689D01*
X142446840Y-93593448D01*
X142511371Y-93550329D01*
X142511374Y-93550328D01*
X142511375Y-93550327D01*
X142593448Y-93516331D01*
X142680579Y-93499000D01*
X142769421Y-93499000D01*
X142856552Y-93516331D01*
X142856552Y-93516331D01*
G37*
G36*
X138656552Y-93441331D02*
X138738625Y-93475327D01*
X138738626Y-93475328D01*
X138738629Y-93475329D01*
X138812496Y-93524686D01*
X138812500Y-93524689D01*
X138875311Y-93587500D01*
X138875313Y-93587503D01*
X138875314Y-93587504D01*
X138924671Y-93661371D01*
X138924672Y-93661374D01*
X138924673Y-93661375D01*
X138958669Y-93743448D01*
X138976000Y-93830579D01*
X138976000Y-93919421D01*
X138958669Y-94006552D01*
X138924673Y-94088625D01*
X138924671Y-94088629D01*
X138877871Y-94158669D01*
X138875311Y-94162500D01*
X138812500Y-94225311D01*
X138812497Y-94225313D01*
X138812496Y-94225314D01*
X138738629Y-94274671D01*
X138738626Y-94274672D01*
X138738625Y-94274673D01*
X138656552Y-94308669D01*
X138569421Y-94326000D01*
X138480579Y-94326000D01*
X138393448Y-94308669D01*
X138311375Y-94274673D01*
X138311374Y-94274672D01*
X138311371Y-94274671D01*
X138237504Y-94225314D01*
X138237503Y-94225313D01*
X138237500Y-94225311D01*
X138174689Y-94162500D01*
X138172129Y-94158669D01*
X138125329Y-94088629D01*
X138125327Y-94088625D01*
X138091331Y-94006552D01*
X138074000Y-93919421D01*
X138074000Y-93830579D01*
X138091331Y-93743448D01*
X138125327Y-93661375D01*
X138125328Y-93661374D01*
X138125329Y-93661371D01*
X138174686Y-93587504D01*
X138174687Y-93587503D01*
X138174689Y-93587500D01*
X138237500Y-93524689D01*
X138237504Y-93524686D01*
X138311371Y-93475329D01*
X138311374Y-93475328D01*
X138311375Y-93475327D01*
X138393448Y-93441331D01*
X138480579Y-93424000D01*
X138569421Y-93424000D01*
X138656552Y-93441331D01*
X138656552Y-93441331D01*
G37*
G36*
X116181552Y-93341331D02*
X116263625Y-93375327D01*
X116263626Y-93375328D01*
X116263629Y-93375329D01*
X116336469Y-93424000D01*
X116337500Y-93424689D01*
X116400311Y-93487500D01*
X116400313Y-93487503D01*
X116400314Y-93487504D01*
X116449671Y-93561371D01*
X116449672Y-93561374D01*
X116449673Y-93561375D01*
X116483669Y-93643448D01*
X116501000Y-93730579D01*
X116501000Y-93819421D01*
X116483669Y-93906552D01*
X116450139Y-93987500D01*
X116449671Y-93988629D01*
X116407995Y-94051000D01*
X116400311Y-94062500D01*
X116337500Y-94125311D01*
X116337497Y-94125313D01*
X116337496Y-94125314D01*
X116263629Y-94174671D01*
X116263626Y-94174672D01*
X116263625Y-94174673D01*
X116181552Y-94208669D01*
X116094421Y-94226000D01*
X116005579Y-94226000D01*
X115918448Y-94208669D01*
X115836375Y-94174673D01*
X115836374Y-94174672D01*
X115836371Y-94174671D01*
X115762504Y-94125314D01*
X115762503Y-94125313D01*
X115762500Y-94125311D01*
X115699689Y-94062500D01*
X115692005Y-94051000D01*
X115650329Y-93988629D01*
X115649861Y-93987500D01*
X115616331Y-93906552D01*
X115599000Y-93819421D01*
X115599000Y-93730579D01*
X115616331Y-93643448D01*
X115650327Y-93561375D01*
X115650328Y-93561374D01*
X115650329Y-93561371D01*
X115699686Y-93487504D01*
X115699687Y-93487503D01*
X115699689Y-93487500D01*
X115762500Y-93424689D01*
X115763531Y-93424000D01*
X115836371Y-93375329D01*
X115836374Y-93375328D01*
X115836375Y-93375327D01*
X115918448Y-93341331D01*
X116005579Y-93324000D01*
X116094421Y-93324000D01*
X116181552Y-93341331D01*
X116181552Y-93341331D01*
G37*
G36*
X136081552Y-93291331D02*
X136163625Y-93325327D01*
X136163626Y-93325328D01*
X136163629Y-93325329D01*
X136237496Y-93374686D01*
X136237500Y-93374689D01*
X136300311Y-93437500D01*
X136300313Y-93437503D01*
X136300314Y-93437504D01*
X136349671Y-93511371D01*
X136349672Y-93511374D01*
X136349673Y-93511375D01*
X136383669Y-93593448D01*
X136401000Y-93680579D01*
X136401000Y-93769421D01*
X136383669Y-93856552D01*
X136349673Y-93938625D01*
X136349671Y-93938629D01*
X136300314Y-94012496D01*
X136300311Y-94012500D01*
X136237500Y-94075311D01*
X136237497Y-94075313D01*
X136237496Y-94075314D01*
X136163629Y-94124671D01*
X136163626Y-94124672D01*
X136163625Y-94124673D01*
X136081552Y-94158669D01*
X135994421Y-94176000D01*
X135905579Y-94176000D01*
X135818448Y-94158669D01*
X135736375Y-94124673D01*
X135736374Y-94124672D01*
X135736371Y-94124671D01*
X135662504Y-94075314D01*
X135662503Y-94075313D01*
X135662500Y-94075311D01*
X135599689Y-94012500D01*
X135599686Y-94012496D01*
X135550329Y-93938629D01*
X135550327Y-93938625D01*
X135516331Y-93856552D01*
X135499000Y-93769421D01*
X135499000Y-93680579D01*
X135516331Y-93593448D01*
X135550327Y-93511375D01*
X135550328Y-93511374D01*
X135550329Y-93511371D01*
X135599686Y-93437504D01*
X135599687Y-93437503D01*
X135599689Y-93437500D01*
X135662500Y-93374689D01*
X135662504Y-93374686D01*
X135736371Y-93325329D01*
X135736374Y-93325328D01*
X135736375Y-93325327D01*
X135818448Y-93291331D01*
X135905579Y-93274000D01*
X135994421Y-93274000D01*
X136081552Y-93291331D01*
X136081552Y-93291331D01*
G37*
G36*
X126706552Y-93266331D02*
X126788625Y-93300327D01*
X126788626Y-93300328D01*
X126788629Y-93300329D01*
X126862496Y-93349686D01*
X126862500Y-93349689D01*
X126925311Y-93412500D01*
X126925313Y-93412503D01*
X126925314Y-93412504D01*
X126974671Y-93486371D01*
X126974672Y-93486374D01*
X126974673Y-93486375D01*
X127008669Y-93568448D01*
X127026000Y-93655579D01*
X127026000Y-93744421D01*
X127008669Y-93831552D01*
X126974673Y-93913625D01*
X126974671Y-93913629D01*
X126942016Y-93962500D01*
X126925311Y-93987500D01*
X126862500Y-94050311D01*
X126862497Y-94050313D01*
X126862496Y-94050314D01*
X126788629Y-94099671D01*
X126788626Y-94099672D01*
X126788625Y-94099673D01*
X126706552Y-94133669D01*
X126619421Y-94151000D01*
X126530579Y-94151000D01*
X126443448Y-94133669D01*
X126361375Y-94099673D01*
X126361374Y-94099672D01*
X126361371Y-94099671D01*
X126287504Y-94050314D01*
X126287503Y-94050313D01*
X126287500Y-94050311D01*
X126224689Y-93987500D01*
X126207984Y-93962500D01*
X126175329Y-93913629D01*
X126175327Y-93913625D01*
X126141331Y-93831552D01*
X126124000Y-93744421D01*
X126124000Y-93655579D01*
X126141331Y-93568448D01*
X126175327Y-93486375D01*
X126175328Y-93486374D01*
X126175329Y-93486371D01*
X126224686Y-93412504D01*
X126224687Y-93412503D01*
X126224689Y-93412500D01*
X126287500Y-93349689D01*
X126287504Y-93349686D01*
X126361371Y-93300329D01*
X126361374Y-93300328D01*
X126361375Y-93300327D01*
X126443448Y-93266331D01*
X126530579Y-93249000D01*
X126619421Y-93249000D01*
X126706552Y-93266331D01*
X126706552Y-93266331D01*
G37*
G36*
X130181552Y-93266331D02*
X130263625Y-93300327D01*
X130263626Y-93300328D01*
X130263629Y-93300329D01*
X130337496Y-93349686D01*
X130337500Y-93349689D01*
X130400311Y-93412500D01*
X130400313Y-93412503D01*
X130400314Y-93412504D01*
X130449671Y-93486371D01*
X130449672Y-93486374D01*
X130449673Y-93486375D01*
X130483669Y-93568448D01*
X130501000Y-93655579D01*
X130501000Y-93744421D01*
X130483669Y-93831552D01*
X130449673Y-93913625D01*
X130449671Y-93913629D01*
X130417016Y-93962500D01*
X130400311Y-93987500D01*
X130337500Y-94050311D01*
X130337497Y-94050313D01*
X130337496Y-94050314D01*
X130263629Y-94099671D01*
X130263626Y-94099672D01*
X130263625Y-94099673D01*
X130181552Y-94133669D01*
X130094421Y-94151000D01*
X130005579Y-94151000D01*
X129918448Y-94133669D01*
X129836375Y-94099673D01*
X129836374Y-94099672D01*
X129836371Y-94099671D01*
X129762504Y-94050314D01*
X129762503Y-94050313D01*
X129762500Y-94050311D01*
X129699689Y-93987500D01*
X129682984Y-93962500D01*
X129650329Y-93913629D01*
X129650327Y-93913625D01*
X129616331Y-93831552D01*
X129599000Y-93744421D01*
X129599000Y-93655579D01*
X129616331Y-93568448D01*
X129650327Y-93486375D01*
X129650328Y-93486374D01*
X129650329Y-93486371D01*
X129699686Y-93412504D01*
X129699687Y-93412503D01*
X129699689Y-93412500D01*
X129762500Y-93349689D01*
X129762504Y-93349686D01*
X129836371Y-93300329D01*
X129836374Y-93300328D01*
X129836375Y-93300327D01*
X129918448Y-93266331D01*
X130005579Y-93249000D01*
X130094421Y-93249000D01*
X130181552Y-93266331D01*
X130181552Y-93266331D01*
G37*
G36*
X118556552Y-93266331D02*
X118638625Y-93300327D01*
X118638626Y-93300328D01*
X118638629Y-93300329D01*
X118712496Y-93349686D01*
X118712500Y-93349689D01*
X118775311Y-93412500D01*
X118775313Y-93412503D01*
X118775314Y-93412504D01*
X118824671Y-93486371D01*
X118824672Y-93486374D01*
X118824673Y-93486375D01*
X118858669Y-93568448D01*
X118876000Y-93655579D01*
X118876000Y-93744421D01*
X118858669Y-93831552D01*
X118824673Y-93913625D01*
X118824671Y-93913629D01*
X118792016Y-93962500D01*
X118775311Y-93987500D01*
X118712500Y-94050311D01*
X118712497Y-94050313D01*
X118712496Y-94050314D01*
X118638629Y-94099671D01*
X118638626Y-94099672D01*
X118638625Y-94099673D01*
X118556552Y-94133669D01*
X118469421Y-94151000D01*
X118380579Y-94151000D01*
X118293448Y-94133669D01*
X118211375Y-94099673D01*
X118211374Y-94099672D01*
X118211371Y-94099671D01*
X118137504Y-94050314D01*
X118137503Y-94050313D01*
X118137500Y-94050311D01*
X118074689Y-93987500D01*
X118057984Y-93962500D01*
X118025329Y-93913629D01*
X118025327Y-93913625D01*
X117991331Y-93831552D01*
X117974000Y-93744421D01*
X117974000Y-93655579D01*
X117991331Y-93568448D01*
X118025327Y-93486375D01*
X118025328Y-93486374D01*
X118025329Y-93486371D01*
X118074686Y-93412504D01*
X118074687Y-93412503D01*
X118074689Y-93412500D01*
X118137500Y-93349689D01*
X118137504Y-93349686D01*
X118211371Y-93300329D01*
X118211374Y-93300328D01*
X118211375Y-93300327D01*
X118293448Y-93266331D01*
X118380579Y-93249000D01*
X118469421Y-93249000D01*
X118556552Y-93266331D01*
X118556552Y-93266331D01*
G37*
G36*
X120906552Y-93241331D02*
X120988625Y-93275327D01*
X120988626Y-93275328D01*
X120988629Y-93275329D01*
X121061469Y-93324000D01*
X121062500Y-93324689D01*
X121125311Y-93387500D01*
X121125313Y-93387503D01*
X121125314Y-93387504D01*
X121174671Y-93461371D01*
X121174672Y-93461374D01*
X121174673Y-93461375D01*
X121208669Y-93543448D01*
X121226000Y-93630579D01*
X121226000Y-93719421D01*
X121208669Y-93806552D01*
X121175139Y-93887500D01*
X121174671Y-93888629D01*
X121125314Y-93962496D01*
X121125311Y-93962500D01*
X121062500Y-94025311D01*
X121062497Y-94025313D01*
X121062496Y-94025314D01*
X120988629Y-94074671D01*
X120988626Y-94074672D01*
X120988625Y-94074673D01*
X120906552Y-94108669D01*
X120819421Y-94126000D01*
X120730579Y-94126000D01*
X120643448Y-94108669D01*
X120561375Y-94074673D01*
X120561374Y-94074672D01*
X120561371Y-94074671D01*
X120487504Y-94025314D01*
X120487503Y-94025313D01*
X120487500Y-94025311D01*
X120424689Y-93962500D01*
X120424686Y-93962496D01*
X120375329Y-93888629D01*
X120374861Y-93887500D01*
X120341331Y-93806552D01*
X120324000Y-93719421D01*
X120324000Y-93630579D01*
X120341331Y-93543448D01*
X120375327Y-93461375D01*
X120375328Y-93461374D01*
X120375329Y-93461371D01*
X120424686Y-93387504D01*
X120424687Y-93387503D01*
X120424689Y-93387500D01*
X120487500Y-93324689D01*
X120488531Y-93324000D01*
X120561371Y-93275329D01*
X120561374Y-93275328D01*
X120561375Y-93275327D01*
X120643448Y-93241331D01*
X120730579Y-93224000D01*
X120819421Y-93224000D01*
X120906552Y-93241331D01*
X120906552Y-93241331D01*
G37*
G36*
X123256552Y-93241331D02*
X123338625Y-93275327D01*
X123338626Y-93275328D01*
X123338629Y-93275329D01*
X123411469Y-93324000D01*
X123412500Y-93324689D01*
X123475311Y-93387500D01*
X123475313Y-93387503D01*
X123475314Y-93387504D01*
X123524671Y-93461371D01*
X123524672Y-93461374D01*
X123524673Y-93461375D01*
X123558669Y-93543448D01*
X123576000Y-93630579D01*
X123576000Y-93719421D01*
X123558669Y-93806552D01*
X123525139Y-93887500D01*
X123524671Y-93888629D01*
X123475314Y-93962496D01*
X123475311Y-93962500D01*
X123412500Y-94025311D01*
X123412497Y-94025313D01*
X123412496Y-94025314D01*
X123338629Y-94074671D01*
X123338626Y-94074672D01*
X123338625Y-94074673D01*
X123256552Y-94108669D01*
X123169421Y-94126000D01*
X123080579Y-94126000D01*
X122993448Y-94108669D01*
X122911375Y-94074673D01*
X122911374Y-94074672D01*
X122911371Y-94074671D01*
X122837504Y-94025314D01*
X122837503Y-94025313D01*
X122837500Y-94025311D01*
X122774689Y-93962500D01*
X122774686Y-93962496D01*
X122725329Y-93888629D01*
X122724861Y-93887500D01*
X122691331Y-93806552D01*
X122674000Y-93719421D01*
X122674000Y-93630579D01*
X122691331Y-93543448D01*
X122725327Y-93461375D01*
X122725328Y-93461374D01*
X122725329Y-93461371D01*
X122774686Y-93387504D01*
X122774687Y-93387503D01*
X122774689Y-93387500D01*
X122837500Y-93324689D01*
X122838531Y-93324000D01*
X122911371Y-93275329D01*
X122911374Y-93275328D01*
X122911375Y-93275327D01*
X122993448Y-93241331D01*
X123080579Y-93224000D01*
X123169421Y-93224000D01*
X123256552Y-93241331D01*
X123256552Y-93241331D01*
G37*
G36*
X133456552Y-93166331D02*
X133538625Y-93200327D01*
X133538626Y-93200328D01*
X133538629Y-93200329D01*
X133611469Y-93249000D01*
X133612500Y-93249689D01*
X133675311Y-93312500D01*
X133675313Y-93312503D01*
X133675314Y-93312504D01*
X133724671Y-93386371D01*
X133724672Y-93386374D01*
X133724673Y-93386375D01*
X133758669Y-93468448D01*
X133776000Y-93555579D01*
X133776000Y-93644421D01*
X133758669Y-93731552D01*
X133724673Y-93813625D01*
X133724671Y-93813629D01*
X133695990Y-93856552D01*
X133675311Y-93887500D01*
X133612500Y-93950311D01*
X133612497Y-93950313D01*
X133612496Y-93950314D01*
X133538629Y-93999671D01*
X133538626Y-93999672D01*
X133538625Y-93999673D01*
X133456552Y-94033669D01*
X133369421Y-94051000D01*
X133280579Y-94051000D01*
X133193448Y-94033669D01*
X133111375Y-93999673D01*
X133111374Y-93999672D01*
X133111371Y-93999671D01*
X133037504Y-93950314D01*
X133037503Y-93950313D01*
X133037500Y-93950311D01*
X132974689Y-93887500D01*
X132954010Y-93856552D01*
X132925329Y-93813629D01*
X132925327Y-93813625D01*
X132891331Y-93731552D01*
X132874000Y-93644421D01*
X132874000Y-93555579D01*
X132891331Y-93468448D01*
X132925327Y-93386375D01*
X132925328Y-93386374D01*
X132925329Y-93386371D01*
X132974686Y-93312504D01*
X132974687Y-93312503D01*
X132974689Y-93312500D01*
X133037500Y-93249689D01*
X133038531Y-93249000D01*
X133111371Y-93200329D01*
X133111374Y-93200328D01*
X133111375Y-93200327D01*
X133193448Y-93166331D01*
X133280579Y-93149000D01*
X133369421Y-93149000D01*
X133456552Y-93166331D01*
X133456552Y-93166331D01*
G37*
G36*
X143751000Y-93001000D02*
X141749000Y-93001000D01*
X141749000Y-90999000D01*
X143751000Y-90999000D01*
X143751000Y-93001000D01*
X143751000Y-93001000D01*
G37*
G36*
X139001000Y-93001000D02*
X136999000Y-93001000D01*
X136999000Y-90999000D01*
X139001000Y-90999000D01*
X139001000Y-93001000D01*
X139001000Y-93001000D01*
G37*
G36*
X124126000Y-92501000D02*
X122124000Y-92501000D01*
X122124000Y-90499000D01*
X124126000Y-90499000D01*
X124126000Y-92501000D01*
X124126000Y-92501000D01*
G37*
G36*
X119376000Y-92501000D02*
X117374000Y-92501000D01*
X117374000Y-90499000D01*
X119376000Y-90499000D01*
X119376000Y-92501000D01*
X119376000Y-92501000D01*
G37*
G36*
X140406552Y-91516331D02*
X140488625Y-91550327D01*
X140488626Y-91550328D01*
X140488629Y-91550329D01*
X140562496Y-91599686D01*
X140562500Y-91599689D01*
X140625311Y-91662500D01*
X140625313Y-91662503D01*
X140625314Y-91662504D01*
X140674671Y-91736371D01*
X140674672Y-91736374D01*
X140674673Y-91736375D01*
X140708669Y-91818448D01*
X140726000Y-91905579D01*
X140726000Y-91994421D01*
X140708669Y-92081552D01*
X140674673Y-92163625D01*
X140674671Y-92163629D01*
X140625314Y-92237496D01*
X140625311Y-92237500D01*
X140562500Y-92300311D01*
X140562497Y-92300313D01*
X140562496Y-92300314D01*
X140488629Y-92349671D01*
X140488626Y-92349672D01*
X140488625Y-92349673D01*
X140406552Y-92383669D01*
X140319421Y-92401000D01*
X140230579Y-92401000D01*
X140143448Y-92383669D01*
X140061375Y-92349673D01*
X140061374Y-92349672D01*
X140061371Y-92349671D01*
X139987504Y-92300314D01*
X139987503Y-92300313D01*
X139987500Y-92300311D01*
X139924689Y-92237500D01*
X139924686Y-92237496D01*
X139875329Y-92163629D01*
X139875327Y-92163625D01*
X139841331Y-92081552D01*
X139824000Y-91994421D01*
X139824000Y-91905579D01*
X139841331Y-91818448D01*
X139875327Y-91736375D01*
X139875328Y-91736374D01*
X139875329Y-91736371D01*
X139924686Y-91662504D01*
X139924687Y-91662503D01*
X139924689Y-91662500D01*
X139987500Y-91599689D01*
X139987504Y-91599686D01*
X140061371Y-91550329D01*
X140061374Y-91550328D01*
X140061375Y-91550327D01*
X140143448Y-91516331D01*
X140230579Y-91499000D01*
X140319421Y-91499000D01*
X140406552Y-91516331D01*
X140406552Y-91516331D01*
G37*
G36*
X120881552Y-91066331D02*
X120963625Y-91100327D01*
X120963626Y-91100328D01*
X120963629Y-91100329D01*
X121037496Y-91149686D01*
X121037500Y-91149689D01*
X121100311Y-91212500D01*
X121100313Y-91212503D01*
X121100314Y-91212504D01*
X121149671Y-91286371D01*
X121149672Y-91286374D01*
X121149673Y-91286375D01*
X121183669Y-91368448D01*
X121201000Y-91455579D01*
X121201000Y-91544421D01*
X121183669Y-91631552D01*
X121150139Y-91712500D01*
X121149671Y-91713629D01*
X121100314Y-91787496D01*
X121100311Y-91787500D01*
X121037500Y-91850311D01*
X121037497Y-91850313D01*
X121037496Y-91850314D01*
X120963629Y-91899671D01*
X120963626Y-91899672D01*
X120963625Y-91899673D01*
X120881552Y-91933669D01*
X120794421Y-91951000D01*
X120705579Y-91951000D01*
X120618448Y-91933669D01*
X120536375Y-91899673D01*
X120536374Y-91899672D01*
X120536371Y-91899671D01*
X120462504Y-91850314D01*
X120462503Y-91850313D01*
X120462500Y-91850311D01*
X120399689Y-91787500D01*
X120399686Y-91787496D01*
X120350329Y-91713629D01*
X120349861Y-91712500D01*
X120316331Y-91631552D01*
X120299000Y-91544421D01*
X120299000Y-91455579D01*
X120316331Y-91368448D01*
X120350327Y-91286375D01*
X120350328Y-91286374D01*
X120350329Y-91286371D01*
X120399686Y-91212504D01*
X120399687Y-91212503D01*
X120399689Y-91212500D01*
X120462500Y-91149689D01*
X120462504Y-91149686D01*
X120536371Y-91100329D01*
X120536374Y-91100328D01*
X120536375Y-91100327D01*
X120618448Y-91066331D01*
X120705579Y-91049000D01*
X120794421Y-91049000D01*
X120881552Y-91066331D01*
X120881552Y-91066331D01*
G37*
G36*
X129756552Y-91066331D02*
X129838625Y-91100327D01*
X129838626Y-91100328D01*
X129838629Y-91100329D01*
X129912496Y-91149686D01*
X129912500Y-91149689D01*
X129975311Y-91212500D01*
X129975313Y-91212503D01*
X129975314Y-91212504D01*
X130024671Y-91286371D01*
X130024672Y-91286374D01*
X130024673Y-91286375D01*
X130058669Y-91368448D01*
X130076000Y-91455579D01*
X130076000Y-91544421D01*
X130058669Y-91631552D01*
X130025139Y-91712500D01*
X130024671Y-91713629D01*
X129975314Y-91787496D01*
X129975311Y-91787500D01*
X129912500Y-91850311D01*
X129912497Y-91850313D01*
X129912496Y-91850314D01*
X129838629Y-91899671D01*
X129838626Y-91899672D01*
X129838625Y-91899673D01*
X129756552Y-91933669D01*
X129669421Y-91951000D01*
X129580579Y-91951000D01*
X129493448Y-91933669D01*
X129411375Y-91899673D01*
X129411374Y-91899672D01*
X129411371Y-91899671D01*
X129337504Y-91850314D01*
X129337503Y-91850313D01*
X129337500Y-91850311D01*
X129274689Y-91787500D01*
X129274686Y-91787496D01*
X129225329Y-91713629D01*
X129224861Y-91712500D01*
X129191331Y-91631552D01*
X129174000Y-91544421D01*
X129174000Y-91455579D01*
X129191331Y-91368448D01*
X129225327Y-91286375D01*
X129225328Y-91286374D01*
X129225329Y-91286371D01*
X129274686Y-91212504D01*
X129274687Y-91212503D01*
X129274689Y-91212500D01*
X129337500Y-91149689D01*
X129337504Y-91149686D01*
X129411371Y-91100329D01*
X129411374Y-91100328D01*
X129411375Y-91100327D01*
X129493448Y-91066331D01*
X129580579Y-91049000D01*
X129669421Y-91049000D01*
X129756552Y-91066331D01*
X129756552Y-91066331D01*
G37*
G36*
X127856552Y-90991331D02*
X127938625Y-91025327D01*
X127938626Y-91025328D01*
X127938629Y-91025329D01*
X128004616Y-91069421D01*
X128012500Y-91074689D01*
X128075311Y-91137500D01*
X128075313Y-91137503D01*
X128075314Y-91137504D01*
X128124671Y-91211371D01*
X128124672Y-91211374D01*
X128124673Y-91211375D01*
X128158669Y-91293448D01*
X128176000Y-91380579D01*
X128176000Y-91469421D01*
X128158669Y-91556552D01*
X128124673Y-91638625D01*
X128124671Y-91638629D01*
X128075314Y-91712496D01*
X128075311Y-91712500D01*
X128012500Y-91775311D01*
X128012497Y-91775313D01*
X128012496Y-91775314D01*
X127938629Y-91824671D01*
X127938626Y-91824672D01*
X127938625Y-91824673D01*
X127856552Y-91858669D01*
X127769421Y-91876000D01*
X127680579Y-91876000D01*
X127593448Y-91858669D01*
X127511375Y-91824673D01*
X127511374Y-91824672D01*
X127511371Y-91824671D01*
X127437504Y-91775314D01*
X127437503Y-91775313D01*
X127437500Y-91775311D01*
X127374689Y-91712500D01*
X127374686Y-91712496D01*
X127325329Y-91638629D01*
X127325327Y-91638625D01*
X127291331Y-91556552D01*
X127274000Y-91469421D01*
X127274000Y-91380579D01*
X127291331Y-91293448D01*
X127325327Y-91211375D01*
X127325328Y-91211374D01*
X127325329Y-91211371D01*
X127374686Y-91137504D01*
X127374687Y-91137503D01*
X127374689Y-91137500D01*
X127437500Y-91074689D01*
X127445384Y-91069421D01*
X127511371Y-91025329D01*
X127511374Y-91025328D01*
X127511375Y-91025327D01*
X127593448Y-90991331D01*
X127680579Y-90974000D01*
X127769421Y-90974000D01*
X127856552Y-90991331D01*
X127856552Y-90991331D01*
G37*
G36*
X116181552Y-90766331D02*
X116263625Y-90800327D01*
X116263626Y-90800328D01*
X116263629Y-90800329D01*
X116337496Y-90849686D01*
X116337500Y-90849689D01*
X116400311Y-90912500D01*
X116400313Y-90912503D01*
X116400314Y-90912504D01*
X116449671Y-90986371D01*
X116449672Y-90986374D01*
X116449673Y-90986375D01*
X116483669Y-91068448D01*
X116501000Y-91155579D01*
X116501000Y-91244421D01*
X116483669Y-91331552D01*
X116449673Y-91413625D01*
X116449671Y-91413629D01*
X116412392Y-91469420D01*
X116400311Y-91487500D01*
X116337500Y-91550311D01*
X116337497Y-91550313D01*
X116337496Y-91550314D01*
X116263629Y-91599671D01*
X116263626Y-91599672D01*
X116263625Y-91599673D01*
X116181552Y-91633669D01*
X116094421Y-91651000D01*
X116005579Y-91651000D01*
X115918448Y-91633669D01*
X115836375Y-91599673D01*
X115836374Y-91599672D01*
X115836371Y-91599671D01*
X115762504Y-91550314D01*
X115762503Y-91550313D01*
X115762500Y-91550311D01*
X115699689Y-91487500D01*
X115687608Y-91469420D01*
X115650329Y-91413629D01*
X115650327Y-91413625D01*
X115616331Y-91331552D01*
X115599000Y-91244421D01*
X115599000Y-91155579D01*
X115616331Y-91068448D01*
X115650327Y-90986375D01*
X115650328Y-90986374D01*
X115650329Y-90986371D01*
X115699686Y-90912504D01*
X115699687Y-90912503D01*
X115699689Y-90912500D01*
X115762500Y-90849689D01*
X115762504Y-90849686D01*
X115836371Y-90800329D01*
X115836374Y-90800328D01*
X115836375Y-90800327D01*
X115918448Y-90766331D01*
X116005579Y-90749000D01*
X116094421Y-90749000D01*
X116181552Y-90766331D01*
X116181552Y-90766331D01*
G37*
G36*
X137000000Y-90125000D02*
X136251712Y-90037310D01*
X135370949Y-89934096D01*
X135346449Y-89933643D01*
X135322331Y-89937978D01*
X135299523Y-89946936D01*
X135278900Y-89960171D01*
X135261256Y-89977175D01*
X135247268Y-89997294D01*
X135237473Y-90019756D01*
X135232250Y-90043697D01*
X135231797Y-90068197D01*
X135236132Y-90092315D01*
X135245090Y-90115123D01*
X135258325Y-90135746D01*
X135275329Y-90153390D01*
X135295448Y-90167378D01*
X135317910Y-90177173D01*
X135337637Y-90181829D01*
X136274294Y-90324000D01*
X136762826Y-90398152D01*
X136762827Y-90398152D01*
X136775000Y-90400000D01*
X136675000Y-90950000D01*
X136666606Y-90948563D01*
X136648966Y-90950687D01*
X136625676Y-90958306D01*
X136604320Y-90970323D01*
X136585719Y-90986274D01*
X136570588Y-91005549D01*
X136559507Y-91027404D01*
X136552903Y-91051002D01*
X136551518Y-91066818D01*
X136533669Y-91156552D01*
X136504902Y-91226000D01*
X136499671Y-91238629D01*
X136450314Y-91312496D01*
X136450311Y-91312500D01*
X136387500Y-91375311D01*
X136387497Y-91375313D01*
X136387496Y-91375314D01*
X136313629Y-91424671D01*
X136313626Y-91424672D01*
X136313625Y-91424673D01*
X136231552Y-91458669D01*
X136144421Y-91476000D01*
X136055579Y-91476000D01*
X135968448Y-91458669D01*
X135886375Y-91424673D01*
X135886374Y-91424672D01*
X135886371Y-91424671D01*
X135812504Y-91375314D01*
X135812503Y-91375313D01*
X135812500Y-91375311D01*
X135749689Y-91312500D01*
X135749686Y-91312496D01*
X135700329Y-91238629D01*
X135695098Y-91226000D01*
X135666331Y-91156552D01*
X135649000Y-91069421D01*
X135649000Y-90980579D01*
X135663616Y-90907099D01*
X135666018Y-90882713D01*
X135663616Y-90858327D01*
X135656503Y-90834877D01*
X135644952Y-90813267D01*
X135629406Y-90794325D01*
X135610464Y-90778779D01*
X135588853Y-90767228D01*
X135562108Y-90759505D01*
X135500737Y-90749000D01*
X135394246Y-90730772D01*
X135369806Y-90729025D01*
X135345493Y-90732080D01*
X135322243Y-90739819D01*
X135300950Y-90751946D01*
X135282431Y-90767994D01*
X135267399Y-90787346D01*
X135256432Y-90809259D01*
X135249950Y-90832890D01*
X135248203Y-90857332D01*
X135250559Y-90878364D01*
X135251000Y-90880581D01*
X135251000Y-90969421D01*
X135233669Y-91056552D01*
X135200139Y-91137500D01*
X135199671Y-91138629D01*
X135151063Y-91211375D01*
X135150311Y-91212500D01*
X135087500Y-91275311D01*
X135087497Y-91275313D01*
X135087496Y-91275314D01*
X135013629Y-91324671D01*
X135013626Y-91324672D01*
X135013625Y-91324673D01*
X134931552Y-91358669D01*
X134844421Y-91376000D01*
X134755579Y-91376000D01*
X134668448Y-91358669D01*
X134586375Y-91324673D01*
X134586374Y-91324672D01*
X134586371Y-91324671D01*
X134512504Y-91275314D01*
X134512503Y-91275313D01*
X134512500Y-91275311D01*
X134449689Y-91212500D01*
X134448937Y-91211375D01*
X134400329Y-91138629D01*
X134399861Y-91137500D01*
X134366331Y-91056552D01*
X134349000Y-90969421D01*
X134349000Y-90880579D01*
X134366331Y-90793448D01*
X134398721Y-90715252D01*
X134405834Y-90691803D01*
X134408236Y-90667417D01*
X134405834Y-90643031D01*
X134398721Y-90619581D01*
X134387170Y-90597971D01*
X134371624Y-90579029D01*
X134352682Y-90563483D01*
X134331071Y-90551932D01*
X134304325Y-90544209D01*
X134131075Y-90514554D01*
X134106633Y-90512807D01*
X134082320Y-90515862D01*
X134059070Y-90523602D01*
X134037777Y-90535728D01*
X134019259Y-90551776D01*
X134004227Y-90571128D01*
X133993260Y-90593041D01*
X133986778Y-90616673D01*
X133985031Y-90641115D01*
X133987388Y-90662149D01*
X134001000Y-90730580D01*
X134001000Y-90819421D01*
X133983669Y-90906552D01*
X133950605Y-90986375D01*
X133949671Y-90988629D01*
X133900314Y-91062496D01*
X133900311Y-91062500D01*
X133837500Y-91125311D01*
X133837497Y-91125313D01*
X133837496Y-91125314D01*
X133763629Y-91174671D01*
X133763626Y-91174672D01*
X133763625Y-91174673D01*
X133681552Y-91208669D01*
X133594421Y-91226000D01*
X133505579Y-91226000D01*
X133418448Y-91208669D01*
X133336375Y-91174673D01*
X133336374Y-91174672D01*
X133336371Y-91174671D01*
X133262504Y-91125314D01*
X133262503Y-91125313D01*
X133262500Y-91125311D01*
X133199689Y-91062500D01*
X133199686Y-91062496D01*
X133150329Y-90988629D01*
X133149395Y-90986375D01*
X133116331Y-90906552D01*
X133099000Y-90819421D01*
X133099000Y-90730579D01*
X133117257Y-90638793D01*
X133121627Y-90624385D01*
X133124029Y-90599998D01*
X133121627Y-90575612D01*
X133114513Y-90552163D01*
X133102962Y-90530552D01*
X133087416Y-90511610D01*
X133068474Y-90496065D01*
X133046863Y-90484514D01*
X133023414Y-90477402D01*
X132999029Y-90475000D01*
X132851000Y-90475000D01*
X132826614Y-90477402D01*
X132803165Y-90484515D01*
X132781554Y-90496066D01*
X132762612Y-90511612D01*
X132747066Y-90530554D01*
X132735515Y-90552165D01*
X132728402Y-90575614D01*
X132726000Y-90600000D01*
X132726000Y-90694421D01*
X132708669Y-90781552D01*
X132674673Y-90863625D01*
X132674671Y-90863629D01*
X132642016Y-90912500D01*
X132625311Y-90937500D01*
X132562500Y-91000311D01*
X132562497Y-91000313D01*
X132562496Y-91000314D01*
X132488629Y-91049671D01*
X132488626Y-91049672D01*
X132488625Y-91049673D01*
X132406552Y-91083669D01*
X132319421Y-91101000D01*
X132230579Y-91101000D01*
X132143448Y-91083669D01*
X132061375Y-91049673D01*
X132061374Y-91049672D01*
X132061371Y-91049671D01*
X131987504Y-91000314D01*
X131987503Y-91000313D01*
X131987500Y-91000311D01*
X131924689Y-90937500D01*
X131907984Y-90912500D01*
X131875329Y-90863629D01*
X131875327Y-90863625D01*
X131841331Y-90781552D01*
X131824000Y-90694421D01*
X131824000Y-90600000D01*
X131821598Y-90575614D01*
X131814485Y-90552165D01*
X131802934Y-90530554D01*
X131787388Y-90511612D01*
X131768446Y-90496066D01*
X131746835Y-90484515D01*
X131723386Y-90477402D01*
X131699000Y-90475000D01*
X131457448Y-90475000D01*
X131433062Y-90477402D01*
X131409613Y-90484515D01*
X131388002Y-90496066D01*
X131369060Y-90511612D01*
X131353514Y-90530554D01*
X131341963Y-90552165D01*
X131334850Y-90575614D01*
X131332448Y-90600000D01*
X131334850Y-90624386D01*
X131351000Y-90705579D01*
X131351000Y-90794421D01*
X131333669Y-90881552D01*
X131305032Y-90950687D01*
X131299671Y-90963629D01*
X131257057Y-91027404D01*
X131250311Y-91037500D01*
X131187500Y-91100311D01*
X131187497Y-91100313D01*
X131187496Y-91100314D01*
X131113629Y-91149671D01*
X131113626Y-91149672D01*
X131113625Y-91149673D01*
X131031552Y-91183669D01*
X130944421Y-91201000D01*
X130855579Y-91201000D01*
X130768448Y-91183669D01*
X130686375Y-91149673D01*
X130686374Y-91149672D01*
X130686371Y-91149671D01*
X130612504Y-91100314D01*
X130612503Y-91100313D01*
X130612500Y-91100311D01*
X130549689Y-91037500D01*
X130542943Y-91027404D01*
X130500329Y-90963629D01*
X130494968Y-90950687D01*
X130466331Y-90881552D01*
X130449000Y-90794421D01*
X130449000Y-90705579D01*
X130466331Y-90618448D01*
X130500327Y-90536375D01*
X130500328Y-90536374D01*
X130500329Y-90536371D01*
X130549686Y-90462504D01*
X130549687Y-90462503D01*
X130549689Y-90462500D01*
X130612500Y-90399689D01*
X130612504Y-90399686D01*
X130686371Y-90350329D01*
X130686374Y-90350328D01*
X130686375Y-90350327D01*
X130768448Y-90316331D01*
X130855579Y-90299000D01*
X130944421Y-90299000D01*
X131031552Y-90316331D01*
X131113625Y-90350327D01*
X131113626Y-90350328D01*
X131113629Y-90350329D01*
X131187496Y-90399686D01*
X131188545Y-90400387D01*
X131205554Y-90414347D01*
X131227165Y-90425898D01*
X131250614Y-90433011D01*
X131275000Y-90435413D01*
X131299386Y-90433011D01*
X131322835Y-90425898D01*
X131344446Y-90414347D01*
X131363388Y-90398801D01*
X131378934Y-90379859D01*
X131390485Y-90358248D01*
X131397598Y-90334799D01*
X131400000Y-90310413D01*
X131400000Y-90025000D01*
X132688736Y-89999976D01*
X132713071Y-89997102D01*
X132736377Y-89989535D01*
X132757760Y-89977566D01*
X132776397Y-89961656D01*
X132791571Y-89942415D01*
X132802701Y-89920584D01*
X132809357Y-89897002D01*
X132811285Y-89872573D01*
X132808411Y-89848238D01*
X132800844Y-89824932D01*
X132788875Y-89803549D01*
X132772965Y-89784912D01*
X132753724Y-89769738D01*
X132731893Y-89758608D01*
X132708311Y-89751952D01*
X132686309Y-89750000D01*
X130975000Y-89750000D01*
X130975000Y-89500000D01*
X130987036Y-89499895D01*
X130987038Y-89499895D01*
X133844110Y-89475051D01*
X133855852Y-89474396D01*
X136987756Y-89151263D01*
X136987757Y-89151263D01*
X137000000Y-89150000D01*
X137000000Y-90125000D01*
X137000000Y-90125000D01*
G37*
G36*
X125181552Y-89891331D02*
X125263625Y-89925327D01*
X125263626Y-89925328D01*
X125263629Y-89925329D01*
X125317995Y-89961656D01*
X125337500Y-89974689D01*
X125400311Y-90037500D01*
X125400313Y-90037503D01*
X125400314Y-90037504D01*
X125449671Y-90111371D01*
X125449672Y-90111374D01*
X125449673Y-90111375D01*
X125483669Y-90193448D01*
X125501000Y-90280579D01*
X125501000Y-90369421D01*
X125483669Y-90456552D01*
X125450605Y-90536375D01*
X125449671Y-90538629D01*
X125402871Y-90608669D01*
X125400311Y-90612500D01*
X125337500Y-90675311D01*
X125337497Y-90675313D01*
X125337496Y-90675314D01*
X125263629Y-90724671D01*
X125263626Y-90724672D01*
X125263625Y-90724673D01*
X125181552Y-90758669D01*
X125094421Y-90776000D01*
X125005579Y-90776000D01*
X124918448Y-90758669D01*
X124836375Y-90724673D01*
X124836374Y-90724672D01*
X124836371Y-90724671D01*
X124762504Y-90675314D01*
X124762503Y-90675313D01*
X124762500Y-90675311D01*
X124699689Y-90612500D01*
X124697129Y-90608669D01*
X124650329Y-90538629D01*
X124649395Y-90536375D01*
X124616331Y-90456552D01*
X124599000Y-90369421D01*
X124599000Y-90280579D01*
X124616331Y-90193448D01*
X124650327Y-90111375D01*
X124650328Y-90111374D01*
X124650329Y-90111371D01*
X124699686Y-90037504D01*
X124699687Y-90037503D01*
X124699689Y-90037500D01*
X124762500Y-89974689D01*
X124782005Y-89961656D01*
X124836371Y-89925329D01*
X124836374Y-89925328D01*
X124836375Y-89925327D01*
X124918448Y-89891331D01*
X125005579Y-89874000D01*
X125094421Y-89874000D01*
X125181552Y-89891331D01*
X125181552Y-89891331D01*
G37*
G36*
X126681552Y-89741331D02*
X126763625Y-89775327D01*
X126763626Y-89775328D01*
X126763629Y-89775329D01*
X126837496Y-89824686D01*
X126837500Y-89824689D01*
X126900311Y-89887500D01*
X126900313Y-89887503D01*
X126900314Y-89887504D01*
X126949671Y-89961371D01*
X126949672Y-89961374D01*
X126949673Y-89961375D01*
X126983669Y-90043448D01*
X127001000Y-90130579D01*
X127001000Y-90219421D01*
X126983669Y-90306552D01*
X126955180Y-90375329D01*
X126949671Y-90388629D01*
X126900314Y-90462496D01*
X126900311Y-90462500D01*
X126837500Y-90525311D01*
X126837497Y-90525313D01*
X126837496Y-90525314D01*
X126763629Y-90574671D01*
X126763626Y-90574672D01*
X126763625Y-90574673D01*
X126681552Y-90608669D01*
X126594421Y-90626000D01*
X126505579Y-90626000D01*
X126418448Y-90608669D01*
X126336375Y-90574673D01*
X126336374Y-90574672D01*
X126336371Y-90574671D01*
X126262504Y-90525314D01*
X126262503Y-90525313D01*
X126262500Y-90525311D01*
X126199689Y-90462500D01*
X126199686Y-90462496D01*
X126150329Y-90388629D01*
X126144820Y-90375329D01*
X126116331Y-90306552D01*
X126099000Y-90219421D01*
X126099000Y-90130579D01*
X126116331Y-90043448D01*
X126150327Y-89961375D01*
X126150328Y-89961374D01*
X126150329Y-89961371D01*
X126199686Y-89887504D01*
X126199687Y-89887503D01*
X126199689Y-89887500D01*
X126262500Y-89824689D01*
X126262504Y-89824686D01*
X126336371Y-89775329D01*
X126336374Y-89775328D01*
X126336375Y-89775327D01*
X126418448Y-89741331D01*
X126505579Y-89724000D01*
X126594421Y-89724000D01*
X126681552Y-89741331D01*
X126681552Y-89741331D01*
G37*
G36*
X141176000Y-90426000D02*
X139574000Y-90426000D01*
X139574000Y-88824000D01*
X141176000Y-88824000D01*
X141176000Y-90426000D01*
X141176000Y-90426000D01*
G37*
G36*
X142881552Y-89391331D02*
X142963625Y-89425327D01*
X142963626Y-89425328D01*
X142963629Y-89425329D01*
X143037496Y-89474686D01*
X143037500Y-89474689D01*
X143100311Y-89537500D01*
X143100313Y-89537503D01*
X143100314Y-89537504D01*
X143149671Y-89611371D01*
X143149672Y-89611374D01*
X143149673Y-89611375D01*
X143183669Y-89693448D01*
X143201000Y-89780579D01*
X143201000Y-89869421D01*
X143183669Y-89956552D01*
X143150139Y-90037500D01*
X143149671Y-90038629D01*
X143101063Y-90111375D01*
X143100311Y-90112500D01*
X143037500Y-90175311D01*
X143037497Y-90175313D01*
X143037496Y-90175314D01*
X142963629Y-90224671D01*
X142963626Y-90224672D01*
X142963625Y-90224673D01*
X142881552Y-90258669D01*
X142794421Y-90276000D01*
X142705579Y-90276000D01*
X142618448Y-90258669D01*
X142536375Y-90224673D01*
X142536374Y-90224672D01*
X142536371Y-90224671D01*
X142462504Y-90175314D01*
X142462503Y-90175313D01*
X142462500Y-90175311D01*
X142399689Y-90112500D01*
X142398937Y-90111375D01*
X142350329Y-90038629D01*
X142349861Y-90037500D01*
X142316331Y-89956552D01*
X142299000Y-89869421D01*
X142299000Y-89780579D01*
X142316331Y-89693448D01*
X142350327Y-89611375D01*
X142350328Y-89611374D01*
X142350329Y-89611371D01*
X142399686Y-89537504D01*
X142399687Y-89537503D01*
X142399689Y-89537500D01*
X142462500Y-89474689D01*
X142462504Y-89474686D01*
X142536371Y-89425329D01*
X142536374Y-89425328D01*
X142536375Y-89425327D01*
X142618448Y-89391331D01*
X142705579Y-89374000D01*
X142794421Y-89374000D01*
X142881552Y-89391331D01*
X142881552Y-89391331D01*
G37*
G36*
X121551000Y-89926000D02*
X119949000Y-89926000D01*
X119949000Y-88324000D01*
X121551000Y-88324000D01*
X121551000Y-89926000D01*
X121551000Y-89926000D01*
G37*
G36*
X118381552Y-88816331D02*
X118463625Y-88850327D01*
X118463626Y-88850328D01*
X118463629Y-88850329D01*
X118537496Y-88899686D01*
X118537500Y-88899689D01*
X118600311Y-88962500D01*
X118600313Y-88962503D01*
X118600314Y-88962504D01*
X118649671Y-89036371D01*
X118649672Y-89036374D01*
X118649673Y-89036375D01*
X118683669Y-89118448D01*
X118701000Y-89205579D01*
X118701000Y-89294421D01*
X118683669Y-89381552D01*
X118649673Y-89463625D01*
X118649671Y-89463629D01*
X118617143Y-89512310D01*
X118600311Y-89537500D01*
X118537500Y-89600311D01*
X118537497Y-89600313D01*
X118537496Y-89600314D01*
X118463629Y-89649671D01*
X118463626Y-89649672D01*
X118463625Y-89649673D01*
X118381552Y-89683669D01*
X118294421Y-89701000D01*
X118205579Y-89701000D01*
X118118448Y-89683669D01*
X118036375Y-89649673D01*
X118036374Y-89649672D01*
X118036371Y-89649671D01*
X117962504Y-89600314D01*
X117962503Y-89600313D01*
X117962500Y-89600311D01*
X117899689Y-89537500D01*
X117882857Y-89512310D01*
X117850329Y-89463629D01*
X117850327Y-89463625D01*
X117816331Y-89381552D01*
X117799000Y-89294421D01*
X117799000Y-89205579D01*
X117816331Y-89118448D01*
X117850327Y-89036375D01*
X117850328Y-89036374D01*
X117850329Y-89036371D01*
X117899686Y-88962504D01*
X117899687Y-88962503D01*
X117899689Y-88962500D01*
X117962500Y-88899689D01*
X117962504Y-88899686D01*
X118036371Y-88850329D01*
X118036374Y-88850328D01*
X118036375Y-88850327D01*
X118118448Y-88816331D01*
X118205579Y-88799000D01*
X118294421Y-88799000D01*
X118381552Y-88816331D01*
X118381552Y-88816331D01*
G37*
G36*
X131681552Y-79241331D02*
X131763625Y-79275327D01*
X131763626Y-79275328D01*
X131763629Y-79275329D01*
X131837496Y-79324686D01*
X131837500Y-79324689D01*
X131900311Y-79387500D01*
X131900313Y-79387503D01*
X131900314Y-79387504D01*
X131949671Y-79461371D01*
X131949672Y-79461374D01*
X131949673Y-79461375D01*
X131983669Y-79543448D01*
X132001000Y-79630579D01*
X132001000Y-79719421D01*
X131982743Y-79811207D01*
X131978373Y-79825615D01*
X131975971Y-79850002D01*
X131978373Y-79874388D01*
X131985487Y-79897837D01*
X131997038Y-79919448D01*
X132012584Y-79938390D01*
X132031526Y-79953935D01*
X132053137Y-79965486D01*
X132076586Y-79972598D01*
X132100971Y-79975000D01*
X132250000Y-79975000D01*
X132250000Y-79977890D01*
X132268052Y-79989952D01*
X132289663Y-80001503D01*
X132313112Y-80008617D01*
X132337498Y-80011019D01*
X132361885Y-80008617D01*
X132385334Y-80001505D01*
X132406948Y-79989952D01*
X132425000Y-79977890D01*
X132425000Y-79975000D01*
X132700000Y-79975000D01*
X132700000Y-87850000D01*
X132425000Y-87850000D01*
X132425000Y-87845676D01*
X132417996Y-87835194D01*
X132402450Y-87816252D01*
X132383508Y-87800707D01*
X132361897Y-87789156D01*
X132338448Y-87782044D01*
X132314061Y-87779642D01*
X132289675Y-87782044D01*
X132266226Y-87789158D01*
X132250834Y-87797385D01*
X132250000Y-87797551D01*
X132250000Y-87800000D01*
X132237690Y-87800000D01*
X132230492Y-87801432D01*
X132220641Y-87802402D01*
X132197192Y-87809515D01*
X132175581Y-87821066D01*
X132156639Y-87836612D01*
X132141093Y-87855554D01*
X132129542Y-87877165D01*
X132122429Y-87900614D01*
X132120027Y-87925000D01*
X132122429Y-87949387D01*
X132122551Y-87950000D01*
X132125000Y-87950000D01*
X132125000Y-88300000D01*
X132122551Y-88300000D01*
X132122385Y-88300834D01*
X132114157Y-88316229D01*
X132107044Y-88339678D01*
X132104642Y-88364064D01*
X132107044Y-88388450D01*
X132114157Y-88411899D01*
X132125709Y-88433510D01*
X132141254Y-88452452D01*
X132160194Y-88467996D01*
X132170676Y-88475000D01*
X132175000Y-88475000D01*
X132175000Y-88775000D01*
X130650000Y-88775000D01*
X130650000Y-88773092D01*
X130630998Y-88771221D01*
X130606612Y-88773623D01*
X130583163Y-88780737D01*
X130561552Y-88792288D01*
X130542610Y-88807834D01*
X130527065Y-88826776D01*
X130515514Y-88848388D01*
X130508401Y-88871837D01*
X130506000Y-88896221D01*
X130506000Y-89676000D01*
X130104000Y-89676000D01*
X130104000Y-88574000D01*
X130530172Y-88574000D01*
X130554558Y-88571598D01*
X130578007Y-88564485D01*
X130599618Y-88552934D01*
X130618560Y-88537388D01*
X130634106Y-88518446D01*
X130645657Y-88496835D01*
X130650000Y-88482518D01*
X130650000Y-88475000D01*
X130654325Y-88475000D01*
X130664806Y-88467996D01*
X130683748Y-88452450D01*
X130699293Y-88433508D01*
X130710844Y-88411897D01*
X130717956Y-88388448D01*
X130720358Y-88364061D01*
X130717956Y-88339675D01*
X130710842Y-88316226D01*
X130702615Y-88300834D01*
X130702449Y-88300000D01*
X130700000Y-88300000D01*
X130700000Y-88069905D01*
X130697598Y-88045519D01*
X130690485Y-88022070D01*
X130678934Y-88000459D01*
X130663388Y-87981517D01*
X130644446Y-87965971D01*
X130622836Y-87954420D01*
X130612955Y-87950327D01*
X130611371Y-87949671D01*
X130537504Y-87900314D01*
X130537503Y-87900313D01*
X130537500Y-87900311D01*
X130474689Y-87837500D01*
X130474686Y-87837496D01*
X130425329Y-87763629D01*
X130419547Y-87749671D01*
X130391331Y-87681552D01*
X130374000Y-87594421D01*
X130374000Y-87505579D01*
X130391331Y-87418448D01*
X130425327Y-87336375D01*
X130425328Y-87336374D01*
X130425329Y-87336371D01*
X130474686Y-87262504D01*
X130474687Y-87262503D01*
X130474689Y-87262500D01*
X130537500Y-87199689D01*
X130561475Y-87183669D01*
X130611371Y-87150329D01*
X130611374Y-87150328D01*
X130611375Y-87150327D01*
X130693448Y-87116331D01*
X130780579Y-87099000D01*
X130869421Y-87099000D01*
X130956552Y-87116331D01*
X131038625Y-87150327D01*
X131038626Y-87150328D01*
X131038629Y-87150329D01*
X131088525Y-87183669D01*
X131112500Y-87199689D01*
X131175311Y-87262500D01*
X131175313Y-87262503D01*
X131175314Y-87262504D01*
X131224671Y-87336371D01*
X131224672Y-87336374D01*
X131224673Y-87336375D01*
X131258669Y-87418448D01*
X131276000Y-87505579D01*
X131276000Y-87594421D01*
X131258669Y-87681552D01*
X131220961Y-87772587D01*
X131218521Y-87777150D01*
X131211405Y-87800598D01*
X131209000Y-87824984D01*
X131211399Y-87849371D01*
X131218509Y-87872821D01*
X131230057Y-87894433D01*
X131245600Y-87913377D01*
X131264541Y-87928925D01*
X131286150Y-87940479D01*
X131309598Y-87947595D01*
X131334000Y-87950000D01*
X131654973Y-87950000D01*
X131679359Y-87947598D01*
X131702808Y-87940485D01*
X131724419Y-87928934D01*
X131743361Y-87913388D01*
X131758907Y-87894446D01*
X131770458Y-87872835D01*
X131777571Y-87849386D01*
X131779973Y-87825000D01*
X131777571Y-87800613D01*
X131777449Y-87800000D01*
X131775000Y-87800000D01*
X131775000Y-86851000D01*
X131772598Y-86826614D01*
X131765485Y-86803165D01*
X131753934Y-86781554D01*
X131738388Y-86762612D01*
X131719446Y-86747066D01*
X131697835Y-86735515D01*
X131674386Y-86728402D01*
X131650000Y-86726000D01*
X131630579Y-86726000D01*
X131543448Y-86708669D01*
X131461375Y-86674673D01*
X131461374Y-86674672D01*
X131461371Y-86674671D01*
X131387504Y-86625314D01*
X131387503Y-86625313D01*
X131387500Y-86625311D01*
X131324689Y-86562500D01*
X131324686Y-86562496D01*
X131275329Y-86488629D01*
X131274861Y-86487500D01*
X131241331Y-86406552D01*
X131224000Y-86319421D01*
X131224000Y-86230579D01*
X131241331Y-86143448D01*
X131275327Y-86061375D01*
X131275328Y-86061374D01*
X131275329Y-86061371D01*
X131324686Y-85987504D01*
X131324687Y-85987503D01*
X131324689Y-85987500D01*
X131387500Y-85924689D01*
X131387504Y-85924686D01*
X131461371Y-85875329D01*
X131461374Y-85875328D01*
X131461375Y-85875327D01*
X131543448Y-85841331D01*
X131630579Y-85824000D01*
X131650000Y-85824000D01*
X131674386Y-85821598D01*
X131697835Y-85814485D01*
X131719446Y-85802934D01*
X131738388Y-85787388D01*
X131753934Y-85768446D01*
X131765485Y-85746835D01*
X131772598Y-85723386D01*
X131775000Y-85699000D01*
X131775000Y-85526000D01*
X131772598Y-85501614D01*
X131765485Y-85478165D01*
X131753934Y-85456554D01*
X131738388Y-85437612D01*
X131719446Y-85422066D01*
X131697835Y-85410515D01*
X131674386Y-85403402D01*
X131650000Y-85401000D01*
X131605579Y-85401000D01*
X131518448Y-85383669D01*
X131436375Y-85349673D01*
X131436374Y-85349672D01*
X131436371Y-85349671D01*
X131362504Y-85300314D01*
X131362503Y-85300313D01*
X131362500Y-85300311D01*
X131299689Y-85237500D01*
X131299686Y-85237496D01*
X131250329Y-85163629D01*
X131250327Y-85163625D01*
X131216331Y-85081552D01*
X131199000Y-84994421D01*
X131199000Y-84905579D01*
X131216331Y-84818448D01*
X131250327Y-84736375D01*
X131250328Y-84736374D01*
X131250329Y-84736371D01*
X131299686Y-84662504D01*
X131299687Y-84662503D01*
X131299689Y-84662500D01*
X131362500Y-84599689D01*
X131370384Y-84594421D01*
X131436371Y-84550329D01*
X131436374Y-84550328D01*
X131436375Y-84550327D01*
X131518448Y-84516331D01*
X131605579Y-84499000D01*
X131650000Y-84499000D01*
X131674386Y-84496598D01*
X131697835Y-84489485D01*
X131719446Y-84477934D01*
X131738388Y-84462388D01*
X131753934Y-84443446D01*
X131765485Y-84421835D01*
X131772598Y-84398386D01*
X131775000Y-84374000D01*
X131775000Y-84276000D01*
X131772598Y-84251614D01*
X131765485Y-84228165D01*
X131753934Y-84206554D01*
X131738388Y-84187612D01*
X131719446Y-84172066D01*
X131697835Y-84160515D01*
X131674386Y-84153402D01*
X131650000Y-84151000D01*
X131580579Y-84151000D01*
X131493448Y-84133669D01*
X131411375Y-84099673D01*
X131411374Y-84099672D01*
X131411371Y-84099671D01*
X131337504Y-84050314D01*
X131337503Y-84050313D01*
X131337500Y-84050311D01*
X131274689Y-83987500D01*
X131274686Y-83987496D01*
X131225329Y-83913629D01*
X131224861Y-83912500D01*
X131191331Y-83831552D01*
X131174000Y-83744421D01*
X131174000Y-83655579D01*
X131191331Y-83568448D01*
X131225327Y-83486375D01*
X131225328Y-83486374D01*
X131225329Y-83486371D01*
X131274686Y-83412504D01*
X131274687Y-83412503D01*
X131274689Y-83412500D01*
X131337500Y-83349689D01*
X131337504Y-83349686D01*
X131411371Y-83300329D01*
X131411374Y-83300328D01*
X131411375Y-83300327D01*
X131493448Y-83266331D01*
X131580579Y-83249000D01*
X131650000Y-83249000D01*
X131674386Y-83246598D01*
X131697835Y-83239485D01*
X131719446Y-83227934D01*
X131738388Y-83212388D01*
X131753934Y-83193446D01*
X131765485Y-83171835D01*
X131772598Y-83148386D01*
X131775000Y-83124000D01*
X131775000Y-82951000D01*
X131772598Y-82926614D01*
X131765485Y-82903165D01*
X131753934Y-82881554D01*
X131738388Y-82862612D01*
X131719446Y-82847066D01*
X131697835Y-82835515D01*
X131674386Y-82828402D01*
X131650000Y-82826000D01*
X131580579Y-82826000D01*
X131493448Y-82808669D01*
X131411375Y-82774673D01*
X131411374Y-82774672D01*
X131411371Y-82774671D01*
X131337504Y-82725314D01*
X131337503Y-82725313D01*
X131337500Y-82725311D01*
X131274689Y-82662500D01*
X131273937Y-82661375D01*
X131225329Y-82588629D01*
X131224861Y-82587500D01*
X131191331Y-82506552D01*
X131174000Y-82419421D01*
X131174000Y-82330579D01*
X131191331Y-82243448D01*
X131225327Y-82161375D01*
X131225328Y-82161374D01*
X131225329Y-82161371D01*
X131274686Y-82087504D01*
X131274687Y-82087503D01*
X131274689Y-82087500D01*
X131337500Y-82024689D01*
X131337504Y-82024686D01*
X131411371Y-81975329D01*
X131411374Y-81975328D01*
X131411375Y-81975327D01*
X131493448Y-81941331D01*
X131580579Y-81924000D01*
X131650000Y-81924000D01*
X131674386Y-81921598D01*
X131697835Y-81914485D01*
X131719446Y-81902934D01*
X131738388Y-81887388D01*
X131753934Y-81868446D01*
X131765485Y-81846835D01*
X131772598Y-81823386D01*
X131775000Y-81799000D01*
X131775000Y-81601000D01*
X131772598Y-81576614D01*
X131765485Y-81553165D01*
X131753934Y-81531554D01*
X131738388Y-81512612D01*
X131719446Y-81497066D01*
X131697835Y-81485515D01*
X131674386Y-81478402D01*
X131650000Y-81476000D01*
X131555579Y-81476000D01*
X131468448Y-81458669D01*
X131386375Y-81424673D01*
X131386374Y-81424672D01*
X131386371Y-81424671D01*
X131312504Y-81375314D01*
X131312503Y-81375313D01*
X131312500Y-81375311D01*
X131249689Y-81312500D01*
X131248937Y-81311375D01*
X131200329Y-81238629D01*
X131199861Y-81237500D01*
X131166331Y-81156552D01*
X131149000Y-81069421D01*
X131149000Y-80980579D01*
X131166331Y-80893448D01*
X131200327Y-80811375D01*
X131200328Y-80811374D01*
X131200329Y-80811371D01*
X131249686Y-80737504D01*
X131249687Y-80737503D01*
X131249689Y-80737500D01*
X131312500Y-80674689D01*
X131312504Y-80674686D01*
X131386371Y-80625329D01*
X131386374Y-80625328D01*
X131386375Y-80625327D01*
X131468448Y-80591331D01*
X131555579Y-80574000D01*
X131650000Y-80574000D01*
X131674386Y-80571598D01*
X131697835Y-80564485D01*
X131719446Y-80552934D01*
X131738388Y-80537388D01*
X131753934Y-80518446D01*
X131765485Y-80496835D01*
X131772598Y-80473386D01*
X131775000Y-80449000D01*
X131775000Y-80242393D01*
X131772598Y-80218007D01*
X131765485Y-80194558D01*
X131753934Y-80172947D01*
X131738388Y-80154005D01*
X131719446Y-80138459D01*
X131697835Y-80126908D01*
X131674386Y-80119795D01*
X131650000Y-80117393D01*
X131625615Y-80119795D01*
X131594420Y-80126000D01*
X131505579Y-80126000D01*
X131418448Y-80108669D01*
X131336375Y-80074673D01*
X131336374Y-80074672D01*
X131336371Y-80074671D01*
X131262504Y-80025314D01*
X131262503Y-80025313D01*
X131262500Y-80025311D01*
X131199689Y-79962500D01*
X131183579Y-79938390D01*
X131150329Y-79888629D01*
X131137919Y-79858669D01*
X131116331Y-79806552D01*
X131099000Y-79719421D01*
X131099000Y-79630579D01*
X131116331Y-79543448D01*
X131150327Y-79461375D01*
X131150328Y-79461374D01*
X131150329Y-79461371D01*
X131199686Y-79387504D01*
X131199687Y-79387503D01*
X131199689Y-79387500D01*
X131262500Y-79324689D01*
X131262504Y-79324686D01*
X131336371Y-79275329D01*
X131336374Y-79275328D01*
X131336375Y-79275327D01*
X131418448Y-79241331D01*
X131505579Y-79224000D01*
X131594421Y-79224000D01*
X131681552Y-79241331D01*
X131681552Y-79241331D01*
G37*
G36*
X126681552Y-87416331D02*
X126763625Y-87450327D01*
X126763626Y-87450328D01*
X126763629Y-87450329D01*
X126820942Y-87488625D01*
X126837500Y-87499689D01*
X126900311Y-87562500D01*
X126900313Y-87562503D01*
X126900314Y-87562504D01*
X126949671Y-87636371D01*
X126949672Y-87636374D01*
X126949673Y-87636375D01*
X126983669Y-87718448D01*
X127001000Y-87805579D01*
X127001000Y-87894421D01*
X126983669Y-87981552D01*
X126950139Y-88062500D01*
X126949671Y-88063629D01*
X126901063Y-88136375D01*
X126900311Y-88137500D01*
X126837497Y-88200314D01*
X126815238Y-88215187D01*
X126796296Y-88230732D01*
X126780751Y-88249674D01*
X126769200Y-88271285D01*
X126762087Y-88294734D01*
X126759685Y-88319121D01*
X126762087Y-88343507D01*
X126769200Y-88366956D01*
X126780752Y-88388567D01*
X126796297Y-88407509D01*
X126815239Y-88423054D01*
X126836850Y-88434605D01*
X126869461Y-88443189D01*
X126925000Y-88450000D01*
X126922752Y-88463488D01*
X126886997Y-88678023D01*
X126875000Y-88750000D01*
X126872024Y-88749660D01*
X126867733Y-88754227D01*
X126852786Y-88773645D01*
X126841914Y-88795606D01*
X126835536Y-88819265D01*
X126833896Y-88843714D01*
X126837057Y-88868014D01*
X126844898Y-88891230D01*
X126857118Y-88912470D01*
X126873246Y-88930918D01*
X126879899Y-88936039D01*
X126879670Y-88936317D01*
X126895700Y-88949562D01*
X126900000Y-88950000D01*
X126900000Y-89275000D01*
X126891484Y-89276016D01*
X126891483Y-89276016D01*
X125014342Y-89499895D01*
X124175000Y-89600000D01*
X124177651Y-89501924D01*
X124199667Y-88687312D01*
X124199667Y-88687311D01*
X124200000Y-88675000D01*
X124210228Y-88676042D01*
X124224003Y-88672812D01*
X124246311Y-88662671D01*
X124266212Y-88648374D01*
X124282941Y-88630469D01*
X124295856Y-88609644D01*
X124304460Y-88586700D01*
X124308422Y-88562518D01*
X124307591Y-88538028D01*
X124301998Y-88514171D01*
X124291857Y-88491863D01*
X124277560Y-88471962D01*
X124264478Y-88459117D01*
X124254295Y-88450491D01*
X124250000Y-88450000D01*
X124275000Y-88125000D01*
X124454988Y-88147074D01*
X124498016Y-88152351D01*
X124522513Y-88152936D01*
X124546654Y-88148730D01*
X124569510Y-88139895D01*
X124590204Y-88126771D01*
X124607939Y-88109863D01*
X124622035Y-88089819D01*
X124631950Y-88067410D01*
X124637302Y-88043497D01*
X124637887Y-88019000D01*
X124635830Y-88003895D01*
X124624000Y-87944421D01*
X124624000Y-87855579D01*
X124641331Y-87768448D01*
X124675327Y-87686375D01*
X124675328Y-87686374D01*
X124675329Y-87686371D01*
X124724686Y-87612504D01*
X124724687Y-87612503D01*
X124724689Y-87612500D01*
X124787500Y-87549689D01*
X124787504Y-87549686D01*
X124861371Y-87500329D01*
X124861374Y-87500328D01*
X124861375Y-87500327D01*
X124943448Y-87466331D01*
X125030579Y-87449000D01*
X125119421Y-87449000D01*
X125206552Y-87466331D01*
X125288625Y-87500327D01*
X125288626Y-87500328D01*
X125288629Y-87500329D01*
X125362496Y-87549686D01*
X125362500Y-87549689D01*
X125425311Y-87612500D01*
X125425313Y-87612503D01*
X125425314Y-87612504D01*
X125474671Y-87686371D01*
X125474672Y-87686374D01*
X125474673Y-87686375D01*
X125508669Y-87768448D01*
X125526000Y-87855579D01*
X125526000Y-87944421D01*
X125508669Y-88031552D01*
X125475108Y-88112575D01*
X125467995Y-88136024D01*
X125465593Y-88160410D01*
X125467995Y-88184796D01*
X125475108Y-88208246D01*
X125486659Y-88229856D01*
X125502205Y-88248798D01*
X125521147Y-88264344D01*
X125542758Y-88275895D01*
X125575377Y-88284480D01*
X125710077Y-88301000D01*
X126094246Y-88348115D01*
X126118739Y-88348700D01*
X126142880Y-88344494D01*
X126165736Y-88335660D01*
X126186429Y-88322536D01*
X126204165Y-88305627D01*
X126218261Y-88285583D01*
X126228176Y-88263174D01*
X126233528Y-88239261D01*
X126234113Y-88214764D01*
X126229907Y-88190623D01*
X126221073Y-88167767D01*
X126207949Y-88147074D01*
X126200344Y-88138479D01*
X126199690Y-88137500D01*
X126199686Y-88137496D01*
X126150329Y-88063629D01*
X126149861Y-88062500D01*
X126116331Y-87981552D01*
X126099000Y-87894421D01*
X126099000Y-87805579D01*
X126116331Y-87718448D01*
X126150327Y-87636375D01*
X126150328Y-87636374D01*
X126150329Y-87636371D01*
X126199686Y-87562504D01*
X126199687Y-87562503D01*
X126199689Y-87562500D01*
X126262500Y-87499689D01*
X126279058Y-87488625D01*
X126336371Y-87450329D01*
X126336374Y-87450328D01*
X126336375Y-87450327D01*
X126418448Y-87416331D01*
X126505579Y-87399000D01*
X126594421Y-87399000D01*
X126681552Y-87416331D01*
X126681552Y-87416331D01*
G37*
G36*
X116156552Y-88366331D02*
X116238625Y-88400327D01*
X116238626Y-88400328D01*
X116238629Y-88400329D01*
X116312496Y-88449686D01*
X116312500Y-88449689D01*
X116375311Y-88512500D01*
X116375313Y-88512503D01*
X116375314Y-88512504D01*
X116424671Y-88586371D01*
X116424672Y-88586374D01*
X116424673Y-88586375D01*
X116458669Y-88668448D01*
X116476000Y-88755579D01*
X116476000Y-88844421D01*
X116458669Y-88931552D01*
X116424673Y-89013625D01*
X116424671Y-89013629D01*
X116382995Y-89076000D01*
X116375311Y-89087500D01*
X116312500Y-89150311D01*
X116312497Y-89150313D01*
X116312496Y-89150314D01*
X116238629Y-89199671D01*
X116238626Y-89199672D01*
X116238625Y-89199673D01*
X116156552Y-89233669D01*
X116069421Y-89251000D01*
X115980579Y-89251000D01*
X115893448Y-89233669D01*
X115811375Y-89199673D01*
X115811374Y-89199672D01*
X115811371Y-89199671D01*
X115737504Y-89150314D01*
X115737503Y-89150313D01*
X115737500Y-89150311D01*
X115674689Y-89087500D01*
X115667005Y-89076000D01*
X115625329Y-89013629D01*
X115625327Y-89013625D01*
X115591331Y-88931552D01*
X115574000Y-88844421D01*
X115574000Y-88755579D01*
X115591331Y-88668448D01*
X115625327Y-88586375D01*
X115625328Y-88586374D01*
X115625329Y-88586371D01*
X115674686Y-88512504D01*
X115674687Y-88512503D01*
X115674689Y-88512500D01*
X115737500Y-88449689D01*
X115737504Y-88449686D01*
X115811371Y-88400329D01*
X115811374Y-88400328D01*
X115811375Y-88400327D01*
X115893448Y-88366331D01*
X115980579Y-88349000D01*
X116069421Y-88349000D01*
X116156552Y-88366331D01*
X116156552Y-88366331D01*
G37*
G36*
X133656552Y-88191331D02*
X133738625Y-88225327D01*
X133738626Y-88225328D01*
X133738629Y-88225329D01*
X133795267Y-88263174D01*
X133812500Y-88274689D01*
X133875311Y-88337500D01*
X133875313Y-88337503D01*
X133875314Y-88337504D01*
X133924671Y-88411371D01*
X133924672Y-88411374D01*
X133924673Y-88411375D01*
X133958669Y-88493448D01*
X133976000Y-88580579D01*
X133976000Y-88669421D01*
X133958669Y-88756552D01*
X133929581Y-88826776D01*
X133924671Y-88838629D01*
X133883882Y-88899673D01*
X133875311Y-88912500D01*
X133812500Y-88975311D01*
X133812497Y-88975313D01*
X133812496Y-88975314D01*
X133738629Y-89024671D01*
X133738626Y-89024672D01*
X133738625Y-89024673D01*
X133656552Y-89058669D01*
X133569421Y-89076000D01*
X133480579Y-89076000D01*
X133393448Y-89058669D01*
X133311375Y-89024673D01*
X133311374Y-89024672D01*
X133311371Y-89024671D01*
X133237504Y-88975314D01*
X133237503Y-88975313D01*
X133237500Y-88975311D01*
X133174689Y-88912500D01*
X133166118Y-88899673D01*
X133125329Y-88838629D01*
X133120419Y-88826776D01*
X133091331Y-88756552D01*
X133074000Y-88669421D01*
X133074000Y-88580579D01*
X133091331Y-88493448D01*
X133125327Y-88411375D01*
X133125328Y-88411374D01*
X133125329Y-88411371D01*
X133174686Y-88337504D01*
X133174687Y-88337503D01*
X133174689Y-88337500D01*
X133237500Y-88274689D01*
X133254733Y-88263174D01*
X133311371Y-88225329D01*
X133311374Y-88225328D01*
X133311375Y-88225327D01*
X133393448Y-88191331D01*
X133480579Y-88174000D01*
X133569421Y-88174000D01*
X133656552Y-88191331D01*
X133656552Y-88191331D01*
G37*
G36*
X134931552Y-88066331D02*
X135013625Y-88100327D01*
X135013626Y-88100328D01*
X135013629Y-88100329D01*
X135086065Y-88148730D01*
X135087500Y-88149689D01*
X135150311Y-88212500D01*
X135150313Y-88212503D01*
X135150314Y-88212504D01*
X135199671Y-88286371D01*
X135199672Y-88286374D01*
X135199673Y-88286375D01*
X135233669Y-88368448D01*
X135251000Y-88455579D01*
X135251000Y-88544421D01*
X135233669Y-88631552D01*
X135199673Y-88713625D01*
X135199671Y-88713629D01*
X135152871Y-88783669D01*
X135150311Y-88787500D01*
X135087500Y-88850311D01*
X135087497Y-88850313D01*
X135087496Y-88850314D01*
X135013629Y-88899671D01*
X135013626Y-88899672D01*
X135013625Y-88899673D01*
X134931552Y-88933669D01*
X134844421Y-88951000D01*
X134755579Y-88951000D01*
X134668448Y-88933669D01*
X134586375Y-88899673D01*
X134586374Y-88899672D01*
X134586371Y-88899671D01*
X134512504Y-88850314D01*
X134512503Y-88850313D01*
X134512500Y-88850311D01*
X134449689Y-88787500D01*
X134447129Y-88783669D01*
X134400329Y-88713629D01*
X134400327Y-88713625D01*
X134366331Y-88631552D01*
X134349000Y-88544421D01*
X134349000Y-88455579D01*
X134366331Y-88368448D01*
X134400327Y-88286375D01*
X134400328Y-88286374D01*
X134400329Y-88286371D01*
X134449686Y-88212504D01*
X134449687Y-88212503D01*
X134449689Y-88212500D01*
X134512500Y-88149689D01*
X134513935Y-88148730D01*
X134586371Y-88100329D01*
X134586374Y-88100328D01*
X134586375Y-88100327D01*
X134668448Y-88066331D01*
X134755579Y-88049000D01*
X134844421Y-88049000D01*
X134931552Y-88066331D01*
X134931552Y-88066331D01*
G37*
G36*
X136281552Y-87916331D02*
X136363625Y-87950327D01*
X136363626Y-87950328D01*
X136363629Y-87950329D01*
X136437496Y-87999686D01*
X136437500Y-87999689D01*
X136500311Y-88062500D01*
X136500313Y-88062503D01*
X136500314Y-88062504D01*
X136549671Y-88136371D01*
X136549672Y-88136374D01*
X136549673Y-88136375D01*
X136583669Y-88218448D01*
X136601000Y-88305579D01*
X136601000Y-88394421D01*
X136583669Y-88481552D01*
X136549673Y-88563625D01*
X136549671Y-88563629D01*
X136500314Y-88637496D01*
X136500311Y-88637500D01*
X136437500Y-88700311D01*
X136437497Y-88700313D01*
X136437496Y-88700314D01*
X136363629Y-88749671D01*
X136363626Y-88749672D01*
X136363625Y-88749673D01*
X136281552Y-88783669D01*
X136194421Y-88801000D01*
X136105579Y-88801000D01*
X136018448Y-88783669D01*
X135936375Y-88749673D01*
X135936374Y-88749672D01*
X135936371Y-88749671D01*
X135862504Y-88700314D01*
X135862503Y-88700313D01*
X135862500Y-88700311D01*
X135799689Y-88637500D01*
X135799686Y-88637496D01*
X135750329Y-88563629D01*
X135750327Y-88563625D01*
X135716331Y-88481552D01*
X135699000Y-88394421D01*
X135699000Y-88305579D01*
X135716331Y-88218448D01*
X135750327Y-88136375D01*
X135750328Y-88136374D01*
X135750329Y-88136371D01*
X135799686Y-88062504D01*
X135799687Y-88062503D01*
X135799689Y-88062500D01*
X135862500Y-87999689D01*
X135862504Y-87999686D01*
X135936371Y-87950329D01*
X135936374Y-87950328D01*
X135936375Y-87950327D01*
X136018448Y-87916331D01*
X136105579Y-87899000D01*
X136194421Y-87899000D01*
X136281552Y-87916331D01*
X136281552Y-87916331D01*
G37*
G36*
X143751000Y-88251000D02*
X141749000Y-88251000D01*
X141749000Y-86249000D01*
X143751000Y-86249000D01*
X143751000Y-88251000D01*
X143751000Y-88251000D01*
G37*
G36*
X139001000Y-88251000D02*
X136999000Y-88251000D01*
X136999000Y-86249000D01*
X139001000Y-86249000D01*
X139001000Y-88251000D01*
X139001000Y-88251000D01*
G37*
G36*
X140456552Y-86916331D02*
X140538625Y-86950327D01*
X140538626Y-86950328D01*
X140538629Y-86950329D01*
X140612496Y-86999686D01*
X140612500Y-86999689D01*
X140675311Y-87062500D01*
X140675313Y-87062503D01*
X140675314Y-87062504D01*
X140724671Y-87136371D01*
X140724672Y-87136374D01*
X140724673Y-87136375D01*
X140758669Y-87218448D01*
X140776000Y-87305579D01*
X140776000Y-87394421D01*
X140758669Y-87481552D01*
X140725139Y-87562500D01*
X140724671Y-87563629D01*
X140676063Y-87636375D01*
X140675311Y-87637500D01*
X140612500Y-87700311D01*
X140612497Y-87700313D01*
X140612496Y-87700314D01*
X140538629Y-87749671D01*
X140538626Y-87749672D01*
X140538625Y-87749673D01*
X140456552Y-87783669D01*
X140369421Y-87801000D01*
X140280579Y-87801000D01*
X140193448Y-87783669D01*
X140111375Y-87749673D01*
X140111374Y-87749672D01*
X140111371Y-87749671D01*
X140037504Y-87700314D01*
X140037503Y-87700313D01*
X140037500Y-87700311D01*
X139974689Y-87637500D01*
X139973937Y-87636375D01*
X139925329Y-87563629D01*
X139924861Y-87562500D01*
X139891331Y-87481552D01*
X139874000Y-87394421D01*
X139874000Y-87305579D01*
X139891331Y-87218448D01*
X139925327Y-87136375D01*
X139925328Y-87136374D01*
X139925329Y-87136371D01*
X139974686Y-87062504D01*
X139974687Y-87062503D01*
X139974689Y-87062500D01*
X140037500Y-86999689D01*
X140037504Y-86999686D01*
X140111371Y-86950329D01*
X140111374Y-86950328D01*
X140111375Y-86950327D01*
X140193448Y-86916331D01*
X140280579Y-86899000D01*
X140369421Y-86899000D01*
X140456552Y-86916331D01*
X140456552Y-86916331D01*
G37*
G36*
X119376000Y-87751000D02*
X117374000Y-87751000D01*
X117374000Y-85749000D01*
X119376000Y-85749000D01*
X119376000Y-87751000D01*
X119376000Y-87751000D01*
G37*
G36*
X124126000Y-87751000D02*
X122124000Y-87751000D01*
X122124000Y-85749000D01*
X124126000Y-85749000D01*
X124126000Y-87751000D01*
X124126000Y-87751000D01*
G37*
G36*
X133656552Y-86841331D02*
X133738625Y-86875327D01*
X133738626Y-86875328D01*
X133738629Y-86875329D01*
X133812496Y-86924686D01*
X133812500Y-86924689D01*
X133875311Y-86987500D01*
X133875313Y-86987503D01*
X133875314Y-86987504D01*
X133924671Y-87061371D01*
X133924672Y-87061374D01*
X133924673Y-87061375D01*
X133958669Y-87143448D01*
X133976000Y-87230579D01*
X133976000Y-87319421D01*
X133958669Y-87406552D01*
X133924673Y-87488625D01*
X133924671Y-87488629D01*
X133883873Y-87549686D01*
X133875311Y-87562500D01*
X133812500Y-87625311D01*
X133812497Y-87625313D01*
X133812496Y-87625314D01*
X133738629Y-87674671D01*
X133738626Y-87674672D01*
X133738625Y-87674673D01*
X133656552Y-87708669D01*
X133569421Y-87726000D01*
X133480579Y-87726000D01*
X133393448Y-87708669D01*
X133311375Y-87674673D01*
X133311374Y-87674672D01*
X133311371Y-87674671D01*
X133237504Y-87625314D01*
X133237503Y-87625313D01*
X133237500Y-87625311D01*
X133174689Y-87562500D01*
X133166127Y-87549686D01*
X133125329Y-87488629D01*
X133125327Y-87488625D01*
X133091331Y-87406552D01*
X133074000Y-87319421D01*
X133074000Y-87230579D01*
X133091331Y-87143448D01*
X133125327Y-87061375D01*
X133125328Y-87061374D01*
X133125329Y-87061371D01*
X133174686Y-86987504D01*
X133174687Y-86987503D01*
X133174689Y-86987500D01*
X133237500Y-86924689D01*
X133237504Y-86924686D01*
X133311371Y-86875329D01*
X133311374Y-86875328D01*
X133311375Y-86875327D01*
X133393448Y-86841331D01*
X133480579Y-86824000D01*
X133569421Y-86824000D01*
X133656552Y-86841331D01*
X133656552Y-86841331D01*
G37*
G36*
X127831552Y-86316331D02*
X127913625Y-86350327D01*
X127913626Y-86350328D01*
X127913629Y-86350329D01*
X127963525Y-86383669D01*
X127987500Y-86399689D01*
X128050311Y-86462500D01*
X128050313Y-86462503D01*
X128050314Y-86462504D01*
X128099671Y-86536371D01*
X128099672Y-86536374D01*
X128099673Y-86536375D01*
X128133669Y-86618448D01*
X128151000Y-86705579D01*
X128151000Y-86794421D01*
X128133669Y-86881552D01*
X128105181Y-86950327D01*
X128099671Y-86963629D01*
X128067016Y-87012500D01*
X128050311Y-87037500D01*
X127987500Y-87100311D01*
X127987497Y-87100313D01*
X127987496Y-87100314D01*
X127913629Y-87149671D01*
X127913626Y-87149672D01*
X127913625Y-87149673D01*
X127831552Y-87183669D01*
X127744421Y-87201000D01*
X127655579Y-87201000D01*
X127568448Y-87183669D01*
X127486375Y-87149673D01*
X127486374Y-87149672D01*
X127486371Y-87149671D01*
X127412504Y-87100314D01*
X127412503Y-87100313D01*
X127412500Y-87100311D01*
X127349689Y-87037500D01*
X127332984Y-87012500D01*
X127300329Y-86963629D01*
X127294819Y-86950327D01*
X127266331Y-86881552D01*
X127249000Y-86794421D01*
X127249000Y-86705579D01*
X127266331Y-86618448D01*
X127300327Y-86536375D01*
X127300328Y-86536374D01*
X127300329Y-86536371D01*
X127349686Y-86462504D01*
X127349687Y-86462503D01*
X127349689Y-86462500D01*
X127412500Y-86399689D01*
X127436475Y-86383669D01*
X127486371Y-86350329D01*
X127486374Y-86350328D01*
X127486375Y-86350327D01*
X127568448Y-86316331D01*
X127655579Y-86299000D01*
X127744421Y-86299000D01*
X127831552Y-86316331D01*
X127831552Y-86316331D01*
G37*
G36*
X120881552Y-86316331D02*
X120963625Y-86350327D01*
X120963626Y-86350328D01*
X120963629Y-86350329D01*
X121013525Y-86383669D01*
X121037500Y-86399689D01*
X121100311Y-86462500D01*
X121100313Y-86462503D01*
X121100314Y-86462504D01*
X121149671Y-86536371D01*
X121149672Y-86536374D01*
X121149673Y-86536375D01*
X121183669Y-86618448D01*
X121201000Y-86705579D01*
X121201000Y-86794421D01*
X121183669Y-86881552D01*
X121155181Y-86950327D01*
X121149671Y-86963629D01*
X121117016Y-87012500D01*
X121100311Y-87037500D01*
X121037500Y-87100311D01*
X121037497Y-87100313D01*
X121037496Y-87100314D01*
X120963629Y-87149671D01*
X120963626Y-87149672D01*
X120963625Y-87149673D01*
X120881552Y-87183669D01*
X120794421Y-87201000D01*
X120705579Y-87201000D01*
X120618448Y-87183669D01*
X120536375Y-87149673D01*
X120536374Y-87149672D01*
X120536371Y-87149671D01*
X120462504Y-87100314D01*
X120462503Y-87100313D01*
X120462500Y-87100311D01*
X120399689Y-87037500D01*
X120382984Y-87012500D01*
X120350329Y-86963629D01*
X120344819Y-86950327D01*
X120316331Y-86881552D01*
X120299000Y-86794421D01*
X120299000Y-86705579D01*
X120316331Y-86618448D01*
X120350327Y-86536375D01*
X120350328Y-86536374D01*
X120350329Y-86536371D01*
X120399686Y-86462504D01*
X120399687Y-86462503D01*
X120399689Y-86462500D01*
X120462500Y-86399689D01*
X120486475Y-86383669D01*
X120536371Y-86350329D01*
X120536374Y-86350328D01*
X120536375Y-86350327D01*
X120618448Y-86316331D01*
X120705579Y-86299000D01*
X120794421Y-86299000D01*
X120881552Y-86316331D01*
X120881552Y-86316331D01*
G37*
G36*
X129381552Y-86291331D02*
X129463625Y-86325327D01*
X129463626Y-86325328D01*
X129463629Y-86325329D01*
X129520942Y-86363625D01*
X129537500Y-86374689D01*
X129600311Y-86437500D01*
X129600313Y-86437503D01*
X129600314Y-86437504D01*
X129649671Y-86511371D01*
X129649672Y-86511374D01*
X129649673Y-86511375D01*
X129683669Y-86593448D01*
X129701000Y-86680579D01*
X129701000Y-86769421D01*
X129683669Y-86856552D01*
X129649673Y-86938625D01*
X129649671Y-86938629D01*
X129632966Y-86963629D01*
X129600311Y-87012500D01*
X129537500Y-87075311D01*
X129537497Y-87075313D01*
X129537496Y-87075314D01*
X129463629Y-87124671D01*
X129463626Y-87124672D01*
X129463625Y-87124673D01*
X129381552Y-87158669D01*
X129294421Y-87176000D01*
X129205579Y-87176000D01*
X129118448Y-87158669D01*
X129036375Y-87124673D01*
X129036374Y-87124672D01*
X129036371Y-87124671D01*
X128962504Y-87075314D01*
X128962503Y-87075313D01*
X128962500Y-87075311D01*
X128899689Y-87012500D01*
X128867034Y-86963629D01*
X128850329Y-86938629D01*
X128850327Y-86938625D01*
X128816331Y-86856552D01*
X128799000Y-86769421D01*
X128799000Y-86680579D01*
X128816331Y-86593448D01*
X128850327Y-86511375D01*
X128850328Y-86511374D01*
X128850329Y-86511371D01*
X128899686Y-86437504D01*
X128899687Y-86437503D01*
X128899689Y-86437500D01*
X128962500Y-86374689D01*
X128979058Y-86363625D01*
X129036371Y-86325329D01*
X129036374Y-86325328D01*
X129036375Y-86325327D01*
X129118448Y-86291331D01*
X129205579Y-86274000D01*
X129294421Y-86274000D01*
X129381552Y-86291331D01*
X129381552Y-86291331D01*
G37*
G36*
X135506552Y-85766331D02*
X135588625Y-85800327D01*
X135588626Y-85800328D01*
X135588629Y-85800329D01*
X135662496Y-85849686D01*
X135662500Y-85849689D01*
X135725311Y-85912500D01*
X135725313Y-85912503D01*
X135725314Y-85912504D01*
X135774671Y-85986371D01*
X135774672Y-85986374D01*
X135774673Y-85986375D01*
X135808669Y-86068448D01*
X135826000Y-86155579D01*
X135826000Y-86244421D01*
X135808669Y-86331552D01*
X135774673Y-86413625D01*
X135774671Y-86413629D01*
X135742016Y-86462500D01*
X135725311Y-86487500D01*
X135662500Y-86550311D01*
X135662497Y-86550313D01*
X135662496Y-86550314D01*
X135588629Y-86599671D01*
X135588626Y-86599672D01*
X135588625Y-86599673D01*
X135506552Y-86633669D01*
X135419421Y-86651000D01*
X135330579Y-86651000D01*
X135243448Y-86633669D01*
X135161375Y-86599673D01*
X135161374Y-86599672D01*
X135161371Y-86599671D01*
X135087504Y-86550314D01*
X135087503Y-86550313D01*
X135087500Y-86550311D01*
X135024689Y-86487500D01*
X135007984Y-86462500D01*
X134975329Y-86413629D01*
X134975327Y-86413625D01*
X134941331Y-86331552D01*
X134924000Y-86244421D01*
X134924000Y-86155579D01*
X134941331Y-86068448D01*
X134975327Y-85986375D01*
X134975328Y-85986374D01*
X134975329Y-85986371D01*
X135024686Y-85912504D01*
X135024687Y-85912503D01*
X135024689Y-85912500D01*
X135087500Y-85849689D01*
X135087504Y-85849686D01*
X135161371Y-85800329D01*
X135161374Y-85800328D01*
X135161375Y-85800327D01*
X135243448Y-85766331D01*
X135330579Y-85749000D01*
X135419421Y-85749000D01*
X135506552Y-85766331D01*
X135506552Y-85766331D01*
G37*
G36*
X116256552Y-85716331D02*
X116338625Y-85750327D01*
X116338626Y-85750328D01*
X116338629Y-85750329D01*
X116412496Y-85799686D01*
X116412500Y-85799689D01*
X116475311Y-85862500D01*
X116475313Y-85862503D01*
X116475314Y-85862504D01*
X116524671Y-85936371D01*
X116524672Y-85936374D01*
X116524673Y-85936375D01*
X116558669Y-86018448D01*
X116576000Y-86105579D01*
X116576000Y-86194421D01*
X116558669Y-86281552D01*
X116537958Y-86331552D01*
X116524671Y-86363629D01*
X116475314Y-86437496D01*
X116475311Y-86437500D01*
X116412500Y-86500311D01*
X116412497Y-86500313D01*
X116412496Y-86500314D01*
X116338629Y-86549671D01*
X116338626Y-86549672D01*
X116338625Y-86549673D01*
X116256552Y-86583669D01*
X116169421Y-86601000D01*
X116080579Y-86601000D01*
X115993448Y-86583669D01*
X115911375Y-86549673D01*
X115911374Y-86549672D01*
X115911371Y-86549671D01*
X115837504Y-86500314D01*
X115837503Y-86500313D01*
X115837500Y-86500311D01*
X115774689Y-86437500D01*
X115774686Y-86437496D01*
X115725329Y-86363629D01*
X115712042Y-86331552D01*
X115691331Y-86281552D01*
X115674000Y-86194421D01*
X115674000Y-86105579D01*
X115691331Y-86018448D01*
X115725327Y-85936375D01*
X115725328Y-85936374D01*
X115725329Y-85936371D01*
X115774686Y-85862504D01*
X115774687Y-85862503D01*
X115774689Y-85862500D01*
X115837500Y-85799689D01*
X115837504Y-85799686D01*
X115911371Y-85750329D01*
X115911374Y-85750328D01*
X115911375Y-85750327D01*
X115993448Y-85716331D01*
X116080579Y-85699000D01*
X116169421Y-85699000D01*
X116256552Y-85716331D01*
X116256552Y-85716331D01*
G37*
G36*
X133656552Y-85516331D02*
X133738625Y-85550327D01*
X133738626Y-85550328D01*
X133738629Y-85550329D01*
X133812496Y-85599686D01*
X133812500Y-85599689D01*
X133875311Y-85662500D01*
X133875313Y-85662503D01*
X133875314Y-85662504D01*
X133924671Y-85736371D01*
X133924672Y-85736374D01*
X133924673Y-85736375D01*
X133958669Y-85818448D01*
X133976000Y-85905579D01*
X133976000Y-85994421D01*
X133958669Y-86081552D01*
X133928005Y-86155580D01*
X133924671Y-86163629D01*
X133879935Y-86230580D01*
X133875311Y-86237500D01*
X133812500Y-86300311D01*
X133812497Y-86300313D01*
X133812496Y-86300314D01*
X133738629Y-86349671D01*
X133738626Y-86349672D01*
X133738625Y-86349673D01*
X133656552Y-86383669D01*
X133569421Y-86401000D01*
X133480579Y-86401000D01*
X133393448Y-86383669D01*
X133311375Y-86349673D01*
X133311374Y-86349672D01*
X133311371Y-86349671D01*
X133237504Y-86300314D01*
X133237503Y-86300313D01*
X133237500Y-86300311D01*
X133174689Y-86237500D01*
X133170065Y-86230580D01*
X133125329Y-86163629D01*
X133121995Y-86155580D01*
X133091331Y-86081552D01*
X133074000Y-85994421D01*
X133074000Y-85905579D01*
X133091331Y-85818448D01*
X133125327Y-85736375D01*
X133125328Y-85736374D01*
X133125329Y-85736371D01*
X133174686Y-85662504D01*
X133174687Y-85662503D01*
X133174689Y-85662500D01*
X133237500Y-85599689D01*
X133237504Y-85599686D01*
X133311371Y-85550329D01*
X133311374Y-85550328D01*
X133311375Y-85550327D01*
X133393448Y-85516331D01*
X133480579Y-85499000D01*
X133569421Y-85499000D01*
X133656552Y-85516331D01*
X133656552Y-85516331D01*
G37*
G36*
X138056552Y-84166331D02*
X138138625Y-84200327D01*
X138138626Y-84200328D01*
X138138629Y-84200329D01*
X138212496Y-84249686D01*
X138212500Y-84249689D01*
X138275311Y-84312500D01*
X138275313Y-84312503D01*
X138275314Y-84312504D01*
X138324671Y-84386371D01*
X138324672Y-84386374D01*
X138324673Y-84386375D01*
X138358669Y-84468448D01*
X138376000Y-84555579D01*
X138376000Y-84644421D01*
X138358669Y-84731552D01*
X138324673Y-84813625D01*
X138324671Y-84813629D01*
X138292016Y-84862500D01*
X138275311Y-84887500D01*
X138212500Y-84950311D01*
X138212497Y-84950313D01*
X138212496Y-84950314D01*
X138138629Y-84999671D01*
X138138626Y-84999672D01*
X138138625Y-84999673D01*
X138056552Y-85033669D01*
X137969421Y-85051000D01*
X137880579Y-85051000D01*
X137793448Y-85033669D01*
X137711375Y-84999673D01*
X137711374Y-84999672D01*
X137711371Y-84999671D01*
X137637504Y-84950314D01*
X137637503Y-84950313D01*
X137637500Y-84950311D01*
X137574689Y-84887500D01*
X137557984Y-84862500D01*
X137525329Y-84813629D01*
X137525327Y-84813625D01*
X137491331Y-84731552D01*
X137474000Y-84644421D01*
X137474000Y-84555579D01*
X137491331Y-84468448D01*
X137525327Y-84386375D01*
X137525328Y-84386374D01*
X137525329Y-84386371D01*
X137574686Y-84312504D01*
X137574687Y-84312503D01*
X137574689Y-84312500D01*
X137637500Y-84249689D01*
X137637504Y-84249686D01*
X137711371Y-84200329D01*
X137711374Y-84200328D01*
X137711375Y-84200327D01*
X137793448Y-84166331D01*
X137880579Y-84149000D01*
X137969421Y-84149000D01*
X138056552Y-84166331D01*
X138056552Y-84166331D01*
G37*
G36*
X133656552Y-84141331D02*
X133738625Y-84175327D01*
X133738626Y-84175328D01*
X133738629Y-84175329D01*
X133812496Y-84224686D01*
X133812500Y-84224689D01*
X133875311Y-84287500D01*
X133875313Y-84287503D01*
X133875314Y-84287504D01*
X133924671Y-84361371D01*
X133924672Y-84361374D01*
X133924673Y-84361375D01*
X133958668Y-84443446D01*
X133976000Y-84530579D01*
X133976000Y-84619421D01*
X133958669Y-84706552D01*
X133924673Y-84788625D01*
X133924671Y-84788629D01*
X133892016Y-84837500D01*
X133875311Y-84862500D01*
X133812500Y-84925311D01*
X133812497Y-84925313D01*
X133812496Y-84925314D01*
X133738629Y-84974671D01*
X133738626Y-84974672D01*
X133738625Y-84974673D01*
X133656552Y-85008669D01*
X133569421Y-85026000D01*
X133480579Y-85026000D01*
X133393448Y-85008669D01*
X133311375Y-84974673D01*
X133311374Y-84974672D01*
X133311371Y-84974671D01*
X133237504Y-84925314D01*
X133237503Y-84925313D01*
X133237500Y-84925311D01*
X133174689Y-84862500D01*
X133157984Y-84837500D01*
X133125329Y-84788629D01*
X133125327Y-84788625D01*
X133091331Y-84706552D01*
X133074000Y-84619421D01*
X133074000Y-84530579D01*
X133091332Y-84443446D01*
X133125327Y-84361375D01*
X133125328Y-84361374D01*
X133125329Y-84361371D01*
X133174686Y-84287504D01*
X133174687Y-84287503D01*
X133174689Y-84287500D01*
X133237500Y-84224689D01*
X133237504Y-84224686D01*
X133311371Y-84175329D01*
X133311374Y-84175328D01*
X133311375Y-84175327D01*
X133393448Y-84141331D01*
X133480579Y-84124000D01*
X133569421Y-84124000D01*
X133656552Y-84141331D01*
X133656552Y-84141331D01*
G37*
G36*
X143106552Y-84116331D02*
X143188625Y-84150327D01*
X143188626Y-84150328D01*
X143188629Y-84150329D01*
X143244426Y-84187612D01*
X143262500Y-84199689D01*
X143325311Y-84262500D01*
X143325313Y-84262503D01*
X143325314Y-84262504D01*
X143374671Y-84336371D01*
X143374672Y-84336374D01*
X143374673Y-84336375D01*
X143408669Y-84418448D01*
X143426000Y-84505579D01*
X143426000Y-84594421D01*
X143408669Y-84681552D01*
X143385960Y-84736375D01*
X143374671Y-84763629D01*
X143325314Y-84837496D01*
X143325311Y-84837500D01*
X143262500Y-84900311D01*
X143262497Y-84900313D01*
X143262496Y-84900314D01*
X143188629Y-84949671D01*
X143188626Y-84949672D01*
X143188625Y-84949673D01*
X143106552Y-84983669D01*
X143019421Y-85001000D01*
X142930579Y-85001000D01*
X142843448Y-84983669D01*
X142761375Y-84949673D01*
X142761374Y-84949672D01*
X142761371Y-84949671D01*
X142687504Y-84900314D01*
X142687503Y-84900313D01*
X142687500Y-84900311D01*
X142624689Y-84837500D01*
X142624686Y-84837496D01*
X142575329Y-84763629D01*
X142564040Y-84736375D01*
X142541331Y-84681552D01*
X142524000Y-84594421D01*
X142524000Y-84505579D01*
X142541331Y-84418448D01*
X142575327Y-84336375D01*
X142575328Y-84336374D01*
X142575329Y-84336371D01*
X142624686Y-84262504D01*
X142624687Y-84262503D01*
X142624689Y-84262500D01*
X142687500Y-84199689D01*
X142705574Y-84187612D01*
X142761371Y-84150329D01*
X142761374Y-84150328D01*
X142761375Y-84150327D01*
X142843448Y-84116331D01*
X142930579Y-84099000D01*
X143019421Y-84099000D01*
X143106552Y-84116331D01*
X143106552Y-84116331D01*
G37*
G36*
X125456552Y-83491331D02*
X125538625Y-83525327D01*
X125538626Y-83525328D01*
X125538629Y-83525329D01*
X125603160Y-83568448D01*
X125612500Y-83574689D01*
X125675311Y-83637500D01*
X125675313Y-83637503D01*
X125675314Y-83637504D01*
X125724671Y-83711371D01*
X125724672Y-83711374D01*
X125724673Y-83711375D01*
X125758669Y-83793448D01*
X125776000Y-83880579D01*
X125776000Y-83969421D01*
X125758669Y-84056552D01*
X125725139Y-84137500D01*
X125724671Y-84138629D01*
X125679284Y-84206554D01*
X125675311Y-84212500D01*
X125612500Y-84275311D01*
X125612497Y-84275313D01*
X125612496Y-84275314D01*
X125538629Y-84324671D01*
X125538626Y-84324672D01*
X125538625Y-84324673D01*
X125456552Y-84358669D01*
X125369421Y-84376000D01*
X125280579Y-84376000D01*
X125193448Y-84358669D01*
X125111375Y-84324673D01*
X125111374Y-84324672D01*
X125111371Y-84324671D01*
X125037504Y-84275314D01*
X125037503Y-84275313D01*
X125037500Y-84275311D01*
X124974689Y-84212500D01*
X124970716Y-84206554D01*
X124925329Y-84138629D01*
X124924861Y-84137500D01*
X124891331Y-84056552D01*
X124874000Y-83969421D01*
X124874000Y-83880579D01*
X124891331Y-83793448D01*
X124925327Y-83711375D01*
X124925328Y-83711374D01*
X124925329Y-83711371D01*
X124974686Y-83637504D01*
X124974687Y-83637503D01*
X124974689Y-83637500D01*
X125037500Y-83574689D01*
X125046840Y-83568448D01*
X125111371Y-83525329D01*
X125111374Y-83525328D01*
X125111375Y-83525327D01*
X125193448Y-83491331D01*
X125280579Y-83474000D01*
X125369421Y-83474000D01*
X125456552Y-83491331D01*
X125456552Y-83491331D01*
G37*
G36*
X123306552Y-83491331D02*
X123388625Y-83525327D01*
X123388626Y-83525328D01*
X123388629Y-83525329D01*
X123453160Y-83568448D01*
X123462500Y-83574689D01*
X123525311Y-83637500D01*
X123525313Y-83637503D01*
X123525314Y-83637504D01*
X123574671Y-83711371D01*
X123574672Y-83711374D01*
X123574673Y-83711375D01*
X123608669Y-83793448D01*
X123626000Y-83880579D01*
X123626000Y-83969421D01*
X123608669Y-84056552D01*
X123575139Y-84137500D01*
X123574671Y-84138629D01*
X123529284Y-84206554D01*
X123525311Y-84212500D01*
X123462500Y-84275311D01*
X123462497Y-84275313D01*
X123462496Y-84275314D01*
X123388629Y-84324671D01*
X123388626Y-84324672D01*
X123388625Y-84324673D01*
X123306552Y-84358669D01*
X123219421Y-84376000D01*
X123130579Y-84376000D01*
X123043448Y-84358669D01*
X122961375Y-84324673D01*
X122961374Y-84324672D01*
X122961371Y-84324671D01*
X122887504Y-84275314D01*
X122887503Y-84275313D01*
X122887500Y-84275311D01*
X122824689Y-84212500D01*
X122820716Y-84206554D01*
X122775329Y-84138629D01*
X122774861Y-84137500D01*
X122741331Y-84056552D01*
X122724000Y-83969421D01*
X122724000Y-83880579D01*
X122741331Y-83793448D01*
X122775327Y-83711375D01*
X122775328Y-83711374D01*
X122775329Y-83711371D01*
X122824686Y-83637504D01*
X122824687Y-83637503D01*
X122824689Y-83637500D01*
X122887500Y-83574689D01*
X122896840Y-83568448D01*
X122961371Y-83525329D01*
X122961374Y-83525328D01*
X122961375Y-83525327D01*
X123043448Y-83491331D01*
X123130579Y-83474000D01*
X123219421Y-83474000D01*
X123306552Y-83491331D01*
X123306552Y-83491331D01*
G37*
G36*
X127681552Y-83441331D02*
X127763625Y-83475327D01*
X127763626Y-83475328D01*
X127763629Y-83475329D01*
X127837496Y-83524686D01*
X127837500Y-83524689D01*
X127900311Y-83587500D01*
X127900313Y-83587503D01*
X127900314Y-83587504D01*
X127949671Y-83661371D01*
X127949672Y-83661374D01*
X127949673Y-83661375D01*
X127983669Y-83743448D01*
X128001000Y-83830579D01*
X128001000Y-83919421D01*
X127983669Y-84006552D01*
X127954902Y-84076000D01*
X127949671Y-84088629D01*
X127900314Y-84162496D01*
X127900311Y-84162500D01*
X127837500Y-84225311D01*
X127837497Y-84225313D01*
X127837496Y-84225314D01*
X127763629Y-84274671D01*
X127763626Y-84274672D01*
X127763625Y-84274673D01*
X127681552Y-84308669D01*
X127594421Y-84326000D01*
X127505579Y-84326000D01*
X127418448Y-84308669D01*
X127336375Y-84274673D01*
X127336374Y-84274672D01*
X127336371Y-84274671D01*
X127262504Y-84225314D01*
X127262503Y-84225313D01*
X127262500Y-84225311D01*
X127199689Y-84162500D01*
X127199686Y-84162496D01*
X127150329Y-84088629D01*
X127145098Y-84076000D01*
X127116331Y-84006552D01*
X127099000Y-83919421D01*
X127099000Y-83830579D01*
X127116331Y-83743448D01*
X127150327Y-83661375D01*
X127150328Y-83661374D01*
X127150329Y-83661371D01*
X127199686Y-83587504D01*
X127199687Y-83587503D01*
X127199689Y-83587500D01*
X127262500Y-83524689D01*
X127262504Y-83524686D01*
X127336371Y-83475329D01*
X127336374Y-83475328D01*
X127336375Y-83475327D01*
X127418448Y-83441331D01*
X127505579Y-83424000D01*
X127594421Y-83424000D01*
X127681552Y-83441331D01*
X127681552Y-83441331D01*
G37*
G36*
X129781552Y-83416331D02*
X129863625Y-83450327D01*
X129863626Y-83450328D01*
X129863629Y-83450329D01*
X129928160Y-83493448D01*
X129937500Y-83499689D01*
X130000311Y-83562500D01*
X130000313Y-83562503D01*
X130000314Y-83562504D01*
X130049671Y-83636371D01*
X130049672Y-83636374D01*
X130049673Y-83636375D01*
X130083669Y-83718448D01*
X130101000Y-83805579D01*
X130101000Y-83894421D01*
X130083669Y-83981552D01*
X130049673Y-84063625D01*
X130049671Y-84063629D01*
X130002871Y-84133669D01*
X130000311Y-84137500D01*
X129937500Y-84200311D01*
X129937497Y-84200313D01*
X129937496Y-84200314D01*
X129863629Y-84249671D01*
X129863626Y-84249672D01*
X129863625Y-84249673D01*
X129781552Y-84283669D01*
X129694421Y-84301000D01*
X129605579Y-84301000D01*
X129518448Y-84283669D01*
X129436375Y-84249673D01*
X129436374Y-84249672D01*
X129436371Y-84249671D01*
X129362504Y-84200314D01*
X129362503Y-84200313D01*
X129362500Y-84200311D01*
X129299689Y-84137500D01*
X129297129Y-84133669D01*
X129250329Y-84063629D01*
X129250327Y-84063625D01*
X129216331Y-83981552D01*
X129199000Y-83894421D01*
X129199000Y-83805579D01*
X129216331Y-83718448D01*
X129250327Y-83636375D01*
X129250328Y-83636374D01*
X129250329Y-83636371D01*
X129299686Y-83562504D01*
X129299687Y-83562503D01*
X129299689Y-83562500D01*
X129362500Y-83499689D01*
X129371840Y-83493448D01*
X129436371Y-83450329D01*
X129436374Y-83450328D01*
X129436375Y-83450327D01*
X129518448Y-83416331D01*
X129605579Y-83399000D01*
X129694421Y-83399000D01*
X129781552Y-83416331D01*
X129781552Y-83416331D01*
G37*
G36*
X116131552Y-83266331D02*
X116213625Y-83300327D01*
X116213626Y-83300328D01*
X116213629Y-83300329D01*
X116287496Y-83349686D01*
X116287500Y-83349689D01*
X116350311Y-83412500D01*
X116350313Y-83412503D01*
X116350314Y-83412504D01*
X116399671Y-83486371D01*
X116399672Y-83486374D01*
X116399673Y-83486375D01*
X116433669Y-83568448D01*
X116451000Y-83655579D01*
X116451000Y-83744421D01*
X116433669Y-83831552D01*
X116400139Y-83912500D01*
X116399671Y-83913629D01*
X116350314Y-83987496D01*
X116350311Y-83987500D01*
X116287500Y-84050311D01*
X116287497Y-84050313D01*
X116287496Y-84050314D01*
X116213629Y-84099671D01*
X116213626Y-84099672D01*
X116213625Y-84099673D01*
X116131552Y-84133669D01*
X116044421Y-84151000D01*
X115955579Y-84151000D01*
X115868448Y-84133669D01*
X115786375Y-84099673D01*
X115786374Y-84099672D01*
X115786371Y-84099671D01*
X115712504Y-84050314D01*
X115712503Y-84050313D01*
X115712500Y-84050311D01*
X115649689Y-83987500D01*
X115649686Y-83987496D01*
X115600329Y-83913629D01*
X115599861Y-83912500D01*
X115566331Y-83831552D01*
X115549000Y-83744421D01*
X115549000Y-83655579D01*
X115566331Y-83568448D01*
X115600327Y-83486375D01*
X115600328Y-83486374D01*
X115600329Y-83486371D01*
X115649686Y-83412504D01*
X115649687Y-83412503D01*
X115649689Y-83412500D01*
X115712500Y-83349689D01*
X115712504Y-83349686D01*
X115786371Y-83300329D01*
X115786374Y-83300328D01*
X115786375Y-83300327D01*
X115868448Y-83266331D01*
X115955579Y-83249000D01*
X116044421Y-83249000D01*
X116131552Y-83266331D01*
X116131552Y-83266331D01*
G37*
G36*
X118456552Y-83191331D02*
X118538625Y-83225327D01*
X118538626Y-83225328D01*
X118538629Y-83225329D01*
X118612496Y-83274686D01*
X118612500Y-83274689D01*
X118675311Y-83337500D01*
X118675313Y-83337503D01*
X118675314Y-83337504D01*
X118724671Y-83411371D01*
X118724672Y-83411374D01*
X118724673Y-83411375D01*
X118758669Y-83493448D01*
X118776000Y-83580579D01*
X118776000Y-83669421D01*
X118758669Y-83756552D01*
X118724673Y-83838625D01*
X118724671Y-83838629D01*
X118687392Y-83894420D01*
X118675311Y-83912500D01*
X118612500Y-83975311D01*
X118612497Y-83975313D01*
X118612496Y-83975314D01*
X118538629Y-84024671D01*
X118538626Y-84024672D01*
X118538625Y-84024673D01*
X118456552Y-84058669D01*
X118369421Y-84076000D01*
X118280579Y-84076000D01*
X118193448Y-84058669D01*
X118111375Y-84024673D01*
X118111374Y-84024672D01*
X118111371Y-84024671D01*
X118037504Y-83975314D01*
X118037503Y-83975313D01*
X118037500Y-83975311D01*
X117974689Y-83912500D01*
X117962608Y-83894420D01*
X117925329Y-83838629D01*
X117925327Y-83838625D01*
X117891331Y-83756552D01*
X117874000Y-83669421D01*
X117874000Y-83580579D01*
X117891331Y-83493448D01*
X117925327Y-83411375D01*
X117925328Y-83411374D01*
X117925329Y-83411371D01*
X117974686Y-83337504D01*
X117974687Y-83337503D01*
X117974689Y-83337500D01*
X118037500Y-83274689D01*
X118037504Y-83274686D01*
X118111371Y-83225329D01*
X118111374Y-83225328D01*
X118111375Y-83225327D01*
X118193448Y-83191331D01*
X118280579Y-83174000D01*
X118369421Y-83174000D01*
X118456552Y-83191331D01*
X118456552Y-83191331D01*
G37*
G36*
X133656552Y-82716331D02*
X133738625Y-82750327D01*
X133738626Y-82750328D01*
X133738629Y-82750329D01*
X133812496Y-82799686D01*
X133812500Y-82799689D01*
X133875311Y-82862500D01*
X133875313Y-82862503D01*
X133875314Y-82862504D01*
X133924671Y-82936371D01*
X133924672Y-82936374D01*
X133924673Y-82936375D01*
X133958669Y-83018448D01*
X133976000Y-83105579D01*
X133976000Y-83194421D01*
X133958669Y-83281552D01*
X133924673Y-83363625D01*
X133924671Y-83363629D01*
X133875314Y-83437496D01*
X133875311Y-83437500D01*
X133812500Y-83500311D01*
X133812497Y-83500313D01*
X133812496Y-83500314D01*
X133738629Y-83549671D01*
X133738626Y-83549672D01*
X133738625Y-83549673D01*
X133656552Y-83583669D01*
X133569421Y-83601000D01*
X133480579Y-83601000D01*
X133393448Y-83583669D01*
X133311375Y-83549673D01*
X133311374Y-83549672D01*
X133311371Y-83549671D01*
X133237504Y-83500314D01*
X133237503Y-83500313D01*
X133237500Y-83500311D01*
X133174689Y-83437500D01*
X133174686Y-83437496D01*
X133125329Y-83363629D01*
X133125327Y-83363625D01*
X133091331Y-83281552D01*
X133074000Y-83194421D01*
X133074000Y-83105579D01*
X133091331Y-83018448D01*
X133125327Y-82936375D01*
X133125328Y-82936374D01*
X133125329Y-82936371D01*
X133174686Y-82862504D01*
X133174687Y-82862503D01*
X133174689Y-82862500D01*
X133237500Y-82799689D01*
X133237504Y-82799686D01*
X133311371Y-82750329D01*
X133311374Y-82750328D01*
X133311375Y-82750327D01*
X133393448Y-82716331D01*
X133480579Y-82699000D01*
X133569421Y-82699000D01*
X133656552Y-82716331D01*
X133656552Y-82716331D01*
G37*
G36*
X135506552Y-82441331D02*
X135588625Y-82475327D01*
X135588626Y-82475328D01*
X135588629Y-82475329D01*
X135662496Y-82524686D01*
X135662500Y-82524689D01*
X135725311Y-82587500D01*
X135725313Y-82587503D01*
X135725314Y-82587504D01*
X135774671Y-82661371D01*
X135774672Y-82661374D01*
X135774673Y-82661375D01*
X135808669Y-82743448D01*
X135826000Y-82830579D01*
X135826000Y-82919421D01*
X135808669Y-83006552D01*
X135803741Y-83018448D01*
X135774671Y-83088629D01*
X135734742Y-83148386D01*
X135725311Y-83162500D01*
X135662500Y-83225311D01*
X135662497Y-83225313D01*
X135662496Y-83225314D01*
X135588629Y-83274671D01*
X135588626Y-83274672D01*
X135588625Y-83274673D01*
X135506552Y-83308669D01*
X135419421Y-83326000D01*
X135330579Y-83326000D01*
X135243448Y-83308669D01*
X135161375Y-83274673D01*
X135161374Y-83274672D01*
X135161371Y-83274671D01*
X135087504Y-83225314D01*
X135087503Y-83225313D01*
X135087500Y-83225311D01*
X135024689Y-83162500D01*
X135015258Y-83148386D01*
X134975329Y-83088629D01*
X134946259Y-83018448D01*
X134941331Y-83006552D01*
X134924000Y-82919421D01*
X134924000Y-82830579D01*
X134941331Y-82743448D01*
X134975327Y-82661375D01*
X134975328Y-82661374D01*
X134975329Y-82661371D01*
X135024686Y-82587504D01*
X135024687Y-82587503D01*
X135024689Y-82587500D01*
X135087500Y-82524689D01*
X135087504Y-82524686D01*
X135161371Y-82475329D01*
X135161374Y-82475328D01*
X135161375Y-82475327D01*
X135243448Y-82441331D01*
X135330579Y-82424000D01*
X135419421Y-82424000D01*
X135506552Y-82441331D01*
X135506552Y-82441331D01*
G37*
G36*
X139026000Y-82951000D02*
X137024000Y-82951000D01*
X137024000Y-80949000D01*
X139026000Y-80949000D01*
X139026000Y-82951000D01*
X139026000Y-82951000D01*
G37*
G36*
X143776000Y-82951000D02*
X141774000Y-82951000D01*
X141774000Y-80949000D01*
X143776000Y-80949000D01*
X143776000Y-82951000D01*
X143776000Y-82951000D01*
G37*
G36*
X133656552Y-81416331D02*
X133738625Y-81450327D01*
X133738626Y-81450328D01*
X133738629Y-81450329D01*
X133812496Y-81499686D01*
X133812500Y-81499689D01*
X133875311Y-81562500D01*
X133875313Y-81562503D01*
X133875314Y-81562504D01*
X133924671Y-81636371D01*
X133924672Y-81636374D01*
X133924673Y-81636375D01*
X133958669Y-81718448D01*
X133976000Y-81805579D01*
X133976000Y-81894421D01*
X133958669Y-81981552D01*
X133924673Y-82063625D01*
X133924671Y-82063629D01*
X133877871Y-82133669D01*
X133875311Y-82137500D01*
X133812500Y-82200311D01*
X133812497Y-82200313D01*
X133812496Y-82200314D01*
X133738629Y-82249671D01*
X133738626Y-82249672D01*
X133738625Y-82249673D01*
X133656552Y-82283669D01*
X133569421Y-82301000D01*
X133480579Y-82301000D01*
X133393448Y-82283669D01*
X133311375Y-82249673D01*
X133311374Y-82249672D01*
X133311371Y-82249671D01*
X133237504Y-82200314D01*
X133237503Y-82200313D01*
X133237500Y-82200311D01*
X133174689Y-82137500D01*
X133172129Y-82133669D01*
X133125329Y-82063629D01*
X133125327Y-82063625D01*
X133091331Y-81981552D01*
X133074000Y-81894421D01*
X133074000Y-81805579D01*
X133091331Y-81718448D01*
X133125327Y-81636375D01*
X133125328Y-81636374D01*
X133125329Y-81636371D01*
X133174686Y-81562504D01*
X133174687Y-81562503D01*
X133174689Y-81562500D01*
X133237500Y-81499689D01*
X133237504Y-81499686D01*
X133311371Y-81450329D01*
X133311374Y-81450328D01*
X133311375Y-81450327D01*
X133393448Y-81416331D01*
X133480579Y-81399000D01*
X133569421Y-81399000D01*
X133656552Y-81416331D01*
X133656552Y-81416331D01*
G37*
G36*
X140556552Y-81416331D02*
X140638625Y-81450327D01*
X140638626Y-81450328D01*
X140638629Y-81450329D01*
X140712496Y-81499686D01*
X140712500Y-81499689D01*
X140775311Y-81562500D01*
X140775313Y-81562503D01*
X140775314Y-81562504D01*
X140824671Y-81636371D01*
X140824672Y-81636374D01*
X140824673Y-81636375D01*
X140858669Y-81718448D01*
X140876000Y-81805579D01*
X140876000Y-81894421D01*
X140858669Y-81981552D01*
X140824673Y-82063625D01*
X140824671Y-82063629D01*
X140777871Y-82133669D01*
X140775311Y-82137500D01*
X140712500Y-82200311D01*
X140712497Y-82200313D01*
X140712496Y-82200314D01*
X140638629Y-82249671D01*
X140638626Y-82249672D01*
X140638625Y-82249673D01*
X140556552Y-82283669D01*
X140469421Y-82301000D01*
X140380579Y-82301000D01*
X140293448Y-82283669D01*
X140211375Y-82249673D01*
X140211374Y-82249672D01*
X140211371Y-82249671D01*
X140137504Y-82200314D01*
X140137503Y-82200313D01*
X140137500Y-82200311D01*
X140074689Y-82137500D01*
X140072129Y-82133669D01*
X140025329Y-82063629D01*
X140025327Y-82063625D01*
X139991331Y-81981552D01*
X139974000Y-81894421D01*
X139974000Y-81805579D01*
X139991331Y-81718448D01*
X140025327Y-81636375D01*
X140025328Y-81636374D01*
X140025329Y-81636371D01*
X140074686Y-81562504D01*
X140074687Y-81562503D01*
X140074689Y-81562500D01*
X140137500Y-81499689D01*
X140137504Y-81499686D01*
X140211371Y-81450329D01*
X140211374Y-81450328D01*
X140211375Y-81450327D01*
X140293448Y-81416331D01*
X140380579Y-81399000D01*
X140469421Y-81399000D01*
X140556552Y-81416331D01*
X140556552Y-81416331D01*
G37*
G36*
X123256552Y-81291331D02*
X123338625Y-81325327D01*
X123338626Y-81325328D01*
X123338629Y-81325329D01*
X123412496Y-81374686D01*
X123412500Y-81374689D01*
X123475311Y-81437500D01*
X123475313Y-81437503D01*
X123475314Y-81437504D01*
X123524671Y-81511371D01*
X123524672Y-81511374D01*
X123524673Y-81511375D01*
X123558669Y-81593448D01*
X123576000Y-81680579D01*
X123576000Y-81769421D01*
X123558669Y-81856552D01*
X123525139Y-81937500D01*
X123524671Y-81938629D01*
X123475314Y-82012496D01*
X123475311Y-82012500D01*
X123412500Y-82075311D01*
X123412497Y-82075313D01*
X123412496Y-82075314D01*
X123338629Y-82124671D01*
X123338626Y-82124672D01*
X123338625Y-82124673D01*
X123256552Y-82158669D01*
X123169421Y-82176000D01*
X123080579Y-82176000D01*
X122993448Y-82158669D01*
X122911375Y-82124673D01*
X122911374Y-82124672D01*
X122911371Y-82124671D01*
X122837504Y-82075314D01*
X122837503Y-82075313D01*
X122837500Y-82075311D01*
X122774689Y-82012500D01*
X122774686Y-82012496D01*
X122725329Y-81938629D01*
X122724861Y-81937500D01*
X122691331Y-81856552D01*
X122674000Y-81769421D01*
X122674000Y-81680579D01*
X122691331Y-81593448D01*
X122725327Y-81511375D01*
X122725328Y-81511374D01*
X122725329Y-81511371D01*
X122774686Y-81437504D01*
X122774687Y-81437503D01*
X122774689Y-81437500D01*
X122837500Y-81374689D01*
X122837504Y-81374686D01*
X122911371Y-81325329D01*
X122911374Y-81325328D01*
X122911375Y-81325327D01*
X122993448Y-81291331D01*
X123080579Y-81274000D01*
X123169421Y-81274000D01*
X123256552Y-81291331D01*
X123256552Y-81291331D01*
G37*
G36*
X120906552Y-81266331D02*
X120988625Y-81300327D01*
X120988626Y-81300328D01*
X120988629Y-81300329D01*
X121062496Y-81349686D01*
X121062500Y-81349689D01*
X121125311Y-81412500D01*
X121125313Y-81412503D01*
X121125314Y-81412504D01*
X121174671Y-81486371D01*
X121174672Y-81486374D01*
X121174673Y-81486375D01*
X121208669Y-81568448D01*
X121226000Y-81655579D01*
X121226000Y-81744421D01*
X121208669Y-81831552D01*
X121179101Y-81902934D01*
X121174671Y-81913629D01*
X121125314Y-81987496D01*
X121125311Y-81987500D01*
X121062500Y-82050311D01*
X121062497Y-82050313D01*
X121062496Y-82050314D01*
X120988629Y-82099671D01*
X120988626Y-82099672D01*
X120988625Y-82099673D01*
X120906552Y-82133669D01*
X120819421Y-82151000D01*
X120730579Y-82151000D01*
X120643448Y-82133669D01*
X120561375Y-82099673D01*
X120561374Y-82099672D01*
X120561371Y-82099671D01*
X120487504Y-82050314D01*
X120487503Y-82050313D01*
X120487500Y-82050311D01*
X120424689Y-81987500D01*
X120424686Y-81987496D01*
X120375329Y-81913629D01*
X120370899Y-81902934D01*
X120341331Y-81831552D01*
X120324000Y-81744421D01*
X120324000Y-81655579D01*
X120341331Y-81568448D01*
X120375327Y-81486375D01*
X120375328Y-81486374D01*
X120375329Y-81486371D01*
X120424686Y-81412504D01*
X120424687Y-81412503D01*
X120424689Y-81412500D01*
X120487500Y-81349689D01*
X120487504Y-81349686D01*
X120561371Y-81300329D01*
X120561374Y-81300328D01*
X120561375Y-81300327D01*
X120643448Y-81266331D01*
X120730579Y-81249000D01*
X120819421Y-81249000D01*
X120906552Y-81266331D01*
X120906552Y-81266331D01*
G37*
G36*
X127606552Y-81266331D02*
X127688625Y-81300327D01*
X127688626Y-81300328D01*
X127688629Y-81300329D01*
X127762496Y-81349686D01*
X127762500Y-81349689D01*
X127825311Y-81412500D01*
X127825313Y-81412503D01*
X127825314Y-81412504D01*
X127874671Y-81486371D01*
X127874672Y-81486374D01*
X127874673Y-81486375D01*
X127908669Y-81568448D01*
X127926000Y-81655579D01*
X127926000Y-81744421D01*
X127908669Y-81831552D01*
X127879101Y-81902934D01*
X127874671Y-81913629D01*
X127825314Y-81987496D01*
X127825311Y-81987500D01*
X127762500Y-82050311D01*
X127762497Y-82050313D01*
X127762496Y-82050314D01*
X127688629Y-82099671D01*
X127688626Y-82099672D01*
X127688625Y-82099673D01*
X127606552Y-82133669D01*
X127519421Y-82151000D01*
X127430579Y-82151000D01*
X127343448Y-82133669D01*
X127261375Y-82099673D01*
X127261374Y-82099672D01*
X127261371Y-82099671D01*
X127187504Y-82050314D01*
X127187503Y-82050313D01*
X127187500Y-82050311D01*
X127124689Y-81987500D01*
X127124686Y-81987496D01*
X127075329Y-81913629D01*
X127070899Y-81902934D01*
X127041331Y-81831552D01*
X127024000Y-81744421D01*
X127024000Y-81655579D01*
X127041331Y-81568448D01*
X127075327Y-81486375D01*
X127075328Y-81486374D01*
X127075329Y-81486371D01*
X127124686Y-81412504D01*
X127124687Y-81412503D01*
X127124689Y-81412500D01*
X127187500Y-81349689D01*
X127187504Y-81349686D01*
X127261371Y-81300329D01*
X127261374Y-81300328D01*
X127261375Y-81300327D01*
X127343448Y-81266331D01*
X127430579Y-81249000D01*
X127519421Y-81249000D01*
X127606552Y-81266331D01*
X127606552Y-81266331D01*
G37*
G36*
X125381552Y-81266331D02*
X125463625Y-81300327D01*
X125463626Y-81300328D01*
X125463629Y-81300329D01*
X125537496Y-81349686D01*
X125537500Y-81349689D01*
X125600311Y-81412500D01*
X125600313Y-81412503D01*
X125600314Y-81412504D01*
X125649671Y-81486371D01*
X125649672Y-81486374D01*
X125649673Y-81486375D01*
X125683669Y-81568448D01*
X125701000Y-81655579D01*
X125701000Y-81744421D01*
X125683669Y-81831552D01*
X125654101Y-81902934D01*
X125649671Y-81913629D01*
X125600314Y-81987496D01*
X125600311Y-81987500D01*
X125537500Y-82050311D01*
X125537497Y-82050313D01*
X125537496Y-82050314D01*
X125463629Y-82099671D01*
X125463626Y-82099672D01*
X125463625Y-82099673D01*
X125381552Y-82133669D01*
X125294421Y-82151000D01*
X125205579Y-82151000D01*
X125118448Y-82133669D01*
X125036375Y-82099673D01*
X125036374Y-82099672D01*
X125036371Y-82099671D01*
X124962504Y-82050314D01*
X124962503Y-82050313D01*
X124962500Y-82050311D01*
X124899689Y-81987500D01*
X124899686Y-81987496D01*
X124850329Y-81913629D01*
X124845899Y-81902934D01*
X124816331Y-81831552D01*
X124799000Y-81744421D01*
X124799000Y-81655579D01*
X124816331Y-81568448D01*
X124850327Y-81486375D01*
X124850328Y-81486374D01*
X124850329Y-81486371D01*
X124899686Y-81412504D01*
X124899687Y-81412503D01*
X124899689Y-81412500D01*
X124962500Y-81349689D01*
X124962504Y-81349686D01*
X125036371Y-81300329D01*
X125036374Y-81300328D01*
X125036375Y-81300327D01*
X125118448Y-81266331D01*
X125205579Y-81249000D01*
X125294421Y-81249000D01*
X125381552Y-81266331D01*
X125381552Y-81266331D01*
G37*
G36*
X116181552Y-81241331D02*
X116263625Y-81275327D01*
X116263626Y-81275328D01*
X116263629Y-81275329D01*
X116337496Y-81324686D01*
X116337500Y-81324689D01*
X116400311Y-81387500D01*
X116400313Y-81387503D01*
X116400314Y-81387504D01*
X116449671Y-81461371D01*
X116449672Y-81461374D01*
X116449673Y-81461375D01*
X116483669Y-81543448D01*
X116501000Y-81630579D01*
X116501000Y-81719421D01*
X116483669Y-81806552D01*
X116450185Y-81887388D01*
X116449671Y-81888629D01*
X116402871Y-81958669D01*
X116400311Y-81962500D01*
X116337500Y-82025311D01*
X116337497Y-82025313D01*
X116337496Y-82025314D01*
X116263629Y-82074671D01*
X116263626Y-82074672D01*
X116263625Y-82074673D01*
X116181552Y-82108669D01*
X116094421Y-82126000D01*
X116005579Y-82126000D01*
X115918448Y-82108669D01*
X115836375Y-82074673D01*
X115836374Y-82074672D01*
X115836371Y-82074671D01*
X115762504Y-82025314D01*
X115762503Y-82025313D01*
X115762500Y-82025311D01*
X115699689Y-81962500D01*
X115697129Y-81958669D01*
X115650329Y-81888629D01*
X115649815Y-81887388D01*
X115616331Y-81806552D01*
X115599000Y-81719421D01*
X115599000Y-81630579D01*
X115616331Y-81543448D01*
X115650327Y-81461375D01*
X115650328Y-81461374D01*
X115650329Y-81461371D01*
X115699686Y-81387504D01*
X115699687Y-81387503D01*
X115699689Y-81387500D01*
X115762500Y-81324689D01*
X115762504Y-81324686D01*
X115836371Y-81275329D01*
X115836374Y-81275328D01*
X115836375Y-81275327D01*
X115918448Y-81241331D01*
X116005579Y-81224000D01*
X116094421Y-81224000D01*
X116181552Y-81241331D01*
X116181552Y-81241331D01*
G37*
G36*
X118481552Y-81216331D02*
X118563625Y-81250327D01*
X118563626Y-81250328D01*
X118563629Y-81250329D01*
X118637496Y-81299686D01*
X118637500Y-81299689D01*
X118700311Y-81362500D01*
X118700313Y-81362503D01*
X118700314Y-81362504D01*
X118749671Y-81436371D01*
X118749672Y-81436374D01*
X118749673Y-81436375D01*
X118783669Y-81518448D01*
X118801000Y-81605579D01*
X118801000Y-81694421D01*
X118783669Y-81781552D01*
X118749673Y-81863625D01*
X118749671Y-81863629D01*
X118708882Y-81924673D01*
X118700311Y-81937500D01*
X118637500Y-82000311D01*
X118637497Y-82000313D01*
X118637496Y-82000314D01*
X118563629Y-82049671D01*
X118563626Y-82049672D01*
X118563625Y-82049673D01*
X118481552Y-82083669D01*
X118394421Y-82101000D01*
X118305579Y-82101000D01*
X118218448Y-82083669D01*
X118136375Y-82049673D01*
X118136374Y-82049672D01*
X118136371Y-82049671D01*
X118062504Y-82000314D01*
X118062503Y-82000313D01*
X118062500Y-82000311D01*
X117999689Y-81937500D01*
X117991118Y-81924673D01*
X117950329Y-81863629D01*
X117950327Y-81863625D01*
X117916331Y-81781552D01*
X117899000Y-81694421D01*
X117899000Y-81605579D01*
X117916331Y-81518448D01*
X117950327Y-81436375D01*
X117950328Y-81436374D01*
X117950329Y-81436371D01*
X117999686Y-81362504D01*
X117999687Y-81362503D01*
X117999689Y-81362500D01*
X118062500Y-81299689D01*
X118062504Y-81299686D01*
X118136371Y-81250329D01*
X118136374Y-81250328D01*
X118136375Y-81250327D01*
X118218448Y-81216331D01*
X118305579Y-81199000D01*
X118394421Y-81199000D01*
X118481552Y-81216331D01*
X118481552Y-81216331D01*
G37*
G36*
X129706552Y-81091331D02*
X129788625Y-81125327D01*
X129788626Y-81125328D01*
X129788629Y-81125329D01*
X129838525Y-81158669D01*
X129862500Y-81174689D01*
X129925311Y-81237500D01*
X129925313Y-81237503D01*
X129925314Y-81237504D01*
X129974671Y-81311371D01*
X129974672Y-81311374D01*
X129974673Y-81311375D01*
X130008669Y-81393448D01*
X130026000Y-81480579D01*
X130026000Y-81569421D01*
X130008669Y-81656552D01*
X129974673Y-81738625D01*
X129974671Y-81738629D01*
X129925314Y-81812496D01*
X129925311Y-81812500D01*
X129862500Y-81875311D01*
X129862497Y-81875313D01*
X129862496Y-81875314D01*
X129788629Y-81924671D01*
X129788626Y-81924672D01*
X129788625Y-81924673D01*
X129706552Y-81958669D01*
X129619421Y-81976000D01*
X129530579Y-81976000D01*
X129443448Y-81958669D01*
X129361375Y-81924673D01*
X129361374Y-81924672D01*
X129361371Y-81924671D01*
X129287504Y-81875314D01*
X129287503Y-81875313D01*
X129287500Y-81875311D01*
X129224689Y-81812500D01*
X129224686Y-81812496D01*
X129175329Y-81738629D01*
X129175327Y-81738625D01*
X129141331Y-81656552D01*
X129124000Y-81569421D01*
X129124000Y-81480579D01*
X129141331Y-81393448D01*
X129175327Y-81311375D01*
X129175328Y-81311374D01*
X129175329Y-81311371D01*
X129224686Y-81237504D01*
X129224687Y-81237503D01*
X129224689Y-81237500D01*
X129287500Y-81174689D01*
X129311475Y-81158669D01*
X129361371Y-81125329D01*
X129361374Y-81125328D01*
X129361375Y-81125327D01*
X129443448Y-81091331D01*
X129530579Y-81074000D01*
X129619421Y-81074000D01*
X129706552Y-81091331D01*
X129706552Y-81091331D01*
G37*
G36*
X136256552Y-80541331D02*
X136338625Y-80575327D01*
X136338626Y-80575328D01*
X136338629Y-80575329D01*
X136412496Y-80624686D01*
X136412500Y-80624689D01*
X136475311Y-80687500D01*
X136475313Y-80687503D01*
X136475314Y-80687504D01*
X136524671Y-80761371D01*
X136524672Y-80761374D01*
X136524673Y-80761375D01*
X136558669Y-80843448D01*
X136576000Y-80930579D01*
X136576000Y-81019421D01*
X136558669Y-81106552D01*
X136529902Y-81176000D01*
X136524671Y-81188629D01*
X136475314Y-81262496D01*
X136475311Y-81262500D01*
X136412500Y-81325311D01*
X136412497Y-81325313D01*
X136412496Y-81325314D01*
X136338629Y-81374671D01*
X136338626Y-81374672D01*
X136338625Y-81374673D01*
X136256552Y-81408669D01*
X136169421Y-81426000D01*
X136080579Y-81426000D01*
X135993448Y-81408669D01*
X135911375Y-81374673D01*
X135911374Y-81374672D01*
X135911371Y-81374671D01*
X135837504Y-81325314D01*
X135837503Y-81325313D01*
X135837500Y-81325311D01*
X135774689Y-81262500D01*
X135774686Y-81262496D01*
X135725329Y-81188629D01*
X135720098Y-81176000D01*
X135691331Y-81106552D01*
X135674000Y-81019421D01*
X135674000Y-80930579D01*
X135691331Y-80843448D01*
X135725327Y-80761375D01*
X135725328Y-80761374D01*
X135725329Y-80761371D01*
X135774686Y-80687504D01*
X135774687Y-80687503D01*
X135774689Y-80687500D01*
X135837500Y-80624689D01*
X135837504Y-80624686D01*
X135911371Y-80575329D01*
X135911374Y-80575328D01*
X135911375Y-80575327D01*
X135993448Y-80541331D01*
X136080579Y-80524000D01*
X136169421Y-80524000D01*
X136256552Y-80541331D01*
X136256552Y-80541331D01*
G37*
G36*
X134956552Y-80291331D02*
X135038625Y-80325327D01*
X135038626Y-80325328D01*
X135038629Y-80325329D01*
X135112496Y-80374686D01*
X135112500Y-80374689D01*
X135175311Y-80437500D01*
X135175313Y-80437503D01*
X135175314Y-80437504D01*
X135224671Y-80511371D01*
X135224672Y-80511374D01*
X135224673Y-80511375D01*
X135258669Y-80593448D01*
X135276000Y-80680579D01*
X135276000Y-80769421D01*
X135258669Y-80856552D01*
X135228005Y-80930580D01*
X135224671Y-80938629D01*
X135182995Y-81001000D01*
X135175311Y-81012500D01*
X135112500Y-81075311D01*
X135112497Y-81075313D01*
X135112496Y-81075314D01*
X135038629Y-81124671D01*
X135038626Y-81124672D01*
X135038625Y-81124673D01*
X134956552Y-81158669D01*
X134869421Y-81176000D01*
X134780579Y-81176000D01*
X134693448Y-81158669D01*
X134611375Y-81124673D01*
X134611374Y-81124672D01*
X134611371Y-81124671D01*
X134537504Y-81075314D01*
X134537503Y-81075313D01*
X134537500Y-81075311D01*
X134474689Y-81012500D01*
X134467005Y-81001000D01*
X134425329Y-80938629D01*
X134421995Y-80930580D01*
X134391331Y-80856552D01*
X134374000Y-80769421D01*
X134374000Y-80680579D01*
X134391331Y-80593448D01*
X134425327Y-80511375D01*
X134425328Y-80511374D01*
X134425329Y-80511371D01*
X134474686Y-80437504D01*
X134474687Y-80437503D01*
X134474689Y-80437500D01*
X134537500Y-80374689D01*
X134537504Y-80374686D01*
X134611371Y-80325329D01*
X134611374Y-80325328D01*
X134611375Y-80325327D01*
X134693448Y-80291331D01*
X134780579Y-80274000D01*
X134869421Y-80274000D01*
X134956552Y-80291331D01*
X134956552Y-80291331D01*
G37*
G36*
X133631552Y-80116331D02*
X133713625Y-80150327D01*
X133713626Y-80150328D01*
X133713629Y-80150329D01*
X133787496Y-80199686D01*
X133787500Y-80199689D01*
X133850311Y-80262500D01*
X133850313Y-80262503D01*
X133850314Y-80262504D01*
X133899671Y-80336371D01*
X133899672Y-80336374D01*
X133899673Y-80336375D01*
X133933669Y-80418448D01*
X133951000Y-80505579D01*
X133951000Y-80594421D01*
X133933669Y-80681552D01*
X133900605Y-80761375D01*
X133899671Y-80763629D01*
X133850314Y-80837496D01*
X133850311Y-80837500D01*
X133787500Y-80900311D01*
X133787497Y-80900313D01*
X133787496Y-80900314D01*
X133713629Y-80949671D01*
X133713626Y-80949672D01*
X133713625Y-80949673D01*
X133631552Y-80983669D01*
X133544421Y-81001000D01*
X133455579Y-81001000D01*
X133368448Y-80983669D01*
X133286375Y-80949673D01*
X133286374Y-80949672D01*
X133286371Y-80949671D01*
X133212504Y-80900314D01*
X133212503Y-80900313D01*
X133212500Y-80900311D01*
X133149689Y-80837500D01*
X133149686Y-80837496D01*
X133100329Y-80763629D01*
X133099395Y-80761375D01*
X133066331Y-80681552D01*
X133049000Y-80594421D01*
X133049000Y-80505579D01*
X133066331Y-80418448D01*
X133100327Y-80336375D01*
X133100328Y-80336374D01*
X133100329Y-80336371D01*
X133149686Y-80262504D01*
X133149687Y-80262503D01*
X133149689Y-80262500D01*
X133212500Y-80199689D01*
X133212504Y-80199686D01*
X133286371Y-80150329D01*
X133286374Y-80150328D01*
X133286375Y-80150327D01*
X133368448Y-80116331D01*
X133455579Y-80099000D01*
X133544421Y-80099000D01*
X133631552Y-80116331D01*
X133631552Y-80116331D01*
G37*
G36*
X141201000Y-80376000D02*
X139599000Y-80376000D01*
X139599000Y-78774000D01*
X141201000Y-78774000D01*
X141201000Y-80376000D01*
X141201000Y-80376000D01*
G37*
G36*
X136975000Y-78850000D02*
X136970590Y-78850409D01*
X136965952Y-78854052D01*
X136948258Y-78871005D01*
X136934211Y-78891083D01*
X136924352Y-78913516D01*
X136919058Y-78937442D01*
X136918533Y-78961941D01*
X136922798Y-78986071D01*
X136931689Y-79008905D01*
X136944863Y-79029567D01*
X136961816Y-79047261D01*
X136981894Y-79061308D01*
X137004327Y-79071167D01*
X137028253Y-79076461D01*
X137054336Y-79076854D01*
X137062737Y-79076100D01*
X137062740Y-79076100D01*
X137075000Y-79075000D01*
X137074602Y-79090929D01*
X137074602Y-79090930D01*
X137051243Y-80025311D01*
X137050000Y-80075000D01*
X137035500Y-80073597D01*
X137035498Y-80073597D01*
X133187255Y-79701186D01*
X133175000Y-79700000D01*
X133175000Y-79425000D01*
X133179994Y-79424552D01*
X133181474Y-79423563D01*
X133192230Y-79419767D01*
X133213302Y-79407261D01*
X133231530Y-79390884D01*
X133246213Y-79371265D01*
X133256786Y-79349159D01*
X133262843Y-79325416D01*
X133264152Y-79300946D01*
X133260662Y-79276692D01*
X133252507Y-79253584D01*
X133240001Y-79232512D01*
X133223624Y-79214284D01*
X133203147Y-79199708D01*
X133200000Y-79200000D01*
X133175000Y-78875000D01*
X136950000Y-78525000D01*
X136975000Y-78850000D01*
X136975000Y-78850000D01*
G37*
G36*
X142856552Y-79066331D02*
X142938625Y-79100327D01*
X142938626Y-79100328D01*
X142938629Y-79100329D01*
X143012496Y-79149686D01*
X143012500Y-79149689D01*
X143075311Y-79212500D01*
X143075313Y-79212503D01*
X143075314Y-79212504D01*
X143124671Y-79286371D01*
X143124672Y-79286374D01*
X143124673Y-79286375D01*
X143158669Y-79368448D01*
X143176000Y-79455579D01*
X143176000Y-79544421D01*
X143158669Y-79631552D01*
X143125139Y-79712500D01*
X143124671Y-79713629D01*
X143075314Y-79787496D01*
X143075311Y-79787500D01*
X143012500Y-79850311D01*
X143012497Y-79850313D01*
X143012496Y-79850314D01*
X142938629Y-79899671D01*
X142938626Y-79899672D01*
X142938625Y-79899673D01*
X142856552Y-79933669D01*
X142769421Y-79951000D01*
X142680579Y-79951000D01*
X142593448Y-79933669D01*
X142511375Y-79899673D01*
X142511374Y-79899672D01*
X142511371Y-79899671D01*
X142437504Y-79850314D01*
X142437503Y-79850313D01*
X142437500Y-79850311D01*
X142374689Y-79787500D01*
X142374686Y-79787496D01*
X142325329Y-79713629D01*
X142324861Y-79712500D01*
X142291331Y-79631552D01*
X142274000Y-79544421D01*
X142274000Y-79455579D01*
X142291331Y-79368448D01*
X142325327Y-79286375D01*
X142325328Y-79286374D01*
X142325329Y-79286371D01*
X142374686Y-79212504D01*
X142374687Y-79212503D01*
X142374689Y-79212500D01*
X142437500Y-79149689D01*
X142437504Y-79149686D01*
X142511371Y-79100329D01*
X142511374Y-79100328D01*
X142511375Y-79100327D01*
X142593448Y-79066331D01*
X142680579Y-79049000D01*
X142769421Y-79049000D01*
X142856552Y-79066331D01*
X142856552Y-79066331D01*
G37*
G36*
X118506552Y-78991331D02*
X118588625Y-79025327D01*
X118588626Y-79025328D01*
X118588629Y-79025329D01*
X118662496Y-79074686D01*
X118662500Y-79074689D01*
X118725311Y-79137500D01*
X118725313Y-79137503D01*
X118725314Y-79137504D01*
X118774671Y-79211371D01*
X118774672Y-79211374D01*
X118774673Y-79211375D01*
X118808669Y-79293448D01*
X118826000Y-79380579D01*
X118826000Y-79469421D01*
X118808669Y-79556552D01*
X118774673Y-79638625D01*
X118774671Y-79638629D01*
X118732871Y-79701186D01*
X118725311Y-79712500D01*
X118662500Y-79775311D01*
X118662497Y-79775313D01*
X118662496Y-79775314D01*
X118588629Y-79824671D01*
X118588626Y-79824672D01*
X118588625Y-79824673D01*
X118506552Y-79858669D01*
X118419421Y-79876000D01*
X118330579Y-79876000D01*
X118243448Y-79858669D01*
X118161375Y-79824673D01*
X118161374Y-79824672D01*
X118161371Y-79824671D01*
X118087504Y-79775314D01*
X118087503Y-79775313D01*
X118087500Y-79775311D01*
X118024689Y-79712500D01*
X118017129Y-79701186D01*
X117975329Y-79638629D01*
X117975327Y-79638625D01*
X117941331Y-79556552D01*
X117924000Y-79469421D01*
X117924000Y-79380579D01*
X117941331Y-79293448D01*
X117975327Y-79211375D01*
X117975328Y-79211374D01*
X117975329Y-79211371D01*
X118024686Y-79137504D01*
X118024687Y-79137503D01*
X118024689Y-79137500D01*
X118087500Y-79074689D01*
X118087504Y-79074686D01*
X118161371Y-79025329D01*
X118161374Y-79025328D01*
X118161375Y-79025327D01*
X118243448Y-78991331D01*
X118330579Y-78974000D01*
X118419421Y-78974000D01*
X118506552Y-78991331D01*
X118506552Y-78991331D01*
G37*
G36*
X116181552Y-78966331D02*
X116263625Y-79000327D01*
X116263626Y-79000328D01*
X116263629Y-79000329D01*
X116336469Y-79049000D01*
X116337500Y-79049689D01*
X116400311Y-79112500D01*
X116400313Y-79112503D01*
X116400314Y-79112504D01*
X116449671Y-79186371D01*
X116449672Y-79186374D01*
X116449673Y-79186375D01*
X116483669Y-79268448D01*
X116501000Y-79355579D01*
X116501000Y-79444421D01*
X116483669Y-79531552D01*
X116449673Y-79613625D01*
X116449671Y-79613629D01*
X116432966Y-79638629D01*
X116400311Y-79687500D01*
X116337500Y-79750311D01*
X116337497Y-79750313D01*
X116337496Y-79750314D01*
X116263629Y-79799671D01*
X116263626Y-79799672D01*
X116263625Y-79799673D01*
X116181552Y-79833669D01*
X116094421Y-79851000D01*
X116005579Y-79851000D01*
X115918448Y-79833669D01*
X115836375Y-79799673D01*
X115836374Y-79799672D01*
X115836371Y-79799671D01*
X115762504Y-79750314D01*
X115762503Y-79750313D01*
X115762500Y-79750311D01*
X115699689Y-79687500D01*
X115667034Y-79638629D01*
X115650329Y-79613629D01*
X115650327Y-79613625D01*
X115616331Y-79531552D01*
X115599000Y-79444421D01*
X115599000Y-79355579D01*
X115616331Y-79268448D01*
X115650327Y-79186375D01*
X115650328Y-79186374D01*
X115650329Y-79186371D01*
X115699686Y-79112504D01*
X115699687Y-79112503D01*
X115699689Y-79112500D01*
X115762500Y-79049689D01*
X115763531Y-79049000D01*
X115836371Y-79000329D01*
X115836374Y-79000328D01*
X115836375Y-79000327D01*
X115918448Y-78966331D01*
X116005579Y-78949000D01*
X116094421Y-78949000D01*
X116181552Y-78966331D01*
X116181552Y-78966331D01*
G37*
G36*
X132181552Y-78191331D02*
X132263625Y-78225327D01*
X132263626Y-78225328D01*
X132263629Y-78225329D01*
X132337496Y-78274686D01*
X132337500Y-78274689D01*
X132400311Y-78337500D01*
X132400313Y-78337503D01*
X132400314Y-78337504D01*
X132449671Y-78411371D01*
X132449672Y-78411374D01*
X132449673Y-78411375D01*
X132483669Y-78493448D01*
X132501000Y-78580579D01*
X132501000Y-78669421D01*
X132483669Y-78756552D01*
X132449673Y-78838625D01*
X132449671Y-78838629D01*
X132400314Y-78912496D01*
X132400311Y-78912500D01*
X132337500Y-78975311D01*
X132337497Y-78975313D01*
X132337496Y-78975314D01*
X132263629Y-79024671D01*
X132263626Y-79024672D01*
X132263625Y-79024673D01*
X132181552Y-79058669D01*
X132094421Y-79076000D01*
X132005579Y-79076000D01*
X131918448Y-79058669D01*
X131836375Y-79024673D01*
X131836374Y-79024672D01*
X131836371Y-79024671D01*
X131762504Y-78975314D01*
X131762503Y-78975313D01*
X131762500Y-78975311D01*
X131699689Y-78912500D01*
X131699686Y-78912496D01*
X131650329Y-78838629D01*
X131650327Y-78838625D01*
X131616331Y-78756552D01*
X131599000Y-78669421D01*
X131599000Y-78580579D01*
X131616331Y-78493448D01*
X131650327Y-78411375D01*
X131650328Y-78411374D01*
X131650329Y-78411371D01*
X131699686Y-78337504D01*
X131699687Y-78337503D01*
X131699689Y-78337500D01*
X131762500Y-78274689D01*
X131762504Y-78274686D01*
X131836371Y-78225329D01*
X131836374Y-78225328D01*
X131836375Y-78225327D01*
X131918448Y-78191331D01*
X132005579Y-78174000D01*
X132094421Y-78174000D01*
X132181552Y-78191331D01*
X132181552Y-78191331D01*
G37*
G36*
X129781552Y-77691331D02*
X129863625Y-77725327D01*
X129863626Y-77725328D01*
X129863629Y-77725329D01*
X129920942Y-77763625D01*
X129937500Y-77774689D01*
X130000311Y-77837500D01*
X130000313Y-77837503D01*
X130000314Y-77837504D01*
X130049671Y-77911371D01*
X130049672Y-77911374D01*
X130049673Y-77911375D01*
X130083669Y-77993448D01*
X130101000Y-78080579D01*
X130101000Y-78169421D01*
X130083669Y-78256552D01*
X130050139Y-78337500D01*
X130049671Y-78338629D01*
X130001063Y-78411375D01*
X130000311Y-78412500D01*
X129937500Y-78475311D01*
X129937497Y-78475313D01*
X129937496Y-78475314D01*
X129863629Y-78524671D01*
X129863626Y-78524672D01*
X129863625Y-78524673D01*
X129781552Y-78558669D01*
X129694421Y-78576000D01*
X129605579Y-78576000D01*
X129518448Y-78558669D01*
X129436375Y-78524673D01*
X129436374Y-78524672D01*
X129436371Y-78524671D01*
X129362504Y-78475314D01*
X129362503Y-78475313D01*
X129362500Y-78475311D01*
X129299689Y-78412500D01*
X129298937Y-78411375D01*
X129250329Y-78338629D01*
X129249861Y-78337500D01*
X129216331Y-78256552D01*
X129199000Y-78169421D01*
X129199000Y-78080579D01*
X129216331Y-77993448D01*
X129250327Y-77911375D01*
X129250328Y-77911374D01*
X129250329Y-77911371D01*
X129299686Y-77837504D01*
X129299687Y-77837503D01*
X129299689Y-77837500D01*
X129362500Y-77774689D01*
X129379058Y-77763625D01*
X129436371Y-77725329D01*
X129436374Y-77725328D01*
X129436375Y-77725327D01*
X129518448Y-77691331D01*
X129605579Y-77674000D01*
X129694421Y-77674000D01*
X129781552Y-77691331D01*
X129781552Y-77691331D01*
G37*
G36*
X139026000Y-78201000D02*
X137024000Y-78201000D01*
X137024000Y-76199000D01*
X139026000Y-76199000D01*
X139026000Y-78201000D01*
X139026000Y-78201000D01*
G37*
G36*
X143776000Y-78201000D02*
X141774000Y-78201000D01*
X141774000Y-76199000D01*
X143776000Y-76199000D01*
X143776000Y-78201000D01*
X143776000Y-78201000D01*
G37*
G36*
X136081552Y-77141331D02*
X136163625Y-77175327D01*
X136163626Y-77175328D01*
X136163629Y-77175329D01*
X136237496Y-77224686D01*
X136237500Y-77224689D01*
X136300311Y-77287500D01*
X136300313Y-77287503D01*
X136300314Y-77287504D01*
X136349671Y-77361371D01*
X136349672Y-77361374D01*
X136349673Y-77361375D01*
X136383669Y-77443448D01*
X136401000Y-77530579D01*
X136401000Y-77619421D01*
X136383669Y-77706552D01*
X136349673Y-77788625D01*
X136349671Y-77788629D01*
X136317016Y-77837500D01*
X136300311Y-77862500D01*
X136237500Y-77925311D01*
X136237497Y-77925313D01*
X136237496Y-77925314D01*
X136163629Y-77974671D01*
X136163626Y-77974672D01*
X136163625Y-77974673D01*
X136081552Y-78008669D01*
X135994421Y-78026000D01*
X135905579Y-78026000D01*
X135818448Y-78008669D01*
X135736375Y-77974673D01*
X135736374Y-77974672D01*
X135736371Y-77974671D01*
X135662504Y-77925314D01*
X135662503Y-77925313D01*
X135662500Y-77925311D01*
X135599689Y-77862500D01*
X135582984Y-77837500D01*
X135550329Y-77788629D01*
X135550327Y-77788625D01*
X135516331Y-77706552D01*
X135499000Y-77619421D01*
X135499000Y-77530579D01*
X135516331Y-77443448D01*
X135550327Y-77361375D01*
X135550328Y-77361374D01*
X135550329Y-77361371D01*
X135599686Y-77287504D01*
X135599687Y-77287503D01*
X135599689Y-77287500D01*
X135662500Y-77224689D01*
X135662504Y-77224686D01*
X135736371Y-77175329D01*
X135736374Y-77175328D01*
X135736375Y-77175327D01*
X135818448Y-77141331D01*
X135905579Y-77124000D01*
X135994421Y-77124000D01*
X136081552Y-77141331D01*
X136081552Y-77141331D01*
G37*
G36*
X134581552Y-77116331D02*
X134663625Y-77150327D01*
X134663626Y-77150328D01*
X134663629Y-77150329D01*
X134708902Y-77180580D01*
X134737500Y-77199689D01*
X134800311Y-77262500D01*
X134800313Y-77262503D01*
X134800314Y-77262504D01*
X134849671Y-77336371D01*
X134849672Y-77336374D01*
X134849673Y-77336375D01*
X134883669Y-77418448D01*
X134901000Y-77505579D01*
X134901000Y-77594421D01*
X134883669Y-77681552D01*
X134849673Y-77763625D01*
X134849671Y-77763629D01*
X134817016Y-77812500D01*
X134800311Y-77837500D01*
X134737500Y-77900311D01*
X134737497Y-77900313D01*
X134737496Y-77900314D01*
X134663629Y-77949671D01*
X134663626Y-77949672D01*
X134663625Y-77949673D01*
X134581552Y-77983669D01*
X134494421Y-78001000D01*
X134405579Y-78001000D01*
X134318448Y-77983669D01*
X134236375Y-77949673D01*
X134236374Y-77949672D01*
X134236371Y-77949671D01*
X134162504Y-77900314D01*
X134162503Y-77900313D01*
X134162500Y-77900311D01*
X134099689Y-77837500D01*
X134082984Y-77812500D01*
X134050329Y-77763629D01*
X134050327Y-77763625D01*
X134016331Y-77681552D01*
X133999000Y-77594421D01*
X133999000Y-77505579D01*
X134016331Y-77418448D01*
X134050327Y-77336375D01*
X134050328Y-77336374D01*
X134050329Y-77336371D01*
X134099686Y-77262504D01*
X134099687Y-77262503D01*
X134099689Y-77262500D01*
X134162500Y-77199689D01*
X134191098Y-77180580D01*
X134236371Y-77150329D01*
X134236374Y-77150328D01*
X134236375Y-77150327D01*
X134318448Y-77116331D01*
X134405579Y-77099000D01*
X134494421Y-77099000D01*
X134581552Y-77116331D01*
X134581552Y-77116331D01*
G37*
G36*
X133306552Y-77091331D02*
X133388625Y-77125327D01*
X133388626Y-77125328D01*
X133388629Y-77125329D01*
X133462496Y-77174686D01*
X133462500Y-77174689D01*
X133525311Y-77237500D01*
X133525313Y-77237503D01*
X133525314Y-77237504D01*
X133574671Y-77311371D01*
X133574672Y-77311374D01*
X133574673Y-77311375D01*
X133608669Y-77393448D01*
X133626000Y-77480579D01*
X133626000Y-77569421D01*
X133608669Y-77656552D01*
X133587958Y-77706552D01*
X133574671Y-77738629D01*
X133525314Y-77812496D01*
X133525311Y-77812500D01*
X133462500Y-77875311D01*
X133462497Y-77875313D01*
X133462496Y-77875314D01*
X133388629Y-77924671D01*
X133388626Y-77924672D01*
X133388625Y-77924673D01*
X133306552Y-77958669D01*
X133219421Y-77976000D01*
X133130579Y-77976000D01*
X133043448Y-77958669D01*
X132961375Y-77924673D01*
X132961374Y-77924672D01*
X132961371Y-77924671D01*
X132887504Y-77875314D01*
X132887503Y-77875313D01*
X132887500Y-77875311D01*
X132824689Y-77812500D01*
X132824686Y-77812496D01*
X132775329Y-77738629D01*
X132762042Y-77706552D01*
X132741331Y-77656552D01*
X132724000Y-77569421D01*
X132724000Y-77480579D01*
X132741331Y-77393448D01*
X132775327Y-77311375D01*
X132775328Y-77311374D01*
X132775329Y-77311371D01*
X132824686Y-77237504D01*
X132824687Y-77237503D01*
X132824689Y-77237500D01*
X132887500Y-77174689D01*
X132887504Y-77174686D01*
X132961371Y-77125329D01*
X132961374Y-77125328D01*
X132961375Y-77125327D01*
X133043448Y-77091331D01*
X133130579Y-77074000D01*
X133219421Y-77074000D01*
X133306552Y-77091331D01*
X133306552Y-77091331D01*
G37*
G36*
X140456552Y-76791331D02*
X140538625Y-76825327D01*
X140538626Y-76825328D01*
X140538629Y-76825329D01*
X140612496Y-76874686D01*
X140612500Y-76874689D01*
X140675311Y-76937500D01*
X140675313Y-76937503D01*
X140675314Y-76937504D01*
X140724671Y-77011371D01*
X140724672Y-77011374D01*
X140724673Y-77011375D01*
X140758669Y-77093448D01*
X140776000Y-77180579D01*
X140776000Y-77269421D01*
X140758669Y-77356552D01*
X140724673Y-77438625D01*
X140724671Y-77438629D01*
X140679935Y-77505580D01*
X140675311Y-77512500D01*
X140612500Y-77575311D01*
X140612497Y-77575313D01*
X140612496Y-77575314D01*
X140538629Y-77624671D01*
X140538626Y-77624672D01*
X140538625Y-77624673D01*
X140456552Y-77658669D01*
X140369421Y-77676000D01*
X140280579Y-77676000D01*
X140193448Y-77658669D01*
X140111375Y-77624673D01*
X140111374Y-77624672D01*
X140111371Y-77624671D01*
X140037504Y-77575314D01*
X140037503Y-77575313D01*
X140037500Y-77575311D01*
X139974689Y-77512500D01*
X139970065Y-77505580D01*
X139925329Y-77438629D01*
X139925327Y-77438625D01*
X139891331Y-77356552D01*
X139874000Y-77269421D01*
X139874000Y-77180579D01*
X139891331Y-77093448D01*
X139925327Y-77011375D01*
X139925328Y-77011374D01*
X139925329Y-77011371D01*
X139974686Y-76937504D01*
X139974687Y-76937503D01*
X139974689Y-76937500D01*
X140037500Y-76874689D01*
X140037504Y-76874686D01*
X140111371Y-76825329D01*
X140111374Y-76825328D01*
X140111375Y-76825327D01*
X140193448Y-76791331D01*
X140280579Y-76774000D01*
X140369421Y-76774000D01*
X140456552Y-76791331D01*
X140456552Y-76791331D01*
G37*
G36*
X136081552Y-75891331D02*
X136163625Y-75925327D01*
X136163626Y-75925328D01*
X136163629Y-75925329D01*
X136237496Y-75974686D01*
X136237500Y-75974689D01*
X136300311Y-76037500D01*
X136300313Y-76037503D01*
X136300314Y-76037504D01*
X136349671Y-76111371D01*
X136349672Y-76111374D01*
X136349673Y-76111375D01*
X136383669Y-76193448D01*
X136401000Y-76280579D01*
X136401000Y-76369421D01*
X136383669Y-76456552D01*
X136360496Y-76512496D01*
X136349671Y-76538629D01*
X136300314Y-76612496D01*
X136300311Y-76612500D01*
X136237500Y-76675311D01*
X136237497Y-76675313D01*
X136237496Y-76675314D01*
X136163629Y-76724671D01*
X136163626Y-76724672D01*
X136163625Y-76724673D01*
X136081552Y-76758669D01*
X135994421Y-76776000D01*
X135905579Y-76776000D01*
X135818448Y-76758669D01*
X135736375Y-76724673D01*
X135736374Y-76724672D01*
X135736371Y-76724671D01*
X135662504Y-76675314D01*
X135662503Y-76675313D01*
X135662500Y-76675311D01*
X135599689Y-76612500D01*
X135599686Y-76612496D01*
X135550329Y-76538629D01*
X135539504Y-76512496D01*
X135516331Y-76456552D01*
X135499000Y-76369421D01*
X135499000Y-76280579D01*
X135516331Y-76193448D01*
X135550327Y-76111375D01*
X135550328Y-76111374D01*
X135550329Y-76111371D01*
X135599686Y-76037504D01*
X135599687Y-76037503D01*
X135599689Y-76037500D01*
X135662500Y-75974689D01*
X135662504Y-75974686D01*
X135736371Y-75925329D01*
X135736374Y-75925328D01*
X135736375Y-75925327D01*
X135818448Y-75891331D01*
X135905579Y-75874000D01*
X135994421Y-75874000D01*
X136081552Y-75891331D01*
X136081552Y-75891331D01*
G37*
G36*
X133331552Y-75791331D02*
X133413625Y-75825327D01*
X133413626Y-75825328D01*
X133413629Y-75825329D01*
X133486469Y-75874000D01*
X133487500Y-75874689D01*
X133550311Y-75937500D01*
X133550313Y-75937503D01*
X133550314Y-75937504D01*
X133599671Y-76011371D01*
X133599672Y-76011374D01*
X133599673Y-76011375D01*
X133633669Y-76093448D01*
X133651000Y-76180579D01*
X133651000Y-76269421D01*
X133633669Y-76356552D01*
X133628338Y-76369421D01*
X133599671Y-76438629D01*
X133550314Y-76512496D01*
X133550311Y-76512500D01*
X133487500Y-76575311D01*
X133487497Y-76575313D01*
X133487496Y-76575314D01*
X133413629Y-76624671D01*
X133413626Y-76624672D01*
X133413625Y-76624673D01*
X133331552Y-76658669D01*
X133244421Y-76676000D01*
X133155579Y-76676000D01*
X133068448Y-76658669D01*
X132986375Y-76624673D01*
X132986374Y-76624672D01*
X132986371Y-76624671D01*
X132912504Y-76575314D01*
X132912503Y-76575313D01*
X132912500Y-76575311D01*
X132849689Y-76512500D01*
X132849686Y-76512496D01*
X132800329Y-76438629D01*
X132771662Y-76369421D01*
X132766331Y-76356552D01*
X132749000Y-76269421D01*
X132749000Y-76180579D01*
X132766331Y-76093448D01*
X132800327Y-76011375D01*
X132800328Y-76011374D01*
X132800329Y-76011371D01*
X132849686Y-75937504D01*
X132849687Y-75937503D01*
X132849689Y-75937500D01*
X132912500Y-75874689D01*
X132913531Y-75874000D01*
X132986371Y-75825329D01*
X132986374Y-75825328D01*
X132986375Y-75825327D01*
X133068448Y-75791331D01*
X133155579Y-75774000D01*
X133244421Y-75774000D01*
X133331552Y-75791331D01*
X133331552Y-75791331D01*
G37*
G36*
X134606552Y-75791331D02*
X134688625Y-75825327D01*
X134688626Y-75825328D01*
X134688629Y-75825329D01*
X134761469Y-75874000D01*
X134762500Y-75874689D01*
X134825311Y-75937500D01*
X134825313Y-75937503D01*
X134825314Y-75937504D01*
X134874671Y-76011371D01*
X134874672Y-76011374D01*
X134874673Y-76011375D01*
X134908669Y-76093448D01*
X134926000Y-76180579D01*
X134926000Y-76269421D01*
X134908669Y-76356552D01*
X134903338Y-76369421D01*
X134874671Y-76438629D01*
X134825314Y-76512496D01*
X134825311Y-76512500D01*
X134762500Y-76575311D01*
X134762497Y-76575313D01*
X134762496Y-76575314D01*
X134688629Y-76624671D01*
X134688626Y-76624672D01*
X134688625Y-76624673D01*
X134606552Y-76658669D01*
X134519421Y-76676000D01*
X134430579Y-76676000D01*
X134343448Y-76658669D01*
X134261375Y-76624673D01*
X134261374Y-76624672D01*
X134261371Y-76624671D01*
X134187504Y-76575314D01*
X134187503Y-76575313D01*
X134187500Y-76575311D01*
X134124689Y-76512500D01*
X134124686Y-76512496D01*
X134075329Y-76438629D01*
X134046662Y-76369421D01*
X134041331Y-76356552D01*
X134024000Y-76269421D01*
X134024000Y-76180579D01*
X134041331Y-76093448D01*
X134075327Y-76011375D01*
X134075328Y-76011374D01*
X134075329Y-76011371D01*
X134124686Y-75937504D01*
X134124687Y-75937503D01*
X134124689Y-75937500D01*
X134187500Y-75874689D01*
X134188531Y-75874000D01*
X134261371Y-75825329D01*
X134261374Y-75825328D01*
X134261375Y-75825327D01*
X134343448Y-75791331D01*
X134430579Y-75774000D01*
X134519421Y-75774000D01*
X134606552Y-75791331D01*
X134606552Y-75791331D01*
G37*
G36*
X142956552Y-74616331D02*
X143038625Y-74650327D01*
X143038626Y-74650328D01*
X143038629Y-74650329D01*
X143098278Y-74690186D01*
X143112500Y-74699689D01*
X143175311Y-74762500D01*
X143175313Y-74762503D01*
X143175314Y-74762504D01*
X143224671Y-74836371D01*
X143224672Y-74836374D01*
X143224673Y-74836375D01*
X143258669Y-74918448D01*
X143276000Y-75005579D01*
X143276000Y-75094421D01*
X143258669Y-75181552D01*
X143224673Y-75263625D01*
X143224671Y-75263629D01*
X143192016Y-75312500D01*
X143175311Y-75337500D01*
X143112500Y-75400311D01*
X143112497Y-75400313D01*
X143112496Y-75400314D01*
X143038629Y-75449671D01*
X143038626Y-75449672D01*
X143038625Y-75449673D01*
X142956552Y-75483669D01*
X142869421Y-75501000D01*
X142780579Y-75501000D01*
X142693448Y-75483669D01*
X142611375Y-75449673D01*
X142611374Y-75449672D01*
X142611371Y-75449671D01*
X142537504Y-75400314D01*
X142537503Y-75400313D01*
X142537500Y-75400311D01*
X142474689Y-75337500D01*
X142457984Y-75312500D01*
X142425329Y-75263629D01*
X142425327Y-75263625D01*
X142391331Y-75181552D01*
X142374000Y-75094421D01*
X142374000Y-75005579D01*
X142391331Y-74918448D01*
X142425327Y-74836375D01*
X142425328Y-74836374D01*
X142425329Y-74836371D01*
X142474686Y-74762504D01*
X142474687Y-74762503D01*
X142474689Y-74762500D01*
X142537500Y-74699689D01*
X142551722Y-74690186D01*
X142611371Y-74650329D01*
X142611374Y-74650328D01*
X142611375Y-74650327D01*
X142693448Y-74616331D01*
X142780579Y-74599000D01*
X142869421Y-74599000D01*
X142956552Y-74616331D01*
X142956552Y-74616331D01*
G37*
G36*
X137881552Y-74591331D02*
X137963625Y-74625327D01*
X137963626Y-74625328D01*
X137963629Y-74625329D01*
X138037496Y-74674686D01*
X138037500Y-74674689D01*
X138100311Y-74737500D01*
X138100313Y-74737503D01*
X138100314Y-74737504D01*
X138149671Y-74811371D01*
X138149672Y-74811374D01*
X138149673Y-74811375D01*
X138183669Y-74893448D01*
X138201000Y-74980579D01*
X138201000Y-75069421D01*
X138183669Y-75156552D01*
X138149673Y-75238625D01*
X138149671Y-75238629D01*
X138117016Y-75287500D01*
X138100311Y-75312500D01*
X138037500Y-75375311D01*
X138037497Y-75375313D01*
X138037496Y-75375314D01*
X137963629Y-75424671D01*
X137963626Y-75424672D01*
X137963625Y-75424673D01*
X137881552Y-75458669D01*
X137794421Y-75476000D01*
X137705579Y-75476000D01*
X137618448Y-75458669D01*
X137536375Y-75424673D01*
X137536374Y-75424672D01*
X137536371Y-75424671D01*
X137462504Y-75375314D01*
X137462503Y-75375313D01*
X137462500Y-75375311D01*
X137399689Y-75312500D01*
X137382984Y-75287500D01*
X137350329Y-75238629D01*
X137350327Y-75238625D01*
X137316331Y-75156552D01*
X137299000Y-75069421D01*
X137299000Y-74980579D01*
X137316331Y-74893448D01*
X137350327Y-74811375D01*
X137350328Y-74811374D01*
X137350329Y-74811371D01*
X137399686Y-74737504D01*
X137399687Y-74737503D01*
X137399689Y-74737500D01*
X137462500Y-74674689D01*
X137462504Y-74674686D01*
X137536371Y-74625329D01*
X137536374Y-74625328D01*
X137536375Y-74625327D01*
X137618448Y-74591331D01*
X137705579Y-74574000D01*
X137794421Y-74574000D01*
X137881552Y-74591331D01*
X137881552Y-74591331D01*
G37*
G36*
X135006552Y-74566331D02*
X135088625Y-74600327D01*
X135088626Y-74600328D01*
X135088629Y-74600329D01*
X135162496Y-74649686D01*
X135162500Y-74649689D01*
X135225311Y-74712500D01*
X135225313Y-74712503D01*
X135225314Y-74712504D01*
X135274671Y-74786371D01*
X135274672Y-74786374D01*
X135274673Y-74786375D01*
X135308669Y-74868448D01*
X135326000Y-74955579D01*
X135326000Y-75044421D01*
X135308669Y-75131552D01*
X135287958Y-75181552D01*
X135274671Y-75213629D01*
X135225314Y-75287496D01*
X135225311Y-75287500D01*
X135162500Y-75350311D01*
X135162497Y-75350313D01*
X135162496Y-75350314D01*
X135088629Y-75399671D01*
X135088626Y-75399672D01*
X135088625Y-75399673D01*
X135006552Y-75433669D01*
X134919421Y-75451000D01*
X134830579Y-75451000D01*
X134743448Y-75433669D01*
X134661375Y-75399673D01*
X134661374Y-75399672D01*
X134661371Y-75399671D01*
X134587504Y-75350314D01*
X134587503Y-75350313D01*
X134587500Y-75350311D01*
X134524689Y-75287500D01*
X134524686Y-75287496D01*
X134475329Y-75213629D01*
X134462042Y-75181552D01*
X134441331Y-75131552D01*
X134424000Y-75044421D01*
X134424000Y-74955579D01*
X134441331Y-74868448D01*
X134475327Y-74786375D01*
X134475328Y-74786374D01*
X134475329Y-74786371D01*
X134524686Y-74712504D01*
X134524687Y-74712503D01*
X134524689Y-74712500D01*
X134587500Y-74649689D01*
X134587504Y-74649686D01*
X134661371Y-74600329D01*
X134661374Y-74600328D01*
X134661375Y-74600327D01*
X134743448Y-74566331D01*
X134830579Y-74549000D01*
X134919421Y-74549000D01*
X135006552Y-74566331D01*
X135006552Y-74566331D01*
G37*
G36*
X131981552Y-74566331D02*
X132063625Y-74600327D01*
X132063626Y-74600328D01*
X132063629Y-74600329D01*
X132137496Y-74649686D01*
X132137500Y-74649689D01*
X132200311Y-74712500D01*
X132200313Y-74712503D01*
X132200314Y-74712504D01*
X132249671Y-74786371D01*
X132249672Y-74786374D01*
X132249673Y-74786375D01*
X132283669Y-74868448D01*
X132301000Y-74955579D01*
X132301000Y-75044421D01*
X132283669Y-75131552D01*
X132262958Y-75181552D01*
X132249671Y-75213629D01*
X132200314Y-75287496D01*
X132200311Y-75287500D01*
X132137500Y-75350311D01*
X132137497Y-75350313D01*
X132137496Y-75350314D01*
X132063629Y-75399671D01*
X132063626Y-75399672D01*
X132063625Y-75399673D01*
X131981552Y-75433669D01*
X131894421Y-75451000D01*
X131805579Y-75451000D01*
X131718448Y-75433669D01*
X131636375Y-75399673D01*
X131636374Y-75399672D01*
X131636371Y-75399671D01*
X131562504Y-75350314D01*
X131562503Y-75350313D01*
X131562500Y-75350311D01*
X131499689Y-75287500D01*
X131499686Y-75287496D01*
X131450329Y-75213629D01*
X131437042Y-75181552D01*
X131416331Y-75131552D01*
X131399000Y-75044421D01*
X131399000Y-74955579D01*
X131416331Y-74868448D01*
X131450327Y-74786375D01*
X131450328Y-74786374D01*
X131450329Y-74786371D01*
X131499686Y-74712504D01*
X131499687Y-74712503D01*
X131499689Y-74712500D01*
X131562500Y-74649689D01*
X131562504Y-74649686D01*
X131636371Y-74600329D01*
X131636374Y-74600328D01*
X131636375Y-74600327D01*
X131718448Y-74566331D01*
X131805579Y-74549000D01*
X131894421Y-74549000D01*
X131981552Y-74566331D01*
X131981552Y-74566331D01*
G37*
G36*
X119900443Y-73155519D02*
X119966627Y-73162037D01*
X120079853Y-73196384D01*
X120136467Y-73213557D01*
X120250805Y-73274673D01*
X120292991Y-73297222D01*
X120306939Y-73308669D01*
X120430186Y-73409814D01*
X120513448Y-73511271D01*
X120542778Y-73547009D01*
X120542779Y-73547011D01*
X120626443Y-73703533D01*
X120626443Y-73703534D01*
X120677963Y-73873373D01*
X120695359Y-74050000D01*
X120677963Y-74226627D01*
X120643616Y-74339853D01*
X120626443Y-74396467D01*
X120552348Y-74535087D01*
X120542778Y-74552991D01*
X120531830Y-74566331D01*
X120430186Y-74690186D01*
X120342070Y-74762500D01*
X120292991Y-74802778D01*
X120292989Y-74802779D01*
X120136467Y-74886443D01*
X120113374Y-74893448D01*
X119966627Y-74937963D01*
X119900442Y-74944482D01*
X119834260Y-74951000D01*
X119745740Y-74951000D01*
X119679558Y-74944482D01*
X119613373Y-74937963D01*
X119466626Y-74893448D01*
X119443533Y-74886443D01*
X119287011Y-74802779D01*
X119287009Y-74802778D01*
X119237930Y-74762500D01*
X119149814Y-74690186D01*
X119048170Y-74566331D01*
X119037222Y-74552991D01*
X119027652Y-74535087D01*
X118953557Y-74396467D01*
X118936384Y-74339853D01*
X118902037Y-74226627D01*
X118884641Y-74050000D01*
X118902037Y-73873373D01*
X118953557Y-73703534D01*
X118953557Y-73703533D01*
X119037221Y-73547011D01*
X119037222Y-73547009D01*
X119066552Y-73511271D01*
X119149814Y-73409814D01*
X119273061Y-73308669D01*
X119287009Y-73297222D01*
X119329195Y-73274673D01*
X119443533Y-73213557D01*
X119500147Y-73196384D01*
X119613373Y-73162037D01*
X119679557Y-73155519D01*
X119745740Y-73149000D01*
X119834260Y-73149000D01*
X119900443Y-73155519D01*
X119900443Y-73155519D01*
G37*
G36*
X118151000Y-74951000D02*
X116349000Y-74951000D01*
X116349000Y-73149000D01*
X118151000Y-73149000D01*
X118151000Y-74951000D01*
X118151000Y-74951000D01*
G37*
G36*
X129706552Y-73366331D02*
X129788625Y-73400327D01*
X129788626Y-73400328D01*
X129788629Y-73400329D01*
X129862496Y-73449686D01*
X129862500Y-73449689D01*
X129925311Y-73512500D01*
X129925313Y-73512503D01*
X129925314Y-73512504D01*
X129974671Y-73586371D01*
X129974672Y-73586374D01*
X129974673Y-73586375D01*
X130008669Y-73668448D01*
X130026000Y-73755579D01*
X130026000Y-73844421D01*
X130008669Y-73931552D01*
X129974673Y-74013625D01*
X129974671Y-74013629D01*
X129950368Y-74050000D01*
X129925311Y-74087500D01*
X129862500Y-74150311D01*
X129862497Y-74150313D01*
X129862496Y-74150314D01*
X129788629Y-74199671D01*
X129788626Y-74199672D01*
X129788625Y-74199673D01*
X129706552Y-74233669D01*
X129619421Y-74251000D01*
X129530579Y-74251000D01*
X129443448Y-74233669D01*
X129361375Y-74199673D01*
X129361374Y-74199672D01*
X129361371Y-74199671D01*
X129287504Y-74150314D01*
X129287503Y-74150313D01*
X129287500Y-74150311D01*
X129224689Y-74087500D01*
X129199632Y-74050000D01*
X129175329Y-74013629D01*
X129175327Y-74013625D01*
X129141331Y-73931552D01*
X129124000Y-73844421D01*
X129124000Y-73755579D01*
X129141331Y-73668448D01*
X129175327Y-73586375D01*
X129175328Y-73586374D01*
X129175329Y-73586371D01*
X129224686Y-73512504D01*
X129224687Y-73512503D01*
X129224689Y-73512500D01*
X129287500Y-73449689D01*
X129287504Y-73449686D01*
X129361371Y-73400329D01*
X129361374Y-73400328D01*
X129361375Y-73400327D01*
X129443448Y-73366331D01*
X129530579Y-73349000D01*
X129619421Y-73349000D01*
X129706552Y-73366331D01*
X129706552Y-73366331D01*
G37*
G36*
X142931552Y-72516331D02*
X143013625Y-72550327D01*
X143013626Y-72550328D01*
X143013629Y-72550329D01*
X143087496Y-72599686D01*
X143087500Y-72599689D01*
X143150311Y-72662500D01*
X143150313Y-72662503D01*
X143150314Y-72662504D01*
X143199671Y-72736371D01*
X143199672Y-72736374D01*
X143199673Y-72736375D01*
X143233669Y-72818448D01*
X143251000Y-72905579D01*
X143251000Y-72994421D01*
X143233669Y-73081552D01*
X143200139Y-73162500D01*
X143199671Y-73163629D01*
X143150314Y-73237496D01*
X143150311Y-73237500D01*
X143087500Y-73300311D01*
X143087497Y-73300313D01*
X143087496Y-73300314D01*
X143013629Y-73349671D01*
X143013626Y-73349672D01*
X143013625Y-73349673D01*
X142931552Y-73383669D01*
X142844421Y-73401000D01*
X142755579Y-73401000D01*
X142668448Y-73383669D01*
X142586375Y-73349673D01*
X142586374Y-73349672D01*
X142586371Y-73349671D01*
X142512504Y-73300314D01*
X142512503Y-73300313D01*
X142512500Y-73300311D01*
X142449689Y-73237500D01*
X142449686Y-73237496D01*
X142400329Y-73163629D01*
X142399861Y-73162500D01*
X142366331Y-73081552D01*
X142349000Y-72994421D01*
X142349000Y-72905579D01*
X142366331Y-72818448D01*
X142400327Y-72736375D01*
X142400328Y-72736374D01*
X142400329Y-72736371D01*
X142449686Y-72662504D01*
X142449687Y-72662503D01*
X142449689Y-72662500D01*
X142512500Y-72599689D01*
X142512504Y-72599686D01*
X142586371Y-72550329D01*
X142586374Y-72550328D01*
X142586375Y-72550327D01*
X142668448Y-72516331D01*
X142755579Y-72499000D01*
X142844421Y-72499000D01*
X142931552Y-72516331D01*
X142931552Y-72516331D01*
G37*
G36*
X134831552Y-72441331D02*
X134913625Y-72475327D01*
X134913626Y-72475328D01*
X134913629Y-72475329D01*
X134987496Y-72524686D01*
X134987500Y-72524689D01*
X135050311Y-72587500D01*
X135050313Y-72587503D01*
X135050314Y-72587504D01*
X135099671Y-72661371D01*
X135099672Y-72661374D01*
X135099673Y-72661375D01*
X135133669Y-72743448D01*
X135151000Y-72830579D01*
X135151000Y-72919421D01*
X135133669Y-73006552D01*
X135099673Y-73088625D01*
X135099671Y-73088629D01*
X135050314Y-73162496D01*
X135050311Y-73162500D01*
X134987500Y-73225311D01*
X134987497Y-73225313D01*
X134987496Y-73225314D01*
X134913629Y-73274671D01*
X134913626Y-73274672D01*
X134913625Y-73274673D01*
X134831552Y-73308669D01*
X134744421Y-73326000D01*
X134655579Y-73326000D01*
X134568448Y-73308669D01*
X134486375Y-73274673D01*
X134486374Y-73274672D01*
X134486371Y-73274671D01*
X134412504Y-73225314D01*
X134412503Y-73225313D01*
X134412500Y-73225311D01*
X134349689Y-73162500D01*
X134349686Y-73162496D01*
X134300329Y-73088629D01*
X134300327Y-73088625D01*
X134266331Y-73006552D01*
X134249000Y-72919421D01*
X134249000Y-72830579D01*
X134266331Y-72743448D01*
X134300327Y-72661375D01*
X134300328Y-72661374D01*
X134300329Y-72661371D01*
X134349686Y-72587504D01*
X134349687Y-72587503D01*
X134349689Y-72587500D01*
X134412500Y-72524689D01*
X134412504Y-72524686D01*
X134486371Y-72475329D01*
X134486374Y-72475328D01*
X134486375Y-72475327D01*
X134568448Y-72441331D01*
X134655579Y-72424000D01*
X134744421Y-72424000D01*
X134831552Y-72441331D01*
X134831552Y-72441331D01*
G37*
G36*
X140206552Y-72441331D02*
X140288625Y-72475327D01*
X140288626Y-72475328D01*
X140288629Y-72475329D01*
X140362496Y-72524686D01*
X140362500Y-72524689D01*
X140425311Y-72587500D01*
X140425313Y-72587503D01*
X140425314Y-72587504D01*
X140474671Y-72661371D01*
X140474672Y-72661374D01*
X140474673Y-72661375D01*
X140508669Y-72743448D01*
X140526000Y-72830579D01*
X140526000Y-72919421D01*
X140508669Y-73006552D01*
X140474673Y-73088625D01*
X140474671Y-73088629D01*
X140425314Y-73162496D01*
X140425311Y-73162500D01*
X140362500Y-73225311D01*
X140362497Y-73225313D01*
X140362496Y-73225314D01*
X140288629Y-73274671D01*
X140288626Y-73274672D01*
X140288625Y-73274673D01*
X140206552Y-73308669D01*
X140119421Y-73326000D01*
X140030579Y-73326000D01*
X139943448Y-73308669D01*
X139861375Y-73274673D01*
X139861374Y-73274672D01*
X139861371Y-73274671D01*
X139787504Y-73225314D01*
X139787503Y-73225313D01*
X139787500Y-73225311D01*
X139724689Y-73162500D01*
X139724686Y-73162496D01*
X139675329Y-73088629D01*
X139675327Y-73088625D01*
X139641331Y-73006552D01*
X139624000Y-72919421D01*
X139624000Y-72830579D01*
X139641331Y-72743448D01*
X139675327Y-72661375D01*
X139675328Y-72661374D01*
X139675329Y-72661371D01*
X139724686Y-72587504D01*
X139724687Y-72587503D01*
X139724689Y-72587500D01*
X139787500Y-72524689D01*
X139787504Y-72524686D01*
X139861371Y-72475329D01*
X139861374Y-72475328D01*
X139861375Y-72475327D01*
X139943448Y-72441331D01*
X140030579Y-72424000D01*
X140119421Y-72424000D01*
X140206552Y-72441331D01*
X140206552Y-72441331D01*
G37*
G36*
X132081552Y-72441331D02*
X132163625Y-72475327D01*
X132163626Y-72475328D01*
X132163629Y-72475329D01*
X132237496Y-72524686D01*
X132237500Y-72524689D01*
X132300311Y-72587500D01*
X132300313Y-72587503D01*
X132300314Y-72587504D01*
X132349671Y-72661371D01*
X132349672Y-72661374D01*
X132349673Y-72661375D01*
X132383669Y-72743448D01*
X132401000Y-72830579D01*
X132401000Y-72919421D01*
X132383669Y-73006552D01*
X132349673Y-73088625D01*
X132349671Y-73088629D01*
X132300314Y-73162496D01*
X132300311Y-73162500D01*
X132237500Y-73225311D01*
X132237497Y-73225313D01*
X132237496Y-73225314D01*
X132163629Y-73274671D01*
X132163626Y-73274672D01*
X132163625Y-73274673D01*
X132081552Y-73308669D01*
X131994421Y-73326000D01*
X131905579Y-73326000D01*
X131818448Y-73308669D01*
X131736375Y-73274673D01*
X131736374Y-73274672D01*
X131736371Y-73274671D01*
X131662504Y-73225314D01*
X131662503Y-73225313D01*
X131662500Y-73225311D01*
X131599689Y-73162500D01*
X131599686Y-73162496D01*
X131550329Y-73088629D01*
X131550327Y-73088625D01*
X131516331Y-73006552D01*
X131499000Y-72919421D01*
X131499000Y-72830579D01*
X131516331Y-72743448D01*
X131550327Y-72661375D01*
X131550328Y-72661374D01*
X131550329Y-72661371D01*
X131599686Y-72587504D01*
X131599687Y-72587503D01*
X131599689Y-72587500D01*
X131662500Y-72524689D01*
X131662504Y-72524686D01*
X131736371Y-72475329D01*
X131736374Y-72475328D01*
X131736375Y-72475327D01*
X131818448Y-72441331D01*
X131905579Y-72424000D01*
X131994421Y-72424000D01*
X132081552Y-72441331D01*
X132081552Y-72441331D01*
G37*
G36*
X137856552Y-72416331D02*
X137938625Y-72450327D01*
X137938626Y-72450328D01*
X137938629Y-72450329D01*
X138011469Y-72499000D01*
X138012500Y-72499689D01*
X138075311Y-72562500D01*
X138075313Y-72562503D01*
X138075314Y-72562504D01*
X138124671Y-72636371D01*
X138124672Y-72636374D01*
X138124673Y-72636375D01*
X138158669Y-72718448D01*
X138176000Y-72805579D01*
X138176000Y-72894421D01*
X138158669Y-72981552D01*
X138124673Y-73063625D01*
X138124671Y-73063629D01*
X138107966Y-73088629D01*
X138075311Y-73137500D01*
X138012500Y-73200311D01*
X138012497Y-73200313D01*
X138012496Y-73200314D01*
X137938629Y-73249671D01*
X137938626Y-73249672D01*
X137938625Y-73249673D01*
X137856552Y-73283669D01*
X137769421Y-73301000D01*
X137680579Y-73301000D01*
X137593448Y-73283669D01*
X137511375Y-73249673D01*
X137511374Y-73249672D01*
X137511371Y-73249671D01*
X137437504Y-73200314D01*
X137437503Y-73200313D01*
X137437500Y-73200311D01*
X137374689Y-73137500D01*
X137342034Y-73088629D01*
X137325329Y-73063629D01*
X137325327Y-73063625D01*
X137291331Y-72981552D01*
X137274000Y-72894421D01*
X137274000Y-72805579D01*
X137291331Y-72718448D01*
X137325327Y-72636375D01*
X137325328Y-72636374D01*
X137325329Y-72636371D01*
X137374686Y-72562504D01*
X137374687Y-72562503D01*
X137374689Y-72562500D01*
X137437500Y-72499689D01*
X137438531Y-72499000D01*
X137511371Y-72450329D01*
X137511374Y-72450328D01*
X137511375Y-72450327D01*
X137593448Y-72416331D01*
X137680579Y-72399000D01*
X137769421Y-72399000D01*
X137856552Y-72416331D01*
X137856552Y-72416331D01*
G37*
M02*
