G04 #@! TF.GenerationSoftware,KiCad,Pcbnew,(5.0.1)-4*
G04 #@! TF.CreationDate,2019-05-20T12:36:30-07:00*
G04 #@! TF.ProjectId,Fanout_circuit,46616E6F75745F636972637569742E6B,rev?*
G04 #@! TF.SameCoordinates,Original*
G04 #@! TF.FileFunction,Copper,L1,Top,Signal*
G04 #@! TF.FilePolarity,Positive*
%FSLAX46Y46*%
G04 Gerber Fmt 4.6, Leading zero omitted, Abs format (unit mm)*
G04 Created by KiCad (PCBNEW (5.0.1)-4) date 5/20/2019 12:36:30 PM*
%MOMM*%
%LPD*%
G01*
G04 APERTURE LIST*
G04 #@! TA.AperFunction,EtchedComponent*
%ADD10C,0.400000*%
G04 #@! TD*
G04 #@! TA.AperFunction,SMDPad,CuDef*
%ADD11R,1.900000X1.900000*%
G04 #@! TD*
G04 #@! TA.AperFunction,SMDPad,CuDef*
%ADD12R,1.500000X1.500000*%
G04 #@! TD*
G04 #@! TA.AperFunction,Conductor*
%ADD13R,0.126000X0.084000*%
G04 #@! TD*
G04 #@! TA.AperFunction,Conductor*
%ADD14R,0.084000X0.126000*%
G04 #@! TD*
G04 #@! TA.AperFunction,Conductor*
%ADD15C,0.063956*%
G04 #@! TD*
G04 #@! TA.AperFunction,Conductor*
%ADD16C,0.200000*%
G04 #@! TD*
G04 #@! TA.AperFunction,Conductor*
%ADD17C,0.043168*%
G04 #@! TD*
G04 #@! TA.AperFunction,Conductor*
%ADD18R,0.210000X0.200000*%
G04 #@! TD*
G04 #@! TA.AperFunction,Conductor*
%ADD19R,0.200000X0.210000*%
G04 #@! TD*
G04 #@! TA.AperFunction,Conductor*
%ADD20R,0.500000X0.210000*%
G04 #@! TD*
G04 #@! TA.AperFunction,Conductor*
%ADD21C,1.820000*%
G04 #@! TD*
G04 #@! TA.AperFunction,SMDPad,CuDef*
%ADD22R,0.300000X0.400000*%
G04 #@! TD*
G04 #@! TA.AperFunction,ViaPad*
%ADD23C,0.600000*%
G04 #@! TD*
G04 #@! TA.AperFunction,ComponentPad*
%ADD24R,1.700000X1.700000*%
G04 #@! TD*
G04 #@! TA.AperFunction,ComponentPad*
%ADD25O,1.700000X1.700000*%
G04 #@! TD*
G04 #@! TA.AperFunction,ViaPad*
%ADD26C,0.800000*%
G04 #@! TD*
G04 #@! TA.AperFunction,Conductor*
%ADD27C,0.250000*%
G04 #@! TD*
G04 #@! TA.AperFunction,Conductor*
%ADD28C,0.210000*%
G04 #@! TD*
G04 #@! TA.AperFunction,Conductor*
%ADD29C,0.254000*%
G04 #@! TD*
G04 APERTURE END LIST*
D10*
G04 #@! TO.C,R1*
X130210299Y-88551077D02*
G75*
G03X130200155Y-89722820I-1385299J-573923D01*
G01*
G04 #@! TD*
D11*
G04 #@! TO.P,CON1,2*
G04 #@! TO.N,GND*
X123125000Y-86750000D03*
X123125000Y-91500000D03*
X118375000Y-91500000D03*
X118375000Y-86750000D03*
D12*
G04 #@! TO.P,CON1,1*
G04 #@! TO.N,Net-(CON1-Pad1)*
X120750000Y-89125000D03*
G04 #@! TD*
D11*
G04 #@! TO.P,CON2,2*
G04 #@! TO.N,GND*
X142750000Y-87250000D03*
X142750000Y-92000000D03*
X138000000Y-92000000D03*
X138000000Y-87250000D03*
D12*
G04 #@! TO.P,CON2,1*
G04 #@! TO.N,Net-(CON2-Pad1)*
X140375000Y-89625000D03*
G04 #@! TD*
G04 #@! TO.P,CON3,1*
G04 #@! TO.N,/LO*
X140400000Y-79575000D03*
D11*
G04 #@! TO.P,CON3,2*
G04 #@! TO.N,GND*
X138025000Y-77200000D03*
X138025000Y-81950000D03*
X142775000Y-81950000D03*
X142775000Y-77200000D03*
G04 #@! TD*
D13*
G04 #@! TO.N,/LO*
G04 #@! TO.C,J1*
X132597000Y-79692000D03*
D14*
X132702000Y-79587000D03*
D15*
X132629500Y-79618400D03*
D16*
G36*
X132661426Y-79522552D02*
X132661497Y-79650326D01*
X132661426Y-79650397D01*
X132533652Y-79650326D01*
X132661426Y-79522552D01*
X132661426Y-79522552D01*
G37*
D17*
X132514900Y-79712000D03*
D16*
G36*
X132536431Y-79647335D02*
X132536502Y-79733531D01*
X132536431Y-79733602D01*
X132450235Y-79733531D01*
X132536431Y-79647335D01*
X132536431Y-79647335D01*
G37*
D17*
X132722200Y-79505000D03*
D16*
G36*
X132743731Y-79440335D02*
X132743802Y-79526531D01*
X132743731Y-79526602D01*
X132657535Y-79526531D01*
X132743731Y-79440335D01*
X132743731Y-79440335D01*
G37*
D18*
X132555000Y-79833000D03*
D19*
X132841900Y-79545000D03*
G04 #@! TD*
G04 #@! TO.N,/LO*
G04 #@! TO.C,J2*
X132268100Y-88620000D03*
D18*
X132555000Y-88332000D03*
D17*
X132387800Y-88660000D03*
D16*
G36*
X132366269Y-88724665D02*
X132366198Y-88638469D01*
X132366269Y-88638398D01*
X132452465Y-88638469D01*
X132366269Y-88724665D01*
X132366269Y-88724665D01*
G37*
D17*
X132595100Y-88453000D03*
D16*
G36*
X132573569Y-88517665D02*
X132573498Y-88431469D01*
X132573569Y-88431398D01*
X132659765Y-88431469D01*
X132573569Y-88517665D01*
X132573569Y-88517665D01*
G37*
D15*
X132480500Y-88546600D03*
D16*
G36*
X132448574Y-88642448D02*
X132448503Y-88514674D01*
X132448574Y-88514603D01*
X132576348Y-88514674D01*
X132448574Y-88642448D01*
X132448574Y-88642448D01*
G37*
D14*
X132408000Y-88578000D03*
D13*
X132513000Y-88473000D03*
G04 #@! TD*
D20*
G04 #@! TO.N,Net-(CON1-Pad1)*
G04 #@! TO.C,R1*
X127125000Y-89125000D03*
G04 #@! TO.N,/LO*
X130475000Y-88620000D03*
G04 #@! TO.N,Net-(CON2-Pad1)*
X130475000Y-89630000D03*
D21*
G04 #@! TO.N,GND*
X128825000Y-89125000D03*
D22*
G04 #@! TD*
G04 #@! TO.P,R1,2*
G04 #@! TO.N,/LO*
X130305000Y-88825000D03*
G04 #@! TO.P,R1,4*
G04 #@! TO.N,Net-(CON2-Pad1)*
X130305000Y-89425000D03*
D23*
G04 #@! TD*
G04 #@! TO.N,GND*
G04 #@! TO.C,R1*
X128775000Y-89125000D03*
D24*
G04 #@! TO.P,J3,1*
G04 #@! TO.N,+5V*
X117250000Y-74050000D03*
D25*
G04 #@! TO.P,J3,2*
G04 #@! TO.N,GND*
X119790000Y-74050000D03*
G04 #@! TD*
D26*
G04 #@! TO.N,GND*
X118250000Y-89250000D03*
X120750000Y-91500000D03*
X120750000Y-86750000D03*
X125075000Y-87900000D03*
X126550000Y-87850000D03*
X127700000Y-86750000D03*
X129250000Y-86725000D03*
X130825000Y-87550000D03*
X125050000Y-90325000D03*
X126550000Y-90175000D03*
X127725000Y-91425000D03*
X129625000Y-91500000D03*
X130900000Y-90750000D03*
X134475000Y-76225000D03*
X133200000Y-76225000D03*
X133175000Y-77525000D03*
X134450000Y-77550000D03*
X135950000Y-77575000D03*
X135950000Y-76325000D03*
X140325000Y-77225000D03*
X142725000Y-79500000D03*
X140425000Y-81850000D03*
X131675000Y-86275000D03*
X131650000Y-84950000D03*
X131625000Y-83700000D03*
X131625000Y-82375000D03*
X131600000Y-81025000D03*
X131550000Y-79675000D03*
X132050000Y-78625000D03*
X132275000Y-90650000D03*
X133550000Y-90775000D03*
X134800000Y-90925000D03*
X136100000Y-91025000D03*
X140275000Y-91950000D03*
X142750000Y-89825000D03*
X140325000Y-87350000D03*
X136150000Y-88350000D03*
X134800000Y-88500000D03*
X133525000Y-88625000D03*
X133525000Y-87275000D03*
X133525000Y-85950000D03*
X133525000Y-84575000D03*
X133525000Y-83150000D03*
X133525000Y-81850000D03*
X133500000Y-80550000D03*
X134825000Y-80725000D03*
X136125000Y-80975000D03*
X120775000Y-81700000D03*
X118350000Y-81650000D03*
X116050000Y-81675000D03*
X116000000Y-83700000D03*
X118325000Y-83625000D03*
X116125000Y-86150000D03*
X116025000Y-88800000D03*
X116050000Y-91200000D03*
X116050000Y-93775000D03*
X118425000Y-93700000D03*
X120775000Y-93675000D03*
X123125000Y-93675000D03*
X126575000Y-93700000D03*
X130050000Y-93700000D03*
X133325000Y-93600000D03*
X135950000Y-93725000D03*
X138525000Y-93875000D03*
X142725000Y-93950000D03*
X137750000Y-75025000D03*
X142825000Y-75050000D03*
X142800000Y-72950000D03*
X140075000Y-72875000D03*
X137725000Y-72850000D03*
X137925000Y-84600000D03*
X142975000Y-84550000D03*
X135375000Y-82875000D03*
X135375000Y-86200000D03*
X129650000Y-78125000D03*
X129575000Y-73800000D03*
X129575000Y-81525000D03*
X129650000Y-83850000D03*
X127550000Y-83875000D03*
X127475000Y-81700000D03*
X125325000Y-83925000D03*
X125250000Y-81700000D03*
X123175000Y-83925000D03*
X123125000Y-81725000D03*
X134700000Y-72875000D03*
X131950000Y-72875000D03*
X131850000Y-75000000D03*
X134875000Y-75000000D03*
X116050000Y-79400000D03*
X118375000Y-79425000D03*
G04 #@! TD*
D27*
G04 #@! TO.N,GND*
X118375000Y-91500000D02*
X118375000Y-89375000D01*
X118375000Y-89375000D02*
X118250000Y-89250000D01*
X118375000Y-89125000D02*
X118250000Y-89250000D01*
X118375000Y-86750000D02*
X118375000Y-89125000D01*
X118375000Y-91500000D02*
X120750000Y-91500000D01*
X123125000Y-91500000D02*
X120750000Y-91500000D01*
X118375000Y-86750000D02*
X120750000Y-86750000D01*
X123125000Y-86750000D02*
X120750000Y-86750000D01*
X125075000Y-87500000D02*
X125075000Y-87900000D01*
X123125000Y-86750000D02*
X124325000Y-86750000D01*
X124325000Y-86750000D02*
X125075000Y-87500000D01*
X126550000Y-87850000D02*
X126600000Y-87850000D01*
X126600000Y-87850000D02*
X127700000Y-86750000D01*
X129250000Y-86725000D02*
X130000000Y-86725000D01*
X130000000Y-86725000D02*
X130825000Y-87550000D01*
X125050000Y-90775000D02*
X125050000Y-90325000D01*
X123125000Y-91500000D02*
X124325000Y-91500000D01*
X124325000Y-91500000D02*
X125050000Y-90775000D01*
X126550000Y-90175000D02*
X126550000Y-90250000D01*
X126550000Y-90250000D02*
X127725000Y-91425000D01*
X129625000Y-91500000D02*
X130150000Y-91500000D01*
X130150000Y-91500000D02*
X130900000Y-90750000D01*
X134500000Y-76200000D02*
X134475000Y-76225000D01*
X133200000Y-76225000D02*
X133200000Y-77500000D01*
X133200000Y-77500000D02*
X133175000Y-77525000D01*
X134450000Y-77550000D02*
X135925000Y-77550000D01*
X135925000Y-77550000D02*
X135950000Y-77575000D01*
X138025000Y-77200000D02*
X140300000Y-77200000D01*
X140300000Y-77200000D02*
X140325000Y-77225000D01*
X140350000Y-77200000D02*
X140325000Y-77225000D01*
X142775000Y-77200000D02*
X140350000Y-77200000D01*
X142775000Y-77200000D02*
X142775000Y-79450000D01*
X142775000Y-79450000D02*
X142725000Y-79500000D01*
X142775000Y-79550000D02*
X142725000Y-79500000D01*
X142775000Y-81950000D02*
X142775000Y-79550000D01*
X142775000Y-81950000D02*
X140525000Y-81950000D01*
X140525000Y-81950000D02*
X140425000Y-81850000D01*
X140325000Y-81950000D02*
X140425000Y-81850000D01*
X138025000Y-81950000D02*
X140325000Y-81950000D01*
X130825000Y-87550000D02*
X130825000Y-87125000D01*
X130825000Y-87125000D02*
X131675000Y-86275000D01*
X131650000Y-84950000D02*
X131650000Y-83725000D01*
X131650000Y-83725000D02*
X131625000Y-83700000D01*
X131625000Y-82375000D02*
X131625000Y-81050000D01*
X131625000Y-81050000D02*
X131600000Y-81025000D01*
X131550000Y-79675000D02*
X131550000Y-79125000D01*
X131550000Y-79125000D02*
X132050000Y-78625000D01*
X130900000Y-90750000D02*
X132175000Y-90750000D01*
X132175000Y-90750000D02*
X132275000Y-90650000D01*
X133550000Y-90775000D02*
X134650000Y-90775000D01*
X134650000Y-90775000D02*
X134800000Y-90925000D01*
X137025000Y-91025000D02*
X138000000Y-92000000D01*
X136100000Y-91025000D02*
X137025000Y-91025000D01*
X138000000Y-92000000D02*
X140225000Y-92000000D01*
X140225000Y-92000000D02*
X140275000Y-91950000D01*
X140325000Y-92000000D02*
X140275000Y-91950000D01*
X142750000Y-92000000D02*
X140325000Y-92000000D01*
X142750000Y-92000000D02*
X142750000Y-89825000D01*
X142750000Y-88450000D02*
X142750000Y-89825000D01*
X142750000Y-87250000D02*
X142750000Y-88450000D01*
X142750000Y-87250000D02*
X140425000Y-87250000D01*
X140425000Y-87250000D02*
X140325000Y-87350000D01*
X140225000Y-87250000D02*
X140325000Y-87350000D01*
X138000000Y-87250000D02*
X140225000Y-87250000D01*
X136150000Y-87900000D02*
X136150000Y-88350000D01*
X138000000Y-87250000D02*
X136800000Y-87250000D01*
X136800000Y-87250000D02*
X136150000Y-87900000D01*
X134800000Y-88500000D02*
X133650000Y-88500000D01*
X133650000Y-88500000D02*
X133525000Y-88625000D01*
X133525000Y-87275000D02*
X133525000Y-85950000D01*
X133525000Y-84575000D02*
X133525000Y-83150000D01*
X133525000Y-81850000D02*
X133525000Y-80575000D01*
X133525000Y-80575000D02*
X133500000Y-80550000D01*
X134825000Y-80725000D02*
X135875000Y-80725000D01*
X135875000Y-80725000D02*
X136125000Y-80975000D01*
X137100000Y-81950000D02*
X136125000Y-80975000D01*
X138025000Y-81950000D02*
X137100000Y-81950000D01*
X120750000Y-86750000D02*
X120750000Y-81725000D01*
X120750000Y-81725000D02*
X120775000Y-81700000D01*
X118350000Y-81650000D02*
X116075000Y-81650000D01*
X116075000Y-81650000D02*
X116050000Y-81675000D01*
X116000000Y-83700000D02*
X118250000Y-83700000D01*
X118250000Y-83700000D02*
X118325000Y-83625000D01*
X116125000Y-86150000D02*
X116125000Y-88700000D01*
X116125000Y-88700000D02*
X116025000Y-88800000D01*
X116050000Y-91200000D02*
X116050000Y-93775000D01*
X118425000Y-93700000D02*
X120750000Y-93700000D01*
X120750000Y-93700000D02*
X120775000Y-93675000D01*
X123125000Y-93675000D02*
X126550000Y-93675000D01*
X126550000Y-93675000D02*
X126575000Y-93700000D01*
X130050000Y-93700000D02*
X133225000Y-93700000D01*
X133225000Y-93700000D02*
X133325000Y-93600000D01*
X135950000Y-93725000D02*
X138375000Y-93725000D01*
X138375000Y-93725000D02*
X138525000Y-93875000D01*
X137750000Y-75025000D02*
X142800000Y-75025000D01*
X142800000Y-75025000D02*
X142825000Y-75050000D01*
X142800000Y-72950000D02*
X140150000Y-72950000D01*
X140150000Y-72950000D02*
X140075000Y-72875000D01*
X138025000Y-81950000D02*
X138025000Y-84500000D01*
X138025000Y-84500000D02*
X137925000Y-84600000D01*
X137925000Y-84600000D02*
X137100000Y-84600000D01*
X137100000Y-84600000D02*
X135375000Y-82875000D01*
X129575000Y-78200000D02*
X129650000Y-78125000D01*
X129625000Y-83875000D02*
X129650000Y-83850000D01*
X129575000Y-81525000D02*
X129575000Y-78200000D01*
X127550000Y-83875000D02*
X129625000Y-83875000D01*
X125250000Y-81700000D02*
X127475000Y-81700000D01*
X123175000Y-83925000D02*
X125325000Y-83925000D01*
X123100000Y-81700000D02*
X123125000Y-81725000D01*
X120775000Y-81700000D02*
X123100000Y-81700000D01*
X137725000Y-72850000D02*
X134725000Y-72850000D01*
X134725000Y-72850000D02*
X134700000Y-72875000D01*
X131950000Y-72875000D02*
X131950000Y-74900000D01*
X131950000Y-74900000D02*
X131850000Y-75000000D01*
X137725000Y-75000000D02*
X137750000Y-75025000D01*
X134875000Y-75000000D02*
X137725000Y-75000000D01*
X116050000Y-79400000D02*
X118350000Y-79400000D01*
X118350000Y-79400000D02*
X118375000Y-79425000D01*
G04 #@! TO.N,Net-(CON1-Pad1)*
X120750000Y-89125000D02*
X127125000Y-89125000D01*
G04 #@! TO.N,Net-(CON2-Pad1)*
X140370000Y-89630000D02*
X140375000Y-89625000D01*
D28*
X130475000Y-89630000D02*
X140370000Y-89630000D01*
G04 #@! TO.N,/LO*
X130475000Y-88620000D02*
X132253100Y-88620000D01*
X132555000Y-88332000D02*
X132555000Y-79848000D01*
D27*
X140370000Y-79545000D02*
X140400000Y-79575000D01*
D28*
X132841900Y-79545000D02*
X140370000Y-79545000D01*
G04 #@! TD*
D29*
G04 #@! TO.N,Net-(CON1-Pad1)*
G36*
X126817778Y-89067434D02*
X126811089Y-89159716D01*
X121494620Y-89747821D01*
X120658563Y-89726383D01*
X120720771Y-88523694D01*
X121495035Y-88502187D01*
X126817778Y-89067434D01*
X126817778Y-89067434D01*
G37*
X126817778Y-89067434D02*
X126811089Y-89159716D01*
X121494620Y-89747821D01*
X120658563Y-89726383D01*
X120720771Y-88523694D01*
X121495035Y-88502187D01*
X126817778Y-89067434D01*
G04 #@! TO.N,/LO*
G36*
X140406424Y-78995431D02*
X140489161Y-80133074D01*
X139651236Y-80197530D01*
X132993125Y-79555498D01*
X139652117Y-78952328D01*
X140406424Y-78995431D01*
X140406424Y-78995431D01*
G37*
X140406424Y-78995431D02*
X140489161Y-80133074D01*
X139651236Y-80197530D01*
X132993125Y-79555498D01*
X139652117Y-78952328D01*
X140406424Y-78995431D01*
G04 #@! TO.N,GND*
G36*
X144873000Y-94873000D02*
X115127000Y-94873000D01*
X115127000Y-88375000D01*
X119666594Y-88375000D01*
X119666594Y-89875000D01*
X119691973Y-90002589D01*
X119764246Y-90110754D01*
X119872411Y-90183027D01*
X120000000Y-90208406D01*
X121500000Y-90208406D01*
X121549969Y-90198467D01*
X126877954Y-89609087D01*
X126947713Y-89873977D01*
X126964727Y-89911829D01*
X126974982Y-89952048D01*
X127018663Y-90031818D01*
X127291534Y-90441683D01*
X127319892Y-90471983D01*
X127342621Y-90506711D01*
X127409785Y-90568032D01*
X127800706Y-90867410D01*
X127837350Y-90886891D01*
X127870102Y-90912384D01*
X127953508Y-90948643D01*
X128420328Y-91105256D01*
X128461307Y-91111817D01*
X128500552Y-91125327D01*
X128591204Y-91132614D01*
X128591206Y-91132614D01*
X129083585Y-91129571D01*
X129124479Y-91122504D01*
X129165983Y-91122574D01*
X129254108Y-91100105D01*
X129254111Y-91100104D01*
X129254113Y-91100103D01*
X129718959Y-90937736D01*
X129755359Y-90917804D01*
X129794651Y-90904425D01*
X129870747Y-90854621D01*
X130257939Y-90550433D01*
X130285923Y-90519783D01*
X130318758Y-90494401D01*
X130374620Y-90422633D01*
X130604183Y-90068406D01*
X130725000Y-90068406D01*
X130757205Y-90062000D01*
X133699646Y-90062000D01*
X139575401Y-90698540D01*
X139625000Y-90708406D01*
X139811746Y-90708406D01*
X140364106Y-90726818D01*
X140460949Y-90708406D01*
X141125000Y-90708406D01*
X141252589Y-90683027D01*
X141360754Y-90610754D01*
X141433027Y-90502589D01*
X141458406Y-90375000D01*
X141458406Y-88875000D01*
X141433027Y-88747411D01*
X141360754Y-88639246D01*
X141252589Y-88566973D01*
X141125000Y-88541594D01*
X139625000Y-88541594D01*
X139575401Y-88551460D01*
X133607338Y-89198000D01*
X130783035Y-89198000D01*
X130768515Y-89125000D01*
X130783035Y-89052000D01*
X132135895Y-89052000D01*
X132168100Y-89058406D01*
X132368100Y-89058406D01*
X132495689Y-89033027D01*
X132603854Y-88960754D01*
X132608216Y-88954226D01*
X132684063Y-88878379D01*
X132684328Y-88878202D01*
X132808684Y-88753846D01*
X132809323Y-88753419D01*
X132893446Y-88669296D01*
X132895754Y-88667754D01*
X132968027Y-88559589D01*
X132993406Y-88432000D01*
X132993406Y-88232000D01*
X132987000Y-88199795D01*
X132987000Y-80011013D01*
X139602291Y-80648916D01*
X139650000Y-80658406D01*
X141150000Y-80658406D01*
X141277589Y-80633027D01*
X141385754Y-80560754D01*
X141458027Y-80452589D01*
X141483406Y-80325000D01*
X141483406Y-78825000D01*
X141458027Y-78697411D01*
X141385754Y-78589246D01*
X141277589Y-78516973D01*
X141150000Y-78491594D01*
X139650000Y-78491594D01*
X139603227Y-78500898D01*
X132916340Y-79106594D01*
X132741900Y-79106594D01*
X132614311Y-79131973D01*
X132506146Y-79204246D01*
X132501784Y-79210774D01*
X132425937Y-79286621D01*
X132425672Y-79286798D01*
X132301316Y-79411154D01*
X132300677Y-79411581D01*
X132216554Y-79495704D01*
X132214246Y-79497246D01*
X132141973Y-79605411D01*
X132116594Y-79733000D01*
X132116594Y-79933000D01*
X132123001Y-79965210D01*
X132123000Y-88188000D01*
X130757205Y-88188000D01*
X130725000Y-88181594D01*
X130609881Y-88181594D01*
X130530595Y-88034369D01*
X130515432Y-88014788D01*
X130505276Y-87992195D01*
X130448531Y-87921123D01*
X130109256Y-87564276D01*
X130076111Y-87539303D01*
X130047749Y-87508999D01*
X129971048Y-87460144D01*
X129971043Y-87460140D01*
X129971040Y-87460139D01*
X129534470Y-87232429D01*
X129495022Y-87219538D01*
X129458373Y-87200055D01*
X129369980Y-87178678D01*
X129369977Y-87178677D01*
X129369976Y-87178677D01*
X128883182Y-87104657D01*
X128841685Y-87105239D01*
X128800703Y-87098678D01*
X128710147Y-87107085D01*
X128225622Y-87194736D01*
X128186551Y-87208729D01*
X128145652Y-87215796D01*
X128062701Y-87253083D01*
X127632691Y-87492955D01*
X127600260Y-87518848D01*
X127563854Y-87538783D01*
X127497453Y-87600929D01*
X127168325Y-87967157D01*
X127146031Y-88002158D01*
X127118045Y-88032810D01*
X127075354Y-88113114D01*
X126882599Y-88566206D01*
X126872843Y-88606543D01*
X126868611Y-88616279D01*
X121549257Y-88051392D01*
X121500000Y-88041594D01*
X120000000Y-88041594D01*
X119872411Y-88066973D01*
X119764246Y-88139246D01*
X119691973Y-88247411D01*
X119666594Y-88375000D01*
X115127000Y-88375000D01*
X115127000Y-73200000D01*
X116066594Y-73200000D01*
X116066594Y-74900000D01*
X116091973Y-75027589D01*
X116164246Y-75135754D01*
X116272411Y-75208027D01*
X116400000Y-75233406D01*
X118100000Y-75233406D01*
X118227589Y-75208027D01*
X118335754Y-75135754D01*
X118408027Y-75027589D01*
X118433406Y-74900000D01*
X118433406Y-73200000D01*
X118408027Y-73072411D01*
X118335754Y-72964246D01*
X118227589Y-72891973D01*
X118100000Y-72866594D01*
X116400000Y-72866594D01*
X116272411Y-72891973D01*
X116164246Y-72964246D01*
X116091973Y-73072411D01*
X116066594Y-73200000D01*
X115127000Y-73200000D01*
X115127000Y-72127000D01*
X144873000Y-72127000D01*
X144873000Y-94873000D01*
X144873000Y-94873000D01*
G37*
X144873000Y-94873000D02*
X115127000Y-94873000D01*
X115127000Y-88375000D01*
X119666594Y-88375000D01*
X119666594Y-89875000D01*
X119691973Y-90002589D01*
X119764246Y-90110754D01*
X119872411Y-90183027D01*
X120000000Y-90208406D01*
X121500000Y-90208406D01*
X121549969Y-90198467D01*
X126877954Y-89609087D01*
X126947713Y-89873977D01*
X126964727Y-89911829D01*
X126974982Y-89952048D01*
X127018663Y-90031818D01*
X127291534Y-90441683D01*
X127319892Y-90471983D01*
X127342621Y-90506711D01*
X127409785Y-90568032D01*
X127800706Y-90867410D01*
X127837350Y-90886891D01*
X127870102Y-90912384D01*
X127953508Y-90948643D01*
X128420328Y-91105256D01*
X128461307Y-91111817D01*
X128500552Y-91125327D01*
X128591204Y-91132614D01*
X128591206Y-91132614D01*
X129083585Y-91129571D01*
X129124479Y-91122504D01*
X129165983Y-91122574D01*
X129254108Y-91100105D01*
X129254111Y-91100104D01*
X129254113Y-91100103D01*
X129718959Y-90937736D01*
X129755359Y-90917804D01*
X129794651Y-90904425D01*
X129870747Y-90854621D01*
X130257939Y-90550433D01*
X130285923Y-90519783D01*
X130318758Y-90494401D01*
X130374620Y-90422633D01*
X130604183Y-90068406D01*
X130725000Y-90068406D01*
X130757205Y-90062000D01*
X133699646Y-90062000D01*
X139575401Y-90698540D01*
X139625000Y-90708406D01*
X139811746Y-90708406D01*
X140364106Y-90726818D01*
X140460949Y-90708406D01*
X141125000Y-90708406D01*
X141252589Y-90683027D01*
X141360754Y-90610754D01*
X141433027Y-90502589D01*
X141458406Y-90375000D01*
X141458406Y-88875000D01*
X141433027Y-88747411D01*
X141360754Y-88639246D01*
X141252589Y-88566973D01*
X141125000Y-88541594D01*
X139625000Y-88541594D01*
X139575401Y-88551460D01*
X133607338Y-89198000D01*
X130783035Y-89198000D01*
X130768515Y-89125000D01*
X130783035Y-89052000D01*
X132135895Y-89052000D01*
X132168100Y-89058406D01*
X132368100Y-89058406D01*
X132495689Y-89033027D01*
X132603854Y-88960754D01*
X132608216Y-88954226D01*
X132684063Y-88878379D01*
X132684328Y-88878202D01*
X132808684Y-88753846D01*
X132809323Y-88753419D01*
X132893446Y-88669296D01*
X132895754Y-88667754D01*
X132968027Y-88559589D01*
X132993406Y-88432000D01*
X132993406Y-88232000D01*
X132987000Y-88199795D01*
X132987000Y-80011013D01*
X139602291Y-80648916D01*
X139650000Y-80658406D01*
X141150000Y-80658406D01*
X141277589Y-80633027D01*
X141385754Y-80560754D01*
X141458027Y-80452589D01*
X141483406Y-80325000D01*
X141483406Y-78825000D01*
X141458027Y-78697411D01*
X141385754Y-78589246D01*
X141277589Y-78516973D01*
X141150000Y-78491594D01*
X139650000Y-78491594D01*
X139603227Y-78500898D01*
X132916340Y-79106594D01*
X132741900Y-79106594D01*
X132614311Y-79131973D01*
X132506146Y-79204246D01*
X132501784Y-79210774D01*
X132425937Y-79286621D01*
X132425672Y-79286798D01*
X132301316Y-79411154D01*
X132300677Y-79411581D01*
X132216554Y-79495704D01*
X132214246Y-79497246D01*
X132141973Y-79605411D01*
X132116594Y-79733000D01*
X132116594Y-79933000D01*
X132123001Y-79965210D01*
X132123000Y-88188000D01*
X130757205Y-88188000D01*
X130725000Y-88181594D01*
X130609881Y-88181594D01*
X130530595Y-88034369D01*
X130515432Y-88014788D01*
X130505276Y-87992195D01*
X130448531Y-87921123D01*
X130109256Y-87564276D01*
X130076111Y-87539303D01*
X130047749Y-87508999D01*
X129971048Y-87460144D01*
X129971043Y-87460140D01*
X129971040Y-87460139D01*
X129534470Y-87232429D01*
X129495022Y-87219538D01*
X129458373Y-87200055D01*
X129369980Y-87178678D01*
X129369977Y-87178677D01*
X129369976Y-87178677D01*
X128883182Y-87104657D01*
X128841685Y-87105239D01*
X128800703Y-87098678D01*
X128710147Y-87107085D01*
X128225622Y-87194736D01*
X128186551Y-87208729D01*
X128145652Y-87215796D01*
X128062701Y-87253083D01*
X127632691Y-87492955D01*
X127600260Y-87518848D01*
X127563854Y-87538783D01*
X127497453Y-87600929D01*
X127168325Y-87967157D01*
X127146031Y-88002158D01*
X127118045Y-88032810D01*
X127075354Y-88113114D01*
X126882599Y-88566206D01*
X126872843Y-88606543D01*
X126868611Y-88616279D01*
X121549257Y-88051392D01*
X121500000Y-88041594D01*
X120000000Y-88041594D01*
X119872411Y-88066973D01*
X119764246Y-88139246D01*
X119691973Y-88247411D01*
X119666594Y-88375000D01*
X115127000Y-88375000D01*
X115127000Y-73200000D01*
X116066594Y-73200000D01*
X116066594Y-74900000D01*
X116091973Y-75027589D01*
X116164246Y-75135754D01*
X116272411Y-75208027D01*
X116400000Y-75233406D01*
X118100000Y-75233406D01*
X118227589Y-75208027D01*
X118335754Y-75135754D01*
X118408027Y-75027589D01*
X118433406Y-74900000D01*
X118433406Y-73200000D01*
X118408027Y-73072411D01*
X118335754Y-72964246D01*
X118227589Y-72891973D01*
X118100000Y-72866594D01*
X116400000Y-72866594D01*
X116272411Y-72891973D01*
X116164246Y-72964246D01*
X116091973Y-73072411D01*
X116066594Y-73200000D01*
X115127000Y-73200000D01*
X115127000Y-72127000D01*
X144873000Y-72127000D01*
X144873000Y-94873000D01*
G04 #@! TO.N,Net-(CON2-Pad1)*
G36*
X140245829Y-90268623D02*
X139633957Y-90248228D01*
X133881087Y-89625000D01*
X139631856Y-89002000D01*
X140225065Y-89002000D01*
X140245829Y-90268623D01*
X140245829Y-90268623D01*
G37*
X140245829Y-90268623D02*
X139633957Y-90248228D01*
X133881087Y-89625000D01*
X139631856Y-89002000D01*
X140225065Y-89002000D01*
X140245829Y-90268623D01*
G04 #@! TD*
M02*
