G04 #@! TF.GenerationSoftware,KiCad,Pcbnew,(5.0.1)-4*
G04 #@! TF.CreationDate,2019-05-23T13:05:23-07:00*
G04 #@! TF.ProjectId,Transmit_circuit,5472616E736D69745F63697263756974,rev?*
G04 #@! TF.SameCoordinates,Original*
G04 #@! TF.FileFunction,Legend,Top*
G04 #@! TF.FilePolarity,Positive*
%FSLAX46Y46*%
G04 Gerber Fmt 4.6, Leading zero omitted, Abs format (unit mm)*
G04 Created by KiCad (PCBNEW (5.0.1)-4) date 5/23/2019 1:05:23 PM*
%MOMM*%
%LPD*%
G01*
G04 APERTURE LIST*
%ADD10C,0.200000*%
%ADD11C,0.250000*%
%ADD12C,0.120000*%
%ADD13C,0.150000*%
%ADD14C,0.050000*%
G04 APERTURE END LIST*
D10*
X137000000Y-108000000D02*
X98000000Y-108000000D01*
X137000000Y-125000000D02*
X137000000Y-108000000D01*
X98000000Y-125000000D02*
X137000000Y-125000000D01*
X98000000Y-108000000D02*
X98000000Y-125000000D01*
D11*
X119238095Y-119678571D02*
X119571428Y-119678571D01*
X119714285Y-120202380D02*
X119238095Y-120202380D01*
X119238095Y-119202380D01*
X119714285Y-119202380D01*
X120285714Y-120202380D02*
X120190476Y-120154761D01*
X120142857Y-120059523D01*
X120142857Y-119202380D01*
X120809523Y-120202380D02*
X120714285Y-120154761D01*
X120666666Y-120059523D01*
X120666666Y-119202380D01*
X121190476Y-120202380D02*
X121190476Y-119535714D01*
X121190476Y-119202380D02*
X121142857Y-119250000D01*
X121190476Y-119297619D01*
X121238095Y-119250000D01*
X121190476Y-119202380D01*
X121190476Y-119297619D01*
X121809523Y-120202380D02*
X121714285Y-120154761D01*
X121666666Y-120107142D01*
X121619047Y-120011904D01*
X121619047Y-119726190D01*
X121666666Y-119630952D01*
X121714285Y-119583333D01*
X121809523Y-119535714D01*
X121952380Y-119535714D01*
X122047619Y-119583333D01*
X122095238Y-119630952D01*
X122142857Y-119726190D01*
X122142857Y-120011904D01*
X122095238Y-120107142D01*
X122047619Y-120154761D01*
X121952380Y-120202380D01*
X121809523Y-120202380D01*
X122428571Y-119535714D02*
X122809523Y-119535714D01*
X122571428Y-119202380D02*
X122571428Y-120059523D01*
X122619047Y-120154761D01*
X122714285Y-120202380D01*
X122809523Y-120202380D01*
X123000000Y-119535714D02*
X123380952Y-119535714D01*
X123142857Y-119202380D02*
X123142857Y-120059523D01*
X123190476Y-120154761D01*
X123285714Y-120202380D01*
X123380952Y-120202380D01*
X124809523Y-119678571D02*
X124952380Y-119726190D01*
X125000000Y-119773809D01*
X125047619Y-119869047D01*
X125047619Y-120011904D01*
X125000000Y-120107142D01*
X124952380Y-120154761D01*
X124857142Y-120202380D01*
X124476190Y-120202380D01*
X124476190Y-119202380D01*
X124809523Y-119202380D01*
X124904761Y-119250000D01*
X124952380Y-119297619D01*
X125000000Y-119392857D01*
X125000000Y-119488095D01*
X124952380Y-119583333D01*
X124904761Y-119630952D01*
X124809523Y-119678571D01*
X124476190Y-119678571D01*
X125904761Y-120202380D02*
X125904761Y-119678571D01*
X125857142Y-119583333D01*
X125761904Y-119535714D01*
X125571428Y-119535714D01*
X125476190Y-119583333D01*
X125904761Y-120154761D02*
X125809523Y-120202380D01*
X125571428Y-120202380D01*
X125476190Y-120154761D01*
X125428571Y-120059523D01*
X125428571Y-119964285D01*
X125476190Y-119869047D01*
X125571428Y-119821428D01*
X125809523Y-119821428D01*
X125904761Y-119773809D01*
X126285714Y-119535714D02*
X126523809Y-120202380D01*
X126761904Y-119535714D02*
X126523809Y-120202380D01*
X126428571Y-120440476D01*
X126380952Y-120488095D01*
X126285714Y-120535714D01*
X127904761Y-120202380D02*
X127904761Y-119202380D01*
X128380952Y-119535714D02*
X128380952Y-120202380D01*
X128380952Y-119630952D02*
X128428571Y-119583333D01*
X128523809Y-119535714D01*
X128666666Y-119535714D01*
X128761904Y-119583333D01*
X128809523Y-119678571D01*
X128809523Y-120202380D01*
X129714285Y-120202380D02*
X129714285Y-119202380D01*
X129714285Y-120154761D02*
X129619047Y-120202380D01*
X129428571Y-120202380D01*
X129333333Y-120154761D01*
X129285714Y-120107142D01*
X129238095Y-120011904D01*
X129238095Y-119726190D01*
X129285714Y-119630952D01*
X129333333Y-119583333D01*
X129428571Y-119535714D01*
X129619047Y-119535714D01*
X129714285Y-119583333D01*
X130619047Y-119535714D02*
X130619047Y-120202380D01*
X130190476Y-119535714D02*
X130190476Y-120059523D01*
X130238095Y-120154761D01*
X130333333Y-120202380D01*
X130476190Y-120202380D01*
X130571428Y-120154761D01*
X130619047Y-120107142D01*
X131047619Y-120154761D02*
X131142857Y-120202380D01*
X131333333Y-120202380D01*
X131428571Y-120154761D01*
X131476190Y-120059523D01*
X131476190Y-120011904D01*
X131428571Y-119916666D01*
X131333333Y-119869047D01*
X131190476Y-119869047D01*
X131095238Y-119821428D01*
X131047619Y-119726190D01*
X131047619Y-119678571D01*
X131095238Y-119583333D01*
X131190476Y-119535714D01*
X131333333Y-119535714D01*
X131428571Y-119583333D01*
X131761904Y-119535714D02*
X132142857Y-119535714D01*
X131904761Y-119202380D02*
X131904761Y-120059523D01*
X131952380Y-120154761D01*
X132047619Y-120202380D01*
X132142857Y-120202380D01*
X132476190Y-120202380D02*
X132476190Y-119535714D01*
X132476190Y-119726190D02*
X132523809Y-119630952D01*
X132571428Y-119583333D01*
X132666666Y-119535714D01*
X132761904Y-119535714D01*
X133095238Y-120202380D02*
X133095238Y-119535714D01*
X133095238Y-119202380D02*
X133047619Y-119250000D01*
X133095238Y-119297619D01*
X133142857Y-119250000D01*
X133095238Y-119202380D01*
X133095238Y-119297619D01*
X133952380Y-120154761D02*
X133857142Y-120202380D01*
X133666666Y-120202380D01*
X133571428Y-120154761D01*
X133523809Y-120059523D01*
X133523809Y-119678571D01*
X133571428Y-119583333D01*
X133666666Y-119535714D01*
X133857142Y-119535714D01*
X133952380Y-119583333D01*
X134000000Y-119678571D01*
X134000000Y-119773809D01*
X133523809Y-119869047D01*
X134380952Y-120154761D02*
X134476190Y-120202380D01*
X134666666Y-120202380D01*
X134761904Y-120154761D01*
X134809523Y-120059523D01*
X134809523Y-120011904D01*
X134761904Y-119916666D01*
X134666666Y-119869047D01*
X134523809Y-119869047D01*
X134428571Y-119821428D01*
X134380952Y-119726190D01*
X134380952Y-119678571D01*
X134428571Y-119583333D01*
X134523809Y-119535714D01*
X134666666Y-119535714D01*
X134761904Y-119583333D01*
X121071428Y-120952380D02*
X121642857Y-120952380D01*
X121357142Y-121952380D02*
X121357142Y-120952380D01*
X121976190Y-121952380D02*
X121976190Y-121285714D01*
X121976190Y-121476190D02*
X122023809Y-121380952D01*
X122071428Y-121333333D01*
X122166666Y-121285714D01*
X122261904Y-121285714D01*
X123023809Y-121952380D02*
X123023809Y-121428571D01*
X122976190Y-121333333D01*
X122880952Y-121285714D01*
X122690476Y-121285714D01*
X122595238Y-121333333D01*
X123023809Y-121904761D02*
X122928571Y-121952380D01*
X122690476Y-121952380D01*
X122595238Y-121904761D01*
X122547619Y-121809523D01*
X122547619Y-121714285D01*
X122595238Y-121619047D01*
X122690476Y-121571428D01*
X122928571Y-121571428D01*
X123023809Y-121523809D01*
X123500000Y-121285714D02*
X123500000Y-121952380D01*
X123500000Y-121380952D02*
X123547619Y-121333333D01*
X123642857Y-121285714D01*
X123785714Y-121285714D01*
X123880952Y-121333333D01*
X123928571Y-121428571D01*
X123928571Y-121952380D01*
X124357142Y-121904761D02*
X124452380Y-121952380D01*
X124642857Y-121952380D01*
X124738095Y-121904761D01*
X124785714Y-121809523D01*
X124785714Y-121761904D01*
X124738095Y-121666666D01*
X124642857Y-121619047D01*
X124500000Y-121619047D01*
X124404761Y-121571428D01*
X124357142Y-121476190D01*
X124357142Y-121428571D01*
X124404761Y-121333333D01*
X124500000Y-121285714D01*
X124642857Y-121285714D01*
X124738095Y-121333333D01*
X125214285Y-121952380D02*
X125214285Y-121285714D01*
X125214285Y-121380952D02*
X125261904Y-121333333D01*
X125357142Y-121285714D01*
X125500000Y-121285714D01*
X125595238Y-121333333D01*
X125642857Y-121428571D01*
X125642857Y-121952380D01*
X125642857Y-121428571D02*
X125690476Y-121333333D01*
X125785714Y-121285714D01*
X125928571Y-121285714D01*
X126023809Y-121333333D01*
X126071428Y-121428571D01*
X126071428Y-121952380D01*
X126547619Y-121952380D02*
X126547619Y-121285714D01*
X126547619Y-120952380D02*
X126500000Y-121000000D01*
X126547619Y-121047619D01*
X126595238Y-121000000D01*
X126547619Y-120952380D01*
X126547619Y-121047619D01*
X126880952Y-121285714D02*
X127261904Y-121285714D01*
X127023809Y-120952380D02*
X127023809Y-121809523D01*
X127071428Y-121904761D01*
X127166666Y-121952380D01*
X127261904Y-121952380D01*
X128928571Y-121857142D02*
X128880952Y-121904761D01*
X128738095Y-121952380D01*
X128642857Y-121952380D01*
X128500000Y-121904761D01*
X128404761Y-121809523D01*
X128357142Y-121714285D01*
X128309523Y-121523809D01*
X128309523Y-121380952D01*
X128357142Y-121190476D01*
X128404761Y-121095238D01*
X128500000Y-121000000D01*
X128642857Y-120952380D01*
X128738095Y-120952380D01*
X128880952Y-121000000D01*
X128928571Y-121047619D01*
X129357142Y-121952380D02*
X129357142Y-121285714D01*
X129357142Y-120952380D02*
X129309523Y-121000000D01*
X129357142Y-121047619D01*
X129404761Y-121000000D01*
X129357142Y-120952380D01*
X129357142Y-121047619D01*
X129833333Y-121952380D02*
X129833333Y-121285714D01*
X129833333Y-121476190D02*
X129880952Y-121380952D01*
X129928571Y-121333333D01*
X130023809Y-121285714D01*
X130119047Y-121285714D01*
X130880952Y-121904761D02*
X130785714Y-121952380D01*
X130595238Y-121952380D01*
X130500000Y-121904761D01*
X130452380Y-121857142D01*
X130404761Y-121761904D01*
X130404761Y-121476190D01*
X130452380Y-121380952D01*
X130500000Y-121333333D01*
X130595238Y-121285714D01*
X130785714Y-121285714D01*
X130880952Y-121333333D01*
X131738095Y-121285714D02*
X131738095Y-121952380D01*
X131309523Y-121285714D02*
X131309523Y-121809523D01*
X131357142Y-121904761D01*
X131452380Y-121952380D01*
X131595238Y-121952380D01*
X131690476Y-121904761D01*
X131738095Y-121857142D01*
X132214285Y-121952380D02*
X132214285Y-121285714D01*
X132214285Y-120952380D02*
X132166666Y-121000000D01*
X132214285Y-121047619D01*
X132261904Y-121000000D01*
X132214285Y-120952380D01*
X132214285Y-121047619D01*
X132547619Y-121285714D02*
X132928571Y-121285714D01*
X132690476Y-120952380D02*
X132690476Y-121809523D01*
X132738095Y-121904761D01*
X132833333Y-121952380D01*
X132928571Y-121952380D01*
X123714285Y-122797619D02*
X123761904Y-122750000D01*
X123857142Y-122702380D01*
X124095238Y-122702380D01*
X124190476Y-122750000D01*
X124238095Y-122797619D01*
X124285714Y-122892857D01*
X124285714Y-122988095D01*
X124238095Y-123130952D01*
X123666666Y-123702380D01*
X124285714Y-123702380D01*
X124904761Y-122702380D02*
X125000000Y-122702380D01*
X125095238Y-122750000D01*
X125142857Y-122797619D01*
X125190476Y-122892857D01*
X125238095Y-123083333D01*
X125238095Y-123321428D01*
X125190476Y-123511904D01*
X125142857Y-123607142D01*
X125095238Y-123654761D01*
X125000000Y-123702380D01*
X124904761Y-123702380D01*
X124809523Y-123654761D01*
X124761904Y-123607142D01*
X124714285Y-123511904D01*
X124666666Y-123321428D01*
X124666666Y-123083333D01*
X124714285Y-122892857D01*
X124761904Y-122797619D01*
X124809523Y-122750000D01*
X124904761Y-122702380D01*
X126190476Y-123702380D02*
X125619047Y-123702380D01*
X125904761Y-123702380D02*
X125904761Y-122702380D01*
X125809523Y-122845238D01*
X125714285Y-122940476D01*
X125619047Y-122988095D01*
X126666666Y-123702380D02*
X126857142Y-123702380D01*
X126952380Y-123654761D01*
X127000000Y-123607142D01*
X127095238Y-123464285D01*
X127142857Y-123273809D01*
X127142857Y-122892857D01*
X127095238Y-122797619D01*
X127047619Y-122750000D01*
X126952380Y-122702380D01*
X126761904Y-122702380D01*
X126666666Y-122750000D01*
X126619047Y-122797619D01*
X126571428Y-122892857D01*
X126571428Y-123130952D01*
X126619047Y-123226190D01*
X126666666Y-123273809D01*
X126761904Y-123321428D01*
X126952380Y-123321428D01*
X127047619Y-123273809D01*
X127095238Y-123226190D01*
X127142857Y-123130952D01*
X127571428Y-123321428D02*
X128333333Y-123321428D01*
X129000000Y-122702380D02*
X129095238Y-122702380D01*
X129190476Y-122750000D01*
X129238095Y-122797619D01*
X129285714Y-122892857D01*
X129333333Y-123083333D01*
X129333333Y-123321428D01*
X129285714Y-123511904D01*
X129238095Y-123607142D01*
X129190476Y-123654761D01*
X129095238Y-123702380D01*
X129000000Y-123702380D01*
X128904761Y-123654761D01*
X128857142Y-123607142D01*
X128809523Y-123511904D01*
X128761904Y-123321428D01*
X128761904Y-123083333D01*
X128809523Y-122892857D01*
X128857142Y-122797619D01*
X128904761Y-122750000D01*
X129000000Y-122702380D01*
X130238095Y-122702380D02*
X129761904Y-122702380D01*
X129714285Y-123178571D01*
X129761904Y-123130952D01*
X129857142Y-123083333D01*
X130095238Y-123083333D01*
X130190476Y-123130952D01*
X130238095Y-123178571D01*
X130285714Y-123273809D01*
X130285714Y-123511904D01*
X130238095Y-123607142D01*
X130190476Y-123654761D01*
X130095238Y-123702380D01*
X129857142Y-123702380D01*
X129761904Y-123654761D01*
X129714285Y-123607142D01*
D12*
G04 #@! TO.C,R1*
X104825000Y-122045000D02*
X104325000Y-122045000D01*
X104325000Y-123105000D02*
X104825000Y-123105000D01*
D13*
G04 #@! TO.C,U4*
X122025000Y-113700000D02*
X122025000Y-115300000D01*
X122025000Y-115300000D02*
X125225000Y-115300000D01*
X125225000Y-115300000D02*
X125225000Y-113700000D01*
X125225000Y-113700000D02*
X122025000Y-113700000D01*
X122487111Y-114510000D02*
G75*
G03X122487111Y-114510000I-72111J0D01*
G01*
D12*
G04 #@! TO.C,J2*
X117870000Y-122080000D02*
X117870000Y-119420000D01*
X115270000Y-122080000D02*
X117870000Y-122080000D01*
X115270000Y-119420000D02*
X117870000Y-119420000D01*
X115270000Y-122080000D02*
X115270000Y-119420000D01*
X114000000Y-122080000D02*
X112670000Y-122080000D01*
X112670000Y-122080000D02*
X112670000Y-120750000D01*
D13*
G04 #@! TO.C,U2*
X107907082Y-114060000D02*
G75*
G03X107907082Y-114060000I-67082J0D01*
G01*
X109250000Y-113750000D02*
X107250000Y-113750000D01*
X109250000Y-115750000D02*
X109250000Y-113750000D01*
X107250000Y-115750000D02*
X109250000Y-115750000D01*
X107250000Y-113750000D02*
X107250000Y-115750000D01*
G04 #@! TO.C,CON1*
X98960000Y-111180000D02*
X98960000Y-117830000D01*
X98960000Y-117830000D02*
X105540000Y-117830000D01*
X105540000Y-117830000D02*
X105540000Y-111190000D01*
X105540000Y-111190000D02*
X98940000Y-111190000D01*
G04 #@! TO.C,CON2*
X135540000Y-111190000D02*
X128940000Y-111190000D01*
X135540000Y-117830000D02*
X135540000Y-111190000D01*
X128960000Y-117830000D02*
X135540000Y-117830000D01*
X128960000Y-111180000D02*
X128960000Y-117830000D01*
G04 #@! TO.C,U1*
X106225000Y-120925000D02*
X106225000Y-122225000D01*
X106225000Y-122225000D02*
X109125000Y-122225000D01*
X109125000Y-122225000D02*
X109125000Y-120925000D01*
X109125000Y-120925000D02*
X106225000Y-120925000D01*
G04 #@! TO.C,U3*
X113840000Y-110965000D02*
X113840000Y-114785000D01*
X113840000Y-114785000D02*
X117660000Y-114785000D01*
X117660000Y-114785000D02*
X117660000Y-110965000D01*
X117660000Y-110965000D02*
X113840000Y-110965000D01*
X114536158Y-113595000D02*
G75*
G03X114536158Y-113595000I-76158J0D01*
G01*
D12*
G04 #@! TO.C,J1*
X99395000Y-123905000D02*
X102055000Y-123905000D01*
X99395000Y-123845000D02*
X99395000Y-123905000D01*
X102055000Y-123845000D02*
X102055000Y-123905000D01*
X99395000Y-123845000D02*
X102055000Y-123845000D01*
X99395000Y-122575000D02*
X99395000Y-121245000D01*
X99395000Y-121245000D02*
X100725000Y-121245000D01*
G04 #@! TO.C,C1*
X117325000Y-110095000D02*
X117825000Y-110095000D01*
X117825000Y-109155000D02*
X117325000Y-109155000D01*
G04 #@! TO.C,C2*
X108000000Y-118125000D02*
X108700000Y-118125000D01*
X108700000Y-119325000D02*
X108000000Y-119325000D01*
G04 #@! TD*
G04 #@! TO.C,U4*
D14*
X121040714Y-113875714D02*
X121040714Y-114175714D01*
X121040714Y-113890000D02*
X121069285Y-113875714D01*
X121126428Y-113875714D01*
X121155000Y-113890000D01*
X121169285Y-113904285D01*
X121183571Y-113932857D01*
X121183571Y-114018571D01*
X121169285Y-114047142D01*
X121155000Y-114061428D01*
X121126428Y-114075714D01*
X121069285Y-114075714D01*
X121040714Y-114061428D01*
X121312142Y-114075714D02*
X121312142Y-113875714D01*
X121312142Y-113775714D02*
X121297857Y-113790000D01*
X121312142Y-113804285D01*
X121326428Y-113790000D01*
X121312142Y-113775714D01*
X121312142Y-113804285D01*
X121455000Y-113875714D02*
X121455000Y-114075714D01*
X121455000Y-113904285D02*
X121469285Y-113890000D01*
X121497857Y-113875714D01*
X121540714Y-113875714D01*
X121569285Y-113890000D01*
X121583571Y-113918571D01*
X121583571Y-114075714D01*
X121883571Y-114075714D02*
X121712142Y-114075714D01*
X121797857Y-114075714D02*
X121797857Y-113775714D01*
X121769285Y-113818571D01*
X121740714Y-113847142D01*
X121712142Y-113861428D01*
G04 #@! TD*
M02*
