G04 #@! TF.GenerationSoftware,KiCad,Pcbnew,(5.0.1)-4*
G04 #@! TF.CreationDate,2019-05-23T13:05:23-07:00*
G04 #@! TF.ProjectId,Transmit_circuit,5472616E736D69745F63697263756974,rev?*
G04 #@! TF.SameCoordinates,Original*
G04 #@! TF.FileFunction,Copper,L4,Bot,Signal*
G04 #@! TF.FilePolarity,Positive*
%FSLAX46Y46*%
G04 Gerber Fmt 4.6, Leading zero omitted, Abs format (unit mm)*
G04 Created by KiCad (PCBNEW (5.0.1)-4) date 5/23/2019 1:05:23 PM*
%MOMM*%
%LPD*%
G01*
G04 APERTURE LIST*
G04 #@! TA.AperFunction,ComponentPad*
%ADD10C,0.600000*%
G04 #@! TD*
G04 #@! TA.AperFunction,ComponentPad*
%ADD11R,1.700000X1.700000*%
G04 #@! TD*
G04 #@! TA.AperFunction,ComponentPad*
%ADD12O,1.700000X1.700000*%
G04 #@! TD*
G04 #@! TA.AperFunction,ViaPad*
%ADD13C,0.350000*%
G04 #@! TD*
G04 #@! TA.AperFunction,ViaPad*
%ADD14C,0.600000*%
G04 #@! TD*
G04 #@! TA.AperFunction,ViaPad*
%ADD15C,0.800000*%
G04 #@! TD*
G04 #@! TA.AperFunction,Conductor*
%ADD16C,0.250000*%
G04 #@! TD*
G04 #@! TA.AperFunction,Conductor*
%ADD17C,0.267000*%
G04 #@! TD*
G04 #@! TA.AperFunction,Conductor*
%ADD18C,0.254000*%
G04 #@! TD*
G04 APERTURE END LIST*
D10*
G04 #@! TO.P,U4,2*
G04 #@! TO.N,GND*
X123055000Y-115700000D03*
X124195000Y-115700000D03*
G04 #@! TO.P,U4,4*
X123055000Y-113300000D03*
X124195000Y-113300000D03*
G04 #@! TD*
D11*
G04 #@! TO.P,J2,1*
G04 #@! TO.N,+5V*
X114000000Y-120750000D03*
D12*
G04 #@! TO.P,J2,2*
G04 #@! TO.N,GND*
X116540000Y-120750000D03*
G04 #@! TD*
D13*
G04 #@! TO.N,GND*
G04 #@! TO.C,U2*
X108250000Y-115470000D03*
X108250000Y-114990000D03*
X108250000Y-114500000D03*
X108250000Y-114030000D03*
G04 #@! TD*
D14*
G04 #@! TO.N,GND*
G04 #@! TO.C,U3*
X114400000Y-112875000D03*
X115750000Y-112875000D03*
X117100000Y-112875000D03*
X115750000Y-113975000D03*
X115750000Y-114975000D03*
G04 #@! TD*
D11*
G04 #@! TO.P,J1,1*
G04 #@! TO.N,Net-(J1-Pad1)*
X100725000Y-122575000D03*
G04 #@! TD*
D15*
G04 #@! TO.N,+5V*
X112250000Y-120750000D03*
X111000000Y-120750000D03*
X111000000Y-122000000D03*
X111000000Y-123250000D03*
X112250000Y-123250000D03*
X112250000Y-122000000D03*
X109300000Y-116900000D03*
X116000000Y-109900000D03*
X115950000Y-108800000D03*
X116900000Y-108650000D03*
G04 #@! TO.N,GND*
X117250000Y-123250000D03*
X118500000Y-123250000D03*
X118500000Y-122000000D03*
X118500000Y-120750000D03*
X102250000Y-112250000D03*
X99750000Y-114500000D03*
X102250000Y-116750000D03*
X132000000Y-112000000D03*
X134500000Y-114500000D03*
X132250000Y-116750000D03*
D13*
X115750000Y-115950000D03*
X114500000Y-115950000D03*
X117025000Y-115950000D03*
X118075000Y-115025000D03*
X118725000Y-115025000D03*
X119350000Y-115025000D03*
X119975000Y-115025000D03*
X120675000Y-115050000D03*
X121250000Y-115325000D03*
X121925000Y-115700000D03*
X118075000Y-113900000D03*
X118725000Y-113925000D03*
X119425000Y-113925000D03*
X120050000Y-113925000D03*
X120750000Y-113950000D03*
X121325000Y-113575000D03*
X122050000Y-113325000D03*
X104625000Y-113975000D03*
X105275000Y-113975000D03*
X105925000Y-113975000D03*
X106725000Y-113975000D03*
X104625000Y-115025000D03*
X105250000Y-115025000D03*
X105925000Y-115025000D03*
X106725000Y-115050000D03*
X113750000Y-115775000D03*
X113525000Y-115050000D03*
X112900000Y-115050000D03*
X112275000Y-115050000D03*
X111600000Y-115050000D03*
X111000000Y-115050000D03*
X110375000Y-115050000D03*
X109775000Y-115050000D03*
X113550000Y-112850000D03*
X113550000Y-113950000D03*
X112900000Y-113950000D03*
X112275000Y-113950000D03*
X111650000Y-113950000D03*
X111050000Y-113950000D03*
X110375000Y-113975000D03*
X109800000Y-113975000D03*
X125075000Y-113375000D03*
X125650000Y-113600000D03*
X126525000Y-113925000D03*
X127175000Y-113925000D03*
X127825000Y-113925000D03*
X128475000Y-113925000D03*
X129225000Y-113925000D03*
X130050000Y-113925000D03*
X124975000Y-115625000D03*
X125800000Y-115400000D03*
X126500000Y-115050000D03*
X127225000Y-115050000D03*
X128000000Y-115075000D03*
X128675000Y-115075000D03*
X129500000Y-115075000D03*
X130175000Y-115075000D03*
D15*
X106375000Y-112175000D03*
X108225000Y-112800000D03*
X110125000Y-112850000D03*
X112300000Y-108950000D03*
X110100000Y-108900000D03*
X110075000Y-110700000D03*
X108200000Y-110625000D03*
X108150000Y-108925000D03*
X105875000Y-108875000D03*
X103350000Y-108850000D03*
X99850000Y-108875000D03*
X114200000Y-108950000D03*
X106475000Y-116875000D03*
X105800000Y-118975000D03*
X103375000Y-118975000D03*
X99975000Y-118975000D03*
X112625000Y-118100000D03*
X112600000Y-116475000D03*
X110700000Y-116425000D03*
X115700000Y-118050000D03*
X117925000Y-118100000D03*
X118525000Y-116500000D03*
X120375000Y-116550000D03*
X120450000Y-118225000D03*
X122125000Y-117075000D03*
X124300000Y-117075000D03*
X127600000Y-116600000D03*
X134650000Y-118825000D03*
X132400000Y-118825000D03*
X129725000Y-118800000D03*
X127450000Y-118775000D03*
X125175000Y-118775000D03*
X122550000Y-118750000D03*
X136400000Y-112125000D03*
X136400000Y-114775000D03*
X136375000Y-117075000D03*
X136325000Y-118850000D03*
X134825000Y-109750000D03*
X132075000Y-109825000D03*
X129900000Y-109775000D03*
X127925000Y-109850000D03*
X127925000Y-112250000D03*
X125975000Y-112225000D03*
X126050000Y-109725000D03*
X123650000Y-109725000D03*
X123625000Y-112000000D03*
X121325000Y-111975000D03*
X121100000Y-109650000D03*
X99850000Y-110275000D03*
X102250000Y-110275000D03*
X104725000Y-110200000D03*
D13*
X104000000Y-113975000D03*
X104000000Y-115025000D03*
X130825000Y-113925000D03*
X130825000Y-115075000D03*
D15*
X118425000Y-110725000D03*
X118425000Y-111925000D03*
X118375000Y-113025000D03*
X119875000Y-112975000D03*
X119875000Y-111225000D03*
X113275000Y-110150000D03*
X113275000Y-111550000D03*
X112550000Y-112900000D03*
X111450000Y-111650000D03*
X110600000Y-118725000D03*
X108625000Y-123950000D03*
X109100000Y-120500000D03*
X104500000Y-120625000D03*
G04 #@! TD*
D16*
G04 #@! TO.N,GND*
X117250000Y-123250000D02*
X118500000Y-123250000D01*
X118500000Y-122000000D02*
X118500000Y-120750000D01*
D17*
X115750000Y-114975000D02*
X115750000Y-115950000D01*
X117025000Y-115950000D02*
X117150000Y-115950000D01*
X117150000Y-115950000D02*
X118075000Y-115025000D01*
X118725000Y-115025000D02*
X119350000Y-115025000D01*
X119975000Y-115025000D02*
X120650000Y-115025000D01*
X120650000Y-115025000D02*
X120675000Y-115050000D01*
X121250000Y-115325000D02*
X121550000Y-115325000D01*
X121550000Y-115325000D02*
X121925000Y-115700000D01*
X118075000Y-113900000D02*
X118700000Y-113900000D01*
X118700000Y-113900000D02*
X118725000Y-113925000D01*
X119425000Y-113925000D02*
X120050000Y-113925000D01*
X120750000Y-113950000D02*
X120950000Y-113950000D01*
X120950000Y-113950000D02*
X121325000Y-113575000D01*
X123030000Y-113325000D02*
X123055000Y-113300000D01*
X122050000Y-113325000D02*
X123030000Y-113325000D01*
X104625000Y-113975000D02*
X105275000Y-113975000D01*
X105925000Y-113975000D02*
X106725000Y-113975000D01*
X104625000Y-115025000D02*
X105250000Y-115025000D01*
X105925000Y-115025000D02*
X106700000Y-115025000D01*
X106700000Y-115025000D02*
X106725000Y-115050000D01*
X113750000Y-115775000D02*
X113750000Y-115275000D01*
X113750000Y-115275000D02*
X113525000Y-115050000D01*
X112900000Y-115050000D02*
X112275000Y-115050000D01*
X111600000Y-115050000D02*
X111000000Y-115050000D01*
X110375000Y-115050000D02*
X109775000Y-115050000D01*
X113550000Y-112850000D02*
X113550000Y-113950000D01*
X112900000Y-113950000D02*
X112275000Y-113950000D01*
X111650000Y-113950000D02*
X111050000Y-113950000D01*
X110375000Y-113975000D02*
X109800000Y-113975000D01*
X125075000Y-113375000D02*
X125425000Y-113375000D01*
X125425000Y-113375000D02*
X125650000Y-113600000D01*
X126525000Y-113925000D02*
X127175000Y-113925000D01*
X127825000Y-113925000D02*
X128475000Y-113925000D01*
X129225000Y-113925000D02*
X130050000Y-113925000D01*
X124975000Y-115625000D02*
X125575000Y-115625000D01*
X125575000Y-115625000D02*
X125800000Y-115400000D01*
X126500000Y-115050000D02*
X127225000Y-115050000D01*
X128000000Y-115075000D02*
X128675000Y-115075000D01*
X129500000Y-115075000D02*
X130175000Y-115075000D01*
X106375000Y-112175000D02*
X107600000Y-112175000D01*
X107600000Y-112175000D02*
X108225000Y-112800000D01*
X110100000Y-108900000D02*
X110100000Y-110675000D01*
X110100000Y-110675000D02*
X110075000Y-110700000D01*
X108200000Y-110625000D02*
X108200000Y-108975000D01*
X108200000Y-108975000D02*
X108150000Y-108925000D01*
X105875000Y-108875000D02*
X103375000Y-108875000D01*
X103375000Y-108875000D02*
X103350000Y-108850000D01*
X112300000Y-108950000D02*
X114200000Y-108950000D01*
X106475000Y-116875000D02*
X106475000Y-118300000D01*
X106475000Y-118300000D02*
X105800000Y-118975000D01*
X103375000Y-118975000D02*
X99975000Y-118975000D01*
X112625000Y-118100000D02*
X112625000Y-116500000D01*
X112625000Y-116500000D02*
X112600000Y-116475000D01*
X112625000Y-118100000D02*
X115650000Y-118100000D01*
X115650000Y-118100000D02*
X115700000Y-118050000D01*
X117925000Y-118100000D02*
X117925000Y-117100000D01*
X117925000Y-117100000D02*
X118525000Y-116500000D01*
X120375000Y-116550000D02*
X120375000Y-118150000D01*
X120375000Y-118150000D02*
X120450000Y-118225000D01*
X122125000Y-117075000D02*
X124300000Y-117075000D01*
X134650000Y-118825000D02*
X132400000Y-118825000D01*
X129725000Y-118800000D02*
X127475000Y-118800000D01*
X127475000Y-118800000D02*
X127450000Y-118775000D01*
X125175000Y-118775000D02*
X122575000Y-118775000D01*
X122575000Y-118775000D02*
X122550000Y-118750000D01*
X136400000Y-112125000D02*
X136400000Y-114775000D01*
X136375000Y-117075000D02*
X136375000Y-118800000D01*
X136375000Y-118800000D02*
X136325000Y-118850000D01*
X134825000Y-109750000D02*
X132150000Y-109750000D01*
X132150000Y-109750000D02*
X132075000Y-109825000D01*
X129900000Y-109775000D02*
X128000000Y-109775000D01*
X128000000Y-109775000D02*
X127925000Y-109850000D01*
X127925000Y-112250000D02*
X126000000Y-112250000D01*
X126000000Y-112250000D02*
X125975000Y-112225000D01*
X126050000Y-109725000D02*
X123650000Y-109725000D01*
X123625000Y-112000000D02*
X121350000Y-112000000D01*
X121350000Y-112000000D02*
X121325000Y-111975000D01*
X99850000Y-110275000D02*
X102250000Y-110275000D01*
D16*
X104625000Y-115025000D02*
X104000000Y-115025000D01*
X130175000Y-115075000D02*
X130825000Y-115075000D01*
X118425000Y-111925000D02*
X118425000Y-112975000D01*
X118425000Y-112975000D02*
X118375000Y-113025000D01*
X119875000Y-112975000D02*
X119875000Y-111225000D01*
X113275000Y-110150000D02*
X113275000Y-111550000D01*
X112550000Y-112900000D02*
X112550000Y-112750000D01*
X112550000Y-112750000D02*
X111450000Y-111650000D01*
X103375000Y-118975000D02*
X103375000Y-119500000D01*
X103375000Y-119500000D02*
X104500000Y-120625000D01*
G04 #@! TD*
D18*
G04 #@! TO.N,GND*
G36*
X115550649Y-108202330D02*
X115352330Y-108400649D01*
X115245000Y-108659767D01*
X115245000Y-108940233D01*
X115352330Y-109199351D01*
X115527979Y-109375000D01*
X115402330Y-109500649D01*
X115295000Y-109759767D01*
X115295000Y-110040233D01*
X115402330Y-110299351D01*
X115600649Y-110497670D01*
X115859767Y-110605000D01*
X116140233Y-110605000D01*
X116399351Y-110497670D01*
X116597670Y-110299351D01*
X116705000Y-110040233D01*
X116705000Y-109759767D01*
X116597670Y-109500649D01*
X116422021Y-109325000D01*
X116500000Y-109247021D01*
X116500649Y-109247670D01*
X116759767Y-109355000D01*
X117040233Y-109355000D01*
X117299351Y-109247670D01*
X117497670Y-109049351D01*
X117605000Y-108790233D01*
X117605000Y-108509767D01*
X117497670Y-108250649D01*
X117374021Y-108127000D01*
X136873000Y-108127000D01*
X136873000Y-124873000D01*
X98127000Y-124873000D01*
X98127000Y-121725000D01*
X99564025Y-121725000D01*
X99564025Y-123425000D01*
X99587697Y-123544005D01*
X99655107Y-123644893D01*
X99755995Y-123712303D01*
X99875000Y-123735975D01*
X101575000Y-123735975D01*
X101694005Y-123712303D01*
X101794893Y-123644893D01*
X101862303Y-123544005D01*
X101885975Y-123425000D01*
X101885975Y-121725000D01*
X101862303Y-121605995D01*
X101794893Y-121505107D01*
X101694005Y-121437697D01*
X101575000Y-121414025D01*
X99875000Y-121414025D01*
X99755995Y-121437697D01*
X99655107Y-121505107D01*
X99587697Y-121605995D01*
X99564025Y-121725000D01*
X98127000Y-121725000D01*
X98127000Y-120609767D01*
X110295000Y-120609767D01*
X110295000Y-120890233D01*
X110402330Y-121149351D01*
X110600649Y-121347670D01*
X110666630Y-121375000D01*
X110600649Y-121402330D01*
X110402330Y-121600649D01*
X110295000Y-121859767D01*
X110295000Y-122140233D01*
X110402330Y-122399351D01*
X110600649Y-122597670D01*
X110666630Y-122625000D01*
X110600649Y-122652330D01*
X110402330Y-122850649D01*
X110295000Y-123109767D01*
X110295000Y-123390233D01*
X110402330Y-123649351D01*
X110600649Y-123847670D01*
X110859767Y-123955000D01*
X111140233Y-123955000D01*
X111399351Y-123847670D01*
X111597670Y-123649351D01*
X111625000Y-123583370D01*
X111652330Y-123649351D01*
X111850649Y-123847670D01*
X112109767Y-123955000D01*
X112390233Y-123955000D01*
X112649351Y-123847670D01*
X112847670Y-123649351D01*
X112955000Y-123390233D01*
X112955000Y-123109767D01*
X112847670Y-122850649D01*
X112649351Y-122652330D01*
X112583370Y-122625000D01*
X112649351Y-122597670D01*
X112847670Y-122399351D01*
X112955000Y-122140233D01*
X112955000Y-121859767D01*
X112941689Y-121827632D01*
X113030995Y-121887303D01*
X113150000Y-121910975D01*
X114850000Y-121910975D01*
X114969005Y-121887303D01*
X115069893Y-121819893D01*
X115137303Y-121719005D01*
X115160975Y-121600000D01*
X115160975Y-119900000D01*
X115137303Y-119780995D01*
X115069893Y-119680107D01*
X114969005Y-119612697D01*
X114850000Y-119589025D01*
X113150000Y-119589025D01*
X113030995Y-119612697D01*
X112930107Y-119680107D01*
X112862697Y-119780995D01*
X112839025Y-119900000D01*
X112839025Y-120342004D01*
X112649351Y-120152330D01*
X112390233Y-120045000D01*
X112109767Y-120045000D01*
X111850649Y-120152330D01*
X111652330Y-120350649D01*
X111625000Y-120416630D01*
X111597670Y-120350649D01*
X111399351Y-120152330D01*
X111140233Y-120045000D01*
X110859767Y-120045000D01*
X110600649Y-120152330D01*
X110402330Y-120350649D01*
X110295000Y-120609767D01*
X98127000Y-120609767D01*
X98127000Y-116759767D01*
X108595000Y-116759767D01*
X108595000Y-117040233D01*
X108702330Y-117299351D01*
X108900649Y-117497670D01*
X109159767Y-117605000D01*
X109440233Y-117605000D01*
X109699351Y-117497670D01*
X109897670Y-117299351D01*
X110005000Y-117040233D01*
X110005000Y-116759767D01*
X109897670Y-116500649D01*
X109699351Y-116302330D01*
X109440233Y-116195000D01*
X109159767Y-116195000D01*
X108900649Y-116302330D01*
X108702330Y-116500649D01*
X108595000Y-116759767D01*
X98127000Y-116759767D01*
X98127000Y-108127000D01*
X115732512Y-108127000D01*
X115550649Y-108202330D01*
X115550649Y-108202330D01*
G37*
X115550649Y-108202330D02*
X115352330Y-108400649D01*
X115245000Y-108659767D01*
X115245000Y-108940233D01*
X115352330Y-109199351D01*
X115527979Y-109375000D01*
X115402330Y-109500649D01*
X115295000Y-109759767D01*
X115295000Y-110040233D01*
X115402330Y-110299351D01*
X115600649Y-110497670D01*
X115859767Y-110605000D01*
X116140233Y-110605000D01*
X116399351Y-110497670D01*
X116597670Y-110299351D01*
X116705000Y-110040233D01*
X116705000Y-109759767D01*
X116597670Y-109500649D01*
X116422021Y-109325000D01*
X116500000Y-109247021D01*
X116500649Y-109247670D01*
X116759767Y-109355000D01*
X117040233Y-109355000D01*
X117299351Y-109247670D01*
X117497670Y-109049351D01*
X117605000Y-108790233D01*
X117605000Y-108509767D01*
X117497670Y-108250649D01*
X117374021Y-108127000D01*
X136873000Y-108127000D01*
X136873000Y-124873000D01*
X98127000Y-124873000D01*
X98127000Y-121725000D01*
X99564025Y-121725000D01*
X99564025Y-123425000D01*
X99587697Y-123544005D01*
X99655107Y-123644893D01*
X99755995Y-123712303D01*
X99875000Y-123735975D01*
X101575000Y-123735975D01*
X101694005Y-123712303D01*
X101794893Y-123644893D01*
X101862303Y-123544005D01*
X101885975Y-123425000D01*
X101885975Y-121725000D01*
X101862303Y-121605995D01*
X101794893Y-121505107D01*
X101694005Y-121437697D01*
X101575000Y-121414025D01*
X99875000Y-121414025D01*
X99755995Y-121437697D01*
X99655107Y-121505107D01*
X99587697Y-121605995D01*
X99564025Y-121725000D01*
X98127000Y-121725000D01*
X98127000Y-120609767D01*
X110295000Y-120609767D01*
X110295000Y-120890233D01*
X110402330Y-121149351D01*
X110600649Y-121347670D01*
X110666630Y-121375000D01*
X110600649Y-121402330D01*
X110402330Y-121600649D01*
X110295000Y-121859767D01*
X110295000Y-122140233D01*
X110402330Y-122399351D01*
X110600649Y-122597670D01*
X110666630Y-122625000D01*
X110600649Y-122652330D01*
X110402330Y-122850649D01*
X110295000Y-123109767D01*
X110295000Y-123390233D01*
X110402330Y-123649351D01*
X110600649Y-123847670D01*
X110859767Y-123955000D01*
X111140233Y-123955000D01*
X111399351Y-123847670D01*
X111597670Y-123649351D01*
X111625000Y-123583370D01*
X111652330Y-123649351D01*
X111850649Y-123847670D01*
X112109767Y-123955000D01*
X112390233Y-123955000D01*
X112649351Y-123847670D01*
X112847670Y-123649351D01*
X112955000Y-123390233D01*
X112955000Y-123109767D01*
X112847670Y-122850649D01*
X112649351Y-122652330D01*
X112583370Y-122625000D01*
X112649351Y-122597670D01*
X112847670Y-122399351D01*
X112955000Y-122140233D01*
X112955000Y-121859767D01*
X112941689Y-121827632D01*
X113030995Y-121887303D01*
X113150000Y-121910975D01*
X114850000Y-121910975D01*
X114969005Y-121887303D01*
X115069893Y-121819893D01*
X115137303Y-121719005D01*
X115160975Y-121600000D01*
X115160975Y-119900000D01*
X115137303Y-119780995D01*
X115069893Y-119680107D01*
X114969005Y-119612697D01*
X114850000Y-119589025D01*
X113150000Y-119589025D01*
X113030995Y-119612697D01*
X112930107Y-119680107D01*
X112862697Y-119780995D01*
X112839025Y-119900000D01*
X112839025Y-120342004D01*
X112649351Y-120152330D01*
X112390233Y-120045000D01*
X112109767Y-120045000D01*
X111850649Y-120152330D01*
X111652330Y-120350649D01*
X111625000Y-120416630D01*
X111597670Y-120350649D01*
X111399351Y-120152330D01*
X111140233Y-120045000D01*
X110859767Y-120045000D01*
X110600649Y-120152330D01*
X110402330Y-120350649D01*
X110295000Y-120609767D01*
X98127000Y-120609767D01*
X98127000Y-116759767D01*
X108595000Y-116759767D01*
X108595000Y-117040233D01*
X108702330Y-117299351D01*
X108900649Y-117497670D01*
X109159767Y-117605000D01*
X109440233Y-117605000D01*
X109699351Y-117497670D01*
X109897670Y-117299351D01*
X110005000Y-117040233D01*
X110005000Y-116759767D01*
X109897670Y-116500649D01*
X109699351Y-116302330D01*
X109440233Y-116195000D01*
X109159767Y-116195000D01*
X108900649Y-116302330D01*
X108702330Y-116500649D01*
X108595000Y-116759767D01*
X98127000Y-116759767D01*
X98127000Y-108127000D01*
X115732512Y-108127000D01*
X115550649Y-108202330D01*
G04 #@! TD*
M02*
