G04 #@! TF.GenerationSoftware,KiCad,Pcbnew,(5.0.1)-4*
G04 #@! TF.CreationDate,2019-05-23T13:05:23-07:00*
G04 #@! TF.ProjectId,Transmit_circuit,5472616E736D69745F63697263756974,rev?*
G04 #@! TF.SameCoordinates,Original*
G04 #@! TF.FileFunction,Paste,Top*
G04 #@! TF.FilePolarity,Positive*
%FSLAX46Y46*%
G04 Gerber Fmt 4.6, Leading zero omitted, Abs format (unit mm)*
G04 Created by KiCad (PCBNEW (5.0.1)-4) date 5/23/2019 1:05:23 PM*
%MOMM*%
%LPD*%
G01*
G04 APERTURE LIST*
%ADD10R,0.400000X0.600000*%
%ADD11R,0.990000X0.610000*%
%ADD12R,1.750000X0.990000*%
%ADD13R,0.600000X1.200000*%
%ADD14R,0.350000X0.250000*%
%ADD15R,1.900000X1.900000*%
%ADD16R,1.500000X1.500000*%
%ADD17C,0.200000*%
%ADD18C,0.318000*%
%ADD19R,0.800000X0.900000*%
%ADD20R,0.790000X1.680000*%
%ADD21R,3.330000X0.690000*%
%ADD22R,0.690000X2.110000*%
%ADD23R,0.600000X0.500000*%
%ADD24R,0.800000X0.750000*%
G04 APERTURE END LIST*
D10*
G04 #@! TO.C,R1*
X104125000Y-122575000D03*
X105025000Y-122575000D03*
G04 #@! TD*
D11*
G04 #@! TO.C,U4*
X121810000Y-114500000D03*
D12*
X123625000Y-115515000D03*
D11*
X125440000Y-114500000D03*
D12*
X123625000Y-113485000D03*
G04 #@! TD*
D13*
G04 #@! TO.C,U2*
X108250000Y-114750000D03*
D14*
X108925000Y-114000000D03*
X108925000Y-114500000D03*
X108925000Y-115000000D03*
X108925000Y-115500000D03*
X107575000Y-115500000D03*
X107575000Y-115000000D03*
X107575000Y-114500000D03*
X107575000Y-114000000D03*
G04 #@! TD*
D15*
G04 #@! TO.C,CON1*
X104625000Y-112125000D03*
X104625000Y-116875000D03*
X99875000Y-116875000D03*
X99875000Y-112125000D03*
D16*
X102250000Y-114500000D03*
G04 #@! TD*
G04 #@! TO.C,CON2*
X132250000Y-114500000D03*
D15*
X129875000Y-112125000D03*
X129875000Y-116875000D03*
X134625000Y-116875000D03*
X134625000Y-112125000D03*
G04 #@! TD*
D17*
G04 #@! TO.C,R2*
G36*
X107642292Y-116695383D02*
X107650010Y-116696528D01*
X107657578Y-116698423D01*
X107664923Y-116701052D01*
X107671976Y-116704387D01*
X107678668Y-116708398D01*
X107684934Y-116713046D01*
X107690715Y-116718285D01*
X107695954Y-116724066D01*
X107700602Y-116730332D01*
X107704613Y-116737024D01*
X107707948Y-116744077D01*
X107710577Y-116751422D01*
X107712472Y-116758990D01*
X107713617Y-116766708D01*
X107714000Y-116774500D01*
X107714000Y-116975500D01*
X107713617Y-116983292D01*
X107712472Y-116991010D01*
X107710577Y-116998578D01*
X107707948Y-117005923D01*
X107704613Y-117012976D01*
X107700602Y-117019668D01*
X107695954Y-117025934D01*
X107690715Y-117031715D01*
X107684934Y-117036954D01*
X107678668Y-117041602D01*
X107671976Y-117045613D01*
X107664923Y-117048948D01*
X107657578Y-117051577D01*
X107650010Y-117053472D01*
X107642292Y-117054617D01*
X107634500Y-117055000D01*
X107475500Y-117055000D01*
X107467708Y-117054617D01*
X107459990Y-117053472D01*
X107452422Y-117051577D01*
X107445077Y-117048948D01*
X107438024Y-117045613D01*
X107431332Y-117041602D01*
X107425066Y-117036954D01*
X107419285Y-117031715D01*
X107414046Y-117025934D01*
X107409398Y-117019668D01*
X107405387Y-117012976D01*
X107402052Y-117005923D01*
X107399423Y-116998578D01*
X107397528Y-116991010D01*
X107396383Y-116983292D01*
X107396000Y-116975500D01*
X107396000Y-116774500D01*
X107396383Y-116766708D01*
X107397528Y-116758990D01*
X107399423Y-116751422D01*
X107402052Y-116744077D01*
X107405387Y-116737024D01*
X107409398Y-116730332D01*
X107414046Y-116724066D01*
X107419285Y-116718285D01*
X107425066Y-116713046D01*
X107431332Y-116708398D01*
X107438024Y-116704387D01*
X107445077Y-116701052D01*
X107452422Y-116698423D01*
X107459990Y-116696528D01*
X107467708Y-116695383D01*
X107475500Y-116695000D01*
X107634500Y-116695000D01*
X107642292Y-116695383D01*
X107642292Y-116695383D01*
G37*
D18*
X107555000Y-116875000D03*
D17*
G36*
X108332292Y-116695383D02*
X108340010Y-116696528D01*
X108347578Y-116698423D01*
X108354923Y-116701052D01*
X108361976Y-116704387D01*
X108368668Y-116708398D01*
X108374934Y-116713046D01*
X108380715Y-116718285D01*
X108385954Y-116724066D01*
X108390602Y-116730332D01*
X108394613Y-116737024D01*
X108397948Y-116744077D01*
X108400577Y-116751422D01*
X108402472Y-116758990D01*
X108403617Y-116766708D01*
X108404000Y-116774500D01*
X108404000Y-116975500D01*
X108403617Y-116983292D01*
X108402472Y-116991010D01*
X108400577Y-116998578D01*
X108397948Y-117005923D01*
X108394613Y-117012976D01*
X108390602Y-117019668D01*
X108385954Y-117025934D01*
X108380715Y-117031715D01*
X108374934Y-117036954D01*
X108368668Y-117041602D01*
X108361976Y-117045613D01*
X108354923Y-117048948D01*
X108347578Y-117051577D01*
X108340010Y-117053472D01*
X108332292Y-117054617D01*
X108324500Y-117055000D01*
X108165500Y-117055000D01*
X108157708Y-117054617D01*
X108149990Y-117053472D01*
X108142422Y-117051577D01*
X108135077Y-117048948D01*
X108128024Y-117045613D01*
X108121332Y-117041602D01*
X108115066Y-117036954D01*
X108109285Y-117031715D01*
X108104046Y-117025934D01*
X108099398Y-117019668D01*
X108095387Y-117012976D01*
X108092052Y-117005923D01*
X108089423Y-116998578D01*
X108087528Y-116991010D01*
X108086383Y-116983292D01*
X108086000Y-116975500D01*
X108086000Y-116774500D01*
X108086383Y-116766708D01*
X108087528Y-116758990D01*
X108089423Y-116751422D01*
X108092052Y-116744077D01*
X108095387Y-116737024D01*
X108099398Y-116730332D01*
X108104046Y-116724066D01*
X108109285Y-116718285D01*
X108115066Y-116713046D01*
X108121332Y-116708398D01*
X108128024Y-116704387D01*
X108135077Y-116701052D01*
X108142422Y-116698423D01*
X108149990Y-116696528D01*
X108157708Y-116695383D01*
X108165500Y-116695000D01*
X108324500Y-116695000D01*
X108332292Y-116695383D01*
X108332292Y-116695383D01*
G37*
D18*
X108245000Y-116875000D03*
G04 #@! TD*
D19*
G04 #@! TO.C,U1*
X107675000Y-120575000D03*
X106725000Y-122575000D03*
X108625000Y-122575000D03*
G04 #@! TD*
D20*
G04 #@! TO.C,U3*
X114480000Y-114485000D03*
X117020000Y-114485000D03*
X117020000Y-111265000D03*
X114480000Y-111265000D03*
D21*
X115750000Y-112875000D03*
D22*
X115750000Y-114275000D03*
G04 #@! TD*
D23*
G04 #@! TO.C,C1*
X118075000Y-109625000D03*
X117075000Y-109625000D03*
G04 #@! TD*
D24*
G04 #@! TO.C,C2*
X107600000Y-118725000D03*
X109100000Y-118725000D03*
G04 #@! TD*
M02*
