M48
;DRILL file {KiCad (5.0.1)-4} date 5/23/2019 1:05:31 PM
;FORMAT={2:4/ absolute / inch / suppress leading zeros}
FMAT,2
INCH,TZ
T1C0.0100
T2C0.0130
T3C0.0134
T4C0.0157
T5C0.0394
%
G90
G05
M72
T1
X40945Y-44872
X40945Y-45285
X41191Y-44872
X41191Y-45285
X41437Y-45285
X41447Y-44872
X41703Y-44872
X41703Y-45285
X42018Y-44872
X42018Y-45295
X43219Y-45295
X43228Y-44872
X43455Y-44872
X43455Y-45295
X43701Y-45295
X43720Y-44862
X43937Y-45295
X43957Y-44862
X44203Y-44862
X44203Y-45295
X44449Y-44862
X44449Y-45295
X44695Y-45295
X44705Y-44429
X44705Y-44862
X44783Y-45581
X45079Y-45650
X45571Y-45650
X46073Y-45650
X46486Y-44843
X46486Y-45285
X46742Y-44852
X46742Y-45285
X46988Y-45285
X47018Y-44852
X47234Y-45285
X47264Y-44852
X47510Y-45295
X47539Y-44862
X47736Y-45404
X47766Y-44715
X48002Y-45551
X48051Y-44616
X49203Y-45522
X49242Y-44636
X49469Y-44724
X49528Y-45433
X49803Y-45295
X49813Y-44852
X50069Y-44852
X50089Y-45295
X50325Y-44852
X50394Y-45305
X50581Y-44852
X50659Y-45305
X50876Y-44852
X50984Y-45305
X51201Y-44852
X51250Y-45305
X51506Y-44852
X51506Y-45305
X42618Y-44894
X42618Y-45079
X42618Y-45272
X42618Y-45461
T2
X45039Y-44439
X45571Y-44439
X45571Y-44872
X45571Y-45266
X46102Y-44439
T3
X48447Y-44606
X48447Y-45551
X48896Y-44606
X48896Y-45551
T4
X39272Y-45079
X39311Y-42864
X39311Y-43415
X39360Y-46841
X40256Y-43415
X40256Y-44193
X40256Y-45965
X40689Y-42854
X40699Y-46841
X41142Y-47490
X41230Y-43386
X41654Y-46841
X41683Y-42864
X41880Y-44163
X41919Y-46014
X42579Y-42884
X42598Y-43553
X42608Y-44409
X42766Y-48799
X42953Y-47441
X43031Y-46024
X43337Y-43583
X43346Y-42874
X43356Y-44429
X43543Y-46742
X43583Y-45837
X43701Y-47539
X43701Y-48031
X43701Y-48524
X43878Y-43957
X44193Y-47539
X44193Y-48031
X44193Y-48524
X44213Y-42894
X44311Y-44449
X44331Y-45856
X44341Y-46496
X44596Y-43366
X44596Y-43917
X44961Y-42894
X45551Y-46476
X45650Y-42835
X45669Y-43268
X46024Y-42776
X46161Y-48524
X46427Y-46496
X46604Y-44498
X46624Y-43593
X46624Y-44065
X46654Y-47539
X46654Y-48031
X46654Y-48524
X46663Y-45866
X47195Y-43789
X47195Y-44478
X47392Y-45886
X47421Y-46545
X47677Y-43169
X47766Y-44085
X48081Y-46093
X48248Y-46752
X48671Y-44094
X48681Y-43199
X48937Y-46093
X49281Y-46762
X49596Y-44183
X49626Y-43199
X50177Y-46762
X50236Y-45906
X50364Y-43248
X50364Y-44193
X51073Y-46772
X51142Y-43219
X51969Y-44094
X51998Y-43238
X52067Y-45965
X52126Y-46781
X52953Y-45079
X53012Y-46781
X53081Y-43209
X53671Y-46791
X53691Y-46093
X53701Y-44144
X53701Y-45187
T5
X39656Y-48258
X44882Y-47539
X45882Y-47539
T0
M30
