M48
;DRILL file {KiCad (5.0.1)-4} date 7/25/2019 1:07:37 PM
;FORMAT={2:4/ absolute / inch / suppress leading zeros}
FMAT,2
INCH,TZ
T1C0.0118
T2C0.0130
T3C0.0134
T4C0.0138
T5C0.0157
T6C0.0354
T7C0.0394
T8C0.0402
T9C0.0433
%
G90
G05
M72
T1
X28268Y-27047
X28268Y-27559
X28780Y-27047
X28780Y-27559
T2
X19705Y-60630
X20098Y-60630
X20531Y-60098
X20531Y-60630
X20531Y-61161
X38996Y-60630
X39390Y-60630
X39823Y-60098
X39823Y-60630
X39823Y-61161
X27972Y-60630
X28366Y-60630
X28799Y-60098
X28799Y-60630
X28799Y-61161
X47264Y-60630
X47657Y-60630
X48091Y-60098
X48091Y-60630
X48091Y-61161
T3
X38504Y-62768
X38504Y-63217
X39449Y-62768
X39449Y-63217
X39138Y-46185
X39138Y-46776
X39638Y-46185
X39638Y-46776
X40138Y-45594
X40138Y-46185
X40138Y-46776
X40638Y-45594
X40638Y-46185
X41138Y-45594
X41138Y-46185
X46772Y-62768
X46772Y-63217
X47717Y-62768
X47717Y-63217
X19213Y-62768
X19213Y-63217
X20157Y-62768
X20157Y-63217
X36478Y-44333
X36478Y-45278
X36927Y-44333
X36927Y-45278
X27480Y-62768
X27480Y-63217
X28425Y-62768
X28425Y-63217
T4
X43110Y-53232
X33465Y-48114
X23819Y-53232
T5
X15594Y-47012
X15594Y-56866
X16043Y-59843
X16043Y-60433
X16043Y-61024
X16043Y-61614
X16634Y-59843
X16634Y-60433
X16634Y-61024
X16634Y-61614
X16819Y-46339
X16819Y-56850
X17205Y-59232
X17224Y-59843
X17224Y-60433
X17224Y-61024
X17224Y-61614
X17224Y-62008
X17224Y-62598
X17224Y-63189
X17224Y-63780
X17815Y-59843
X17815Y-60433
X17815Y-61024
X17815Y-61614
X17815Y-62008
X17815Y-62598
X17815Y-63189
X17815Y-63780
X17902Y-57579
X18075Y-64803
X18083Y-66685
X18091Y-65413
X18091Y-66083
X18453Y-57894
X18492Y-59055
X18701Y-59547
X18701Y-60138
X18701Y-60728
X18701Y-61319
X18701Y-61811
X18701Y-62402
X18701Y-62992
X18701Y-63583
X18740Y-64016
X18752Y-65720
X19213Y-55433
X19213Y-55827
X19213Y-56181
X19213Y-56535
X19213Y-56890
X19213Y-57244
X19213Y-57598
X19213Y-57953
X19213Y-59409
X19213Y-59764
X19213Y-60118
X19213Y-60453
X19213Y-60827
X19213Y-61201
X19213Y-61575
X19213Y-61929
X19213Y-62323
X19213Y-63642
X19213Y-64016
X19232Y-65512
X19232Y-65925
X19331Y-64449
X19331Y-64803
X19331Y-65138
X19488Y-55157
X19665Y-66181
X19665Y-66693
X19685Y-34134
X19921Y-55079
X19980Y-52461
X19980Y-53051
X19980Y-53642
X19980Y-54232
X20039Y-64469
X20039Y-64803
X20039Y-65157
X20138Y-65531
X20138Y-65945
X20157Y-55945
X20157Y-56299
X20157Y-56654
X20157Y-57008
X20157Y-57362
X20157Y-57717
X20157Y-58071
X20157Y-58425
X20157Y-58858
X20157Y-59272
X20157Y-59665
X20157Y-61575
X20157Y-61929
X20157Y-62303
X20157Y-63642
X20157Y-64035
X20276Y-55079
X20531Y-59665
X20531Y-61575
X20571Y-52461
X20571Y-53051
X20571Y-53642
X20571Y-54232
X20591Y-55945
X20614Y-65709
X20630Y-55079
X20630Y-64035
X20669Y-50000
X20669Y-50591
X20669Y-51181
X20669Y-51772
X20799Y-32307
X20803Y-35854
X20866Y-30315
X20945Y-55945
X20945Y-61575
X20965Y-62008
X20965Y-62598
X20965Y-63189
X20965Y-63780
X20984Y-11417
X20984Y-55079
X21161Y-52461
X21161Y-53051
X21161Y-53642
X21161Y-54232
X21240Y-21673
X21260Y-50000
X21260Y-50591
X21260Y-51181
X21260Y-51772
X21280Y-65453
X21280Y-66083
X21280Y-66705
X21295Y-64835
X21299Y-55945
X21339Y-55079
X21386Y-33335
X21398Y-61575
X21402Y-42020
X21496Y-11417
X21555Y-32043
X21555Y-62008
X21555Y-62598
X21555Y-63189
X21555Y-63780
X21575Y-60610
X21654Y-55945
X21654Y-56988
X21654Y-57579
X21654Y-58169
X21654Y-58760
X21693Y-55079
X21752Y-52461
X21752Y-53051
X21752Y-53642
X21752Y-54232
X21850Y-50000
X21850Y-50591
X21850Y-51181
X21850Y-51772
X21850Y-60807
X21870Y-60472
X21937Y-31071
X21949Y-31524
X22008Y-55945
X22039Y-35457
X22039Y-37366
X22043Y-33795
X22047Y-55079
X22244Y-56988
X22244Y-57579
X22244Y-58169
X22244Y-58760
X22350Y-31071
X22362Y-55945
X22374Y-31531
X22402Y-55079
X22406Y-38602
X22441Y-50000
X22441Y-50591
X22441Y-51181
X22441Y-51772
X22441Y-63583
X22441Y-64173
X22441Y-64764
X22441Y-65354
X22504Y-42528
X22717Y-53071
X22717Y-53425
X22717Y-55945
X22756Y-55079
X22776Y-19921
X22803Y-31087
X22803Y-31535
X22835Y-52756
X22835Y-53740
X22835Y-56988
X22835Y-57579
X22835Y-58169
X22835Y-58760
X22996Y-41941
X23031Y-60039
X23031Y-60630
X23031Y-61220
X23031Y-61811
X23031Y-63583
X23031Y-64173
X23031Y-64764
X23031Y-65354
X23071Y-52480
X23071Y-55945
X23102Y-35429
X23110Y-54016
X23110Y-54370
X23110Y-54724
X23110Y-55079
X23122Y-27146
X23126Y-27709
X23386Y-50866
X23386Y-51220
X23386Y-51575
X23386Y-51929
X23386Y-52283
X23425Y-55945
X23425Y-56988
X23425Y-57579
X23425Y-58169
X23425Y-58760
X23484Y-41980
X23543Y-50551
X23622Y-60039
X23622Y-60630
X23622Y-61220
X23622Y-61811
X23622Y-63583
X23622Y-64173
X23622Y-64764
X23622Y-65354
X23701Y-31331
X23819Y-55748
X23858Y-50354
X23917Y-43602
X23917Y-44094
X23917Y-44587
X23917Y-45079
X24016Y-15984
X24114Y-47736
X24114Y-48327
X24114Y-48917
X24114Y-49508
X24134Y-30945
X24134Y-31299
X24173Y-32433
X24213Y-50354
X24213Y-60039
X24213Y-60630
X24213Y-61220
X24213Y-61811
X24213Y-63583
X24213Y-64173
X24213Y-64764
X24213Y-65354
X24252Y-51220
X24252Y-51575
X24252Y-51929
X24252Y-52283
X24252Y-55945
X24409Y-43602
X24409Y-44094
X24409Y-44587
X24409Y-45079
X24449Y-29449
X24528Y-18701
X24528Y-30945
X24528Y-31299
X24528Y-54016
X24528Y-54370
X24528Y-54724
X24528Y-55079
X24567Y-50354
X24567Y-52520
X24591Y-32433
X24606Y-55945
X24646Y-51220
X24705Y-47736
X24705Y-48327
X24705Y-48917
X24705Y-49508
X24803Y-53740
X24803Y-60039
X24803Y-60630
X24803Y-61220
X24803Y-61811
X24843Y-52795
X24882Y-55079
X24902Y-43602
X24902Y-44094
X24902Y-44587
X24902Y-45079
X24921Y-30945
X24921Y-31299
X24921Y-50354
X24921Y-53110
X24921Y-53425
X24961Y-55945
X25000Y-51220
X25035Y-32433
X25087Y-56850
X25126Y-42012
X25236Y-55079
X25276Y-50354
X25295Y-47736
X25295Y-48327
X25295Y-48917
X25295Y-49508
X25315Y-30945
X25315Y-31299
X25315Y-55945
X25354Y-51220
X25394Y-43602
X25394Y-44094
X25394Y-44587
X25394Y-45079
X25472Y-59232
X25480Y-17280
X25591Y-55079
X25630Y-50354
X25669Y-55945
X25709Y-51220
X25850Y-33000
X25886Y-47736
X25886Y-48327
X25886Y-48917
X25886Y-49508
X25945Y-55079
X25984Y-50354
X26024Y-55945
X26063Y-51220
X26083Y-34774
X26083Y-35207
X26083Y-35630
X26083Y-36039
X26083Y-59646
X26083Y-60236
X26083Y-60827
X26083Y-61417
X26083Y-61909
X26083Y-62500
X26083Y-63091
X26083Y-63681
X26169Y-57579
X26299Y-55079
X26339Y-50354
X26343Y-64803
X26350Y-66685
X26354Y-29150
X26358Y-65413
X26358Y-66083
X26378Y-55945
X26417Y-51220
X26457Y-25079
X26484Y-31177
X26506Y-35187
X26506Y-35610
X26506Y-36014
X26516Y-34783
X26551Y-24622
X26654Y-55079
X26657Y-22728
X26673Y-52362
X26673Y-52953
X26673Y-53543
X26673Y-54134
X26693Y-50354
X26720Y-57894
X26732Y-55945
X26760Y-59055
X26772Y-51220
X26811Y-26441
X26870Y-47736
X26870Y-48327
X26870Y-48917
X26870Y-49508
X26870Y-59646
X26870Y-60236
X26870Y-60827
X26870Y-61417
X26870Y-61811
X26870Y-62402
X26870Y-62992
X26870Y-63583
X26900Y-36024
X26909Y-35650
X26919Y-34793
X26919Y-35226
X27008Y-55079
X27008Y-64016
X27020Y-65720
X27047Y-50354
X27087Y-55945
X27118Y-31173
X27126Y-51220
X27165Y-26457
X27264Y-52362
X27264Y-52953
X27264Y-53543
X27264Y-54134
X27343Y-34813
X27343Y-35197
X27343Y-35620
X27343Y-36004
X27362Y-55079
X27402Y-23858
X27402Y-50354
X27461Y-47736
X27461Y-48327
X27461Y-48917
X27461Y-49508
X27480Y-51220
X27480Y-55906
X27480Y-56260
X27480Y-56614
X27480Y-56969
X27480Y-57323
X27480Y-57677
X27480Y-58031
X27480Y-59409
X27480Y-59764
X27480Y-60118
X27480Y-60453
X27480Y-60827
X27480Y-61201
X27480Y-61575
X27480Y-61929
X27480Y-62323
X27480Y-63642
X27480Y-64016
X27500Y-65512
X27500Y-65925
X27598Y-64449
X27598Y-64803
X27598Y-65138
X27677Y-26457
X27717Y-55079
X27756Y-33343
X27756Y-50354
X27835Y-51220
X27854Y-52362
X27854Y-52953
X27854Y-53543
X27854Y-54134
X27858Y-29118
X27933Y-66181
X27933Y-66693
X28051Y-47736
X28051Y-48327
X28051Y-48917
X28051Y-49508
X28110Y-50354
X28150Y-55276
X28189Y-51220
X28295Y-29240
X28307Y-64469
X28307Y-64803
X28307Y-65157
X28350Y-17929
X28374Y-31169
X28406Y-65531
X28406Y-65945
X28425Y-55551
X28425Y-55906
X28425Y-56260
X28425Y-56614
X28425Y-56969
X28425Y-57323
X28425Y-57677
X28425Y-58031
X28425Y-58425
X28425Y-58858
X28425Y-59272
X28425Y-59665
X28425Y-61575
X28425Y-61929
X28425Y-62303
X28425Y-63642
X28425Y-64035
X28445Y-52362
X28445Y-52953
X28445Y-53543
X28445Y-54134
X28465Y-50354
X28512Y-24402
X28543Y-51220
X28642Y-23819
X28642Y-47736
X28642Y-48327
X28642Y-48917
X28642Y-49508
X28740Y-34795
X28740Y-46339
X28776Y-17287
X28799Y-59665
X28799Y-61575
X28819Y-50354
X28882Y-65709
X28898Y-51220
X28898Y-64035
X29020Y-33642
X29134Y-35146
X29134Y-52362
X29134Y-52953
X29134Y-53543
X29134Y-54134
X29138Y-47012
X29169Y-17929
X29173Y-20610
X29173Y-50354
X29213Y-25984
X29213Y-61575
X29252Y-51220
X29331Y-62303
X29331Y-62894
X29331Y-63484
X29331Y-64075
X29528Y-47736
X29528Y-48327
X29528Y-48917
X29528Y-49508
X29547Y-65453
X29547Y-66083
X29547Y-66705
X29563Y-64835
X29567Y-50354
X29598Y-24972
X29598Y-26335
X29606Y-51220
X29650Y-31169
X29665Y-61575
X29724Y-52362
X29724Y-52953
X29724Y-53543
X29724Y-54134
X29724Y-55709
X29724Y-56299
X29724Y-56890
X29724Y-57480
X29823Y-58563
X29823Y-59154
X29843Y-60610
X29874Y-27882
X29921Y-50354
X29921Y-62303
X29921Y-62894
X29921Y-63484
X29921Y-64075
X29961Y-51220
X30118Y-47736
X30118Y-48327
X30118Y-48917
X30118Y-49508
X30118Y-60807
X30138Y-60472
X30193Y-25559
X30201Y-26736
X30256Y-31173
X30276Y-50354
X30315Y-52362
X30315Y-52953
X30315Y-53543
X30315Y-54134
X30315Y-55709
X30315Y-56299
X30315Y-56890
X30315Y-57480
X30354Y-51220
X30413Y-44882
X30413Y-45472
X30413Y-46063
X30413Y-46654
X30413Y-58563
X30413Y-59154
X30512Y-62303
X30512Y-62894
X30512Y-63484
X30512Y-64075
X30630Y-50354
X30642Y-26902
X30709Y-47736
X30709Y-48327
X30709Y-48917
X30709Y-49508
X30709Y-51220
X30748Y-24961
X30760Y-23634
X30768Y-30138
X30795Y-28476
X30807Y-41929
X30807Y-42520
X30807Y-43110
X30807Y-43701
X30906Y-52362
X30906Y-52953
X30906Y-53543
X30906Y-54134
X30906Y-55709
X30906Y-56299
X30906Y-56890
X30906Y-57480
X30984Y-50354
X31004Y-44882
X31004Y-45472
X31004Y-46063
X31004Y-46654
X31004Y-58563
X31004Y-59154
X31012Y-27028
X31063Y-51220
X31102Y-62303
X31102Y-62894
X31102Y-63484
X31102Y-64075
X31299Y-47736
X31299Y-48327
X31299Y-48917
X31299Y-49508
X31339Y-50354
X31398Y-41929
X31398Y-42520
X31398Y-43110
X31398Y-43701
X31409Y-20858
X31409Y-27091
X31417Y-51220
X31496Y-52362
X31496Y-52953
X31496Y-53543
X31496Y-54134
X31496Y-55709
X31496Y-56299
X31496Y-56890
X31496Y-57480
X31539Y-19913
X31594Y-44882
X31594Y-45472
X31594Y-46063
X31594Y-46654
X31594Y-58563
X31594Y-59154
X31693Y-50354
X31772Y-51220
X31937Y-17374
X31941Y-26386
X31988Y-41929
X31988Y-42520
X31988Y-43110
X31988Y-43701
X32047Y-50354
X32087Y-52362
X32087Y-52953
X32087Y-53543
X32087Y-54134
X32126Y-51220
X32185Y-44882
X32185Y-45472
X32185Y-46063
X32185Y-46654
X32295Y-26736
X32299Y-17039
X32402Y-47953
X32402Y-48307
X32402Y-50354
X32480Y-51220
X32520Y-48622
X32559Y-47638
X32579Y-41929
X32579Y-42520
X32579Y-43110
X32579Y-43701
X32677Y-27531
X32677Y-28220
X32677Y-52362
X32677Y-52953
X32677Y-53543
X32677Y-54134
X32677Y-58563
X32677Y-59154
X32677Y-59744
X32677Y-60335
X32756Y-48937
X32756Y-49291
X32756Y-49646
X32756Y-50000
X32756Y-50354
X32776Y-55709
X32776Y-56299
X32776Y-56890
X32776Y-57480
X32776Y-61220
X32776Y-61811
X32776Y-62402
X32776Y-62992
X32795Y-47362
X32835Y-51220
X33031Y-44961
X33031Y-45315
X33031Y-45669
X33031Y-46024
X33031Y-46378
X33031Y-46732
X33031Y-47087
X33071Y-16634
X33071Y-20858
X33110Y-27882
X33118Y-25961
X33189Y-44606
X33189Y-51220
X33268Y-52362
X33268Y-52953
X33268Y-53543
X33268Y-54134
X33268Y-58563
X33268Y-59154
X33268Y-59744
X33268Y-60335
X33366Y-55709
X33366Y-56299
X33366Y-56890
X33366Y-57480
X33366Y-61220
X33366Y-61811
X33366Y-62402
X33366Y-62992
X33465Y-50984
X33504Y-44370
X33555Y-25551
X33555Y-31004
X33661Y-41831
X33661Y-42421
X33661Y-43012
X33661Y-43602
X33701Y-51220
X33858Y-44370
X33858Y-52362
X33858Y-52953
X33858Y-53543
X33858Y-54134
X33858Y-58563
X33858Y-59154
X33858Y-59744
X33858Y-60335
X33898Y-45236
X33898Y-45591
X33898Y-45945
X33898Y-46299
X33898Y-46654
X33898Y-47008
X33957Y-55709
X33957Y-56299
X33957Y-56890
X33957Y-57480
X33957Y-61220
X33957Y-61811
X33957Y-62402
X33957Y-62992
X34094Y-51220
X34173Y-48937
X34173Y-49291
X34173Y-49646
X34173Y-50000
X34173Y-50354
X34213Y-44370
X34252Y-41831
X34252Y-42421
X34252Y-43012
X34252Y-43602
X34252Y-45236
X34252Y-47402
X34449Y-48661
X34449Y-51220
X34449Y-52362
X34449Y-52953
X34449Y-53543
X34449Y-54134
X34449Y-58563
X34449Y-59154
X34449Y-59744
X34449Y-60335
X34488Y-47677
X34528Y-50354
X34547Y-55709
X34547Y-56299
X34547Y-56890
X34547Y-57480
X34547Y-61220
X34547Y-61811
X34547Y-62402
X34547Y-62992
X34567Y-44370
X34606Y-45236
X34646Y-47992
X34646Y-48346
X34744Y-45965
X34744Y-46555
X34803Y-51220
X34843Y-41831
X34843Y-42421
X34843Y-43012
X34843Y-43602
X34882Y-50354
X34921Y-44370
X34961Y-45236
X35039Y-52362
X35039Y-52953
X35039Y-53543
X35039Y-54134
X35138Y-60728
X35138Y-61319
X35138Y-61909
X35138Y-62500
X35157Y-51220
X35236Y-50354
X35276Y-44370
X35315Y-45236
X35335Y-45965
X35335Y-46555
X35433Y-41831
X35433Y-42421
X35433Y-43012
X35433Y-43602
X35512Y-51220
X35591Y-50354
X35630Y-44370
X35630Y-52362
X35630Y-52953
X35630Y-53543
X35630Y-54134
X35669Y-45236
X35728Y-48819
X35728Y-49409
X35728Y-60728
X35728Y-61319
X35728Y-61909
X35728Y-62500
X35827Y-47244
X35827Y-47835
X35866Y-51220
X35925Y-45965
X35925Y-46555
X35925Y-55020
X35925Y-55610
X35945Y-50354
X35984Y-44370
X36024Y-24902
X36024Y-25650
X36024Y-45236
X36110Y-56850
X36220Y-51220
X36220Y-52362
X36220Y-52953
X36220Y-53543
X36220Y-54134
X36299Y-50354
X36319Y-48819
X36319Y-49409
X36417Y-47244
X36417Y-47835
X36496Y-59232
X36516Y-45965
X36516Y-46555
X36516Y-55020
X36516Y-55610
X36516Y-59843
X36516Y-60433
X36516Y-61024
X36516Y-61614
X36516Y-62205
X36516Y-62795
X36516Y-63386
X36516Y-63976
X36535Y-11181
X36535Y-16634
X36575Y-51220
X36654Y-50354
X36811Y-52362
X36811Y-52953
X36811Y-53543
X36811Y-54134
X36909Y-48819
X36909Y-49409
X36929Y-51220
X37008Y-47244
X37008Y-47835
X37008Y-50354
X37047Y-22382
X37106Y-55020
X37106Y-55610
X37106Y-59843
X37106Y-60433
X37106Y-61024
X37106Y-61614
X37106Y-62205
X37106Y-62795
X37106Y-63386
X37106Y-63976
X37193Y-57579
X37283Y-51220
X37323Y-45236
X37362Y-44370
X37362Y-50354
X37366Y-64803
X37374Y-66685
X37382Y-65413
X37382Y-66083
X37402Y-52362
X37402Y-52953
X37402Y-53543
X37402Y-54134
X37500Y-48819
X37500Y-49409
X37598Y-47244
X37598Y-47835
X37638Y-51220
X37677Y-45236
X37697Y-55020
X37697Y-55610
X37717Y-44370
X37717Y-50354
X37744Y-57894
X37783Y-59055
X37795Y-41929
X37795Y-42520
X37795Y-43110
X37795Y-43701
X37990Y-27096
X37992Y-51220
X37992Y-52362
X37992Y-52953
X37992Y-53543
X37992Y-54134
X37992Y-59547
X37992Y-60138
X37992Y-60728
X37992Y-61319
X37992Y-61811
X37992Y-62402
X37992Y-62992
X37992Y-63583
X38031Y-45236
X38031Y-64016
X38043Y-65720
X38071Y-44370
X38071Y-50354
X38150Y-22386
X38346Y-51220
X38386Y-41929
X38386Y-42520
X38386Y-43110
X38386Y-43701
X38386Y-45236
X38386Y-45630
X38386Y-46024
X38386Y-46417
X38386Y-46811
X38386Y-47244
X38386Y-47638
X38386Y-48031
X38425Y-44370
X38425Y-50354
X38504Y-59409
X38504Y-59764
X38504Y-60118
X38504Y-60453
X38504Y-60827
X38504Y-61201
X38504Y-61575
X38504Y-61929
X38504Y-62323
X38504Y-63642
X38504Y-64016
X38524Y-65512
X38524Y-65925
X38543Y-55512
X38543Y-55866
X38543Y-56220
X38543Y-56575
X38543Y-56929
X38543Y-57283
X38543Y-57638
X38543Y-57992
X38583Y-48819
X38583Y-49409
X38583Y-52362
X38583Y-52953
X38583Y-53543
X38583Y-54134
X38622Y-64449
X38622Y-64803
X38622Y-65138
X38701Y-51220
X38720Y-27894
X38780Y-44370
X38780Y-48031
X38780Y-50354
X38819Y-55197
X38957Y-66181
X38957Y-66693
X38976Y-41929
X38976Y-42520
X38976Y-43110
X38976Y-43701
X39020Y-26579
X39055Y-51220
X39134Y-44370
X39134Y-50354
X39173Y-48031
X39173Y-48819
X39173Y-49409
X39173Y-52362
X39173Y-52953
X39173Y-53543
X39173Y-54134
X39213Y-55079
X39331Y-64469
X39331Y-64803
X39331Y-65157
X39370Y-31890
X39370Y-32433
X39409Y-51220
X39429Y-65531
X39429Y-65945
X39449Y-55906
X39449Y-56260
X39449Y-56614
X39449Y-56969
X39449Y-57323
X39449Y-57677
X39449Y-58031
X39449Y-58425
X39449Y-58858
X39449Y-59272
X39449Y-59665
X39449Y-61575
X39449Y-61929
X39449Y-62303
X39449Y-63642
X39449Y-64035
X39488Y-44370
X39488Y-50354
X39567Y-41929
X39567Y-42520
X39567Y-43110
X39567Y-43701
X39567Y-48031
X39567Y-55079
X39685Y-11161
X39748Y-23697
X39764Y-24067
X39764Y-48819
X39764Y-49409
X39764Y-51220
X39764Y-52362
X39764Y-52953
X39764Y-53543
X39764Y-54134
X39780Y-32433
X39783Y-31890
X39823Y-59665
X39823Y-61575
X39843Y-44370
X39843Y-55945
X39882Y-50354
X39906Y-65709
X39921Y-55079
X39921Y-64035
X39961Y-48031
X40059Y-61909
X40059Y-62500
X40059Y-63091
X40059Y-63681
X40079Y-13209
X40157Y-41929
X40157Y-42520
X40157Y-43110
X40157Y-43701
X40157Y-51220
X40161Y-26386
X40173Y-21835
X40193Y-27531
X40197Y-44370
X40197Y-55945
X40209Y-28122
X40224Y-25965
X40236Y-50354
X40236Y-61575
X40276Y-55079
X40315Y-48031
X40354Y-48819
X40354Y-49409
X40354Y-52362
X40354Y-52953
X40354Y-53543
X40354Y-54134
X40512Y-51220
X40551Y-44370
X40551Y-55945
X40571Y-65453
X40571Y-66083
X40571Y-66705
X40587Y-64835
X40591Y-50354
X40630Y-55079
X40650Y-58169
X40650Y-58760
X40650Y-61909
X40650Y-62500
X40650Y-63091
X40650Y-63681
X40689Y-61575
X40748Y-41929
X40748Y-42520
X40748Y-43110
X40748Y-43701
X40748Y-48031
X40748Y-56791
X40748Y-57382
X40866Y-51220
X40866Y-60610
X40906Y-44370
X40906Y-55945
X40945Y-50354
X40984Y-55079
X41102Y-48031
X41142Y-60807
X41161Y-60472
X41220Y-51220
X41240Y-58169
X41240Y-58760
X41260Y-44370
X41260Y-55945
X41299Y-50354
X41339Y-41929
X41339Y-42520
X41339Y-43110
X41339Y-43701
X41339Y-55079
X41339Y-56791
X41339Y-57382
X41457Y-48031
X41535Y-48917
X41535Y-49508
X41543Y-19035
X41575Y-51220
X41614Y-55945
X41634Y-62598
X41634Y-63189
X41634Y-63878
X41634Y-64469
X41634Y-65059
X41634Y-65650
X41634Y-66240
X41634Y-66831
X41654Y-44370
X41654Y-50354
X41693Y-29567
X41693Y-55079
X41811Y-48031
X41831Y-58169
X41831Y-58760
X41925Y-19043
X41929Y-41929
X41929Y-42520
X41929Y-43110
X41929Y-43701
X41929Y-44685
X41929Y-45079
X41929Y-45472
X41929Y-45866
X41929Y-46260
X41929Y-46654
X41929Y-47126
X41929Y-51220
X41929Y-56791
X41929Y-57382
X41969Y-53110
X41969Y-53465
X41969Y-55945
X42008Y-50354
X42028Y-59744
X42028Y-60335
X42028Y-61122
X42028Y-61713
X42047Y-55079
X42087Y-29567
X42126Y-48917
X42126Y-49508
X42126Y-52795
X42126Y-53780
X42165Y-48031
X42224Y-62598
X42224Y-63189
X42224Y-63878
X42224Y-64469
X42224Y-65059
X42224Y-65650
X42224Y-66240
X42224Y-66831
X42283Y-47126
X42283Y-51220
X42323Y-55945
X42362Y-50354
X42362Y-52520
X42402Y-54016
X42402Y-54370
X42402Y-54724
X42402Y-55079
X42421Y-58169
X42421Y-58760
X42480Y-48228
X42520Y-56791
X42520Y-57382
X42618Y-59744
X42618Y-60335
X42618Y-61122
X42618Y-61713
X42634Y-33642
X42638Y-47126
X42677Y-51220
X42677Y-51575
X42677Y-51929
X42677Y-52283
X42677Y-55945
X42717Y-48917
X42717Y-49508
X42717Y-50354
X42815Y-44685
X42815Y-45276
X42815Y-45866
X42815Y-46457
X42815Y-62598
X42815Y-63189
X42815Y-63878
X42815Y-64469
X42815Y-65059
X42815Y-65650
X42815Y-66240
X42815Y-66831
X42827Y-17902
X42835Y-48228
X42992Y-47126
X42996Y-33346
X43071Y-50354
X43110Y-55709
X43150Y-48031
X43209Y-59744
X43209Y-60335
X43209Y-61122
X43209Y-61713
X43295Y-33016
X43307Y-48917
X43307Y-49508
X43346Y-47126
X43386Y-50551
X43406Y-44685
X43406Y-45276
X43406Y-45866
X43406Y-46457
X43406Y-62598
X43406Y-63189
X43406Y-63878
X43406Y-64469
X43406Y-65059
X43406Y-65650
X43406Y-66240
X43406Y-66831
X43504Y-48031
X43543Y-50866
X43543Y-51220
X43543Y-51575
X43543Y-51929
X43543Y-52283
X43543Y-55945
X43701Y-47126
X43799Y-14724
X43799Y-59744
X43799Y-60335
X43799Y-61122
X43799Y-61713
X43819Y-54016
X43819Y-54370
X43819Y-54724
X43819Y-55079
X43858Y-48031
X43898Y-52520
X43898Y-55945
X43996Y-44685
X43996Y-45276
X43996Y-45866
X43996Y-46457
X44055Y-47126
X44094Y-19043
X44094Y-53740
X44134Y-16260
X44173Y-55079
X44213Y-52756
X44252Y-29528
X44252Y-55945
X44291Y-53110
X44291Y-53465
X44331Y-48425
X44378Y-56850
X44409Y-47126
X44453Y-19047
X44488Y-48701
X44528Y-55079
X44587Y-44685
X44587Y-45276
X44587Y-45866
X44587Y-46457
X44606Y-55945
X44646Y-29528
X44646Y-48425
X44685Y-49803
X44685Y-50394
X44685Y-51280
X44685Y-51870
X44685Y-59744
X44685Y-60335
X44685Y-60925
X44685Y-61516
X44685Y-62008
X44685Y-62598
X44685Y-63189
X44685Y-63780
X44764Y-59232
X44776Y-17374
X44803Y-47126
X44882Y-48031
X44882Y-55079
X44961Y-55945
X45138Y-14370
X45173Y-17039
X45236Y-55079
X45276Y-49803
X45276Y-50394
X45276Y-51280
X45276Y-51870
X45276Y-59547
X45276Y-60138
X45276Y-60728
X45276Y-61319
X45276Y-61811
X45276Y-62402
X45276Y-62992
X45276Y-63583
X45315Y-55945
X45461Y-57579
X45591Y-45827
X45591Y-55079
X45634Y-64803
X45642Y-66685
X45650Y-65413
X45650Y-66083
X45669Y-55945
X45866Y-45669
X45866Y-45984
X45866Y-49803
X45866Y-50394
X45866Y-51280
X45866Y-51870
X45866Y-53445
X45866Y-54035
X45945Y-55079
X46012Y-57894
X46024Y-55945
X46051Y-59055
X46087Y-19051
X46098Y-34795
X46102Y-48031
X46260Y-29528
X46260Y-59547
X46260Y-60138
X46260Y-60728
X46260Y-61319
X46260Y-61811
X46260Y-62402
X46260Y-62992
X46260Y-63583
X46299Y-46811
X46299Y-55079
X46299Y-64016
X46311Y-65720
X46366Y-35146
X46378Y-55945
X46441Y-19055
X46457Y-48031
X46457Y-49803
X46457Y-50394
X46457Y-51280
X46457Y-51870
X46457Y-53445
X46457Y-54035
X46535Y-47126
X46614Y-29528
X46654Y-55079
X46752Y-44587
X46752Y-45177
X46752Y-45768
X46752Y-46358
X46772Y-55906
X46772Y-56260
X46772Y-56614
X46772Y-56969
X46772Y-57323
X46772Y-57677
X46772Y-58031
X46772Y-59409
X46772Y-59764
X46772Y-60118
X46772Y-60453
X46772Y-60827
X46772Y-61201
X46772Y-61575
X46772Y-61929
X46772Y-62323
X46772Y-63642
X46772Y-64016
X46791Y-65512
X46791Y-65925
X46811Y-48031
X46890Y-47126
X46890Y-64449
X46890Y-64803
X46890Y-65138
X46929Y-17008
X47008Y-55079
X47047Y-53445
X47047Y-54035
X47146Y-14744
X47165Y-48031
X47224Y-66181
X47224Y-66693
X47244Y-17362
X47244Y-47126
X47343Y-44587
X47343Y-45177
X47343Y-45768
X47343Y-46358
X47402Y-55197
X47441Y-48307
X47520Y-17717
X47598Y-64469
X47598Y-64803
X47598Y-65157
X47638Y-47126
X47638Y-53445
X47638Y-54035
X47673Y-35634
X47697Y-65531
X47697Y-65945
X47717Y-55512
X47717Y-55866
X47717Y-56220
X47717Y-56575
X47717Y-56929
X47717Y-57283
X47717Y-57638
X47717Y-57992
X47717Y-58425
X47717Y-58858
X47717Y-59272
X47717Y-59665
X47717Y-61575
X47717Y-61929
X47717Y-62303
X47717Y-63642
X47717Y-64035
X47736Y-48819
X47736Y-49409
X47736Y-50000
X47736Y-50591
X47736Y-51181
X47736Y-51772
X47736Y-52362
X47736Y-52953
X47756Y-18071
X47933Y-44587
X47933Y-45177
X47933Y-45768
X47933Y-46358
X47957Y-35228
X47992Y-47126
X48071Y-48307
X48091Y-59665
X48091Y-61575
X48130Y-16634
X48173Y-65709
X48189Y-64035
X48307Y-30709
X48307Y-48071
X48327Y-48819
X48327Y-49409
X48327Y-50000
X48327Y-50591
X48327Y-51181
X48327Y-51772
X48327Y-52362
X48327Y-52953
X48327Y-61909
X48327Y-62500
X48327Y-63091
X48327Y-63681
X48346Y-47126
X48504Y-61575
X48524Y-14370
X48524Y-44587
X48524Y-45177
X48524Y-45768
X48524Y-46358
X48661Y-48071
X48701Y-47126
X48839Y-65453
X48839Y-66083
X48839Y-66705
X48854Y-64835
X48882Y-29528
X48898Y-16260
X48898Y-19370
X48902Y-28551
X48917Y-48819
X48917Y-49409
X48917Y-50000
X48917Y-50591
X48917Y-51181
X48917Y-51772
X48917Y-52362
X48917Y-52953
X48917Y-55217
X48917Y-55807
X48917Y-56398
X48917Y-56988
X48917Y-57579
X48917Y-58169
X48917Y-58760
X48917Y-59350
X48917Y-61909
X48917Y-62500
X48917Y-63091
X48917Y-63681
X48957Y-61575
X49016Y-48071
X49055Y-47126
X49134Y-60610
X49299Y-20319
X49331Y-29134
X49370Y-13819
X49370Y-17008
X49370Y-48071
X49409Y-47126
X49409Y-60807
X49429Y-60472
X49508Y-48819
X49508Y-49409
X49508Y-50000
X49508Y-50591
X49508Y-51181
X49508Y-51772
X49508Y-52362
X49508Y-52953
X49508Y-55217
X49508Y-55807
X49508Y-56398
X49508Y-56988
X49508Y-57579
X49508Y-58169
X49508Y-58760
X49508Y-59350
X49606Y-63681
X49606Y-64272
X49606Y-64862
X49606Y-65453
X49685Y-14764
X49685Y-17362
X49764Y-47205
X49764Y-47953
X49803Y-35228
X49803Y-40638
X49929Y-31000
X49933Y-20063
X49933Y-27543
X50000Y-15709
X50000Y-17717
X50118Y-47953
X50157Y-47205
X50197Y-35634
X50197Y-40264
X50197Y-63681
X50197Y-64272
X50197Y-64862
X50197Y-65453
X50295Y-45276
X50295Y-45866
X50295Y-49409
X50295Y-50000
X50323Y-20732
X50354Y-16654
X50354Y-18071
X50370Y-23343
X50370Y-25878
X50374Y-25524
X50382Y-23693
X50472Y-47953
X50512Y-47205
X50866Y-47126
X50866Y-48031
X50886Y-45276
X50886Y-45866
X50886Y-49409
X50886Y-50000
X51476Y-45276
X51476Y-45866
X51476Y-49409
X51476Y-50000
X51535Y-47126
X51535Y-48071
X51772Y-19370
X51772Y-47598
X51776Y-21626
X52067Y-45276
X52067Y-45866
X52067Y-49409
X52067Y-50000
X53272Y-40638
X53272Y-50480
X53701Y-40264
X53701Y-50496
X54213Y-13819
X54213Y-14764
X54213Y-15709
X54213Y-16654
X38041Y-64813
X38041Y-66683
X39911Y-64813
X39911Y-66683
X46309Y-64813
X46309Y-66683
X48179Y-64813
X48179Y-66683
X50246Y-46644
X50246Y-48514
X52116Y-46644
X52116Y-48514
X18750Y-64813
X18750Y-66683
X20620Y-64813
X20620Y-66683
X27018Y-64813
X27018Y-66683
X28888Y-64813
X28888Y-66683
T6
X25289Y-14464
X25789Y-15464
X26289Y-14464
X26789Y-15464
X27789Y-15464
X28289Y-14464
X28789Y-15464
X29289Y-14464
X29789Y-15464
T7
X53909Y-19189
X53909Y-20189
X53909Y-21189
X53909Y-22189
X53909Y-23189
X53909Y-24189
X41142Y-10969
X41142Y-11969
X42142Y-10969
X42142Y-11969
X43142Y-10969
X43142Y-11969
X44142Y-10969
X44142Y-11969
X45142Y-10969
X45142Y-11969
X46142Y-10969
X46142Y-11969
X47142Y-10969
X47142Y-11969
X48142Y-10969
X48142Y-11969
X49142Y-10969
X49142Y-11969
X50142Y-10969
X50142Y-11969
T8
X24929Y-10358
X25929Y-10358
X29149Y-10358
X30149Y-10358
T9
X16516Y-14075
X16516Y-15075
X16516Y-16075
X16516Y-17075
X16516Y-18075
X16516Y-19075
X16516Y-31075
X16516Y-32075
X16516Y-33075
X16516Y-34075
T0
M30
