G04 #@! TF.GenerationSoftware,KiCad,Pcbnew,(5.0.1)-4*
G04 #@! TF.CreationDate,2019-07-25T13:06:54-07:00*
G04 #@! TF.ProjectId,EllBayInd-TxLRU,456C6C426179496E642D54784C52552E,rev?*
G04 #@! TF.SameCoordinates,Original*
G04 #@! TF.FileFunction,Other,Fab,Top*
%FSLAX46Y46*%
G04 Gerber Fmt 4.6, Leading zero omitted, Abs format (unit mm)*
G04 Created by KiCad (PCBNEW (5.0.1)-4) date 7/25/2019 1:06:54 PM*
%MOMM*%
%LPD*%
G01*
G04 APERTURE LIST*
%ADD10C,0.100000*%
%ADD11C,0.150000*%
G04 APERTURE END LIST*
D10*
G04 #@! TO.C,R203*
X91470000Y-146250000D02*
X91470000Y-145250000D01*
X91470000Y-145250000D02*
X91970000Y-145250000D01*
X91970000Y-145250000D02*
X91970000Y-146250000D01*
X91970000Y-146250000D02*
X91470000Y-146250000D01*
G04 #@! TO.C,R201*
X42470000Y-146250000D02*
X42470000Y-145250000D01*
X42470000Y-145250000D02*
X42970000Y-145250000D01*
X42970000Y-145250000D02*
X42970000Y-146250000D01*
X42970000Y-146250000D02*
X42470000Y-146250000D01*
G04 #@! TO.C,C131*
X60800000Y-74200000D02*
X60800000Y-75400000D01*
X60800000Y-75400000D02*
X58800000Y-75400000D01*
X58800000Y-75400000D02*
X58800000Y-74200000D01*
X58800000Y-74200000D02*
X60800000Y-74200000D01*
G04 #@! TO.C,C101*
X93370000Y-60250000D02*
X96960000Y-60250000D01*
X96960000Y-60250000D02*
X97630000Y-59570000D01*
X97630000Y-59570000D02*
X97630000Y-56650000D01*
X97630000Y-56650000D02*
X96960000Y-55980000D01*
X96960000Y-55980000D02*
X93370000Y-55980000D01*
X93370000Y-55980000D02*
X93370000Y-60250000D01*
X97602380Y-58100000D02*
G75*
G03X97602380Y-58100000I-2102380J0D01*
G01*
G04 #@! TO.C,C102*
X102050000Y-60400000D02*
X102050000Y-61000000D01*
X101750000Y-60400000D02*
X102050000Y-60400000D01*
X101750000Y-61000000D02*
X101750000Y-60400000D01*
X102050000Y-61000000D02*
X101750000Y-61000000D01*
G04 #@! TO.C,C103*
X106800000Y-73950000D02*
X106800000Y-74250000D01*
X106800000Y-74250000D02*
X106200000Y-74250000D01*
X106200000Y-74250000D02*
X106200000Y-73950000D01*
X106200000Y-73950000D02*
X106800000Y-73950000D01*
G04 #@! TO.C,C104*
X112700000Y-73950000D02*
X113300000Y-73950000D01*
X112700000Y-74250000D02*
X112700000Y-73950000D01*
X113300000Y-74250000D02*
X112700000Y-74250000D01*
X113300000Y-73950000D02*
X113300000Y-74250000D01*
G04 #@! TO.C,C105*
X118300000Y-73950000D02*
X118300000Y-74250000D01*
X118300000Y-74250000D02*
X117700000Y-74250000D01*
X117700000Y-74250000D02*
X117700000Y-73950000D01*
X117700000Y-73950000D02*
X118300000Y-73950000D01*
G04 #@! TO.C,C106*
X57190000Y-106340000D02*
X57190000Y-107140000D01*
X55590000Y-106340000D02*
X57190000Y-106340000D01*
X55590000Y-107140000D02*
X55590000Y-106340000D01*
X57190000Y-107140000D02*
X55590000Y-107140000D01*
G04 #@! TO.C,C107*
X60890000Y-106340000D02*
X62490000Y-106340000D01*
X62490000Y-106340000D02*
X62490000Y-107140000D01*
X62490000Y-107140000D02*
X60890000Y-107140000D01*
X60890000Y-107140000D02*
X60890000Y-106340000D01*
G04 #@! TO.C,C108*
X63740000Y-105140000D02*
X63740000Y-104540000D01*
X64040000Y-105140000D02*
X63740000Y-105140000D01*
X64040000Y-104540000D02*
X64040000Y-105140000D01*
X63740000Y-104540000D02*
X64040000Y-104540000D01*
G04 #@! TO.C,C109*
X102350000Y-68100000D02*
X102350000Y-68700000D01*
X102050000Y-68100000D02*
X102350000Y-68100000D01*
X102050000Y-68700000D02*
X102050000Y-68100000D01*
X102350000Y-68700000D02*
X102050000Y-68700000D01*
G04 #@! TO.C,C110*
X126850000Y-64900000D02*
X127150000Y-64900000D01*
X127150000Y-64900000D02*
X127150000Y-65500000D01*
X127150000Y-65500000D02*
X126850000Y-65500000D01*
X126850000Y-65500000D02*
X126850000Y-64900000D01*
G04 #@! TO.C,C111*
X126650000Y-52600000D02*
X126650000Y-52000000D01*
X126950000Y-52600000D02*
X126650000Y-52600000D01*
X126950000Y-52000000D02*
X126950000Y-52600000D01*
X126650000Y-52000000D02*
X126950000Y-52000000D01*
G04 #@! TO.C,C112*
X117200000Y-49450000D02*
X117200000Y-49150000D01*
X117200000Y-49150000D02*
X117800000Y-49150000D01*
X117800000Y-49150000D02*
X117800000Y-49450000D01*
X117800000Y-49450000D02*
X117200000Y-49450000D01*
G04 #@! TO.C,C113*
X112800000Y-49450000D02*
X112200000Y-49450000D01*
X112800000Y-49150000D02*
X112800000Y-49450000D01*
X112200000Y-49150000D02*
X112800000Y-49150000D01*
X112200000Y-49450000D02*
X112200000Y-49150000D01*
G04 #@! TO.C,C114*
X52800000Y-82900000D02*
X54400000Y-82900000D01*
X54400000Y-82900000D02*
X54400000Y-83700000D01*
X54400000Y-83700000D02*
X52800000Y-83700000D01*
X52800000Y-83700000D02*
X52800000Y-82900000D01*
G04 #@! TO.C,C115*
X60600000Y-82400000D02*
X59800000Y-82400000D01*
X60600000Y-80800000D02*
X60600000Y-82400000D01*
X59800000Y-80800000D02*
X60600000Y-80800000D01*
X59800000Y-82400000D02*
X59800000Y-80800000D01*
G04 #@! TO.C,C116*
X100160000Y-67340000D02*
X100760000Y-67340000D01*
X100160000Y-67640000D02*
X100160000Y-67340000D01*
X100760000Y-67640000D02*
X100160000Y-67640000D01*
X100760000Y-67340000D02*
X100760000Y-67640000D01*
G04 #@! TO.C,C117*
X123700000Y-74150000D02*
X123700000Y-73850000D01*
X123700000Y-73850000D02*
X124300000Y-73850000D01*
X124300000Y-73850000D02*
X124300000Y-74150000D01*
X124300000Y-74150000D02*
X123700000Y-74150000D01*
G04 #@! TO.C,C118*
X106300000Y-49440000D02*
X105700000Y-49440000D01*
X106300000Y-49140000D02*
X106300000Y-49440000D01*
X105700000Y-49140000D02*
X106300000Y-49140000D01*
X105700000Y-49440000D02*
X105700000Y-49140000D01*
G04 #@! TO.C,C119*
X126850000Y-59400000D02*
X127150000Y-59400000D01*
X127150000Y-59400000D02*
X127150000Y-60000000D01*
X127150000Y-60000000D02*
X126850000Y-60000000D01*
X126850000Y-60000000D02*
X126850000Y-59400000D01*
G04 #@! TO.C,C120*
X52800000Y-92900000D02*
X52800000Y-92100000D01*
X54400000Y-92900000D02*
X52800000Y-92900000D01*
X54400000Y-92100000D02*
X54400000Y-92900000D01*
X52800000Y-92100000D02*
X54400000Y-92100000D01*
G04 #@! TO.C,C121*
X59800000Y-91600000D02*
X59800000Y-90000000D01*
X59800000Y-90000000D02*
X60600000Y-90000000D01*
X60600000Y-90000000D02*
X60600000Y-91600000D01*
X60600000Y-91600000D02*
X59800000Y-91600000D01*
G04 #@! TO.C,C122*
X100600000Y-32900000D02*
X100900000Y-32900000D01*
X100900000Y-32900000D02*
X100900000Y-33500000D01*
X100900000Y-33500000D02*
X100600000Y-33500000D01*
X100600000Y-33500000D02*
X100600000Y-32900000D01*
G04 #@! TO.C,C123*
X94300000Y-63650000D02*
X92700000Y-63650000D01*
X92700000Y-63650000D02*
X92700000Y-62850000D01*
X92700000Y-62850000D02*
X94300000Y-62850000D01*
X94300000Y-62850000D02*
X94300000Y-63650000D01*
G04 #@! TO.C,C124*
X94300000Y-64750000D02*
X94300000Y-65550000D01*
X92700000Y-64750000D02*
X94300000Y-64750000D01*
X92700000Y-65550000D02*
X92700000Y-64750000D01*
X94300000Y-65550000D02*
X92700000Y-65550000D01*
G04 #@! TO.C,C125*
X123100000Y-75200000D02*
X123100000Y-76800000D01*
X123100000Y-76800000D02*
X122300000Y-76800000D01*
X122300000Y-76800000D02*
X122300000Y-75200000D01*
X122300000Y-75200000D02*
X123100000Y-75200000D01*
G04 #@! TO.C,C126*
X128000000Y-54300000D02*
X128000000Y-53500000D01*
X129600000Y-54300000D02*
X128000000Y-54300000D01*
X129600000Y-53500000D02*
X129600000Y-54300000D01*
X128000000Y-53500000D02*
X129600000Y-53500000D01*
G04 #@! TO.C,C151*
X73960000Y-46560000D02*
X74260000Y-46560000D01*
X74260000Y-46560000D02*
X74260000Y-47160000D01*
X74260000Y-47160000D02*
X73960000Y-47160000D01*
X73960000Y-47160000D02*
X73960000Y-46560000D01*
G04 #@! TO.C,C152*
X66900000Y-70900000D02*
X68500000Y-70900000D01*
X68500000Y-70900000D02*
X68500000Y-71700000D01*
X68500000Y-71700000D02*
X66900000Y-71700000D01*
X66900000Y-71700000D02*
X66900000Y-70900000D01*
G04 #@! TO.C,C153*
X71580000Y-73300000D02*
X71580000Y-73000000D01*
X71580000Y-73000000D02*
X72180000Y-73000000D01*
X72180000Y-73000000D02*
X72180000Y-73300000D01*
X72180000Y-73300000D02*
X71580000Y-73300000D01*
G04 #@! TO.C,C154*
X68850531Y-65547856D02*
X68250531Y-65547856D01*
X68850531Y-65247856D02*
X68850531Y-65547856D01*
X68250531Y-65247856D02*
X68850531Y-65247856D01*
X68250531Y-65547856D02*
X68250531Y-65247856D01*
G04 #@! TO.C,C155*
X68237831Y-64684256D02*
X68237831Y-64384256D01*
X68237831Y-64384256D02*
X68837831Y-64384256D01*
X68837831Y-64384256D02*
X68837831Y-64684256D01*
X68837831Y-64684256D02*
X68237831Y-64684256D01*
G04 #@! TO.C,C156*
X66900000Y-73200000D02*
X66900000Y-72400000D01*
X68500000Y-73200000D02*
X66900000Y-73200000D01*
X68500000Y-72400000D02*
X68500000Y-73200000D01*
X66900000Y-72400000D02*
X68500000Y-72400000D01*
G04 #@! TO.C,C157*
X68250000Y-66386000D02*
X68250000Y-66086000D01*
X68250000Y-66086000D02*
X68850000Y-66086000D01*
X68850000Y-66086000D02*
X68850000Y-66386000D01*
X68850000Y-66386000D02*
X68250000Y-66386000D01*
G04 #@! TO.C,C158*
X68837831Y-63833356D02*
X68237831Y-63833356D01*
X68837831Y-63533356D02*
X68837831Y-63833356D01*
X68237831Y-63533356D02*
X68837831Y-63533356D01*
X68237831Y-63833356D02*
X68237831Y-63533356D01*
G04 #@! TO.C,C159*
X58700000Y-68100000D02*
X58700000Y-67300000D01*
X60300000Y-68100000D02*
X58700000Y-68100000D01*
X60300000Y-67300000D02*
X60300000Y-68100000D01*
X58700000Y-67300000D02*
X60300000Y-67300000D01*
G04 #@! TO.C,C160*
X58700000Y-71300000D02*
X60300000Y-71300000D01*
X60300000Y-71300000D02*
X60300000Y-72100000D01*
X60300000Y-72100000D02*
X58700000Y-72100000D01*
X58700000Y-72100000D02*
X58700000Y-71300000D01*
G04 #@! TO.C,C161*
X68689846Y-59095808D02*
G75*
G03X68689846Y-59095808I-2102380J0D01*
G01*
X68707466Y-56965808D02*
X64437466Y-56965808D01*
X68707466Y-60555808D02*
X68707466Y-56965808D01*
X68037466Y-61225808D02*
X68707466Y-60555808D01*
X65117466Y-61225808D02*
X68037466Y-61225808D01*
X64437466Y-60555808D02*
X65117466Y-61225808D01*
X64437466Y-56965808D02*
X64437466Y-60555808D01*
G04 #@! TO.C,FB151*
X77477700Y-59189000D02*
X77477700Y-58889000D01*
X77477700Y-58889000D02*
X78077700Y-58889000D01*
X78077700Y-58889000D02*
X78077700Y-59189000D01*
X78077700Y-59189000D02*
X77477700Y-59189000D01*
G04 #@! TO.C,J101*
X104500000Y-31670000D02*
X103230000Y-30400000D01*
X128630000Y-31670000D02*
X104500000Y-31670000D01*
X128630000Y-26590000D02*
X128630000Y-31670000D01*
X103230000Y-26590000D02*
X128630000Y-26590000D01*
X103230000Y-30400000D02*
X103230000Y-26590000D01*
G04 #@! TO.C,J102*
X136295000Y-47470000D02*
X138200000Y-47470000D01*
X138200000Y-47470000D02*
X138200000Y-62710000D01*
X138200000Y-62710000D02*
X135660000Y-62710000D01*
X135660000Y-62710000D02*
X135660000Y-48105000D01*
X135660000Y-48105000D02*
X136295000Y-47470000D01*
G04 #@! TO.C,R101*
X109200000Y-48100000D02*
X108400000Y-48100000D01*
X109200000Y-46500000D02*
X109200000Y-48100000D01*
X108400000Y-46500000D02*
X109200000Y-46500000D01*
X108400000Y-48100000D02*
X108400000Y-46500000D01*
G04 #@! TO.C,R151*
X72444600Y-58840700D02*
X72444600Y-59340700D01*
X71444600Y-58840700D02*
X72444600Y-58840700D01*
X71444600Y-59340700D02*
X71444600Y-58840700D01*
X72444600Y-59340700D02*
X71444600Y-59340700D01*
G04 #@! TO.C,R152*
X69666600Y-58853400D02*
X70666600Y-58853400D01*
X70666600Y-58853400D02*
X70666600Y-59353400D01*
X70666600Y-59353400D02*
X69666600Y-59353400D01*
X69666600Y-59353400D02*
X69666600Y-58853400D01*
G04 #@! TO.C,R153*
X76127600Y-58840700D02*
X76127600Y-59340700D01*
X75127600Y-58840700D02*
X76127600Y-58840700D01*
X75127600Y-59340700D02*
X75127600Y-58840700D01*
X76127600Y-59340700D02*
X75127600Y-59340700D01*
G04 #@! TO.C,R154*
X73362300Y-58840700D02*
X74362300Y-58840700D01*
X74362300Y-58840700D02*
X74362300Y-59340700D01*
X74362300Y-59340700D02*
X73362300Y-59340700D01*
X73362300Y-59340700D02*
X73362300Y-58840700D01*
G04 #@! TO.C,R155*
X69300000Y-76500000D02*
X69300000Y-78100000D01*
X69300000Y-78100000D02*
X68500000Y-78100000D01*
X68500000Y-78100000D02*
X68500000Y-76500000D01*
X68500000Y-76500000D02*
X69300000Y-76500000D01*
G04 #@! TO.C,R157*
X70900000Y-76500000D02*
X70900000Y-78100000D01*
X70900000Y-78100000D02*
X70100000Y-78100000D01*
X70100000Y-78100000D02*
X70100000Y-76500000D01*
X70100000Y-76500000D02*
X70900000Y-76500000D01*
G04 #@! TO.C,R158*
X65300000Y-76500000D02*
X66100000Y-76500000D01*
X65300000Y-78100000D02*
X65300000Y-76500000D01*
X66100000Y-78100000D02*
X65300000Y-78100000D01*
X66100000Y-76500000D02*
X66100000Y-78100000D01*
G04 #@! TO.C,R159*
X71700000Y-76500000D02*
X72500000Y-76500000D01*
X71700000Y-78100000D02*
X71700000Y-76500000D01*
X72500000Y-78100000D02*
X71700000Y-78100000D01*
X72500000Y-76500000D02*
X72500000Y-78100000D01*
G04 #@! TO.C,R160*
X69900000Y-66350000D02*
X69900000Y-66050000D01*
X69900000Y-66050000D02*
X70500000Y-66050000D01*
X70500000Y-66050000D02*
X70500000Y-66350000D01*
X70500000Y-66350000D02*
X69900000Y-66350000D01*
G04 #@! TO.C,R161*
X74100000Y-76500000D02*
X74100000Y-78100000D01*
X74100000Y-78100000D02*
X73300000Y-78100000D01*
X73300000Y-78100000D02*
X73300000Y-76500000D01*
X73300000Y-76500000D02*
X74100000Y-76500000D01*
G04 #@! TO.C,R162*
X75700000Y-76500000D02*
X75700000Y-78100000D01*
X75700000Y-78100000D02*
X74900000Y-78100000D01*
X74900000Y-78100000D02*
X74900000Y-76500000D01*
X74900000Y-76500000D02*
X75700000Y-76500000D01*
G04 #@! TO.C,R163*
X77300000Y-76500000D02*
X77300000Y-78100000D01*
X77300000Y-78100000D02*
X76500000Y-78100000D01*
X76500000Y-78100000D02*
X76500000Y-76500000D01*
X76500000Y-76500000D02*
X77300000Y-76500000D01*
G04 #@! TO.C,R164*
X80300000Y-69700000D02*
X81900000Y-69700000D01*
X81900000Y-69700000D02*
X81900000Y-70500000D01*
X81900000Y-70500000D02*
X80300000Y-70500000D01*
X80300000Y-70500000D02*
X80300000Y-69700000D01*
G04 #@! TO.C,R165*
X49600000Y-85550000D02*
X49600000Y-83950000D01*
X49600000Y-83950000D02*
X50400000Y-83950000D01*
X50400000Y-83950000D02*
X50400000Y-85550000D01*
X50400000Y-85550000D02*
X49600000Y-85550000D01*
G04 #@! TO.C,R166*
X80300000Y-72100000D02*
X80300000Y-71300000D01*
X81900000Y-72100000D02*
X80300000Y-72100000D01*
X81900000Y-71300000D02*
X81900000Y-72100000D01*
X80300000Y-71300000D02*
X81900000Y-71300000D01*
G04 #@! TO.C,R205*
X47020000Y-148550000D02*
X46720000Y-148550000D01*
X46720000Y-148550000D02*
X46720000Y-147950000D01*
X46720000Y-147950000D02*
X47020000Y-147950000D01*
X47020000Y-147950000D02*
X47020000Y-148550000D01*
G04 #@! TO.C,R206*
X68020000Y-148550000D02*
X67720000Y-148550000D01*
X67720000Y-148550000D02*
X67720000Y-147950000D01*
X67720000Y-147950000D02*
X68020000Y-147950000D01*
X68020000Y-147950000D02*
X68020000Y-148550000D01*
G04 #@! TO.C,R207*
X96020000Y-148550000D02*
X95720000Y-148550000D01*
X95720000Y-148550000D02*
X95720000Y-147950000D01*
X95720000Y-147950000D02*
X96020000Y-147950000D01*
X96020000Y-147950000D02*
X96020000Y-148550000D01*
G04 #@! TO.C,R208*
X117020000Y-148550000D02*
X116720000Y-148550000D01*
X116720000Y-148550000D02*
X116720000Y-147950000D01*
X116720000Y-147950000D02*
X117020000Y-147950000D01*
X117020000Y-147950000D02*
X117020000Y-148550000D01*
G04 #@! TO.C,R307*
X100050000Y-69250000D02*
X100050000Y-70850000D01*
X100050000Y-70850000D02*
X99250000Y-70850000D01*
X99250000Y-70850000D02*
X99250000Y-69250000D01*
X99250000Y-69250000D02*
X100050000Y-69250000D01*
G04 #@! TO.C,R309*
X53970000Y-77330000D02*
X54770000Y-77330000D01*
X53970000Y-78930000D02*
X53970000Y-77330000D01*
X54770000Y-78930000D02*
X53970000Y-78930000D01*
X54770000Y-77330000D02*
X54770000Y-78930000D01*
G04 #@! TO.C,U101*
X56340000Y-99427500D02*
X63040000Y-99427500D01*
X63040000Y-103127500D02*
X63040000Y-99427500D01*
X56340000Y-102077500D02*
X56340000Y-99427500D01*
X57390000Y-103127500D02*
X63040000Y-103127500D01*
X57390000Y-103127500D02*
X56340000Y-102077500D01*
G04 #@! TO.C,U102*
X58200000Y-81750000D02*
X58200000Y-84850000D01*
X58200000Y-84850000D02*
X56400000Y-84850000D01*
X56400000Y-82400000D02*
X56400000Y-84850000D01*
X58200000Y-81750000D02*
X57050000Y-81750000D01*
X56400000Y-82400000D02*
X57050000Y-81750000D01*
G04 #@! TO.C,U103*
X56400000Y-91600000D02*
X57050000Y-90950000D01*
X58200000Y-90950000D02*
X57050000Y-90950000D01*
X56400000Y-91600000D02*
X56400000Y-94050000D01*
X58200000Y-94050000D02*
X56400000Y-94050000D01*
X58200000Y-90950000D02*
X58200000Y-94050000D01*
G04 #@! TO.C,U151*
X72596600Y-48813500D02*
X75696600Y-48813500D01*
X75696600Y-48813500D02*
X75696600Y-50613500D01*
X73246600Y-50613500D02*
X75696600Y-50613500D01*
X72596600Y-48813500D02*
X72596600Y-49963500D01*
X73246600Y-50613500D02*
X72596600Y-49963500D01*
D11*
G04 #@! TO.C,U153*
X71450000Y-67350000D02*
X74450000Y-67350000D01*
X74450000Y-67350000D02*
X74450000Y-71350000D01*
X74450000Y-71350000D02*
X70450000Y-71350000D01*
X70450000Y-71350000D02*
X70450000Y-68350000D01*
X70450000Y-68350000D02*
X71450000Y-67350000D01*
G04 #@! TO.C,U104*
X104500000Y-52700000D02*
X105500000Y-51700000D01*
X104500000Y-71700000D02*
X104500000Y-52700000D01*
X124500000Y-71700000D02*
X104500000Y-71700000D01*
X124500000Y-51700000D02*
X124500000Y-71700000D01*
X105500000Y-51700000D02*
X124500000Y-51700000D01*
D10*
G04 #@! TO.C,R156*
X67700000Y-76500000D02*
X67700000Y-78100000D01*
X67700000Y-78100000D02*
X66900000Y-78100000D01*
X66900000Y-78100000D02*
X66900000Y-76500000D01*
X66900000Y-76500000D02*
X67700000Y-76500000D01*
G04 #@! TO.C,R102*
X54450000Y-27900000D02*
X54450000Y-27300000D01*
X54750000Y-27900000D02*
X54450000Y-27900000D01*
X54750000Y-27300000D02*
X54750000Y-27900000D01*
X54450000Y-27300000D02*
X54750000Y-27300000D01*
G04 #@! TO.C,R103*
X64500000Y-63300000D02*
X66100000Y-63300000D01*
X66100000Y-63300000D02*
X66100000Y-64100000D01*
X66100000Y-64100000D02*
X64500000Y-64100000D01*
X64500000Y-64100000D02*
X64500000Y-63300000D01*
G04 #@! TO.C,R104*
X53150000Y-27300000D02*
X53450000Y-27300000D01*
X53450000Y-27300000D02*
X53450000Y-27900000D01*
X53450000Y-27900000D02*
X53150000Y-27900000D01*
X53150000Y-27900000D02*
X53150000Y-27300000D01*
G04 #@! TO.C,R105*
X133300000Y-42150000D02*
X133300000Y-42450000D01*
X133300000Y-42450000D02*
X132700000Y-42450000D01*
X132700000Y-42450000D02*
X132700000Y-42150000D01*
X132700000Y-42150000D02*
X133300000Y-42150000D01*
G04 #@! TO.C,R106*
X132700000Y-39750000D02*
X133300000Y-39750000D01*
X132700000Y-40050000D02*
X132700000Y-39750000D01*
X133300000Y-40050000D02*
X132700000Y-40050000D01*
X133300000Y-39750000D02*
X133300000Y-40050000D01*
G04 #@! TO.C,R107*
X133300000Y-37350000D02*
X133300000Y-37650000D01*
X133300000Y-37650000D02*
X132700000Y-37650000D01*
X132700000Y-37650000D02*
X132700000Y-37350000D01*
X132700000Y-37350000D02*
X133300000Y-37350000D01*
G04 #@! TO.C,R108*
X132700000Y-34950000D02*
X133300000Y-34950000D01*
X132700000Y-35250000D02*
X132700000Y-34950000D01*
X133300000Y-35250000D02*
X132700000Y-35250000D01*
X133300000Y-34950000D02*
X133300000Y-35250000D01*
G04 #@! TO.C,C201*
X122500000Y-121100000D02*
X122500000Y-120600000D01*
X123500000Y-121100000D02*
X122500000Y-121100000D01*
X123500000Y-120600000D02*
X123500000Y-121100000D01*
X122500000Y-120600000D02*
X123500000Y-120600000D01*
G04 #@! TO.C,C202*
X121000000Y-121950000D02*
X121000000Y-120950000D01*
X121000000Y-120950000D02*
X121500000Y-120950000D01*
X121500000Y-120950000D02*
X121500000Y-121950000D01*
X121500000Y-121950000D02*
X121000000Y-121950000D01*
G04 #@! TO.C,C203*
X55750000Y-155500000D02*
X55750000Y-156500000D01*
X55750000Y-156500000D02*
X55250000Y-156500000D01*
X55250000Y-156500000D02*
X55250000Y-155500000D01*
X55250000Y-155500000D02*
X55750000Y-155500000D01*
G04 #@! TO.C,C204*
X76250000Y-155500000D02*
X76750000Y-155500000D01*
X76250000Y-156500000D02*
X76250000Y-155500000D01*
X76750000Y-156500000D02*
X76250000Y-156500000D01*
X76750000Y-155500000D02*
X76750000Y-156500000D01*
G04 #@! TO.C,C205*
X104250000Y-155500000D02*
X104750000Y-155500000D01*
X104250000Y-156500000D02*
X104250000Y-155500000D01*
X104750000Y-156500000D02*
X104250000Y-156500000D01*
X104750000Y-155500000D02*
X104750000Y-156500000D01*
G04 #@! TO.C,C206*
X125250000Y-155500000D02*
X125750000Y-155500000D01*
X125250000Y-156500000D02*
X125250000Y-155500000D01*
X125750000Y-156500000D02*
X125250000Y-156500000D01*
X125750000Y-155500000D02*
X125750000Y-156500000D01*
G04 #@! TO.C,C207*
X110000000Y-120600000D02*
X111000000Y-120600000D01*
X111000000Y-120600000D02*
X111000000Y-121100000D01*
X111000000Y-121100000D02*
X110000000Y-121100000D01*
X110000000Y-121100000D02*
X110000000Y-120600000D01*
G04 #@! TO.C,C208*
X116300000Y-118900000D02*
X116300000Y-117900000D01*
X116300000Y-117900000D02*
X116800000Y-117900000D01*
X116800000Y-117900000D02*
X116800000Y-118900000D01*
X116800000Y-118900000D02*
X116300000Y-118900000D01*
G04 #@! TO.C,C209*
X116100000Y-123500000D02*
X114500000Y-123500000D01*
X114500000Y-123500000D02*
X114500000Y-122700000D01*
X114500000Y-122700000D02*
X116100000Y-122700000D01*
X116100000Y-122700000D02*
X116100000Y-123500000D01*
G04 #@! TO.C,C210*
X109950000Y-123500000D02*
X109950000Y-122700000D01*
X111550000Y-123500000D02*
X109950000Y-123500000D01*
X111550000Y-122700000D02*
X111550000Y-123500000D01*
X109950000Y-122700000D02*
X111550000Y-122700000D01*
G04 #@! TO.C,C211*
X108100000Y-120925000D02*
X108400000Y-120925000D01*
X108400000Y-120925000D02*
X108400000Y-121525000D01*
X108400000Y-121525000D02*
X108100000Y-121525000D01*
X108100000Y-121525000D02*
X108100000Y-120925000D01*
G04 #@! TO.C,C212*
X47570000Y-148450000D02*
X48370000Y-148450000D01*
X47570000Y-150050000D02*
X47570000Y-148450000D01*
X48370000Y-150050000D02*
X47570000Y-150050000D01*
X48370000Y-148450000D02*
X48370000Y-150050000D01*
G04 #@! TO.C,C213*
X69370000Y-148450000D02*
X69370000Y-150050000D01*
X69370000Y-150050000D02*
X68570000Y-150050000D01*
X68570000Y-150050000D02*
X68570000Y-148450000D01*
X68570000Y-148450000D02*
X69370000Y-148450000D01*
G04 #@! TO.C,C214*
X96570000Y-148450000D02*
X97370000Y-148450000D01*
X96570000Y-150050000D02*
X96570000Y-148450000D01*
X97370000Y-150050000D02*
X96570000Y-150050000D01*
X97370000Y-148450000D02*
X97370000Y-150050000D01*
G04 #@! TO.C,C215*
X118370000Y-148450000D02*
X118370000Y-150050000D01*
X118370000Y-150050000D02*
X117570000Y-150050000D01*
X117570000Y-150050000D02*
X117570000Y-148450000D01*
X117570000Y-148450000D02*
X118370000Y-148450000D01*
G04 #@! TO.C,L201*
X119450000Y-121000000D02*
X119450000Y-120700000D01*
X119450000Y-120700000D02*
X120050000Y-120700000D01*
X120050000Y-120700000D02*
X120050000Y-121000000D01*
X120050000Y-121000000D02*
X119450000Y-121000000D01*
G04 #@! TO.C,L202*
X113000000Y-121850000D02*
X112500000Y-121850000D01*
X112500000Y-121850000D02*
X112500000Y-120850000D01*
X112500000Y-120850000D02*
X113000000Y-120850000D01*
X113000000Y-120850000D02*
X113000000Y-121850000D01*
G04 #@! TO.C,R202*
X63970000Y-146250000D02*
X63470000Y-146250000D01*
X63970000Y-145250000D02*
X63970000Y-146250000D01*
X63470000Y-145250000D02*
X63970000Y-145250000D01*
X63470000Y-146250000D02*
X63470000Y-145250000D01*
G04 #@! TO.C,R204*
X112970000Y-146250000D02*
X112470000Y-146250000D01*
X112970000Y-145250000D02*
X112970000Y-146250000D01*
X112470000Y-145250000D02*
X112970000Y-145250000D01*
X112470000Y-146250000D02*
X112470000Y-145250000D01*
G04 #@! TO.C,R212*
X114650000Y-118900000D02*
X114650000Y-117300000D01*
X114650000Y-117300000D02*
X115450000Y-117300000D01*
X115450000Y-117300000D02*
X115450000Y-118900000D01*
X115450000Y-118900000D02*
X114650000Y-118900000D01*
G04 #@! TO.C,R213*
X43720000Y-146000000D02*
X44720000Y-146000000D01*
X44720000Y-146000000D02*
X44720000Y-146500000D01*
X44720000Y-146500000D02*
X43720000Y-146500000D01*
X43720000Y-146500000D02*
X43720000Y-146000000D01*
G04 #@! TO.C,R214*
X64720000Y-146500000D02*
X64720000Y-146000000D01*
X65720000Y-146500000D02*
X64720000Y-146500000D01*
X65720000Y-146000000D02*
X65720000Y-146500000D01*
X64720000Y-146000000D02*
X65720000Y-146000000D01*
G04 #@! TO.C,R215*
X92720000Y-146000000D02*
X93720000Y-146000000D01*
X93720000Y-146000000D02*
X93720000Y-146500000D01*
X93720000Y-146500000D02*
X92720000Y-146500000D01*
X92720000Y-146500000D02*
X92720000Y-146000000D01*
G04 #@! TO.C,R216*
X113720000Y-146500000D02*
X113720000Y-146000000D01*
X114720000Y-146500000D02*
X113720000Y-146500000D01*
X114720000Y-146000000D02*
X114720000Y-146500000D01*
X113720000Y-146000000D02*
X114720000Y-146000000D01*
G04 #@! TD*
G04 #@! TO.C,C101*
D11*
X96359047Y-58251428D02*
X97120952Y-58251428D01*
X96740000Y-58632380D02*
X96740000Y-57870476D01*
G04 #@! TO.C,C161*
X66578894Y-60716760D02*
X66578894Y-59954855D01*
X66959846Y-60335808D02*
X66197942Y-60335808D01*
G04 #@! TD*
M02*
