M48
;DRILL file {KiCad (5.0.1)-4} date 5/31/2019 3:51:04 PM
;FORMAT={2:4/ absolute / inch / suppress leading zeros}
FMAT,2
INCH,TZ
T1C0.0157
T2C0.0394
%
G90
G05
M72
T1
X45886Y-36752
X45896Y-31250
X45896Y-33120
X45896Y-35699
X45906Y-34843
X46791Y-35689
X46841Y-31270
X46841Y-32175
X46860Y-33986
X46860Y-36742
X46919Y-34852
X47805Y-34823
X47825Y-35768
X47874Y-30433
X47884Y-31289
X48041Y-36742
X48287Y-28839
X48455Y-32746
X48465Y-33406
X48524Y-32146
X48553Y-33996
X48898Y-33406
X48937Y-32756
X49016Y-34843
X49045Y-35699
X49154Y-30433
X49183Y-31614
X49311Y-36742
X49321Y-33415
X49360Y-32756
X49695Y-33622
X49734Y-32500
X50020Y-33071
X50020Y-33947
X50039Y-32205
X50295Y-35719
X50325Y-31909
X50328Y-33412
X50344Y-32717
X50344Y-34272
X50463Y-30463
X50463Y-36713
X50630Y-31575
X50679Y-34596
X51063Y-31535
X51142Y-34606
X51181Y-33986
X51211Y-32126
X51280Y-33081
X51545Y-31526
X51604Y-34616
X51713Y-36742
X51909Y-29823
X52057Y-34616
X52067Y-31516
X52195Y-28917
X52785Y-29813
X52795Y-35512
X52805Y-30591
X52815Y-32480
X52884Y-33671
X53100Y-36742
X53268Y-28937
X53760Y-29823
X53760Y-34547
X53770Y-31535
X53770Y-36280
X54498Y-36309
X54537Y-29823
X54537Y-33642
X54537Y-34626
X54537Y-35561
X54567Y-28937
X54567Y-31506
X54567Y-32490
X54577Y-30640
T2
X46161Y-29154
X47161Y-29154
T0
M30
