G04 #@! TF.GenerationSoftware,KiCad,Pcbnew,(5.0.1)-4*
G04 #@! TF.CreationDate,2019-05-31T15:51:02-07:00*
G04 #@! TF.ProjectId,Fanout_circuit,46616E6F75745F636972637569742E6B,rev?*
G04 #@! TF.SameCoordinates,Original*
G04 #@! TF.FileFunction,Legend,Top*
G04 #@! TF.FilePolarity,Positive*
%FSLAX46Y46*%
G04 Gerber Fmt 4.6, Leading zero omitted, Abs format (unit mm)*
G04 Created by KiCad (PCBNEW (5.0.1)-4) date 5/31/2019 3:51:02 PM*
%MOMM*%
%LPD*%
G01*
G04 APERTURE LIST*
%ADD10C,0.100000*%
%ADD11C,0.200000*%
%ADD12C,0.150000*%
%ADD13C,0.120000*%
G04 APERTURE END LIST*
D10*
X125251190Y-72803571D02*
X125584523Y-72803571D01*
X125727380Y-73327380D02*
X125251190Y-73327380D01*
X125251190Y-72327380D01*
X125727380Y-72327380D01*
X126298809Y-73327380D02*
X126203571Y-73279761D01*
X126155952Y-73184523D01*
X126155952Y-72327380D01*
X126822619Y-73327380D02*
X126727380Y-73279761D01*
X126679761Y-73184523D01*
X126679761Y-72327380D01*
X127203571Y-73327380D02*
X127203571Y-72327380D01*
X127203571Y-72708333D02*
X127298809Y-72660714D01*
X127489285Y-72660714D01*
X127584523Y-72708333D01*
X127632142Y-72755952D01*
X127679761Y-72851190D01*
X127679761Y-73136904D01*
X127632142Y-73232142D01*
X127584523Y-73279761D01*
X127489285Y-73327380D01*
X127298809Y-73327380D01*
X127203571Y-73279761D01*
X128536904Y-73327380D02*
X128536904Y-72803571D01*
X128489285Y-72708333D01*
X128394047Y-72660714D01*
X128203571Y-72660714D01*
X128108333Y-72708333D01*
X128536904Y-73279761D02*
X128441666Y-73327380D01*
X128203571Y-73327380D01*
X128108333Y-73279761D01*
X128060714Y-73184523D01*
X128060714Y-73089285D01*
X128108333Y-72994047D01*
X128203571Y-72946428D01*
X128441666Y-72946428D01*
X128536904Y-72898809D01*
X128917857Y-72660714D02*
X129155952Y-73327380D01*
X129394047Y-72660714D02*
X129155952Y-73327380D01*
X129060714Y-73565476D01*
X129013095Y-73613095D01*
X128917857Y-73660714D01*
X122560714Y-74403571D02*
X122227380Y-74403571D01*
X122227380Y-74927380D02*
X122227380Y-73927380D01*
X122703571Y-73927380D01*
X123513095Y-74927380D02*
X123513095Y-74403571D01*
X123465476Y-74308333D01*
X123370238Y-74260714D01*
X123179761Y-74260714D01*
X123084523Y-74308333D01*
X123513095Y-74879761D02*
X123417857Y-74927380D01*
X123179761Y-74927380D01*
X123084523Y-74879761D01*
X123036904Y-74784523D01*
X123036904Y-74689285D01*
X123084523Y-74594047D01*
X123179761Y-74546428D01*
X123417857Y-74546428D01*
X123513095Y-74498809D01*
X123989285Y-74260714D02*
X123989285Y-74927380D01*
X123989285Y-74355952D02*
X124036904Y-74308333D01*
X124132142Y-74260714D01*
X124275000Y-74260714D01*
X124370238Y-74308333D01*
X124417857Y-74403571D01*
X124417857Y-74927380D01*
X125036904Y-74927380D02*
X124941666Y-74879761D01*
X124894047Y-74832142D01*
X124846428Y-74736904D01*
X124846428Y-74451190D01*
X124894047Y-74355952D01*
X124941666Y-74308333D01*
X125036904Y-74260714D01*
X125179761Y-74260714D01*
X125275000Y-74308333D01*
X125322619Y-74355952D01*
X125370238Y-74451190D01*
X125370238Y-74736904D01*
X125322619Y-74832142D01*
X125275000Y-74879761D01*
X125179761Y-74927380D01*
X125036904Y-74927380D01*
X126227380Y-74260714D02*
X126227380Y-74927380D01*
X125798809Y-74260714D02*
X125798809Y-74784523D01*
X125846428Y-74879761D01*
X125941666Y-74927380D01*
X126084523Y-74927380D01*
X126179761Y-74879761D01*
X126227380Y-74832142D01*
X126560714Y-74260714D02*
X126941666Y-74260714D01*
X126703571Y-73927380D02*
X126703571Y-74784523D01*
X126751190Y-74879761D01*
X126846428Y-74927380D01*
X126941666Y-74927380D01*
X128465476Y-74879761D02*
X128370238Y-74927380D01*
X128179761Y-74927380D01*
X128084523Y-74879761D01*
X128036904Y-74832142D01*
X127989285Y-74736904D01*
X127989285Y-74451190D01*
X128036904Y-74355952D01*
X128084523Y-74308333D01*
X128179761Y-74260714D01*
X128370238Y-74260714D01*
X128465476Y-74308333D01*
X128894047Y-74927380D02*
X128894047Y-74260714D01*
X128894047Y-73927380D02*
X128846428Y-73975000D01*
X128894047Y-74022619D01*
X128941666Y-73975000D01*
X128894047Y-73927380D01*
X128894047Y-74022619D01*
X129370238Y-74927380D02*
X129370238Y-74260714D01*
X129370238Y-74451190D02*
X129417857Y-74355952D01*
X129465476Y-74308333D01*
X129560714Y-74260714D01*
X129655952Y-74260714D01*
X130417857Y-74879761D02*
X130322619Y-74927380D01*
X130132142Y-74927380D01*
X130036904Y-74879761D01*
X129989285Y-74832142D01*
X129941666Y-74736904D01*
X129941666Y-74451190D01*
X129989285Y-74355952D01*
X130036904Y-74308333D01*
X130132142Y-74260714D01*
X130322619Y-74260714D01*
X130417857Y-74308333D01*
X131275000Y-74260714D02*
X131275000Y-74927380D01*
X130846428Y-74260714D02*
X130846428Y-74784523D01*
X130894047Y-74879761D01*
X130989285Y-74927380D01*
X131132142Y-74927380D01*
X131227380Y-74879761D01*
X131275000Y-74832142D01*
X131751190Y-74927380D02*
X131751190Y-74260714D01*
X131751190Y-73927380D02*
X131703571Y-73975000D01*
X131751190Y-74022619D01*
X131798809Y-73975000D01*
X131751190Y-73927380D01*
X131751190Y-74022619D01*
X132084523Y-74260714D02*
X132465476Y-74260714D01*
X132227380Y-73927380D02*
X132227380Y-74784523D01*
X132275000Y-74879761D01*
X132370238Y-74927380D01*
X132465476Y-74927380D01*
X123989285Y-75622619D02*
X124036904Y-75575000D01*
X124132142Y-75527380D01*
X124370238Y-75527380D01*
X124465476Y-75575000D01*
X124513095Y-75622619D01*
X124560714Y-75717857D01*
X124560714Y-75813095D01*
X124513095Y-75955952D01*
X123941666Y-76527380D01*
X124560714Y-76527380D01*
X125179761Y-75527380D02*
X125275000Y-75527380D01*
X125370238Y-75575000D01*
X125417857Y-75622619D01*
X125465476Y-75717857D01*
X125513095Y-75908333D01*
X125513095Y-76146428D01*
X125465476Y-76336904D01*
X125417857Y-76432142D01*
X125370238Y-76479761D01*
X125275000Y-76527380D01*
X125179761Y-76527380D01*
X125084523Y-76479761D01*
X125036904Y-76432142D01*
X124989285Y-76336904D01*
X124941666Y-76146428D01*
X124941666Y-75908333D01*
X124989285Y-75717857D01*
X125036904Y-75622619D01*
X125084523Y-75575000D01*
X125179761Y-75527380D01*
X126465476Y-76527380D02*
X125894047Y-76527380D01*
X126179761Y-76527380D02*
X126179761Y-75527380D01*
X126084523Y-75670238D01*
X125989285Y-75765476D01*
X125894047Y-75813095D01*
X126941666Y-76527380D02*
X127132142Y-76527380D01*
X127227380Y-76479761D01*
X127275000Y-76432142D01*
X127370238Y-76289285D01*
X127417857Y-76098809D01*
X127417857Y-75717857D01*
X127370238Y-75622619D01*
X127322619Y-75575000D01*
X127227380Y-75527380D01*
X127036904Y-75527380D01*
X126941666Y-75575000D01*
X126894047Y-75622619D01*
X126846428Y-75717857D01*
X126846428Y-75955952D01*
X126894047Y-76051190D01*
X126941666Y-76098809D01*
X127036904Y-76146428D01*
X127227380Y-76146428D01*
X127322619Y-76098809D01*
X127370238Y-76051190D01*
X127417857Y-75955952D01*
X127846428Y-76146428D02*
X128608333Y-76146428D01*
X129275000Y-75527380D02*
X129370238Y-75527380D01*
X129465476Y-75575000D01*
X129513095Y-75622619D01*
X129560714Y-75717857D01*
X129608333Y-75908333D01*
X129608333Y-76146428D01*
X129560714Y-76336904D01*
X129513095Y-76432142D01*
X129465476Y-76479761D01*
X129370238Y-76527380D01*
X129275000Y-76527380D01*
X129179761Y-76479761D01*
X129132142Y-76432142D01*
X129084523Y-76336904D01*
X129036904Y-76146428D01*
X129036904Y-75908333D01*
X129084523Y-75717857D01*
X129132142Y-75622619D01*
X129179761Y-75575000D01*
X129275000Y-75527380D01*
X130513095Y-75527380D02*
X130036904Y-75527380D01*
X129989285Y-76003571D01*
X130036904Y-75955952D01*
X130132142Y-75908333D01*
X130370238Y-75908333D01*
X130465476Y-75955952D01*
X130513095Y-76003571D01*
X130560714Y-76098809D01*
X130560714Y-76336904D01*
X130513095Y-76432142D01*
X130465476Y-76479761D01*
X130370238Y-76527380D01*
X130132142Y-76527380D01*
X130036904Y-76479761D01*
X129989285Y-76432142D01*
D11*
X140000000Y-72000000D02*
X115000000Y-72000000D01*
X140000000Y-95000000D02*
X140000000Y-72000000D01*
X115000000Y-95000000D02*
X140000000Y-95000000D01*
X115000000Y-72000000D02*
X115000000Y-95000000D01*
D12*
G04 #@! TO.C,CON3*
X137490000Y-76840000D02*
X130890000Y-76840000D01*
X137490000Y-83480000D02*
X137490000Y-76840000D01*
X130910000Y-83480000D02*
X137490000Y-83480000D01*
X130910000Y-76830000D02*
X130910000Y-83480000D01*
D13*
G04 #@! TO.C,J3*
X115920000Y-75380000D02*
X115920000Y-74050000D01*
X117250000Y-75380000D02*
X115920000Y-75380000D01*
X118520000Y-75380000D02*
X118520000Y-72720000D01*
X118520000Y-72720000D02*
X121120000Y-72720000D01*
X118520000Y-75380000D02*
X121120000Y-75380000D01*
X121120000Y-75380000D02*
X121120000Y-72720000D01*
D12*
G04 #@! TO.C,CON2*
X130910000Y-84530000D02*
X130910000Y-91180000D01*
X130910000Y-91180000D02*
X137490000Y-91180000D01*
X137490000Y-91180000D02*
X137490000Y-84540000D01*
X137490000Y-84540000D02*
X130890000Y-84540000D01*
G04 #@! TO.C,CON1*
X115710000Y-80680000D02*
X115710000Y-87330000D01*
X115710000Y-87330000D02*
X122290000Y-87330000D01*
X122290000Y-87330000D02*
X122290000Y-80690000D01*
X122290000Y-80690000D02*
X115690000Y-80690000D01*
D13*
G04 #@! TO.C,R1*
X129730000Y-84250000D02*
X129730000Y-83750000D01*
X128670000Y-83750000D02*
X128670000Y-84250000D01*
G04 #@! TO.C,C1*
X118225000Y-77145000D02*
X118725000Y-77145000D01*
X118725000Y-76205000D02*
X118225000Y-76205000D01*
G04 #@! TD*
M02*
