G04 #@! TF.GenerationSoftware,KiCad,Pcbnew,(5.0.1)-4*
G04 #@! TF.CreationDate,2019-05-31T15:51:02-07:00*
G04 #@! TF.ProjectId,Fanout_circuit,46616E6F75745F636972637569742E6B,rev?*
G04 #@! TF.SameCoordinates,Original*
G04 #@! TF.FileFunction,Copper,L2,Inr,Plane*
G04 #@! TF.FilePolarity,Positive*
%FSLAX46Y46*%
G04 Gerber Fmt 4.6, Leading zero omitted, Abs format (unit mm)*
G04 Created by KiCad (PCBNEW (5.0.1)-4) date 5/31/2019 3:51:02 PM*
%MOMM*%
%LPD*%
G01*
G04 APERTURE LIST*
G04 #@! TA.AperFunction,ViaPad*
%ADD10O,1.700000X1.700000*%
G04 #@! TD*
G04 #@! TA.AperFunction,ViaPad*
%ADD11R,1.700000X1.700000*%
G04 #@! TD*
G04 #@! TA.AperFunction,ViaPad*
%ADD12C,0.800000*%
G04 #@! TD*
G04 #@! TA.AperFunction,Conductor*
%ADD13C,0.254000*%
G04 #@! TD*
G04 APERTURE END LIST*
D10*
G04 #@! TO.N,GND*
G04 #@! TO.C,J3*
X119790000Y-74050000D03*
D11*
G04 #@! TO.N,+5V*
X117250000Y-74050000D03*
G04 #@! TD*
D12*
G04 #@! TO.N,GND*
X118975000Y-81725000D03*
X116575000Y-84125000D03*
X119025000Y-86325000D03*
X116600000Y-88500000D03*
X119175000Y-88525000D03*
X121425000Y-88450000D03*
X124500000Y-88500000D03*
X127750000Y-90725000D03*
X124575000Y-90675000D03*
X121475000Y-90850000D03*
X118850000Y-90650000D03*
X116575000Y-90675000D03*
X116550000Y-93350000D03*
X119025000Y-93325000D03*
X122025000Y-93325000D03*
X125250000Y-93325000D03*
X128175000Y-93250000D03*
X131350000Y-93325000D03*
X134875000Y-93325000D03*
X116575000Y-79375000D03*
X118975000Y-79425000D03*
X121625000Y-79475000D03*
X121600000Y-77300000D03*
X124850000Y-77300000D03*
X124925000Y-80300000D03*
X122650000Y-73250000D03*
X123250000Y-81650000D03*
X123075000Y-83175000D03*
X124300000Y-83200000D03*
X125375000Y-83200000D03*
X126325000Y-82550000D03*
X127100000Y-81800000D03*
X127825000Y-81050000D03*
X128600000Y-80200000D03*
X129700000Y-80100000D03*
X130925000Y-80075000D03*
X132250000Y-80050000D03*
X128175000Y-77375000D03*
X134125000Y-77700000D03*
X136550000Y-75750000D03*
X134075000Y-75725000D03*
X131850000Y-75750000D03*
X134150000Y-82500000D03*
X138600000Y-82525000D03*
X138625000Y-77825000D03*
X136575000Y-80100000D03*
X138525000Y-85450000D03*
X138525000Y-87950000D03*
X138525000Y-90325000D03*
X136550000Y-87750000D03*
X134325000Y-85525000D03*
X138600000Y-80025000D03*
X138525000Y-75750000D03*
X138600000Y-73500000D03*
X135300000Y-73500000D03*
X132575000Y-73450000D03*
X123325000Y-86350000D03*
X123100000Y-84850000D03*
X124200000Y-84850000D03*
X125275000Y-84875000D03*
X126225000Y-85400000D03*
X127050000Y-86225000D03*
X127875000Y-87050000D03*
X128725000Y-87875000D03*
X129900000Y-87900000D03*
X131075000Y-87925000D03*
X132225000Y-87925000D03*
X127050000Y-84000000D03*
X127875000Y-83100000D03*
X127833015Y-84866985D03*
X130075000Y-81600000D03*
X130250000Y-84025000D03*
X130000000Y-86325000D03*
X136575000Y-92150000D03*
X138425000Y-92225000D03*
X134100000Y-90200000D03*
G04 #@! TD*
D13*
G04 #@! TO.N,GND*
G36*
X139873000Y-94873000D02*
X115127000Y-94873000D01*
X115127000Y-73200000D01*
X116066594Y-73200000D01*
X116066594Y-74900000D01*
X116091973Y-75027589D01*
X116164246Y-75135754D01*
X116272411Y-75208027D01*
X116400000Y-75233406D01*
X118100000Y-75233406D01*
X118227589Y-75208027D01*
X118335754Y-75135754D01*
X118408027Y-75027589D01*
X118433406Y-74900000D01*
X118433406Y-73200000D01*
X118408027Y-73072411D01*
X118335754Y-72964246D01*
X118227589Y-72891973D01*
X118100000Y-72866594D01*
X116400000Y-72866594D01*
X116272411Y-72891973D01*
X116164246Y-72964246D01*
X116091973Y-73072411D01*
X116066594Y-73200000D01*
X115127000Y-73200000D01*
X115127000Y-72127000D01*
X139873000Y-72127000D01*
X139873000Y-94873000D01*
X139873000Y-94873000D01*
G37*
X139873000Y-94873000D02*
X115127000Y-94873000D01*
X115127000Y-73200000D01*
X116066594Y-73200000D01*
X116066594Y-74900000D01*
X116091973Y-75027589D01*
X116164246Y-75135754D01*
X116272411Y-75208027D01*
X116400000Y-75233406D01*
X118100000Y-75233406D01*
X118227589Y-75208027D01*
X118335754Y-75135754D01*
X118408027Y-75027589D01*
X118433406Y-74900000D01*
X118433406Y-73200000D01*
X118408027Y-73072411D01*
X118335754Y-72964246D01*
X118227589Y-72891973D01*
X118100000Y-72866594D01*
X116400000Y-72866594D01*
X116272411Y-72891973D01*
X116164246Y-72964246D01*
X116091973Y-73072411D01*
X116066594Y-73200000D01*
X115127000Y-73200000D01*
X115127000Y-72127000D01*
X139873000Y-72127000D01*
X139873000Y-94873000D01*
G04 #@! TD*
M02*
