G04 #@! TF.GenerationSoftware,KiCad,Pcbnew,(5.0.1)-4*
G04 #@! TF.CreationDate,2019-05-31T15:51:02-07:00*
G04 #@! TF.ProjectId,Fanout_circuit,46616E6F75745F636972637569742E6B,rev?*
G04 #@! TF.SameCoordinates,Original*
G04 #@! TF.FileFunction,Copper,L1,Top,Signal*
G04 #@! TF.FilePolarity,Positive*
%FSLAX46Y46*%
G04 Gerber Fmt 4.6, Leading zero omitted, Abs format (unit mm)*
G04 Created by KiCad (PCBNEW (5.0.1)-4) date 5/31/2019 3:51:02 PM*
%MOMM*%
%LPD*%
G01*
G04 APERTURE LIST*
G04 #@! TA.AperFunction,SMDPad,CuDef*
%ADD10R,0.200000X0.345000*%
G04 #@! TD*
G04 #@! TA.AperFunction,SMDPad,CuDef*
%ADD11R,0.200000X0.290000*%
G04 #@! TD*
G04 #@! TA.AperFunction,SMDPad,CuDef*
%ADD12C,0.150000*%
G04 #@! TD*
G04 #@! TA.AperFunction,Conductor*
%ADD13C,0.200000*%
G04 #@! TD*
G04 #@! TA.AperFunction,SMDPad,CuDef*
%ADD14R,1.500000X1.500000*%
G04 #@! TD*
G04 #@! TA.AperFunction,SMDPad,CuDef*
%ADD15R,1.900000X1.900000*%
G04 #@! TD*
G04 #@! TA.AperFunction,ComponentPad*
%ADD16O,1.700000X1.700000*%
G04 #@! TD*
G04 #@! TA.AperFunction,ComponentPad*
%ADD17R,1.700000X1.700000*%
G04 #@! TD*
G04 #@! TA.AperFunction,SMDPad,CuDef*
%ADD18R,0.600000X0.400000*%
G04 #@! TD*
G04 #@! TA.AperFunction,SMDPad,CuDef*
%ADD19R,0.600000X0.500000*%
G04 #@! TD*
G04 #@! TA.AperFunction,ViaPad*
%ADD20C,0.800000*%
G04 #@! TD*
G04 #@! TA.AperFunction,Conductor*
%ADD21C,0.267000*%
G04 #@! TD*
G04 #@! TA.AperFunction,Conductor*
%ADD22C,0.250000*%
G04 #@! TD*
G04 #@! TA.AperFunction,Conductor*
%ADD23C,0.254000*%
G04 #@! TD*
G04 APERTURE END LIST*
D10*
G04 #@! TO.P,J1,1*
G04 #@! TO.N,/LO*
X121510000Y-84000000D03*
D11*
X129210000Y-87138000D03*
X129210000Y-80862000D03*
D12*
X126000000Y-84000000D03*
D13*
G04 #@! TD*
G04 #@! TO.N,/LO*
G04 #@! TO.C,J1*
G36*
X129111000Y-81006500D02*
X126117500Y-84000000D01*
X129111000Y-86993500D01*
X129111000Y-87283500D01*
X126000000Y-84172500D01*
X121600000Y-84172500D01*
X121600000Y-83827500D01*
X126000000Y-83827500D01*
X129111000Y-80716500D01*
X129111000Y-81006500D01*
X129111000Y-81006500D01*
G37*
D14*
G04 #@! TO.P,CON3,1*
G04 #@! TO.N,/LO*
X134200000Y-80150000D03*
D15*
G04 #@! TO.P,CON3,2*
G04 #@! TO.N,GND*
X131825000Y-77775000D03*
X131825000Y-82525000D03*
X136575000Y-82525000D03*
X136575000Y-77775000D03*
G04 #@! TD*
D16*
G04 #@! TO.P,J3,2*
G04 #@! TO.N,GND*
X119790000Y-74050000D03*
D17*
G04 #@! TO.P,J3,1*
G04 #@! TO.N,+5V*
X117250000Y-74050000D03*
G04 #@! TD*
D15*
G04 #@! TO.P,CON2,2*
G04 #@! TO.N,GND*
X136575000Y-85475000D03*
X136575000Y-90225000D03*
X131825000Y-90225000D03*
X131825000Y-85475000D03*
D14*
G04 #@! TO.P,CON2,1*
G04 #@! TO.N,/LO*
X134200000Y-87850000D03*
G04 #@! TD*
D15*
G04 #@! TO.P,CON1,2*
G04 #@! TO.N,GND*
X121375000Y-81625000D03*
X121375000Y-86375000D03*
X116625000Y-86375000D03*
X116625000Y-81625000D03*
D14*
G04 #@! TO.P,CON1,1*
G04 #@! TO.N,/LO*
X119000000Y-84000000D03*
G04 #@! TD*
D18*
G04 #@! TO.P,R1,2*
G04 #@! TO.N,/LO*
X129200000Y-83550000D03*
G04 #@! TO.P,R1,1*
X129200000Y-84450000D03*
G04 #@! TD*
D19*
G04 #@! TO.P,C1,2*
G04 #@! TO.N,GND*
X118975000Y-76675000D03*
G04 #@! TO.P,C1,1*
G04 #@! TO.N,+5V*
X117975000Y-76675000D03*
G04 #@! TD*
D20*
G04 #@! TO.N,GND*
X118975000Y-81725000D03*
X116575000Y-84125000D03*
X119025000Y-86325000D03*
X116600000Y-88500000D03*
X119175000Y-88525000D03*
X121425000Y-88450000D03*
X124500000Y-88500000D03*
X127750000Y-90725000D03*
X124575000Y-90675000D03*
X121475000Y-90850000D03*
X118850000Y-90650000D03*
X116575000Y-90675000D03*
X116550000Y-93350000D03*
X119025000Y-93325000D03*
X122025000Y-93325000D03*
X125250000Y-93325000D03*
X128175000Y-93250000D03*
X131350000Y-93325000D03*
X134875000Y-93325000D03*
X116575000Y-79375000D03*
X118975000Y-79425000D03*
X121625000Y-79475000D03*
X121600000Y-77300000D03*
X124850000Y-77300000D03*
X124925000Y-80300000D03*
X122650000Y-73250000D03*
X123250000Y-81650000D03*
X123075000Y-83175000D03*
X124300000Y-83200000D03*
X125375000Y-83200000D03*
X126325000Y-82550000D03*
X127100000Y-81800000D03*
X127825000Y-81050000D03*
X128600000Y-80200000D03*
X129700000Y-80100000D03*
X130925000Y-80075000D03*
X132250000Y-80050000D03*
X128175000Y-77375000D03*
X134125000Y-77700000D03*
X136550000Y-75750000D03*
X134075000Y-75725000D03*
X131850000Y-75750000D03*
X134150000Y-82500000D03*
X138600000Y-82525000D03*
X138625000Y-77825000D03*
X136575000Y-80100000D03*
X138525000Y-85450000D03*
X138525000Y-87950000D03*
X138525000Y-90325000D03*
X136550000Y-87750000D03*
X134325000Y-85525000D03*
X138600000Y-80025000D03*
X138525000Y-75750000D03*
X138600000Y-73500000D03*
X135300000Y-73500000D03*
X132575000Y-73450000D03*
X123325000Y-86350000D03*
X123100000Y-84850000D03*
X124200000Y-84850000D03*
X125275000Y-84875000D03*
X126225000Y-85400000D03*
X127050000Y-86225000D03*
X127875000Y-87050000D03*
X128725000Y-87875000D03*
X129900000Y-87900000D03*
X131075000Y-87925000D03*
X132225000Y-87925000D03*
X127050000Y-84000000D03*
X127875000Y-83100000D03*
X127833015Y-84866985D03*
X130075000Y-81600000D03*
X130250000Y-84025000D03*
X130000000Y-86325000D03*
X136575000Y-92150000D03*
X138425000Y-92225000D03*
X134100000Y-90200000D03*
G04 #@! TD*
D21*
G04 #@! TO.N,GND*
X121375000Y-81625000D02*
X119075000Y-81625000D01*
X119075000Y-81625000D02*
X118975000Y-81725000D01*
X118875000Y-81625000D02*
X118975000Y-81725000D01*
X116625000Y-81625000D02*
X118875000Y-81625000D01*
X116625000Y-86375000D02*
X116625000Y-84175000D01*
X116625000Y-84175000D02*
X116575000Y-84125000D01*
X116625000Y-84075000D02*
X116575000Y-84125000D01*
X116625000Y-81625000D02*
X116625000Y-84075000D01*
X116625000Y-86375000D02*
X118975000Y-86375000D01*
X118975000Y-86375000D02*
X119025000Y-86325000D01*
X119075000Y-86375000D02*
X119025000Y-86325000D01*
X121375000Y-86375000D02*
X119075000Y-86375000D01*
X116625000Y-86375000D02*
X116625000Y-88475000D01*
X116625000Y-88475000D02*
X116600000Y-88500000D01*
X119175000Y-88525000D02*
X121350000Y-88525000D01*
X121350000Y-88525000D02*
X121425000Y-88450000D01*
X127750000Y-90725000D02*
X124625000Y-90725000D01*
X124625000Y-90725000D02*
X124575000Y-90675000D01*
X121475000Y-90850000D02*
X119050000Y-90850000D01*
X119050000Y-90850000D02*
X118850000Y-90650000D01*
X116575000Y-90675000D02*
X116575000Y-93325000D01*
X116575000Y-93325000D02*
X116550000Y-93350000D01*
X119025000Y-93325000D02*
X122025000Y-93325000D01*
X125250000Y-93325000D02*
X128100000Y-93325000D01*
X128100000Y-93325000D02*
X128175000Y-93250000D01*
X131350000Y-93325000D02*
X134875000Y-93325000D01*
X116625000Y-81625000D02*
X116625000Y-79425000D01*
X116625000Y-79425000D02*
X116575000Y-79375000D01*
X118975000Y-79425000D02*
X121575000Y-79425000D01*
X121575000Y-79425000D02*
X121625000Y-79475000D01*
X121600000Y-77300000D02*
X124850000Y-77300000D01*
X119865000Y-74125000D02*
X119790000Y-74050000D01*
X119790000Y-74050000D02*
X121850000Y-74050000D01*
X121850000Y-74050000D02*
X122650000Y-73250000D01*
X119790000Y-75252081D02*
X119790000Y-74050000D01*
X119790000Y-76427000D02*
X119790000Y-75252081D01*
X119542000Y-76675000D02*
X119790000Y-76427000D01*
X118975000Y-76675000D02*
X119542000Y-76675000D01*
D22*
X121375000Y-81625000D02*
X123225000Y-81625000D01*
X123225000Y-81625000D02*
X123250000Y-81650000D01*
X123075000Y-83175000D02*
X124275000Y-83175000D01*
X124275000Y-83175000D02*
X124300000Y-83200000D01*
X125375000Y-83200000D02*
X125675000Y-83200000D01*
X125675000Y-83200000D02*
X126325000Y-82550000D01*
X127100000Y-81800000D02*
X127100000Y-81775000D01*
X127100000Y-81775000D02*
X127825000Y-81050000D01*
X128600000Y-80200000D02*
X129600000Y-80200000D01*
X129600000Y-80200000D02*
X129700000Y-80100000D01*
X130925000Y-80075000D02*
X132225000Y-80075000D01*
X132225000Y-80075000D02*
X132250000Y-80050000D01*
X131825000Y-79625000D02*
X132250000Y-80050000D01*
X131825000Y-77775000D02*
X131825000Y-79625000D01*
X124850000Y-77300000D02*
X128100000Y-77300000D01*
X128100000Y-77300000D02*
X128175000Y-77375000D01*
X131825000Y-77775000D02*
X134050000Y-77775000D01*
X134050000Y-77775000D02*
X134125000Y-77700000D01*
X136575000Y-77775000D02*
X136575000Y-75775000D01*
X136575000Y-75775000D02*
X136550000Y-75750000D01*
X134075000Y-75725000D02*
X131875000Y-75725000D01*
X131875000Y-75725000D02*
X131850000Y-75750000D01*
X131825000Y-75775000D02*
X131850000Y-75750000D01*
X131825000Y-77775000D02*
X131825000Y-75775000D01*
X131825000Y-82525000D02*
X134125000Y-82525000D01*
X134125000Y-82525000D02*
X134150000Y-82500000D01*
X136575000Y-82525000D02*
X138600000Y-82525000D01*
X136575000Y-82525000D02*
X136575000Y-80100000D01*
X136575000Y-85475000D02*
X138500000Y-85475000D01*
X138500000Y-85475000D02*
X138525000Y-85450000D01*
X138525000Y-87950000D02*
X138525000Y-90325000D01*
X136575000Y-85475000D02*
X136575000Y-87725000D01*
X136575000Y-87725000D02*
X136550000Y-87750000D01*
X136575000Y-85475000D02*
X134375000Y-85475000D01*
X134375000Y-85475000D02*
X134325000Y-85525000D01*
X138525000Y-75750000D02*
X138525000Y-73575000D01*
X138525000Y-73575000D02*
X138600000Y-73500000D01*
X135300000Y-73500000D02*
X132625000Y-73500000D01*
X132625000Y-73500000D02*
X132575000Y-73450000D01*
X121375000Y-86375000D02*
X123300000Y-86375000D01*
X123300000Y-86375000D02*
X123325000Y-86350000D01*
X123100000Y-84850000D02*
X124200000Y-84850000D01*
X125275000Y-84875000D02*
X125700000Y-84875000D01*
X125700000Y-84875000D02*
X126225000Y-85400000D01*
X127050000Y-86225000D02*
X127875000Y-87050000D01*
X128725000Y-87875000D02*
X129875000Y-87875000D01*
X129875000Y-87875000D02*
X129900000Y-87900000D01*
X131075000Y-87925000D02*
X132225000Y-87925000D01*
X127050000Y-84000000D02*
X127050000Y-83925000D01*
X127050000Y-83925000D02*
X127875000Y-83100000D01*
X131825000Y-82525000D02*
X131000000Y-82525000D01*
X131000000Y-82525000D02*
X130075000Y-81600000D01*
X130250000Y-84025000D02*
X130250000Y-86075000D01*
X130250000Y-86075000D02*
X130000000Y-86325000D01*
X136575000Y-90225000D02*
X136575000Y-92150000D01*
X131825000Y-90225000D02*
X134075000Y-90225000D01*
X134075000Y-90225000D02*
X134100000Y-90200000D01*
D21*
G04 #@! TO.N,/LO*
X119000000Y-84000000D02*
X121510000Y-84000000D01*
X126000000Y-84000000D02*
X121510000Y-84000000D01*
X129200000Y-80872000D02*
X129210000Y-80862000D01*
X129200000Y-83550000D02*
X129200000Y-80872000D01*
X129200000Y-87128000D02*
X129210000Y-87138000D01*
X129200000Y-84450000D02*
X129200000Y-87128000D01*
X133488000Y-80862000D02*
X134200000Y-80150000D01*
X129210000Y-80862000D02*
X133488000Y-80862000D01*
X133488000Y-87138000D02*
X134200000Y-87850000D01*
X129210000Y-87138000D02*
X133488000Y-87138000D01*
G04 #@! TO.N,+5V*
X117250000Y-75167000D02*
X117250000Y-74050000D01*
X117250000Y-76000000D02*
X117250000Y-75167000D01*
X117925000Y-76675000D02*
X117250000Y-76000000D01*
X117975000Y-76675000D02*
X117925000Y-76675000D01*
G04 #@! TD*
D23*
G04 #@! TO.N,GND*
G36*
X139873000Y-94873000D02*
X115127000Y-94873000D01*
X115127000Y-83250000D01*
X117916594Y-83250000D01*
X117916594Y-84750000D01*
X117941973Y-84877589D01*
X118014246Y-84985754D01*
X118122411Y-85058027D01*
X118250000Y-85083406D01*
X119750000Y-85083406D01*
X119877589Y-85058027D01*
X119985754Y-84985754D01*
X120058027Y-84877589D01*
X120083406Y-84750000D01*
X120083406Y-84460500D01*
X121252438Y-84460500D01*
X121282411Y-84480527D01*
X121410000Y-84505906D01*
X125861898Y-84505906D01*
X128873239Y-87517247D01*
X128874246Y-87518754D01*
X128982411Y-87591027D01*
X128982769Y-87591098D01*
X128983411Y-87591527D01*
X129111000Y-87616906D01*
X129113514Y-87616406D01*
X129310000Y-87616406D01*
X129400020Y-87598500D01*
X133116594Y-87598500D01*
X133116594Y-88600000D01*
X133141973Y-88727589D01*
X133214246Y-88835754D01*
X133322411Y-88908027D01*
X133450000Y-88933406D01*
X134950000Y-88933406D01*
X135077589Y-88908027D01*
X135185754Y-88835754D01*
X135258027Y-88727589D01*
X135283406Y-88600000D01*
X135283406Y-87100000D01*
X135258027Y-86972411D01*
X135185754Y-86864246D01*
X135077589Y-86791973D01*
X134950000Y-86766594D01*
X133761028Y-86766594D01*
X133667678Y-86704219D01*
X133533352Y-86677500D01*
X133533348Y-86677500D01*
X133488000Y-86668480D01*
X133442652Y-86677500D01*
X129660500Y-86677500D01*
X129660500Y-84936037D01*
X129735754Y-84885754D01*
X129808027Y-84777589D01*
X129833406Y-84650000D01*
X129833406Y-84250000D01*
X129808027Y-84122411D01*
X129735754Y-84014246D01*
X129714433Y-84000000D01*
X129735754Y-83985754D01*
X129808027Y-83877589D01*
X129833406Y-83750000D01*
X129833406Y-83350000D01*
X129808027Y-83222411D01*
X129735754Y-83114246D01*
X129660500Y-83063963D01*
X129660500Y-81322500D01*
X133442652Y-81322500D01*
X133488000Y-81331520D01*
X133533348Y-81322500D01*
X133533352Y-81322500D01*
X133667678Y-81295781D01*
X133761028Y-81233406D01*
X134950000Y-81233406D01*
X135077589Y-81208027D01*
X135185754Y-81135754D01*
X135258027Y-81027589D01*
X135283406Y-80900000D01*
X135283406Y-79400000D01*
X135258027Y-79272411D01*
X135185754Y-79164246D01*
X135077589Y-79091973D01*
X134950000Y-79066594D01*
X133450000Y-79066594D01*
X133322411Y-79091973D01*
X133214246Y-79164246D01*
X133141973Y-79272411D01*
X133116594Y-79400000D01*
X133116594Y-80401500D01*
X129400020Y-80401500D01*
X129310000Y-80383594D01*
X129113514Y-80383594D01*
X129111000Y-80383094D01*
X128983411Y-80408473D01*
X128982769Y-80408902D01*
X128982411Y-80408973D01*
X128874246Y-80481246D01*
X128873239Y-80482753D01*
X125861898Y-83494094D01*
X121410000Y-83494094D01*
X121282411Y-83519473D01*
X121252438Y-83539500D01*
X120083406Y-83539500D01*
X120083406Y-83250000D01*
X120058027Y-83122411D01*
X119985754Y-83014246D01*
X119877589Y-82941973D01*
X119750000Y-82916594D01*
X118250000Y-82916594D01*
X118122411Y-82941973D01*
X118014246Y-83014246D01*
X117941973Y-83122411D01*
X117916594Y-83250000D01*
X115127000Y-83250000D01*
X115127000Y-73200000D01*
X116066594Y-73200000D01*
X116066594Y-74900000D01*
X116091973Y-75027589D01*
X116164246Y-75135754D01*
X116272411Y-75208027D01*
X116400000Y-75233406D01*
X116789501Y-75233406D01*
X116789500Y-75954652D01*
X116780480Y-76000000D01*
X116789500Y-76045348D01*
X116789500Y-76045351D01*
X116816219Y-76179677D01*
X116917999Y-76332001D01*
X116956448Y-76357692D01*
X117341594Y-76742839D01*
X117341594Y-76925000D01*
X117366973Y-77052589D01*
X117439246Y-77160754D01*
X117547411Y-77233027D01*
X117675000Y-77258406D01*
X118275000Y-77258406D01*
X118402589Y-77233027D01*
X118510754Y-77160754D01*
X118583027Y-77052589D01*
X118608406Y-76925000D01*
X118608406Y-76425000D01*
X118583027Y-76297411D01*
X118510754Y-76189246D01*
X118402589Y-76116973D01*
X118275000Y-76091594D01*
X117992839Y-76091594D01*
X117710500Y-75809256D01*
X117710500Y-75233406D01*
X118100000Y-75233406D01*
X118227589Y-75208027D01*
X118335754Y-75135754D01*
X118408027Y-75027589D01*
X118433406Y-74900000D01*
X118433406Y-73200000D01*
X118408027Y-73072411D01*
X118335754Y-72964246D01*
X118227589Y-72891973D01*
X118100000Y-72866594D01*
X116400000Y-72866594D01*
X116272411Y-72891973D01*
X116164246Y-72964246D01*
X116091973Y-73072411D01*
X116066594Y-73200000D01*
X115127000Y-73200000D01*
X115127000Y-72127000D01*
X139873000Y-72127000D01*
X139873000Y-94873000D01*
X139873000Y-94873000D01*
G37*
X139873000Y-94873000D02*
X115127000Y-94873000D01*
X115127000Y-83250000D01*
X117916594Y-83250000D01*
X117916594Y-84750000D01*
X117941973Y-84877589D01*
X118014246Y-84985754D01*
X118122411Y-85058027D01*
X118250000Y-85083406D01*
X119750000Y-85083406D01*
X119877589Y-85058027D01*
X119985754Y-84985754D01*
X120058027Y-84877589D01*
X120083406Y-84750000D01*
X120083406Y-84460500D01*
X121252438Y-84460500D01*
X121282411Y-84480527D01*
X121410000Y-84505906D01*
X125861898Y-84505906D01*
X128873239Y-87517247D01*
X128874246Y-87518754D01*
X128982411Y-87591027D01*
X128982769Y-87591098D01*
X128983411Y-87591527D01*
X129111000Y-87616906D01*
X129113514Y-87616406D01*
X129310000Y-87616406D01*
X129400020Y-87598500D01*
X133116594Y-87598500D01*
X133116594Y-88600000D01*
X133141973Y-88727589D01*
X133214246Y-88835754D01*
X133322411Y-88908027D01*
X133450000Y-88933406D01*
X134950000Y-88933406D01*
X135077589Y-88908027D01*
X135185754Y-88835754D01*
X135258027Y-88727589D01*
X135283406Y-88600000D01*
X135283406Y-87100000D01*
X135258027Y-86972411D01*
X135185754Y-86864246D01*
X135077589Y-86791973D01*
X134950000Y-86766594D01*
X133761028Y-86766594D01*
X133667678Y-86704219D01*
X133533352Y-86677500D01*
X133533348Y-86677500D01*
X133488000Y-86668480D01*
X133442652Y-86677500D01*
X129660500Y-86677500D01*
X129660500Y-84936037D01*
X129735754Y-84885754D01*
X129808027Y-84777589D01*
X129833406Y-84650000D01*
X129833406Y-84250000D01*
X129808027Y-84122411D01*
X129735754Y-84014246D01*
X129714433Y-84000000D01*
X129735754Y-83985754D01*
X129808027Y-83877589D01*
X129833406Y-83750000D01*
X129833406Y-83350000D01*
X129808027Y-83222411D01*
X129735754Y-83114246D01*
X129660500Y-83063963D01*
X129660500Y-81322500D01*
X133442652Y-81322500D01*
X133488000Y-81331520D01*
X133533348Y-81322500D01*
X133533352Y-81322500D01*
X133667678Y-81295781D01*
X133761028Y-81233406D01*
X134950000Y-81233406D01*
X135077589Y-81208027D01*
X135185754Y-81135754D01*
X135258027Y-81027589D01*
X135283406Y-80900000D01*
X135283406Y-79400000D01*
X135258027Y-79272411D01*
X135185754Y-79164246D01*
X135077589Y-79091973D01*
X134950000Y-79066594D01*
X133450000Y-79066594D01*
X133322411Y-79091973D01*
X133214246Y-79164246D01*
X133141973Y-79272411D01*
X133116594Y-79400000D01*
X133116594Y-80401500D01*
X129400020Y-80401500D01*
X129310000Y-80383594D01*
X129113514Y-80383594D01*
X129111000Y-80383094D01*
X128983411Y-80408473D01*
X128982769Y-80408902D01*
X128982411Y-80408973D01*
X128874246Y-80481246D01*
X128873239Y-80482753D01*
X125861898Y-83494094D01*
X121410000Y-83494094D01*
X121282411Y-83519473D01*
X121252438Y-83539500D01*
X120083406Y-83539500D01*
X120083406Y-83250000D01*
X120058027Y-83122411D01*
X119985754Y-83014246D01*
X119877589Y-82941973D01*
X119750000Y-82916594D01*
X118250000Y-82916594D01*
X118122411Y-82941973D01*
X118014246Y-83014246D01*
X117941973Y-83122411D01*
X117916594Y-83250000D01*
X115127000Y-83250000D01*
X115127000Y-73200000D01*
X116066594Y-73200000D01*
X116066594Y-74900000D01*
X116091973Y-75027589D01*
X116164246Y-75135754D01*
X116272411Y-75208027D01*
X116400000Y-75233406D01*
X116789501Y-75233406D01*
X116789500Y-75954652D01*
X116780480Y-76000000D01*
X116789500Y-76045348D01*
X116789500Y-76045351D01*
X116816219Y-76179677D01*
X116917999Y-76332001D01*
X116956448Y-76357692D01*
X117341594Y-76742839D01*
X117341594Y-76925000D01*
X117366973Y-77052589D01*
X117439246Y-77160754D01*
X117547411Y-77233027D01*
X117675000Y-77258406D01*
X118275000Y-77258406D01*
X118402589Y-77233027D01*
X118510754Y-77160754D01*
X118583027Y-77052589D01*
X118608406Y-76925000D01*
X118608406Y-76425000D01*
X118583027Y-76297411D01*
X118510754Y-76189246D01*
X118402589Y-76116973D01*
X118275000Y-76091594D01*
X117992839Y-76091594D01*
X117710500Y-75809256D01*
X117710500Y-75233406D01*
X118100000Y-75233406D01*
X118227589Y-75208027D01*
X118335754Y-75135754D01*
X118408027Y-75027589D01*
X118433406Y-74900000D01*
X118433406Y-73200000D01*
X118408027Y-73072411D01*
X118335754Y-72964246D01*
X118227589Y-72891973D01*
X118100000Y-72866594D01*
X116400000Y-72866594D01*
X116272411Y-72891973D01*
X116164246Y-72964246D01*
X116091973Y-73072411D01*
X116066594Y-73200000D01*
X115127000Y-73200000D01*
X115127000Y-72127000D01*
X139873000Y-72127000D01*
X139873000Y-94873000D01*
G36*
X128739500Y-83063963D02*
X128664246Y-83114246D01*
X128591973Y-83222411D01*
X128566594Y-83350000D01*
X128566594Y-83750000D01*
X128591973Y-83877589D01*
X128664246Y-83985754D01*
X128685567Y-84000000D01*
X128664246Y-84014246D01*
X128591973Y-84122411D01*
X128566594Y-84250000D01*
X128566594Y-84650000D01*
X128591973Y-84777589D01*
X128664246Y-84885754D01*
X128739500Y-84936037D01*
X128739501Y-86150493D01*
X126589008Y-84000000D01*
X128739501Y-81849507D01*
X128739500Y-83063963D01*
X128739500Y-83063963D01*
G37*
X128739500Y-83063963D02*
X128664246Y-83114246D01*
X128591973Y-83222411D01*
X128566594Y-83350000D01*
X128566594Y-83750000D01*
X128591973Y-83877589D01*
X128664246Y-83985754D01*
X128685567Y-84000000D01*
X128664246Y-84014246D01*
X128591973Y-84122411D01*
X128566594Y-84250000D01*
X128566594Y-84650000D01*
X128591973Y-84777589D01*
X128664246Y-84885754D01*
X128739500Y-84936037D01*
X128739501Y-86150493D01*
X126589008Y-84000000D01*
X128739501Y-81849507D01*
X128739500Y-83063963D01*
G04 #@! TD*
M02*
