G04 #@! TF.GenerationSoftware,KiCad,Pcbnew,(5.0.1)-4*
G04 #@! TF.CreationDate,2019-05-31T15:51:02-07:00*
G04 #@! TF.ProjectId,Fanout_circuit,46616E6F75745F636972637569742E6B,rev?*
G04 #@! TF.SameCoordinates,Original*
G04 #@! TF.FileFunction,Soldermask,Bot*
G04 #@! TF.FilePolarity,Negative*
%FSLAX46Y46*%
G04 Gerber Fmt 4.6, Leading zero omitted, Abs format (unit mm)*
G04 Created by KiCad (PCBNEW (5.0.1)-4) date 5/31/2019 3:51:02 PM*
%MOMM*%
%LPD*%
G01*
G04 APERTURE LIST*
%ADD10C,0.200000*%
G04 APERTURE END LIST*
D10*
G36*
X116681552Y-92916331D02*
X116763625Y-92950327D01*
X116763626Y-92950328D01*
X116763629Y-92950329D01*
X116837496Y-92999686D01*
X116837500Y-92999689D01*
X116900311Y-93062500D01*
X116900313Y-93062503D01*
X116900314Y-93062504D01*
X116949671Y-93136371D01*
X116949672Y-93136374D01*
X116949673Y-93136375D01*
X116983669Y-93218448D01*
X117001000Y-93305579D01*
X117001000Y-93394421D01*
X116983669Y-93481552D01*
X116949673Y-93563625D01*
X116949671Y-93563629D01*
X116917016Y-93612500D01*
X116900311Y-93637500D01*
X116837500Y-93700311D01*
X116837497Y-93700313D01*
X116837496Y-93700314D01*
X116763629Y-93749671D01*
X116763626Y-93749672D01*
X116763625Y-93749673D01*
X116681552Y-93783669D01*
X116594421Y-93801000D01*
X116505579Y-93801000D01*
X116418448Y-93783669D01*
X116336375Y-93749673D01*
X116336374Y-93749672D01*
X116336371Y-93749671D01*
X116262504Y-93700314D01*
X116262503Y-93700313D01*
X116262500Y-93700311D01*
X116199689Y-93637500D01*
X116182984Y-93612500D01*
X116150329Y-93563629D01*
X116150327Y-93563625D01*
X116116331Y-93481552D01*
X116099000Y-93394421D01*
X116099000Y-93305579D01*
X116116331Y-93218448D01*
X116150327Y-93136375D01*
X116150328Y-93136374D01*
X116150329Y-93136371D01*
X116199686Y-93062504D01*
X116199687Y-93062503D01*
X116199689Y-93062500D01*
X116262500Y-92999689D01*
X116262504Y-92999686D01*
X116336371Y-92950329D01*
X116336374Y-92950328D01*
X116336375Y-92950327D01*
X116418448Y-92916331D01*
X116505579Y-92899000D01*
X116594421Y-92899000D01*
X116681552Y-92916331D01*
X116681552Y-92916331D01*
G37*
G36*
X135006552Y-92891331D02*
X135088625Y-92925327D01*
X135088626Y-92925328D01*
X135088629Y-92925329D01*
X135162496Y-92974686D01*
X135162500Y-92974689D01*
X135225311Y-93037500D01*
X135225313Y-93037503D01*
X135225314Y-93037504D01*
X135274671Y-93111371D01*
X135274672Y-93111374D01*
X135274673Y-93111375D01*
X135308669Y-93193448D01*
X135326000Y-93280579D01*
X135326000Y-93369421D01*
X135308669Y-93456552D01*
X135275139Y-93537500D01*
X135274671Y-93538629D01*
X135225314Y-93612496D01*
X135225311Y-93612500D01*
X135162500Y-93675311D01*
X135162497Y-93675313D01*
X135162496Y-93675314D01*
X135088629Y-93724671D01*
X135088626Y-93724672D01*
X135088625Y-93724673D01*
X135006552Y-93758669D01*
X134919421Y-93776000D01*
X134830579Y-93776000D01*
X134743448Y-93758669D01*
X134661375Y-93724673D01*
X134661374Y-93724672D01*
X134661371Y-93724671D01*
X134587504Y-93675314D01*
X134587503Y-93675313D01*
X134587500Y-93675311D01*
X134524689Y-93612500D01*
X134524686Y-93612496D01*
X134475329Y-93538629D01*
X134474861Y-93537500D01*
X134441331Y-93456552D01*
X134424000Y-93369421D01*
X134424000Y-93280579D01*
X134441331Y-93193448D01*
X134475327Y-93111375D01*
X134475328Y-93111374D01*
X134475329Y-93111371D01*
X134524686Y-93037504D01*
X134524687Y-93037503D01*
X134524689Y-93037500D01*
X134587500Y-92974689D01*
X134587504Y-92974686D01*
X134661371Y-92925329D01*
X134661374Y-92925328D01*
X134661375Y-92925327D01*
X134743448Y-92891331D01*
X134830579Y-92874000D01*
X134919421Y-92874000D01*
X135006552Y-92891331D01*
X135006552Y-92891331D01*
G37*
G36*
X131481552Y-92891331D02*
X131563625Y-92925327D01*
X131563626Y-92925328D01*
X131563629Y-92925329D01*
X131637496Y-92974686D01*
X131637500Y-92974689D01*
X131700311Y-93037500D01*
X131700313Y-93037503D01*
X131700314Y-93037504D01*
X131749671Y-93111371D01*
X131749672Y-93111374D01*
X131749673Y-93111375D01*
X131783669Y-93193448D01*
X131801000Y-93280579D01*
X131801000Y-93369421D01*
X131783669Y-93456552D01*
X131750139Y-93537500D01*
X131749671Y-93538629D01*
X131700314Y-93612496D01*
X131700311Y-93612500D01*
X131637500Y-93675311D01*
X131637497Y-93675313D01*
X131637496Y-93675314D01*
X131563629Y-93724671D01*
X131563626Y-93724672D01*
X131563625Y-93724673D01*
X131481552Y-93758669D01*
X131394421Y-93776000D01*
X131305579Y-93776000D01*
X131218448Y-93758669D01*
X131136375Y-93724673D01*
X131136374Y-93724672D01*
X131136371Y-93724671D01*
X131062504Y-93675314D01*
X131062503Y-93675313D01*
X131062500Y-93675311D01*
X130999689Y-93612500D01*
X130999686Y-93612496D01*
X130950329Y-93538629D01*
X130949861Y-93537500D01*
X130916331Y-93456552D01*
X130899000Y-93369421D01*
X130899000Y-93280579D01*
X130916331Y-93193448D01*
X130950327Y-93111375D01*
X130950328Y-93111374D01*
X130950329Y-93111371D01*
X130999686Y-93037504D01*
X130999687Y-93037503D01*
X130999689Y-93037500D01*
X131062500Y-92974689D01*
X131062504Y-92974686D01*
X131136371Y-92925329D01*
X131136374Y-92925328D01*
X131136375Y-92925327D01*
X131218448Y-92891331D01*
X131305579Y-92874000D01*
X131394421Y-92874000D01*
X131481552Y-92891331D01*
X131481552Y-92891331D01*
G37*
G36*
X125381552Y-92891331D02*
X125463625Y-92925327D01*
X125463626Y-92925328D01*
X125463629Y-92925329D01*
X125537496Y-92974686D01*
X125537500Y-92974689D01*
X125600311Y-93037500D01*
X125600313Y-93037503D01*
X125600314Y-93037504D01*
X125649671Y-93111371D01*
X125649672Y-93111374D01*
X125649673Y-93111375D01*
X125683669Y-93193448D01*
X125701000Y-93280579D01*
X125701000Y-93369421D01*
X125683669Y-93456552D01*
X125650139Y-93537500D01*
X125649671Y-93538629D01*
X125600314Y-93612496D01*
X125600311Y-93612500D01*
X125537500Y-93675311D01*
X125537497Y-93675313D01*
X125537496Y-93675314D01*
X125463629Y-93724671D01*
X125463626Y-93724672D01*
X125463625Y-93724673D01*
X125381552Y-93758669D01*
X125294421Y-93776000D01*
X125205579Y-93776000D01*
X125118448Y-93758669D01*
X125036375Y-93724673D01*
X125036374Y-93724672D01*
X125036371Y-93724671D01*
X124962504Y-93675314D01*
X124962503Y-93675313D01*
X124962500Y-93675311D01*
X124899689Y-93612500D01*
X124899686Y-93612496D01*
X124850329Y-93538629D01*
X124849861Y-93537500D01*
X124816331Y-93456552D01*
X124799000Y-93369421D01*
X124799000Y-93280579D01*
X124816331Y-93193448D01*
X124850327Y-93111375D01*
X124850328Y-93111374D01*
X124850329Y-93111371D01*
X124899686Y-93037504D01*
X124899687Y-93037503D01*
X124899689Y-93037500D01*
X124962500Y-92974689D01*
X124962504Y-92974686D01*
X125036371Y-92925329D01*
X125036374Y-92925328D01*
X125036375Y-92925327D01*
X125118448Y-92891331D01*
X125205579Y-92874000D01*
X125294421Y-92874000D01*
X125381552Y-92891331D01*
X125381552Y-92891331D01*
G37*
G36*
X119156552Y-92891331D02*
X119238625Y-92925327D01*
X119238626Y-92925328D01*
X119238629Y-92925329D01*
X119312496Y-92974686D01*
X119312500Y-92974689D01*
X119375311Y-93037500D01*
X119375313Y-93037503D01*
X119375314Y-93037504D01*
X119424671Y-93111371D01*
X119424672Y-93111374D01*
X119424673Y-93111375D01*
X119458669Y-93193448D01*
X119476000Y-93280579D01*
X119476000Y-93369421D01*
X119458669Y-93456552D01*
X119425139Y-93537500D01*
X119424671Y-93538629D01*
X119375314Y-93612496D01*
X119375311Y-93612500D01*
X119312500Y-93675311D01*
X119312497Y-93675313D01*
X119312496Y-93675314D01*
X119238629Y-93724671D01*
X119238626Y-93724672D01*
X119238625Y-93724673D01*
X119156552Y-93758669D01*
X119069421Y-93776000D01*
X118980579Y-93776000D01*
X118893448Y-93758669D01*
X118811375Y-93724673D01*
X118811374Y-93724672D01*
X118811371Y-93724671D01*
X118737504Y-93675314D01*
X118737503Y-93675313D01*
X118737500Y-93675311D01*
X118674689Y-93612500D01*
X118674686Y-93612496D01*
X118625329Y-93538629D01*
X118624861Y-93537500D01*
X118591331Y-93456552D01*
X118574000Y-93369421D01*
X118574000Y-93280579D01*
X118591331Y-93193448D01*
X118625327Y-93111375D01*
X118625328Y-93111374D01*
X118625329Y-93111371D01*
X118674686Y-93037504D01*
X118674687Y-93037503D01*
X118674689Y-93037500D01*
X118737500Y-92974689D01*
X118737504Y-92974686D01*
X118811371Y-92925329D01*
X118811374Y-92925328D01*
X118811375Y-92925327D01*
X118893448Y-92891331D01*
X118980579Y-92874000D01*
X119069421Y-92874000D01*
X119156552Y-92891331D01*
X119156552Y-92891331D01*
G37*
G36*
X122156552Y-92891331D02*
X122238625Y-92925327D01*
X122238626Y-92925328D01*
X122238629Y-92925329D01*
X122312496Y-92974686D01*
X122312500Y-92974689D01*
X122375311Y-93037500D01*
X122375313Y-93037503D01*
X122375314Y-93037504D01*
X122424671Y-93111371D01*
X122424672Y-93111374D01*
X122424673Y-93111375D01*
X122458669Y-93193448D01*
X122476000Y-93280579D01*
X122476000Y-93369421D01*
X122458669Y-93456552D01*
X122425139Y-93537500D01*
X122424671Y-93538629D01*
X122375314Y-93612496D01*
X122375311Y-93612500D01*
X122312500Y-93675311D01*
X122312497Y-93675313D01*
X122312496Y-93675314D01*
X122238629Y-93724671D01*
X122238626Y-93724672D01*
X122238625Y-93724673D01*
X122156552Y-93758669D01*
X122069421Y-93776000D01*
X121980579Y-93776000D01*
X121893448Y-93758669D01*
X121811375Y-93724673D01*
X121811374Y-93724672D01*
X121811371Y-93724671D01*
X121737504Y-93675314D01*
X121737503Y-93675313D01*
X121737500Y-93675311D01*
X121674689Y-93612500D01*
X121674686Y-93612496D01*
X121625329Y-93538629D01*
X121624861Y-93537500D01*
X121591331Y-93456552D01*
X121574000Y-93369421D01*
X121574000Y-93280579D01*
X121591331Y-93193448D01*
X121625327Y-93111375D01*
X121625328Y-93111374D01*
X121625329Y-93111371D01*
X121674686Y-93037504D01*
X121674687Y-93037503D01*
X121674689Y-93037500D01*
X121737500Y-92974689D01*
X121737504Y-92974686D01*
X121811371Y-92925329D01*
X121811374Y-92925328D01*
X121811375Y-92925327D01*
X121893448Y-92891331D01*
X121980579Y-92874000D01*
X122069421Y-92874000D01*
X122156552Y-92891331D01*
X122156552Y-92891331D01*
G37*
G36*
X128306552Y-92816331D02*
X128388625Y-92850327D01*
X128388626Y-92850328D01*
X128388629Y-92850329D01*
X128461469Y-92899000D01*
X128462500Y-92899689D01*
X128525311Y-92962500D01*
X128525313Y-92962503D01*
X128525314Y-92962504D01*
X128574671Y-93036371D01*
X128574672Y-93036374D01*
X128574673Y-93036375D01*
X128608669Y-93118448D01*
X128626000Y-93205579D01*
X128626000Y-93294421D01*
X128608669Y-93381552D01*
X128574673Y-93463625D01*
X128574671Y-93463629D01*
X128525314Y-93537496D01*
X128525311Y-93537500D01*
X128462500Y-93600311D01*
X128462497Y-93600313D01*
X128462496Y-93600314D01*
X128388629Y-93649671D01*
X128388626Y-93649672D01*
X128388625Y-93649673D01*
X128306552Y-93683669D01*
X128219421Y-93701000D01*
X128130579Y-93701000D01*
X128043448Y-93683669D01*
X127961375Y-93649673D01*
X127961374Y-93649672D01*
X127961371Y-93649671D01*
X127887504Y-93600314D01*
X127887503Y-93600313D01*
X127887500Y-93600311D01*
X127824689Y-93537500D01*
X127824686Y-93537496D01*
X127775329Y-93463629D01*
X127775327Y-93463625D01*
X127741331Y-93381552D01*
X127724000Y-93294421D01*
X127724000Y-93205579D01*
X127741331Y-93118448D01*
X127775327Y-93036375D01*
X127775328Y-93036374D01*
X127775329Y-93036371D01*
X127824686Y-92962504D01*
X127824687Y-92962503D01*
X127824689Y-92962500D01*
X127887500Y-92899689D01*
X127888531Y-92899000D01*
X127961371Y-92850329D01*
X127961374Y-92850328D01*
X127961375Y-92850327D01*
X128043448Y-92816331D01*
X128130579Y-92799000D01*
X128219421Y-92799000D01*
X128306552Y-92816331D01*
X128306552Y-92816331D01*
G37*
G36*
X138556552Y-91791331D02*
X138638625Y-91825327D01*
X138638626Y-91825328D01*
X138638629Y-91825329D01*
X138712496Y-91874686D01*
X138712500Y-91874689D01*
X138775311Y-91937500D01*
X138775313Y-91937503D01*
X138775314Y-91937504D01*
X138824671Y-92011371D01*
X138824672Y-92011374D01*
X138824673Y-92011375D01*
X138858669Y-92093448D01*
X138876000Y-92180579D01*
X138876000Y-92269421D01*
X138858669Y-92356552D01*
X138825139Y-92437500D01*
X138824671Y-92438629D01*
X138775314Y-92512496D01*
X138775311Y-92512500D01*
X138712500Y-92575311D01*
X138712497Y-92575313D01*
X138712496Y-92575314D01*
X138638629Y-92624671D01*
X138638626Y-92624672D01*
X138638625Y-92624673D01*
X138556552Y-92658669D01*
X138469421Y-92676000D01*
X138380579Y-92676000D01*
X138293448Y-92658669D01*
X138211375Y-92624673D01*
X138211374Y-92624672D01*
X138211371Y-92624671D01*
X138137504Y-92575314D01*
X138137503Y-92575313D01*
X138137500Y-92575311D01*
X138074689Y-92512500D01*
X138074686Y-92512496D01*
X138025329Y-92438629D01*
X138024861Y-92437500D01*
X137991331Y-92356552D01*
X137974000Y-92269421D01*
X137974000Y-92180579D01*
X137991331Y-92093448D01*
X138025327Y-92011375D01*
X138025328Y-92011374D01*
X138025329Y-92011371D01*
X138074686Y-91937504D01*
X138074687Y-91937503D01*
X138074689Y-91937500D01*
X138137500Y-91874689D01*
X138137504Y-91874686D01*
X138211371Y-91825329D01*
X138211374Y-91825328D01*
X138211375Y-91825327D01*
X138293448Y-91791331D01*
X138380579Y-91774000D01*
X138469421Y-91774000D01*
X138556552Y-91791331D01*
X138556552Y-91791331D01*
G37*
G36*
X136706552Y-91716331D02*
X136788625Y-91750327D01*
X136788626Y-91750328D01*
X136788629Y-91750329D01*
X136862496Y-91799686D01*
X136862500Y-91799689D01*
X136925311Y-91862500D01*
X136925313Y-91862503D01*
X136925314Y-91862504D01*
X136974671Y-91936371D01*
X136974672Y-91936374D01*
X136974673Y-91936375D01*
X137008669Y-92018448D01*
X137026000Y-92105579D01*
X137026000Y-92194421D01*
X137008669Y-92281552D01*
X136974673Y-92363625D01*
X136974671Y-92363629D01*
X136925314Y-92437496D01*
X136925311Y-92437500D01*
X136862500Y-92500311D01*
X136862497Y-92500313D01*
X136862496Y-92500314D01*
X136788629Y-92549671D01*
X136788626Y-92549672D01*
X136788625Y-92549673D01*
X136706552Y-92583669D01*
X136619421Y-92601000D01*
X136530579Y-92601000D01*
X136443448Y-92583669D01*
X136361375Y-92549673D01*
X136361374Y-92549672D01*
X136361371Y-92549671D01*
X136287504Y-92500314D01*
X136287503Y-92500313D01*
X136287500Y-92500311D01*
X136224689Y-92437500D01*
X136224686Y-92437496D01*
X136175329Y-92363629D01*
X136175327Y-92363625D01*
X136141331Y-92281552D01*
X136124000Y-92194421D01*
X136124000Y-92105579D01*
X136141331Y-92018448D01*
X136175327Y-91936375D01*
X136175328Y-91936374D01*
X136175329Y-91936371D01*
X136224686Y-91862504D01*
X136224687Y-91862503D01*
X136224689Y-91862500D01*
X136287500Y-91799689D01*
X136287504Y-91799686D01*
X136361371Y-91750329D01*
X136361374Y-91750328D01*
X136361375Y-91750327D01*
X136443448Y-91716331D01*
X136530579Y-91699000D01*
X136619421Y-91699000D01*
X136706552Y-91716331D01*
X136706552Y-91716331D01*
G37*
G36*
X121606552Y-90416331D02*
X121688625Y-90450327D01*
X121688626Y-90450328D01*
X121688629Y-90450329D01*
X121762496Y-90499686D01*
X121762500Y-90499689D01*
X121825311Y-90562500D01*
X121825313Y-90562503D01*
X121825314Y-90562504D01*
X121874671Y-90636371D01*
X121874672Y-90636374D01*
X121874673Y-90636375D01*
X121908669Y-90718448D01*
X121926000Y-90805579D01*
X121926000Y-90894421D01*
X121908669Y-90981552D01*
X121880453Y-91049671D01*
X121874671Y-91063629D01*
X121833882Y-91124673D01*
X121825311Y-91137500D01*
X121762500Y-91200311D01*
X121762497Y-91200313D01*
X121762496Y-91200314D01*
X121688629Y-91249671D01*
X121688626Y-91249672D01*
X121688625Y-91249673D01*
X121606552Y-91283669D01*
X121519421Y-91301000D01*
X121430579Y-91301000D01*
X121343448Y-91283669D01*
X121261375Y-91249673D01*
X121261374Y-91249672D01*
X121261371Y-91249671D01*
X121187504Y-91200314D01*
X121187503Y-91200313D01*
X121187500Y-91200311D01*
X121124689Y-91137500D01*
X121116118Y-91124673D01*
X121075329Y-91063629D01*
X121069547Y-91049671D01*
X121041331Y-90981552D01*
X121024000Y-90894421D01*
X121024000Y-90805579D01*
X121041331Y-90718448D01*
X121075327Y-90636375D01*
X121075328Y-90636374D01*
X121075329Y-90636371D01*
X121124686Y-90562504D01*
X121124687Y-90562503D01*
X121124689Y-90562500D01*
X121187500Y-90499689D01*
X121187504Y-90499686D01*
X121261371Y-90450329D01*
X121261374Y-90450328D01*
X121261375Y-90450327D01*
X121343448Y-90416331D01*
X121430579Y-90399000D01*
X121519421Y-90399000D01*
X121606552Y-90416331D01*
X121606552Y-90416331D01*
G37*
G36*
X127881552Y-90291331D02*
X127963625Y-90325327D01*
X127963626Y-90325328D01*
X127963629Y-90325329D01*
X128029616Y-90369421D01*
X128037500Y-90374689D01*
X128100311Y-90437500D01*
X128100313Y-90437503D01*
X128100314Y-90437504D01*
X128149671Y-90511371D01*
X128149672Y-90511374D01*
X128149673Y-90511375D01*
X128183669Y-90593448D01*
X128201000Y-90680579D01*
X128201000Y-90769421D01*
X128183669Y-90856552D01*
X128150139Y-90937500D01*
X128149671Y-90938629D01*
X128100314Y-91012496D01*
X128100311Y-91012500D01*
X128037500Y-91075311D01*
X128037497Y-91075313D01*
X128037496Y-91075314D01*
X127963629Y-91124671D01*
X127963626Y-91124672D01*
X127963625Y-91124673D01*
X127881552Y-91158669D01*
X127794421Y-91176000D01*
X127705579Y-91176000D01*
X127618448Y-91158669D01*
X127536375Y-91124673D01*
X127536374Y-91124672D01*
X127536371Y-91124671D01*
X127462504Y-91075314D01*
X127462503Y-91075313D01*
X127462500Y-91075311D01*
X127399689Y-91012500D01*
X127399686Y-91012496D01*
X127350329Y-90938629D01*
X127349861Y-90937500D01*
X127316331Y-90856552D01*
X127299000Y-90769421D01*
X127299000Y-90680579D01*
X127316331Y-90593448D01*
X127350327Y-90511375D01*
X127350328Y-90511374D01*
X127350329Y-90511371D01*
X127399686Y-90437504D01*
X127399687Y-90437503D01*
X127399689Y-90437500D01*
X127462500Y-90374689D01*
X127470384Y-90369421D01*
X127536371Y-90325329D01*
X127536374Y-90325328D01*
X127536375Y-90325327D01*
X127618448Y-90291331D01*
X127705579Y-90274000D01*
X127794421Y-90274000D01*
X127881552Y-90291331D01*
X127881552Y-90291331D01*
G37*
G36*
X116706552Y-90241331D02*
X116788625Y-90275327D01*
X116788626Y-90275328D01*
X116788629Y-90275329D01*
X116862496Y-90324686D01*
X116862500Y-90324689D01*
X116925311Y-90387500D01*
X116925313Y-90387503D01*
X116925314Y-90387504D01*
X116974671Y-90461371D01*
X116974672Y-90461374D01*
X116974673Y-90461375D01*
X117008669Y-90543448D01*
X117026000Y-90630579D01*
X117026000Y-90719421D01*
X117008669Y-90806552D01*
X116974673Y-90888625D01*
X116974671Y-90888629D01*
X116925314Y-90962496D01*
X116925311Y-90962500D01*
X116862500Y-91025311D01*
X116862497Y-91025313D01*
X116862496Y-91025314D01*
X116788629Y-91074671D01*
X116788626Y-91074672D01*
X116788625Y-91074673D01*
X116706552Y-91108669D01*
X116619421Y-91126000D01*
X116530579Y-91126000D01*
X116443448Y-91108669D01*
X116361375Y-91074673D01*
X116361374Y-91074672D01*
X116361371Y-91074671D01*
X116287504Y-91025314D01*
X116287503Y-91025313D01*
X116287500Y-91025311D01*
X116224689Y-90962500D01*
X116224686Y-90962496D01*
X116175329Y-90888629D01*
X116175327Y-90888625D01*
X116141331Y-90806552D01*
X116124000Y-90719421D01*
X116124000Y-90630579D01*
X116141331Y-90543448D01*
X116175327Y-90461375D01*
X116175328Y-90461374D01*
X116175329Y-90461371D01*
X116224686Y-90387504D01*
X116224687Y-90387503D01*
X116224689Y-90387500D01*
X116287500Y-90324689D01*
X116287504Y-90324686D01*
X116361371Y-90275329D01*
X116361374Y-90275328D01*
X116361375Y-90275327D01*
X116443448Y-90241331D01*
X116530579Y-90224000D01*
X116619421Y-90224000D01*
X116706552Y-90241331D01*
X116706552Y-90241331D01*
G37*
G36*
X124706552Y-90241331D02*
X124788625Y-90275327D01*
X124788626Y-90275328D01*
X124788629Y-90275329D01*
X124862496Y-90324686D01*
X124862500Y-90324689D01*
X124925311Y-90387500D01*
X124925313Y-90387503D01*
X124925314Y-90387504D01*
X124974671Y-90461371D01*
X124974672Y-90461374D01*
X124974673Y-90461375D01*
X125008669Y-90543448D01*
X125026000Y-90630579D01*
X125026000Y-90719421D01*
X125008669Y-90806552D01*
X124974673Y-90888625D01*
X124974671Y-90888629D01*
X124925314Y-90962496D01*
X124925311Y-90962500D01*
X124862500Y-91025311D01*
X124862497Y-91025313D01*
X124862496Y-91025314D01*
X124788629Y-91074671D01*
X124788626Y-91074672D01*
X124788625Y-91074673D01*
X124706552Y-91108669D01*
X124619421Y-91126000D01*
X124530579Y-91126000D01*
X124443448Y-91108669D01*
X124361375Y-91074673D01*
X124361374Y-91074672D01*
X124361371Y-91074671D01*
X124287504Y-91025314D01*
X124287503Y-91025313D01*
X124287500Y-91025311D01*
X124224689Y-90962500D01*
X124224686Y-90962496D01*
X124175329Y-90888629D01*
X124175327Y-90888625D01*
X124141331Y-90806552D01*
X124124000Y-90719421D01*
X124124000Y-90630579D01*
X124141331Y-90543448D01*
X124175327Y-90461375D01*
X124175328Y-90461374D01*
X124175329Y-90461371D01*
X124224686Y-90387504D01*
X124224687Y-90387503D01*
X124224689Y-90387500D01*
X124287500Y-90324689D01*
X124287504Y-90324686D01*
X124361371Y-90275329D01*
X124361374Y-90275328D01*
X124361375Y-90275327D01*
X124443448Y-90241331D01*
X124530579Y-90224000D01*
X124619421Y-90224000D01*
X124706552Y-90241331D01*
X124706552Y-90241331D01*
G37*
G36*
X118981552Y-90216331D02*
X119063625Y-90250327D01*
X119063626Y-90250328D01*
X119063629Y-90250329D01*
X119137496Y-90299686D01*
X119137500Y-90299689D01*
X119200311Y-90362500D01*
X119200313Y-90362503D01*
X119200314Y-90362504D01*
X119249671Y-90436371D01*
X119249672Y-90436374D01*
X119249673Y-90436375D01*
X119283669Y-90518448D01*
X119301000Y-90605579D01*
X119301000Y-90694421D01*
X119283669Y-90781552D01*
X119249673Y-90863625D01*
X119249671Y-90863629D01*
X119229096Y-90894421D01*
X119200311Y-90937500D01*
X119137500Y-91000311D01*
X119137497Y-91000313D01*
X119137496Y-91000314D01*
X119063629Y-91049671D01*
X119063626Y-91049672D01*
X119063625Y-91049673D01*
X118981552Y-91083669D01*
X118894421Y-91101000D01*
X118805579Y-91101000D01*
X118718448Y-91083669D01*
X118636375Y-91049673D01*
X118636374Y-91049672D01*
X118636371Y-91049671D01*
X118562504Y-91000314D01*
X118562503Y-91000313D01*
X118562500Y-91000311D01*
X118499689Y-90937500D01*
X118470904Y-90894421D01*
X118450329Y-90863629D01*
X118450327Y-90863625D01*
X118416331Y-90781552D01*
X118399000Y-90694421D01*
X118399000Y-90605579D01*
X118416331Y-90518448D01*
X118450327Y-90436375D01*
X118450328Y-90436374D01*
X118450329Y-90436371D01*
X118499686Y-90362504D01*
X118499687Y-90362503D01*
X118499689Y-90362500D01*
X118562500Y-90299689D01*
X118562504Y-90299686D01*
X118636371Y-90250329D01*
X118636374Y-90250328D01*
X118636375Y-90250327D01*
X118718448Y-90216331D01*
X118805579Y-90199000D01*
X118894421Y-90199000D01*
X118981552Y-90216331D01*
X118981552Y-90216331D01*
G37*
G36*
X138656552Y-89891331D02*
X138738625Y-89925327D01*
X138738626Y-89925328D01*
X138738629Y-89925329D01*
X138812496Y-89974686D01*
X138812500Y-89974689D01*
X138875311Y-90037500D01*
X138875313Y-90037503D01*
X138875314Y-90037504D01*
X138924671Y-90111371D01*
X138924672Y-90111374D01*
X138924673Y-90111375D01*
X138958669Y-90193448D01*
X138976000Y-90280579D01*
X138976000Y-90369421D01*
X138958669Y-90456552D01*
X138924673Y-90538625D01*
X138924671Y-90538629D01*
X138879935Y-90605580D01*
X138875311Y-90612500D01*
X138812500Y-90675311D01*
X138812497Y-90675313D01*
X138812496Y-90675314D01*
X138738629Y-90724671D01*
X138738626Y-90724672D01*
X138738625Y-90724673D01*
X138656552Y-90758669D01*
X138569421Y-90776000D01*
X138480579Y-90776000D01*
X138393448Y-90758669D01*
X138311375Y-90724673D01*
X138311374Y-90724672D01*
X138311371Y-90724671D01*
X138237504Y-90675314D01*
X138237503Y-90675313D01*
X138237500Y-90675311D01*
X138174689Y-90612500D01*
X138170065Y-90605580D01*
X138125329Y-90538629D01*
X138125327Y-90538625D01*
X138091331Y-90456552D01*
X138074000Y-90369421D01*
X138074000Y-90280579D01*
X138091331Y-90193448D01*
X138125327Y-90111375D01*
X138125328Y-90111374D01*
X138125329Y-90111371D01*
X138174686Y-90037504D01*
X138174687Y-90037503D01*
X138174689Y-90037500D01*
X138237500Y-89974689D01*
X138237504Y-89974686D01*
X138311371Y-89925329D01*
X138311374Y-89925328D01*
X138311375Y-89925327D01*
X138393448Y-89891331D01*
X138480579Y-89874000D01*
X138569421Y-89874000D01*
X138656552Y-89891331D01*
X138656552Y-89891331D01*
G37*
G36*
X134231552Y-89766331D02*
X134313625Y-89800327D01*
X134313626Y-89800328D01*
X134313629Y-89800329D01*
X134387496Y-89849686D01*
X134387500Y-89849689D01*
X134450311Y-89912500D01*
X134450313Y-89912503D01*
X134450314Y-89912504D01*
X134499671Y-89986371D01*
X134499672Y-89986374D01*
X134499673Y-89986375D01*
X134533669Y-90068448D01*
X134551000Y-90155579D01*
X134551000Y-90244421D01*
X134533669Y-90331552D01*
X134499673Y-90413625D01*
X134499671Y-90413629D01*
X134450314Y-90487496D01*
X134450311Y-90487500D01*
X134387500Y-90550311D01*
X134387497Y-90550313D01*
X134387496Y-90550314D01*
X134313629Y-90599671D01*
X134313626Y-90599672D01*
X134313625Y-90599673D01*
X134231552Y-90633669D01*
X134144421Y-90651000D01*
X134055579Y-90651000D01*
X133968448Y-90633669D01*
X133886375Y-90599673D01*
X133886374Y-90599672D01*
X133886371Y-90599671D01*
X133812504Y-90550314D01*
X133812503Y-90550313D01*
X133812500Y-90550311D01*
X133749689Y-90487500D01*
X133749686Y-90487496D01*
X133700329Y-90413629D01*
X133700327Y-90413625D01*
X133666331Y-90331552D01*
X133649000Y-90244421D01*
X133649000Y-90155579D01*
X133666331Y-90068448D01*
X133700327Y-89986375D01*
X133700328Y-89986374D01*
X133700329Y-89986371D01*
X133749686Y-89912504D01*
X133749687Y-89912503D01*
X133749689Y-89912500D01*
X133812500Y-89849689D01*
X133812504Y-89849686D01*
X133886371Y-89800329D01*
X133886374Y-89800328D01*
X133886375Y-89800327D01*
X133968448Y-89766331D01*
X134055579Y-89749000D01*
X134144421Y-89749000D01*
X134231552Y-89766331D01*
X134231552Y-89766331D01*
G37*
G36*
X119306552Y-88091331D02*
X119388625Y-88125327D01*
X119388626Y-88125328D01*
X119388629Y-88125329D01*
X119445942Y-88163625D01*
X119462500Y-88174689D01*
X119525311Y-88237500D01*
X119525313Y-88237503D01*
X119525314Y-88237504D01*
X119574671Y-88311371D01*
X119574672Y-88311374D01*
X119574673Y-88311375D01*
X119608669Y-88393448D01*
X119626000Y-88480579D01*
X119626000Y-88569421D01*
X119608669Y-88656552D01*
X119575139Y-88737500D01*
X119574671Y-88738629D01*
X119525314Y-88812496D01*
X119525311Y-88812500D01*
X119462500Y-88875311D01*
X119462497Y-88875313D01*
X119462496Y-88875314D01*
X119388629Y-88924671D01*
X119388626Y-88924672D01*
X119388625Y-88924673D01*
X119306552Y-88958669D01*
X119219421Y-88976000D01*
X119130579Y-88976000D01*
X119043448Y-88958669D01*
X118961375Y-88924673D01*
X118961374Y-88924672D01*
X118961371Y-88924671D01*
X118887504Y-88875314D01*
X118887503Y-88875313D01*
X118887500Y-88875311D01*
X118824689Y-88812500D01*
X118824686Y-88812496D01*
X118775329Y-88738629D01*
X118774861Y-88737500D01*
X118741331Y-88656552D01*
X118724000Y-88569421D01*
X118724000Y-88480579D01*
X118741331Y-88393448D01*
X118775327Y-88311375D01*
X118775328Y-88311374D01*
X118775329Y-88311371D01*
X118824686Y-88237504D01*
X118824687Y-88237503D01*
X118824689Y-88237500D01*
X118887500Y-88174689D01*
X118904058Y-88163625D01*
X118961371Y-88125329D01*
X118961374Y-88125328D01*
X118961375Y-88125327D01*
X119043448Y-88091331D01*
X119130579Y-88074000D01*
X119219421Y-88074000D01*
X119306552Y-88091331D01*
X119306552Y-88091331D01*
G37*
G36*
X116731552Y-88066331D02*
X116813625Y-88100327D01*
X116813626Y-88100328D01*
X116813629Y-88100329D01*
X116887496Y-88149686D01*
X116887500Y-88149689D01*
X116950311Y-88212500D01*
X116950313Y-88212503D01*
X116950314Y-88212504D01*
X116999671Y-88286371D01*
X116999672Y-88286374D01*
X116999673Y-88286375D01*
X117033669Y-88368448D01*
X117051000Y-88455579D01*
X117051000Y-88544421D01*
X117033669Y-88631552D01*
X116999673Y-88713625D01*
X116999671Y-88713629D01*
X116982966Y-88738629D01*
X116950311Y-88787500D01*
X116887500Y-88850311D01*
X116887497Y-88850313D01*
X116887496Y-88850314D01*
X116813629Y-88899671D01*
X116813626Y-88899672D01*
X116813625Y-88899673D01*
X116731552Y-88933669D01*
X116644421Y-88951000D01*
X116555579Y-88951000D01*
X116468448Y-88933669D01*
X116386375Y-88899673D01*
X116386374Y-88899672D01*
X116386371Y-88899671D01*
X116312504Y-88850314D01*
X116312503Y-88850313D01*
X116312500Y-88850311D01*
X116249689Y-88787500D01*
X116217034Y-88738629D01*
X116200329Y-88713629D01*
X116200327Y-88713625D01*
X116166331Y-88631552D01*
X116149000Y-88544421D01*
X116149000Y-88455579D01*
X116166331Y-88368448D01*
X116200327Y-88286375D01*
X116200328Y-88286374D01*
X116200329Y-88286371D01*
X116249686Y-88212504D01*
X116249687Y-88212503D01*
X116249689Y-88212500D01*
X116312500Y-88149689D01*
X116312504Y-88149686D01*
X116386371Y-88100329D01*
X116386374Y-88100328D01*
X116386375Y-88100327D01*
X116468448Y-88066331D01*
X116555579Y-88049000D01*
X116644421Y-88049000D01*
X116731552Y-88066331D01*
X116731552Y-88066331D01*
G37*
G36*
X124631552Y-88066331D02*
X124713625Y-88100327D01*
X124713626Y-88100328D01*
X124713629Y-88100329D01*
X124787496Y-88149686D01*
X124787500Y-88149689D01*
X124850311Y-88212500D01*
X124850313Y-88212503D01*
X124850314Y-88212504D01*
X124899671Y-88286371D01*
X124899672Y-88286374D01*
X124899673Y-88286375D01*
X124933669Y-88368448D01*
X124951000Y-88455579D01*
X124951000Y-88544421D01*
X124933669Y-88631552D01*
X124899673Y-88713625D01*
X124899671Y-88713629D01*
X124882966Y-88738629D01*
X124850311Y-88787500D01*
X124787500Y-88850311D01*
X124787497Y-88850313D01*
X124787496Y-88850314D01*
X124713629Y-88899671D01*
X124713626Y-88899672D01*
X124713625Y-88899673D01*
X124631552Y-88933669D01*
X124544421Y-88951000D01*
X124455579Y-88951000D01*
X124368448Y-88933669D01*
X124286375Y-88899673D01*
X124286374Y-88899672D01*
X124286371Y-88899671D01*
X124212504Y-88850314D01*
X124212503Y-88850313D01*
X124212500Y-88850311D01*
X124149689Y-88787500D01*
X124117034Y-88738629D01*
X124100329Y-88713629D01*
X124100327Y-88713625D01*
X124066331Y-88631552D01*
X124049000Y-88544421D01*
X124049000Y-88455579D01*
X124066331Y-88368448D01*
X124100327Y-88286375D01*
X124100328Y-88286374D01*
X124100329Y-88286371D01*
X124149686Y-88212504D01*
X124149687Y-88212503D01*
X124149689Y-88212500D01*
X124212500Y-88149689D01*
X124212504Y-88149686D01*
X124286371Y-88100329D01*
X124286374Y-88100328D01*
X124286375Y-88100327D01*
X124368448Y-88066331D01*
X124455579Y-88049000D01*
X124544421Y-88049000D01*
X124631552Y-88066331D01*
X124631552Y-88066331D01*
G37*
G36*
X121556552Y-88016331D02*
X121638625Y-88050327D01*
X121638626Y-88050328D01*
X121638629Y-88050329D01*
X121712496Y-88099686D01*
X121712500Y-88099689D01*
X121775311Y-88162500D01*
X121775313Y-88162503D01*
X121775314Y-88162504D01*
X121824671Y-88236371D01*
X121824672Y-88236374D01*
X121824673Y-88236375D01*
X121858669Y-88318448D01*
X121876000Y-88405579D01*
X121876000Y-88494421D01*
X121858669Y-88581552D01*
X121824673Y-88663625D01*
X121824671Y-88663629D01*
X121775314Y-88737496D01*
X121775311Y-88737500D01*
X121712500Y-88800311D01*
X121712497Y-88800313D01*
X121712496Y-88800314D01*
X121638629Y-88849671D01*
X121638626Y-88849672D01*
X121638625Y-88849673D01*
X121556552Y-88883669D01*
X121469421Y-88901000D01*
X121380579Y-88901000D01*
X121293448Y-88883669D01*
X121211375Y-88849673D01*
X121211374Y-88849672D01*
X121211371Y-88849671D01*
X121137504Y-88800314D01*
X121137503Y-88800313D01*
X121137500Y-88800311D01*
X121074689Y-88737500D01*
X121074686Y-88737496D01*
X121025329Y-88663629D01*
X121025327Y-88663625D01*
X120991331Y-88581552D01*
X120974000Y-88494421D01*
X120974000Y-88405579D01*
X120991331Y-88318448D01*
X121025327Y-88236375D01*
X121025328Y-88236374D01*
X121025329Y-88236371D01*
X121074686Y-88162504D01*
X121074687Y-88162503D01*
X121074689Y-88162500D01*
X121137500Y-88099689D01*
X121137504Y-88099686D01*
X121211371Y-88050329D01*
X121211374Y-88050328D01*
X121211375Y-88050327D01*
X121293448Y-88016331D01*
X121380579Y-87999000D01*
X121469421Y-87999000D01*
X121556552Y-88016331D01*
X121556552Y-88016331D01*
G37*
G36*
X138656552Y-87516331D02*
X138738625Y-87550327D01*
X138738626Y-87550328D01*
X138738629Y-87550329D01*
X138812496Y-87599686D01*
X138812500Y-87599689D01*
X138875311Y-87662500D01*
X138875313Y-87662503D01*
X138875314Y-87662504D01*
X138924671Y-87736371D01*
X138924672Y-87736374D01*
X138924673Y-87736375D01*
X138958669Y-87818448D01*
X138976000Y-87905579D01*
X138976000Y-87994421D01*
X138958669Y-88081552D01*
X138925139Y-88162500D01*
X138924671Y-88163629D01*
X138876063Y-88236375D01*
X138875311Y-88237500D01*
X138812500Y-88300311D01*
X138812497Y-88300313D01*
X138812496Y-88300314D01*
X138738629Y-88349671D01*
X138738626Y-88349672D01*
X138738625Y-88349673D01*
X138656552Y-88383669D01*
X138569421Y-88401000D01*
X138480579Y-88401000D01*
X138393448Y-88383669D01*
X138311375Y-88349673D01*
X138311374Y-88349672D01*
X138311371Y-88349671D01*
X138237504Y-88300314D01*
X138237503Y-88300313D01*
X138237500Y-88300311D01*
X138174689Y-88237500D01*
X138173937Y-88236375D01*
X138125329Y-88163629D01*
X138124861Y-88162500D01*
X138091331Y-88081552D01*
X138074000Y-87994421D01*
X138074000Y-87905579D01*
X138091331Y-87818448D01*
X138125327Y-87736375D01*
X138125328Y-87736374D01*
X138125329Y-87736371D01*
X138174686Y-87662504D01*
X138174687Y-87662503D01*
X138174689Y-87662500D01*
X138237500Y-87599689D01*
X138237504Y-87599686D01*
X138311371Y-87550329D01*
X138311374Y-87550328D01*
X138311375Y-87550327D01*
X138393448Y-87516331D01*
X138480579Y-87499000D01*
X138569421Y-87499000D01*
X138656552Y-87516331D01*
X138656552Y-87516331D01*
G37*
G36*
X132356552Y-87491331D02*
X132438625Y-87525327D01*
X132438626Y-87525328D01*
X132438629Y-87525329D01*
X132512496Y-87574686D01*
X132512500Y-87574689D01*
X132575311Y-87637500D01*
X132575313Y-87637503D01*
X132575314Y-87637504D01*
X132624671Y-87711371D01*
X132624672Y-87711374D01*
X132624673Y-87711375D01*
X132658669Y-87793448D01*
X132676000Y-87880579D01*
X132676000Y-87969421D01*
X132658669Y-88056552D01*
X132630181Y-88125327D01*
X132624671Y-88138629D01*
X132592016Y-88187500D01*
X132575311Y-88212500D01*
X132512500Y-88275311D01*
X132512497Y-88275313D01*
X132512496Y-88275314D01*
X132438629Y-88324671D01*
X132438626Y-88324672D01*
X132438625Y-88324673D01*
X132356552Y-88358669D01*
X132269421Y-88376000D01*
X132180579Y-88376000D01*
X132093448Y-88358669D01*
X132011375Y-88324673D01*
X132011374Y-88324672D01*
X132011371Y-88324671D01*
X131937504Y-88275314D01*
X131937503Y-88275313D01*
X131937500Y-88275311D01*
X131874689Y-88212500D01*
X131857984Y-88187500D01*
X131825329Y-88138629D01*
X131819819Y-88125327D01*
X131791331Y-88056552D01*
X131772598Y-87962372D01*
X131765485Y-87938923D01*
X131758043Y-87925000D01*
X131765485Y-87911078D01*
X131772598Y-87887628D01*
X131791331Y-87793448D01*
X131825327Y-87711375D01*
X131825328Y-87711374D01*
X131825329Y-87711371D01*
X131874686Y-87637504D01*
X131874687Y-87637503D01*
X131874689Y-87637500D01*
X131937500Y-87574689D01*
X131937504Y-87574686D01*
X132011371Y-87525329D01*
X132011374Y-87525328D01*
X132011375Y-87525327D01*
X132093448Y-87491331D01*
X132180579Y-87474000D01*
X132269421Y-87474000D01*
X132356552Y-87491331D01*
X132356552Y-87491331D01*
G37*
G36*
X131206552Y-87491331D02*
X131288625Y-87525327D01*
X131288626Y-87525328D01*
X131288629Y-87525329D01*
X131362496Y-87574686D01*
X131362500Y-87574689D01*
X131425311Y-87637500D01*
X131425313Y-87637503D01*
X131425314Y-87637504D01*
X131474671Y-87711371D01*
X131474672Y-87711374D01*
X131474673Y-87711375D01*
X131508669Y-87793448D01*
X131527402Y-87887628D01*
X131534515Y-87911077D01*
X131541957Y-87925000D01*
X131534515Y-87938922D01*
X131527402Y-87962372D01*
X131508669Y-88056552D01*
X131480181Y-88125327D01*
X131474671Y-88138629D01*
X131442016Y-88187500D01*
X131425311Y-88212500D01*
X131362500Y-88275311D01*
X131362497Y-88275313D01*
X131362496Y-88275314D01*
X131288629Y-88324671D01*
X131288626Y-88324672D01*
X131288625Y-88324673D01*
X131206552Y-88358669D01*
X131119421Y-88376000D01*
X131030579Y-88376000D01*
X130943448Y-88358669D01*
X130861375Y-88324673D01*
X130861374Y-88324672D01*
X130861371Y-88324671D01*
X130787504Y-88275314D01*
X130787503Y-88275313D01*
X130787500Y-88275311D01*
X130724689Y-88212500D01*
X130707984Y-88187500D01*
X130675329Y-88138629D01*
X130669819Y-88125327D01*
X130641331Y-88056552D01*
X130624000Y-87969421D01*
X130624000Y-87880579D01*
X130641331Y-87793448D01*
X130675327Y-87711375D01*
X130675328Y-87711374D01*
X130675329Y-87711371D01*
X130724686Y-87637504D01*
X130724687Y-87637503D01*
X130724689Y-87637500D01*
X130787500Y-87574689D01*
X130787504Y-87574686D01*
X130861371Y-87525329D01*
X130861374Y-87525328D01*
X130861375Y-87525327D01*
X130943448Y-87491331D01*
X131030579Y-87474000D01*
X131119421Y-87474000D01*
X131206552Y-87491331D01*
X131206552Y-87491331D01*
G37*
G36*
X130031552Y-87466331D02*
X130113625Y-87500327D01*
X130113626Y-87500328D01*
X130113629Y-87500329D01*
X130187496Y-87549686D01*
X130187500Y-87549689D01*
X130250311Y-87612500D01*
X130250313Y-87612503D01*
X130250314Y-87612504D01*
X130299671Y-87686371D01*
X130299672Y-87686374D01*
X130299673Y-87686375D01*
X130333669Y-87768448D01*
X130351000Y-87855579D01*
X130351000Y-87944421D01*
X130333669Y-88031552D01*
X130305181Y-88100327D01*
X130299671Y-88113629D01*
X130252871Y-88183669D01*
X130250311Y-88187500D01*
X130187500Y-88250311D01*
X130187497Y-88250313D01*
X130187496Y-88250314D01*
X130113629Y-88299671D01*
X130113626Y-88299672D01*
X130113625Y-88299673D01*
X130031552Y-88333669D01*
X129944421Y-88351000D01*
X129855579Y-88351000D01*
X129768448Y-88333669D01*
X129686375Y-88299673D01*
X129686374Y-88299672D01*
X129686371Y-88299671D01*
X129612504Y-88250314D01*
X129612503Y-88250313D01*
X129612500Y-88250311D01*
X129549689Y-88187500D01*
X129547129Y-88183669D01*
X129500329Y-88113629D01*
X129494819Y-88100327D01*
X129466331Y-88031552D01*
X129449000Y-87944421D01*
X129449000Y-87855579D01*
X129466331Y-87768448D01*
X129500327Y-87686375D01*
X129500328Y-87686374D01*
X129500329Y-87686371D01*
X129549686Y-87612504D01*
X129549687Y-87612503D01*
X129549689Y-87612500D01*
X129612500Y-87549689D01*
X129612504Y-87549686D01*
X129686371Y-87500329D01*
X129686374Y-87500328D01*
X129686375Y-87500327D01*
X129768448Y-87466331D01*
X129855579Y-87449000D01*
X129944421Y-87449000D01*
X130031552Y-87466331D01*
X130031552Y-87466331D01*
G37*
G36*
X128856552Y-87441331D02*
X128938625Y-87475327D01*
X128938626Y-87475328D01*
X128938629Y-87475329D01*
X129012496Y-87524686D01*
X129012500Y-87524689D01*
X129075311Y-87587500D01*
X129075313Y-87587503D01*
X129075314Y-87587504D01*
X129124671Y-87661371D01*
X129124672Y-87661374D01*
X129124673Y-87661375D01*
X129158669Y-87743448D01*
X129176000Y-87830579D01*
X129176000Y-87919421D01*
X129158669Y-88006552D01*
X129124673Y-88088625D01*
X129124671Y-88088629D01*
X129083882Y-88149673D01*
X129075311Y-88162500D01*
X129012500Y-88225311D01*
X129012497Y-88225313D01*
X129012496Y-88225314D01*
X128938629Y-88274671D01*
X128938626Y-88274672D01*
X128938625Y-88274673D01*
X128856552Y-88308669D01*
X128769421Y-88326000D01*
X128680579Y-88326000D01*
X128593448Y-88308669D01*
X128511375Y-88274673D01*
X128511374Y-88274672D01*
X128511371Y-88274671D01*
X128437504Y-88225314D01*
X128437503Y-88225313D01*
X128437500Y-88225311D01*
X128374689Y-88162500D01*
X128366118Y-88149673D01*
X128325329Y-88088629D01*
X128325327Y-88088625D01*
X128291331Y-88006552D01*
X128274000Y-87919421D01*
X128274000Y-87830579D01*
X128291331Y-87743448D01*
X128325327Y-87661375D01*
X128325328Y-87661374D01*
X128325329Y-87661371D01*
X128374686Y-87587504D01*
X128374687Y-87587503D01*
X128374689Y-87587500D01*
X128437500Y-87524689D01*
X128437504Y-87524686D01*
X128511371Y-87475329D01*
X128511374Y-87475328D01*
X128511375Y-87475327D01*
X128593448Y-87441331D01*
X128680579Y-87424000D01*
X128769421Y-87424000D01*
X128856552Y-87441331D01*
X128856552Y-87441331D01*
G37*
G36*
X136681552Y-87316331D02*
X136763625Y-87350327D01*
X136763626Y-87350328D01*
X136763629Y-87350329D01*
X136837496Y-87399686D01*
X136837500Y-87399689D01*
X136900311Y-87462500D01*
X136900313Y-87462503D01*
X136900314Y-87462504D01*
X136949671Y-87536371D01*
X136949672Y-87536374D01*
X136949673Y-87536375D01*
X136983669Y-87618448D01*
X137001000Y-87705579D01*
X137001000Y-87794421D01*
X136983669Y-87881552D01*
X136950192Y-87962372D01*
X136949671Y-87963629D01*
X136900314Y-88037496D01*
X136900311Y-88037500D01*
X136837500Y-88100311D01*
X136837497Y-88100313D01*
X136837496Y-88100314D01*
X136763629Y-88149671D01*
X136763626Y-88149672D01*
X136763625Y-88149673D01*
X136681552Y-88183669D01*
X136594421Y-88201000D01*
X136505579Y-88201000D01*
X136418448Y-88183669D01*
X136336375Y-88149673D01*
X136336374Y-88149672D01*
X136336371Y-88149671D01*
X136262504Y-88100314D01*
X136262503Y-88100313D01*
X136262500Y-88100311D01*
X136199689Y-88037500D01*
X136199686Y-88037496D01*
X136150329Y-87963629D01*
X136149808Y-87962372D01*
X136116331Y-87881552D01*
X136099000Y-87794421D01*
X136099000Y-87705579D01*
X136116331Y-87618448D01*
X136150327Y-87536375D01*
X136150328Y-87536374D01*
X136150329Y-87536371D01*
X136199686Y-87462504D01*
X136199687Y-87462503D01*
X136199689Y-87462500D01*
X136262500Y-87399689D01*
X136262504Y-87399686D01*
X136336371Y-87350329D01*
X136336374Y-87350328D01*
X136336375Y-87350327D01*
X136418448Y-87316331D01*
X136505579Y-87299000D01*
X136594421Y-87299000D01*
X136681552Y-87316331D01*
X136681552Y-87316331D01*
G37*
G36*
X128006552Y-86616331D02*
X128088625Y-86650327D01*
X128088626Y-86650328D01*
X128088629Y-86650329D01*
X128162496Y-86699686D01*
X128162500Y-86699689D01*
X128225311Y-86762500D01*
X128225313Y-86762503D01*
X128225314Y-86762504D01*
X128274671Y-86836371D01*
X128274672Y-86836374D01*
X128274673Y-86836375D01*
X128308669Y-86918448D01*
X128326000Y-87005579D01*
X128326000Y-87094421D01*
X128308669Y-87181552D01*
X128274673Y-87263625D01*
X128274671Y-87263629D01*
X128225314Y-87337496D01*
X128225311Y-87337500D01*
X128162500Y-87400311D01*
X128162497Y-87400313D01*
X128162496Y-87400314D01*
X128088629Y-87449671D01*
X128088626Y-87449672D01*
X128088625Y-87449673D01*
X128006552Y-87483669D01*
X127919421Y-87501000D01*
X127830579Y-87501000D01*
X127743448Y-87483669D01*
X127661375Y-87449673D01*
X127661374Y-87449672D01*
X127661371Y-87449671D01*
X127587504Y-87400314D01*
X127587503Y-87400313D01*
X127587500Y-87400311D01*
X127524689Y-87337500D01*
X127524686Y-87337496D01*
X127475329Y-87263629D01*
X127475327Y-87263625D01*
X127441331Y-87181552D01*
X127424000Y-87094421D01*
X127424000Y-87005579D01*
X127441331Y-86918448D01*
X127475327Y-86836375D01*
X127475328Y-86836374D01*
X127475329Y-86836371D01*
X127524686Y-86762504D01*
X127524687Y-86762503D01*
X127524689Y-86762500D01*
X127587500Y-86699689D01*
X127587504Y-86699686D01*
X127661371Y-86650329D01*
X127661374Y-86650328D01*
X127661375Y-86650327D01*
X127743448Y-86616331D01*
X127830579Y-86599000D01*
X127919421Y-86599000D01*
X128006552Y-86616331D01*
X128006552Y-86616331D01*
G37*
G36*
X123456552Y-85916331D02*
X123538625Y-85950327D01*
X123538626Y-85950328D01*
X123538629Y-85950329D01*
X123612496Y-85999686D01*
X123612500Y-85999689D01*
X123675311Y-86062500D01*
X123675313Y-86062503D01*
X123675314Y-86062504D01*
X123724671Y-86136371D01*
X123724672Y-86136374D01*
X123724673Y-86136375D01*
X123758669Y-86218448D01*
X123776000Y-86305579D01*
X123776000Y-86394421D01*
X123758669Y-86481552D01*
X123724673Y-86563625D01*
X123724671Y-86563629D01*
X123683882Y-86624673D01*
X123675311Y-86637500D01*
X123612500Y-86700311D01*
X123612497Y-86700313D01*
X123612496Y-86700314D01*
X123538629Y-86749671D01*
X123538626Y-86749672D01*
X123538625Y-86749673D01*
X123456552Y-86783669D01*
X123369421Y-86801000D01*
X123280579Y-86801000D01*
X123193448Y-86783669D01*
X123111375Y-86749673D01*
X123111374Y-86749672D01*
X123111371Y-86749671D01*
X123037504Y-86700314D01*
X123037503Y-86700313D01*
X123037500Y-86700311D01*
X122974689Y-86637500D01*
X122966118Y-86624673D01*
X122925329Y-86563629D01*
X122925327Y-86563625D01*
X122891331Y-86481552D01*
X122874000Y-86394421D01*
X122874000Y-86305579D01*
X122891331Y-86218448D01*
X122925327Y-86136375D01*
X122925328Y-86136374D01*
X122925329Y-86136371D01*
X122974686Y-86062504D01*
X122974687Y-86062503D01*
X122974689Y-86062500D01*
X123037500Y-85999689D01*
X123037504Y-85999686D01*
X123111371Y-85950329D01*
X123111374Y-85950328D01*
X123111375Y-85950327D01*
X123193448Y-85916331D01*
X123280579Y-85899000D01*
X123369421Y-85899000D01*
X123456552Y-85916331D01*
X123456552Y-85916331D01*
G37*
G36*
X119156552Y-85891331D02*
X119238625Y-85925327D01*
X119238626Y-85925328D01*
X119238629Y-85925329D01*
X119288525Y-85958669D01*
X119312500Y-85974689D01*
X119375311Y-86037500D01*
X119375313Y-86037503D01*
X119375314Y-86037504D01*
X119424671Y-86111371D01*
X119424672Y-86111374D01*
X119424673Y-86111375D01*
X119458669Y-86193448D01*
X119476000Y-86280579D01*
X119476000Y-86369421D01*
X119458669Y-86456552D01*
X119435496Y-86512496D01*
X119424671Y-86538629D01*
X119375314Y-86612496D01*
X119375311Y-86612500D01*
X119312500Y-86675311D01*
X119312497Y-86675313D01*
X119312496Y-86675314D01*
X119238629Y-86724671D01*
X119238626Y-86724672D01*
X119238625Y-86724673D01*
X119156552Y-86758669D01*
X119069421Y-86776000D01*
X118980579Y-86776000D01*
X118893448Y-86758669D01*
X118811375Y-86724673D01*
X118811374Y-86724672D01*
X118811371Y-86724671D01*
X118737504Y-86675314D01*
X118737503Y-86675313D01*
X118737500Y-86675311D01*
X118674689Y-86612500D01*
X118674686Y-86612496D01*
X118625329Y-86538629D01*
X118614504Y-86512496D01*
X118591331Y-86456552D01*
X118574000Y-86369421D01*
X118574000Y-86280579D01*
X118591331Y-86193448D01*
X118625327Y-86111375D01*
X118625328Y-86111374D01*
X118625329Y-86111371D01*
X118674686Y-86037504D01*
X118674687Y-86037503D01*
X118674689Y-86037500D01*
X118737500Y-85974689D01*
X118761475Y-85958669D01*
X118811371Y-85925329D01*
X118811374Y-85925328D01*
X118811375Y-85925327D01*
X118893448Y-85891331D01*
X118980579Y-85874000D01*
X119069421Y-85874000D01*
X119156552Y-85891331D01*
X119156552Y-85891331D01*
G37*
G36*
X130131552Y-85891331D02*
X130213625Y-85925327D01*
X130213626Y-85925328D01*
X130213629Y-85925329D01*
X130263525Y-85958669D01*
X130287500Y-85974689D01*
X130350311Y-86037500D01*
X130350313Y-86037503D01*
X130350314Y-86037504D01*
X130399671Y-86111371D01*
X130399672Y-86111374D01*
X130399673Y-86111375D01*
X130433669Y-86193448D01*
X130451000Y-86280579D01*
X130451000Y-86369421D01*
X130433669Y-86456552D01*
X130410496Y-86512496D01*
X130399671Y-86538629D01*
X130350314Y-86612496D01*
X130350311Y-86612500D01*
X130287500Y-86675311D01*
X130287497Y-86675313D01*
X130287496Y-86675314D01*
X130213629Y-86724671D01*
X130213626Y-86724672D01*
X130213625Y-86724673D01*
X130131552Y-86758669D01*
X130044421Y-86776000D01*
X129955579Y-86776000D01*
X129868448Y-86758669D01*
X129786375Y-86724673D01*
X129786374Y-86724672D01*
X129786371Y-86724671D01*
X129712504Y-86675314D01*
X129712503Y-86675313D01*
X129712500Y-86675311D01*
X129649689Y-86612500D01*
X129649686Y-86612496D01*
X129600329Y-86538629D01*
X129589504Y-86512496D01*
X129566331Y-86456552D01*
X129549000Y-86369421D01*
X129549000Y-86280579D01*
X129566331Y-86193448D01*
X129600327Y-86111375D01*
X129600328Y-86111374D01*
X129600329Y-86111371D01*
X129649686Y-86037504D01*
X129649687Y-86037503D01*
X129649689Y-86037500D01*
X129712500Y-85974689D01*
X129736475Y-85958669D01*
X129786371Y-85925329D01*
X129786374Y-85925328D01*
X129786375Y-85925327D01*
X129868448Y-85891331D01*
X129955579Y-85874000D01*
X130044421Y-85874000D01*
X130131552Y-85891331D01*
X130131552Y-85891331D01*
G37*
G36*
X127181552Y-85791331D02*
X127263625Y-85825327D01*
X127263626Y-85825328D01*
X127263629Y-85825329D01*
X127336469Y-85874000D01*
X127337500Y-85874689D01*
X127400311Y-85937500D01*
X127400313Y-85937503D01*
X127400314Y-85937504D01*
X127449671Y-86011371D01*
X127449672Y-86011374D01*
X127449673Y-86011375D01*
X127483669Y-86093448D01*
X127501000Y-86180579D01*
X127501000Y-86269421D01*
X127483669Y-86356552D01*
X127449673Y-86438625D01*
X127449671Y-86438629D01*
X127420990Y-86481552D01*
X127400311Y-86512500D01*
X127337500Y-86575311D01*
X127337497Y-86575313D01*
X127337496Y-86575314D01*
X127263629Y-86624671D01*
X127263626Y-86624672D01*
X127263625Y-86624673D01*
X127181552Y-86658669D01*
X127094421Y-86676000D01*
X127005579Y-86676000D01*
X126918448Y-86658669D01*
X126836375Y-86624673D01*
X126836374Y-86624672D01*
X126836371Y-86624671D01*
X126762504Y-86575314D01*
X126762503Y-86575313D01*
X126762500Y-86575311D01*
X126699689Y-86512500D01*
X126679010Y-86481552D01*
X126650329Y-86438629D01*
X126650327Y-86438625D01*
X126616331Y-86356552D01*
X126599000Y-86269421D01*
X126599000Y-86180579D01*
X126616331Y-86093448D01*
X126650327Y-86011375D01*
X126650328Y-86011374D01*
X126650329Y-86011371D01*
X126699686Y-85937504D01*
X126699687Y-85937503D01*
X126699689Y-85937500D01*
X126762500Y-85874689D01*
X126763531Y-85874000D01*
X126836371Y-85825329D01*
X126836374Y-85825328D01*
X126836375Y-85825327D01*
X126918448Y-85791331D01*
X127005579Y-85774000D01*
X127094421Y-85774000D01*
X127181552Y-85791331D01*
X127181552Y-85791331D01*
G37*
G36*
X134456552Y-85091331D02*
X134538625Y-85125327D01*
X134538626Y-85125328D01*
X134538629Y-85125329D01*
X134612496Y-85174686D01*
X134612500Y-85174689D01*
X134675311Y-85237500D01*
X134675313Y-85237503D01*
X134675314Y-85237504D01*
X134724671Y-85311371D01*
X134724672Y-85311374D01*
X134724673Y-85311375D01*
X134758669Y-85393448D01*
X134776000Y-85480579D01*
X134776000Y-85569421D01*
X134758669Y-85656552D01*
X134725139Y-85737500D01*
X134724671Y-85738629D01*
X134675314Y-85812496D01*
X134675311Y-85812500D01*
X134612500Y-85875311D01*
X134612497Y-85875313D01*
X134612496Y-85875314D01*
X134538629Y-85924671D01*
X134538626Y-85924672D01*
X134538625Y-85924673D01*
X134456552Y-85958669D01*
X134369421Y-85976000D01*
X134280579Y-85976000D01*
X134193448Y-85958669D01*
X134111375Y-85924673D01*
X134111374Y-85924672D01*
X134111371Y-85924671D01*
X134037504Y-85875314D01*
X134037503Y-85875313D01*
X134037500Y-85875311D01*
X133974689Y-85812500D01*
X133974686Y-85812496D01*
X133925329Y-85738629D01*
X133924861Y-85737500D01*
X133891331Y-85656552D01*
X133874000Y-85569421D01*
X133874000Y-85480579D01*
X133891331Y-85393448D01*
X133925327Y-85311375D01*
X133925328Y-85311374D01*
X133925329Y-85311371D01*
X133974686Y-85237504D01*
X133974687Y-85237503D01*
X133974689Y-85237500D01*
X134037500Y-85174689D01*
X134037504Y-85174686D01*
X134111371Y-85125329D01*
X134111374Y-85125328D01*
X134111375Y-85125327D01*
X134193448Y-85091331D01*
X134280579Y-85074000D01*
X134369421Y-85074000D01*
X134456552Y-85091331D01*
X134456552Y-85091331D01*
G37*
G36*
X138656552Y-85016331D02*
X138738625Y-85050327D01*
X138738626Y-85050328D01*
X138738629Y-85050329D01*
X138812496Y-85099686D01*
X138812500Y-85099689D01*
X138875311Y-85162500D01*
X138875313Y-85162503D01*
X138875314Y-85162504D01*
X138924671Y-85236371D01*
X138924672Y-85236374D01*
X138924673Y-85236375D01*
X138958669Y-85318448D01*
X138976000Y-85405579D01*
X138976000Y-85494421D01*
X138958669Y-85581552D01*
X138924673Y-85663625D01*
X138924671Y-85663629D01*
X138875314Y-85737496D01*
X138875311Y-85737500D01*
X138812500Y-85800311D01*
X138812497Y-85800313D01*
X138812496Y-85800314D01*
X138738629Y-85849671D01*
X138738626Y-85849672D01*
X138738625Y-85849673D01*
X138656552Y-85883669D01*
X138569421Y-85901000D01*
X138480579Y-85901000D01*
X138393448Y-85883669D01*
X138311375Y-85849673D01*
X138311374Y-85849672D01*
X138311371Y-85849671D01*
X138237504Y-85800314D01*
X138237503Y-85800313D01*
X138237500Y-85800311D01*
X138174689Y-85737500D01*
X138174686Y-85737496D01*
X138125329Y-85663629D01*
X138125327Y-85663625D01*
X138091331Y-85581552D01*
X138074000Y-85494421D01*
X138074000Y-85405579D01*
X138091331Y-85318448D01*
X138125327Y-85236375D01*
X138125328Y-85236374D01*
X138125329Y-85236371D01*
X138174686Y-85162504D01*
X138174687Y-85162503D01*
X138174689Y-85162500D01*
X138237500Y-85099689D01*
X138237504Y-85099686D01*
X138311371Y-85050329D01*
X138311374Y-85050328D01*
X138311375Y-85050327D01*
X138393448Y-85016331D01*
X138480579Y-84999000D01*
X138569421Y-84999000D01*
X138656552Y-85016331D01*
X138656552Y-85016331D01*
G37*
G36*
X123231552Y-84416331D02*
X123313625Y-84450327D01*
X123313626Y-84450328D01*
X123313629Y-84450329D01*
X123387496Y-84499686D01*
X123387500Y-84499689D01*
X123450311Y-84562500D01*
X123450313Y-84562503D01*
X123450314Y-84562504D01*
X123499671Y-84636371D01*
X123506706Y-84653356D01*
X123534515Y-84720492D01*
X123546066Y-84742102D01*
X123561612Y-84761044D01*
X123580554Y-84776590D01*
X123602165Y-84788141D01*
X123625614Y-84795254D01*
X123650000Y-84797656D01*
X123674386Y-84795254D01*
X123697836Y-84788141D01*
X123719446Y-84776590D01*
X123738388Y-84761044D01*
X123753934Y-84742102D01*
X123765485Y-84720492D01*
X123793294Y-84653356D01*
X123800329Y-84636371D01*
X123849686Y-84562504D01*
X123849687Y-84562503D01*
X123849689Y-84562500D01*
X123912500Y-84499689D01*
X123912504Y-84499686D01*
X123986371Y-84450329D01*
X123986374Y-84450328D01*
X123986375Y-84450327D01*
X124068448Y-84416331D01*
X124155579Y-84399000D01*
X124244421Y-84399000D01*
X124331552Y-84416331D01*
X124413625Y-84450327D01*
X124413626Y-84450328D01*
X124413629Y-84450329D01*
X124487496Y-84499686D01*
X124487500Y-84499689D01*
X124550311Y-84562500D01*
X124550313Y-84562503D01*
X124550314Y-84562504D01*
X124599671Y-84636371D01*
X124606485Y-84652823D01*
X124627193Y-84702814D01*
X124638745Y-84724425D01*
X124654290Y-84743367D01*
X124673232Y-84758912D01*
X124694843Y-84770463D01*
X124718292Y-84777576D01*
X124742679Y-84779978D01*
X124767065Y-84777576D01*
X124790514Y-84770463D01*
X124812125Y-84758911D01*
X124831067Y-84743366D01*
X124846612Y-84724424D01*
X124858163Y-84702813D01*
X124875327Y-84661375D01*
X124875328Y-84661374D01*
X124875329Y-84661371D01*
X124924686Y-84587504D01*
X124924687Y-84587503D01*
X124924689Y-84587500D01*
X124987500Y-84524689D01*
X124987504Y-84524686D01*
X125061371Y-84475329D01*
X125061374Y-84475328D01*
X125061375Y-84475327D01*
X125143448Y-84441331D01*
X125230579Y-84424000D01*
X125319421Y-84424000D01*
X125406552Y-84441331D01*
X125488625Y-84475327D01*
X125488626Y-84475328D01*
X125488629Y-84475329D01*
X125562496Y-84524686D01*
X125562500Y-84524689D01*
X125625311Y-84587500D01*
X125625313Y-84587503D01*
X125625314Y-84587504D01*
X125674671Y-84661371D01*
X125674672Y-84661374D01*
X125674673Y-84661375D01*
X125708669Y-84743448D01*
X125726000Y-84830579D01*
X125726000Y-84919422D01*
X125721529Y-84941901D01*
X125719127Y-84966287D01*
X125721529Y-84990674D01*
X125728643Y-85014123D01*
X125740194Y-85035733D01*
X125755740Y-85054675D01*
X125774682Y-85070221D01*
X125796293Y-85081771D01*
X125819742Y-85088884D01*
X125844128Y-85091286D01*
X125868515Y-85088884D01*
X125891964Y-85081770D01*
X125913574Y-85070219D01*
X125932515Y-85054674D01*
X125937500Y-85049689D01*
X125937504Y-85049686D01*
X126011371Y-85000329D01*
X126011374Y-85000328D01*
X126011375Y-85000327D01*
X126093448Y-84966331D01*
X126180579Y-84949000D01*
X126269421Y-84949000D01*
X126356552Y-84966331D01*
X126438625Y-85000327D01*
X126438626Y-85000328D01*
X126438629Y-85000329D01*
X126512496Y-85049686D01*
X126512500Y-85049689D01*
X126575311Y-85112500D01*
X126575313Y-85112503D01*
X126575314Y-85112504D01*
X126624671Y-85186371D01*
X126624672Y-85186374D01*
X126624673Y-85186375D01*
X126658669Y-85268448D01*
X126676000Y-85355579D01*
X126676000Y-85444421D01*
X126658669Y-85531552D01*
X126637958Y-85581552D01*
X126624671Y-85613629D01*
X126575314Y-85687496D01*
X126575311Y-85687500D01*
X126512500Y-85750311D01*
X126512497Y-85750313D01*
X126512496Y-85750314D01*
X126438629Y-85799671D01*
X126438626Y-85799672D01*
X126438625Y-85799673D01*
X126356552Y-85833669D01*
X126269421Y-85851000D01*
X126180579Y-85851000D01*
X126093448Y-85833669D01*
X126011375Y-85799673D01*
X126011374Y-85799672D01*
X126011371Y-85799671D01*
X125937504Y-85750314D01*
X125937503Y-85750313D01*
X125937500Y-85750311D01*
X125874689Y-85687500D01*
X125874686Y-85687496D01*
X125825329Y-85613629D01*
X125812042Y-85581552D01*
X125791331Y-85531552D01*
X125774000Y-85444421D01*
X125774000Y-85355578D01*
X125778471Y-85333099D01*
X125780873Y-85308713D01*
X125778471Y-85284326D01*
X125771357Y-85260877D01*
X125759806Y-85239267D01*
X125744260Y-85220325D01*
X125725318Y-85204779D01*
X125703707Y-85193229D01*
X125680258Y-85186116D01*
X125655872Y-85183714D01*
X125631485Y-85186116D01*
X125608036Y-85193230D01*
X125586426Y-85204781D01*
X125567485Y-85220326D01*
X125562500Y-85225311D01*
X125562497Y-85225313D01*
X125562496Y-85225314D01*
X125488629Y-85274671D01*
X125488626Y-85274672D01*
X125488625Y-85274673D01*
X125406552Y-85308669D01*
X125319421Y-85326000D01*
X125230579Y-85326000D01*
X125143448Y-85308669D01*
X125061375Y-85274673D01*
X125061374Y-85274672D01*
X125061371Y-85274671D01*
X124987504Y-85225314D01*
X124987503Y-85225313D01*
X124987500Y-85225311D01*
X124924689Y-85162500D01*
X124924686Y-85162496D01*
X124875329Y-85088629D01*
X124864974Y-85063629D01*
X124847807Y-85022186D01*
X124836255Y-85000575D01*
X124820710Y-84981633D01*
X124801768Y-84966088D01*
X124780157Y-84954537D01*
X124756708Y-84947424D01*
X124732321Y-84945022D01*
X124707935Y-84947424D01*
X124684486Y-84954537D01*
X124662875Y-84966089D01*
X124643933Y-84981634D01*
X124628388Y-85000576D01*
X124616837Y-85022187D01*
X124603380Y-85054675D01*
X124599671Y-85063629D01*
X124550314Y-85137496D01*
X124550311Y-85137500D01*
X124487500Y-85200311D01*
X124487497Y-85200313D01*
X124487496Y-85200314D01*
X124413629Y-85249671D01*
X124413626Y-85249672D01*
X124413625Y-85249673D01*
X124331552Y-85283669D01*
X124244421Y-85301000D01*
X124155579Y-85301000D01*
X124068448Y-85283669D01*
X123986375Y-85249673D01*
X123986374Y-85249672D01*
X123986371Y-85249671D01*
X123912504Y-85200314D01*
X123912503Y-85200313D01*
X123912500Y-85200311D01*
X123849689Y-85137500D01*
X123849686Y-85137496D01*
X123800329Y-85063629D01*
X123774211Y-85000575D01*
X123765485Y-84979508D01*
X123753934Y-84957898D01*
X123738388Y-84938956D01*
X123719446Y-84923410D01*
X123697835Y-84911859D01*
X123674386Y-84904746D01*
X123650000Y-84902344D01*
X123625614Y-84904746D01*
X123602164Y-84911859D01*
X123580554Y-84923410D01*
X123561612Y-84938956D01*
X123546066Y-84957898D01*
X123534515Y-84979508D01*
X123525789Y-85000575D01*
X123499671Y-85063629D01*
X123450314Y-85137496D01*
X123450311Y-85137500D01*
X123387500Y-85200311D01*
X123387497Y-85200313D01*
X123387496Y-85200314D01*
X123313629Y-85249671D01*
X123313626Y-85249672D01*
X123313625Y-85249673D01*
X123231552Y-85283669D01*
X123144421Y-85301000D01*
X123055579Y-85301000D01*
X122968448Y-85283669D01*
X122886375Y-85249673D01*
X122886374Y-85249672D01*
X122886371Y-85249671D01*
X122812504Y-85200314D01*
X122812503Y-85200313D01*
X122812500Y-85200311D01*
X122749689Y-85137500D01*
X122749686Y-85137496D01*
X122700329Y-85063629D01*
X122696620Y-85054675D01*
X122666331Y-84981552D01*
X122649000Y-84894421D01*
X122649000Y-84805579D01*
X122666331Y-84718448D01*
X122700327Y-84636375D01*
X122700328Y-84636374D01*
X122700329Y-84636371D01*
X122749686Y-84562504D01*
X122749687Y-84562503D01*
X122749689Y-84562500D01*
X122812500Y-84499689D01*
X122812504Y-84499686D01*
X122886371Y-84450329D01*
X122886374Y-84450328D01*
X122886375Y-84450327D01*
X122968448Y-84416331D01*
X123055579Y-84399000D01*
X123144421Y-84399000D01*
X123231552Y-84416331D01*
X123231552Y-84416331D01*
G37*
G36*
X127964567Y-84433316D02*
X128046640Y-84467312D01*
X128046641Y-84467313D01*
X128046644Y-84467314D01*
X128120511Y-84516671D01*
X128120515Y-84516674D01*
X128183326Y-84579485D01*
X128183328Y-84579488D01*
X128183329Y-84579489D01*
X128232686Y-84653356D01*
X128232687Y-84653359D01*
X128232688Y-84653360D01*
X128266684Y-84735433D01*
X128284015Y-84822564D01*
X128284015Y-84911406D01*
X128266684Y-84998537D01*
X128236992Y-85070219D01*
X128232686Y-85080614D01*
X128202809Y-85125327D01*
X128183326Y-85154485D01*
X128120515Y-85217296D01*
X128120512Y-85217298D01*
X128120511Y-85217299D01*
X128046644Y-85266656D01*
X128046641Y-85266657D01*
X128046640Y-85266658D01*
X127964567Y-85300654D01*
X127877436Y-85317985D01*
X127788594Y-85317985D01*
X127701463Y-85300654D01*
X127619390Y-85266658D01*
X127619389Y-85266657D01*
X127619386Y-85266656D01*
X127545519Y-85217299D01*
X127545518Y-85217298D01*
X127545515Y-85217296D01*
X127482704Y-85154485D01*
X127463221Y-85125327D01*
X127433344Y-85080614D01*
X127429038Y-85070219D01*
X127399346Y-84998537D01*
X127382015Y-84911406D01*
X127382015Y-84822564D01*
X127399346Y-84735433D01*
X127433342Y-84653360D01*
X127433343Y-84653359D01*
X127433344Y-84653356D01*
X127482701Y-84579489D01*
X127482702Y-84579488D01*
X127482704Y-84579485D01*
X127545515Y-84516674D01*
X127545519Y-84516671D01*
X127619386Y-84467314D01*
X127619389Y-84467313D01*
X127619390Y-84467312D01*
X127701463Y-84433316D01*
X127788594Y-84415985D01*
X127877436Y-84415985D01*
X127964567Y-84433316D01*
X127964567Y-84433316D01*
G37*
G36*
X116706552Y-83691331D02*
X116788625Y-83725327D01*
X116788626Y-83725328D01*
X116788629Y-83725329D01*
X116862496Y-83774686D01*
X116862500Y-83774689D01*
X116925311Y-83837500D01*
X116925313Y-83837503D01*
X116925314Y-83837504D01*
X116974671Y-83911371D01*
X116974672Y-83911374D01*
X116974673Y-83911375D01*
X117008669Y-83993448D01*
X117026000Y-84080579D01*
X117026000Y-84169421D01*
X117008669Y-84256552D01*
X116985496Y-84312496D01*
X116974671Y-84338629D01*
X116933882Y-84399673D01*
X116925311Y-84412500D01*
X116862500Y-84475311D01*
X116862497Y-84475313D01*
X116862496Y-84475314D01*
X116788629Y-84524671D01*
X116788626Y-84524672D01*
X116788625Y-84524673D01*
X116706552Y-84558669D01*
X116619421Y-84576000D01*
X116530579Y-84576000D01*
X116443448Y-84558669D01*
X116361375Y-84524673D01*
X116361374Y-84524672D01*
X116361371Y-84524671D01*
X116287504Y-84475314D01*
X116287503Y-84475313D01*
X116287500Y-84475311D01*
X116224689Y-84412500D01*
X116216118Y-84399673D01*
X116175329Y-84338629D01*
X116164504Y-84312496D01*
X116141331Y-84256552D01*
X116124000Y-84169421D01*
X116124000Y-84080579D01*
X116141331Y-83993448D01*
X116175327Y-83911375D01*
X116175328Y-83911374D01*
X116175329Y-83911371D01*
X116224686Y-83837504D01*
X116224687Y-83837503D01*
X116224689Y-83837500D01*
X116287500Y-83774689D01*
X116287504Y-83774686D01*
X116361371Y-83725329D01*
X116361374Y-83725328D01*
X116361375Y-83725327D01*
X116443448Y-83691331D01*
X116530579Y-83674000D01*
X116619421Y-83674000D01*
X116706552Y-83691331D01*
X116706552Y-83691331D01*
G37*
G36*
X130381552Y-83591331D02*
X130463625Y-83625327D01*
X130463626Y-83625328D01*
X130463629Y-83625329D01*
X130536469Y-83674000D01*
X130537500Y-83674689D01*
X130600311Y-83737500D01*
X130600313Y-83737503D01*
X130600314Y-83737504D01*
X130649671Y-83811371D01*
X130649672Y-83811374D01*
X130649673Y-83811375D01*
X130683669Y-83893448D01*
X130701000Y-83980579D01*
X130701000Y-84069421D01*
X130683669Y-84156552D01*
X130649673Y-84238625D01*
X130649671Y-84238629D01*
X130617016Y-84287500D01*
X130600311Y-84312500D01*
X130537500Y-84375311D01*
X130537497Y-84375313D01*
X130537496Y-84375314D01*
X130463629Y-84424671D01*
X130463626Y-84424672D01*
X130463625Y-84424673D01*
X130381552Y-84458669D01*
X130294421Y-84476000D01*
X130205579Y-84476000D01*
X130118448Y-84458669D01*
X130036375Y-84424673D01*
X130036374Y-84424672D01*
X130036371Y-84424671D01*
X129962504Y-84375314D01*
X129962503Y-84375313D01*
X129962500Y-84375311D01*
X129899689Y-84312500D01*
X129882984Y-84287500D01*
X129850329Y-84238629D01*
X129850327Y-84238625D01*
X129816331Y-84156552D01*
X129799000Y-84069421D01*
X129799000Y-83980579D01*
X129816331Y-83893448D01*
X129850327Y-83811375D01*
X129850328Y-83811374D01*
X129850329Y-83811371D01*
X129899686Y-83737504D01*
X129899687Y-83737503D01*
X129899689Y-83737500D01*
X129962500Y-83674689D01*
X129963531Y-83674000D01*
X130036371Y-83625329D01*
X130036374Y-83625328D01*
X130036375Y-83625327D01*
X130118448Y-83591331D01*
X130205579Y-83574000D01*
X130294421Y-83574000D01*
X130381552Y-83591331D01*
X130381552Y-83591331D01*
G37*
G36*
X127181552Y-83566331D02*
X127263625Y-83600327D01*
X127263626Y-83600328D01*
X127263629Y-83600329D01*
X127313525Y-83633669D01*
X127337500Y-83649689D01*
X127400311Y-83712500D01*
X127400313Y-83712503D01*
X127400314Y-83712504D01*
X127449671Y-83786371D01*
X127449672Y-83786374D01*
X127449673Y-83786375D01*
X127483669Y-83868448D01*
X127501000Y-83955579D01*
X127501000Y-84044421D01*
X127483669Y-84131552D01*
X127449673Y-84213625D01*
X127449671Y-84213629D01*
X127432966Y-84238629D01*
X127400311Y-84287500D01*
X127337500Y-84350311D01*
X127337497Y-84350313D01*
X127337496Y-84350314D01*
X127263629Y-84399671D01*
X127263626Y-84399672D01*
X127263625Y-84399673D01*
X127181552Y-84433669D01*
X127094421Y-84451000D01*
X127005579Y-84451000D01*
X126918448Y-84433669D01*
X126836375Y-84399673D01*
X126836374Y-84399672D01*
X126836371Y-84399671D01*
X126762504Y-84350314D01*
X126762503Y-84350313D01*
X126762500Y-84350311D01*
X126699689Y-84287500D01*
X126667034Y-84238629D01*
X126650329Y-84213629D01*
X126650327Y-84213625D01*
X126616331Y-84131552D01*
X126599000Y-84044421D01*
X126599000Y-83955579D01*
X126616331Y-83868448D01*
X126650327Y-83786375D01*
X126650328Y-83786374D01*
X126650329Y-83786371D01*
X126699686Y-83712504D01*
X126699687Y-83712503D01*
X126699689Y-83712500D01*
X126762500Y-83649689D01*
X126786475Y-83633669D01*
X126836371Y-83600329D01*
X126836374Y-83600328D01*
X126836375Y-83600327D01*
X126918448Y-83566331D01*
X127005579Y-83549000D01*
X127094421Y-83549000D01*
X127181552Y-83566331D01*
X127181552Y-83566331D01*
G37*
G36*
X124431552Y-82766331D02*
X124513625Y-82800327D01*
X124513626Y-82800328D01*
X124513629Y-82800329D01*
X124587496Y-82849686D01*
X124587500Y-82849689D01*
X124650311Y-82912500D01*
X124650313Y-82912503D01*
X124650314Y-82912504D01*
X124699671Y-82986371D01*
X124705730Y-83001000D01*
X124722015Y-83040314D01*
X124733567Y-83061925D01*
X124749112Y-83080867D01*
X124768054Y-83096412D01*
X124789665Y-83107963D01*
X124813114Y-83115076D01*
X124837500Y-83117478D01*
X124861887Y-83115076D01*
X124885336Y-83107963D01*
X124906947Y-83096411D01*
X124925889Y-83080866D01*
X124941434Y-83061924D01*
X124952985Y-83040314D01*
X124969270Y-83001000D01*
X124975329Y-82986371D01*
X125024686Y-82912504D01*
X125024687Y-82912503D01*
X125024689Y-82912500D01*
X125087500Y-82849689D01*
X125087504Y-82849686D01*
X125161371Y-82800329D01*
X125161374Y-82800328D01*
X125161375Y-82800327D01*
X125243448Y-82766331D01*
X125330579Y-82749000D01*
X125419421Y-82749000D01*
X125506552Y-82766331D01*
X125588625Y-82800327D01*
X125588626Y-82800328D01*
X125588629Y-82800329D01*
X125662496Y-82849686D01*
X125662500Y-82849689D01*
X125730456Y-82917645D01*
X125749398Y-82933191D01*
X125757826Y-82937696D01*
X125758558Y-82945129D01*
X125765671Y-82968578D01*
X125772915Y-82982131D01*
X125808669Y-83068448D01*
X125826000Y-83155579D01*
X125826000Y-83244421D01*
X125808669Y-83331552D01*
X125774673Y-83413625D01*
X125774671Y-83413629D01*
X125742016Y-83462500D01*
X125725311Y-83487500D01*
X125662500Y-83550311D01*
X125662497Y-83550313D01*
X125662496Y-83550314D01*
X125588629Y-83599671D01*
X125588626Y-83599672D01*
X125588625Y-83599673D01*
X125506552Y-83633669D01*
X125419421Y-83651000D01*
X125330579Y-83651000D01*
X125243448Y-83633669D01*
X125161375Y-83599673D01*
X125161374Y-83599672D01*
X125161371Y-83599671D01*
X125087504Y-83550314D01*
X125087503Y-83550313D01*
X125087500Y-83550311D01*
X125024689Y-83487500D01*
X125024686Y-83487496D01*
X124975329Y-83413629D01*
X124952985Y-83359686D01*
X124941433Y-83338075D01*
X124925888Y-83319133D01*
X124906946Y-83303588D01*
X124885335Y-83292037D01*
X124861886Y-83284924D01*
X124837500Y-83282522D01*
X124813113Y-83284924D01*
X124789664Y-83292037D01*
X124768053Y-83303589D01*
X124749111Y-83319134D01*
X124733566Y-83338076D01*
X124722015Y-83359686D01*
X124699671Y-83413629D01*
X124650314Y-83487496D01*
X124650311Y-83487500D01*
X124587500Y-83550311D01*
X124587497Y-83550313D01*
X124587496Y-83550314D01*
X124513629Y-83599671D01*
X124513626Y-83599672D01*
X124513625Y-83599673D01*
X124431552Y-83633669D01*
X124344421Y-83651000D01*
X124255579Y-83651000D01*
X124168448Y-83633669D01*
X124086375Y-83599673D01*
X124086374Y-83599672D01*
X124086371Y-83599671D01*
X124012504Y-83550314D01*
X124012503Y-83550313D01*
X124012500Y-83550311D01*
X123949689Y-83487500D01*
X123932984Y-83462500D01*
X123900329Y-83413629D01*
X123900327Y-83413625D01*
X123866331Y-83331552D01*
X123849000Y-83244421D01*
X123849000Y-83155579D01*
X123866331Y-83068448D01*
X123900327Y-82986375D01*
X123900328Y-82986374D01*
X123900329Y-82986371D01*
X123949686Y-82912504D01*
X123949687Y-82912503D01*
X123949689Y-82912500D01*
X124012500Y-82849689D01*
X124012504Y-82849686D01*
X124086371Y-82800329D01*
X124086374Y-82800328D01*
X124086375Y-82800327D01*
X124168448Y-82766331D01*
X124255579Y-82749000D01*
X124344421Y-82749000D01*
X124431552Y-82766331D01*
X124431552Y-82766331D01*
G37*
G36*
X123206552Y-82741331D02*
X123288625Y-82775327D01*
X123288626Y-82775328D01*
X123288629Y-82775329D01*
X123350707Y-82816809D01*
X123362500Y-82824689D01*
X123425311Y-82887500D01*
X123425313Y-82887503D01*
X123425314Y-82887504D01*
X123474671Y-82961371D01*
X123474672Y-82961374D01*
X123474673Y-82961375D01*
X123508669Y-83043448D01*
X123526000Y-83130579D01*
X123526000Y-83219421D01*
X123508669Y-83306552D01*
X123475139Y-83387500D01*
X123474671Y-83388629D01*
X123425314Y-83462496D01*
X123425311Y-83462500D01*
X123362500Y-83525311D01*
X123362497Y-83525313D01*
X123362496Y-83525314D01*
X123288629Y-83574671D01*
X123288626Y-83574672D01*
X123288625Y-83574673D01*
X123206552Y-83608669D01*
X123119421Y-83626000D01*
X123030579Y-83626000D01*
X122943448Y-83608669D01*
X122861375Y-83574673D01*
X122861374Y-83574672D01*
X122861371Y-83574671D01*
X122787504Y-83525314D01*
X122787503Y-83525313D01*
X122787500Y-83525311D01*
X122724689Y-83462500D01*
X122724686Y-83462496D01*
X122675329Y-83388629D01*
X122674861Y-83387500D01*
X122641331Y-83306552D01*
X122624000Y-83219421D01*
X122624000Y-83130579D01*
X122641331Y-83043448D01*
X122675327Y-82961375D01*
X122675328Y-82961374D01*
X122675329Y-82961371D01*
X122724686Y-82887504D01*
X122724687Y-82887503D01*
X122724689Y-82887500D01*
X122787500Y-82824689D01*
X122799293Y-82816809D01*
X122861371Y-82775329D01*
X122861374Y-82775328D01*
X122861375Y-82775327D01*
X122943448Y-82741331D01*
X123030579Y-82724000D01*
X123119421Y-82724000D01*
X123206552Y-82741331D01*
X123206552Y-82741331D01*
G37*
G36*
X128006552Y-82666331D02*
X128088625Y-82700327D01*
X128088626Y-82700328D01*
X128088629Y-82700329D01*
X128161469Y-82749000D01*
X128162500Y-82749689D01*
X128225311Y-82812500D01*
X128225313Y-82812503D01*
X128225314Y-82812504D01*
X128274671Y-82886371D01*
X128274672Y-82886374D01*
X128274673Y-82886375D01*
X128308669Y-82968448D01*
X128326000Y-83055579D01*
X128326000Y-83144421D01*
X128308669Y-83231552D01*
X128274673Y-83313625D01*
X128274671Y-83313629D01*
X128243896Y-83359686D01*
X128225311Y-83387500D01*
X128162500Y-83450311D01*
X128162497Y-83450313D01*
X128162496Y-83450314D01*
X128088629Y-83499671D01*
X128088626Y-83499672D01*
X128088625Y-83499673D01*
X128006552Y-83533669D01*
X127919421Y-83551000D01*
X127830579Y-83551000D01*
X127743448Y-83533669D01*
X127661375Y-83499673D01*
X127661374Y-83499672D01*
X127661371Y-83499671D01*
X127587504Y-83450314D01*
X127587503Y-83450313D01*
X127587500Y-83450311D01*
X127524689Y-83387500D01*
X127506104Y-83359686D01*
X127475329Y-83313629D01*
X127475327Y-83313625D01*
X127441331Y-83231552D01*
X127424000Y-83144421D01*
X127424000Y-83055579D01*
X127441331Y-82968448D01*
X127475327Y-82886375D01*
X127475328Y-82886374D01*
X127475329Y-82886371D01*
X127524686Y-82812504D01*
X127524687Y-82812503D01*
X127524689Y-82812500D01*
X127587500Y-82749689D01*
X127588531Y-82749000D01*
X127661371Y-82700329D01*
X127661374Y-82700328D01*
X127661375Y-82700327D01*
X127743448Y-82666331D01*
X127830579Y-82649000D01*
X127919421Y-82649000D01*
X128006552Y-82666331D01*
X128006552Y-82666331D01*
G37*
G36*
X127956552Y-80616331D02*
X127998408Y-80633669D01*
X128038629Y-80650329D01*
X128081876Y-80679226D01*
X128110153Y-80698120D01*
X128131764Y-80709672D01*
X128133400Y-80710168D01*
X128141466Y-80725259D01*
X128157012Y-80744201D01*
X128175311Y-80762500D01*
X128175313Y-80762503D01*
X128175314Y-80762504D01*
X128224671Y-80836371D01*
X128224672Y-80836374D01*
X128224673Y-80836375D01*
X128258669Y-80918448D01*
X128276000Y-81005579D01*
X128276000Y-81094421D01*
X128258669Y-81181552D01*
X128224673Y-81263625D01*
X128224671Y-81263629D01*
X128175314Y-81337496D01*
X128175311Y-81337500D01*
X128112500Y-81400311D01*
X128112497Y-81400313D01*
X128112496Y-81400314D01*
X128038629Y-81449671D01*
X128038626Y-81449672D01*
X128038625Y-81449673D01*
X127956552Y-81483669D01*
X127869421Y-81501000D01*
X127780579Y-81501000D01*
X127693448Y-81483669D01*
X127686990Y-81480994D01*
X127663541Y-81473881D01*
X127639154Y-81471480D01*
X127614768Y-81473882D01*
X127591319Y-81480996D01*
X127569709Y-81492548D01*
X127550767Y-81508093D01*
X127535222Y-81527036D01*
X127523671Y-81548647D01*
X127516558Y-81572096D01*
X127514157Y-81596483D01*
X127516559Y-81620869D01*
X127523673Y-81644317D01*
X127533669Y-81668448D01*
X127551000Y-81755579D01*
X127551000Y-81844421D01*
X127533669Y-81931552D01*
X127500139Y-82012500D01*
X127499671Y-82013629D01*
X127452871Y-82083669D01*
X127450311Y-82087500D01*
X127387500Y-82150311D01*
X127387497Y-82150313D01*
X127387496Y-82150314D01*
X127313629Y-82199671D01*
X127313626Y-82199672D01*
X127313625Y-82199673D01*
X127231552Y-82233669D01*
X127144421Y-82251000D01*
X127055579Y-82251000D01*
X126968448Y-82233669D01*
X126901637Y-82205995D01*
X126878188Y-82198882D01*
X126853802Y-82196480D01*
X126829415Y-82198882D01*
X126805966Y-82205995D01*
X126784355Y-82217547D01*
X126765413Y-82233092D01*
X126749868Y-82252034D01*
X126738317Y-82273645D01*
X126731204Y-82297094D01*
X126728802Y-82321480D01*
X126731204Y-82345867D01*
X126738317Y-82369316D01*
X126758669Y-82418451D01*
X126776000Y-82505579D01*
X126776000Y-82594421D01*
X126758669Y-82681552D01*
X126724673Y-82763625D01*
X126724671Y-82763629D01*
X126683873Y-82824686D01*
X126675311Y-82837500D01*
X126612500Y-82900311D01*
X126612497Y-82900313D01*
X126612496Y-82900314D01*
X126538629Y-82949671D01*
X126538626Y-82949672D01*
X126538625Y-82949673D01*
X126456552Y-82983669D01*
X126369421Y-83001000D01*
X126280579Y-83001000D01*
X126193448Y-82983669D01*
X126111375Y-82949673D01*
X126111374Y-82949672D01*
X126111371Y-82949671D01*
X126037504Y-82900314D01*
X126037503Y-82900313D01*
X126037500Y-82900311D01*
X125969544Y-82832355D01*
X125950602Y-82816809D01*
X125942174Y-82812304D01*
X125941442Y-82804871D01*
X125934329Y-82781422D01*
X125927085Y-82767869D01*
X125891331Y-82681552D01*
X125874000Y-82594421D01*
X125874000Y-82505579D01*
X125891331Y-82418448D01*
X125925327Y-82336375D01*
X125925328Y-82336374D01*
X125925329Y-82336371D01*
X125974686Y-82262504D01*
X125974687Y-82262503D01*
X125974689Y-82262500D01*
X126037500Y-82199689D01*
X126037504Y-82199686D01*
X126111371Y-82150329D01*
X126111374Y-82150328D01*
X126111375Y-82150327D01*
X126193448Y-82116331D01*
X126280579Y-82099000D01*
X126369421Y-82099000D01*
X126456552Y-82116331D01*
X126523363Y-82144005D01*
X126546812Y-82151118D01*
X126571198Y-82153520D01*
X126595585Y-82151118D01*
X126619034Y-82144005D01*
X126640645Y-82132453D01*
X126659587Y-82116908D01*
X126675132Y-82097966D01*
X126686683Y-82076355D01*
X126693796Y-82052906D01*
X126696198Y-82028520D01*
X126693796Y-82004133D01*
X126686683Y-81980684D01*
X126666332Y-81931552D01*
X126657569Y-81887496D01*
X126649000Y-81844421D01*
X126649000Y-81755579D01*
X126666331Y-81668448D01*
X126700327Y-81586375D01*
X126700328Y-81586374D01*
X126700329Y-81586371D01*
X126749686Y-81512504D01*
X126749687Y-81512503D01*
X126749689Y-81512500D01*
X126812500Y-81449689D01*
X126812504Y-81449686D01*
X126886371Y-81400329D01*
X126886374Y-81400328D01*
X126886375Y-81400327D01*
X126968448Y-81366331D01*
X127055579Y-81349000D01*
X127144421Y-81349000D01*
X127231552Y-81366331D01*
X127238010Y-81369006D01*
X127261459Y-81376119D01*
X127285846Y-81378520D01*
X127310232Y-81376118D01*
X127333681Y-81369004D01*
X127355291Y-81357452D01*
X127374233Y-81341907D01*
X127389778Y-81322964D01*
X127401329Y-81301353D01*
X127408442Y-81277904D01*
X127410843Y-81253517D01*
X127408441Y-81229131D01*
X127401327Y-81205683D01*
X127391331Y-81181552D01*
X127374000Y-81094421D01*
X127374000Y-81005579D01*
X127391331Y-80918448D01*
X127425327Y-80836375D01*
X127425328Y-80836374D01*
X127425329Y-80836371D01*
X127474686Y-80762504D01*
X127474687Y-80762503D01*
X127474689Y-80762500D01*
X127537500Y-80699689D01*
X127537504Y-80699686D01*
X127611371Y-80650329D01*
X127611374Y-80650328D01*
X127611375Y-80650327D01*
X127693448Y-80616331D01*
X127780579Y-80599000D01*
X127869421Y-80599000D01*
X127956552Y-80616331D01*
X127956552Y-80616331D01*
G37*
G36*
X138731552Y-82091331D02*
X138813625Y-82125327D01*
X138813626Y-82125328D01*
X138813629Y-82125329D01*
X138863525Y-82158669D01*
X138887500Y-82174689D01*
X138950311Y-82237500D01*
X138950313Y-82237503D01*
X138950314Y-82237504D01*
X138999671Y-82311371D01*
X138999672Y-82311374D01*
X138999673Y-82311375D01*
X139033669Y-82393448D01*
X139051000Y-82480579D01*
X139051000Y-82569421D01*
X139033669Y-82656552D01*
X138999673Y-82738625D01*
X138999671Y-82738629D01*
X138955409Y-82804871D01*
X138950311Y-82812500D01*
X138887500Y-82875311D01*
X138887497Y-82875313D01*
X138887496Y-82875314D01*
X138813629Y-82924671D01*
X138813626Y-82924672D01*
X138813625Y-82924673D01*
X138731552Y-82958669D01*
X138644421Y-82976000D01*
X138555579Y-82976000D01*
X138468448Y-82958669D01*
X138386375Y-82924673D01*
X138386374Y-82924672D01*
X138386371Y-82924671D01*
X138312504Y-82875314D01*
X138312503Y-82875313D01*
X138312500Y-82875311D01*
X138249689Y-82812500D01*
X138244591Y-82804871D01*
X138200329Y-82738629D01*
X138200327Y-82738625D01*
X138166331Y-82656552D01*
X138149000Y-82569421D01*
X138149000Y-82480579D01*
X138166331Y-82393448D01*
X138200327Y-82311375D01*
X138200328Y-82311374D01*
X138200329Y-82311371D01*
X138249686Y-82237504D01*
X138249687Y-82237503D01*
X138249689Y-82237500D01*
X138312500Y-82174689D01*
X138336475Y-82158669D01*
X138386371Y-82125329D01*
X138386374Y-82125328D01*
X138386375Y-82125327D01*
X138468448Y-82091331D01*
X138555579Y-82074000D01*
X138644421Y-82074000D01*
X138731552Y-82091331D01*
X138731552Y-82091331D01*
G37*
G36*
X134281552Y-82066331D02*
X134363625Y-82100327D01*
X134363626Y-82100328D01*
X134363629Y-82100329D01*
X134437496Y-82149686D01*
X134437500Y-82149689D01*
X134500311Y-82212500D01*
X134500313Y-82212503D01*
X134500314Y-82212504D01*
X134549671Y-82286371D01*
X134549672Y-82286374D01*
X134549673Y-82286375D01*
X134583669Y-82368448D01*
X134601000Y-82455579D01*
X134601000Y-82544421D01*
X134583669Y-82631552D01*
X134562958Y-82681552D01*
X134549671Y-82713629D01*
X134500314Y-82787496D01*
X134500311Y-82787500D01*
X134437500Y-82850311D01*
X134437497Y-82850313D01*
X134437496Y-82850314D01*
X134363629Y-82899671D01*
X134363626Y-82899672D01*
X134363625Y-82899673D01*
X134281552Y-82933669D01*
X134194421Y-82951000D01*
X134105579Y-82951000D01*
X134018448Y-82933669D01*
X133936375Y-82899673D01*
X133936374Y-82899672D01*
X133936371Y-82899671D01*
X133862504Y-82850314D01*
X133862503Y-82850313D01*
X133862500Y-82850311D01*
X133799689Y-82787500D01*
X133799686Y-82787496D01*
X133750329Y-82713629D01*
X133737042Y-82681552D01*
X133716331Y-82631552D01*
X133699000Y-82544421D01*
X133699000Y-82455579D01*
X133716331Y-82368448D01*
X133750327Y-82286375D01*
X133750328Y-82286374D01*
X133750329Y-82286371D01*
X133799686Y-82212504D01*
X133799687Y-82212503D01*
X133799689Y-82212500D01*
X133862500Y-82149689D01*
X133862504Y-82149686D01*
X133936371Y-82100329D01*
X133936374Y-82100328D01*
X133936375Y-82100327D01*
X134018448Y-82066331D01*
X134105579Y-82049000D01*
X134194421Y-82049000D01*
X134281552Y-82066331D01*
X134281552Y-82066331D01*
G37*
G36*
X119106552Y-81291331D02*
X119188625Y-81325327D01*
X119188626Y-81325328D01*
X119188629Y-81325329D01*
X119253992Y-81369004D01*
X119262500Y-81374689D01*
X119325311Y-81437500D01*
X119325313Y-81437503D01*
X119325314Y-81437504D01*
X119374671Y-81511371D01*
X119374672Y-81511374D01*
X119374673Y-81511375D01*
X119408669Y-81593448D01*
X119426000Y-81680579D01*
X119426000Y-81769421D01*
X119408669Y-81856552D01*
X119375139Y-81937500D01*
X119374671Y-81938629D01*
X119330902Y-82004133D01*
X119325311Y-82012500D01*
X119262500Y-82075311D01*
X119262497Y-82075313D01*
X119262496Y-82075314D01*
X119188629Y-82124671D01*
X119188626Y-82124672D01*
X119188625Y-82124673D01*
X119106552Y-82158669D01*
X119019421Y-82176000D01*
X118930579Y-82176000D01*
X118843448Y-82158669D01*
X118761375Y-82124673D01*
X118761374Y-82124672D01*
X118761371Y-82124671D01*
X118687504Y-82075314D01*
X118687503Y-82075313D01*
X118687500Y-82075311D01*
X118624689Y-82012500D01*
X118619098Y-82004133D01*
X118575329Y-81938629D01*
X118574861Y-81937500D01*
X118541331Y-81856552D01*
X118524000Y-81769421D01*
X118524000Y-81680579D01*
X118541331Y-81593448D01*
X118575327Y-81511375D01*
X118575328Y-81511374D01*
X118575329Y-81511371D01*
X118624686Y-81437504D01*
X118624687Y-81437503D01*
X118624689Y-81437500D01*
X118687500Y-81374689D01*
X118696008Y-81369004D01*
X118761371Y-81325329D01*
X118761374Y-81325328D01*
X118761375Y-81325327D01*
X118843448Y-81291331D01*
X118930579Y-81274000D01*
X119019421Y-81274000D01*
X119106552Y-81291331D01*
X119106552Y-81291331D01*
G37*
G36*
X123381552Y-81216331D02*
X123463625Y-81250327D01*
X123463626Y-81250328D01*
X123463629Y-81250329D01*
X123537496Y-81299686D01*
X123537500Y-81299689D01*
X123600311Y-81362500D01*
X123600313Y-81362503D01*
X123600314Y-81362504D01*
X123649671Y-81436371D01*
X123649672Y-81436374D01*
X123649673Y-81436375D01*
X123683669Y-81518448D01*
X123701000Y-81605579D01*
X123701000Y-81694421D01*
X123683669Y-81781552D01*
X123649673Y-81863625D01*
X123649671Y-81863629D01*
X123600314Y-81937496D01*
X123600311Y-81937500D01*
X123537500Y-82000311D01*
X123537497Y-82000313D01*
X123537496Y-82000314D01*
X123463629Y-82049671D01*
X123463626Y-82049672D01*
X123463625Y-82049673D01*
X123381552Y-82083669D01*
X123294421Y-82101000D01*
X123205579Y-82101000D01*
X123118448Y-82083669D01*
X123036375Y-82049673D01*
X123036374Y-82049672D01*
X123036371Y-82049671D01*
X122962504Y-82000314D01*
X122962503Y-82000313D01*
X122962500Y-82000311D01*
X122899689Y-81937500D01*
X122899686Y-81937496D01*
X122850329Y-81863629D01*
X122850327Y-81863625D01*
X122816331Y-81781552D01*
X122799000Y-81694421D01*
X122799000Y-81605579D01*
X122816331Y-81518448D01*
X122850327Y-81436375D01*
X122850328Y-81436374D01*
X122850329Y-81436371D01*
X122899686Y-81362504D01*
X122899687Y-81362503D01*
X122899689Y-81362500D01*
X122962500Y-81299689D01*
X122962504Y-81299686D01*
X123036371Y-81250329D01*
X123036374Y-81250328D01*
X123036375Y-81250327D01*
X123118448Y-81216331D01*
X123205579Y-81199000D01*
X123294421Y-81199000D01*
X123381552Y-81216331D01*
X123381552Y-81216331D01*
G37*
G36*
X130206552Y-81166331D02*
X130288625Y-81200327D01*
X130288626Y-81200328D01*
X130288629Y-81200329D01*
X130362496Y-81249686D01*
X130362500Y-81249689D01*
X130425311Y-81312500D01*
X130425313Y-81312503D01*
X130425314Y-81312504D01*
X130474671Y-81386371D01*
X130474672Y-81386374D01*
X130474673Y-81386375D01*
X130508669Y-81468448D01*
X130526000Y-81555579D01*
X130526000Y-81644421D01*
X130508669Y-81731552D01*
X130487958Y-81781552D01*
X130474671Y-81813629D01*
X130425314Y-81887496D01*
X130425311Y-81887500D01*
X130362500Y-81950311D01*
X130362497Y-81950313D01*
X130362496Y-81950314D01*
X130288629Y-81999671D01*
X130288626Y-81999672D01*
X130288625Y-81999673D01*
X130206552Y-82033669D01*
X130119421Y-82051000D01*
X130030579Y-82051000D01*
X129943448Y-82033669D01*
X129861375Y-81999673D01*
X129861374Y-81999672D01*
X129861371Y-81999671D01*
X129787504Y-81950314D01*
X129787503Y-81950313D01*
X129787500Y-81950311D01*
X129724689Y-81887500D01*
X129724686Y-81887496D01*
X129675329Y-81813629D01*
X129662042Y-81781552D01*
X129641331Y-81731552D01*
X129624000Y-81644421D01*
X129624000Y-81555579D01*
X129641331Y-81468448D01*
X129675327Y-81386375D01*
X129675328Y-81386374D01*
X129675329Y-81386371D01*
X129724686Y-81312504D01*
X129724687Y-81312503D01*
X129724689Y-81312500D01*
X129787500Y-81249689D01*
X129787504Y-81249686D01*
X129861371Y-81200329D01*
X129861374Y-81200328D01*
X129861375Y-81200327D01*
X129943448Y-81166331D01*
X130030579Y-81149000D01*
X130119421Y-81149000D01*
X130206552Y-81166331D01*
X130206552Y-81166331D01*
G37*
G36*
X125056552Y-79866331D02*
X125138625Y-79900327D01*
X125138626Y-79900328D01*
X125138629Y-79900329D01*
X125203160Y-79943448D01*
X125212500Y-79949689D01*
X125275311Y-80012500D01*
X125275313Y-80012503D01*
X125275314Y-80012504D01*
X125324671Y-80086371D01*
X125324672Y-80086374D01*
X125324673Y-80086375D01*
X125358669Y-80168448D01*
X125376000Y-80255579D01*
X125376000Y-80344421D01*
X125358669Y-80431552D01*
X125324673Y-80513625D01*
X125324671Y-80513629D01*
X125299700Y-80551000D01*
X125275311Y-80587500D01*
X125212500Y-80650311D01*
X125212497Y-80650313D01*
X125212496Y-80650314D01*
X125138629Y-80699671D01*
X125138626Y-80699672D01*
X125138625Y-80699673D01*
X125056552Y-80733669D01*
X124969421Y-80751000D01*
X124880579Y-80751000D01*
X124793448Y-80733669D01*
X124711375Y-80699673D01*
X124711374Y-80699672D01*
X124711371Y-80699671D01*
X124637504Y-80650314D01*
X124637503Y-80650313D01*
X124637500Y-80650311D01*
X124574689Y-80587500D01*
X124550300Y-80551000D01*
X124525329Y-80513629D01*
X124525327Y-80513625D01*
X124491331Y-80431552D01*
X124474000Y-80344421D01*
X124474000Y-80255579D01*
X124491331Y-80168448D01*
X124525327Y-80086375D01*
X124525328Y-80086374D01*
X124525329Y-80086371D01*
X124574686Y-80012504D01*
X124574687Y-80012503D01*
X124574689Y-80012500D01*
X124637500Y-79949689D01*
X124646840Y-79943448D01*
X124711371Y-79900329D01*
X124711374Y-79900328D01*
X124711375Y-79900327D01*
X124793448Y-79866331D01*
X124880579Y-79849000D01*
X124969421Y-79849000D01*
X125056552Y-79866331D01*
X125056552Y-79866331D01*
G37*
G36*
X129831552Y-79666331D02*
X129913625Y-79700327D01*
X129913626Y-79700328D01*
X129913629Y-79700329D01*
X129986469Y-79749000D01*
X129987500Y-79749689D01*
X130050311Y-79812500D01*
X130050313Y-79812503D01*
X130050314Y-79812504D01*
X130099671Y-79886371D01*
X130099672Y-79886374D01*
X130099673Y-79886375D01*
X130133669Y-79968448D01*
X130151000Y-80055579D01*
X130151000Y-80144421D01*
X130133669Y-80231552D01*
X130100139Y-80312500D01*
X130099671Y-80313629D01*
X130050314Y-80387496D01*
X130050311Y-80387500D01*
X129987500Y-80450311D01*
X129987497Y-80450313D01*
X129987496Y-80450314D01*
X129913629Y-80499671D01*
X129913626Y-80499672D01*
X129913625Y-80499673D01*
X129831552Y-80533669D01*
X129744421Y-80551000D01*
X129655579Y-80551000D01*
X129568448Y-80533669D01*
X129486375Y-80499673D01*
X129486374Y-80499672D01*
X129486371Y-80499671D01*
X129412504Y-80450314D01*
X129412503Y-80450313D01*
X129412500Y-80450311D01*
X129349689Y-80387500D01*
X129349686Y-80387496D01*
X129300329Y-80313629D01*
X129289972Y-80288625D01*
X129280280Y-80265227D01*
X129268728Y-80243616D01*
X129253183Y-80224674D01*
X129234241Y-80209129D01*
X129212630Y-80197578D01*
X129189181Y-80190465D01*
X129164794Y-80188063D01*
X129140408Y-80190465D01*
X129116959Y-80197578D01*
X129095348Y-80209130D01*
X129076406Y-80224675D01*
X129060861Y-80243617D01*
X129049310Y-80265228D01*
X129042197Y-80288677D01*
X129033669Y-80331552D01*
X128999673Y-80413625D01*
X128999671Y-80413629D01*
X128952871Y-80483669D01*
X128950311Y-80487500D01*
X128887500Y-80550311D01*
X128887497Y-80550313D01*
X128887496Y-80550314D01*
X128813629Y-80599671D01*
X128813626Y-80599672D01*
X128813625Y-80599673D01*
X128731552Y-80633669D01*
X128644421Y-80651000D01*
X128555579Y-80651000D01*
X128468448Y-80633669D01*
X128410411Y-80609629D01*
X128386371Y-80599671D01*
X128343124Y-80570774D01*
X128314847Y-80551880D01*
X128293236Y-80540328D01*
X128291600Y-80539832D01*
X128283534Y-80524741D01*
X128267988Y-80505799D01*
X128249689Y-80487500D01*
X128247129Y-80483669D01*
X128200329Y-80413629D01*
X128200327Y-80413625D01*
X128166331Y-80331552D01*
X128149000Y-80244421D01*
X128149000Y-80155579D01*
X128166331Y-80068448D01*
X128200327Y-79986375D01*
X128200328Y-79986374D01*
X128200329Y-79986371D01*
X128249686Y-79912504D01*
X128249687Y-79912503D01*
X128249689Y-79912500D01*
X128312500Y-79849689D01*
X128313531Y-79849000D01*
X128386371Y-79800329D01*
X128386374Y-79800328D01*
X128386375Y-79800327D01*
X128468448Y-79766331D01*
X128555579Y-79749000D01*
X128644421Y-79749000D01*
X128731552Y-79766331D01*
X128813625Y-79800327D01*
X128813626Y-79800328D01*
X128813629Y-79800329D01*
X128886469Y-79849000D01*
X128887500Y-79849689D01*
X128950311Y-79912500D01*
X128950313Y-79912503D01*
X128950314Y-79912504D01*
X128999671Y-79986371D01*
X129006451Y-80002740D01*
X129019720Y-80034773D01*
X129031272Y-80056384D01*
X129046817Y-80075326D01*
X129065759Y-80090871D01*
X129087370Y-80102422D01*
X129110819Y-80109535D01*
X129135206Y-80111937D01*
X129159592Y-80109535D01*
X129183041Y-80102422D01*
X129204652Y-80090870D01*
X129223594Y-80075325D01*
X129239139Y-80056383D01*
X129250690Y-80034772D01*
X129257803Y-80011323D01*
X129266331Y-79968448D01*
X129300327Y-79886375D01*
X129300328Y-79886374D01*
X129300329Y-79886371D01*
X129349686Y-79812504D01*
X129349687Y-79812503D01*
X129349689Y-79812500D01*
X129412500Y-79749689D01*
X129413531Y-79749000D01*
X129486371Y-79700329D01*
X129486374Y-79700328D01*
X129486375Y-79700327D01*
X129568448Y-79666331D01*
X129655579Y-79649000D01*
X129744421Y-79649000D01*
X129831552Y-79666331D01*
X129831552Y-79666331D01*
G37*
G36*
X136706552Y-79666331D02*
X136788625Y-79700327D01*
X136788626Y-79700328D01*
X136788629Y-79700329D01*
X136861469Y-79749000D01*
X136862500Y-79749689D01*
X136925311Y-79812500D01*
X136925313Y-79812503D01*
X136925314Y-79812504D01*
X136974671Y-79886371D01*
X136974672Y-79886374D01*
X136974673Y-79886375D01*
X137008669Y-79968448D01*
X137026000Y-80055579D01*
X137026000Y-80144421D01*
X137008669Y-80231552D01*
X136975139Y-80312500D01*
X136974671Y-80313629D01*
X136925314Y-80387496D01*
X136925311Y-80387500D01*
X136862500Y-80450311D01*
X136862497Y-80450313D01*
X136862496Y-80450314D01*
X136788629Y-80499671D01*
X136788626Y-80499672D01*
X136788625Y-80499673D01*
X136706552Y-80533669D01*
X136619421Y-80551000D01*
X136530579Y-80551000D01*
X136443448Y-80533669D01*
X136361375Y-80499673D01*
X136361374Y-80499672D01*
X136361371Y-80499671D01*
X136287504Y-80450314D01*
X136287503Y-80450313D01*
X136287500Y-80450311D01*
X136224689Y-80387500D01*
X136224686Y-80387496D01*
X136175329Y-80313629D01*
X136174861Y-80312500D01*
X136141331Y-80231552D01*
X136124000Y-80144421D01*
X136124000Y-80055579D01*
X136141331Y-79968448D01*
X136175327Y-79886375D01*
X136175328Y-79886374D01*
X136175329Y-79886371D01*
X136224686Y-79812504D01*
X136224687Y-79812503D01*
X136224689Y-79812500D01*
X136287500Y-79749689D01*
X136288531Y-79749000D01*
X136361371Y-79700329D01*
X136361374Y-79700328D01*
X136361375Y-79700327D01*
X136443448Y-79666331D01*
X136530579Y-79649000D01*
X136619421Y-79649000D01*
X136706552Y-79666331D01*
X136706552Y-79666331D01*
G37*
G36*
X131056552Y-79641331D02*
X131138625Y-79675327D01*
X131138626Y-79675328D01*
X131138629Y-79675329D01*
X131212496Y-79724686D01*
X131212500Y-79724689D01*
X131275311Y-79787500D01*
X131275313Y-79787503D01*
X131275314Y-79787504D01*
X131324671Y-79861371D01*
X131324672Y-79861374D01*
X131324673Y-79861375D01*
X131358669Y-79943448D01*
X131376000Y-80030579D01*
X131376000Y-80119421D01*
X131358669Y-80206552D01*
X131334364Y-80265228D01*
X131324671Y-80288629D01*
X131292016Y-80337500D01*
X131275311Y-80362500D01*
X131212500Y-80425311D01*
X131212497Y-80425313D01*
X131212496Y-80425314D01*
X131138629Y-80474671D01*
X131138626Y-80474672D01*
X131138625Y-80474673D01*
X131056552Y-80508669D01*
X130969421Y-80526000D01*
X130880579Y-80526000D01*
X130793448Y-80508669D01*
X130711375Y-80474673D01*
X130711374Y-80474672D01*
X130711371Y-80474671D01*
X130637504Y-80425314D01*
X130637503Y-80425313D01*
X130637500Y-80425311D01*
X130574689Y-80362500D01*
X130557984Y-80337500D01*
X130525329Y-80288629D01*
X130515636Y-80265228D01*
X130491331Y-80206552D01*
X130474000Y-80119421D01*
X130474000Y-80030579D01*
X130491331Y-79943448D01*
X130525327Y-79861375D01*
X130525328Y-79861374D01*
X130525329Y-79861371D01*
X130574686Y-79787504D01*
X130574687Y-79787503D01*
X130574689Y-79787500D01*
X130637500Y-79724689D01*
X130637504Y-79724686D01*
X130711371Y-79675329D01*
X130711374Y-79675328D01*
X130711375Y-79675327D01*
X130793448Y-79641331D01*
X130880579Y-79624000D01*
X130969421Y-79624000D01*
X131056552Y-79641331D01*
X131056552Y-79641331D01*
G37*
G36*
X132381552Y-79616331D02*
X132463625Y-79650327D01*
X132463626Y-79650328D01*
X132463629Y-79650329D01*
X132520942Y-79688625D01*
X132537500Y-79699689D01*
X132600311Y-79762500D01*
X132600313Y-79762503D01*
X132600314Y-79762504D01*
X132649671Y-79836371D01*
X132649672Y-79836374D01*
X132649673Y-79836375D01*
X132683669Y-79918448D01*
X132701000Y-80005579D01*
X132701000Y-80094421D01*
X132683669Y-80181552D01*
X132653005Y-80255580D01*
X132649671Y-80263629D01*
X132600314Y-80337496D01*
X132600311Y-80337500D01*
X132537500Y-80400311D01*
X132537497Y-80400313D01*
X132537496Y-80400314D01*
X132463629Y-80449671D01*
X132463626Y-80449672D01*
X132463625Y-80449673D01*
X132381552Y-80483669D01*
X132294421Y-80501000D01*
X132205579Y-80501000D01*
X132118448Y-80483669D01*
X132036375Y-80449673D01*
X132036374Y-80449672D01*
X132036371Y-80449671D01*
X131962504Y-80400314D01*
X131962503Y-80400313D01*
X131962500Y-80400311D01*
X131899689Y-80337500D01*
X131899686Y-80337496D01*
X131850329Y-80263629D01*
X131846995Y-80255580D01*
X131816331Y-80181552D01*
X131799000Y-80094421D01*
X131799000Y-80005579D01*
X131816331Y-79918448D01*
X131850327Y-79836375D01*
X131850328Y-79836374D01*
X131850329Y-79836371D01*
X131899686Y-79762504D01*
X131899687Y-79762503D01*
X131899689Y-79762500D01*
X131962500Y-79699689D01*
X131979058Y-79688625D01*
X132036371Y-79650329D01*
X132036374Y-79650328D01*
X132036375Y-79650327D01*
X132118448Y-79616331D01*
X132205579Y-79599000D01*
X132294421Y-79599000D01*
X132381552Y-79616331D01*
X132381552Y-79616331D01*
G37*
G36*
X138731552Y-79591331D02*
X138813625Y-79625327D01*
X138813626Y-79625328D01*
X138813629Y-79625329D01*
X138887496Y-79674686D01*
X138887500Y-79674689D01*
X138950311Y-79737500D01*
X138950313Y-79737503D01*
X138950314Y-79737504D01*
X138999671Y-79811371D01*
X138999672Y-79811374D01*
X138999673Y-79811375D01*
X139033669Y-79893448D01*
X139051000Y-79980579D01*
X139051000Y-80069421D01*
X139033669Y-80156552D01*
X138999673Y-80238625D01*
X138999671Y-80238629D01*
X138950314Y-80312496D01*
X138950311Y-80312500D01*
X138887500Y-80375311D01*
X138887497Y-80375313D01*
X138887496Y-80375314D01*
X138813629Y-80424671D01*
X138813626Y-80424672D01*
X138813625Y-80424673D01*
X138731552Y-80458669D01*
X138644421Y-80476000D01*
X138555579Y-80476000D01*
X138468448Y-80458669D01*
X138386375Y-80424673D01*
X138386374Y-80424672D01*
X138386371Y-80424671D01*
X138312504Y-80375314D01*
X138312503Y-80375313D01*
X138312500Y-80375311D01*
X138249689Y-80312500D01*
X138249686Y-80312496D01*
X138200329Y-80238629D01*
X138200327Y-80238625D01*
X138166331Y-80156552D01*
X138149000Y-80069421D01*
X138149000Y-79980579D01*
X138166331Y-79893448D01*
X138200327Y-79811375D01*
X138200328Y-79811374D01*
X138200329Y-79811371D01*
X138249686Y-79737504D01*
X138249687Y-79737503D01*
X138249689Y-79737500D01*
X138312500Y-79674689D01*
X138312504Y-79674686D01*
X138386371Y-79625329D01*
X138386374Y-79625328D01*
X138386375Y-79625327D01*
X138468448Y-79591331D01*
X138555579Y-79574000D01*
X138644421Y-79574000D01*
X138731552Y-79591331D01*
X138731552Y-79591331D01*
G37*
G36*
X121756552Y-79041331D02*
X121838625Y-79075327D01*
X121838626Y-79075328D01*
X121838629Y-79075329D01*
X121912496Y-79124686D01*
X121912500Y-79124689D01*
X121975311Y-79187500D01*
X121975313Y-79187503D01*
X121975314Y-79187504D01*
X122024671Y-79261371D01*
X122024672Y-79261374D01*
X122024673Y-79261375D01*
X122058669Y-79343448D01*
X122076000Y-79430579D01*
X122076000Y-79519421D01*
X122058669Y-79606552D01*
X122030181Y-79675327D01*
X122024671Y-79688629D01*
X121983873Y-79749686D01*
X121975311Y-79762500D01*
X121912500Y-79825311D01*
X121912497Y-79825313D01*
X121912496Y-79825314D01*
X121838629Y-79874671D01*
X121838626Y-79874672D01*
X121838625Y-79874673D01*
X121756552Y-79908669D01*
X121669421Y-79926000D01*
X121580579Y-79926000D01*
X121493448Y-79908669D01*
X121411375Y-79874673D01*
X121411374Y-79874672D01*
X121411371Y-79874671D01*
X121337504Y-79825314D01*
X121337503Y-79825313D01*
X121337500Y-79825311D01*
X121274689Y-79762500D01*
X121266127Y-79749686D01*
X121225329Y-79688629D01*
X121219819Y-79675327D01*
X121191331Y-79606552D01*
X121174000Y-79519421D01*
X121174000Y-79430579D01*
X121191331Y-79343448D01*
X121225327Y-79261375D01*
X121225328Y-79261374D01*
X121225329Y-79261371D01*
X121274686Y-79187504D01*
X121274687Y-79187503D01*
X121274689Y-79187500D01*
X121337500Y-79124689D01*
X121337504Y-79124686D01*
X121411371Y-79075329D01*
X121411374Y-79075328D01*
X121411375Y-79075327D01*
X121493448Y-79041331D01*
X121580579Y-79024000D01*
X121669421Y-79024000D01*
X121756552Y-79041331D01*
X121756552Y-79041331D01*
G37*
G36*
X119106552Y-78991331D02*
X119188625Y-79025327D01*
X119188626Y-79025328D01*
X119188629Y-79025329D01*
X119262496Y-79074686D01*
X119262500Y-79074689D01*
X119325311Y-79137500D01*
X119325313Y-79137503D01*
X119325314Y-79137504D01*
X119374671Y-79211371D01*
X119374672Y-79211374D01*
X119374673Y-79211375D01*
X119408669Y-79293448D01*
X119426000Y-79380579D01*
X119426000Y-79469421D01*
X119408669Y-79556552D01*
X119380181Y-79625327D01*
X119374671Y-79638629D01*
X119325314Y-79712496D01*
X119325311Y-79712500D01*
X119262500Y-79775311D01*
X119262497Y-79775313D01*
X119262496Y-79775314D01*
X119188629Y-79824671D01*
X119188626Y-79824672D01*
X119188625Y-79824673D01*
X119106552Y-79858669D01*
X119019421Y-79876000D01*
X118930579Y-79876000D01*
X118843448Y-79858669D01*
X118761375Y-79824673D01*
X118761374Y-79824672D01*
X118761371Y-79824671D01*
X118687504Y-79775314D01*
X118687503Y-79775313D01*
X118687500Y-79775311D01*
X118624689Y-79712500D01*
X118624686Y-79712496D01*
X118575329Y-79638629D01*
X118569819Y-79625327D01*
X118541331Y-79556552D01*
X118524000Y-79469421D01*
X118524000Y-79380579D01*
X118541331Y-79293448D01*
X118575327Y-79211375D01*
X118575328Y-79211374D01*
X118575329Y-79211371D01*
X118624686Y-79137504D01*
X118624687Y-79137503D01*
X118624689Y-79137500D01*
X118687500Y-79074689D01*
X118687504Y-79074686D01*
X118761371Y-79025329D01*
X118761374Y-79025328D01*
X118761375Y-79025327D01*
X118843448Y-78991331D01*
X118930579Y-78974000D01*
X119019421Y-78974000D01*
X119106552Y-78991331D01*
X119106552Y-78991331D01*
G37*
G36*
X116706552Y-78941331D02*
X116788625Y-78975327D01*
X116788626Y-78975328D01*
X116788629Y-78975329D01*
X116861469Y-79024000D01*
X116862500Y-79024689D01*
X116925311Y-79087500D01*
X116925313Y-79087503D01*
X116925314Y-79087504D01*
X116974671Y-79161371D01*
X116974672Y-79161374D01*
X116974673Y-79161375D01*
X117008669Y-79243448D01*
X117026000Y-79330579D01*
X117026000Y-79419421D01*
X117008669Y-79506552D01*
X116974673Y-79588625D01*
X116974671Y-79588629D01*
X116925314Y-79662496D01*
X116925311Y-79662500D01*
X116862500Y-79725311D01*
X116862497Y-79725313D01*
X116862496Y-79725314D01*
X116788629Y-79774671D01*
X116788626Y-79774672D01*
X116788625Y-79774673D01*
X116706552Y-79808669D01*
X116619421Y-79826000D01*
X116530579Y-79826000D01*
X116443448Y-79808669D01*
X116361375Y-79774673D01*
X116361374Y-79774672D01*
X116361371Y-79774671D01*
X116287504Y-79725314D01*
X116287503Y-79725313D01*
X116287500Y-79725311D01*
X116224689Y-79662500D01*
X116224686Y-79662496D01*
X116175329Y-79588629D01*
X116175327Y-79588625D01*
X116141331Y-79506552D01*
X116124000Y-79419421D01*
X116124000Y-79330579D01*
X116141331Y-79243448D01*
X116175327Y-79161375D01*
X116175328Y-79161374D01*
X116175329Y-79161371D01*
X116224686Y-79087504D01*
X116224687Y-79087503D01*
X116224689Y-79087500D01*
X116287500Y-79024689D01*
X116288531Y-79024000D01*
X116361371Y-78975329D01*
X116361374Y-78975328D01*
X116361375Y-78975327D01*
X116443448Y-78941331D01*
X116530579Y-78924000D01*
X116619421Y-78924000D01*
X116706552Y-78941331D01*
X116706552Y-78941331D01*
G37*
G36*
X138756552Y-77391331D02*
X138838625Y-77425327D01*
X138838626Y-77425328D01*
X138838629Y-77425329D01*
X138912496Y-77474686D01*
X138912500Y-77474689D01*
X138975311Y-77537500D01*
X138975313Y-77537503D01*
X138975314Y-77537504D01*
X139024671Y-77611371D01*
X139024672Y-77611374D01*
X139024673Y-77611375D01*
X139058669Y-77693448D01*
X139076000Y-77780579D01*
X139076000Y-77869421D01*
X139058669Y-77956552D01*
X139024673Y-78038625D01*
X139024671Y-78038629D01*
X138983882Y-78099673D01*
X138975311Y-78112500D01*
X138912500Y-78175311D01*
X138912497Y-78175313D01*
X138912496Y-78175314D01*
X138838629Y-78224671D01*
X138838626Y-78224672D01*
X138838625Y-78224673D01*
X138756552Y-78258669D01*
X138669421Y-78276000D01*
X138580579Y-78276000D01*
X138493448Y-78258669D01*
X138411375Y-78224673D01*
X138411374Y-78224672D01*
X138411371Y-78224671D01*
X138337504Y-78175314D01*
X138337503Y-78175313D01*
X138337500Y-78175311D01*
X138274689Y-78112500D01*
X138266118Y-78099673D01*
X138225329Y-78038629D01*
X138225327Y-78038625D01*
X138191331Y-77956552D01*
X138174000Y-77869421D01*
X138174000Y-77780579D01*
X138191331Y-77693448D01*
X138225327Y-77611375D01*
X138225328Y-77611374D01*
X138225329Y-77611371D01*
X138274686Y-77537504D01*
X138274687Y-77537503D01*
X138274689Y-77537500D01*
X138337500Y-77474689D01*
X138337504Y-77474686D01*
X138411371Y-77425329D01*
X138411374Y-77425328D01*
X138411375Y-77425327D01*
X138493448Y-77391331D01*
X138580579Y-77374000D01*
X138669421Y-77374000D01*
X138756552Y-77391331D01*
X138756552Y-77391331D01*
G37*
G36*
X134256552Y-77266331D02*
X134338625Y-77300327D01*
X134338626Y-77300328D01*
X134338629Y-77300329D01*
X134404616Y-77344421D01*
X134412500Y-77349689D01*
X134475311Y-77412500D01*
X134475313Y-77412503D01*
X134475314Y-77412504D01*
X134524671Y-77486371D01*
X134524672Y-77486374D01*
X134524673Y-77486375D01*
X134558669Y-77568448D01*
X134576000Y-77655579D01*
X134576000Y-77744421D01*
X134558669Y-77831552D01*
X134524673Y-77913625D01*
X134524671Y-77913629D01*
X134495990Y-77956552D01*
X134475311Y-77987500D01*
X134412500Y-78050311D01*
X134412497Y-78050313D01*
X134412496Y-78050314D01*
X134338629Y-78099671D01*
X134338626Y-78099672D01*
X134338625Y-78099673D01*
X134256552Y-78133669D01*
X134169421Y-78151000D01*
X134080579Y-78151000D01*
X133993448Y-78133669D01*
X133911375Y-78099673D01*
X133911374Y-78099672D01*
X133911371Y-78099671D01*
X133837504Y-78050314D01*
X133837503Y-78050313D01*
X133837500Y-78050311D01*
X133774689Y-77987500D01*
X133754010Y-77956552D01*
X133725329Y-77913629D01*
X133725327Y-77913625D01*
X133691331Y-77831552D01*
X133674000Y-77744421D01*
X133674000Y-77655579D01*
X133691331Y-77568448D01*
X133725327Y-77486375D01*
X133725328Y-77486374D01*
X133725329Y-77486371D01*
X133774686Y-77412504D01*
X133774687Y-77412503D01*
X133774689Y-77412500D01*
X133837500Y-77349689D01*
X133845384Y-77344421D01*
X133911371Y-77300329D01*
X133911374Y-77300328D01*
X133911375Y-77300327D01*
X133993448Y-77266331D01*
X134080579Y-77249000D01*
X134169421Y-77249000D01*
X134256552Y-77266331D01*
X134256552Y-77266331D01*
G37*
G36*
X128306552Y-76941331D02*
X128388625Y-76975327D01*
X128388626Y-76975328D01*
X128388629Y-76975329D01*
X128462496Y-77024686D01*
X128462500Y-77024689D01*
X128525311Y-77087500D01*
X128525313Y-77087503D01*
X128525314Y-77087504D01*
X128574671Y-77161371D01*
X128574672Y-77161374D01*
X128574673Y-77161375D01*
X128608669Y-77243448D01*
X128626000Y-77330579D01*
X128626000Y-77419421D01*
X128608669Y-77506552D01*
X128575139Y-77587500D01*
X128574671Y-77588629D01*
X128529935Y-77655580D01*
X128525311Y-77662500D01*
X128462500Y-77725311D01*
X128462497Y-77725313D01*
X128462496Y-77725314D01*
X128388629Y-77774671D01*
X128388626Y-77774672D01*
X128388625Y-77774673D01*
X128306552Y-77808669D01*
X128219421Y-77826000D01*
X128130579Y-77826000D01*
X128043448Y-77808669D01*
X127961375Y-77774673D01*
X127961374Y-77774672D01*
X127961371Y-77774671D01*
X127887504Y-77725314D01*
X127887503Y-77725313D01*
X127887500Y-77725311D01*
X127824689Y-77662500D01*
X127820065Y-77655580D01*
X127775329Y-77588629D01*
X127774861Y-77587500D01*
X127741331Y-77506552D01*
X127724000Y-77419421D01*
X127724000Y-77330579D01*
X127741331Y-77243448D01*
X127775327Y-77161375D01*
X127775328Y-77161374D01*
X127775329Y-77161371D01*
X127824686Y-77087504D01*
X127824687Y-77087503D01*
X127824689Y-77087500D01*
X127887500Y-77024689D01*
X127887504Y-77024686D01*
X127961371Y-76975329D01*
X127961374Y-76975328D01*
X127961375Y-76975327D01*
X128043448Y-76941331D01*
X128130579Y-76924000D01*
X128219421Y-76924000D01*
X128306552Y-76941331D01*
X128306552Y-76941331D01*
G37*
G36*
X121731552Y-76866331D02*
X121813625Y-76900327D01*
X121813626Y-76900328D01*
X121813629Y-76900329D01*
X121887496Y-76949686D01*
X121887500Y-76949689D01*
X121950311Y-77012500D01*
X121950313Y-77012503D01*
X121950314Y-77012504D01*
X121999671Y-77086371D01*
X121999672Y-77086374D01*
X121999673Y-77086375D01*
X122033669Y-77168448D01*
X122051000Y-77255579D01*
X122051000Y-77344421D01*
X122033669Y-77431552D01*
X121999673Y-77513625D01*
X121999671Y-77513629D01*
X121950314Y-77587496D01*
X121950311Y-77587500D01*
X121887500Y-77650311D01*
X121887497Y-77650313D01*
X121887496Y-77650314D01*
X121813629Y-77699671D01*
X121813626Y-77699672D01*
X121813625Y-77699673D01*
X121731552Y-77733669D01*
X121644421Y-77751000D01*
X121555579Y-77751000D01*
X121468448Y-77733669D01*
X121386375Y-77699673D01*
X121386374Y-77699672D01*
X121386371Y-77699671D01*
X121312504Y-77650314D01*
X121312503Y-77650313D01*
X121312500Y-77650311D01*
X121249689Y-77587500D01*
X121249686Y-77587496D01*
X121200329Y-77513629D01*
X121200327Y-77513625D01*
X121166331Y-77431552D01*
X121149000Y-77344421D01*
X121149000Y-77255579D01*
X121166331Y-77168448D01*
X121200327Y-77086375D01*
X121200328Y-77086374D01*
X121200329Y-77086371D01*
X121249686Y-77012504D01*
X121249687Y-77012503D01*
X121249689Y-77012500D01*
X121312500Y-76949689D01*
X121312504Y-76949686D01*
X121386371Y-76900329D01*
X121386374Y-76900328D01*
X121386375Y-76900327D01*
X121468448Y-76866331D01*
X121555579Y-76849000D01*
X121644421Y-76849000D01*
X121731552Y-76866331D01*
X121731552Y-76866331D01*
G37*
G36*
X124981552Y-76866331D02*
X125063625Y-76900327D01*
X125063626Y-76900328D01*
X125063629Y-76900329D01*
X125137496Y-76949686D01*
X125137500Y-76949689D01*
X125200311Y-77012500D01*
X125200313Y-77012503D01*
X125200314Y-77012504D01*
X125249671Y-77086371D01*
X125249672Y-77086374D01*
X125249673Y-77086375D01*
X125283669Y-77168448D01*
X125301000Y-77255579D01*
X125301000Y-77344421D01*
X125283669Y-77431552D01*
X125249673Y-77513625D01*
X125249671Y-77513629D01*
X125200314Y-77587496D01*
X125200311Y-77587500D01*
X125137500Y-77650311D01*
X125137497Y-77650313D01*
X125137496Y-77650314D01*
X125063629Y-77699671D01*
X125063626Y-77699672D01*
X125063625Y-77699673D01*
X124981552Y-77733669D01*
X124894421Y-77751000D01*
X124805579Y-77751000D01*
X124718448Y-77733669D01*
X124636375Y-77699673D01*
X124636374Y-77699672D01*
X124636371Y-77699671D01*
X124562504Y-77650314D01*
X124562503Y-77650313D01*
X124562500Y-77650311D01*
X124499689Y-77587500D01*
X124499686Y-77587496D01*
X124450329Y-77513629D01*
X124450327Y-77513625D01*
X124416331Y-77431552D01*
X124399000Y-77344421D01*
X124399000Y-77255579D01*
X124416331Y-77168448D01*
X124450327Y-77086375D01*
X124450328Y-77086374D01*
X124450329Y-77086371D01*
X124499686Y-77012504D01*
X124499687Y-77012503D01*
X124499689Y-77012500D01*
X124562500Y-76949689D01*
X124562504Y-76949686D01*
X124636371Y-76900329D01*
X124636374Y-76900328D01*
X124636375Y-76900327D01*
X124718448Y-76866331D01*
X124805579Y-76849000D01*
X124894421Y-76849000D01*
X124981552Y-76866331D01*
X124981552Y-76866331D01*
G37*
G36*
X138656552Y-75316331D02*
X138738625Y-75350327D01*
X138738626Y-75350328D01*
X138738629Y-75350329D01*
X138812496Y-75399686D01*
X138812500Y-75399689D01*
X138875311Y-75462500D01*
X138875313Y-75462503D01*
X138875314Y-75462504D01*
X138924671Y-75536371D01*
X138924672Y-75536374D01*
X138924673Y-75536375D01*
X138958669Y-75618448D01*
X138976000Y-75705579D01*
X138976000Y-75794421D01*
X138958669Y-75881552D01*
X138924673Y-75963625D01*
X138924671Y-75963629D01*
X138892016Y-76012500D01*
X138875311Y-76037500D01*
X138812500Y-76100311D01*
X138812497Y-76100313D01*
X138812496Y-76100314D01*
X138738629Y-76149671D01*
X138738626Y-76149672D01*
X138738625Y-76149673D01*
X138656552Y-76183669D01*
X138569421Y-76201000D01*
X138480579Y-76201000D01*
X138393448Y-76183669D01*
X138311375Y-76149673D01*
X138311374Y-76149672D01*
X138311371Y-76149671D01*
X138237504Y-76100314D01*
X138237503Y-76100313D01*
X138237500Y-76100311D01*
X138174689Y-76037500D01*
X138157984Y-76012500D01*
X138125329Y-75963629D01*
X138125327Y-75963625D01*
X138091331Y-75881552D01*
X138074000Y-75794421D01*
X138074000Y-75705579D01*
X138091331Y-75618448D01*
X138125327Y-75536375D01*
X138125328Y-75536374D01*
X138125329Y-75536371D01*
X138174686Y-75462504D01*
X138174687Y-75462503D01*
X138174689Y-75462500D01*
X138237500Y-75399689D01*
X138237504Y-75399686D01*
X138311371Y-75350329D01*
X138311374Y-75350328D01*
X138311375Y-75350327D01*
X138393448Y-75316331D01*
X138480579Y-75299000D01*
X138569421Y-75299000D01*
X138656552Y-75316331D01*
X138656552Y-75316331D01*
G37*
G36*
X131981552Y-75316331D02*
X132063625Y-75350327D01*
X132063626Y-75350328D01*
X132063629Y-75350329D01*
X132137496Y-75399686D01*
X132137500Y-75399689D01*
X132200311Y-75462500D01*
X132200313Y-75462503D01*
X132200314Y-75462504D01*
X132249671Y-75536371D01*
X132249672Y-75536374D01*
X132249673Y-75536375D01*
X132283669Y-75618448D01*
X132301000Y-75705579D01*
X132301000Y-75794421D01*
X132283669Y-75881552D01*
X132249673Y-75963625D01*
X132249671Y-75963629D01*
X132217016Y-76012500D01*
X132200311Y-76037500D01*
X132137500Y-76100311D01*
X132137497Y-76100313D01*
X132137496Y-76100314D01*
X132063629Y-76149671D01*
X132063626Y-76149672D01*
X132063625Y-76149673D01*
X131981552Y-76183669D01*
X131894421Y-76201000D01*
X131805579Y-76201000D01*
X131718448Y-76183669D01*
X131636375Y-76149673D01*
X131636374Y-76149672D01*
X131636371Y-76149671D01*
X131562504Y-76100314D01*
X131562503Y-76100313D01*
X131562500Y-76100311D01*
X131499689Y-76037500D01*
X131482984Y-76012500D01*
X131450329Y-75963629D01*
X131450327Y-75963625D01*
X131416331Y-75881552D01*
X131399000Y-75794421D01*
X131399000Y-75705579D01*
X131416331Y-75618448D01*
X131450327Y-75536375D01*
X131450328Y-75536374D01*
X131450329Y-75536371D01*
X131499686Y-75462504D01*
X131499687Y-75462503D01*
X131499689Y-75462500D01*
X131562500Y-75399689D01*
X131562504Y-75399686D01*
X131636371Y-75350329D01*
X131636374Y-75350328D01*
X131636375Y-75350327D01*
X131718448Y-75316331D01*
X131805579Y-75299000D01*
X131894421Y-75299000D01*
X131981552Y-75316331D01*
X131981552Y-75316331D01*
G37*
G36*
X136681552Y-75316331D02*
X136763625Y-75350327D01*
X136763626Y-75350328D01*
X136763629Y-75350329D01*
X136837496Y-75399686D01*
X136837500Y-75399689D01*
X136900311Y-75462500D01*
X136900313Y-75462503D01*
X136900314Y-75462504D01*
X136949671Y-75536371D01*
X136949672Y-75536374D01*
X136949673Y-75536375D01*
X136983669Y-75618448D01*
X137001000Y-75705579D01*
X137001000Y-75794421D01*
X136983669Y-75881552D01*
X136949673Y-75963625D01*
X136949671Y-75963629D01*
X136917016Y-76012500D01*
X136900311Y-76037500D01*
X136837500Y-76100311D01*
X136837497Y-76100313D01*
X136837496Y-76100314D01*
X136763629Y-76149671D01*
X136763626Y-76149672D01*
X136763625Y-76149673D01*
X136681552Y-76183669D01*
X136594421Y-76201000D01*
X136505579Y-76201000D01*
X136418448Y-76183669D01*
X136336375Y-76149673D01*
X136336374Y-76149672D01*
X136336371Y-76149671D01*
X136262504Y-76100314D01*
X136262503Y-76100313D01*
X136262500Y-76100311D01*
X136199689Y-76037500D01*
X136182984Y-76012500D01*
X136150329Y-75963629D01*
X136150327Y-75963625D01*
X136116331Y-75881552D01*
X136099000Y-75794421D01*
X136099000Y-75705579D01*
X136116331Y-75618448D01*
X136150327Y-75536375D01*
X136150328Y-75536374D01*
X136150329Y-75536371D01*
X136199686Y-75462504D01*
X136199687Y-75462503D01*
X136199689Y-75462500D01*
X136262500Y-75399689D01*
X136262504Y-75399686D01*
X136336371Y-75350329D01*
X136336374Y-75350328D01*
X136336375Y-75350327D01*
X136418448Y-75316331D01*
X136505579Y-75299000D01*
X136594421Y-75299000D01*
X136681552Y-75316331D01*
X136681552Y-75316331D01*
G37*
G36*
X134206552Y-75291331D02*
X134288625Y-75325327D01*
X134288626Y-75325328D01*
X134288629Y-75325329D01*
X134362496Y-75374686D01*
X134362500Y-75374689D01*
X134425311Y-75437500D01*
X134425313Y-75437503D01*
X134425314Y-75437504D01*
X134474671Y-75511371D01*
X134474672Y-75511374D01*
X134474673Y-75511375D01*
X134508669Y-75593448D01*
X134526000Y-75680579D01*
X134526000Y-75769421D01*
X134508669Y-75856552D01*
X134474673Y-75938625D01*
X134474671Y-75938629D01*
X134457966Y-75963629D01*
X134425311Y-76012500D01*
X134362500Y-76075311D01*
X134362497Y-76075313D01*
X134362496Y-76075314D01*
X134288629Y-76124671D01*
X134288626Y-76124672D01*
X134288625Y-76124673D01*
X134206552Y-76158669D01*
X134119421Y-76176000D01*
X134030579Y-76176000D01*
X133943448Y-76158669D01*
X133861375Y-76124673D01*
X133861374Y-76124672D01*
X133861371Y-76124671D01*
X133787504Y-76075314D01*
X133787503Y-76075313D01*
X133787500Y-76075311D01*
X133724689Y-76012500D01*
X133692034Y-75963629D01*
X133675329Y-75938629D01*
X133675327Y-75938625D01*
X133641331Y-75856552D01*
X133624000Y-75769421D01*
X133624000Y-75680579D01*
X133641331Y-75593448D01*
X133675327Y-75511375D01*
X133675328Y-75511374D01*
X133675329Y-75511371D01*
X133724686Y-75437504D01*
X133724687Y-75437503D01*
X133724689Y-75437500D01*
X133787500Y-75374689D01*
X133787504Y-75374686D01*
X133861371Y-75325329D01*
X133861374Y-75325328D01*
X133861375Y-75325327D01*
X133943448Y-75291331D01*
X134030579Y-75274000D01*
X134119421Y-75274000D01*
X134206552Y-75291331D01*
X134206552Y-75291331D01*
G37*
G36*
X119900443Y-73155519D02*
X119966627Y-73162037D01*
X120079853Y-73196384D01*
X120136467Y-73213557D01*
X120272690Y-73286371D01*
X120292991Y-73297222D01*
X120318855Y-73318448D01*
X120430186Y-73409814D01*
X120499619Y-73494420D01*
X120542778Y-73547009D01*
X120542779Y-73547011D01*
X120626443Y-73703533D01*
X120643616Y-73760147D01*
X120677963Y-73873373D01*
X120695359Y-74050000D01*
X120677963Y-74226627D01*
X120643616Y-74339853D01*
X120626443Y-74396467D01*
X120552348Y-74535087D01*
X120542778Y-74552991D01*
X120513448Y-74588729D01*
X120430186Y-74690186D01*
X120328729Y-74773448D01*
X120292991Y-74802778D01*
X120292989Y-74802779D01*
X120136467Y-74886443D01*
X120079853Y-74903616D01*
X119966627Y-74937963D01*
X119900442Y-74944482D01*
X119834260Y-74951000D01*
X119745740Y-74951000D01*
X119679558Y-74944482D01*
X119613373Y-74937963D01*
X119500147Y-74903616D01*
X119443533Y-74886443D01*
X119287011Y-74802779D01*
X119287009Y-74802778D01*
X119251271Y-74773448D01*
X119149814Y-74690186D01*
X119066552Y-74588729D01*
X119037222Y-74552991D01*
X119027652Y-74535087D01*
X118953557Y-74396467D01*
X118936384Y-74339853D01*
X118902037Y-74226627D01*
X118884641Y-74050000D01*
X118902037Y-73873373D01*
X118936384Y-73760147D01*
X118953557Y-73703533D01*
X119037221Y-73547011D01*
X119037222Y-73547009D01*
X119080381Y-73494420D01*
X119149814Y-73409814D01*
X119261145Y-73318448D01*
X119287009Y-73297222D01*
X119307310Y-73286371D01*
X119443533Y-73213557D01*
X119500147Y-73196384D01*
X119613373Y-73162037D01*
X119679557Y-73155519D01*
X119745740Y-73149000D01*
X119834260Y-73149000D01*
X119900443Y-73155519D01*
X119900443Y-73155519D01*
G37*
G36*
X118151000Y-74951000D02*
X116349000Y-74951000D01*
X116349000Y-73149000D01*
X118151000Y-73149000D01*
X118151000Y-74951000D01*
X118151000Y-74951000D01*
G37*
G36*
X138731552Y-73066331D02*
X138813625Y-73100327D01*
X138813626Y-73100328D01*
X138813629Y-73100329D01*
X138886469Y-73149000D01*
X138887500Y-73149689D01*
X138950311Y-73212500D01*
X138950313Y-73212503D01*
X138950314Y-73212504D01*
X138999671Y-73286371D01*
X138999672Y-73286374D01*
X138999673Y-73286375D01*
X139033669Y-73368448D01*
X139051000Y-73455579D01*
X139051000Y-73544421D01*
X139033669Y-73631552D01*
X138999673Y-73713625D01*
X138999671Y-73713629D01*
X138950314Y-73787496D01*
X138950311Y-73787500D01*
X138887500Y-73850311D01*
X138887497Y-73850313D01*
X138887496Y-73850314D01*
X138813629Y-73899671D01*
X138813626Y-73899672D01*
X138813625Y-73899673D01*
X138731552Y-73933669D01*
X138644421Y-73951000D01*
X138555579Y-73951000D01*
X138468448Y-73933669D01*
X138386375Y-73899673D01*
X138386374Y-73899672D01*
X138386371Y-73899671D01*
X138312504Y-73850314D01*
X138312503Y-73850313D01*
X138312500Y-73850311D01*
X138249689Y-73787500D01*
X138249686Y-73787496D01*
X138200329Y-73713629D01*
X138200327Y-73713625D01*
X138166331Y-73631552D01*
X138149000Y-73544421D01*
X138149000Y-73455579D01*
X138166331Y-73368448D01*
X138200327Y-73286375D01*
X138200328Y-73286374D01*
X138200329Y-73286371D01*
X138249686Y-73212504D01*
X138249687Y-73212503D01*
X138249689Y-73212500D01*
X138312500Y-73149689D01*
X138313531Y-73149000D01*
X138386371Y-73100329D01*
X138386374Y-73100328D01*
X138386375Y-73100327D01*
X138468448Y-73066331D01*
X138555579Y-73049000D01*
X138644421Y-73049000D01*
X138731552Y-73066331D01*
X138731552Y-73066331D01*
G37*
G36*
X135431552Y-73066331D02*
X135513625Y-73100327D01*
X135513626Y-73100328D01*
X135513629Y-73100329D01*
X135586469Y-73149000D01*
X135587500Y-73149689D01*
X135650311Y-73212500D01*
X135650313Y-73212503D01*
X135650314Y-73212504D01*
X135699671Y-73286371D01*
X135699672Y-73286374D01*
X135699673Y-73286375D01*
X135733669Y-73368448D01*
X135751000Y-73455579D01*
X135751000Y-73544421D01*
X135733669Y-73631552D01*
X135699673Y-73713625D01*
X135699671Y-73713629D01*
X135650314Y-73787496D01*
X135650311Y-73787500D01*
X135587500Y-73850311D01*
X135587497Y-73850313D01*
X135587496Y-73850314D01*
X135513629Y-73899671D01*
X135513626Y-73899672D01*
X135513625Y-73899673D01*
X135431552Y-73933669D01*
X135344421Y-73951000D01*
X135255579Y-73951000D01*
X135168448Y-73933669D01*
X135086375Y-73899673D01*
X135086374Y-73899672D01*
X135086371Y-73899671D01*
X135012504Y-73850314D01*
X135012503Y-73850313D01*
X135012500Y-73850311D01*
X134949689Y-73787500D01*
X134949686Y-73787496D01*
X134900329Y-73713629D01*
X134900327Y-73713625D01*
X134866331Y-73631552D01*
X134849000Y-73544421D01*
X134849000Y-73455579D01*
X134866331Y-73368448D01*
X134900327Y-73286375D01*
X134900328Y-73286374D01*
X134900329Y-73286371D01*
X134949686Y-73212504D01*
X134949687Y-73212503D01*
X134949689Y-73212500D01*
X135012500Y-73149689D01*
X135013531Y-73149000D01*
X135086371Y-73100329D01*
X135086374Y-73100328D01*
X135086375Y-73100327D01*
X135168448Y-73066331D01*
X135255579Y-73049000D01*
X135344421Y-73049000D01*
X135431552Y-73066331D01*
X135431552Y-73066331D01*
G37*
G36*
X132706552Y-73016331D02*
X132788625Y-73050327D01*
X132788626Y-73050328D01*
X132788629Y-73050329D01*
X132862496Y-73099686D01*
X132862500Y-73099689D01*
X132925311Y-73162500D01*
X132925313Y-73162503D01*
X132925314Y-73162504D01*
X132974671Y-73236371D01*
X132974672Y-73236374D01*
X132974673Y-73236375D01*
X133008669Y-73318448D01*
X133026000Y-73405579D01*
X133026000Y-73494421D01*
X133008669Y-73581552D01*
X133000897Y-73600314D01*
X132974671Y-73663629D01*
X132925314Y-73737496D01*
X132925311Y-73737500D01*
X132862500Y-73800311D01*
X132862497Y-73800313D01*
X132862496Y-73800314D01*
X132788629Y-73849671D01*
X132788626Y-73849672D01*
X132788625Y-73849673D01*
X132706552Y-73883669D01*
X132619421Y-73901000D01*
X132530579Y-73901000D01*
X132443448Y-73883669D01*
X132361375Y-73849673D01*
X132361374Y-73849672D01*
X132361371Y-73849671D01*
X132287504Y-73800314D01*
X132287503Y-73800313D01*
X132287500Y-73800311D01*
X132224689Y-73737500D01*
X132224686Y-73737496D01*
X132175329Y-73663629D01*
X132149103Y-73600314D01*
X132141331Y-73581552D01*
X132124000Y-73494421D01*
X132124000Y-73405579D01*
X132141331Y-73318448D01*
X132175327Y-73236375D01*
X132175328Y-73236374D01*
X132175329Y-73236371D01*
X132224686Y-73162504D01*
X132224687Y-73162503D01*
X132224689Y-73162500D01*
X132287500Y-73099689D01*
X132287504Y-73099686D01*
X132361371Y-73050329D01*
X132361374Y-73050328D01*
X132361375Y-73050327D01*
X132443448Y-73016331D01*
X132530579Y-72999000D01*
X132619421Y-72999000D01*
X132706552Y-73016331D01*
X132706552Y-73016331D01*
G37*
G36*
X122781552Y-72816331D02*
X122863625Y-72850327D01*
X122863626Y-72850328D01*
X122863629Y-72850329D01*
X122937496Y-72899686D01*
X122937500Y-72899689D01*
X123000311Y-72962500D01*
X123000313Y-72962503D01*
X123000314Y-72962504D01*
X123049671Y-73036371D01*
X123049672Y-73036374D01*
X123049673Y-73036375D01*
X123083669Y-73118448D01*
X123101000Y-73205579D01*
X123101000Y-73294421D01*
X123083669Y-73381552D01*
X123053005Y-73455580D01*
X123049671Y-73463629D01*
X123029096Y-73494421D01*
X123000311Y-73537500D01*
X122937500Y-73600311D01*
X122937497Y-73600313D01*
X122937496Y-73600314D01*
X122863629Y-73649671D01*
X122863626Y-73649672D01*
X122863625Y-73649673D01*
X122781552Y-73683669D01*
X122694421Y-73701000D01*
X122605579Y-73701000D01*
X122518448Y-73683669D01*
X122436375Y-73649673D01*
X122436374Y-73649672D01*
X122436371Y-73649671D01*
X122362504Y-73600314D01*
X122362503Y-73600313D01*
X122362500Y-73600311D01*
X122299689Y-73537500D01*
X122270904Y-73494421D01*
X122250329Y-73463629D01*
X122246995Y-73455580D01*
X122216331Y-73381552D01*
X122199000Y-73294421D01*
X122199000Y-73205579D01*
X122216331Y-73118448D01*
X122250327Y-73036375D01*
X122250328Y-73036374D01*
X122250329Y-73036371D01*
X122299686Y-72962504D01*
X122299687Y-72962503D01*
X122299689Y-72962500D01*
X122362500Y-72899689D01*
X122362504Y-72899686D01*
X122436371Y-72850329D01*
X122436374Y-72850328D01*
X122436375Y-72850327D01*
X122518448Y-72816331D01*
X122605579Y-72799000D01*
X122694421Y-72799000D01*
X122781552Y-72816331D01*
X122781552Y-72816331D01*
G37*
M02*
