G04 #@! TF.GenerationSoftware,KiCad,Pcbnew,(5.0.1)-4*
G04 #@! TF.CreationDate,2019-05-20T12:55:45-07:00*
G04 #@! TF.ProjectId,Tripler_circuit,547269706C65725F636972637569742E,rev?*
G04 #@! TF.SameCoordinates,Original*
G04 #@! TF.FileFunction,Legend,Top*
G04 #@! TF.FilePolarity,Positive*
%FSLAX46Y46*%
G04 Gerber Fmt 4.6, Leading zero omitted, Abs format (unit mm)*
G04 Created by KiCad (PCBNEW (5.0.1)-4) date 5/20/2019 12:55:45 PM*
%MOMM*%
%LPD*%
G01*
G04 APERTURE LIST*
%ADD10C,0.300000*%
%ADD11C,0.250000*%
%ADD12C,0.200000*%
%ADD13C,0.150000*%
%ADD14C,0.120000*%
%ADD15C,0.050000*%
G04 APERTURE END LIST*
D10*
X134864285Y-84007142D02*
X136007142Y-84007142D01*
X135435714Y-84578571D02*
X135435714Y-83435714D01*
X137435714Y-83078571D02*
X136721428Y-83078571D01*
X136650000Y-83792857D01*
X136721428Y-83721428D01*
X136864285Y-83650000D01*
X137221428Y-83650000D01*
X137364285Y-83721428D01*
X137435714Y-83792857D01*
X137507142Y-83935714D01*
X137507142Y-84292857D01*
X137435714Y-84435714D01*
X137364285Y-84507142D01*
X137221428Y-84578571D01*
X136864285Y-84578571D01*
X136721428Y-84507142D01*
X136650000Y-84435714D01*
D11*
X100863095Y-97178571D02*
X101196428Y-97178571D01*
X101339285Y-97702380D02*
X100863095Y-97702380D01*
X100863095Y-96702380D01*
X101339285Y-96702380D01*
X101910714Y-97702380D02*
X101815476Y-97654761D01*
X101767857Y-97559523D01*
X101767857Y-96702380D01*
X102434523Y-97702380D02*
X102339285Y-97654761D01*
X102291666Y-97559523D01*
X102291666Y-96702380D01*
X102815476Y-97702380D02*
X102815476Y-97035714D01*
X102815476Y-96702380D02*
X102767857Y-96750000D01*
X102815476Y-96797619D01*
X102863095Y-96750000D01*
X102815476Y-96702380D01*
X102815476Y-96797619D01*
X103434523Y-97702380D02*
X103339285Y-97654761D01*
X103291666Y-97607142D01*
X103244047Y-97511904D01*
X103244047Y-97226190D01*
X103291666Y-97130952D01*
X103339285Y-97083333D01*
X103434523Y-97035714D01*
X103577380Y-97035714D01*
X103672619Y-97083333D01*
X103720238Y-97130952D01*
X103767857Y-97226190D01*
X103767857Y-97511904D01*
X103720238Y-97607142D01*
X103672619Y-97654761D01*
X103577380Y-97702380D01*
X103434523Y-97702380D01*
X104053571Y-97035714D02*
X104434523Y-97035714D01*
X104196428Y-96702380D02*
X104196428Y-97559523D01*
X104244047Y-97654761D01*
X104339285Y-97702380D01*
X104434523Y-97702380D01*
X104625000Y-97035714D02*
X105005952Y-97035714D01*
X104767857Y-96702380D02*
X104767857Y-97559523D01*
X104815476Y-97654761D01*
X104910714Y-97702380D01*
X105005952Y-97702380D01*
X106434523Y-97178571D02*
X106577380Y-97226190D01*
X106625000Y-97273809D01*
X106672619Y-97369047D01*
X106672619Y-97511904D01*
X106625000Y-97607142D01*
X106577380Y-97654761D01*
X106482142Y-97702380D01*
X106101190Y-97702380D01*
X106101190Y-96702380D01*
X106434523Y-96702380D01*
X106529761Y-96750000D01*
X106577380Y-96797619D01*
X106625000Y-96892857D01*
X106625000Y-96988095D01*
X106577380Y-97083333D01*
X106529761Y-97130952D01*
X106434523Y-97178571D01*
X106101190Y-97178571D01*
X107529761Y-97702380D02*
X107529761Y-97178571D01*
X107482142Y-97083333D01*
X107386904Y-97035714D01*
X107196428Y-97035714D01*
X107101190Y-97083333D01*
X107529761Y-97654761D02*
X107434523Y-97702380D01*
X107196428Y-97702380D01*
X107101190Y-97654761D01*
X107053571Y-97559523D01*
X107053571Y-97464285D01*
X107101190Y-97369047D01*
X107196428Y-97321428D01*
X107434523Y-97321428D01*
X107529761Y-97273809D01*
X107910714Y-97035714D02*
X108148809Y-97702380D01*
X108386904Y-97035714D02*
X108148809Y-97702380D01*
X108053571Y-97940476D01*
X108005952Y-97988095D01*
X107910714Y-98035714D01*
X109529761Y-97702380D02*
X109529761Y-96702380D01*
X110005952Y-97035714D02*
X110005952Y-97702380D01*
X110005952Y-97130952D02*
X110053571Y-97083333D01*
X110148809Y-97035714D01*
X110291666Y-97035714D01*
X110386904Y-97083333D01*
X110434523Y-97178571D01*
X110434523Y-97702380D01*
X111339285Y-97702380D02*
X111339285Y-96702380D01*
X111339285Y-97654761D02*
X111244047Y-97702380D01*
X111053571Y-97702380D01*
X110958333Y-97654761D01*
X110910714Y-97607142D01*
X110863095Y-97511904D01*
X110863095Y-97226190D01*
X110910714Y-97130952D01*
X110958333Y-97083333D01*
X111053571Y-97035714D01*
X111244047Y-97035714D01*
X111339285Y-97083333D01*
X112244047Y-97035714D02*
X112244047Y-97702380D01*
X111815476Y-97035714D02*
X111815476Y-97559523D01*
X111863095Y-97654761D01*
X111958333Y-97702380D01*
X112101190Y-97702380D01*
X112196428Y-97654761D01*
X112244047Y-97607142D01*
X112672619Y-97654761D02*
X112767857Y-97702380D01*
X112958333Y-97702380D01*
X113053571Y-97654761D01*
X113101190Y-97559523D01*
X113101190Y-97511904D01*
X113053571Y-97416666D01*
X112958333Y-97369047D01*
X112815476Y-97369047D01*
X112720238Y-97321428D01*
X112672619Y-97226190D01*
X112672619Y-97178571D01*
X112720238Y-97083333D01*
X112815476Y-97035714D01*
X112958333Y-97035714D01*
X113053571Y-97083333D01*
X113386904Y-97035714D02*
X113767857Y-97035714D01*
X113529761Y-96702380D02*
X113529761Y-97559523D01*
X113577380Y-97654761D01*
X113672619Y-97702380D01*
X113767857Y-97702380D01*
X114101190Y-97702380D02*
X114101190Y-97035714D01*
X114101190Y-97226190D02*
X114148809Y-97130952D01*
X114196428Y-97083333D01*
X114291666Y-97035714D01*
X114386904Y-97035714D01*
X114720238Y-97702380D02*
X114720238Y-97035714D01*
X114720238Y-96702380D02*
X114672619Y-96750000D01*
X114720238Y-96797619D01*
X114767857Y-96750000D01*
X114720238Y-96702380D01*
X114720238Y-96797619D01*
X115577380Y-97654761D02*
X115482142Y-97702380D01*
X115291666Y-97702380D01*
X115196428Y-97654761D01*
X115148809Y-97559523D01*
X115148809Y-97178571D01*
X115196428Y-97083333D01*
X115291666Y-97035714D01*
X115482142Y-97035714D01*
X115577380Y-97083333D01*
X115625000Y-97178571D01*
X115625000Y-97273809D01*
X115148809Y-97369047D01*
X116005952Y-97654761D02*
X116101190Y-97702380D01*
X116291666Y-97702380D01*
X116386904Y-97654761D01*
X116434523Y-97559523D01*
X116434523Y-97511904D01*
X116386904Y-97416666D01*
X116291666Y-97369047D01*
X116148809Y-97369047D01*
X116053571Y-97321428D01*
X116005952Y-97226190D01*
X116005952Y-97178571D01*
X116053571Y-97083333D01*
X116148809Y-97035714D01*
X116291666Y-97035714D01*
X116386904Y-97083333D01*
X101791666Y-98452380D02*
X102363095Y-98452380D01*
X102077380Y-99452380D02*
X102077380Y-98452380D01*
X102696428Y-99452380D02*
X102696428Y-98785714D01*
X102696428Y-98976190D02*
X102744047Y-98880952D01*
X102791666Y-98833333D01*
X102886904Y-98785714D01*
X102982142Y-98785714D01*
X103315476Y-99452380D02*
X103315476Y-98785714D01*
X103315476Y-98452380D02*
X103267857Y-98500000D01*
X103315476Y-98547619D01*
X103363095Y-98500000D01*
X103315476Y-98452380D01*
X103315476Y-98547619D01*
X103791666Y-98785714D02*
X103791666Y-99785714D01*
X103791666Y-98833333D02*
X103886904Y-98785714D01*
X104077380Y-98785714D01*
X104172619Y-98833333D01*
X104220238Y-98880952D01*
X104267857Y-98976190D01*
X104267857Y-99261904D01*
X104220238Y-99357142D01*
X104172619Y-99404761D01*
X104077380Y-99452380D01*
X103886904Y-99452380D01*
X103791666Y-99404761D01*
X104839285Y-99452380D02*
X104744047Y-99404761D01*
X104696428Y-99309523D01*
X104696428Y-98452380D01*
X105601190Y-99404761D02*
X105505952Y-99452380D01*
X105315476Y-99452380D01*
X105220238Y-99404761D01*
X105172619Y-99309523D01*
X105172619Y-98928571D01*
X105220238Y-98833333D01*
X105315476Y-98785714D01*
X105505952Y-98785714D01*
X105601190Y-98833333D01*
X105648809Y-98928571D01*
X105648809Y-99023809D01*
X105172619Y-99119047D01*
X106077380Y-99452380D02*
X106077380Y-98785714D01*
X106077380Y-98976190D02*
X106125000Y-98880952D01*
X106172619Y-98833333D01*
X106267857Y-98785714D01*
X106363095Y-98785714D01*
X107315476Y-98785714D02*
X107696428Y-98785714D01*
X107458333Y-98452380D02*
X107458333Y-99309523D01*
X107505952Y-99404761D01*
X107601190Y-99452380D01*
X107696428Y-99452380D01*
X108410714Y-99404761D02*
X108315476Y-99452380D01*
X108125000Y-99452380D01*
X108029761Y-99404761D01*
X107982142Y-99309523D01*
X107982142Y-98928571D01*
X108029761Y-98833333D01*
X108125000Y-98785714D01*
X108315476Y-98785714D01*
X108410714Y-98833333D01*
X108458333Y-98928571D01*
X108458333Y-99023809D01*
X107982142Y-99119047D01*
X108839285Y-99404761D02*
X108934523Y-99452380D01*
X109125000Y-99452380D01*
X109220238Y-99404761D01*
X109267857Y-99309523D01*
X109267857Y-99261904D01*
X109220238Y-99166666D01*
X109125000Y-99119047D01*
X108982142Y-99119047D01*
X108886904Y-99071428D01*
X108839285Y-98976190D01*
X108839285Y-98928571D01*
X108886904Y-98833333D01*
X108982142Y-98785714D01*
X109125000Y-98785714D01*
X109220238Y-98833333D01*
X109553571Y-98785714D02*
X109934523Y-98785714D01*
X109696428Y-98452380D02*
X109696428Y-99309523D01*
X109744047Y-99404761D01*
X109839285Y-99452380D01*
X109934523Y-99452380D01*
X111458333Y-99404761D02*
X111363095Y-99452380D01*
X111172619Y-99452380D01*
X111077380Y-99404761D01*
X111029761Y-99357142D01*
X110982142Y-99261904D01*
X110982142Y-98976190D01*
X111029761Y-98880952D01*
X111077380Y-98833333D01*
X111172619Y-98785714D01*
X111363095Y-98785714D01*
X111458333Y-98833333D01*
X111886904Y-99452380D02*
X111886904Y-98785714D01*
X111886904Y-98452380D02*
X111839285Y-98500000D01*
X111886904Y-98547619D01*
X111934523Y-98500000D01*
X111886904Y-98452380D01*
X111886904Y-98547619D01*
X112363095Y-99452380D02*
X112363095Y-98785714D01*
X112363095Y-98976190D02*
X112410714Y-98880952D01*
X112458333Y-98833333D01*
X112553571Y-98785714D01*
X112648809Y-98785714D01*
X113410714Y-99404761D02*
X113315476Y-99452380D01*
X113125000Y-99452380D01*
X113029761Y-99404761D01*
X112982142Y-99357142D01*
X112934523Y-99261904D01*
X112934523Y-98976190D01*
X112982142Y-98880952D01*
X113029761Y-98833333D01*
X113125000Y-98785714D01*
X113315476Y-98785714D01*
X113410714Y-98833333D01*
X114267857Y-98785714D02*
X114267857Y-99452380D01*
X113839285Y-98785714D02*
X113839285Y-99309523D01*
X113886904Y-99404761D01*
X113982142Y-99452380D01*
X114125000Y-99452380D01*
X114220238Y-99404761D01*
X114267857Y-99357142D01*
X114744047Y-99452380D02*
X114744047Y-98785714D01*
X114744047Y-98452380D02*
X114696428Y-98500000D01*
X114744047Y-98547619D01*
X114791666Y-98500000D01*
X114744047Y-98452380D01*
X114744047Y-98547619D01*
X115077380Y-98785714D02*
X115458333Y-98785714D01*
X115220238Y-98452380D02*
X115220238Y-99309523D01*
X115267857Y-99404761D01*
X115363095Y-99452380D01*
X115458333Y-99452380D01*
X105339285Y-100297619D02*
X105386904Y-100250000D01*
X105482142Y-100202380D01*
X105720238Y-100202380D01*
X105815476Y-100250000D01*
X105863095Y-100297619D01*
X105910714Y-100392857D01*
X105910714Y-100488095D01*
X105863095Y-100630952D01*
X105291666Y-101202380D01*
X105910714Y-101202380D01*
X106529761Y-100202380D02*
X106625000Y-100202380D01*
X106720238Y-100250000D01*
X106767857Y-100297619D01*
X106815476Y-100392857D01*
X106863095Y-100583333D01*
X106863095Y-100821428D01*
X106815476Y-101011904D01*
X106767857Y-101107142D01*
X106720238Y-101154761D01*
X106625000Y-101202380D01*
X106529761Y-101202380D01*
X106434523Y-101154761D01*
X106386904Y-101107142D01*
X106339285Y-101011904D01*
X106291666Y-100821428D01*
X106291666Y-100583333D01*
X106339285Y-100392857D01*
X106386904Y-100297619D01*
X106434523Y-100250000D01*
X106529761Y-100202380D01*
X107815476Y-101202380D02*
X107244047Y-101202380D01*
X107529761Y-101202380D02*
X107529761Y-100202380D01*
X107434523Y-100345238D01*
X107339285Y-100440476D01*
X107244047Y-100488095D01*
X108291666Y-101202380D02*
X108482142Y-101202380D01*
X108577380Y-101154761D01*
X108625000Y-101107142D01*
X108720238Y-100964285D01*
X108767857Y-100773809D01*
X108767857Y-100392857D01*
X108720238Y-100297619D01*
X108672619Y-100250000D01*
X108577380Y-100202380D01*
X108386904Y-100202380D01*
X108291666Y-100250000D01*
X108244047Y-100297619D01*
X108196428Y-100392857D01*
X108196428Y-100630952D01*
X108244047Y-100726190D01*
X108291666Y-100773809D01*
X108386904Y-100821428D01*
X108577380Y-100821428D01*
X108672619Y-100773809D01*
X108720238Y-100726190D01*
X108767857Y-100630952D01*
X109196428Y-100821428D02*
X109958333Y-100821428D01*
X110625000Y-100202380D02*
X110720238Y-100202380D01*
X110815476Y-100250000D01*
X110863095Y-100297619D01*
X110910714Y-100392857D01*
X110958333Y-100583333D01*
X110958333Y-100821428D01*
X110910714Y-101011904D01*
X110863095Y-101107142D01*
X110815476Y-101154761D01*
X110720238Y-101202380D01*
X110625000Y-101202380D01*
X110529761Y-101154761D01*
X110482142Y-101107142D01*
X110434523Y-101011904D01*
X110386904Y-100821428D01*
X110386904Y-100583333D01*
X110434523Y-100392857D01*
X110482142Y-100297619D01*
X110529761Y-100250000D01*
X110625000Y-100202380D01*
X111863095Y-100202380D02*
X111386904Y-100202380D01*
X111339285Y-100678571D01*
X111386904Y-100630952D01*
X111482142Y-100583333D01*
X111720238Y-100583333D01*
X111815476Y-100630952D01*
X111863095Y-100678571D01*
X111910714Y-100773809D01*
X111910714Y-101011904D01*
X111863095Y-101107142D01*
X111815476Y-101154761D01*
X111720238Y-101202380D01*
X111482142Y-101202380D01*
X111386904Y-101154761D01*
X111339285Y-101107142D01*
D12*
X152000000Y-82000000D02*
X100000000Y-82000000D01*
X152000000Y-102000000D02*
X152000000Y-82000000D01*
X100000000Y-102000000D02*
X152000000Y-102000000D01*
X100000000Y-82000000D02*
X100000000Y-102000000D01*
D13*
G04 #@! TO.C,U1*
X130075000Y-89215000D02*
X130075000Y-95565000D01*
X130075000Y-95565000D02*
X122205000Y-95565000D01*
X122205000Y-95565000D02*
X122205000Y-89215000D01*
X122205000Y-89215000D02*
X130075000Y-89215000D01*
X124018688Y-90850000D02*
G75*
G03X124018688Y-90850000I-418688J0D01*
G01*
X123736158Y-94460000D02*
G75*
G03X123736158Y-94460000I-76158J0D01*
G01*
G04 #@! TO.C,CON1*
X101440000Y-86070000D02*
X101440000Y-92720000D01*
X101440000Y-92720000D02*
X108020000Y-92720000D01*
X108020000Y-92720000D02*
X108020000Y-86080000D01*
X108020000Y-86080000D02*
X101420000Y-86080000D01*
G04 #@! TO.C,CON2*
X150990000Y-92070000D02*
X144390000Y-92070000D01*
X150990000Y-98710000D02*
X150990000Y-92070000D01*
X144410000Y-98710000D02*
X150990000Y-98710000D01*
X144410000Y-92060000D02*
X144410000Y-98710000D01*
G04 #@! TO.C,U3*
X133530000Y-94580000D02*
X133530000Y-96180000D01*
X133530000Y-96180000D02*
X136730000Y-96180000D01*
X136730000Y-96180000D02*
X136730000Y-94580000D01*
X136730000Y-94580000D02*
X133530000Y-94580000D01*
X133992111Y-95390000D02*
G75*
G03X133992111Y-95390000I-72111J0D01*
G01*
G04 #@! TO.C,U5*
X139712111Y-95380000D02*
G75*
G03X139712111Y-95380000I-72111J0D01*
G01*
X142450000Y-94570000D02*
X139250000Y-94570000D01*
X142450000Y-96170000D02*
X142450000Y-94570000D01*
X139250000Y-96170000D02*
X142450000Y-96170000D01*
X139250000Y-94570000D02*
X139250000Y-96170000D01*
D14*
G04 #@! TO.C,C2*
X114475000Y-85350000D02*
X115175000Y-85350000D01*
X115175000Y-86550000D02*
X114475000Y-86550000D01*
G04 #@! TO.C,R1*
X111345000Y-87500000D02*
X111345000Y-86500000D01*
X112705000Y-86500000D02*
X112705000Y-87500000D01*
G04 #@! TO.C,R2*
X116180000Y-91600000D02*
X116180000Y-91100000D01*
X115120000Y-91100000D02*
X115120000Y-91600000D01*
D13*
G04 #@! TO.C,U2*
X112731023Y-88940000D02*
G75*
G03X112731023Y-88940000I-86023J0D01*
G01*
X112125000Y-90650000D02*
X114125000Y-90650000D01*
X114125000Y-90650000D02*
X114125000Y-88650000D01*
X114125000Y-88650000D02*
X112125000Y-88650000D01*
X112125000Y-88650000D02*
X112125000Y-90650000D01*
D14*
G04 #@! TO.C,J1*
X142554000Y-87690000D02*
X142554000Y-85030000D01*
X139954000Y-87690000D02*
X142554000Y-87690000D01*
X139954000Y-85030000D02*
X142554000Y-85030000D01*
X139954000Y-87690000D02*
X139954000Y-85030000D01*
X138684000Y-87690000D02*
X137354000Y-87690000D01*
X137354000Y-87690000D02*
X137354000Y-86360000D01*
G04 #@! TD*
G04 #@! TO.C,U3*
D15*
X132545714Y-94755714D02*
X132545714Y-95055714D01*
X132545714Y-94770000D02*
X132574285Y-94755714D01*
X132631428Y-94755714D01*
X132660000Y-94770000D01*
X132674285Y-94784285D01*
X132688571Y-94812857D01*
X132688571Y-94898571D01*
X132674285Y-94927142D01*
X132660000Y-94941428D01*
X132631428Y-94955714D01*
X132574285Y-94955714D01*
X132545714Y-94941428D01*
X132817142Y-94955714D02*
X132817142Y-94755714D01*
X132817142Y-94655714D02*
X132802857Y-94670000D01*
X132817142Y-94684285D01*
X132831428Y-94670000D01*
X132817142Y-94655714D01*
X132817142Y-94684285D01*
X132960000Y-94755714D02*
X132960000Y-94955714D01*
X132960000Y-94784285D02*
X132974285Y-94770000D01*
X133002857Y-94755714D01*
X133045714Y-94755714D01*
X133074285Y-94770000D01*
X133088571Y-94798571D01*
X133088571Y-94955714D01*
X133388571Y-94955714D02*
X133217142Y-94955714D01*
X133302857Y-94955714D02*
X133302857Y-94655714D01*
X133274285Y-94698571D01*
X133245714Y-94727142D01*
X133217142Y-94741428D01*
G04 #@! TO.C,U5*
X138265714Y-94745714D02*
X138265714Y-95045714D01*
X138265714Y-94760000D02*
X138294285Y-94745714D01*
X138351428Y-94745714D01*
X138380000Y-94760000D01*
X138394285Y-94774285D01*
X138408571Y-94802857D01*
X138408571Y-94888571D01*
X138394285Y-94917142D01*
X138380000Y-94931428D01*
X138351428Y-94945714D01*
X138294285Y-94945714D01*
X138265714Y-94931428D01*
X138537142Y-94945714D02*
X138537142Y-94745714D01*
X138537142Y-94645714D02*
X138522857Y-94660000D01*
X138537142Y-94674285D01*
X138551428Y-94660000D01*
X138537142Y-94645714D01*
X138537142Y-94674285D01*
X138680000Y-94745714D02*
X138680000Y-94945714D01*
X138680000Y-94774285D02*
X138694285Y-94760000D01*
X138722857Y-94745714D01*
X138765714Y-94745714D01*
X138794285Y-94760000D01*
X138808571Y-94788571D01*
X138808571Y-94945714D01*
X139108571Y-94945714D02*
X138937142Y-94945714D01*
X139022857Y-94945714D02*
X139022857Y-94645714D01*
X138994285Y-94688571D01*
X138965714Y-94717142D01*
X138937142Y-94731428D01*
G04 #@! TD*
M02*
