G04 #@! TF.GenerationSoftware,KiCad,Pcbnew,(5.0.1)-4*
G04 #@! TF.CreationDate,2019-05-20T12:55:45-07:00*
G04 #@! TF.ProjectId,Tripler_circuit,547269706C65725F636972637569742E,rev?*
G04 #@! TF.SameCoordinates,Original*
G04 #@! TF.FileFunction,Paste,Top*
G04 #@! TF.FilePolarity,Positive*
%FSLAX46Y46*%
G04 Gerber Fmt 4.6, Leading zero omitted, Abs format (unit mm)*
G04 Created by KiCad (PCBNEW (5.0.1)-4) date 5/20/2019 12:55:45 PM*
%MOMM*%
%LPD*%
G01*
G04 APERTURE LIST*
%ADD10R,1.520000X1.650000*%
%ADD11C,0.200000*%
%ADD12C,0.318000*%
%ADD13R,1.900000X1.900000*%
%ADD14R,1.500000X1.500000*%
%ADD15R,0.990000X0.610000*%
%ADD16R,1.750000X0.990000*%
%ADD17R,0.800000X0.750000*%
%ADD18C,0.590000*%
%ADD19R,0.900000X0.500000*%
%ADD20R,0.600000X0.400000*%
%ADD21R,0.670000X0.300000*%
%ADD22R,0.700000X1.600000*%
G04 APERTURE END LIST*
D10*
G04 #@! TO.C,U1*
X123600000Y-89405000D03*
X126140000Y-89405000D03*
X128680000Y-89405000D03*
X128680000Y-95375000D03*
X126140000Y-95375000D03*
X123600000Y-95375000D03*
G04 #@! TD*
D11*
G04 #@! TO.C,C1*
G36*
X110032292Y-89220383D02*
X110040010Y-89221528D01*
X110047578Y-89223423D01*
X110054923Y-89226052D01*
X110061976Y-89229387D01*
X110068668Y-89233398D01*
X110074934Y-89238046D01*
X110080715Y-89243285D01*
X110085954Y-89249066D01*
X110090602Y-89255332D01*
X110094613Y-89262024D01*
X110097948Y-89269077D01*
X110100577Y-89276422D01*
X110102472Y-89283990D01*
X110103617Y-89291708D01*
X110104000Y-89299500D01*
X110104000Y-89500500D01*
X110103617Y-89508292D01*
X110102472Y-89516010D01*
X110100577Y-89523578D01*
X110097948Y-89530923D01*
X110094613Y-89537976D01*
X110090602Y-89544668D01*
X110085954Y-89550934D01*
X110080715Y-89556715D01*
X110074934Y-89561954D01*
X110068668Y-89566602D01*
X110061976Y-89570613D01*
X110054923Y-89573948D01*
X110047578Y-89576577D01*
X110040010Y-89578472D01*
X110032292Y-89579617D01*
X110024500Y-89580000D01*
X109865500Y-89580000D01*
X109857708Y-89579617D01*
X109849990Y-89578472D01*
X109842422Y-89576577D01*
X109835077Y-89573948D01*
X109828024Y-89570613D01*
X109821332Y-89566602D01*
X109815066Y-89561954D01*
X109809285Y-89556715D01*
X109804046Y-89550934D01*
X109799398Y-89544668D01*
X109795387Y-89537976D01*
X109792052Y-89530923D01*
X109789423Y-89523578D01*
X109787528Y-89516010D01*
X109786383Y-89508292D01*
X109786000Y-89500500D01*
X109786000Y-89299500D01*
X109786383Y-89291708D01*
X109787528Y-89283990D01*
X109789423Y-89276422D01*
X109792052Y-89269077D01*
X109795387Y-89262024D01*
X109799398Y-89255332D01*
X109804046Y-89249066D01*
X109809285Y-89243285D01*
X109815066Y-89238046D01*
X109821332Y-89233398D01*
X109828024Y-89229387D01*
X109835077Y-89226052D01*
X109842422Y-89223423D01*
X109849990Y-89221528D01*
X109857708Y-89220383D01*
X109865500Y-89220000D01*
X110024500Y-89220000D01*
X110032292Y-89220383D01*
X110032292Y-89220383D01*
G37*
D12*
X109945000Y-89400000D03*
D11*
G36*
X109342292Y-89220383D02*
X109350010Y-89221528D01*
X109357578Y-89223423D01*
X109364923Y-89226052D01*
X109371976Y-89229387D01*
X109378668Y-89233398D01*
X109384934Y-89238046D01*
X109390715Y-89243285D01*
X109395954Y-89249066D01*
X109400602Y-89255332D01*
X109404613Y-89262024D01*
X109407948Y-89269077D01*
X109410577Y-89276422D01*
X109412472Y-89283990D01*
X109413617Y-89291708D01*
X109414000Y-89299500D01*
X109414000Y-89500500D01*
X109413617Y-89508292D01*
X109412472Y-89516010D01*
X109410577Y-89523578D01*
X109407948Y-89530923D01*
X109404613Y-89537976D01*
X109400602Y-89544668D01*
X109395954Y-89550934D01*
X109390715Y-89556715D01*
X109384934Y-89561954D01*
X109378668Y-89566602D01*
X109371976Y-89570613D01*
X109364923Y-89573948D01*
X109357578Y-89576577D01*
X109350010Y-89578472D01*
X109342292Y-89579617D01*
X109334500Y-89580000D01*
X109175500Y-89580000D01*
X109167708Y-89579617D01*
X109159990Y-89578472D01*
X109152422Y-89576577D01*
X109145077Y-89573948D01*
X109138024Y-89570613D01*
X109131332Y-89566602D01*
X109125066Y-89561954D01*
X109119285Y-89556715D01*
X109114046Y-89550934D01*
X109109398Y-89544668D01*
X109105387Y-89537976D01*
X109102052Y-89530923D01*
X109099423Y-89523578D01*
X109097528Y-89516010D01*
X109096383Y-89508292D01*
X109096000Y-89500500D01*
X109096000Y-89299500D01*
X109096383Y-89291708D01*
X109097528Y-89283990D01*
X109099423Y-89276422D01*
X109102052Y-89269077D01*
X109105387Y-89262024D01*
X109109398Y-89255332D01*
X109114046Y-89249066D01*
X109119285Y-89243285D01*
X109125066Y-89238046D01*
X109131332Y-89233398D01*
X109138024Y-89229387D01*
X109145077Y-89226052D01*
X109152422Y-89223423D01*
X109159990Y-89221528D01*
X109167708Y-89220383D01*
X109175500Y-89220000D01*
X109334500Y-89220000D01*
X109342292Y-89220383D01*
X109342292Y-89220383D01*
G37*
D12*
X109255000Y-89400000D03*
G04 #@! TD*
D13*
G04 #@! TO.C,CON1*
X107105000Y-87015000D03*
X107105000Y-91765000D03*
X102355000Y-91765000D03*
X102355000Y-87015000D03*
D14*
X104730000Y-89390000D03*
G04 #@! TD*
G04 #@! TO.C,CON2*
X147700000Y-95380000D03*
D13*
X145325000Y-93005000D03*
X145325000Y-97755000D03*
X150075000Y-97755000D03*
X150075000Y-93005000D03*
G04 #@! TD*
D15*
G04 #@! TO.C,U3*
X133315000Y-95380000D03*
D16*
X135130000Y-96395000D03*
D15*
X136945000Y-95380000D03*
D16*
X135130000Y-94365000D03*
G04 #@! TD*
G04 #@! TO.C,U5*
X140850000Y-94355000D03*
D15*
X142665000Y-95370000D03*
D16*
X140850000Y-96385000D03*
D15*
X139035000Y-95370000D03*
G04 #@! TD*
D17*
G04 #@! TO.C,C2*
X114075000Y-85950000D03*
X115575000Y-85950000D03*
G04 #@! TD*
D11*
G04 #@! TO.C,C3*
G36*
X110342292Y-84870383D02*
X110350010Y-84871528D01*
X110357578Y-84873423D01*
X110364923Y-84876052D01*
X110371976Y-84879387D01*
X110378668Y-84883398D01*
X110384934Y-84888046D01*
X110390715Y-84893285D01*
X110395954Y-84899066D01*
X110400602Y-84905332D01*
X110404613Y-84912024D01*
X110407948Y-84919077D01*
X110410577Y-84926422D01*
X110412472Y-84933990D01*
X110413617Y-84941708D01*
X110414000Y-84949500D01*
X110414000Y-85150500D01*
X110413617Y-85158292D01*
X110412472Y-85166010D01*
X110410577Y-85173578D01*
X110407948Y-85180923D01*
X110404613Y-85187976D01*
X110400602Y-85194668D01*
X110395954Y-85200934D01*
X110390715Y-85206715D01*
X110384934Y-85211954D01*
X110378668Y-85216602D01*
X110371976Y-85220613D01*
X110364923Y-85223948D01*
X110357578Y-85226577D01*
X110350010Y-85228472D01*
X110342292Y-85229617D01*
X110334500Y-85230000D01*
X110175500Y-85230000D01*
X110167708Y-85229617D01*
X110159990Y-85228472D01*
X110152422Y-85226577D01*
X110145077Y-85223948D01*
X110138024Y-85220613D01*
X110131332Y-85216602D01*
X110125066Y-85211954D01*
X110119285Y-85206715D01*
X110114046Y-85200934D01*
X110109398Y-85194668D01*
X110105387Y-85187976D01*
X110102052Y-85180923D01*
X110099423Y-85173578D01*
X110097528Y-85166010D01*
X110096383Y-85158292D01*
X110096000Y-85150500D01*
X110096000Y-84949500D01*
X110096383Y-84941708D01*
X110097528Y-84933990D01*
X110099423Y-84926422D01*
X110102052Y-84919077D01*
X110105387Y-84912024D01*
X110109398Y-84905332D01*
X110114046Y-84899066D01*
X110119285Y-84893285D01*
X110125066Y-84888046D01*
X110131332Y-84883398D01*
X110138024Y-84879387D01*
X110145077Y-84876052D01*
X110152422Y-84873423D01*
X110159990Y-84871528D01*
X110167708Y-84870383D01*
X110175500Y-84870000D01*
X110334500Y-84870000D01*
X110342292Y-84870383D01*
X110342292Y-84870383D01*
G37*
D12*
X110255000Y-85050000D03*
D11*
G36*
X111032292Y-84870383D02*
X111040010Y-84871528D01*
X111047578Y-84873423D01*
X111054923Y-84876052D01*
X111061976Y-84879387D01*
X111068668Y-84883398D01*
X111074934Y-84888046D01*
X111080715Y-84893285D01*
X111085954Y-84899066D01*
X111090602Y-84905332D01*
X111094613Y-84912024D01*
X111097948Y-84919077D01*
X111100577Y-84926422D01*
X111102472Y-84933990D01*
X111103617Y-84941708D01*
X111104000Y-84949500D01*
X111104000Y-85150500D01*
X111103617Y-85158292D01*
X111102472Y-85166010D01*
X111100577Y-85173578D01*
X111097948Y-85180923D01*
X111094613Y-85187976D01*
X111090602Y-85194668D01*
X111085954Y-85200934D01*
X111080715Y-85206715D01*
X111074934Y-85211954D01*
X111068668Y-85216602D01*
X111061976Y-85220613D01*
X111054923Y-85223948D01*
X111047578Y-85226577D01*
X111040010Y-85228472D01*
X111032292Y-85229617D01*
X111024500Y-85230000D01*
X110865500Y-85230000D01*
X110857708Y-85229617D01*
X110849990Y-85228472D01*
X110842422Y-85226577D01*
X110835077Y-85223948D01*
X110828024Y-85220613D01*
X110821332Y-85216602D01*
X110815066Y-85211954D01*
X110809285Y-85206715D01*
X110804046Y-85200934D01*
X110799398Y-85194668D01*
X110795387Y-85187976D01*
X110792052Y-85180923D01*
X110789423Y-85173578D01*
X110787528Y-85166010D01*
X110786383Y-85158292D01*
X110786000Y-85150500D01*
X110786000Y-84949500D01*
X110786383Y-84941708D01*
X110787528Y-84933990D01*
X110789423Y-84926422D01*
X110792052Y-84919077D01*
X110795387Y-84912024D01*
X110799398Y-84905332D01*
X110804046Y-84899066D01*
X110809285Y-84893285D01*
X110815066Y-84888046D01*
X110821332Y-84883398D01*
X110828024Y-84879387D01*
X110835077Y-84876052D01*
X110842422Y-84873423D01*
X110849990Y-84871528D01*
X110857708Y-84870383D01*
X110865500Y-84870000D01*
X111024500Y-84870000D01*
X111032292Y-84870383D01*
X111032292Y-84870383D01*
G37*
D12*
X110945000Y-85050000D03*
G04 #@! TD*
D11*
G04 #@! TO.C,C4*
G36*
X115092292Y-87020383D02*
X115100010Y-87021528D01*
X115107578Y-87023423D01*
X115114923Y-87026052D01*
X115121976Y-87029387D01*
X115128668Y-87033398D01*
X115134934Y-87038046D01*
X115140715Y-87043285D01*
X115145954Y-87049066D01*
X115150602Y-87055332D01*
X115154613Y-87062024D01*
X115157948Y-87069077D01*
X115160577Y-87076422D01*
X115162472Y-87083990D01*
X115163617Y-87091708D01*
X115164000Y-87099500D01*
X115164000Y-87300500D01*
X115163617Y-87308292D01*
X115162472Y-87316010D01*
X115160577Y-87323578D01*
X115157948Y-87330923D01*
X115154613Y-87337976D01*
X115150602Y-87344668D01*
X115145954Y-87350934D01*
X115140715Y-87356715D01*
X115134934Y-87361954D01*
X115128668Y-87366602D01*
X115121976Y-87370613D01*
X115114923Y-87373948D01*
X115107578Y-87376577D01*
X115100010Y-87378472D01*
X115092292Y-87379617D01*
X115084500Y-87380000D01*
X114925500Y-87380000D01*
X114917708Y-87379617D01*
X114909990Y-87378472D01*
X114902422Y-87376577D01*
X114895077Y-87373948D01*
X114888024Y-87370613D01*
X114881332Y-87366602D01*
X114875066Y-87361954D01*
X114869285Y-87356715D01*
X114864046Y-87350934D01*
X114859398Y-87344668D01*
X114855387Y-87337976D01*
X114852052Y-87330923D01*
X114849423Y-87323578D01*
X114847528Y-87316010D01*
X114846383Y-87308292D01*
X114846000Y-87300500D01*
X114846000Y-87099500D01*
X114846383Y-87091708D01*
X114847528Y-87083990D01*
X114849423Y-87076422D01*
X114852052Y-87069077D01*
X114855387Y-87062024D01*
X114859398Y-87055332D01*
X114864046Y-87049066D01*
X114869285Y-87043285D01*
X114875066Y-87038046D01*
X114881332Y-87033398D01*
X114888024Y-87029387D01*
X114895077Y-87026052D01*
X114902422Y-87023423D01*
X114909990Y-87021528D01*
X114917708Y-87020383D01*
X114925500Y-87020000D01*
X115084500Y-87020000D01*
X115092292Y-87020383D01*
X115092292Y-87020383D01*
G37*
D12*
X115005000Y-87200000D03*
D11*
G36*
X115782292Y-87020383D02*
X115790010Y-87021528D01*
X115797578Y-87023423D01*
X115804923Y-87026052D01*
X115811976Y-87029387D01*
X115818668Y-87033398D01*
X115824934Y-87038046D01*
X115830715Y-87043285D01*
X115835954Y-87049066D01*
X115840602Y-87055332D01*
X115844613Y-87062024D01*
X115847948Y-87069077D01*
X115850577Y-87076422D01*
X115852472Y-87083990D01*
X115853617Y-87091708D01*
X115854000Y-87099500D01*
X115854000Y-87300500D01*
X115853617Y-87308292D01*
X115852472Y-87316010D01*
X115850577Y-87323578D01*
X115847948Y-87330923D01*
X115844613Y-87337976D01*
X115840602Y-87344668D01*
X115835954Y-87350934D01*
X115830715Y-87356715D01*
X115824934Y-87361954D01*
X115818668Y-87366602D01*
X115811976Y-87370613D01*
X115804923Y-87373948D01*
X115797578Y-87376577D01*
X115790010Y-87378472D01*
X115782292Y-87379617D01*
X115774500Y-87380000D01*
X115615500Y-87380000D01*
X115607708Y-87379617D01*
X115599990Y-87378472D01*
X115592422Y-87376577D01*
X115585077Y-87373948D01*
X115578024Y-87370613D01*
X115571332Y-87366602D01*
X115565066Y-87361954D01*
X115559285Y-87356715D01*
X115554046Y-87350934D01*
X115549398Y-87344668D01*
X115545387Y-87337976D01*
X115542052Y-87330923D01*
X115539423Y-87323578D01*
X115537528Y-87316010D01*
X115536383Y-87308292D01*
X115536000Y-87300500D01*
X115536000Y-87099500D01*
X115536383Y-87091708D01*
X115537528Y-87083990D01*
X115539423Y-87076422D01*
X115542052Y-87069077D01*
X115545387Y-87062024D01*
X115549398Y-87055332D01*
X115554046Y-87049066D01*
X115559285Y-87043285D01*
X115565066Y-87038046D01*
X115571332Y-87033398D01*
X115578024Y-87029387D01*
X115585077Y-87026052D01*
X115592422Y-87023423D01*
X115599990Y-87021528D01*
X115607708Y-87020383D01*
X115615500Y-87020000D01*
X115774500Y-87020000D01*
X115782292Y-87020383D01*
X115782292Y-87020383D01*
G37*
D12*
X115695000Y-87200000D03*
G04 #@! TD*
D11*
G04 #@! TO.C,C5*
G36*
X117557292Y-89220383D02*
X117565010Y-89221528D01*
X117572578Y-89223423D01*
X117579923Y-89226052D01*
X117586976Y-89229387D01*
X117593668Y-89233398D01*
X117599934Y-89238046D01*
X117605715Y-89243285D01*
X117610954Y-89249066D01*
X117615602Y-89255332D01*
X117619613Y-89262024D01*
X117622948Y-89269077D01*
X117625577Y-89276422D01*
X117627472Y-89283990D01*
X117628617Y-89291708D01*
X117629000Y-89299500D01*
X117629000Y-89500500D01*
X117628617Y-89508292D01*
X117627472Y-89516010D01*
X117625577Y-89523578D01*
X117622948Y-89530923D01*
X117619613Y-89537976D01*
X117615602Y-89544668D01*
X117610954Y-89550934D01*
X117605715Y-89556715D01*
X117599934Y-89561954D01*
X117593668Y-89566602D01*
X117586976Y-89570613D01*
X117579923Y-89573948D01*
X117572578Y-89576577D01*
X117565010Y-89578472D01*
X117557292Y-89579617D01*
X117549500Y-89580000D01*
X117390500Y-89580000D01*
X117382708Y-89579617D01*
X117374990Y-89578472D01*
X117367422Y-89576577D01*
X117360077Y-89573948D01*
X117353024Y-89570613D01*
X117346332Y-89566602D01*
X117340066Y-89561954D01*
X117334285Y-89556715D01*
X117329046Y-89550934D01*
X117324398Y-89544668D01*
X117320387Y-89537976D01*
X117317052Y-89530923D01*
X117314423Y-89523578D01*
X117312528Y-89516010D01*
X117311383Y-89508292D01*
X117311000Y-89500500D01*
X117311000Y-89299500D01*
X117311383Y-89291708D01*
X117312528Y-89283990D01*
X117314423Y-89276422D01*
X117317052Y-89269077D01*
X117320387Y-89262024D01*
X117324398Y-89255332D01*
X117329046Y-89249066D01*
X117334285Y-89243285D01*
X117340066Y-89238046D01*
X117346332Y-89233398D01*
X117353024Y-89229387D01*
X117360077Y-89226052D01*
X117367422Y-89223423D01*
X117374990Y-89221528D01*
X117382708Y-89220383D01*
X117390500Y-89220000D01*
X117549500Y-89220000D01*
X117557292Y-89220383D01*
X117557292Y-89220383D01*
G37*
D12*
X117470000Y-89400000D03*
D11*
G36*
X116867292Y-89220383D02*
X116875010Y-89221528D01*
X116882578Y-89223423D01*
X116889923Y-89226052D01*
X116896976Y-89229387D01*
X116903668Y-89233398D01*
X116909934Y-89238046D01*
X116915715Y-89243285D01*
X116920954Y-89249066D01*
X116925602Y-89255332D01*
X116929613Y-89262024D01*
X116932948Y-89269077D01*
X116935577Y-89276422D01*
X116937472Y-89283990D01*
X116938617Y-89291708D01*
X116939000Y-89299500D01*
X116939000Y-89500500D01*
X116938617Y-89508292D01*
X116937472Y-89516010D01*
X116935577Y-89523578D01*
X116932948Y-89530923D01*
X116929613Y-89537976D01*
X116925602Y-89544668D01*
X116920954Y-89550934D01*
X116915715Y-89556715D01*
X116909934Y-89561954D01*
X116903668Y-89566602D01*
X116896976Y-89570613D01*
X116889923Y-89573948D01*
X116882578Y-89576577D01*
X116875010Y-89578472D01*
X116867292Y-89579617D01*
X116859500Y-89580000D01*
X116700500Y-89580000D01*
X116692708Y-89579617D01*
X116684990Y-89578472D01*
X116677422Y-89576577D01*
X116670077Y-89573948D01*
X116663024Y-89570613D01*
X116656332Y-89566602D01*
X116650066Y-89561954D01*
X116644285Y-89556715D01*
X116639046Y-89550934D01*
X116634398Y-89544668D01*
X116630387Y-89537976D01*
X116627052Y-89530923D01*
X116624423Y-89523578D01*
X116622528Y-89516010D01*
X116621383Y-89508292D01*
X116621000Y-89500500D01*
X116621000Y-89299500D01*
X116621383Y-89291708D01*
X116622528Y-89283990D01*
X116624423Y-89276422D01*
X116627052Y-89269077D01*
X116630387Y-89262024D01*
X116634398Y-89255332D01*
X116639046Y-89249066D01*
X116644285Y-89243285D01*
X116650066Y-89238046D01*
X116656332Y-89233398D01*
X116663024Y-89229387D01*
X116670077Y-89226052D01*
X116677422Y-89223423D01*
X116684990Y-89221528D01*
X116692708Y-89220383D01*
X116700500Y-89220000D01*
X116859500Y-89220000D01*
X116867292Y-89220383D01*
X116867292Y-89220383D01*
G37*
D12*
X116780000Y-89400000D03*
G04 #@! TD*
D11*
G04 #@! TO.C,L1*
G36*
X115836958Y-88145710D02*
X115851276Y-88147834D01*
X115865317Y-88151351D01*
X115878946Y-88156228D01*
X115892031Y-88162417D01*
X115904447Y-88169858D01*
X115916073Y-88178481D01*
X115926798Y-88188202D01*
X115936519Y-88198927D01*
X115945142Y-88210553D01*
X115952583Y-88222969D01*
X115958772Y-88236054D01*
X115963649Y-88249683D01*
X115967166Y-88263724D01*
X115969290Y-88278042D01*
X115970000Y-88292500D01*
X115970000Y-88587500D01*
X115969290Y-88601958D01*
X115967166Y-88616276D01*
X115963649Y-88630317D01*
X115958772Y-88643946D01*
X115952583Y-88657031D01*
X115945142Y-88669447D01*
X115936519Y-88681073D01*
X115926798Y-88691798D01*
X115916073Y-88701519D01*
X115904447Y-88710142D01*
X115892031Y-88717583D01*
X115878946Y-88723772D01*
X115865317Y-88728649D01*
X115851276Y-88732166D01*
X115836958Y-88734290D01*
X115822500Y-88735000D01*
X115477500Y-88735000D01*
X115463042Y-88734290D01*
X115448724Y-88732166D01*
X115434683Y-88728649D01*
X115421054Y-88723772D01*
X115407969Y-88717583D01*
X115395553Y-88710142D01*
X115383927Y-88701519D01*
X115373202Y-88691798D01*
X115363481Y-88681073D01*
X115354858Y-88669447D01*
X115347417Y-88657031D01*
X115341228Y-88643946D01*
X115336351Y-88630317D01*
X115332834Y-88616276D01*
X115330710Y-88601958D01*
X115330000Y-88587500D01*
X115330000Y-88292500D01*
X115330710Y-88278042D01*
X115332834Y-88263724D01*
X115336351Y-88249683D01*
X115341228Y-88236054D01*
X115347417Y-88222969D01*
X115354858Y-88210553D01*
X115363481Y-88198927D01*
X115373202Y-88188202D01*
X115383927Y-88178481D01*
X115395553Y-88169858D01*
X115407969Y-88162417D01*
X115421054Y-88156228D01*
X115434683Y-88151351D01*
X115448724Y-88147834D01*
X115463042Y-88145710D01*
X115477500Y-88145000D01*
X115822500Y-88145000D01*
X115836958Y-88145710D01*
X115836958Y-88145710D01*
G37*
D18*
X115650000Y-88440000D03*
D11*
G36*
X115836958Y-89115710D02*
X115851276Y-89117834D01*
X115865317Y-89121351D01*
X115878946Y-89126228D01*
X115892031Y-89132417D01*
X115904447Y-89139858D01*
X115916073Y-89148481D01*
X115926798Y-89158202D01*
X115936519Y-89168927D01*
X115945142Y-89180553D01*
X115952583Y-89192969D01*
X115958772Y-89206054D01*
X115963649Y-89219683D01*
X115967166Y-89233724D01*
X115969290Y-89248042D01*
X115970000Y-89262500D01*
X115970000Y-89557500D01*
X115969290Y-89571958D01*
X115967166Y-89586276D01*
X115963649Y-89600317D01*
X115958772Y-89613946D01*
X115952583Y-89627031D01*
X115945142Y-89639447D01*
X115936519Y-89651073D01*
X115926798Y-89661798D01*
X115916073Y-89671519D01*
X115904447Y-89680142D01*
X115892031Y-89687583D01*
X115878946Y-89693772D01*
X115865317Y-89698649D01*
X115851276Y-89702166D01*
X115836958Y-89704290D01*
X115822500Y-89705000D01*
X115477500Y-89705000D01*
X115463042Y-89704290D01*
X115448724Y-89702166D01*
X115434683Y-89698649D01*
X115421054Y-89693772D01*
X115407969Y-89687583D01*
X115395553Y-89680142D01*
X115383927Y-89671519D01*
X115373202Y-89661798D01*
X115363481Y-89651073D01*
X115354858Y-89639447D01*
X115347417Y-89627031D01*
X115341228Y-89613946D01*
X115336351Y-89600317D01*
X115332834Y-89586276D01*
X115330710Y-89571958D01*
X115330000Y-89557500D01*
X115330000Y-89262500D01*
X115330710Y-89248042D01*
X115332834Y-89233724D01*
X115336351Y-89219683D01*
X115341228Y-89206054D01*
X115347417Y-89192969D01*
X115354858Y-89180553D01*
X115363481Y-89168927D01*
X115373202Y-89158202D01*
X115383927Y-89148481D01*
X115395553Y-89139858D01*
X115407969Y-89132417D01*
X115421054Y-89126228D01*
X115434683Y-89121351D01*
X115448724Y-89117834D01*
X115463042Y-89115710D01*
X115477500Y-89115000D01*
X115822500Y-89115000D01*
X115836958Y-89115710D01*
X115836958Y-89115710D01*
G37*
D18*
X115650000Y-89410000D03*
G04 #@! TD*
D19*
G04 #@! TO.C,R1*
X112025000Y-86250000D03*
X112025000Y-87750000D03*
G04 #@! TD*
D20*
G04 #@! TO.C,R2*
X115650000Y-90900000D03*
X115650000Y-91800000D03*
G04 #@! TD*
D21*
G04 #@! TO.C,U2*
X112240000Y-88900000D03*
X112240000Y-89400000D03*
X112240000Y-89900000D03*
X112240000Y-90400000D03*
X114010000Y-90400000D03*
X114010000Y-89900000D03*
X114010000Y-89400000D03*
X114010000Y-88900000D03*
D22*
X113125000Y-89650000D03*
G04 #@! TD*
M02*
