G04 #@! TF.GenerationSoftware,KiCad,Pcbnew,(5.0.1)-4*
G04 #@! TF.CreationDate,2019-05-20T12:55:45-07:00*
G04 #@! TF.ProjectId,Tripler_circuit,547269706C65725F636972637569742E,rev?*
G04 #@! TF.SameCoordinates,Original*
G04 #@! TF.FileFunction,Copper,L3,Inr,Plane*
G04 #@! TF.FilePolarity,Positive*
%FSLAX46Y46*%
G04 Gerber Fmt 4.6, Leading zero omitted, Abs format (unit mm)*
G04 Created by KiCad (PCBNEW (5.0.1)-4) date 5/20/2019 12:55:45 PM*
%MOMM*%
%LPD*%
G01*
G04 APERTURE LIST*
G04 #@! TA.AperFunction,ViaPad*
%ADD10C,0.600000*%
G04 #@! TD*
G04 #@! TA.AperFunction,ViaPad*
%ADD11C,0.350000*%
G04 #@! TD*
G04 #@! TA.AperFunction,ViaPad*
%ADD12R,1.700000X1.700000*%
G04 #@! TD*
G04 #@! TA.AperFunction,ViaPad*
%ADD13O,1.700000X1.700000*%
G04 #@! TD*
G04 #@! TA.AperFunction,ViaPad*
%ADD14C,0.800000*%
G04 #@! TD*
G04 #@! TA.AperFunction,Conductor*
%ADD15C,0.250000*%
G04 #@! TD*
G04 #@! TA.AperFunction,Conductor*
%ADD16C,0.254000*%
G04 #@! TD*
G04 APERTURE END LIST*
D10*
G04 #@! TO.N,GND*
G04 #@! TO.C,U1*
X126140000Y-90890000D03*
X127410000Y-90890000D03*
X128680000Y-90890000D03*
X128680000Y-92390000D03*
X127410000Y-92390000D03*
X126140000Y-92390000D03*
X124870000Y-92390000D03*
X123600000Y-92390000D03*
X123600000Y-93890000D03*
X124870000Y-93890000D03*
X126140000Y-93890000D03*
G04 #@! TD*
G04 #@! TO.N,GND*
G04 #@! TO.C,U3*
X134560000Y-96580000D03*
X135700000Y-96580000D03*
X134560000Y-94180000D03*
X135700000Y-94180000D03*
G04 #@! TD*
G04 #@! TO.N,GND*
G04 #@! TO.C,U5*
X141420000Y-94170000D03*
X140280000Y-94170000D03*
X141420000Y-96570000D03*
X140280000Y-96570000D03*
G04 #@! TD*
D11*
G04 #@! TO.N,GND*
G04 #@! TO.C,U2*
X113125000Y-90290000D03*
X113125000Y-89650000D03*
X113125000Y-89010000D03*
G04 #@! TD*
D12*
G04 #@! TO.N,+5V*
G04 #@! TO.C,J1*
X138684000Y-86360000D03*
D13*
G04 #@! TO.N,GND*
X141224000Y-86360000D03*
G04 #@! TD*
D14*
G04 #@! TO.N,+5V*
X136800000Y-86375000D03*
X135400000Y-86375000D03*
X135400000Y-87650000D03*
X136800000Y-87650000D03*
X136775000Y-89050000D03*
X135425000Y-89050000D03*
X134025000Y-89050000D03*
X134025000Y-87750000D03*
X134025000Y-86425000D03*
X116925000Y-87125000D03*
X116925000Y-86000000D03*
X116900000Y-84750000D03*
X112000000Y-84925000D03*
X112000000Y-83875000D03*
X112875000Y-84400000D03*
G04 #@! TO.N,GND*
X147600000Y-93050000D03*
X150100000Y-95450000D03*
X147625000Y-97675000D03*
X129000000Y-97225000D03*
X126275000Y-97150000D03*
X123625000Y-97150000D03*
X126125000Y-87625000D03*
X102300000Y-89525000D03*
X104625000Y-87100000D03*
X104650000Y-91750000D03*
X141900000Y-88975000D03*
X143175000Y-89000000D03*
X144475000Y-89050000D03*
X144500000Y-87750000D03*
X143225000Y-87700000D03*
X143225000Y-86375000D03*
X144525000Y-86400000D03*
X101525000Y-85125000D03*
X102950000Y-85125000D03*
X104250000Y-85175000D03*
X105475000Y-85175000D03*
X106800000Y-85200000D03*
X108075000Y-85225000D03*
X109200000Y-85900000D03*
X101425000Y-93650000D03*
X102625000Y-93650000D03*
X103825000Y-93625000D03*
X105050000Y-93625000D03*
X106275000Y-93650000D03*
X107400000Y-93650000D03*
X108675000Y-93600000D03*
X109000000Y-92325000D03*
X124825000Y-87650000D03*
X123575000Y-87675000D03*
X127450000Y-87675000D03*
X128650000Y-87675000D03*
X129950000Y-87700000D03*
X124875000Y-97150000D03*
X127600000Y-97225000D03*
X130600000Y-89525000D03*
X130600000Y-91125000D03*
X130650000Y-92425000D03*
X143825000Y-91350000D03*
X145150000Y-91275000D03*
X146500000Y-91325000D03*
X147875000Y-91350000D03*
X149200000Y-91300000D03*
X150575000Y-91300000D03*
X144175000Y-99400000D03*
X145200000Y-99450000D03*
X146475000Y-99475000D03*
X147925000Y-99475000D03*
X149250000Y-99500000D03*
X150600000Y-99475000D03*
X143625000Y-97950000D03*
X143600000Y-92975000D03*
X115675000Y-92850000D03*
X113800000Y-87275000D03*
D11*
X108525000Y-90700000D03*
X109100000Y-90700000D03*
X109725000Y-90700000D03*
X110425000Y-90725000D03*
X111100000Y-91000000D03*
X111550000Y-91375000D03*
X112300000Y-91425000D03*
X113125000Y-91425000D03*
X113875000Y-91450000D03*
X114525000Y-91575000D03*
X114650000Y-92425000D03*
X108325000Y-88050000D03*
X109100000Y-88150000D03*
X109850000Y-88200000D03*
X110700000Y-88200000D03*
X116700000Y-91700000D03*
X116775000Y-90875000D03*
X116775000Y-90450000D03*
X117350000Y-90450000D03*
X118150000Y-90550000D03*
X118900000Y-90650000D03*
X119650000Y-90725000D03*
X120400000Y-90800000D03*
X121100000Y-90950000D03*
X121900000Y-91075000D03*
X121900000Y-91075000D03*
X122550000Y-87775000D03*
X121800000Y-87850000D03*
X121050000Y-87925000D03*
X120325000Y-88025000D03*
X119525000Y-88100000D03*
X118800000Y-88175000D03*
X118225000Y-88200000D03*
X133300000Y-94175000D03*
X132450000Y-94075000D03*
X131600000Y-93975000D03*
X130825000Y-93800000D03*
X129850000Y-93600000D03*
X133175000Y-96500000D03*
X132425000Y-96700000D03*
X131600000Y-96950000D03*
X130850000Y-97050000D03*
X129900000Y-97200000D03*
X136750000Y-94250000D03*
X137575000Y-94250000D03*
X138500000Y-94250000D03*
X139300000Y-94250000D03*
X136725000Y-96575000D03*
X137550000Y-96575000D03*
X138400000Y-96600000D03*
X139225000Y-96600000D03*
X142650000Y-94225000D03*
X143475000Y-94050000D03*
X142350000Y-96625000D03*
X143150000Y-96725000D03*
X144025000Y-96900000D03*
D14*
X110575000Y-93575000D03*
X110525000Y-95950000D03*
X112700000Y-96025000D03*
X112650000Y-94000000D03*
X115600000Y-96150000D03*
X148400000Y-87700000D03*
X148400000Y-84450000D03*
X144125000Y-83625000D03*
X137800000Y-83175000D03*
X133725000Y-83175000D03*
X129575000Y-83175000D03*
X123625000Y-83075000D03*
X123675000Y-85175000D03*
X126925000Y-85175000D03*
X126800000Y-83050000D03*
X130050000Y-85275000D03*
X119800000Y-85175000D03*
X133350000Y-91775000D03*
X136175000Y-91725000D03*
X140000000Y-91775000D03*
X130000000Y-99650000D03*
X126975000Y-99650000D03*
X123775000Y-100725000D03*
X118325000Y-100775000D03*
X120500000Y-93625000D03*
X120550000Y-96200000D03*
X120775000Y-100900000D03*
X118225000Y-98600000D03*
X120550000Y-98650000D03*
X118200000Y-93475000D03*
X118225000Y-96350000D03*
X139825000Y-98750000D03*
X133150000Y-98650000D03*
X133000000Y-101000000D03*
X136350000Y-100900000D03*
X142300000Y-100025000D03*
X136300000Y-98700000D03*
X139875000Y-101000000D03*
G04 #@! TD*
D15*
G04 #@! TO.N,+5V*
X136800000Y-86375000D02*
X135400000Y-86375000D01*
X135400000Y-87650000D02*
X136800000Y-87650000D01*
X136775000Y-89050000D02*
X135425000Y-89050000D01*
X134025000Y-89050000D02*
X134025000Y-87750000D01*
X116925000Y-87125000D02*
X116925000Y-86000000D01*
X112000000Y-84925000D02*
X112000000Y-83875000D01*
G04 #@! TD*
D16*
G04 #@! TO.N,+5V*
G36*
X123038720Y-82197569D02*
X122747569Y-82488720D01*
X122590000Y-82869126D01*
X122590000Y-83280874D01*
X122747569Y-83661280D01*
X123038720Y-83952431D01*
X123419126Y-84110000D01*
X123830874Y-84110000D01*
X124211280Y-83952431D01*
X124502431Y-83661280D01*
X124660000Y-83280874D01*
X124660000Y-82869126D01*
X124502431Y-82488720D01*
X124211280Y-82197569D01*
X124142308Y-82169000D01*
X126222336Y-82169000D01*
X126213720Y-82172569D01*
X125922569Y-82463720D01*
X125765000Y-82844126D01*
X125765000Y-83255874D01*
X125922569Y-83636280D01*
X126213720Y-83927431D01*
X126594126Y-84085000D01*
X127005874Y-84085000D01*
X127386280Y-83927431D01*
X127677431Y-83636280D01*
X127835000Y-83255874D01*
X127835000Y-82844126D01*
X127677431Y-82463720D01*
X127386280Y-82172569D01*
X127377664Y-82169000D01*
X129299114Y-82169000D01*
X128988720Y-82297569D01*
X128697569Y-82588720D01*
X128540000Y-82969126D01*
X128540000Y-83380874D01*
X128697569Y-83761280D01*
X128988720Y-84052431D01*
X129369126Y-84210000D01*
X129780874Y-84210000D01*
X130161280Y-84052431D01*
X130452431Y-83761280D01*
X130610000Y-83380874D01*
X130610000Y-82969126D01*
X130452431Y-82588720D01*
X130161280Y-82297569D01*
X129850886Y-82169000D01*
X133449114Y-82169000D01*
X133138720Y-82297569D01*
X132847569Y-82588720D01*
X132690000Y-82969126D01*
X132690000Y-83380874D01*
X132847569Y-83761280D01*
X133138720Y-84052431D01*
X133519126Y-84210000D01*
X133930874Y-84210000D01*
X134311280Y-84052431D01*
X134602431Y-83761280D01*
X134760000Y-83380874D01*
X134760000Y-82969126D01*
X134602431Y-82588720D01*
X134311280Y-82297569D01*
X134000886Y-82169000D01*
X137524114Y-82169000D01*
X137213720Y-82297569D01*
X136922569Y-82588720D01*
X136765000Y-82969126D01*
X136765000Y-83380874D01*
X136922569Y-83761280D01*
X137213720Y-84052431D01*
X137594126Y-84210000D01*
X138005874Y-84210000D01*
X138386280Y-84052431D01*
X138677431Y-83761280D01*
X138819155Y-83419126D01*
X143090000Y-83419126D01*
X143090000Y-83830874D01*
X143247569Y-84211280D01*
X143538720Y-84502431D01*
X143919126Y-84660000D01*
X144330874Y-84660000D01*
X144711280Y-84502431D01*
X144969585Y-84244126D01*
X147365000Y-84244126D01*
X147365000Y-84655874D01*
X147522569Y-85036280D01*
X147813720Y-85327431D01*
X148194126Y-85485000D01*
X148605874Y-85485000D01*
X148986280Y-85327431D01*
X149277431Y-85036280D01*
X149435000Y-84655874D01*
X149435000Y-84244126D01*
X149277431Y-83863720D01*
X148986280Y-83572569D01*
X148605874Y-83415000D01*
X148194126Y-83415000D01*
X147813720Y-83572569D01*
X147522569Y-83863720D01*
X147365000Y-84244126D01*
X144969585Y-84244126D01*
X145002431Y-84211280D01*
X145160000Y-83830874D01*
X145160000Y-83419126D01*
X145002431Y-83038720D01*
X144711280Y-82747569D01*
X144330874Y-82590000D01*
X143919126Y-82590000D01*
X143538720Y-82747569D01*
X143247569Y-83038720D01*
X143090000Y-83419126D01*
X138819155Y-83419126D01*
X138835000Y-83380874D01*
X138835000Y-82969126D01*
X138677431Y-82588720D01*
X138386280Y-82297569D01*
X138075886Y-82169000D01*
X151765000Y-82169000D01*
X151765000Y-101727000D01*
X140611711Y-101727000D01*
X140752431Y-101586280D01*
X140910000Y-101205874D01*
X140910000Y-100794126D01*
X140752431Y-100413720D01*
X140461280Y-100122569D01*
X140080874Y-99965000D01*
X139669126Y-99965000D01*
X139288720Y-100122569D01*
X138997569Y-100413720D01*
X138840000Y-100794126D01*
X138840000Y-101205874D01*
X138997569Y-101586280D01*
X139138289Y-101727000D01*
X136986711Y-101727000D01*
X137227431Y-101486280D01*
X137385000Y-101105874D01*
X137385000Y-100694126D01*
X137227431Y-100313720D01*
X136936280Y-100022569D01*
X136555874Y-99865000D01*
X136144126Y-99865000D01*
X135763720Y-100022569D01*
X135472569Y-100313720D01*
X135315000Y-100694126D01*
X135315000Y-101105874D01*
X135472569Y-101486280D01*
X135713289Y-101727000D01*
X133736711Y-101727000D01*
X133877431Y-101586280D01*
X134035000Y-101205874D01*
X134035000Y-100794126D01*
X133877431Y-100413720D01*
X133586280Y-100122569D01*
X133205874Y-99965000D01*
X132794126Y-99965000D01*
X132413720Y-100122569D01*
X132122569Y-100413720D01*
X131965000Y-100794126D01*
X131965000Y-101205874D01*
X132122569Y-101586280D01*
X132263289Y-101727000D01*
X124060543Y-101727000D01*
X124361280Y-101602431D01*
X124652431Y-101311280D01*
X124810000Y-100930874D01*
X124810000Y-100519126D01*
X124652431Y-100138720D01*
X124361280Y-99847569D01*
X123980874Y-99690000D01*
X123569126Y-99690000D01*
X123188720Y-99847569D01*
X122897569Y-100138720D01*
X122740000Y-100519126D01*
X122740000Y-100930874D01*
X122897569Y-101311280D01*
X123188720Y-101602431D01*
X123489457Y-101727000D01*
X121411711Y-101727000D01*
X121652431Y-101486280D01*
X121810000Y-101105874D01*
X121810000Y-100694126D01*
X121652431Y-100313720D01*
X121361280Y-100022569D01*
X120980874Y-99865000D01*
X120569126Y-99865000D01*
X120188720Y-100022569D01*
X119897569Y-100313720D01*
X119740000Y-100694126D01*
X119740000Y-101105874D01*
X119897569Y-101486280D01*
X120138289Y-101727000D01*
X118731254Y-101727000D01*
X118911280Y-101652431D01*
X119202431Y-101361280D01*
X119360000Y-100980874D01*
X119360000Y-100569126D01*
X119202431Y-100188720D01*
X118911280Y-99897569D01*
X118530874Y-99740000D01*
X118119126Y-99740000D01*
X117738720Y-99897569D01*
X117447569Y-100188720D01*
X117290000Y-100569126D01*
X117290000Y-100980874D01*
X117447569Y-101361280D01*
X117738720Y-101652431D01*
X117918746Y-101727000D01*
X100203000Y-101727000D01*
X100203000Y-98394126D01*
X117190000Y-98394126D01*
X117190000Y-98805874D01*
X117347569Y-99186280D01*
X117638720Y-99477431D01*
X118019126Y-99635000D01*
X118430874Y-99635000D01*
X118811280Y-99477431D01*
X119102431Y-99186280D01*
X119260000Y-98805874D01*
X119260000Y-98444126D01*
X119515000Y-98444126D01*
X119515000Y-98855874D01*
X119672569Y-99236280D01*
X119963720Y-99527431D01*
X120344126Y-99685000D01*
X120755874Y-99685000D01*
X121136280Y-99527431D01*
X121219585Y-99444126D01*
X125940000Y-99444126D01*
X125940000Y-99855874D01*
X126097569Y-100236280D01*
X126388720Y-100527431D01*
X126769126Y-100685000D01*
X127180874Y-100685000D01*
X127561280Y-100527431D01*
X127852431Y-100236280D01*
X128010000Y-99855874D01*
X128010000Y-99444126D01*
X128965000Y-99444126D01*
X128965000Y-99855874D01*
X129122569Y-100236280D01*
X129413720Y-100527431D01*
X129794126Y-100685000D01*
X130205874Y-100685000D01*
X130586280Y-100527431D01*
X130877431Y-100236280D01*
X131035000Y-99855874D01*
X131035000Y-99444126D01*
X130877431Y-99063720D01*
X130586280Y-98772569D01*
X130205874Y-98615000D01*
X129794126Y-98615000D01*
X129413720Y-98772569D01*
X129122569Y-99063720D01*
X128965000Y-99444126D01*
X128010000Y-99444126D01*
X127852431Y-99063720D01*
X127561280Y-98772569D01*
X127180874Y-98615000D01*
X126769126Y-98615000D01*
X126388720Y-98772569D01*
X126097569Y-99063720D01*
X125940000Y-99444126D01*
X121219585Y-99444126D01*
X121427431Y-99236280D01*
X121585000Y-98855874D01*
X121585000Y-98444126D01*
X132115000Y-98444126D01*
X132115000Y-98855874D01*
X132272569Y-99236280D01*
X132563720Y-99527431D01*
X132944126Y-99685000D01*
X133355874Y-99685000D01*
X133736280Y-99527431D01*
X134027431Y-99236280D01*
X134185000Y-98855874D01*
X134185000Y-98494126D01*
X135265000Y-98494126D01*
X135265000Y-98905874D01*
X135422569Y-99286280D01*
X135713720Y-99577431D01*
X136094126Y-99735000D01*
X136505874Y-99735000D01*
X136886280Y-99577431D01*
X137177431Y-99286280D01*
X137335000Y-98905874D01*
X137335000Y-98544126D01*
X138790000Y-98544126D01*
X138790000Y-98955874D01*
X138947569Y-99336280D01*
X139238720Y-99627431D01*
X139619126Y-99785000D01*
X140030874Y-99785000D01*
X140411280Y-99627431D01*
X140702431Y-99336280D01*
X140860000Y-98955874D01*
X140860000Y-98544126D01*
X140702431Y-98163720D01*
X140411280Y-97872569D01*
X140030874Y-97715000D01*
X139619126Y-97715000D01*
X139238720Y-97872569D01*
X138947569Y-98163720D01*
X138790000Y-98544126D01*
X137335000Y-98544126D01*
X137335000Y-98494126D01*
X137177431Y-98113720D01*
X136886280Y-97822569D01*
X136505874Y-97665000D01*
X136094126Y-97665000D01*
X135713720Y-97822569D01*
X135422569Y-98113720D01*
X135265000Y-98494126D01*
X134185000Y-98494126D01*
X134185000Y-98444126D01*
X134027431Y-98063720D01*
X133736280Y-97772569D01*
X133355874Y-97615000D01*
X132944126Y-97615000D01*
X132563720Y-97772569D01*
X132272569Y-98063720D01*
X132115000Y-98444126D01*
X121585000Y-98444126D01*
X121427431Y-98063720D01*
X121136280Y-97772569D01*
X120755874Y-97615000D01*
X120344126Y-97615000D01*
X119963720Y-97772569D01*
X119672569Y-98063720D01*
X119515000Y-98444126D01*
X119260000Y-98444126D01*
X119260000Y-98394126D01*
X119102431Y-98013720D01*
X118811280Y-97722569D01*
X118430874Y-97565000D01*
X118019126Y-97565000D01*
X117638720Y-97722569D01*
X117347569Y-98013720D01*
X117190000Y-98394126D01*
X100203000Y-98394126D01*
X100203000Y-95744126D01*
X109490000Y-95744126D01*
X109490000Y-96155874D01*
X109647569Y-96536280D01*
X109938720Y-96827431D01*
X110319126Y-96985000D01*
X110730874Y-96985000D01*
X111111280Y-96827431D01*
X111402431Y-96536280D01*
X111560000Y-96155874D01*
X111560000Y-95744126D01*
X111402431Y-95363720D01*
X111111280Y-95072569D01*
X110730874Y-94915000D01*
X110319126Y-94915000D01*
X109938720Y-95072569D01*
X109647569Y-95363720D01*
X109490000Y-95744126D01*
X100203000Y-95744126D01*
X100203000Y-93444126D01*
X100390000Y-93444126D01*
X100390000Y-93855874D01*
X100547569Y-94236280D01*
X100838720Y-94527431D01*
X101219126Y-94685000D01*
X101630874Y-94685000D01*
X102011280Y-94527431D01*
X102025000Y-94513711D01*
X102038720Y-94527431D01*
X102419126Y-94685000D01*
X102830874Y-94685000D01*
X103211280Y-94527431D01*
X103237500Y-94501211D01*
X103238720Y-94502431D01*
X103619126Y-94660000D01*
X104030874Y-94660000D01*
X104411280Y-94502431D01*
X104437500Y-94476211D01*
X104463720Y-94502431D01*
X104844126Y-94660000D01*
X105255874Y-94660000D01*
X105636280Y-94502431D01*
X105650000Y-94488711D01*
X105688720Y-94527431D01*
X106069126Y-94685000D01*
X106480874Y-94685000D01*
X106837500Y-94537281D01*
X107194126Y-94685000D01*
X107605874Y-94685000D01*
X107986280Y-94527431D01*
X108062500Y-94451211D01*
X108088720Y-94477431D01*
X108469126Y-94635000D01*
X108880874Y-94635000D01*
X109261280Y-94477431D01*
X109552431Y-94186280D01*
X109630178Y-93998583D01*
X109697569Y-94161280D01*
X109988720Y-94452431D01*
X110369126Y-94610000D01*
X110780874Y-94610000D01*
X111161280Y-94452431D01*
X111452431Y-94161280D01*
X111604510Y-93794126D01*
X111615000Y-93794126D01*
X111615000Y-94205874D01*
X111772569Y-94586280D01*
X112063720Y-94877431D01*
X112414806Y-95022855D01*
X112113720Y-95147569D01*
X111822569Y-95438720D01*
X111665000Y-95819126D01*
X111665000Y-96230874D01*
X111822569Y-96611280D01*
X112113720Y-96902431D01*
X112494126Y-97060000D01*
X112905874Y-97060000D01*
X113286280Y-96902431D01*
X113577431Y-96611280D01*
X113735000Y-96230874D01*
X113735000Y-95944126D01*
X114565000Y-95944126D01*
X114565000Y-96355874D01*
X114722569Y-96736280D01*
X115013720Y-97027431D01*
X115394126Y-97185000D01*
X115805874Y-97185000D01*
X116186280Y-97027431D01*
X116477431Y-96736280D01*
X116635000Y-96355874D01*
X116635000Y-96144126D01*
X117190000Y-96144126D01*
X117190000Y-96555874D01*
X117347569Y-96936280D01*
X117638720Y-97227431D01*
X118019126Y-97385000D01*
X118430874Y-97385000D01*
X118811280Y-97227431D01*
X119102431Y-96936280D01*
X119260000Y-96555874D01*
X119260000Y-96144126D01*
X119197869Y-95994126D01*
X119515000Y-95994126D01*
X119515000Y-96405874D01*
X119672569Y-96786280D01*
X119963720Y-97077431D01*
X120344126Y-97235000D01*
X120755874Y-97235000D01*
X121136280Y-97077431D01*
X121269585Y-96944126D01*
X122590000Y-96944126D01*
X122590000Y-97355874D01*
X122747569Y-97736280D01*
X123038720Y-98027431D01*
X123419126Y-98185000D01*
X123830874Y-98185000D01*
X124211280Y-98027431D01*
X124250000Y-97988711D01*
X124288720Y-98027431D01*
X124669126Y-98185000D01*
X125080874Y-98185000D01*
X125461280Y-98027431D01*
X125575000Y-97913711D01*
X125688720Y-98027431D01*
X126069126Y-98185000D01*
X126480874Y-98185000D01*
X126861280Y-98027431D01*
X126900000Y-97988711D01*
X127013720Y-98102431D01*
X127394126Y-98260000D01*
X127805874Y-98260000D01*
X128186280Y-98102431D01*
X128300000Y-97988711D01*
X128413720Y-98102431D01*
X128794126Y-98260000D01*
X129205874Y-98260000D01*
X129586280Y-98102431D01*
X129696334Y-97992377D01*
X129738881Y-98010000D01*
X130061119Y-98010000D01*
X130358828Y-97886685D01*
X130474367Y-97771146D01*
X130688881Y-97860000D01*
X131011119Y-97860000D01*
X131308828Y-97736685D01*
X131330433Y-97715080D01*
X131438881Y-97760000D01*
X131761119Y-97760000D01*
X132058828Y-97636685D01*
X132208466Y-97487047D01*
X132263881Y-97510000D01*
X132586119Y-97510000D01*
X132883828Y-97386685D01*
X132976144Y-97294369D01*
X133013881Y-97310000D01*
X133336119Y-97310000D01*
X133633828Y-97186685D01*
X133750806Y-97069707D01*
X133767345Y-97109635D01*
X134030365Y-97372655D01*
X134374017Y-97515000D01*
X134745983Y-97515000D01*
X135089635Y-97372655D01*
X135130000Y-97332290D01*
X135170365Y-97372655D01*
X135514017Y-97515000D01*
X135885983Y-97515000D01*
X136229635Y-97372655D01*
X136318804Y-97283486D01*
X136563881Y-97385000D01*
X136886119Y-97385000D01*
X137137500Y-97280875D01*
X137388881Y-97385000D01*
X137711119Y-97385000D01*
X137944822Y-97288197D01*
X138238881Y-97410000D01*
X138561119Y-97410000D01*
X138812500Y-97305875D01*
X139063881Y-97410000D01*
X139386119Y-97410000D01*
X139677158Y-97289448D01*
X139750365Y-97362655D01*
X140094017Y-97505000D01*
X140465983Y-97505000D01*
X140809635Y-97362655D01*
X140850000Y-97322290D01*
X140890365Y-97362655D01*
X141234017Y-97505000D01*
X141605983Y-97505000D01*
X141949635Y-97362655D01*
X141968553Y-97343737D01*
X142188881Y-97435000D01*
X142511119Y-97435000D01*
X142654922Y-97375435D01*
X142691172Y-97411685D01*
X142722352Y-97424600D01*
X142590000Y-97744126D01*
X142590000Y-98155874D01*
X142747569Y-98536280D01*
X143038720Y-98827431D01*
X143254814Y-98916940D01*
X143140000Y-99194126D01*
X143140000Y-99401289D01*
X142886280Y-99147569D01*
X142505874Y-98990000D01*
X142094126Y-98990000D01*
X141713720Y-99147569D01*
X141422569Y-99438720D01*
X141265000Y-99819126D01*
X141265000Y-100230874D01*
X141422569Y-100611280D01*
X141713720Y-100902431D01*
X142094126Y-101060000D01*
X142505874Y-101060000D01*
X142886280Y-100902431D01*
X143177431Y-100611280D01*
X143335000Y-100230874D01*
X143335000Y-100023711D01*
X143588720Y-100277431D01*
X143969126Y-100435000D01*
X144380874Y-100435000D01*
X144627145Y-100332992D01*
X144994126Y-100485000D01*
X145405874Y-100485000D01*
X145786280Y-100327431D01*
X145825000Y-100288711D01*
X145888720Y-100352431D01*
X146269126Y-100510000D01*
X146680874Y-100510000D01*
X147061280Y-100352431D01*
X147200000Y-100213711D01*
X147338720Y-100352431D01*
X147719126Y-100510000D01*
X148130874Y-100510000D01*
X148511280Y-100352431D01*
X148575000Y-100288711D01*
X148663720Y-100377431D01*
X149044126Y-100535000D01*
X149455874Y-100535000D01*
X149836280Y-100377431D01*
X149937500Y-100276211D01*
X150013720Y-100352431D01*
X150394126Y-100510000D01*
X150805874Y-100510000D01*
X151186280Y-100352431D01*
X151477431Y-100061280D01*
X151635000Y-99680874D01*
X151635000Y-99269126D01*
X151477431Y-98888720D01*
X151186280Y-98597569D01*
X150805874Y-98440000D01*
X150394126Y-98440000D01*
X150013720Y-98597569D01*
X149912500Y-98698789D01*
X149836280Y-98622569D01*
X149455874Y-98465000D01*
X149044126Y-98465000D01*
X148663720Y-98622569D01*
X148600000Y-98686289D01*
X148511280Y-98597569D01*
X148267230Y-98496481D01*
X148502431Y-98261280D01*
X148660000Y-97880874D01*
X148660000Y-97469126D01*
X148502431Y-97088720D01*
X148211280Y-96797569D01*
X147830874Y-96640000D01*
X147419126Y-96640000D01*
X147038720Y-96797569D01*
X146747569Y-97088720D01*
X146590000Y-97469126D01*
X146590000Y-97880874D01*
X146747569Y-98261280D01*
X147038720Y-98552431D01*
X147282770Y-98653519D01*
X147200000Y-98736289D01*
X147061280Y-98597569D01*
X146680874Y-98440000D01*
X146269126Y-98440000D01*
X145888720Y-98597569D01*
X145850000Y-98636289D01*
X145786280Y-98572569D01*
X145405874Y-98415000D01*
X144994126Y-98415000D01*
X144747855Y-98517008D01*
X144545186Y-98433060D01*
X144660000Y-98155874D01*
X144660000Y-97744126D01*
X144562287Y-97508226D01*
X144711685Y-97358828D01*
X144835000Y-97061119D01*
X144835000Y-96738881D01*
X144711685Y-96441172D01*
X144483828Y-96213315D01*
X144186119Y-96090000D01*
X143863881Y-96090000D01*
X143720078Y-96149565D01*
X143608828Y-96038315D01*
X143311119Y-95915000D01*
X142988881Y-95915000D01*
X142845078Y-95974565D01*
X142808828Y-95938315D01*
X142511119Y-95815000D01*
X142188881Y-95815000D01*
X142046335Y-95874045D01*
X141949635Y-95777345D01*
X141605983Y-95635000D01*
X141234017Y-95635000D01*
X140890365Y-95777345D01*
X140850000Y-95817710D01*
X140809635Y-95777345D01*
X140465983Y-95635000D01*
X140094017Y-95635000D01*
X139750365Y-95777345D01*
X139634731Y-95892979D01*
X139386119Y-95790000D01*
X139063881Y-95790000D01*
X138812500Y-95894125D01*
X138561119Y-95790000D01*
X138238881Y-95790000D01*
X138005178Y-95886803D01*
X137711119Y-95765000D01*
X137388881Y-95765000D01*
X137137500Y-95869125D01*
X136886119Y-95765000D01*
X136563881Y-95765000D01*
X136311733Y-95869443D01*
X136229635Y-95787345D01*
X135885983Y-95645000D01*
X135514017Y-95645000D01*
X135170365Y-95787345D01*
X135130000Y-95827710D01*
X135089635Y-95787345D01*
X134745983Y-95645000D01*
X134374017Y-95645000D01*
X134030365Y-95787345D01*
X133819112Y-95998599D01*
X133633828Y-95813315D01*
X133336119Y-95690000D01*
X133013881Y-95690000D01*
X132716172Y-95813315D01*
X132623856Y-95905631D01*
X132586119Y-95890000D01*
X132263881Y-95890000D01*
X131966172Y-96013315D01*
X131816534Y-96162953D01*
X131761119Y-96140000D01*
X131438881Y-96140000D01*
X131141172Y-96263315D01*
X131119567Y-96284920D01*
X131011119Y-96240000D01*
X130688881Y-96240000D01*
X130391172Y-96363315D01*
X130275633Y-96478854D01*
X130061119Y-96390000D01*
X129738881Y-96390000D01*
X129660979Y-96422268D01*
X129586280Y-96347569D01*
X129205874Y-96190000D01*
X128794126Y-96190000D01*
X128413720Y-96347569D01*
X128300000Y-96461289D01*
X128186280Y-96347569D01*
X127805874Y-96190000D01*
X127394126Y-96190000D01*
X127013720Y-96347569D01*
X126975000Y-96386289D01*
X126861280Y-96272569D01*
X126480874Y-96115000D01*
X126069126Y-96115000D01*
X125688720Y-96272569D01*
X125575000Y-96386289D01*
X125461280Y-96272569D01*
X125080874Y-96115000D01*
X124669126Y-96115000D01*
X124288720Y-96272569D01*
X124250000Y-96311289D01*
X124211280Y-96272569D01*
X123830874Y-96115000D01*
X123419126Y-96115000D01*
X123038720Y-96272569D01*
X122747569Y-96563720D01*
X122590000Y-96944126D01*
X121269585Y-96944126D01*
X121427431Y-96786280D01*
X121585000Y-96405874D01*
X121585000Y-95994126D01*
X121427431Y-95613720D01*
X121136280Y-95322569D01*
X120946902Y-95244126D01*
X149065000Y-95244126D01*
X149065000Y-95655874D01*
X149222569Y-96036280D01*
X149513720Y-96327431D01*
X149894126Y-96485000D01*
X150305874Y-96485000D01*
X150686280Y-96327431D01*
X150977431Y-96036280D01*
X151135000Y-95655874D01*
X151135000Y-95244126D01*
X150977431Y-94863720D01*
X150686280Y-94572569D01*
X150305874Y-94415000D01*
X149894126Y-94415000D01*
X149513720Y-94572569D01*
X149222569Y-94863720D01*
X149065000Y-95244126D01*
X120946902Y-95244126D01*
X120755874Y-95165000D01*
X120344126Y-95165000D01*
X119963720Y-95322569D01*
X119672569Y-95613720D01*
X119515000Y-95994126D01*
X119197869Y-95994126D01*
X119102431Y-95763720D01*
X118811280Y-95472569D01*
X118430874Y-95315000D01*
X118019126Y-95315000D01*
X117638720Y-95472569D01*
X117347569Y-95763720D01*
X117190000Y-96144126D01*
X116635000Y-96144126D01*
X116635000Y-95944126D01*
X116477431Y-95563720D01*
X116186280Y-95272569D01*
X115805874Y-95115000D01*
X115394126Y-95115000D01*
X115013720Y-95272569D01*
X114722569Y-95563720D01*
X114565000Y-95944126D01*
X113735000Y-95944126D01*
X113735000Y-95819126D01*
X113577431Y-95438720D01*
X113286280Y-95147569D01*
X112935194Y-95002145D01*
X113236280Y-94877431D01*
X113527431Y-94586280D01*
X113685000Y-94205874D01*
X113685000Y-93794126D01*
X113527431Y-93413720D01*
X113236280Y-93122569D01*
X112855874Y-92965000D01*
X112444126Y-92965000D01*
X112063720Y-93122569D01*
X111772569Y-93413720D01*
X111615000Y-93794126D01*
X111604510Y-93794126D01*
X111610000Y-93780874D01*
X111610000Y-93369126D01*
X111452431Y-92988720D01*
X111161280Y-92697569D01*
X110780874Y-92540000D01*
X110369126Y-92540000D01*
X109988720Y-92697569D01*
X109949854Y-92736435D01*
X110035000Y-92530874D01*
X110035000Y-92119126D01*
X109877431Y-91738720D01*
X109648711Y-91510000D01*
X109886119Y-91510000D01*
X110044822Y-91444263D01*
X110263881Y-91535000D01*
X110489487Y-91535000D01*
X110641172Y-91686685D01*
X110835751Y-91767282D01*
X110863315Y-91833828D01*
X111091172Y-92061685D01*
X111388881Y-92185000D01*
X111711119Y-92185000D01*
X111864645Y-92121408D01*
X112138881Y-92235000D01*
X112461119Y-92235000D01*
X112712500Y-92130875D01*
X112963881Y-92235000D01*
X113286119Y-92235000D01*
X113469822Y-92158908D01*
X113713881Y-92260000D01*
X113841608Y-92260000D01*
X113840000Y-92263881D01*
X113840000Y-92586119D01*
X113963315Y-92883828D01*
X114191172Y-93111685D01*
X114488881Y-93235000D01*
X114714196Y-93235000D01*
X114797569Y-93436280D01*
X115088720Y-93727431D01*
X115469126Y-93885000D01*
X115880874Y-93885000D01*
X116261280Y-93727431D01*
X116552431Y-93436280D01*
X116621668Y-93269126D01*
X117165000Y-93269126D01*
X117165000Y-93680874D01*
X117322569Y-94061280D01*
X117613720Y-94352431D01*
X117994126Y-94510000D01*
X118405874Y-94510000D01*
X118786280Y-94352431D01*
X119077431Y-94061280D01*
X119235000Y-93680874D01*
X119235000Y-93419126D01*
X119465000Y-93419126D01*
X119465000Y-93830874D01*
X119622569Y-94211280D01*
X119913720Y-94502431D01*
X120294126Y-94660000D01*
X120705874Y-94660000D01*
X121086280Y-94502431D01*
X121377431Y-94211280D01*
X121535000Y-93830874D01*
X121535000Y-93419126D01*
X121377431Y-93038720D01*
X121086280Y-92747569D01*
X120705874Y-92590000D01*
X120294126Y-92590000D01*
X119913720Y-92747569D01*
X119622569Y-93038720D01*
X119465000Y-93419126D01*
X119235000Y-93419126D01*
X119235000Y-93269126D01*
X119077431Y-92888720D01*
X118786280Y-92597569D01*
X118405874Y-92440000D01*
X117994126Y-92440000D01*
X117613720Y-92597569D01*
X117322569Y-92888720D01*
X117165000Y-93269126D01*
X116621668Y-93269126D01*
X116710000Y-93055874D01*
X116710000Y-92644126D01*
X116654443Y-92510000D01*
X116861119Y-92510000D01*
X117158828Y-92386685D01*
X117386685Y-92158828D01*
X117510000Y-91861119D01*
X117510000Y-91538881D01*
X117435790Y-91359723D01*
X117461685Y-91333828D01*
X117492266Y-91260000D01*
X117511119Y-91260000D01*
X117654922Y-91200435D01*
X117691172Y-91236685D01*
X117988881Y-91360000D01*
X118311119Y-91360000D01*
X118419567Y-91315080D01*
X118441172Y-91336685D01*
X118738881Y-91460000D01*
X119061119Y-91460000D01*
X119187244Y-91407757D01*
X119191172Y-91411685D01*
X119488881Y-91535000D01*
X119811119Y-91535000D01*
X119937244Y-91482757D01*
X119941172Y-91486685D01*
X120238881Y-91610000D01*
X120561119Y-91610000D01*
X120598856Y-91594369D01*
X120641172Y-91636685D01*
X120938881Y-91760000D01*
X121261119Y-91760000D01*
X121387244Y-91707757D01*
X121441172Y-91761685D01*
X121738881Y-91885000D01*
X122061119Y-91885000D01*
X122358828Y-91761685D01*
X122586685Y-91533828D01*
X122710000Y-91236119D01*
X122710000Y-90913881D01*
X122586685Y-90616172D01*
X122358828Y-90388315D01*
X122061119Y-90265000D01*
X121738881Y-90265000D01*
X121612756Y-90317243D01*
X121558828Y-90263315D01*
X121261119Y-90140000D01*
X120938881Y-90140000D01*
X120901144Y-90155631D01*
X120858828Y-90113315D01*
X120561119Y-89990000D01*
X120238881Y-89990000D01*
X120112756Y-90042243D01*
X120108828Y-90038315D01*
X119811119Y-89915000D01*
X119488881Y-89915000D01*
X119362756Y-89967243D01*
X119358828Y-89963315D01*
X119061119Y-89840000D01*
X118738881Y-89840000D01*
X118630433Y-89884920D01*
X118608828Y-89863315D01*
X118311119Y-89740000D01*
X117988881Y-89740000D01*
X117845078Y-89799565D01*
X117808828Y-89763315D01*
X117511119Y-89640000D01*
X117188881Y-89640000D01*
X117062500Y-89692349D01*
X116936119Y-89640000D01*
X116613881Y-89640000D01*
X116316172Y-89763315D01*
X116088315Y-89991172D01*
X115965000Y-90288881D01*
X115965000Y-90611119D01*
X115986283Y-90662500D01*
X115965000Y-90713881D01*
X115965000Y-91036119D01*
X116039210Y-91215277D01*
X116013315Y-91241172D01*
X115890000Y-91538881D01*
X115890000Y-91818780D01*
X115880874Y-91815000D01*
X115469126Y-91815000D01*
X115268581Y-91898068D01*
X115268113Y-91897600D01*
X115335000Y-91736119D01*
X115335000Y-91413881D01*
X115211685Y-91116172D01*
X114983828Y-90888315D01*
X114686119Y-90765000D01*
X114363881Y-90765000D01*
X114343822Y-90773309D01*
X114333828Y-90763315D01*
X114036119Y-90640000D01*
X113856763Y-90640000D01*
X113935000Y-90451119D01*
X113935000Y-90128881D01*
X113869189Y-89970000D01*
X113935000Y-89811119D01*
X113935000Y-89488881D01*
X113869189Y-89330000D01*
X113935000Y-89171119D01*
X113935000Y-88848881D01*
X113811685Y-88551172D01*
X113583828Y-88323315D01*
X113286119Y-88200000D01*
X112963881Y-88200000D01*
X112666172Y-88323315D01*
X112438315Y-88551172D01*
X112315000Y-88848881D01*
X112315000Y-89171119D01*
X112380811Y-89330000D01*
X112315000Y-89488881D01*
X112315000Y-89811119D01*
X112380811Y-89970000D01*
X112315000Y-90128881D01*
X112315000Y-90451119D01*
X112382882Y-90615000D01*
X112138881Y-90615000D01*
X111985355Y-90678592D01*
X111814249Y-90607718D01*
X111786685Y-90541172D01*
X111558828Y-90313315D01*
X111261119Y-90190000D01*
X111035513Y-90190000D01*
X110883828Y-90038315D01*
X110586119Y-89915000D01*
X110263881Y-89915000D01*
X110105178Y-89980737D01*
X109886119Y-89890000D01*
X109563881Y-89890000D01*
X109412500Y-89952704D01*
X109261119Y-89890000D01*
X108938881Y-89890000D01*
X108812500Y-89942349D01*
X108686119Y-89890000D01*
X108363881Y-89890000D01*
X108066172Y-90013315D01*
X107838315Y-90241172D01*
X107715000Y-90538881D01*
X107715000Y-90861119D01*
X107838315Y-91158828D01*
X108066172Y-91386685D01*
X108354977Y-91506312D01*
X108122569Y-91738720D01*
X107965000Y-92119126D01*
X107965000Y-92530874D01*
X108057383Y-92753906D01*
X108012500Y-92798789D01*
X107986280Y-92772569D01*
X107605874Y-92615000D01*
X107194126Y-92615000D01*
X106837500Y-92762719D01*
X106480874Y-92615000D01*
X106069126Y-92615000D01*
X105688720Y-92772569D01*
X105675000Y-92786289D01*
X105636280Y-92747569D01*
X105268487Y-92595224D01*
X105527431Y-92336280D01*
X105685000Y-91955874D01*
X105685000Y-91544126D01*
X105527431Y-91163720D01*
X105236280Y-90872569D01*
X104855874Y-90715000D01*
X104444126Y-90715000D01*
X104063720Y-90872569D01*
X103772569Y-91163720D01*
X103615000Y-91544126D01*
X103615000Y-91955874D01*
X103772569Y-92336280D01*
X104026289Y-92590000D01*
X103619126Y-92590000D01*
X103238720Y-92747569D01*
X103212500Y-92773789D01*
X103211280Y-92772569D01*
X102830874Y-92615000D01*
X102419126Y-92615000D01*
X102038720Y-92772569D01*
X102025000Y-92786289D01*
X102011280Y-92772569D01*
X101630874Y-92615000D01*
X101219126Y-92615000D01*
X100838720Y-92772569D01*
X100547569Y-93063720D01*
X100390000Y-93444126D01*
X100203000Y-93444126D01*
X100203000Y-89319126D01*
X101265000Y-89319126D01*
X101265000Y-89730874D01*
X101422569Y-90111280D01*
X101713720Y-90402431D01*
X102094126Y-90560000D01*
X102505874Y-90560000D01*
X102886280Y-90402431D01*
X103177431Y-90111280D01*
X103335000Y-89730874D01*
X103335000Y-89319126D01*
X103177431Y-88938720D01*
X102886280Y-88647569D01*
X102505874Y-88490000D01*
X102094126Y-88490000D01*
X101713720Y-88647569D01*
X101422569Y-88938720D01*
X101265000Y-89319126D01*
X100203000Y-89319126D01*
X100203000Y-84919126D01*
X100490000Y-84919126D01*
X100490000Y-85330874D01*
X100647569Y-85711280D01*
X100938720Y-86002431D01*
X101319126Y-86160000D01*
X101730874Y-86160000D01*
X102111280Y-86002431D01*
X102237500Y-85876211D01*
X102363720Y-86002431D01*
X102744126Y-86160000D01*
X103155874Y-86160000D01*
X103536280Y-86002431D01*
X103575000Y-85963711D01*
X103663720Y-86052431D01*
X104044126Y-86210000D01*
X104069064Y-86210000D01*
X104038720Y-86222569D01*
X103747569Y-86513720D01*
X103590000Y-86894126D01*
X103590000Y-87305874D01*
X103747569Y-87686280D01*
X104038720Y-87977431D01*
X104419126Y-88135000D01*
X104830874Y-88135000D01*
X105211280Y-87977431D01*
X105299830Y-87888881D01*
X107515000Y-87888881D01*
X107515000Y-88211119D01*
X107638315Y-88508828D01*
X107866172Y-88736685D01*
X108163881Y-88860000D01*
X108486119Y-88860000D01*
X108612244Y-88807757D01*
X108641172Y-88836685D01*
X108938881Y-88960000D01*
X109261119Y-88960000D01*
X109414645Y-88896408D01*
X109688881Y-89010000D01*
X110011119Y-89010000D01*
X110275000Y-88900697D01*
X110538881Y-89010000D01*
X110861119Y-89010000D01*
X111158828Y-88886685D01*
X111386685Y-88658828D01*
X111510000Y-88361119D01*
X111510000Y-88038881D01*
X111386685Y-87741172D01*
X111158828Y-87513315D01*
X110861119Y-87390000D01*
X110538881Y-87390000D01*
X110275000Y-87499303D01*
X110011119Y-87390000D01*
X109688881Y-87390000D01*
X109535355Y-87453592D01*
X109261119Y-87340000D01*
X108938881Y-87340000D01*
X108812756Y-87392243D01*
X108783828Y-87363315D01*
X108486119Y-87240000D01*
X108163881Y-87240000D01*
X107866172Y-87363315D01*
X107638315Y-87591172D01*
X107515000Y-87888881D01*
X105299830Y-87888881D01*
X105502431Y-87686280D01*
X105660000Y-87305874D01*
X105660000Y-87069126D01*
X112765000Y-87069126D01*
X112765000Y-87480874D01*
X112922569Y-87861280D01*
X113213720Y-88152431D01*
X113594126Y-88310000D01*
X114005874Y-88310000D01*
X114386280Y-88152431D01*
X114499830Y-88038881D01*
X117415000Y-88038881D01*
X117415000Y-88361119D01*
X117538315Y-88658828D01*
X117766172Y-88886685D01*
X118063881Y-89010000D01*
X118386119Y-89010000D01*
X118542678Y-88945151D01*
X118638881Y-88985000D01*
X118961119Y-88985000D01*
X119253033Y-88864085D01*
X119363881Y-88910000D01*
X119686119Y-88910000D01*
X119983828Y-88786685D01*
X120002400Y-88768113D01*
X120163881Y-88835000D01*
X120486119Y-88835000D01*
X120783828Y-88711685D01*
X120798111Y-88697402D01*
X120888881Y-88735000D01*
X121211119Y-88735000D01*
X121508828Y-88611685D01*
X121512756Y-88607757D01*
X121638881Y-88660000D01*
X121961119Y-88660000D01*
X122258828Y-88536685D01*
X122262756Y-88532757D01*
X122388881Y-88585000D01*
X122711119Y-88585000D01*
X122930442Y-88494153D01*
X122988720Y-88552431D01*
X123369126Y-88710000D01*
X123780874Y-88710000D01*
X124161280Y-88552431D01*
X124212500Y-88501211D01*
X124238720Y-88527431D01*
X124619126Y-88685000D01*
X125030874Y-88685000D01*
X125411280Y-88527431D01*
X125487500Y-88451211D01*
X125538720Y-88502431D01*
X125919126Y-88660000D01*
X126330874Y-88660000D01*
X126711280Y-88502431D01*
X126762500Y-88451211D01*
X126863720Y-88552431D01*
X127244126Y-88710000D01*
X127655874Y-88710000D01*
X128036280Y-88552431D01*
X128050000Y-88538711D01*
X128063720Y-88552431D01*
X128444126Y-88710000D01*
X128855874Y-88710000D01*
X129236280Y-88552431D01*
X129287500Y-88501211D01*
X129363720Y-88577431D01*
X129744126Y-88735000D01*
X129926289Y-88735000D01*
X129722569Y-88938720D01*
X129565000Y-89319126D01*
X129565000Y-89730874D01*
X129722569Y-90111280D01*
X129936289Y-90325000D01*
X129722569Y-90538720D01*
X129615000Y-90798415D01*
X129615000Y-90704017D01*
X129472655Y-90360365D01*
X129209635Y-90097345D01*
X128865983Y-89955000D01*
X128494017Y-89955000D01*
X128150365Y-90097345D01*
X128045000Y-90202710D01*
X127939635Y-90097345D01*
X127595983Y-89955000D01*
X127224017Y-89955000D01*
X126880365Y-90097345D01*
X126775000Y-90202710D01*
X126669635Y-90097345D01*
X126325983Y-89955000D01*
X125954017Y-89955000D01*
X125610365Y-90097345D01*
X125347345Y-90360365D01*
X125205000Y-90704017D01*
X125205000Y-91075983D01*
X125347345Y-91419635D01*
X125567710Y-91640000D01*
X125505000Y-91702710D01*
X125399635Y-91597345D01*
X125055983Y-91455000D01*
X124684017Y-91455000D01*
X124340365Y-91597345D01*
X124235000Y-91702710D01*
X124129635Y-91597345D01*
X123785983Y-91455000D01*
X123414017Y-91455000D01*
X123070365Y-91597345D01*
X122807345Y-91860365D01*
X122665000Y-92204017D01*
X122665000Y-92575983D01*
X122807345Y-92919635D01*
X123027710Y-93140000D01*
X122807345Y-93360365D01*
X122665000Y-93704017D01*
X122665000Y-94075983D01*
X122807345Y-94419635D01*
X123070365Y-94682655D01*
X123414017Y-94825000D01*
X123785983Y-94825000D01*
X124129635Y-94682655D01*
X124235000Y-94577290D01*
X124340365Y-94682655D01*
X124684017Y-94825000D01*
X125055983Y-94825000D01*
X125399635Y-94682655D01*
X125505000Y-94577290D01*
X125610365Y-94682655D01*
X125954017Y-94825000D01*
X126325983Y-94825000D01*
X126669635Y-94682655D01*
X126932655Y-94419635D01*
X127075000Y-94075983D01*
X127075000Y-93704017D01*
X126932655Y-93360365D01*
X126712290Y-93140000D01*
X126775000Y-93077290D01*
X126880365Y-93182655D01*
X127224017Y-93325000D01*
X127595983Y-93325000D01*
X127939635Y-93182655D01*
X128045000Y-93077290D01*
X128150365Y-93182655D01*
X128494017Y-93325000D01*
X128865983Y-93325000D01*
X129132980Y-93214406D01*
X129040000Y-93438881D01*
X129040000Y-93761119D01*
X129163315Y-94058828D01*
X129391172Y-94286685D01*
X129688881Y-94410000D01*
X130011119Y-94410000D01*
X130207955Y-94328468D01*
X130366172Y-94486685D01*
X130663881Y-94610000D01*
X130986119Y-94610000D01*
X131059211Y-94579724D01*
X131141172Y-94661685D01*
X131438881Y-94785000D01*
X131761119Y-94785000D01*
X131940277Y-94710790D01*
X131991172Y-94761685D01*
X132288881Y-94885000D01*
X132611119Y-94885000D01*
X132790277Y-94810790D01*
X132841172Y-94861685D01*
X133138881Y-94985000D01*
X133461119Y-94985000D01*
X133758828Y-94861685D01*
X133839112Y-94781402D01*
X134030365Y-94972655D01*
X134374017Y-95115000D01*
X134745983Y-95115000D01*
X135089635Y-94972655D01*
X135130000Y-94932290D01*
X135170365Y-94972655D01*
X135514017Y-95115000D01*
X135885983Y-95115000D01*
X136229635Y-94972655D01*
X136278389Y-94923902D01*
X136291172Y-94936685D01*
X136588881Y-95060000D01*
X136911119Y-95060000D01*
X137162500Y-94955875D01*
X137413881Y-95060000D01*
X137736119Y-95060000D01*
X138033828Y-94936685D01*
X138037500Y-94933013D01*
X138041172Y-94936685D01*
X138338881Y-95060000D01*
X138661119Y-95060000D01*
X138900000Y-94961052D01*
X139138881Y-95060000D01*
X139461119Y-95060000D01*
X139734480Y-94946770D01*
X139750365Y-94962655D01*
X140094017Y-95105000D01*
X140465983Y-95105000D01*
X140809635Y-94962655D01*
X140850000Y-94922290D01*
X140890365Y-94962655D01*
X141234017Y-95105000D01*
X141605983Y-95105000D01*
X141949635Y-94962655D01*
X142095889Y-94816402D01*
X142191172Y-94911685D01*
X142488881Y-95035000D01*
X142811119Y-95035000D01*
X143108828Y-94911685D01*
X143205433Y-94815080D01*
X143313881Y-94860000D01*
X143636119Y-94860000D01*
X143933828Y-94736685D01*
X144161685Y-94508828D01*
X144285000Y-94211119D01*
X144285000Y-93888881D01*
X144245410Y-93793301D01*
X144477431Y-93561280D01*
X144635000Y-93180874D01*
X144635000Y-92769126D01*
X144477431Y-92388720D01*
X144344007Y-92255296D01*
X144411280Y-92227431D01*
X144525000Y-92113711D01*
X144563720Y-92152431D01*
X144944126Y-92310000D01*
X145355874Y-92310000D01*
X145736280Y-92152431D01*
X145800000Y-92088711D01*
X145913720Y-92202431D01*
X146294126Y-92360000D01*
X146705874Y-92360000D01*
X146911435Y-92274854D01*
X146722569Y-92463720D01*
X146565000Y-92844126D01*
X146565000Y-93255874D01*
X146722569Y-93636280D01*
X147013720Y-93927431D01*
X147394126Y-94085000D01*
X147805874Y-94085000D01*
X148186280Y-93927431D01*
X148477431Y-93636280D01*
X148635000Y-93255874D01*
X148635000Y-92844126D01*
X148477431Y-92463720D01*
X148305619Y-92291908D01*
X148461280Y-92227431D01*
X148562500Y-92126211D01*
X148613720Y-92177431D01*
X148994126Y-92335000D01*
X149405874Y-92335000D01*
X149786280Y-92177431D01*
X149887500Y-92076211D01*
X149988720Y-92177431D01*
X150369126Y-92335000D01*
X150780874Y-92335000D01*
X151161280Y-92177431D01*
X151452431Y-91886280D01*
X151610000Y-91505874D01*
X151610000Y-91094126D01*
X151452431Y-90713720D01*
X151161280Y-90422569D01*
X150780874Y-90265000D01*
X150369126Y-90265000D01*
X149988720Y-90422569D01*
X149887500Y-90523789D01*
X149786280Y-90422569D01*
X149405874Y-90265000D01*
X148994126Y-90265000D01*
X148613720Y-90422569D01*
X148512500Y-90523789D01*
X148461280Y-90472569D01*
X148080874Y-90315000D01*
X147669126Y-90315000D01*
X147288720Y-90472569D01*
X147200000Y-90561289D01*
X147086280Y-90447569D01*
X146705874Y-90290000D01*
X146294126Y-90290000D01*
X145913720Y-90447569D01*
X145850000Y-90511289D01*
X145736280Y-90397569D01*
X145355874Y-90240000D01*
X144944126Y-90240000D01*
X144563720Y-90397569D01*
X144450000Y-90511289D01*
X144411280Y-90472569D01*
X144030874Y-90315000D01*
X143619126Y-90315000D01*
X143238720Y-90472569D01*
X142947569Y-90763720D01*
X142790000Y-91144126D01*
X142790000Y-91555874D01*
X142947569Y-91936280D01*
X143080993Y-92069704D01*
X143013720Y-92097569D01*
X142722569Y-92388720D01*
X142565000Y-92769126D01*
X142565000Y-93180874D01*
X142661978Y-93415000D01*
X142488881Y-93415000D01*
X142191172Y-93538315D01*
X142150889Y-93578599D01*
X141949635Y-93377345D01*
X141605983Y-93235000D01*
X141234017Y-93235000D01*
X140890365Y-93377345D01*
X140850000Y-93417710D01*
X140809635Y-93377345D01*
X140465983Y-93235000D01*
X140094017Y-93235000D01*
X139750365Y-93377345D01*
X139621343Y-93506367D01*
X139461119Y-93440000D01*
X139138881Y-93440000D01*
X138900000Y-93538948D01*
X138661119Y-93440000D01*
X138338881Y-93440000D01*
X138041172Y-93563315D01*
X138037500Y-93566987D01*
X138033828Y-93563315D01*
X137736119Y-93440000D01*
X137413881Y-93440000D01*
X137162500Y-93544125D01*
X136911119Y-93440000D01*
X136588881Y-93440000D01*
X136372088Y-93529798D01*
X136229635Y-93387345D01*
X135885983Y-93245000D01*
X135514017Y-93245000D01*
X135170365Y-93387345D01*
X135130000Y-93427710D01*
X135089635Y-93387345D01*
X134745983Y-93245000D01*
X134374017Y-93245000D01*
X134030365Y-93387345D01*
X133844112Y-93573599D01*
X133758828Y-93488315D01*
X133461119Y-93365000D01*
X133138881Y-93365000D01*
X132959723Y-93439210D01*
X132908828Y-93388315D01*
X132611119Y-93265000D01*
X132288881Y-93265000D01*
X132109723Y-93339210D01*
X132058828Y-93288315D01*
X131761119Y-93165000D01*
X131438881Y-93165000D01*
X131365789Y-93195276D01*
X131354612Y-93184099D01*
X131527431Y-93011280D01*
X131685000Y-92630874D01*
X131685000Y-92219126D01*
X131527431Y-91838720D01*
X131438711Y-91750000D01*
X131477431Y-91711280D01*
X131536312Y-91569126D01*
X132315000Y-91569126D01*
X132315000Y-91980874D01*
X132472569Y-92361280D01*
X132763720Y-92652431D01*
X133144126Y-92810000D01*
X133555874Y-92810000D01*
X133936280Y-92652431D01*
X134227431Y-92361280D01*
X134385000Y-91980874D01*
X134385000Y-91569126D01*
X134364290Y-91519126D01*
X135140000Y-91519126D01*
X135140000Y-91930874D01*
X135297569Y-92311280D01*
X135588720Y-92602431D01*
X135969126Y-92760000D01*
X136380874Y-92760000D01*
X136761280Y-92602431D01*
X137052431Y-92311280D01*
X137210000Y-91930874D01*
X137210000Y-91569126D01*
X138965000Y-91569126D01*
X138965000Y-91980874D01*
X139122569Y-92361280D01*
X139413720Y-92652431D01*
X139794126Y-92810000D01*
X140205874Y-92810000D01*
X140586280Y-92652431D01*
X140877431Y-92361280D01*
X141035000Y-91980874D01*
X141035000Y-91569126D01*
X140877431Y-91188720D01*
X140586280Y-90897569D01*
X140205874Y-90740000D01*
X139794126Y-90740000D01*
X139413720Y-90897569D01*
X139122569Y-91188720D01*
X138965000Y-91569126D01*
X137210000Y-91569126D01*
X137210000Y-91519126D01*
X137052431Y-91138720D01*
X136761280Y-90847569D01*
X136380874Y-90690000D01*
X135969126Y-90690000D01*
X135588720Y-90847569D01*
X135297569Y-91138720D01*
X135140000Y-91519126D01*
X134364290Y-91519126D01*
X134227431Y-91188720D01*
X133936280Y-90897569D01*
X133555874Y-90740000D01*
X133144126Y-90740000D01*
X132763720Y-90897569D01*
X132472569Y-91188720D01*
X132315000Y-91569126D01*
X131536312Y-91569126D01*
X131635000Y-91330874D01*
X131635000Y-90919126D01*
X131477431Y-90538720D01*
X131263711Y-90325000D01*
X131477431Y-90111280D01*
X131635000Y-89730874D01*
X131635000Y-89319126D01*
X131477431Y-88938720D01*
X131186280Y-88647569D01*
X130805874Y-88490000D01*
X130623711Y-88490000D01*
X130827431Y-88286280D01*
X130985000Y-87905874D01*
X130985000Y-87494126D01*
X130827431Y-87113720D01*
X130536280Y-86822569D01*
X130155874Y-86665000D01*
X129744126Y-86665000D01*
X129363720Y-86822569D01*
X129312500Y-86873789D01*
X129236280Y-86797569D01*
X128855874Y-86640000D01*
X128444126Y-86640000D01*
X128063720Y-86797569D01*
X128050000Y-86811289D01*
X128036280Y-86797569D01*
X127655874Y-86640000D01*
X127244126Y-86640000D01*
X126863720Y-86797569D01*
X126812500Y-86848789D01*
X126711280Y-86747569D01*
X126330874Y-86590000D01*
X125919126Y-86590000D01*
X125538720Y-86747569D01*
X125462500Y-86823789D01*
X125411280Y-86772569D01*
X125030874Y-86615000D01*
X124619126Y-86615000D01*
X124238720Y-86772569D01*
X124187500Y-86823789D01*
X124161280Y-86797569D01*
X123780874Y-86640000D01*
X123369126Y-86640000D01*
X122988720Y-86797569D01*
X122789021Y-86997268D01*
X122711119Y-86965000D01*
X122388881Y-86965000D01*
X122091172Y-87088315D01*
X122087244Y-87092243D01*
X121961119Y-87040000D01*
X121638881Y-87040000D01*
X121341172Y-87163315D01*
X121337244Y-87167243D01*
X121211119Y-87115000D01*
X120888881Y-87115000D01*
X120591172Y-87238315D01*
X120576889Y-87252598D01*
X120486119Y-87215000D01*
X120163881Y-87215000D01*
X119866172Y-87338315D01*
X119847600Y-87356887D01*
X119686119Y-87290000D01*
X119363881Y-87290000D01*
X119071967Y-87410915D01*
X118961119Y-87365000D01*
X118638881Y-87365000D01*
X118482322Y-87429849D01*
X118386119Y-87390000D01*
X118063881Y-87390000D01*
X117766172Y-87513315D01*
X117538315Y-87741172D01*
X117415000Y-88038881D01*
X114499830Y-88038881D01*
X114677431Y-87861280D01*
X114835000Y-87480874D01*
X114835000Y-87069126D01*
X114677431Y-86688720D01*
X114386280Y-86397569D01*
X114295581Y-86360000D01*
X139709908Y-86360000D01*
X139825161Y-86939418D01*
X140153375Y-87430625D01*
X140644582Y-87758839D01*
X141077744Y-87845000D01*
X141370256Y-87845000D01*
X141803418Y-87758839D01*
X142190000Y-87500533D01*
X142190000Y-87905874D01*
X142224486Y-87989131D01*
X142105874Y-87940000D01*
X141694126Y-87940000D01*
X141313720Y-88097569D01*
X141022569Y-88388720D01*
X140865000Y-88769126D01*
X140865000Y-89180874D01*
X141022569Y-89561280D01*
X141313720Y-89852431D01*
X141694126Y-90010000D01*
X142105874Y-90010000D01*
X142486280Y-89852431D01*
X142525000Y-89813711D01*
X142588720Y-89877431D01*
X142969126Y-90035000D01*
X143380874Y-90035000D01*
X143761280Y-89877431D01*
X143800000Y-89838711D01*
X143888720Y-89927431D01*
X144269126Y-90085000D01*
X144680874Y-90085000D01*
X145061280Y-89927431D01*
X145352431Y-89636280D01*
X145510000Y-89255874D01*
X145510000Y-88844126D01*
X145352431Y-88463720D01*
X145301211Y-88412500D01*
X145377431Y-88336280D01*
X145535000Y-87955874D01*
X145535000Y-87544126D01*
X145514290Y-87494126D01*
X147365000Y-87494126D01*
X147365000Y-87905874D01*
X147522569Y-88286280D01*
X147813720Y-88577431D01*
X148194126Y-88735000D01*
X148605874Y-88735000D01*
X148986280Y-88577431D01*
X149277431Y-88286280D01*
X149435000Y-87905874D01*
X149435000Y-87494126D01*
X149277431Y-87113720D01*
X148986280Y-86822569D01*
X148605874Y-86665000D01*
X148194126Y-86665000D01*
X147813720Y-86822569D01*
X147522569Y-87113720D01*
X147365000Y-87494126D01*
X145514290Y-87494126D01*
X145377431Y-87163720D01*
X145301211Y-87087500D01*
X145402431Y-86986280D01*
X145560000Y-86605874D01*
X145560000Y-86194126D01*
X145402431Y-85813720D01*
X145111280Y-85522569D01*
X144730874Y-85365000D01*
X144319126Y-85365000D01*
X143938720Y-85522569D01*
X143887500Y-85573789D01*
X143811280Y-85497569D01*
X143430874Y-85340000D01*
X143019126Y-85340000D01*
X142638720Y-85497569D01*
X142515841Y-85620448D01*
X142294625Y-85289375D01*
X141803418Y-84961161D01*
X141370256Y-84875000D01*
X141077744Y-84875000D01*
X140644582Y-84961161D01*
X140153375Y-85289375D01*
X139825161Y-85780582D01*
X139709908Y-86360000D01*
X114295581Y-86360000D01*
X114005874Y-86240000D01*
X113594126Y-86240000D01*
X113213720Y-86397569D01*
X112922569Y-86688720D01*
X112765000Y-87069126D01*
X105660000Y-87069126D01*
X105660000Y-86894126D01*
X105502431Y-86513720D01*
X105211280Y-86222569D01*
X104830874Y-86065000D01*
X104805936Y-86065000D01*
X104836280Y-86052431D01*
X104862500Y-86026211D01*
X104888720Y-86052431D01*
X105269126Y-86210000D01*
X105680874Y-86210000D01*
X106061280Y-86052431D01*
X106125000Y-85988711D01*
X106213720Y-86077431D01*
X106594126Y-86235000D01*
X107005874Y-86235000D01*
X107386280Y-86077431D01*
X107425000Y-86038711D01*
X107488720Y-86102431D01*
X107869126Y-86260000D01*
X108228841Y-86260000D01*
X108322569Y-86486280D01*
X108613720Y-86777431D01*
X108994126Y-86935000D01*
X109405874Y-86935000D01*
X109786280Y-86777431D01*
X110077431Y-86486280D01*
X110235000Y-86105874D01*
X110235000Y-85694126D01*
X110077431Y-85313720D01*
X109786280Y-85022569D01*
X109657257Y-84969126D01*
X118765000Y-84969126D01*
X118765000Y-85380874D01*
X118922569Y-85761280D01*
X119213720Y-86052431D01*
X119594126Y-86210000D01*
X120005874Y-86210000D01*
X120386280Y-86052431D01*
X120677431Y-85761280D01*
X120835000Y-85380874D01*
X120835000Y-84969126D01*
X122640000Y-84969126D01*
X122640000Y-85380874D01*
X122797569Y-85761280D01*
X123088720Y-86052431D01*
X123469126Y-86210000D01*
X123880874Y-86210000D01*
X124261280Y-86052431D01*
X124552431Y-85761280D01*
X124710000Y-85380874D01*
X124710000Y-84969126D01*
X125890000Y-84969126D01*
X125890000Y-85380874D01*
X126047569Y-85761280D01*
X126338720Y-86052431D01*
X126719126Y-86210000D01*
X127130874Y-86210000D01*
X127511280Y-86052431D01*
X127802431Y-85761280D01*
X127960000Y-85380874D01*
X127960000Y-85069126D01*
X129015000Y-85069126D01*
X129015000Y-85480874D01*
X129172569Y-85861280D01*
X129463720Y-86152431D01*
X129844126Y-86310000D01*
X130255874Y-86310000D01*
X130636280Y-86152431D01*
X130927431Y-85861280D01*
X131085000Y-85480874D01*
X131085000Y-85069126D01*
X130927431Y-84688720D01*
X130636280Y-84397569D01*
X130255874Y-84240000D01*
X129844126Y-84240000D01*
X129463720Y-84397569D01*
X129172569Y-84688720D01*
X129015000Y-85069126D01*
X127960000Y-85069126D01*
X127960000Y-84969126D01*
X127802431Y-84588720D01*
X127511280Y-84297569D01*
X127130874Y-84140000D01*
X126719126Y-84140000D01*
X126338720Y-84297569D01*
X126047569Y-84588720D01*
X125890000Y-84969126D01*
X124710000Y-84969126D01*
X124552431Y-84588720D01*
X124261280Y-84297569D01*
X123880874Y-84140000D01*
X123469126Y-84140000D01*
X123088720Y-84297569D01*
X122797569Y-84588720D01*
X122640000Y-84969126D01*
X120835000Y-84969126D01*
X120677431Y-84588720D01*
X120386280Y-84297569D01*
X120005874Y-84140000D01*
X119594126Y-84140000D01*
X119213720Y-84297569D01*
X118922569Y-84588720D01*
X118765000Y-84969126D01*
X109657257Y-84969126D01*
X109405874Y-84865000D01*
X109046159Y-84865000D01*
X108952431Y-84638720D01*
X108661280Y-84347569D01*
X108280874Y-84190000D01*
X107869126Y-84190000D01*
X107488720Y-84347569D01*
X107450000Y-84386289D01*
X107386280Y-84322569D01*
X107005874Y-84165000D01*
X106594126Y-84165000D01*
X106213720Y-84322569D01*
X106150000Y-84386289D01*
X106061280Y-84297569D01*
X105680874Y-84140000D01*
X105269126Y-84140000D01*
X104888720Y-84297569D01*
X104862500Y-84323789D01*
X104836280Y-84297569D01*
X104455874Y-84140000D01*
X104044126Y-84140000D01*
X103663720Y-84297569D01*
X103625000Y-84336289D01*
X103536280Y-84247569D01*
X103155874Y-84090000D01*
X102744126Y-84090000D01*
X102363720Y-84247569D01*
X102237500Y-84373789D01*
X102111280Y-84247569D01*
X101730874Y-84090000D01*
X101319126Y-84090000D01*
X100938720Y-84247569D01*
X100647569Y-84538720D01*
X100490000Y-84919126D01*
X100203000Y-84919126D01*
X100203000Y-82169000D01*
X123107692Y-82169000D01*
X123038720Y-82197569D01*
X123038720Y-82197569D01*
G37*
X123038720Y-82197569D02*
X122747569Y-82488720D01*
X122590000Y-82869126D01*
X122590000Y-83280874D01*
X122747569Y-83661280D01*
X123038720Y-83952431D01*
X123419126Y-84110000D01*
X123830874Y-84110000D01*
X124211280Y-83952431D01*
X124502431Y-83661280D01*
X124660000Y-83280874D01*
X124660000Y-82869126D01*
X124502431Y-82488720D01*
X124211280Y-82197569D01*
X124142308Y-82169000D01*
X126222336Y-82169000D01*
X126213720Y-82172569D01*
X125922569Y-82463720D01*
X125765000Y-82844126D01*
X125765000Y-83255874D01*
X125922569Y-83636280D01*
X126213720Y-83927431D01*
X126594126Y-84085000D01*
X127005874Y-84085000D01*
X127386280Y-83927431D01*
X127677431Y-83636280D01*
X127835000Y-83255874D01*
X127835000Y-82844126D01*
X127677431Y-82463720D01*
X127386280Y-82172569D01*
X127377664Y-82169000D01*
X129299114Y-82169000D01*
X128988720Y-82297569D01*
X128697569Y-82588720D01*
X128540000Y-82969126D01*
X128540000Y-83380874D01*
X128697569Y-83761280D01*
X128988720Y-84052431D01*
X129369126Y-84210000D01*
X129780874Y-84210000D01*
X130161280Y-84052431D01*
X130452431Y-83761280D01*
X130610000Y-83380874D01*
X130610000Y-82969126D01*
X130452431Y-82588720D01*
X130161280Y-82297569D01*
X129850886Y-82169000D01*
X133449114Y-82169000D01*
X133138720Y-82297569D01*
X132847569Y-82588720D01*
X132690000Y-82969126D01*
X132690000Y-83380874D01*
X132847569Y-83761280D01*
X133138720Y-84052431D01*
X133519126Y-84210000D01*
X133930874Y-84210000D01*
X134311280Y-84052431D01*
X134602431Y-83761280D01*
X134760000Y-83380874D01*
X134760000Y-82969126D01*
X134602431Y-82588720D01*
X134311280Y-82297569D01*
X134000886Y-82169000D01*
X137524114Y-82169000D01*
X137213720Y-82297569D01*
X136922569Y-82588720D01*
X136765000Y-82969126D01*
X136765000Y-83380874D01*
X136922569Y-83761280D01*
X137213720Y-84052431D01*
X137594126Y-84210000D01*
X138005874Y-84210000D01*
X138386280Y-84052431D01*
X138677431Y-83761280D01*
X138819155Y-83419126D01*
X143090000Y-83419126D01*
X143090000Y-83830874D01*
X143247569Y-84211280D01*
X143538720Y-84502431D01*
X143919126Y-84660000D01*
X144330874Y-84660000D01*
X144711280Y-84502431D01*
X144969585Y-84244126D01*
X147365000Y-84244126D01*
X147365000Y-84655874D01*
X147522569Y-85036280D01*
X147813720Y-85327431D01*
X148194126Y-85485000D01*
X148605874Y-85485000D01*
X148986280Y-85327431D01*
X149277431Y-85036280D01*
X149435000Y-84655874D01*
X149435000Y-84244126D01*
X149277431Y-83863720D01*
X148986280Y-83572569D01*
X148605874Y-83415000D01*
X148194126Y-83415000D01*
X147813720Y-83572569D01*
X147522569Y-83863720D01*
X147365000Y-84244126D01*
X144969585Y-84244126D01*
X145002431Y-84211280D01*
X145160000Y-83830874D01*
X145160000Y-83419126D01*
X145002431Y-83038720D01*
X144711280Y-82747569D01*
X144330874Y-82590000D01*
X143919126Y-82590000D01*
X143538720Y-82747569D01*
X143247569Y-83038720D01*
X143090000Y-83419126D01*
X138819155Y-83419126D01*
X138835000Y-83380874D01*
X138835000Y-82969126D01*
X138677431Y-82588720D01*
X138386280Y-82297569D01*
X138075886Y-82169000D01*
X151765000Y-82169000D01*
X151765000Y-101727000D01*
X140611711Y-101727000D01*
X140752431Y-101586280D01*
X140910000Y-101205874D01*
X140910000Y-100794126D01*
X140752431Y-100413720D01*
X140461280Y-100122569D01*
X140080874Y-99965000D01*
X139669126Y-99965000D01*
X139288720Y-100122569D01*
X138997569Y-100413720D01*
X138840000Y-100794126D01*
X138840000Y-101205874D01*
X138997569Y-101586280D01*
X139138289Y-101727000D01*
X136986711Y-101727000D01*
X137227431Y-101486280D01*
X137385000Y-101105874D01*
X137385000Y-100694126D01*
X137227431Y-100313720D01*
X136936280Y-100022569D01*
X136555874Y-99865000D01*
X136144126Y-99865000D01*
X135763720Y-100022569D01*
X135472569Y-100313720D01*
X135315000Y-100694126D01*
X135315000Y-101105874D01*
X135472569Y-101486280D01*
X135713289Y-101727000D01*
X133736711Y-101727000D01*
X133877431Y-101586280D01*
X134035000Y-101205874D01*
X134035000Y-100794126D01*
X133877431Y-100413720D01*
X133586280Y-100122569D01*
X133205874Y-99965000D01*
X132794126Y-99965000D01*
X132413720Y-100122569D01*
X132122569Y-100413720D01*
X131965000Y-100794126D01*
X131965000Y-101205874D01*
X132122569Y-101586280D01*
X132263289Y-101727000D01*
X124060543Y-101727000D01*
X124361280Y-101602431D01*
X124652431Y-101311280D01*
X124810000Y-100930874D01*
X124810000Y-100519126D01*
X124652431Y-100138720D01*
X124361280Y-99847569D01*
X123980874Y-99690000D01*
X123569126Y-99690000D01*
X123188720Y-99847569D01*
X122897569Y-100138720D01*
X122740000Y-100519126D01*
X122740000Y-100930874D01*
X122897569Y-101311280D01*
X123188720Y-101602431D01*
X123489457Y-101727000D01*
X121411711Y-101727000D01*
X121652431Y-101486280D01*
X121810000Y-101105874D01*
X121810000Y-100694126D01*
X121652431Y-100313720D01*
X121361280Y-100022569D01*
X120980874Y-99865000D01*
X120569126Y-99865000D01*
X120188720Y-100022569D01*
X119897569Y-100313720D01*
X119740000Y-100694126D01*
X119740000Y-101105874D01*
X119897569Y-101486280D01*
X120138289Y-101727000D01*
X118731254Y-101727000D01*
X118911280Y-101652431D01*
X119202431Y-101361280D01*
X119360000Y-100980874D01*
X119360000Y-100569126D01*
X119202431Y-100188720D01*
X118911280Y-99897569D01*
X118530874Y-99740000D01*
X118119126Y-99740000D01*
X117738720Y-99897569D01*
X117447569Y-100188720D01*
X117290000Y-100569126D01*
X117290000Y-100980874D01*
X117447569Y-101361280D01*
X117738720Y-101652431D01*
X117918746Y-101727000D01*
X100203000Y-101727000D01*
X100203000Y-98394126D01*
X117190000Y-98394126D01*
X117190000Y-98805874D01*
X117347569Y-99186280D01*
X117638720Y-99477431D01*
X118019126Y-99635000D01*
X118430874Y-99635000D01*
X118811280Y-99477431D01*
X119102431Y-99186280D01*
X119260000Y-98805874D01*
X119260000Y-98444126D01*
X119515000Y-98444126D01*
X119515000Y-98855874D01*
X119672569Y-99236280D01*
X119963720Y-99527431D01*
X120344126Y-99685000D01*
X120755874Y-99685000D01*
X121136280Y-99527431D01*
X121219585Y-99444126D01*
X125940000Y-99444126D01*
X125940000Y-99855874D01*
X126097569Y-100236280D01*
X126388720Y-100527431D01*
X126769126Y-100685000D01*
X127180874Y-100685000D01*
X127561280Y-100527431D01*
X127852431Y-100236280D01*
X128010000Y-99855874D01*
X128010000Y-99444126D01*
X128965000Y-99444126D01*
X128965000Y-99855874D01*
X129122569Y-100236280D01*
X129413720Y-100527431D01*
X129794126Y-100685000D01*
X130205874Y-100685000D01*
X130586280Y-100527431D01*
X130877431Y-100236280D01*
X131035000Y-99855874D01*
X131035000Y-99444126D01*
X130877431Y-99063720D01*
X130586280Y-98772569D01*
X130205874Y-98615000D01*
X129794126Y-98615000D01*
X129413720Y-98772569D01*
X129122569Y-99063720D01*
X128965000Y-99444126D01*
X128010000Y-99444126D01*
X127852431Y-99063720D01*
X127561280Y-98772569D01*
X127180874Y-98615000D01*
X126769126Y-98615000D01*
X126388720Y-98772569D01*
X126097569Y-99063720D01*
X125940000Y-99444126D01*
X121219585Y-99444126D01*
X121427431Y-99236280D01*
X121585000Y-98855874D01*
X121585000Y-98444126D01*
X132115000Y-98444126D01*
X132115000Y-98855874D01*
X132272569Y-99236280D01*
X132563720Y-99527431D01*
X132944126Y-99685000D01*
X133355874Y-99685000D01*
X133736280Y-99527431D01*
X134027431Y-99236280D01*
X134185000Y-98855874D01*
X134185000Y-98494126D01*
X135265000Y-98494126D01*
X135265000Y-98905874D01*
X135422569Y-99286280D01*
X135713720Y-99577431D01*
X136094126Y-99735000D01*
X136505874Y-99735000D01*
X136886280Y-99577431D01*
X137177431Y-99286280D01*
X137335000Y-98905874D01*
X137335000Y-98544126D01*
X138790000Y-98544126D01*
X138790000Y-98955874D01*
X138947569Y-99336280D01*
X139238720Y-99627431D01*
X139619126Y-99785000D01*
X140030874Y-99785000D01*
X140411280Y-99627431D01*
X140702431Y-99336280D01*
X140860000Y-98955874D01*
X140860000Y-98544126D01*
X140702431Y-98163720D01*
X140411280Y-97872569D01*
X140030874Y-97715000D01*
X139619126Y-97715000D01*
X139238720Y-97872569D01*
X138947569Y-98163720D01*
X138790000Y-98544126D01*
X137335000Y-98544126D01*
X137335000Y-98494126D01*
X137177431Y-98113720D01*
X136886280Y-97822569D01*
X136505874Y-97665000D01*
X136094126Y-97665000D01*
X135713720Y-97822569D01*
X135422569Y-98113720D01*
X135265000Y-98494126D01*
X134185000Y-98494126D01*
X134185000Y-98444126D01*
X134027431Y-98063720D01*
X133736280Y-97772569D01*
X133355874Y-97615000D01*
X132944126Y-97615000D01*
X132563720Y-97772569D01*
X132272569Y-98063720D01*
X132115000Y-98444126D01*
X121585000Y-98444126D01*
X121427431Y-98063720D01*
X121136280Y-97772569D01*
X120755874Y-97615000D01*
X120344126Y-97615000D01*
X119963720Y-97772569D01*
X119672569Y-98063720D01*
X119515000Y-98444126D01*
X119260000Y-98444126D01*
X119260000Y-98394126D01*
X119102431Y-98013720D01*
X118811280Y-97722569D01*
X118430874Y-97565000D01*
X118019126Y-97565000D01*
X117638720Y-97722569D01*
X117347569Y-98013720D01*
X117190000Y-98394126D01*
X100203000Y-98394126D01*
X100203000Y-95744126D01*
X109490000Y-95744126D01*
X109490000Y-96155874D01*
X109647569Y-96536280D01*
X109938720Y-96827431D01*
X110319126Y-96985000D01*
X110730874Y-96985000D01*
X111111280Y-96827431D01*
X111402431Y-96536280D01*
X111560000Y-96155874D01*
X111560000Y-95744126D01*
X111402431Y-95363720D01*
X111111280Y-95072569D01*
X110730874Y-94915000D01*
X110319126Y-94915000D01*
X109938720Y-95072569D01*
X109647569Y-95363720D01*
X109490000Y-95744126D01*
X100203000Y-95744126D01*
X100203000Y-93444126D01*
X100390000Y-93444126D01*
X100390000Y-93855874D01*
X100547569Y-94236280D01*
X100838720Y-94527431D01*
X101219126Y-94685000D01*
X101630874Y-94685000D01*
X102011280Y-94527431D01*
X102025000Y-94513711D01*
X102038720Y-94527431D01*
X102419126Y-94685000D01*
X102830874Y-94685000D01*
X103211280Y-94527431D01*
X103237500Y-94501211D01*
X103238720Y-94502431D01*
X103619126Y-94660000D01*
X104030874Y-94660000D01*
X104411280Y-94502431D01*
X104437500Y-94476211D01*
X104463720Y-94502431D01*
X104844126Y-94660000D01*
X105255874Y-94660000D01*
X105636280Y-94502431D01*
X105650000Y-94488711D01*
X105688720Y-94527431D01*
X106069126Y-94685000D01*
X106480874Y-94685000D01*
X106837500Y-94537281D01*
X107194126Y-94685000D01*
X107605874Y-94685000D01*
X107986280Y-94527431D01*
X108062500Y-94451211D01*
X108088720Y-94477431D01*
X108469126Y-94635000D01*
X108880874Y-94635000D01*
X109261280Y-94477431D01*
X109552431Y-94186280D01*
X109630178Y-93998583D01*
X109697569Y-94161280D01*
X109988720Y-94452431D01*
X110369126Y-94610000D01*
X110780874Y-94610000D01*
X111161280Y-94452431D01*
X111452431Y-94161280D01*
X111604510Y-93794126D01*
X111615000Y-93794126D01*
X111615000Y-94205874D01*
X111772569Y-94586280D01*
X112063720Y-94877431D01*
X112414806Y-95022855D01*
X112113720Y-95147569D01*
X111822569Y-95438720D01*
X111665000Y-95819126D01*
X111665000Y-96230874D01*
X111822569Y-96611280D01*
X112113720Y-96902431D01*
X112494126Y-97060000D01*
X112905874Y-97060000D01*
X113286280Y-96902431D01*
X113577431Y-96611280D01*
X113735000Y-96230874D01*
X113735000Y-95944126D01*
X114565000Y-95944126D01*
X114565000Y-96355874D01*
X114722569Y-96736280D01*
X115013720Y-97027431D01*
X115394126Y-97185000D01*
X115805874Y-97185000D01*
X116186280Y-97027431D01*
X116477431Y-96736280D01*
X116635000Y-96355874D01*
X116635000Y-96144126D01*
X117190000Y-96144126D01*
X117190000Y-96555874D01*
X117347569Y-96936280D01*
X117638720Y-97227431D01*
X118019126Y-97385000D01*
X118430874Y-97385000D01*
X118811280Y-97227431D01*
X119102431Y-96936280D01*
X119260000Y-96555874D01*
X119260000Y-96144126D01*
X119197869Y-95994126D01*
X119515000Y-95994126D01*
X119515000Y-96405874D01*
X119672569Y-96786280D01*
X119963720Y-97077431D01*
X120344126Y-97235000D01*
X120755874Y-97235000D01*
X121136280Y-97077431D01*
X121269585Y-96944126D01*
X122590000Y-96944126D01*
X122590000Y-97355874D01*
X122747569Y-97736280D01*
X123038720Y-98027431D01*
X123419126Y-98185000D01*
X123830874Y-98185000D01*
X124211280Y-98027431D01*
X124250000Y-97988711D01*
X124288720Y-98027431D01*
X124669126Y-98185000D01*
X125080874Y-98185000D01*
X125461280Y-98027431D01*
X125575000Y-97913711D01*
X125688720Y-98027431D01*
X126069126Y-98185000D01*
X126480874Y-98185000D01*
X126861280Y-98027431D01*
X126900000Y-97988711D01*
X127013720Y-98102431D01*
X127394126Y-98260000D01*
X127805874Y-98260000D01*
X128186280Y-98102431D01*
X128300000Y-97988711D01*
X128413720Y-98102431D01*
X128794126Y-98260000D01*
X129205874Y-98260000D01*
X129586280Y-98102431D01*
X129696334Y-97992377D01*
X129738881Y-98010000D01*
X130061119Y-98010000D01*
X130358828Y-97886685D01*
X130474367Y-97771146D01*
X130688881Y-97860000D01*
X131011119Y-97860000D01*
X131308828Y-97736685D01*
X131330433Y-97715080D01*
X131438881Y-97760000D01*
X131761119Y-97760000D01*
X132058828Y-97636685D01*
X132208466Y-97487047D01*
X132263881Y-97510000D01*
X132586119Y-97510000D01*
X132883828Y-97386685D01*
X132976144Y-97294369D01*
X133013881Y-97310000D01*
X133336119Y-97310000D01*
X133633828Y-97186685D01*
X133750806Y-97069707D01*
X133767345Y-97109635D01*
X134030365Y-97372655D01*
X134374017Y-97515000D01*
X134745983Y-97515000D01*
X135089635Y-97372655D01*
X135130000Y-97332290D01*
X135170365Y-97372655D01*
X135514017Y-97515000D01*
X135885983Y-97515000D01*
X136229635Y-97372655D01*
X136318804Y-97283486D01*
X136563881Y-97385000D01*
X136886119Y-97385000D01*
X137137500Y-97280875D01*
X137388881Y-97385000D01*
X137711119Y-97385000D01*
X137944822Y-97288197D01*
X138238881Y-97410000D01*
X138561119Y-97410000D01*
X138812500Y-97305875D01*
X139063881Y-97410000D01*
X139386119Y-97410000D01*
X139677158Y-97289448D01*
X139750365Y-97362655D01*
X140094017Y-97505000D01*
X140465983Y-97505000D01*
X140809635Y-97362655D01*
X140850000Y-97322290D01*
X140890365Y-97362655D01*
X141234017Y-97505000D01*
X141605983Y-97505000D01*
X141949635Y-97362655D01*
X141968553Y-97343737D01*
X142188881Y-97435000D01*
X142511119Y-97435000D01*
X142654922Y-97375435D01*
X142691172Y-97411685D01*
X142722352Y-97424600D01*
X142590000Y-97744126D01*
X142590000Y-98155874D01*
X142747569Y-98536280D01*
X143038720Y-98827431D01*
X143254814Y-98916940D01*
X143140000Y-99194126D01*
X143140000Y-99401289D01*
X142886280Y-99147569D01*
X142505874Y-98990000D01*
X142094126Y-98990000D01*
X141713720Y-99147569D01*
X141422569Y-99438720D01*
X141265000Y-99819126D01*
X141265000Y-100230874D01*
X141422569Y-100611280D01*
X141713720Y-100902431D01*
X142094126Y-101060000D01*
X142505874Y-101060000D01*
X142886280Y-100902431D01*
X143177431Y-100611280D01*
X143335000Y-100230874D01*
X143335000Y-100023711D01*
X143588720Y-100277431D01*
X143969126Y-100435000D01*
X144380874Y-100435000D01*
X144627145Y-100332992D01*
X144994126Y-100485000D01*
X145405874Y-100485000D01*
X145786280Y-100327431D01*
X145825000Y-100288711D01*
X145888720Y-100352431D01*
X146269126Y-100510000D01*
X146680874Y-100510000D01*
X147061280Y-100352431D01*
X147200000Y-100213711D01*
X147338720Y-100352431D01*
X147719126Y-100510000D01*
X148130874Y-100510000D01*
X148511280Y-100352431D01*
X148575000Y-100288711D01*
X148663720Y-100377431D01*
X149044126Y-100535000D01*
X149455874Y-100535000D01*
X149836280Y-100377431D01*
X149937500Y-100276211D01*
X150013720Y-100352431D01*
X150394126Y-100510000D01*
X150805874Y-100510000D01*
X151186280Y-100352431D01*
X151477431Y-100061280D01*
X151635000Y-99680874D01*
X151635000Y-99269126D01*
X151477431Y-98888720D01*
X151186280Y-98597569D01*
X150805874Y-98440000D01*
X150394126Y-98440000D01*
X150013720Y-98597569D01*
X149912500Y-98698789D01*
X149836280Y-98622569D01*
X149455874Y-98465000D01*
X149044126Y-98465000D01*
X148663720Y-98622569D01*
X148600000Y-98686289D01*
X148511280Y-98597569D01*
X148267230Y-98496481D01*
X148502431Y-98261280D01*
X148660000Y-97880874D01*
X148660000Y-97469126D01*
X148502431Y-97088720D01*
X148211280Y-96797569D01*
X147830874Y-96640000D01*
X147419126Y-96640000D01*
X147038720Y-96797569D01*
X146747569Y-97088720D01*
X146590000Y-97469126D01*
X146590000Y-97880874D01*
X146747569Y-98261280D01*
X147038720Y-98552431D01*
X147282770Y-98653519D01*
X147200000Y-98736289D01*
X147061280Y-98597569D01*
X146680874Y-98440000D01*
X146269126Y-98440000D01*
X145888720Y-98597569D01*
X145850000Y-98636289D01*
X145786280Y-98572569D01*
X145405874Y-98415000D01*
X144994126Y-98415000D01*
X144747855Y-98517008D01*
X144545186Y-98433060D01*
X144660000Y-98155874D01*
X144660000Y-97744126D01*
X144562287Y-97508226D01*
X144711685Y-97358828D01*
X144835000Y-97061119D01*
X144835000Y-96738881D01*
X144711685Y-96441172D01*
X144483828Y-96213315D01*
X144186119Y-96090000D01*
X143863881Y-96090000D01*
X143720078Y-96149565D01*
X143608828Y-96038315D01*
X143311119Y-95915000D01*
X142988881Y-95915000D01*
X142845078Y-95974565D01*
X142808828Y-95938315D01*
X142511119Y-95815000D01*
X142188881Y-95815000D01*
X142046335Y-95874045D01*
X141949635Y-95777345D01*
X141605983Y-95635000D01*
X141234017Y-95635000D01*
X140890365Y-95777345D01*
X140850000Y-95817710D01*
X140809635Y-95777345D01*
X140465983Y-95635000D01*
X140094017Y-95635000D01*
X139750365Y-95777345D01*
X139634731Y-95892979D01*
X139386119Y-95790000D01*
X139063881Y-95790000D01*
X138812500Y-95894125D01*
X138561119Y-95790000D01*
X138238881Y-95790000D01*
X138005178Y-95886803D01*
X137711119Y-95765000D01*
X137388881Y-95765000D01*
X137137500Y-95869125D01*
X136886119Y-95765000D01*
X136563881Y-95765000D01*
X136311733Y-95869443D01*
X136229635Y-95787345D01*
X135885983Y-95645000D01*
X135514017Y-95645000D01*
X135170365Y-95787345D01*
X135130000Y-95827710D01*
X135089635Y-95787345D01*
X134745983Y-95645000D01*
X134374017Y-95645000D01*
X134030365Y-95787345D01*
X133819112Y-95998599D01*
X133633828Y-95813315D01*
X133336119Y-95690000D01*
X133013881Y-95690000D01*
X132716172Y-95813315D01*
X132623856Y-95905631D01*
X132586119Y-95890000D01*
X132263881Y-95890000D01*
X131966172Y-96013315D01*
X131816534Y-96162953D01*
X131761119Y-96140000D01*
X131438881Y-96140000D01*
X131141172Y-96263315D01*
X131119567Y-96284920D01*
X131011119Y-96240000D01*
X130688881Y-96240000D01*
X130391172Y-96363315D01*
X130275633Y-96478854D01*
X130061119Y-96390000D01*
X129738881Y-96390000D01*
X129660979Y-96422268D01*
X129586280Y-96347569D01*
X129205874Y-96190000D01*
X128794126Y-96190000D01*
X128413720Y-96347569D01*
X128300000Y-96461289D01*
X128186280Y-96347569D01*
X127805874Y-96190000D01*
X127394126Y-96190000D01*
X127013720Y-96347569D01*
X126975000Y-96386289D01*
X126861280Y-96272569D01*
X126480874Y-96115000D01*
X126069126Y-96115000D01*
X125688720Y-96272569D01*
X125575000Y-96386289D01*
X125461280Y-96272569D01*
X125080874Y-96115000D01*
X124669126Y-96115000D01*
X124288720Y-96272569D01*
X124250000Y-96311289D01*
X124211280Y-96272569D01*
X123830874Y-96115000D01*
X123419126Y-96115000D01*
X123038720Y-96272569D01*
X122747569Y-96563720D01*
X122590000Y-96944126D01*
X121269585Y-96944126D01*
X121427431Y-96786280D01*
X121585000Y-96405874D01*
X121585000Y-95994126D01*
X121427431Y-95613720D01*
X121136280Y-95322569D01*
X120946902Y-95244126D01*
X149065000Y-95244126D01*
X149065000Y-95655874D01*
X149222569Y-96036280D01*
X149513720Y-96327431D01*
X149894126Y-96485000D01*
X150305874Y-96485000D01*
X150686280Y-96327431D01*
X150977431Y-96036280D01*
X151135000Y-95655874D01*
X151135000Y-95244126D01*
X150977431Y-94863720D01*
X150686280Y-94572569D01*
X150305874Y-94415000D01*
X149894126Y-94415000D01*
X149513720Y-94572569D01*
X149222569Y-94863720D01*
X149065000Y-95244126D01*
X120946902Y-95244126D01*
X120755874Y-95165000D01*
X120344126Y-95165000D01*
X119963720Y-95322569D01*
X119672569Y-95613720D01*
X119515000Y-95994126D01*
X119197869Y-95994126D01*
X119102431Y-95763720D01*
X118811280Y-95472569D01*
X118430874Y-95315000D01*
X118019126Y-95315000D01*
X117638720Y-95472569D01*
X117347569Y-95763720D01*
X117190000Y-96144126D01*
X116635000Y-96144126D01*
X116635000Y-95944126D01*
X116477431Y-95563720D01*
X116186280Y-95272569D01*
X115805874Y-95115000D01*
X115394126Y-95115000D01*
X115013720Y-95272569D01*
X114722569Y-95563720D01*
X114565000Y-95944126D01*
X113735000Y-95944126D01*
X113735000Y-95819126D01*
X113577431Y-95438720D01*
X113286280Y-95147569D01*
X112935194Y-95002145D01*
X113236280Y-94877431D01*
X113527431Y-94586280D01*
X113685000Y-94205874D01*
X113685000Y-93794126D01*
X113527431Y-93413720D01*
X113236280Y-93122569D01*
X112855874Y-92965000D01*
X112444126Y-92965000D01*
X112063720Y-93122569D01*
X111772569Y-93413720D01*
X111615000Y-93794126D01*
X111604510Y-93794126D01*
X111610000Y-93780874D01*
X111610000Y-93369126D01*
X111452431Y-92988720D01*
X111161280Y-92697569D01*
X110780874Y-92540000D01*
X110369126Y-92540000D01*
X109988720Y-92697569D01*
X109949854Y-92736435D01*
X110035000Y-92530874D01*
X110035000Y-92119126D01*
X109877431Y-91738720D01*
X109648711Y-91510000D01*
X109886119Y-91510000D01*
X110044822Y-91444263D01*
X110263881Y-91535000D01*
X110489487Y-91535000D01*
X110641172Y-91686685D01*
X110835751Y-91767282D01*
X110863315Y-91833828D01*
X111091172Y-92061685D01*
X111388881Y-92185000D01*
X111711119Y-92185000D01*
X111864645Y-92121408D01*
X112138881Y-92235000D01*
X112461119Y-92235000D01*
X112712500Y-92130875D01*
X112963881Y-92235000D01*
X113286119Y-92235000D01*
X113469822Y-92158908D01*
X113713881Y-92260000D01*
X113841608Y-92260000D01*
X113840000Y-92263881D01*
X113840000Y-92586119D01*
X113963315Y-92883828D01*
X114191172Y-93111685D01*
X114488881Y-93235000D01*
X114714196Y-93235000D01*
X114797569Y-93436280D01*
X115088720Y-93727431D01*
X115469126Y-93885000D01*
X115880874Y-93885000D01*
X116261280Y-93727431D01*
X116552431Y-93436280D01*
X116621668Y-93269126D01*
X117165000Y-93269126D01*
X117165000Y-93680874D01*
X117322569Y-94061280D01*
X117613720Y-94352431D01*
X117994126Y-94510000D01*
X118405874Y-94510000D01*
X118786280Y-94352431D01*
X119077431Y-94061280D01*
X119235000Y-93680874D01*
X119235000Y-93419126D01*
X119465000Y-93419126D01*
X119465000Y-93830874D01*
X119622569Y-94211280D01*
X119913720Y-94502431D01*
X120294126Y-94660000D01*
X120705874Y-94660000D01*
X121086280Y-94502431D01*
X121377431Y-94211280D01*
X121535000Y-93830874D01*
X121535000Y-93419126D01*
X121377431Y-93038720D01*
X121086280Y-92747569D01*
X120705874Y-92590000D01*
X120294126Y-92590000D01*
X119913720Y-92747569D01*
X119622569Y-93038720D01*
X119465000Y-93419126D01*
X119235000Y-93419126D01*
X119235000Y-93269126D01*
X119077431Y-92888720D01*
X118786280Y-92597569D01*
X118405874Y-92440000D01*
X117994126Y-92440000D01*
X117613720Y-92597569D01*
X117322569Y-92888720D01*
X117165000Y-93269126D01*
X116621668Y-93269126D01*
X116710000Y-93055874D01*
X116710000Y-92644126D01*
X116654443Y-92510000D01*
X116861119Y-92510000D01*
X117158828Y-92386685D01*
X117386685Y-92158828D01*
X117510000Y-91861119D01*
X117510000Y-91538881D01*
X117435790Y-91359723D01*
X117461685Y-91333828D01*
X117492266Y-91260000D01*
X117511119Y-91260000D01*
X117654922Y-91200435D01*
X117691172Y-91236685D01*
X117988881Y-91360000D01*
X118311119Y-91360000D01*
X118419567Y-91315080D01*
X118441172Y-91336685D01*
X118738881Y-91460000D01*
X119061119Y-91460000D01*
X119187244Y-91407757D01*
X119191172Y-91411685D01*
X119488881Y-91535000D01*
X119811119Y-91535000D01*
X119937244Y-91482757D01*
X119941172Y-91486685D01*
X120238881Y-91610000D01*
X120561119Y-91610000D01*
X120598856Y-91594369D01*
X120641172Y-91636685D01*
X120938881Y-91760000D01*
X121261119Y-91760000D01*
X121387244Y-91707757D01*
X121441172Y-91761685D01*
X121738881Y-91885000D01*
X122061119Y-91885000D01*
X122358828Y-91761685D01*
X122586685Y-91533828D01*
X122710000Y-91236119D01*
X122710000Y-90913881D01*
X122586685Y-90616172D01*
X122358828Y-90388315D01*
X122061119Y-90265000D01*
X121738881Y-90265000D01*
X121612756Y-90317243D01*
X121558828Y-90263315D01*
X121261119Y-90140000D01*
X120938881Y-90140000D01*
X120901144Y-90155631D01*
X120858828Y-90113315D01*
X120561119Y-89990000D01*
X120238881Y-89990000D01*
X120112756Y-90042243D01*
X120108828Y-90038315D01*
X119811119Y-89915000D01*
X119488881Y-89915000D01*
X119362756Y-89967243D01*
X119358828Y-89963315D01*
X119061119Y-89840000D01*
X118738881Y-89840000D01*
X118630433Y-89884920D01*
X118608828Y-89863315D01*
X118311119Y-89740000D01*
X117988881Y-89740000D01*
X117845078Y-89799565D01*
X117808828Y-89763315D01*
X117511119Y-89640000D01*
X117188881Y-89640000D01*
X117062500Y-89692349D01*
X116936119Y-89640000D01*
X116613881Y-89640000D01*
X116316172Y-89763315D01*
X116088315Y-89991172D01*
X115965000Y-90288881D01*
X115965000Y-90611119D01*
X115986283Y-90662500D01*
X115965000Y-90713881D01*
X115965000Y-91036119D01*
X116039210Y-91215277D01*
X116013315Y-91241172D01*
X115890000Y-91538881D01*
X115890000Y-91818780D01*
X115880874Y-91815000D01*
X115469126Y-91815000D01*
X115268581Y-91898068D01*
X115268113Y-91897600D01*
X115335000Y-91736119D01*
X115335000Y-91413881D01*
X115211685Y-91116172D01*
X114983828Y-90888315D01*
X114686119Y-90765000D01*
X114363881Y-90765000D01*
X114343822Y-90773309D01*
X114333828Y-90763315D01*
X114036119Y-90640000D01*
X113856763Y-90640000D01*
X113935000Y-90451119D01*
X113935000Y-90128881D01*
X113869189Y-89970000D01*
X113935000Y-89811119D01*
X113935000Y-89488881D01*
X113869189Y-89330000D01*
X113935000Y-89171119D01*
X113935000Y-88848881D01*
X113811685Y-88551172D01*
X113583828Y-88323315D01*
X113286119Y-88200000D01*
X112963881Y-88200000D01*
X112666172Y-88323315D01*
X112438315Y-88551172D01*
X112315000Y-88848881D01*
X112315000Y-89171119D01*
X112380811Y-89330000D01*
X112315000Y-89488881D01*
X112315000Y-89811119D01*
X112380811Y-89970000D01*
X112315000Y-90128881D01*
X112315000Y-90451119D01*
X112382882Y-90615000D01*
X112138881Y-90615000D01*
X111985355Y-90678592D01*
X111814249Y-90607718D01*
X111786685Y-90541172D01*
X111558828Y-90313315D01*
X111261119Y-90190000D01*
X111035513Y-90190000D01*
X110883828Y-90038315D01*
X110586119Y-89915000D01*
X110263881Y-89915000D01*
X110105178Y-89980737D01*
X109886119Y-89890000D01*
X109563881Y-89890000D01*
X109412500Y-89952704D01*
X109261119Y-89890000D01*
X108938881Y-89890000D01*
X108812500Y-89942349D01*
X108686119Y-89890000D01*
X108363881Y-89890000D01*
X108066172Y-90013315D01*
X107838315Y-90241172D01*
X107715000Y-90538881D01*
X107715000Y-90861119D01*
X107838315Y-91158828D01*
X108066172Y-91386685D01*
X108354977Y-91506312D01*
X108122569Y-91738720D01*
X107965000Y-92119126D01*
X107965000Y-92530874D01*
X108057383Y-92753906D01*
X108012500Y-92798789D01*
X107986280Y-92772569D01*
X107605874Y-92615000D01*
X107194126Y-92615000D01*
X106837500Y-92762719D01*
X106480874Y-92615000D01*
X106069126Y-92615000D01*
X105688720Y-92772569D01*
X105675000Y-92786289D01*
X105636280Y-92747569D01*
X105268487Y-92595224D01*
X105527431Y-92336280D01*
X105685000Y-91955874D01*
X105685000Y-91544126D01*
X105527431Y-91163720D01*
X105236280Y-90872569D01*
X104855874Y-90715000D01*
X104444126Y-90715000D01*
X104063720Y-90872569D01*
X103772569Y-91163720D01*
X103615000Y-91544126D01*
X103615000Y-91955874D01*
X103772569Y-92336280D01*
X104026289Y-92590000D01*
X103619126Y-92590000D01*
X103238720Y-92747569D01*
X103212500Y-92773789D01*
X103211280Y-92772569D01*
X102830874Y-92615000D01*
X102419126Y-92615000D01*
X102038720Y-92772569D01*
X102025000Y-92786289D01*
X102011280Y-92772569D01*
X101630874Y-92615000D01*
X101219126Y-92615000D01*
X100838720Y-92772569D01*
X100547569Y-93063720D01*
X100390000Y-93444126D01*
X100203000Y-93444126D01*
X100203000Y-89319126D01*
X101265000Y-89319126D01*
X101265000Y-89730874D01*
X101422569Y-90111280D01*
X101713720Y-90402431D01*
X102094126Y-90560000D01*
X102505874Y-90560000D01*
X102886280Y-90402431D01*
X103177431Y-90111280D01*
X103335000Y-89730874D01*
X103335000Y-89319126D01*
X103177431Y-88938720D01*
X102886280Y-88647569D01*
X102505874Y-88490000D01*
X102094126Y-88490000D01*
X101713720Y-88647569D01*
X101422569Y-88938720D01*
X101265000Y-89319126D01*
X100203000Y-89319126D01*
X100203000Y-84919126D01*
X100490000Y-84919126D01*
X100490000Y-85330874D01*
X100647569Y-85711280D01*
X100938720Y-86002431D01*
X101319126Y-86160000D01*
X101730874Y-86160000D01*
X102111280Y-86002431D01*
X102237500Y-85876211D01*
X102363720Y-86002431D01*
X102744126Y-86160000D01*
X103155874Y-86160000D01*
X103536280Y-86002431D01*
X103575000Y-85963711D01*
X103663720Y-86052431D01*
X104044126Y-86210000D01*
X104069064Y-86210000D01*
X104038720Y-86222569D01*
X103747569Y-86513720D01*
X103590000Y-86894126D01*
X103590000Y-87305874D01*
X103747569Y-87686280D01*
X104038720Y-87977431D01*
X104419126Y-88135000D01*
X104830874Y-88135000D01*
X105211280Y-87977431D01*
X105299830Y-87888881D01*
X107515000Y-87888881D01*
X107515000Y-88211119D01*
X107638315Y-88508828D01*
X107866172Y-88736685D01*
X108163881Y-88860000D01*
X108486119Y-88860000D01*
X108612244Y-88807757D01*
X108641172Y-88836685D01*
X108938881Y-88960000D01*
X109261119Y-88960000D01*
X109414645Y-88896408D01*
X109688881Y-89010000D01*
X110011119Y-89010000D01*
X110275000Y-88900697D01*
X110538881Y-89010000D01*
X110861119Y-89010000D01*
X111158828Y-88886685D01*
X111386685Y-88658828D01*
X111510000Y-88361119D01*
X111510000Y-88038881D01*
X111386685Y-87741172D01*
X111158828Y-87513315D01*
X110861119Y-87390000D01*
X110538881Y-87390000D01*
X110275000Y-87499303D01*
X110011119Y-87390000D01*
X109688881Y-87390000D01*
X109535355Y-87453592D01*
X109261119Y-87340000D01*
X108938881Y-87340000D01*
X108812756Y-87392243D01*
X108783828Y-87363315D01*
X108486119Y-87240000D01*
X108163881Y-87240000D01*
X107866172Y-87363315D01*
X107638315Y-87591172D01*
X107515000Y-87888881D01*
X105299830Y-87888881D01*
X105502431Y-87686280D01*
X105660000Y-87305874D01*
X105660000Y-87069126D01*
X112765000Y-87069126D01*
X112765000Y-87480874D01*
X112922569Y-87861280D01*
X113213720Y-88152431D01*
X113594126Y-88310000D01*
X114005874Y-88310000D01*
X114386280Y-88152431D01*
X114499830Y-88038881D01*
X117415000Y-88038881D01*
X117415000Y-88361119D01*
X117538315Y-88658828D01*
X117766172Y-88886685D01*
X118063881Y-89010000D01*
X118386119Y-89010000D01*
X118542678Y-88945151D01*
X118638881Y-88985000D01*
X118961119Y-88985000D01*
X119253033Y-88864085D01*
X119363881Y-88910000D01*
X119686119Y-88910000D01*
X119983828Y-88786685D01*
X120002400Y-88768113D01*
X120163881Y-88835000D01*
X120486119Y-88835000D01*
X120783828Y-88711685D01*
X120798111Y-88697402D01*
X120888881Y-88735000D01*
X121211119Y-88735000D01*
X121508828Y-88611685D01*
X121512756Y-88607757D01*
X121638881Y-88660000D01*
X121961119Y-88660000D01*
X122258828Y-88536685D01*
X122262756Y-88532757D01*
X122388881Y-88585000D01*
X122711119Y-88585000D01*
X122930442Y-88494153D01*
X122988720Y-88552431D01*
X123369126Y-88710000D01*
X123780874Y-88710000D01*
X124161280Y-88552431D01*
X124212500Y-88501211D01*
X124238720Y-88527431D01*
X124619126Y-88685000D01*
X125030874Y-88685000D01*
X125411280Y-88527431D01*
X125487500Y-88451211D01*
X125538720Y-88502431D01*
X125919126Y-88660000D01*
X126330874Y-88660000D01*
X126711280Y-88502431D01*
X126762500Y-88451211D01*
X126863720Y-88552431D01*
X127244126Y-88710000D01*
X127655874Y-88710000D01*
X128036280Y-88552431D01*
X128050000Y-88538711D01*
X128063720Y-88552431D01*
X128444126Y-88710000D01*
X128855874Y-88710000D01*
X129236280Y-88552431D01*
X129287500Y-88501211D01*
X129363720Y-88577431D01*
X129744126Y-88735000D01*
X129926289Y-88735000D01*
X129722569Y-88938720D01*
X129565000Y-89319126D01*
X129565000Y-89730874D01*
X129722569Y-90111280D01*
X129936289Y-90325000D01*
X129722569Y-90538720D01*
X129615000Y-90798415D01*
X129615000Y-90704017D01*
X129472655Y-90360365D01*
X129209635Y-90097345D01*
X128865983Y-89955000D01*
X128494017Y-89955000D01*
X128150365Y-90097345D01*
X128045000Y-90202710D01*
X127939635Y-90097345D01*
X127595983Y-89955000D01*
X127224017Y-89955000D01*
X126880365Y-90097345D01*
X126775000Y-90202710D01*
X126669635Y-90097345D01*
X126325983Y-89955000D01*
X125954017Y-89955000D01*
X125610365Y-90097345D01*
X125347345Y-90360365D01*
X125205000Y-90704017D01*
X125205000Y-91075983D01*
X125347345Y-91419635D01*
X125567710Y-91640000D01*
X125505000Y-91702710D01*
X125399635Y-91597345D01*
X125055983Y-91455000D01*
X124684017Y-91455000D01*
X124340365Y-91597345D01*
X124235000Y-91702710D01*
X124129635Y-91597345D01*
X123785983Y-91455000D01*
X123414017Y-91455000D01*
X123070365Y-91597345D01*
X122807345Y-91860365D01*
X122665000Y-92204017D01*
X122665000Y-92575983D01*
X122807345Y-92919635D01*
X123027710Y-93140000D01*
X122807345Y-93360365D01*
X122665000Y-93704017D01*
X122665000Y-94075983D01*
X122807345Y-94419635D01*
X123070365Y-94682655D01*
X123414017Y-94825000D01*
X123785983Y-94825000D01*
X124129635Y-94682655D01*
X124235000Y-94577290D01*
X124340365Y-94682655D01*
X124684017Y-94825000D01*
X125055983Y-94825000D01*
X125399635Y-94682655D01*
X125505000Y-94577290D01*
X125610365Y-94682655D01*
X125954017Y-94825000D01*
X126325983Y-94825000D01*
X126669635Y-94682655D01*
X126932655Y-94419635D01*
X127075000Y-94075983D01*
X127075000Y-93704017D01*
X126932655Y-93360365D01*
X126712290Y-93140000D01*
X126775000Y-93077290D01*
X126880365Y-93182655D01*
X127224017Y-93325000D01*
X127595983Y-93325000D01*
X127939635Y-93182655D01*
X128045000Y-93077290D01*
X128150365Y-93182655D01*
X128494017Y-93325000D01*
X128865983Y-93325000D01*
X129132980Y-93214406D01*
X129040000Y-93438881D01*
X129040000Y-93761119D01*
X129163315Y-94058828D01*
X129391172Y-94286685D01*
X129688881Y-94410000D01*
X130011119Y-94410000D01*
X130207955Y-94328468D01*
X130366172Y-94486685D01*
X130663881Y-94610000D01*
X130986119Y-94610000D01*
X131059211Y-94579724D01*
X131141172Y-94661685D01*
X131438881Y-94785000D01*
X131761119Y-94785000D01*
X131940277Y-94710790D01*
X131991172Y-94761685D01*
X132288881Y-94885000D01*
X132611119Y-94885000D01*
X132790277Y-94810790D01*
X132841172Y-94861685D01*
X133138881Y-94985000D01*
X133461119Y-94985000D01*
X133758828Y-94861685D01*
X133839112Y-94781402D01*
X134030365Y-94972655D01*
X134374017Y-95115000D01*
X134745983Y-95115000D01*
X135089635Y-94972655D01*
X135130000Y-94932290D01*
X135170365Y-94972655D01*
X135514017Y-95115000D01*
X135885983Y-95115000D01*
X136229635Y-94972655D01*
X136278389Y-94923902D01*
X136291172Y-94936685D01*
X136588881Y-95060000D01*
X136911119Y-95060000D01*
X137162500Y-94955875D01*
X137413881Y-95060000D01*
X137736119Y-95060000D01*
X138033828Y-94936685D01*
X138037500Y-94933013D01*
X138041172Y-94936685D01*
X138338881Y-95060000D01*
X138661119Y-95060000D01*
X138900000Y-94961052D01*
X139138881Y-95060000D01*
X139461119Y-95060000D01*
X139734480Y-94946770D01*
X139750365Y-94962655D01*
X140094017Y-95105000D01*
X140465983Y-95105000D01*
X140809635Y-94962655D01*
X140850000Y-94922290D01*
X140890365Y-94962655D01*
X141234017Y-95105000D01*
X141605983Y-95105000D01*
X141949635Y-94962655D01*
X142095889Y-94816402D01*
X142191172Y-94911685D01*
X142488881Y-95035000D01*
X142811119Y-95035000D01*
X143108828Y-94911685D01*
X143205433Y-94815080D01*
X143313881Y-94860000D01*
X143636119Y-94860000D01*
X143933828Y-94736685D01*
X144161685Y-94508828D01*
X144285000Y-94211119D01*
X144285000Y-93888881D01*
X144245410Y-93793301D01*
X144477431Y-93561280D01*
X144635000Y-93180874D01*
X144635000Y-92769126D01*
X144477431Y-92388720D01*
X144344007Y-92255296D01*
X144411280Y-92227431D01*
X144525000Y-92113711D01*
X144563720Y-92152431D01*
X144944126Y-92310000D01*
X145355874Y-92310000D01*
X145736280Y-92152431D01*
X145800000Y-92088711D01*
X145913720Y-92202431D01*
X146294126Y-92360000D01*
X146705874Y-92360000D01*
X146911435Y-92274854D01*
X146722569Y-92463720D01*
X146565000Y-92844126D01*
X146565000Y-93255874D01*
X146722569Y-93636280D01*
X147013720Y-93927431D01*
X147394126Y-94085000D01*
X147805874Y-94085000D01*
X148186280Y-93927431D01*
X148477431Y-93636280D01*
X148635000Y-93255874D01*
X148635000Y-92844126D01*
X148477431Y-92463720D01*
X148305619Y-92291908D01*
X148461280Y-92227431D01*
X148562500Y-92126211D01*
X148613720Y-92177431D01*
X148994126Y-92335000D01*
X149405874Y-92335000D01*
X149786280Y-92177431D01*
X149887500Y-92076211D01*
X149988720Y-92177431D01*
X150369126Y-92335000D01*
X150780874Y-92335000D01*
X151161280Y-92177431D01*
X151452431Y-91886280D01*
X151610000Y-91505874D01*
X151610000Y-91094126D01*
X151452431Y-90713720D01*
X151161280Y-90422569D01*
X150780874Y-90265000D01*
X150369126Y-90265000D01*
X149988720Y-90422569D01*
X149887500Y-90523789D01*
X149786280Y-90422569D01*
X149405874Y-90265000D01*
X148994126Y-90265000D01*
X148613720Y-90422569D01*
X148512500Y-90523789D01*
X148461280Y-90472569D01*
X148080874Y-90315000D01*
X147669126Y-90315000D01*
X147288720Y-90472569D01*
X147200000Y-90561289D01*
X147086280Y-90447569D01*
X146705874Y-90290000D01*
X146294126Y-90290000D01*
X145913720Y-90447569D01*
X145850000Y-90511289D01*
X145736280Y-90397569D01*
X145355874Y-90240000D01*
X144944126Y-90240000D01*
X144563720Y-90397569D01*
X144450000Y-90511289D01*
X144411280Y-90472569D01*
X144030874Y-90315000D01*
X143619126Y-90315000D01*
X143238720Y-90472569D01*
X142947569Y-90763720D01*
X142790000Y-91144126D01*
X142790000Y-91555874D01*
X142947569Y-91936280D01*
X143080993Y-92069704D01*
X143013720Y-92097569D01*
X142722569Y-92388720D01*
X142565000Y-92769126D01*
X142565000Y-93180874D01*
X142661978Y-93415000D01*
X142488881Y-93415000D01*
X142191172Y-93538315D01*
X142150889Y-93578599D01*
X141949635Y-93377345D01*
X141605983Y-93235000D01*
X141234017Y-93235000D01*
X140890365Y-93377345D01*
X140850000Y-93417710D01*
X140809635Y-93377345D01*
X140465983Y-93235000D01*
X140094017Y-93235000D01*
X139750365Y-93377345D01*
X139621343Y-93506367D01*
X139461119Y-93440000D01*
X139138881Y-93440000D01*
X138900000Y-93538948D01*
X138661119Y-93440000D01*
X138338881Y-93440000D01*
X138041172Y-93563315D01*
X138037500Y-93566987D01*
X138033828Y-93563315D01*
X137736119Y-93440000D01*
X137413881Y-93440000D01*
X137162500Y-93544125D01*
X136911119Y-93440000D01*
X136588881Y-93440000D01*
X136372088Y-93529798D01*
X136229635Y-93387345D01*
X135885983Y-93245000D01*
X135514017Y-93245000D01*
X135170365Y-93387345D01*
X135130000Y-93427710D01*
X135089635Y-93387345D01*
X134745983Y-93245000D01*
X134374017Y-93245000D01*
X134030365Y-93387345D01*
X133844112Y-93573599D01*
X133758828Y-93488315D01*
X133461119Y-93365000D01*
X133138881Y-93365000D01*
X132959723Y-93439210D01*
X132908828Y-93388315D01*
X132611119Y-93265000D01*
X132288881Y-93265000D01*
X132109723Y-93339210D01*
X132058828Y-93288315D01*
X131761119Y-93165000D01*
X131438881Y-93165000D01*
X131365789Y-93195276D01*
X131354612Y-93184099D01*
X131527431Y-93011280D01*
X131685000Y-92630874D01*
X131685000Y-92219126D01*
X131527431Y-91838720D01*
X131438711Y-91750000D01*
X131477431Y-91711280D01*
X131536312Y-91569126D01*
X132315000Y-91569126D01*
X132315000Y-91980874D01*
X132472569Y-92361280D01*
X132763720Y-92652431D01*
X133144126Y-92810000D01*
X133555874Y-92810000D01*
X133936280Y-92652431D01*
X134227431Y-92361280D01*
X134385000Y-91980874D01*
X134385000Y-91569126D01*
X134364290Y-91519126D01*
X135140000Y-91519126D01*
X135140000Y-91930874D01*
X135297569Y-92311280D01*
X135588720Y-92602431D01*
X135969126Y-92760000D01*
X136380874Y-92760000D01*
X136761280Y-92602431D01*
X137052431Y-92311280D01*
X137210000Y-91930874D01*
X137210000Y-91569126D01*
X138965000Y-91569126D01*
X138965000Y-91980874D01*
X139122569Y-92361280D01*
X139413720Y-92652431D01*
X139794126Y-92810000D01*
X140205874Y-92810000D01*
X140586280Y-92652431D01*
X140877431Y-92361280D01*
X141035000Y-91980874D01*
X141035000Y-91569126D01*
X140877431Y-91188720D01*
X140586280Y-90897569D01*
X140205874Y-90740000D01*
X139794126Y-90740000D01*
X139413720Y-90897569D01*
X139122569Y-91188720D01*
X138965000Y-91569126D01*
X137210000Y-91569126D01*
X137210000Y-91519126D01*
X137052431Y-91138720D01*
X136761280Y-90847569D01*
X136380874Y-90690000D01*
X135969126Y-90690000D01*
X135588720Y-90847569D01*
X135297569Y-91138720D01*
X135140000Y-91519126D01*
X134364290Y-91519126D01*
X134227431Y-91188720D01*
X133936280Y-90897569D01*
X133555874Y-90740000D01*
X133144126Y-90740000D01*
X132763720Y-90897569D01*
X132472569Y-91188720D01*
X132315000Y-91569126D01*
X131536312Y-91569126D01*
X131635000Y-91330874D01*
X131635000Y-90919126D01*
X131477431Y-90538720D01*
X131263711Y-90325000D01*
X131477431Y-90111280D01*
X131635000Y-89730874D01*
X131635000Y-89319126D01*
X131477431Y-88938720D01*
X131186280Y-88647569D01*
X130805874Y-88490000D01*
X130623711Y-88490000D01*
X130827431Y-88286280D01*
X130985000Y-87905874D01*
X130985000Y-87494126D01*
X130827431Y-87113720D01*
X130536280Y-86822569D01*
X130155874Y-86665000D01*
X129744126Y-86665000D01*
X129363720Y-86822569D01*
X129312500Y-86873789D01*
X129236280Y-86797569D01*
X128855874Y-86640000D01*
X128444126Y-86640000D01*
X128063720Y-86797569D01*
X128050000Y-86811289D01*
X128036280Y-86797569D01*
X127655874Y-86640000D01*
X127244126Y-86640000D01*
X126863720Y-86797569D01*
X126812500Y-86848789D01*
X126711280Y-86747569D01*
X126330874Y-86590000D01*
X125919126Y-86590000D01*
X125538720Y-86747569D01*
X125462500Y-86823789D01*
X125411280Y-86772569D01*
X125030874Y-86615000D01*
X124619126Y-86615000D01*
X124238720Y-86772569D01*
X124187500Y-86823789D01*
X124161280Y-86797569D01*
X123780874Y-86640000D01*
X123369126Y-86640000D01*
X122988720Y-86797569D01*
X122789021Y-86997268D01*
X122711119Y-86965000D01*
X122388881Y-86965000D01*
X122091172Y-87088315D01*
X122087244Y-87092243D01*
X121961119Y-87040000D01*
X121638881Y-87040000D01*
X121341172Y-87163315D01*
X121337244Y-87167243D01*
X121211119Y-87115000D01*
X120888881Y-87115000D01*
X120591172Y-87238315D01*
X120576889Y-87252598D01*
X120486119Y-87215000D01*
X120163881Y-87215000D01*
X119866172Y-87338315D01*
X119847600Y-87356887D01*
X119686119Y-87290000D01*
X119363881Y-87290000D01*
X119071967Y-87410915D01*
X118961119Y-87365000D01*
X118638881Y-87365000D01*
X118482322Y-87429849D01*
X118386119Y-87390000D01*
X118063881Y-87390000D01*
X117766172Y-87513315D01*
X117538315Y-87741172D01*
X117415000Y-88038881D01*
X114499830Y-88038881D01*
X114677431Y-87861280D01*
X114835000Y-87480874D01*
X114835000Y-87069126D01*
X114677431Y-86688720D01*
X114386280Y-86397569D01*
X114295581Y-86360000D01*
X139709908Y-86360000D01*
X139825161Y-86939418D01*
X140153375Y-87430625D01*
X140644582Y-87758839D01*
X141077744Y-87845000D01*
X141370256Y-87845000D01*
X141803418Y-87758839D01*
X142190000Y-87500533D01*
X142190000Y-87905874D01*
X142224486Y-87989131D01*
X142105874Y-87940000D01*
X141694126Y-87940000D01*
X141313720Y-88097569D01*
X141022569Y-88388720D01*
X140865000Y-88769126D01*
X140865000Y-89180874D01*
X141022569Y-89561280D01*
X141313720Y-89852431D01*
X141694126Y-90010000D01*
X142105874Y-90010000D01*
X142486280Y-89852431D01*
X142525000Y-89813711D01*
X142588720Y-89877431D01*
X142969126Y-90035000D01*
X143380874Y-90035000D01*
X143761280Y-89877431D01*
X143800000Y-89838711D01*
X143888720Y-89927431D01*
X144269126Y-90085000D01*
X144680874Y-90085000D01*
X145061280Y-89927431D01*
X145352431Y-89636280D01*
X145510000Y-89255874D01*
X145510000Y-88844126D01*
X145352431Y-88463720D01*
X145301211Y-88412500D01*
X145377431Y-88336280D01*
X145535000Y-87955874D01*
X145535000Y-87544126D01*
X145514290Y-87494126D01*
X147365000Y-87494126D01*
X147365000Y-87905874D01*
X147522569Y-88286280D01*
X147813720Y-88577431D01*
X148194126Y-88735000D01*
X148605874Y-88735000D01*
X148986280Y-88577431D01*
X149277431Y-88286280D01*
X149435000Y-87905874D01*
X149435000Y-87494126D01*
X149277431Y-87113720D01*
X148986280Y-86822569D01*
X148605874Y-86665000D01*
X148194126Y-86665000D01*
X147813720Y-86822569D01*
X147522569Y-87113720D01*
X147365000Y-87494126D01*
X145514290Y-87494126D01*
X145377431Y-87163720D01*
X145301211Y-87087500D01*
X145402431Y-86986280D01*
X145560000Y-86605874D01*
X145560000Y-86194126D01*
X145402431Y-85813720D01*
X145111280Y-85522569D01*
X144730874Y-85365000D01*
X144319126Y-85365000D01*
X143938720Y-85522569D01*
X143887500Y-85573789D01*
X143811280Y-85497569D01*
X143430874Y-85340000D01*
X143019126Y-85340000D01*
X142638720Y-85497569D01*
X142515841Y-85620448D01*
X142294625Y-85289375D01*
X141803418Y-84961161D01*
X141370256Y-84875000D01*
X141077744Y-84875000D01*
X140644582Y-84961161D01*
X140153375Y-85289375D01*
X139825161Y-85780582D01*
X139709908Y-86360000D01*
X114295581Y-86360000D01*
X114005874Y-86240000D01*
X113594126Y-86240000D01*
X113213720Y-86397569D01*
X112922569Y-86688720D01*
X112765000Y-87069126D01*
X105660000Y-87069126D01*
X105660000Y-86894126D01*
X105502431Y-86513720D01*
X105211280Y-86222569D01*
X104830874Y-86065000D01*
X104805936Y-86065000D01*
X104836280Y-86052431D01*
X104862500Y-86026211D01*
X104888720Y-86052431D01*
X105269126Y-86210000D01*
X105680874Y-86210000D01*
X106061280Y-86052431D01*
X106125000Y-85988711D01*
X106213720Y-86077431D01*
X106594126Y-86235000D01*
X107005874Y-86235000D01*
X107386280Y-86077431D01*
X107425000Y-86038711D01*
X107488720Y-86102431D01*
X107869126Y-86260000D01*
X108228841Y-86260000D01*
X108322569Y-86486280D01*
X108613720Y-86777431D01*
X108994126Y-86935000D01*
X109405874Y-86935000D01*
X109786280Y-86777431D01*
X110077431Y-86486280D01*
X110235000Y-86105874D01*
X110235000Y-85694126D01*
X110077431Y-85313720D01*
X109786280Y-85022569D01*
X109657257Y-84969126D01*
X118765000Y-84969126D01*
X118765000Y-85380874D01*
X118922569Y-85761280D01*
X119213720Y-86052431D01*
X119594126Y-86210000D01*
X120005874Y-86210000D01*
X120386280Y-86052431D01*
X120677431Y-85761280D01*
X120835000Y-85380874D01*
X120835000Y-84969126D01*
X122640000Y-84969126D01*
X122640000Y-85380874D01*
X122797569Y-85761280D01*
X123088720Y-86052431D01*
X123469126Y-86210000D01*
X123880874Y-86210000D01*
X124261280Y-86052431D01*
X124552431Y-85761280D01*
X124710000Y-85380874D01*
X124710000Y-84969126D01*
X125890000Y-84969126D01*
X125890000Y-85380874D01*
X126047569Y-85761280D01*
X126338720Y-86052431D01*
X126719126Y-86210000D01*
X127130874Y-86210000D01*
X127511280Y-86052431D01*
X127802431Y-85761280D01*
X127960000Y-85380874D01*
X127960000Y-85069126D01*
X129015000Y-85069126D01*
X129015000Y-85480874D01*
X129172569Y-85861280D01*
X129463720Y-86152431D01*
X129844126Y-86310000D01*
X130255874Y-86310000D01*
X130636280Y-86152431D01*
X130927431Y-85861280D01*
X131085000Y-85480874D01*
X131085000Y-85069126D01*
X130927431Y-84688720D01*
X130636280Y-84397569D01*
X130255874Y-84240000D01*
X129844126Y-84240000D01*
X129463720Y-84397569D01*
X129172569Y-84688720D01*
X129015000Y-85069126D01*
X127960000Y-85069126D01*
X127960000Y-84969126D01*
X127802431Y-84588720D01*
X127511280Y-84297569D01*
X127130874Y-84140000D01*
X126719126Y-84140000D01*
X126338720Y-84297569D01*
X126047569Y-84588720D01*
X125890000Y-84969126D01*
X124710000Y-84969126D01*
X124552431Y-84588720D01*
X124261280Y-84297569D01*
X123880874Y-84140000D01*
X123469126Y-84140000D01*
X123088720Y-84297569D01*
X122797569Y-84588720D01*
X122640000Y-84969126D01*
X120835000Y-84969126D01*
X120677431Y-84588720D01*
X120386280Y-84297569D01*
X120005874Y-84140000D01*
X119594126Y-84140000D01*
X119213720Y-84297569D01*
X118922569Y-84588720D01*
X118765000Y-84969126D01*
X109657257Y-84969126D01*
X109405874Y-84865000D01*
X109046159Y-84865000D01*
X108952431Y-84638720D01*
X108661280Y-84347569D01*
X108280874Y-84190000D01*
X107869126Y-84190000D01*
X107488720Y-84347569D01*
X107450000Y-84386289D01*
X107386280Y-84322569D01*
X107005874Y-84165000D01*
X106594126Y-84165000D01*
X106213720Y-84322569D01*
X106150000Y-84386289D01*
X106061280Y-84297569D01*
X105680874Y-84140000D01*
X105269126Y-84140000D01*
X104888720Y-84297569D01*
X104862500Y-84323789D01*
X104836280Y-84297569D01*
X104455874Y-84140000D01*
X104044126Y-84140000D01*
X103663720Y-84297569D01*
X103625000Y-84336289D01*
X103536280Y-84247569D01*
X103155874Y-84090000D01*
X102744126Y-84090000D01*
X102363720Y-84247569D01*
X102237500Y-84373789D01*
X102111280Y-84247569D01*
X101730874Y-84090000D01*
X101319126Y-84090000D01*
X100938720Y-84247569D01*
X100647569Y-84538720D01*
X100490000Y-84919126D01*
X100203000Y-84919126D01*
X100203000Y-82169000D01*
X123107692Y-82169000D01*
X123038720Y-82197569D01*
G04 #@! TD*
M02*
