G04 #@! TF.GenerationSoftware,KiCad,Pcbnew,(5.0.1)-4*
G04 #@! TF.CreationDate,2019-05-20T12:55:45-07:00*
G04 #@! TF.ProjectId,Tripler_circuit,547269706C65725F636972637569742E,rev?*
G04 #@! TF.SameCoordinates,Original*
G04 #@! TF.FileFunction,Copper,L4,Bot,Signal*
G04 #@! TF.FilePolarity,Positive*
%FSLAX46Y46*%
G04 Gerber Fmt 4.6, Leading zero omitted, Abs format (unit mm)*
G04 Created by KiCad (PCBNEW (5.0.1)-4) date 5/20/2019 12:55:45 PM*
%MOMM*%
%LPD*%
G01*
G04 APERTURE LIST*
G04 #@! TA.AperFunction,ViaPad*
%ADD10C,0.600000*%
G04 #@! TD*
G04 #@! TA.AperFunction,ComponentPad*
%ADD11C,0.600000*%
G04 #@! TD*
G04 #@! TA.AperFunction,ComponentPad*
%ADD12C,0.350000*%
G04 #@! TD*
G04 #@! TA.AperFunction,ComponentPad*
%ADD13R,1.700000X1.700000*%
G04 #@! TD*
G04 #@! TA.AperFunction,ComponentPad*
%ADD14O,1.700000X1.700000*%
G04 #@! TD*
G04 #@! TA.AperFunction,ViaPad*
%ADD15C,0.800000*%
G04 #@! TD*
G04 #@! TA.AperFunction,ViaPad*
%ADD16C,0.350000*%
G04 #@! TD*
G04 #@! TA.AperFunction,Conductor*
%ADD17C,0.250000*%
G04 #@! TD*
G04 #@! TA.AperFunction,Conductor*
%ADD18C,0.254000*%
G04 #@! TD*
G04 APERTURE END LIST*
D10*
G04 #@! TO.N,GND*
G04 #@! TO.C,U1*
X126140000Y-90890000D03*
X127410000Y-90890000D03*
X128680000Y-90890000D03*
X128680000Y-92390000D03*
X127410000Y-92390000D03*
X126140000Y-92390000D03*
X124870000Y-92390000D03*
X123600000Y-92390000D03*
X123600000Y-93890000D03*
X124870000Y-93890000D03*
X126140000Y-93890000D03*
G04 #@! TD*
D11*
G04 #@! TO.P,U3,2*
G04 #@! TO.N,GND*
X134560000Y-96580000D03*
X135700000Y-96580000D03*
G04 #@! TO.P,U3,4*
X134560000Y-94180000D03*
X135700000Y-94180000D03*
G04 #@! TD*
G04 #@! TO.P,U5,4*
G04 #@! TO.N,GND*
X141420000Y-94170000D03*
X140280000Y-94170000D03*
G04 #@! TO.P,U5,2*
X141420000Y-96570000D03*
X140280000Y-96570000D03*
G04 #@! TD*
D12*
G04 #@! TO.P,U2,9*
G04 #@! TO.N,GND*
X113125000Y-90290000D03*
X113125000Y-89650000D03*
X113125000Y-89010000D03*
G04 #@! TD*
D13*
G04 #@! TO.P,J1,1*
G04 #@! TO.N,+5V*
X138684000Y-86360000D03*
D14*
G04 #@! TO.P,J1,2*
G04 #@! TO.N,GND*
X141224000Y-86360000D03*
G04 #@! TD*
D15*
G04 #@! TO.N,+5V*
X136800000Y-86375000D03*
X135400000Y-86375000D03*
X135400000Y-87650000D03*
X136800000Y-87650000D03*
X136775000Y-89050000D03*
X135425000Y-89050000D03*
X134025000Y-89050000D03*
X134025000Y-87750000D03*
X134025000Y-86425000D03*
X116925000Y-87125000D03*
X116925000Y-86000000D03*
X116900000Y-84750000D03*
X112000000Y-84925000D03*
X112000000Y-83875000D03*
X112875000Y-84400000D03*
G04 #@! TO.N,GND*
X147600000Y-93050000D03*
X150100000Y-95450000D03*
X147625000Y-97675000D03*
X129000000Y-97225000D03*
X126275000Y-97150000D03*
X123625000Y-97150000D03*
X126125000Y-87625000D03*
X102300000Y-89525000D03*
X104625000Y-87100000D03*
X104650000Y-91750000D03*
X141900000Y-88975000D03*
X143175000Y-89000000D03*
X144475000Y-89050000D03*
X144500000Y-87750000D03*
X143225000Y-87700000D03*
X143225000Y-86375000D03*
X144525000Y-86400000D03*
X101525000Y-85125000D03*
X102950000Y-85125000D03*
X104250000Y-85175000D03*
X105475000Y-85175000D03*
X106800000Y-85200000D03*
X108075000Y-85225000D03*
X109200000Y-85900000D03*
X101425000Y-93650000D03*
X102625000Y-93650000D03*
X103825000Y-93625000D03*
X105050000Y-93625000D03*
X106275000Y-93650000D03*
X107400000Y-93650000D03*
X108675000Y-93600000D03*
X109000000Y-92325000D03*
X124825000Y-87650000D03*
X123575000Y-87675000D03*
X127450000Y-87675000D03*
X128650000Y-87675000D03*
X129950000Y-87700000D03*
X124875000Y-97150000D03*
X127600000Y-97225000D03*
X130600000Y-89525000D03*
X130600000Y-91125000D03*
X130650000Y-92425000D03*
X143825000Y-91350000D03*
X145150000Y-91275000D03*
X146500000Y-91325000D03*
X147875000Y-91350000D03*
X149200000Y-91300000D03*
X150575000Y-91300000D03*
X144175000Y-99400000D03*
X145200000Y-99450000D03*
X146475000Y-99475000D03*
X147925000Y-99475000D03*
X149250000Y-99500000D03*
X150600000Y-99475000D03*
X143625000Y-97950000D03*
X143600000Y-92975000D03*
X115675000Y-92850000D03*
X113800000Y-87275000D03*
D16*
X108525000Y-90700000D03*
X109100000Y-90700000D03*
X109725000Y-90700000D03*
X110425000Y-90725000D03*
X111100000Y-91000000D03*
X111550000Y-91375000D03*
X112300000Y-91425000D03*
X113125000Y-91425000D03*
X113875000Y-91450000D03*
X114525000Y-91575000D03*
X114650000Y-92425000D03*
X108325000Y-88050000D03*
X109100000Y-88150000D03*
X109850000Y-88200000D03*
X110700000Y-88200000D03*
X116700000Y-91700000D03*
X116775000Y-90875000D03*
X116775000Y-90450000D03*
X117350000Y-90450000D03*
X118150000Y-90550000D03*
X118900000Y-90650000D03*
X119650000Y-90725000D03*
X120400000Y-90800000D03*
X121100000Y-90950000D03*
X121900000Y-91075000D03*
X121900000Y-91075000D03*
X122550000Y-87775000D03*
X121800000Y-87850000D03*
X121050000Y-87925000D03*
X120325000Y-88025000D03*
X119525000Y-88100000D03*
X118800000Y-88175000D03*
X118225000Y-88200000D03*
X133300000Y-94175000D03*
X132450000Y-94075000D03*
X131600000Y-93975000D03*
X130825000Y-93800000D03*
X129850000Y-93600000D03*
X133175000Y-96500000D03*
X132425000Y-96700000D03*
X131600000Y-96950000D03*
X130850000Y-97050000D03*
X129900000Y-97200000D03*
X136750000Y-94250000D03*
X137575000Y-94250000D03*
X138500000Y-94250000D03*
X139300000Y-94250000D03*
X136725000Y-96575000D03*
X137550000Y-96575000D03*
X138400000Y-96600000D03*
X139225000Y-96600000D03*
X142650000Y-94225000D03*
X143475000Y-94050000D03*
X142350000Y-96625000D03*
X143150000Y-96725000D03*
X144025000Y-96900000D03*
D15*
X110575000Y-93575000D03*
X110525000Y-95950000D03*
X112700000Y-96025000D03*
X112650000Y-94000000D03*
X115600000Y-96150000D03*
X148400000Y-87700000D03*
X148400000Y-84450000D03*
X144125000Y-83625000D03*
X137800000Y-83175000D03*
X133725000Y-83175000D03*
X129575000Y-83175000D03*
X123625000Y-83075000D03*
X123675000Y-85175000D03*
X126925000Y-85175000D03*
X126800000Y-83050000D03*
X130050000Y-85275000D03*
X119800000Y-85175000D03*
X133350000Y-91775000D03*
X136175000Y-91725000D03*
X140000000Y-91775000D03*
X130000000Y-99650000D03*
X126975000Y-99650000D03*
X123775000Y-100725000D03*
X118325000Y-100775000D03*
X120500000Y-93625000D03*
X120550000Y-96200000D03*
X120775000Y-100900000D03*
X118225000Y-98600000D03*
X120550000Y-98650000D03*
X118200000Y-93475000D03*
X118225000Y-96350000D03*
X139825000Y-98750000D03*
X133150000Y-98650000D03*
X133000000Y-101000000D03*
X136350000Y-100900000D03*
X142300000Y-100025000D03*
X136300000Y-98700000D03*
X139875000Y-101000000D03*
G04 #@! TD*
D17*
G04 #@! TO.N,GND*
X141890000Y-86360000D02*
X141900000Y-86350000D01*
X141925000Y-88950000D02*
X141900000Y-88975000D01*
X143175000Y-89000000D02*
X144425000Y-89000000D01*
X144425000Y-89000000D02*
X144475000Y-89050000D01*
X144500000Y-87750000D02*
X143275000Y-87750000D01*
X143275000Y-87750000D02*
X143225000Y-87700000D01*
X143225000Y-86375000D02*
X144500000Y-86375000D01*
X144500000Y-86375000D02*
X144525000Y-86400000D01*
X101525000Y-85125000D02*
X102950000Y-85125000D01*
X104250000Y-85175000D02*
X105475000Y-85175000D01*
X106800000Y-85200000D02*
X108050000Y-85200000D01*
X108050000Y-85200000D02*
X108075000Y-85225000D01*
X101425000Y-93650000D02*
X102625000Y-93650000D01*
X103825000Y-93625000D02*
X105050000Y-93625000D01*
X106275000Y-93650000D02*
X107400000Y-93650000D01*
X108675000Y-93600000D02*
X108675000Y-92650000D01*
X108675000Y-92650000D02*
X109000000Y-92325000D01*
X124825000Y-87650000D02*
X123600000Y-87650000D01*
X123600000Y-87650000D02*
X123575000Y-87675000D01*
X127450000Y-87675000D02*
X128650000Y-87675000D01*
X126275000Y-97150000D02*
X124875000Y-97150000D01*
X124875000Y-97150000D02*
X123625000Y-97150000D01*
X130600000Y-89525000D02*
X130600000Y-91125000D01*
X143825000Y-91350000D02*
X145075000Y-91350000D01*
X145075000Y-91350000D02*
X145150000Y-91275000D01*
X146500000Y-91325000D02*
X147850000Y-91325000D01*
X147850000Y-91325000D02*
X147875000Y-91350000D01*
X149200000Y-91300000D02*
X150575000Y-91300000D01*
X144175000Y-99400000D02*
X145150000Y-99400000D01*
X145150000Y-99400000D02*
X145200000Y-99450000D01*
X146475000Y-99475000D02*
X147925000Y-99475000D01*
X149250000Y-99500000D02*
X150575000Y-99500000D01*
X150575000Y-99500000D02*
X150600000Y-99475000D01*
X143825000Y-91350000D02*
X143825000Y-92750000D01*
X143825000Y-92750000D02*
X143600000Y-92975000D01*
X108525000Y-90700000D02*
X109100000Y-90700000D01*
X109725000Y-90700000D02*
X110400000Y-90700000D01*
X110400000Y-90700000D02*
X110425000Y-90725000D01*
X111100000Y-91000000D02*
X111175000Y-91000000D01*
X111175000Y-91000000D02*
X111550000Y-91375000D01*
X112300000Y-91425000D02*
X113125000Y-91425000D01*
X114700000Y-91450000D02*
X114775000Y-91375000D01*
X114525000Y-91575000D02*
X114525000Y-92300000D01*
X114525000Y-92300000D02*
X114650000Y-92425000D01*
X108325000Y-88050000D02*
X109000000Y-88050000D01*
X109000000Y-88050000D02*
X109100000Y-88150000D01*
X109850000Y-88200000D02*
X110700000Y-88200000D01*
X116700000Y-91700000D02*
X116700000Y-90950000D01*
X116700000Y-90950000D02*
X116775000Y-90875000D01*
X116775000Y-90450000D02*
X117350000Y-90450000D01*
X118150000Y-90550000D02*
X118800000Y-90550000D01*
X118800000Y-90550000D02*
X118900000Y-90650000D01*
X119650000Y-90725000D02*
X120325000Y-90725000D01*
X120325000Y-90725000D02*
X120400000Y-90800000D01*
X121100000Y-90950000D02*
X121775000Y-90950000D01*
X121775000Y-90950000D02*
X121900000Y-91075000D01*
X122550000Y-87775000D02*
X121875000Y-87775000D01*
X121875000Y-87775000D02*
X121800000Y-87850000D01*
X121050000Y-87925000D02*
X120425000Y-87925000D01*
X120425000Y-87925000D02*
X120325000Y-88025000D01*
X119525000Y-88100000D02*
X118875000Y-88100000D01*
X118875000Y-88100000D02*
X118800000Y-88175000D01*
X133300000Y-94175000D02*
X132550000Y-94175000D01*
X132550000Y-94175000D02*
X132450000Y-94075000D01*
X131600000Y-93975000D02*
X131000000Y-93975000D01*
X131000000Y-93975000D02*
X130825000Y-93800000D01*
X133175000Y-96500000D02*
X132625000Y-96500000D01*
X132625000Y-96500000D02*
X132425000Y-96700000D01*
X131600000Y-96950000D02*
X130950000Y-96950000D01*
X130950000Y-96950000D02*
X130850000Y-97050000D01*
X136750000Y-94250000D02*
X137575000Y-94250000D01*
X138500000Y-94250000D02*
X139300000Y-94250000D01*
X136725000Y-96575000D02*
X137550000Y-96575000D01*
X138400000Y-96600000D02*
X139225000Y-96600000D01*
X142650000Y-94225000D02*
X143300000Y-94225000D01*
X143300000Y-94225000D02*
X143475000Y-94050000D01*
X142350000Y-96625000D02*
X143050000Y-96625000D01*
X143050000Y-96625000D02*
X143150000Y-96725000D01*
X110575000Y-93575000D02*
X110575000Y-95900000D01*
X110575000Y-95900000D02*
X110525000Y-95950000D01*
X112700000Y-96025000D02*
X112700000Y-94050000D01*
X112700000Y-94050000D02*
X112650000Y-94000000D01*
X115600000Y-96150000D02*
X115600000Y-98600000D01*
X115600000Y-98600000D02*
X115450000Y-98750000D01*
X144500000Y-87750000D02*
X148350000Y-87750000D01*
X148350000Y-87750000D02*
X148400000Y-87700000D01*
X148400000Y-84450000D02*
X144950000Y-84450000D01*
X144950000Y-84450000D02*
X144125000Y-83625000D01*
X137800000Y-83175000D02*
X133725000Y-83175000D01*
X129575000Y-83175000D02*
X123725000Y-83175000D01*
X123725000Y-83175000D02*
X123625000Y-83075000D01*
X123675000Y-85175000D02*
X126925000Y-85175000D01*
X126925000Y-85175000D02*
X129950000Y-85175000D01*
X129950000Y-85175000D02*
X130050000Y-85275000D01*
X133350000Y-91775000D02*
X136125000Y-91775000D01*
X136125000Y-91775000D02*
X136175000Y-91725000D01*
X120350000Y-93475000D02*
X120500000Y-93625000D01*
X120775000Y-100900000D02*
X123600000Y-100900000D01*
X118225000Y-100675000D02*
X118325000Y-100775000D01*
X133000000Y-101000000D02*
X133000000Y-98800000D01*
X118225000Y-98600000D02*
X118225000Y-96350000D01*
X115375000Y-100675000D02*
X118225000Y-100675000D01*
X126975000Y-99650000D02*
X130000000Y-99650000D01*
X139875000Y-98800000D02*
X139825000Y-98750000D01*
X139875000Y-101000000D02*
X139875000Y-98800000D01*
X136300000Y-100850000D02*
X136350000Y-100900000D01*
X136300000Y-98700000D02*
X136300000Y-100850000D01*
X118200000Y-93475000D02*
X120350000Y-93475000D01*
X120550000Y-96200000D02*
X120550000Y-98650000D01*
X123600000Y-100900000D02*
X123775000Y-100725000D01*
X133000000Y-98800000D02*
X133150000Y-98650000D01*
G04 #@! TD*
D18*
G04 #@! TO.N,GND*
G36*
X151765000Y-101727000D02*
X100203000Y-101727000D01*
X100203000Y-83669126D01*
X110965000Y-83669126D01*
X110965000Y-84080874D01*
X111097186Y-84400000D01*
X110965000Y-84719126D01*
X110965000Y-85130874D01*
X111122569Y-85511280D01*
X111413720Y-85802431D01*
X111794126Y-85960000D01*
X112205874Y-85960000D01*
X112586280Y-85802431D01*
X112877431Y-85511280D01*
X112909027Y-85435000D01*
X113080874Y-85435000D01*
X113461280Y-85277431D01*
X113752431Y-84986280D01*
X113910000Y-84605874D01*
X113910000Y-84544126D01*
X115865000Y-84544126D01*
X115865000Y-84955874D01*
X116022569Y-85336280D01*
X116073789Y-85387500D01*
X116047569Y-85413720D01*
X115890000Y-85794126D01*
X115890000Y-86205874D01*
X116037719Y-86562500D01*
X115890000Y-86919126D01*
X115890000Y-87330874D01*
X116047569Y-87711280D01*
X116338720Y-88002431D01*
X116719126Y-88160000D01*
X117130874Y-88160000D01*
X117511280Y-88002431D01*
X117802431Y-87711280D01*
X117960000Y-87330874D01*
X117960000Y-86919126D01*
X117812281Y-86562500D01*
X117954510Y-86219126D01*
X132990000Y-86219126D01*
X132990000Y-86630874D01*
X133147569Y-87011280D01*
X133223789Y-87087500D01*
X133147569Y-87163720D01*
X132990000Y-87544126D01*
X132990000Y-87955874D01*
X133147569Y-88336280D01*
X133211289Y-88400000D01*
X133147569Y-88463720D01*
X132990000Y-88844126D01*
X132990000Y-89255874D01*
X133147569Y-89636280D01*
X133438720Y-89927431D01*
X133819126Y-90085000D01*
X134230874Y-90085000D01*
X134611280Y-89927431D01*
X134725000Y-89813711D01*
X134838720Y-89927431D01*
X135219126Y-90085000D01*
X135630874Y-90085000D01*
X136011280Y-89927431D01*
X136100000Y-89838711D01*
X136188720Y-89927431D01*
X136569126Y-90085000D01*
X136980874Y-90085000D01*
X137361280Y-89927431D01*
X137652431Y-89636280D01*
X137810000Y-89255874D01*
X137810000Y-88844126D01*
X137652431Y-88463720D01*
X137551211Y-88362500D01*
X137677431Y-88236280D01*
X137834351Y-87857440D01*
X139534000Y-87857440D01*
X139781765Y-87808157D01*
X139991809Y-87667809D01*
X140132157Y-87457765D01*
X140181440Y-87210000D01*
X140181440Y-85510000D01*
X140132157Y-85262235D01*
X139991809Y-85052191D01*
X139781765Y-84911843D01*
X139534000Y-84862560D01*
X137834000Y-84862560D01*
X137586235Y-84911843D01*
X137376191Y-85052191D01*
X137235843Y-85262235D01*
X137204047Y-85422086D01*
X137005874Y-85340000D01*
X136594126Y-85340000D01*
X136213720Y-85497569D01*
X136100000Y-85611289D01*
X135986280Y-85497569D01*
X135605874Y-85340000D01*
X135194126Y-85340000D01*
X134813720Y-85497569D01*
X134687500Y-85623789D01*
X134611280Y-85547569D01*
X134230874Y-85390000D01*
X133819126Y-85390000D01*
X133438720Y-85547569D01*
X133147569Y-85838720D01*
X132990000Y-86219126D01*
X117954510Y-86219126D01*
X117960000Y-86205874D01*
X117960000Y-85794126D01*
X117802431Y-85413720D01*
X117751211Y-85362500D01*
X117777431Y-85336280D01*
X117935000Y-84955874D01*
X117935000Y-84544126D01*
X117777431Y-84163720D01*
X117486280Y-83872569D01*
X117105874Y-83715000D01*
X116694126Y-83715000D01*
X116313720Y-83872569D01*
X116022569Y-84163720D01*
X115865000Y-84544126D01*
X113910000Y-84544126D01*
X113910000Y-84194126D01*
X113752431Y-83813720D01*
X113461280Y-83522569D01*
X113080874Y-83365000D01*
X112909027Y-83365000D01*
X112877431Y-83288720D01*
X112586280Y-82997569D01*
X112205874Y-82840000D01*
X111794126Y-82840000D01*
X111413720Y-82997569D01*
X111122569Y-83288720D01*
X110965000Y-83669126D01*
X100203000Y-83669126D01*
X100203000Y-82169000D01*
X151765000Y-82169000D01*
X151765000Y-101727000D01*
X151765000Y-101727000D01*
G37*
X151765000Y-101727000D02*
X100203000Y-101727000D01*
X100203000Y-83669126D01*
X110965000Y-83669126D01*
X110965000Y-84080874D01*
X111097186Y-84400000D01*
X110965000Y-84719126D01*
X110965000Y-85130874D01*
X111122569Y-85511280D01*
X111413720Y-85802431D01*
X111794126Y-85960000D01*
X112205874Y-85960000D01*
X112586280Y-85802431D01*
X112877431Y-85511280D01*
X112909027Y-85435000D01*
X113080874Y-85435000D01*
X113461280Y-85277431D01*
X113752431Y-84986280D01*
X113910000Y-84605874D01*
X113910000Y-84544126D01*
X115865000Y-84544126D01*
X115865000Y-84955874D01*
X116022569Y-85336280D01*
X116073789Y-85387500D01*
X116047569Y-85413720D01*
X115890000Y-85794126D01*
X115890000Y-86205874D01*
X116037719Y-86562500D01*
X115890000Y-86919126D01*
X115890000Y-87330874D01*
X116047569Y-87711280D01*
X116338720Y-88002431D01*
X116719126Y-88160000D01*
X117130874Y-88160000D01*
X117511280Y-88002431D01*
X117802431Y-87711280D01*
X117960000Y-87330874D01*
X117960000Y-86919126D01*
X117812281Y-86562500D01*
X117954510Y-86219126D01*
X132990000Y-86219126D01*
X132990000Y-86630874D01*
X133147569Y-87011280D01*
X133223789Y-87087500D01*
X133147569Y-87163720D01*
X132990000Y-87544126D01*
X132990000Y-87955874D01*
X133147569Y-88336280D01*
X133211289Y-88400000D01*
X133147569Y-88463720D01*
X132990000Y-88844126D01*
X132990000Y-89255874D01*
X133147569Y-89636280D01*
X133438720Y-89927431D01*
X133819126Y-90085000D01*
X134230874Y-90085000D01*
X134611280Y-89927431D01*
X134725000Y-89813711D01*
X134838720Y-89927431D01*
X135219126Y-90085000D01*
X135630874Y-90085000D01*
X136011280Y-89927431D01*
X136100000Y-89838711D01*
X136188720Y-89927431D01*
X136569126Y-90085000D01*
X136980874Y-90085000D01*
X137361280Y-89927431D01*
X137652431Y-89636280D01*
X137810000Y-89255874D01*
X137810000Y-88844126D01*
X137652431Y-88463720D01*
X137551211Y-88362500D01*
X137677431Y-88236280D01*
X137834351Y-87857440D01*
X139534000Y-87857440D01*
X139781765Y-87808157D01*
X139991809Y-87667809D01*
X140132157Y-87457765D01*
X140181440Y-87210000D01*
X140181440Y-85510000D01*
X140132157Y-85262235D01*
X139991809Y-85052191D01*
X139781765Y-84911843D01*
X139534000Y-84862560D01*
X137834000Y-84862560D01*
X137586235Y-84911843D01*
X137376191Y-85052191D01*
X137235843Y-85262235D01*
X137204047Y-85422086D01*
X137005874Y-85340000D01*
X136594126Y-85340000D01*
X136213720Y-85497569D01*
X136100000Y-85611289D01*
X135986280Y-85497569D01*
X135605874Y-85340000D01*
X135194126Y-85340000D01*
X134813720Y-85497569D01*
X134687500Y-85623789D01*
X134611280Y-85547569D01*
X134230874Y-85390000D01*
X133819126Y-85390000D01*
X133438720Y-85547569D01*
X133147569Y-85838720D01*
X132990000Y-86219126D01*
X117954510Y-86219126D01*
X117960000Y-86205874D01*
X117960000Y-85794126D01*
X117802431Y-85413720D01*
X117751211Y-85362500D01*
X117777431Y-85336280D01*
X117935000Y-84955874D01*
X117935000Y-84544126D01*
X117777431Y-84163720D01*
X117486280Y-83872569D01*
X117105874Y-83715000D01*
X116694126Y-83715000D01*
X116313720Y-83872569D01*
X116022569Y-84163720D01*
X115865000Y-84544126D01*
X113910000Y-84544126D01*
X113910000Y-84194126D01*
X113752431Y-83813720D01*
X113461280Y-83522569D01*
X113080874Y-83365000D01*
X112909027Y-83365000D01*
X112877431Y-83288720D01*
X112586280Y-82997569D01*
X112205874Y-82840000D01*
X111794126Y-82840000D01*
X111413720Y-82997569D01*
X111122569Y-83288720D01*
X110965000Y-83669126D01*
X100203000Y-83669126D01*
X100203000Y-82169000D01*
X151765000Y-82169000D01*
X151765000Y-101727000D01*
G04 #@! TD*
M02*
