M48
;DRILL file {KiCad (5.0.1)-4} date 5/20/2019 12:55:48 PM
;FORMAT={2:4/ absolute / inch / suppress leading zeros}
FMAT,2
INCH,TZ
T1C0.0098
T2C0.0100
T3C0.0134
T4C0.0157
T5C0.0394
%
G90
G05
M72
T1
X44537Y-35043
X44537Y-35295
X44537Y-35547
T2
X42648Y-34665
X42726Y-35709
X42953Y-34705
X42953Y-35709
X43199Y-35709
X43248Y-34724
X43474Y-35719
X43583Y-34724
X43740Y-35827
X43917Y-35974
X44213Y-35994
X44537Y-35994
X44833Y-36004
X45089Y-36053
X45138Y-36388
X45945Y-36102
X45974Y-35610
X45974Y-35778
X46201Y-35610
X46516Y-35650
X46545Y-34724
X46772Y-34715
X46811Y-35689
X47057Y-34685
X47106Y-35719
X47372Y-34656
X47402Y-35748
X47657Y-34616
X47677Y-35807
X47953Y-34587
X47992Y-35856
X47992Y-35856
X48248Y-34557
X51122Y-36850
X51142Y-38268
X51506Y-36929
X51516Y-38209
X51811Y-36998
X51811Y-38169
X52136Y-38071
X52146Y-37037
X52431Y-37992
X52480Y-37077
X53829Y-38022
X53839Y-37106
X54154Y-38022
X54163Y-37106
X54488Y-38031
X54528Y-37106
X54813Y-38031
X54843Y-37106
X56043Y-38041
X56161Y-37096
X56358Y-38081
X56486Y-37028
X56703Y-38150
T3
X55228Y-37075
X55228Y-38020
X55677Y-37075
X55677Y-38020
X48661Y-36374
X48661Y-36965
X49161Y-36374
X49161Y-36965
X49661Y-35783
X49661Y-36374
X49661Y-36965
X50161Y-35783
X50161Y-36374
X50661Y-35783
X50661Y-36374
X52976Y-37079
X52976Y-38024
X53425Y-37079
X53425Y-38024
T4
X39931Y-36870
X39970Y-33514
X40276Y-35246
X40404Y-36870
X40531Y-33514
X40876Y-36860
X41043Y-33533
X41191Y-34291
X41201Y-36122
X41358Y-36860
X41526Y-33533
X41841Y-36870
X42047Y-33543
X42283Y-36870
X42549Y-33553
X42785Y-36850
X42913Y-36348
X42992Y-33819
X43514Y-37776
X43533Y-36841
X44094Y-33022
X44094Y-33435
X44350Y-37008
X44370Y-37805
X44439Y-33228
X44803Y-34360
X45512Y-37854
X45541Y-36555
X46024Y-33366
X46033Y-33858
X46033Y-34301
X46535Y-36801
X46545Y-37933
X46545Y-38819
X46585Y-39675
X47165Y-33533
X47441Y-36860
X47461Y-37874
X47461Y-38839
X47549Y-39724
X48652Y-34518
X48671Y-32707
X48671Y-38248
X48691Y-33533
X48730Y-39656
X49144Y-34508
X49163Y-38248
X49656Y-34498
X49715Y-38248
X49921Y-32697
X49970Y-33533
X49990Y-39232
X50177Y-34518
X50236Y-38278
X50650Y-34518
X50787Y-38278
X51014Y-32746
X51161Y-34528
X51181Y-39232
X51201Y-33573
X51417Y-35246
X51417Y-35876
X51437Y-36388
X52362Y-39764
X52421Y-38839
X52500Y-36132
X52648Y-32746
X52766Y-34026
X52766Y-34547
X52766Y-35059
X53307Y-34006
X53307Y-34508
X53317Y-35059
X53612Y-36112
X53661Y-38858
X53681Y-39724
X53848Y-35059
X53858Y-34006
X53858Y-34508
X54252Y-32746
X55049Y-38878
X55069Y-39764
X55118Y-36132
X55866Y-35030
X56024Y-39380
X56368Y-35039
X56388Y-34006
X56388Y-34528
X56535Y-36604
X56545Y-38563
X56624Y-35965
X56742Y-32923
X56762Y-39134
X56880Y-35059
X56890Y-34547
X56900Y-34016
X57146Y-35935
X57165Y-39154
X57667Y-39163
X57677Y-35955
X58110Y-36634
X58120Y-38455
X58219Y-35965
X58238Y-39163
X58425Y-33248
X58425Y-34528
X58740Y-35945
X58760Y-39173
X59094Y-37579
X59281Y-35945
X59291Y-39163
T5
X54600Y-34000
X55600Y-34000
T0
M30
