M48
;DRILL file {KiCad (5.0.1)-4} date 1/4/2019 10:47:48 AM
;FORMAT={2:4/ absolute / inch / suppress leading zeros}
FMAT,2
INCH,TZ
T1C0.0039
%
G90
G05
M72
T1
X13854Y-50150
X15157Y-61831
X15197Y-58713
X15213Y-57835
X15217Y-57004
X15634Y-51165
X15886Y-46720
X15917Y-44126
X15929Y-41323
X15949Y-38791
X16000Y-55087
X16606Y-37350
X16654Y-40358
X16693Y-45713
X16701Y-43106
X16709Y-37831
X16787Y-52850
X16862Y-37343
X17130Y-37346
X17311Y-49480
X18315Y-62244
X18386Y-58583
X18862Y-55764
X20606Y-51165
X20807Y-61476
X21846Y-49961
X22461Y-34024
X22917Y-16098
X23161Y-33106
X23169Y-32421
X23374Y-61465
X23476Y-51071
X23823Y-16118
X25343Y-61760
X25441Y-51051
X25895Y-28031
X26402Y-34417
X26894Y-30074
X27709Y-31754
X27740Y-34512
X27972Y-62264
X28374Y-61102
X28425Y-36457
X28845Y-19954
X28900Y-17301
X29283Y-52512
X29299Y-57835
X29354Y-55681
X30020Y-52547
X41614Y-59465
X41614Y-60185
X41622Y-63350
X41626Y-56161
X41626Y-64114
X41626Y-67256
X43142Y-71287
X43484Y-60134
X43484Y-63339
X43488Y-67283
X43496Y-56114
X43496Y-64161
X43500Y-59437
X44445Y-56236
X44453Y-57437
X44453Y-60445
X44453Y-61374
X44453Y-65315
X44457Y-64417
X44500Y-69984
X45394Y-69516
X45465Y-73598
X46063Y-70197
X46350Y-74476
X46384Y-57441
X46419Y-61378
X46424Y-65315
X46764Y-41319
X46772Y-34197
X46776Y-38110
X46776Y-45217
X46776Y-49193
X46783Y-37366
X46783Y-42098
X46783Y-46063
X46783Y-72268
X47502Y-68754
X47508Y-29953
X47665Y-73165
X48555Y-72685
X48646Y-34228
X48646Y-37378
X48646Y-42118
X48646Y-45256
X48646Y-46028
X48646Y-49173
X48654Y-38169
X48654Y-41307
X48665Y-76791
X48839Y-31268
X49209Y-73346
X49504Y-77642
X49602Y-43256
X49606Y-38402
X49606Y-46287
X49606Y-47217
X49610Y-35394
X49610Y-39323
X49614Y-34425
X49618Y-42331
X49760Y-27705
X49957Y-75433
X50604Y-71947
X50654Y-26780
X50831Y-76327
X50921Y-30551
X51075Y-29031
X51569Y-39323
X51575Y-29882
X51589Y-35394
X51599Y-43260
X51599Y-47205
X51717Y-75839
X51724Y-79858
X51984Y-28110
X52244Y-31882
X52358Y-76492
X52697Y-80799
X52913Y-24539
X53102Y-78575
X53774Y-75076
X53811Y-23646
X53996Y-79480
X54083Y-27406
X54224Y-25870
X54705Y-26760
X54846Y-78969
X54933Y-83067
X55118Y-24980
X55441Y-28784
X55508Y-79642
X56114Y-21346
X56240Y-81713
X56880Y-78274
X56941Y-20508
X57248Y-24264
X57433Y-22634
X57902Y-23559
X58252Y-21839
X58610Y-25649
X59063Y-82764
X59102Y-84630
X59213Y-18248
X59343Y-81811
X60276Y-79804
X60276Y-81807
X60386Y-21118
X60559Y-19531
X61039Y-20409
X61719Y-22459
X62201Y-82756
X62220Y-84626
X62913Y-53504
X63043Y-82764
X63063Y-84626
X63150Y-16276
X63185Y-18146
X63307Y-54409
X63315Y-81803
X63425Y-55709
X63701Y-51831
X63701Y-52087
X63736Y-52850
X63780Y-56614
X63890Y-51980
X63929Y-55054
X64064Y-53779
X64205Y-81807
X64213Y-57441
X64213Y-79819
X64369Y-54484
X64528Y-58346
X64583Y-61220
X64587Y-60937
X64779Y-56649
X64823Y-61224
X64831Y-60929
X65144Y-57519
X65150Y-19098
X65157Y-21044
X65480Y-54114
X65642Y-54291
X65720Y-57697
X65783Y-54114
X65815Y-57539
X65929Y-57705
X66094Y-19098
X66173Y-82764
X66173Y-84626
X66260Y-50626
X66331Y-16268
X66331Y-18130
X66476Y-50626
X66677Y-50626
X66961Y-82764
X66961Y-84646
X67024Y-51780
X67106Y-16268
X67118Y-18130
X67146Y-48917
X67169Y-51933
X67205Y-51709
X67213Y-81819
X67283Y-59606
X67500Y-48927
X67864Y-48927
X67994Y-58304
X68150Y-59252
X68150Y-79874
X68150Y-81803
X68209Y-48937
X68563Y-48937
X68575Y-57500
X68638Y-54276
X68638Y-54492
X68642Y-54736
X68724Y-58047
X68809Y-49429
X68809Y-49626
X68809Y-49793
X68823Y-53709
X68917Y-53882
X69016Y-53713
X69016Y-58898
X69094Y-19098
X69094Y-21139
X69094Y-55323
X69094Y-55551
X69260Y-55445
X69433Y-56811
X69602Y-53720
X69701Y-53886
X69707Y-57919
X69803Y-53720
X69866Y-52252
X69921Y-48071
X69941Y-52417
X69957Y-56193
X70020Y-19098
X70059Y-49075
X70059Y-49272
X70083Y-52315
X70104Y-47044
X70110Y-82764
X70110Y-84634
X70138Y-43823
X70150Y-44067
X70205Y-55815
X70209Y-55598
X70226Y-49173
X70268Y-16268
X70276Y-46299
X70280Y-18142
X70315Y-49567
X70315Y-49764
X70315Y-51476
X70425Y-43823
X70425Y-44067
X70429Y-55811
X70433Y-55602
X70457Y-53071
X70482Y-49656
X70567Y-51476
X70681Y-53075
X70827Y-45433
X70850Y-47943
X70850Y-48224
X70890Y-53083
X70913Y-82776
X70933Y-84634
X71035Y-16268
X71051Y-48067
X71071Y-18142
X71201Y-81807
X71339Y-59370
X71406Y-50976
X71480Y-47020
X71701Y-46134
X72087Y-79844
X72087Y-81807
X72098Y-44996
X72205Y-59685
X72476Y-44429
X72795Y-41969
X72823Y-49630
X72827Y-50890
X72894Y-43750
X72923Y-46870
X72972Y-58730
X73031Y-19098
X73031Y-21084
X73041Y-43622
X73041Y-47057
X73051Y-55433
X73081Y-58917
X73150Y-46870
X73150Y-55295
X73179Y-58730
X73228Y-43622
X73238Y-55433
X73339Y-50890
X73587Y-48583
X73701Y-41614
X73839Y-42756
X73915Y-48226
X73937Y-19098
X74016Y-53189
X74055Y-53594
X74055Y-84626
X74083Y-82764
X74173Y-61417
X74209Y-18142
X74220Y-16256
X74315Y-54193
X74409Y-51250
X74409Y-51732
X74537Y-47667
X74557Y-47480
X74567Y-41299
X74665Y-47589
X74941Y-54734
X75039Y-61063
X75069Y-54862
X75079Y-54724
X75157Y-51230
X75157Y-51732
X75249Y-42119
X75298Y-48226
X75402Y-86083
X75413Y-84220
X75512Y-17732
X75512Y-19606
X75555Y-48811
X75659Y-40744
X75685Y-83260
X75733Y-54213
X75945Y-60748
X76004Y-59779
X76056Y-53890
X76280Y-46969
X76368Y-58740
X76378Y-47126
X76437Y-43622
X76457Y-46969
X76457Y-55325
X76457Y-55522
X76535Y-43435
X76565Y-58681
X76575Y-81274
X76575Y-83264
X76624Y-55413
X76634Y-43622
X76742Y-58533
X76811Y-60394
X76827Y-46142
X76854Y-59434
X77402Y-42638
X77516Y-20555
X77520Y-22539
X77756Y-57795
X77795Y-57087
X77969Y-45591
X78150Y-56181
X78268Y-43031
X78386Y-55276
X78453Y-20559
X78539Y-86083
X78579Y-49291
X78587Y-84228
X78689Y-19606
X78705Y-17720
X78780Y-49291
X78780Y-56929
X78972Y-50906
X78992Y-49287
X79026Y-52717
X79094Y-56063
X79110Y-50744
X79203Y-52608
X79203Y-52844
X79252Y-50906
X79350Y-59469
X79350Y-86094
X79362Y-53287
X79370Y-59717
X79374Y-84228
X79379Y-43419
X79484Y-17736
X79488Y-55157
X79500Y-19598
X79528Y-53150
X79528Y-53346
X79528Y-54213
X79606Y-50071
X79610Y-46142
X79610Y-83276
X79626Y-59476
X79626Y-59717
X79705Y-48650
X79764Y-50220
X79776Y-50008
X79827Y-48469
X79854Y-47126
X79862Y-47374
X79941Y-48654
X80047Y-45591
X80079Y-47126
X80079Y-47370
X80394Y-48673
X80504Y-48500
X80512Y-81279
X80512Y-83264
X80591Y-43465
X80598Y-48673
X80807Y-52530
X80807Y-52736
X80807Y-52953
X80844Y-44264
X81106Y-53457
X81457Y-20555
X81457Y-22544
X81457Y-43150
X81461Y-53461
X81614Y-44029
X81811Y-53465
X82169Y-53461
X82323Y-42795
X82374Y-20563
X82378Y-50425
X82445Y-86094
X82457Y-84220
X82516Y-53465
X82559Y-50445
X82646Y-17736
X82646Y-19594
X82748Y-50449
X83276Y-84209
X83276Y-86098
X83382Y-51953
X83390Y-52169
X83425Y-17724
X83445Y-19594
X83547Y-83264
X83551Y-52051
X83612Y-44833
X83681Y-48110
X83713Y-44654
X83783Y-44839
X83789Y-48248
X83898Y-48110
X84444Y-44814
X84449Y-81314
X84449Y-83264
X84787Y-41339
X84795Y-41579
X84839Y-45679
X84996Y-41579
X85000Y-41339
X85079Y-44016
X85394Y-20555
X85394Y-22514
X85433Y-44882
X85787Y-45787
X86260Y-46575
X86323Y-20543
X86339Y-47953
X86394Y-84228
X86394Y-86087
X86579Y-17732
X86610Y-19598
X86732Y-48819
X87165Y-49685
X87299Y-17732
X87343Y-19598
X87879Y-79891
X88602Y-81917
X89051Y-82811
X89248Y-81260
X89331Y-20555
X89331Y-22514
X90232Y-20555
X90382Y-84122
X90571Y-19602
X90579Y-17720
X91029Y-76742
X91350Y-80496
X91756Y-78756
X92205Y-79665
X92394Y-78110
X92697Y-81815
X92724Y-24095
X93350Y-20622
X93535Y-80972
X94098Y-22724
X94164Y-73577
X94516Y-77343
X94681Y-19311
X94736Y-23350
X94823Y-75673
X95327Y-76559
X95547Y-74965
X95630Y-22882
X95803Y-78689
X95829Y-27289
X96642Y-77862
X96933Y-21551
X97248Y-25874
X97279Y-70393
X97669Y-74189
X97996Y-72528
X98034Y-55157
X98039Y-59094
X98059Y-63031
X98074Y-66969
X98469Y-73398
X98697Y-71815
X98984Y-75520
X99014Y-30403
X99642Y-26921
X99831Y-74685
X99992Y-56059
X99992Y-60008
X99992Y-68020
X99996Y-55157
X99996Y-59098
X99996Y-63031
X99996Y-63949
X99996Y-66969
X100398Y-29020
X100803Y-71055
X100933Y-64953
X100945Y-60248
X100945Y-64213
X100949Y-53236
X100953Y-61106
X100957Y-57177
X100957Y-68335
X100961Y-25594
X100961Y-56327
X101043Y-29669
X101917Y-29181
X102119Y-33598
X102142Y-72358
X102811Y-30055
X102811Y-64976
X102815Y-64213
X102823Y-53213
X102823Y-61091
X102827Y-56346
X102827Y-57169
X102831Y-60248
X102835Y-68287
X103134Y-37047
X103149Y-44921
X103164Y-40984
X103244Y-27870
X103547Y-32169
X104106Y-28752
X104205Y-32835
X105087Y-32350
X105150Y-45843
X105154Y-37047
X105154Y-37988
X105154Y-40984
X105154Y-41890
X105154Y-44925
X106098Y-42154
X106102Y-38232
X106106Y-35106
X106106Y-46110
X106114Y-42972
X106118Y-39012
X106394Y-31004
X107976Y-42154
X107980Y-35091
X107980Y-38209
X107980Y-42953
X107984Y-39020
X107984Y-46126
T0
M30
