M48
;DRILL file {KiCad (5.0.1)-4} date 1/4/2019 10:47:48 AM
;FORMAT={2:4/ absolute / inch / suppress leading zeros}
FMAT,2
INCH,TZ
T1C0.0059
T2C0.0118
T3C0.0157
T4C0.0354
T5C0.0394
T6C0.0402
T7C0.0433
%
G90
G05
M72
T1
X68425Y-50709
X68425Y-51024
X68425Y-51339
X68425Y-51654
X68740Y-50709
X68740Y-51024
X68740Y-51339
X68740Y-51654
X69055Y-50709
X69055Y-51024
X69055Y-51339
X69055Y-51654
X69370Y-50709
X69370Y-51024
X69370Y-51339
X69370Y-51654
X74331Y-44803
X74331Y-45114
X74331Y-45433
X74331Y-45748
X74646Y-44803
X74646Y-45118
X74646Y-45433
X74646Y-45748
X74961Y-44803
X74961Y-45118
X74961Y-45433
X74961Y-45748
X75276Y-44803
X75276Y-45118
X75276Y-45433
X75276Y-45748
X74331Y-56614
X74331Y-56929
X74331Y-57244
X74331Y-57559
X74646Y-56614
X74646Y-56929
X74646Y-57244
X74646Y-57559
X74961Y-56614
X74961Y-56929
X74961Y-57244
X74961Y-57559
X75276Y-56614
X75276Y-56929
X75276Y-57248
X75276Y-57559
X81575Y-45984
X81575Y-46299
X81575Y-46614
X81575Y-46929
X81890Y-45984
X81890Y-46299
X81890Y-46614
X81890Y-46929
X82205Y-46299
X82205Y-46614
X82205Y-46929
X82209Y-45984
X82520Y-45984
X82520Y-46299
X82520Y-46614
X82520Y-46929
X80236Y-50709
X80236Y-51024
X80236Y-51339
X80236Y-51654
X80551Y-50709
X80551Y-51024
X80551Y-51339
X80551Y-51654
X80866Y-50709
X80866Y-51024
X80866Y-51339
X80866Y-51654
X81181Y-50709
X81181Y-51024
X81181Y-51339
X81181Y-51654
X66969Y-55433
X66969Y-55748
X66969Y-56063
X66969Y-56378
X67280Y-56378
X67283Y-55433
X67283Y-55748
X67283Y-56063
X67598Y-55433
X67598Y-55748
X67598Y-56063
X67598Y-56378
X67913Y-55433
X67913Y-55748
X67913Y-56063
X67913Y-56378
T2
X28307Y-32362
X28307Y-32874
X28819Y-32362
X28819Y-32874
T3
X14224Y-43591
X14232Y-40787
X14232Y-46161
X14252Y-38260
X14531Y-57862
X14555Y-47327
X14831Y-48787
X14831Y-58701
X15161Y-49071
X15165Y-54173
X15441Y-45091
X15445Y-42299
X15449Y-47709
X15453Y-40331
X15457Y-43130
X15457Y-45752
X15484Y-37819
X15488Y-39780
X15740Y-36350
X16197Y-36339
X16650Y-32996
X16650Y-36335
X16839Y-58697
X17094Y-55031
X17130Y-30764
X17236Y-51701
X17299Y-51102
X17469Y-53732
X17469Y-62598
X17598Y-40945
X17654Y-38437
X17665Y-46307
X17728Y-48024
X17732Y-53413
X17831Y-43701
X17866Y-60098
X18051Y-53087
X18118Y-46323
X18382Y-52772
X18390Y-48378
X18591Y-46323
X18606Y-56004
X18701Y-52461
X18701Y-60295
X18705Y-50071
X18965Y-58193
X18976Y-52157
X18980Y-59949
X18984Y-47638
X19189Y-57870
X19259Y-14994
X19264Y-16449
X19457Y-48787
X19461Y-46665
X19925Y-51469
X20157Y-49071
X20161Y-31154
X20480Y-39524
X20484Y-47327
X20555Y-62591
X20567Y-54169
X20602Y-59106
X20732Y-34028
X20783Y-48724
X20787Y-50713
X20937Y-61795
X21130Y-50335
X21236Y-67433
X21382Y-62358
X21571Y-66106
X21756Y-62661
X21760Y-65071
X21874Y-32992
X22114Y-64772
X22118Y-62996
X22823Y-48980
X22906Y-30752
X23386Y-50807
X23394Y-15284
X23404Y-11029
X23406Y-61776
X23567Y-67012
X23807Y-38768
X23819Y-31154
X24189Y-39173
X24549Y-17524
X24563Y-66610
X24780Y-61961
X24974Y-15284
X25020Y-61555
X25283Y-50826
X25370Y-62280
X25774Y-16999
X25902Y-49280
X25961Y-64173
X26382Y-63850
X26382Y-65713
X26449Y-16894
X26524Y-36535
X26728Y-63539
X26789Y-16449
X27067Y-63217
X27071Y-65429
X27173Y-36520
X27234Y-31811
X27382Y-62882
X27382Y-64484
X27489Y-29149
X27776Y-49646
X28181Y-51165
X28224Y-34642
X28323Y-64776
X28327Y-62319
X28543Y-68394
X28543Y-69382
X28697Y-62622
X28697Y-65075
X28709Y-61201
X28714Y-29189
X28794Y-16894
X29012Y-59571
X29059Y-47354
X29118Y-67429
X29122Y-62929
X29362Y-57551
X29366Y-52220
X29402Y-55398
X29449Y-31191
X29681Y-36555
X30004Y-31571
X30315Y-36528
X30319Y-31898
X30504Y-53398
X30650Y-32213
X30783Y-28976
X30823Y-44071
X30827Y-53902
X30870Y-35449
X30972Y-32602
X31118Y-45063
X31126Y-54535
X31331Y-34102
X31331Y-39524
X31528Y-53398
X31528Y-66606
X31554Y-10354
X31559Y-17529
X31906Y-43701
X31909Y-54248
X31913Y-59067
X32264Y-34098
X32449Y-55256
X32451Y-47018
X32451Y-61555
X32776Y-32921
X32921Y-66102
X32929Y-48980
X33252Y-61961
X33256Y-51665
X33504Y-38764
X33512Y-31898
X33579Y-48724
X33579Y-53594
X33878Y-48382
X33882Y-53236
X33913Y-39173
X33921Y-32209
X34228Y-48028
X34232Y-52917
X34244Y-65150
X34307Y-32602
X34307Y-46665
X34618Y-64823
X34622Y-47638
X34626Y-52583
X35051Y-67012
X35055Y-51169
X35327Y-40945
X35339Y-54815
X35941Y-31575
X35941Y-59579
X36276Y-32925
X36276Y-59949
X36614Y-35449
X36614Y-60295
X36906Y-49280
X36909Y-62319
X36980Y-46319
X36988Y-48098
X37276Y-62622
X37280Y-49646
X37732Y-47354
X37732Y-62929
X40149Y-57759
X40149Y-61829
X40294Y-66214
X40634Y-70539
X42109Y-50969
X42959Y-74064
X43029Y-68859
X43709Y-31794
X43794Y-35564
X44939Y-47504
X45044Y-39729
X45084Y-43699
X45869Y-77219
X46024Y-26324
X47149Y-32189
X48234Y-62309
X48359Y-66449
X48819Y-59646
X49124Y-23279
X49219Y-80434
X50000Y-69094
X52204Y-37259
X52284Y-56164
X52294Y-83789
X52309Y-41289
X52409Y-50984
X52419Y-45194
X52434Y-49304
X52624Y-20059
X52953Y-70472
X53009Y-58574
X53029Y-34134
X54528Y-62402
X54859Y-60494
X54969Y-31269
X55459Y-45239
X55669Y-17014
X55804Y-37154
X55939Y-41434
X56264Y-86284
X56496Y-72047
X57359Y-83309
X57649Y-43889
X58029Y-28099
X58314Y-39949
X58444Y-31484
X59229Y-36074
X60239Y-14474
X60349Y-46599
X60409Y-43219
X60439Y-86594
X60719Y-25014
X61269Y-30519
X61369Y-17689
X61614Y-71850
X62184Y-52219
X62404Y-77349
X62534Y-40609
X62992Y-66929
X63169Y-33649
X63779Y-45594
X63780Y-23425
X64474Y-86659
X64609Y-55769
X64622Y-54728
X64644Y-14124
X64829Y-59244
X64984Y-62384
X64992Y-54933
X65201Y-54618
X65394Y-54937
X65594Y-37669
X65729Y-58319
X65829Y-29324
X65886Y-48110
X65894Y-50717
X66063Y-58020
X66159Y-70389
X66189Y-79094
X66209Y-50925
X66256Y-58339
X66374Y-52016
X66374Y-60049
X66439Y-58789
X66457Y-58020
X66575Y-50909
X66604Y-72879
X66663Y-51280
X66669Y-51665
X66732Y-52075
X66909Y-76064
X66929Y-25949
X67072Y-52191
X67126Y-23425
X67177Y-50370
X67283Y-58504
X67465Y-52583
X67476Y-50075
X67642Y-52917
X67864Y-44794
X67878Y-53236
X68016Y-53594
X68544Y-86659
X68704Y-14209
X69283Y-52929
X69492Y-57169
X69508Y-54504
X69516Y-54894
X69693Y-57488
X69768Y-48614
X69823Y-54697
X69839Y-31839
X69902Y-57181
X69925Y-50150
X70000Y-58701
X70159Y-79229
X70244Y-57644
X70249Y-76714
X70472Y-52709
X70472Y-59055
X70479Y-58054
X70622Y-54516
X70817Y-49813
X70817Y-50177
X70843Y-42854
X70894Y-73429
X70898Y-53437
X71054Y-27119
X71063Y-23425
X71083Y-53772
X71132Y-49980
X71134Y-44139
X71165Y-52378
X71169Y-51976
X71248Y-42866
X71256Y-53480
X71349Y-58089
X71461Y-52201
X71665Y-42874
X71748Y-54248
X71827Y-47634
X71999Y-42254
X72047Y-67520
X72122Y-47343
X72169Y-53681
X72197Y-47701
X72219Y-58484
X72339Y-56075
X72484Y-86524
X72539Y-55760
X72619Y-14189
X72677Y-43150
X72717Y-43484
X72736Y-56067
X72835Y-54951
X72850Y-47854
X72909Y-48236
X73002Y-54656
X73012Y-43287
X73014Y-60099
X73134Y-49323
X73138Y-52709
X73209Y-54951
X73217Y-47933
X73394Y-71454
X73504Y-59154
X73504Y-59537
X73533Y-47018
X73554Y-60554
X73674Y-34524
X73819Y-59341
X74213Y-76969
X74354Y-60304
X74370Y-48907
X74514Y-42404
X74529Y-80154
X74557Y-49222
X74764Y-48917
X74764Y-53494
X74803Y-51447
X74980Y-53189
X75094Y-59934
X75157Y-53514
X75164Y-69349
X75197Y-25591
X75787Y-42844
X75787Y-43209
X75878Y-53409
X75886Y-49150
X75894Y-47902
X76004Y-41574
X76071Y-55472
X76102Y-43031
X76264Y-30044
X76388Y-47441
X76429Y-49657
X76433Y-52972
X76499Y-42439
X76528Y-54441
X76565Y-47766
X76634Y-59114
X76752Y-47451
X76815Y-54146
X76898Y-54484
X76898Y-55693
X76909Y-33604
X76972Y-46476
X76998Y-58750
X76999Y-87654
X77008Y-59114
X77161Y-46803
X77199Y-15049
X77201Y-55390
X77295Y-48563
X77303Y-50382
X77358Y-46484
X77364Y-43824
X77382Y-52350
X77500Y-55102
X77619Y-60019
X77909Y-36874
X77992Y-51063
X78173Y-48925
X78209Y-44209
X78260Y-50283
X78366Y-48614
X78465Y-57835
X78543Y-78740
X78547Y-48933
X78563Y-52274
X78571Y-50114
X78575Y-50457
X78701Y-54252
X78858Y-52057
X78858Y-52451
X78894Y-49657
X79044Y-44169
X79054Y-70834
X79304Y-44589
X79331Y-39764
X79528Y-25787
X79575Y-45169
X79732Y-52217
X79756Y-53728
X79772Y-44850
X79965Y-45165
X80138Y-49484
X80543Y-48051
X80774Y-61229
X80864Y-87619
X80929Y-48106
X81034Y-15049
X81295Y-48705
X81311Y-48146
X81579Y-49031
X81878Y-49323
X82185Y-49638
X82244Y-58524
X82344Y-43829
X82480Y-78740
X82551Y-50138
X82677Y-25591
X82713Y-52413
X82921Y-50150
X82923Y-51083
X83044Y-72594
X83094Y-44343
X83098Y-52114
X83109Y-43509
X83124Y-42269
X83272Y-50827
X83295Y-50154
X83299Y-44028
X83334Y-30334
X83480Y-44358
X83559Y-39854
X83598Y-50504
X83924Y-43974
X84165Y-47425
X84346Y-47740
X84544Y-43184
X84547Y-47433
X84899Y-87519
X84989Y-46579
X85044Y-47909
X85114Y-15099
X85509Y-48699
X85614Y-49404
X85639Y-47144
X85644Y-50314
X85827Y-78740
X86614Y-64764
X86669Y-34659
X86809Y-38484
X87254Y-68649
X87269Y-57599
X87979Y-70974
X87989Y-84224
X88419Y-30689
X88539Y-60194
X88583Y-76772
X88780Y-27165
X89004Y-15134
X89084Y-86804
X90748Y-74016
X90984Y-36693
X91109Y-58694
X91969Y-55974
X92109Y-45604
X92284Y-19059
X92323Y-71063
X92529Y-64904
X93110Y-27559
X93144Y-85189
X93184Y-16164
X94174Y-34814
X94294Y-53079
X94724Y-41564
X95866Y-57087
X95866Y-61024
X95866Y-64961
X96054Y-49899
X96324Y-81834
X96457Y-30709
X97079Y-37749
X97174Y-46549
X97179Y-42674
X97639Y-18074
X99213Y-33071
X99534Y-78714
X100000Y-35630
X100591Y-39173
X100591Y-43110
X100699Y-21339
X101544Y-49924
X101794Y-69599
X102889Y-75424
X103729Y-24074
X104689Y-70584
X105219Y-66664
X105289Y-58734
X105359Y-54714
X105359Y-62674
X106644Y-49909
X107054Y-27549
X107904Y-32604
X108824Y-36594
X108859Y-40619
X108859Y-44519
T4
X25289Y-14464
X25789Y-15464
X26289Y-14464
X26789Y-15464
X27789Y-15464
X28289Y-14464
X28789Y-15464
X29289Y-14464
X29789Y-15464
T5
X37988Y-41067
X37988Y-42067
X37988Y-43067
X37988Y-44067
X37988Y-45067
X37988Y-46067
X18567Y-68386
X18567Y-69386
X19567Y-68386
X19567Y-69386
X20567Y-68386
X20567Y-69386
X21567Y-68386
X21567Y-69386
X22567Y-68386
X22567Y-69386
X23567Y-68386
X23567Y-69386
X24567Y-68386
X24567Y-69386
X25567Y-68386
X25567Y-69386
X26567Y-68386
X26567Y-69386
X27567Y-68386
X27567Y-69386
T6
X24929Y-10358
X25929Y-10358
X29149Y-10358
X30149Y-10358
T7
X17913Y-15000
X17913Y-16000
X17913Y-17000
X17913Y-18000
X17913Y-19000
X17913Y-20000
X17913Y-32000
X17913Y-33000
X17913Y-34000
X17913Y-35000
T0
M30
