G04 #@! TF.GenerationSoftware,KiCad,Pcbnew,(5.0.1)-4*
G04 #@! TF.CreationDate,2019-06-26T10:02:50-07:00*
G04 #@! TF.ProjectId,Mixed_circuit,4D697865645F636972637569742E6B69,rev?*
G04 #@! TF.SameCoordinates,Original*
G04 #@! TF.FileFunction,Legend,Top*
G04 #@! TF.FilePolarity,Positive*
%FSLAX46Y46*%
G04 Gerber Fmt 4.6, Leading zero omitted, Abs format (unit mm)*
G04 Created by KiCad (PCBNEW (5.0.1)-4) date 6/26/2019 10:02:50 AM*
%MOMM*%
%LPD*%
G01*
G04 APERTURE LIST*
%ADD10C,0.300000*%
%ADD11C,0.200000*%
%ADD12C,0.150000*%
%ADD13C,0.120000*%
%ADD14C,0.050000*%
G04 APERTURE END LIST*
D10*
X74271428Y-171500000D02*
X74271428Y-172428571D01*
X73700000Y-171928571D01*
X73700000Y-172142857D01*
X73628571Y-172285714D01*
X73557142Y-172357142D01*
X73414285Y-172428571D01*
X73057142Y-172428571D01*
X72914285Y-172357142D01*
X72842857Y-172285714D01*
X72771428Y-172142857D01*
X72771428Y-171714285D01*
X72842857Y-171571428D01*
X72914285Y-171500000D01*
X72771428Y-173857142D02*
X72771428Y-173000000D01*
X72771428Y-173428571D02*
X74271428Y-173428571D01*
X74057142Y-173285714D01*
X73914285Y-173142857D01*
X73842857Y-173000000D01*
X74271428Y-174357142D02*
X74271428Y-175285714D01*
X73700000Y-174785714D01*
X73700000Y-175000000D01*
X73628571Y-175142857D01*
X73557142Y-175214285D01*
X73414285Y-175285714D01*
X73057142Y-175285714D01*
X72914285Y-175214285D01*
X72842857Y-175142857D01*
X72771428Y-175000000D01*
X72771428Y-174571428D01*
X72842857Y-174428571D01*
X72914285Y-174357142D01*
X72914285Y-175928571D02*
X72842857Y-176000000D01*
X72771428Y-175928571D01*
X72842857Y-175857142D01*
X72914285Y-175928571D01*
X72771428Y-175928571D01*
X74271428Y-177285714D02*
X74271428Y-177000000D01*
X74200000Y-176857142D01*
X74128571Y-176785714D01*
X73914285Y-176642857D01*
X73628571Y-176571428D01*
X73057142Y-176571428D01*
X72914285Y-176642857D01*
X72842857Y-176714285D01*
X72771428Y-176857142D01*
X72771428Y-177142857D01*
X72842857Y-177285714D01*
X72914285Y-177357142D01*
X73057142Y-177428571D01*
X73414285Y-177428571D01*
X73557142Y-177357142D01*
X73628571Y-177285714D01*
X73700000Y-177142857D01*
X73700000Y-176857142D01*
X73628571Y-176714285D01*
X73557142Y-176642857D01*
X73414285Y-176571428D01*
X74271428Y-178357142D02*
X74271428Y-178500000D01*
X74200000Y-178642857D01*
X74128571Y-178714285D01*
X73985714Y-178785714D01*
X73700000Y-178857142D01*
X73342857Y-178857142D01*
X73057142Y-178785714D01*
X72914285Y-178714285D01*
X72842857Y-178642857D01*
X72771428Y-178500000D01*
X72771428Y-178357142D01*
X72842857Y-178214285D01*
X72914285Y-178142857D01*
X73057142Y-178071428D01*
X73342857Y-178000000D01*
X73700000Y-178000000D01*
X73985714Y-178071428D01*
X74128571Y-178142857D01*
X74200000Y-178214285D01*
X74271428Y-178357142D01*
X74271428Y-179785714D02*
X74271428Y-179928571D01*
X74200000Y-180071428D01*
X74128571Y-180142857D01*
X73985714Y-180214285D01*
X73700000Y-180285714D01*
X73342857Y-180285714D01*
X73057142Y-180214285D01*
X72914285Y-180142857D01*
X72842857Y-180071428D01*
X72771428Y-179928571D01*
X72771428Y-179785714D01*
X72842857Y-179642857D01*
X72914285Y-179571428D01*
X73057142Y-179500000D01*
X73342857Y-179428571D01*
X73700000Y-179428571D01*
X73985714Y-179500000D01*
X74128571Y-179571428D01*
X74200000Y-179642857D01*
X74271428Y-179785714D01*
X72771428Y-182071428D02*
X73771428Y-182071428D01*
X73628571Y-182071428D02*
X73700000Y-182142857D01*
X73771428Y-182285714D01*
X73771428Y-182500000D01*
X73700000Y-182642857D01*
X73557142Y-182714285D01*
X72771428Y-182714285D01*
X73557142Y-182714285D02*
X73700000Y-182785714D01*
X73771428Y-182928571D01*
X73771428Y-183142857D01*
X73700000Y-183285714D01*
X73557142Y-183357142D01*
X72771428Y-183357142D01*
X72771428Y-184071428D02*
X73771428Y-184071428D01*
X73628571Y-184071428D02*
X73700000Y-184142857D01*
X73771428Y-184285714D01*
X73771428Y-184500000D01*
X73700000Y-184642857D01*
X73557142Y-184714285D01*
X72771428Y-184714285D01*
X73557142Y-184714285D02*
X73700000Y-184785714D01*
X73771428Y-184928571D01*
X73771428Y-185142857D01*
X73700000Y-185285714D01*
X73557142Y-185357142D01*
X72771428Y-185357142D01*
X71350000Y-21700000D02*
X71350000Y-335300000D01*
X68350000Y-21700000D02*
X71936421Y-21700000D01*
X68350000Y-335300000D02*
X71936421Y-335300000D01*
X71350000Y-335300000D02*
X70763579Y-334173496D01*
X71350000Y-335300000D02*
X71936421Y-334173496D01*
X71350000Y-21700000D02*
X70763579Y-22826504D01*
X71350000Y-21700000D02*
X71936421Y-22826504D01*
X37071428Y-14728571D02*
X36357142Y-14728571D01*
X36285714Y-15442857D01*
X36357142Y-15371428D01*
X36500000Y-15300000D01*
X36857142Y-15300000D01*
X37000000Y-15371428D01*
X37071428Y-15442857D01*
X37142857Y-15585714D01*
X37142857Y-15942857D01*
X37071428Y-16085714D01*
X37000000Y-16157142D01*
X36857142Y-16228571D01*
X36500000Y-16228571D01*
X36357142Y-16157142D01*
X36285714Y-16085714D01*
X38571428Y-16228571D02*
X37714285Y-16228571D01*
X38142857Y-16228571D02*
X38142857Y-14728571D01*
X38000000Y-14942857D01*
X37857142Y-15085714D01*
X37714285Y-15157142D01*
X39214285Y-16085714D02*
X39285714Y-16157142D01*
X39214285Y-16228571D01*
X39142857Y-16157142D01*
X39214285Y-16085714D01*
X39214285Y-16228571D01*
X40571428Y-14728571D02*
X40285714Y-14728571D01*
X40142857Y-14800000D01*
X40071428Y-14871428D01*
X39928571Y-15085714D01*
X39857142Y-15371428D01*
X39857142Y-15942857D01*
X39928571Y-16085714D01*
X40000000Y-16157142D01*
X40142857Y-16228571D01*
X40428571Y-16228571D01*
X40571428Y-16157142D01*
X40642857Y-16085714D01*
X40714285Y-15942857D01*
X40714285Y-15585714D01*
X40642857Y-15442857D01*
X40571428Y-15371428D01*
X40428571Y-15300000D01*
X40142857Y-15300000D01*
X40000000Y-15371428D01*
X39928571Y-15442857D01*
X39857142Y-15585714D01*
X41642857Y-14728571D02*
X41785714Y-14728571D01*
X41928571Y-14800000D01*
X42000000Y-14871428D01*
X42071428Y-15014285D01*
X42142857Y-15300000D01*
X42142857Y-15657142D01*
X42071428Y-15942857D01*
X42000000Y-16085714D01*
X41928571Y-16157142D01*
X41785714Y-16228571D01*
X41642857Y-16228571D01*
X41500000Y-16157142D01*
X41428571Y-16085714D01*
X41357142Y-15942857D01*
X41285714Y-15657142D01*
X41285714Y-15300000D01*
X41357142Y-15014285D01*
X41428571Y-14871428D01*
X41500000Y-14800000D01*
X41642857Y-14728571D01*
X43071428Y-14728571D02*
X43214285Y-14728571D01*
X43357142Y-14800000D01*
X43428571Y-14871428D01*
X43500000Y-15014285D01*
X43571428Y-15300000D01*
X43571428Y-15657142D01*
X43500000Y-15942857D01*
X43428571Y-16085714D01*
X43357142Y-16157142D01*
X43214285Y-16228571D01*
X43071428Y-16228571D01*
X42928571Y-16157142D01*
X42857142Y-16085714D01*
X42785714Y-15942857D01*
X42714285Y-15657142D01*
X42714285Y-15300000D01*
X42785714Y-15014285D01*
X42857142Y-14871428D01*
X42928571Y-14800000D01*
X43071428Y-14728571D01*
X45357142Y-16228571D02*
X45357142Y-15228571D01*
X45357142Y-15371428D02*
X45428571Y-15300000D01*
X45571428Y-15228571D01*
X45785714Y-15228571D01*
X45928571Y-15300000D01*
X46000000Y-15442857D01*
X46000000Y-16228571D01*
X46000000Y-15442857D02*
X46071428Y-15300000D01*
X46214285Y-15228571D01*
X46428571Y-15228571D01*
X46571428Y-15300000D01*
X46642857Y-15442857D01*
X46642857Y-16228571D01*
X47357142Y-16228571D02*
X47357142Y-15228571D01*
X47357142Y-15371428D02*
X47428571Y-15300000D01*
X47571428Y-15228571D01*
X47785714Y-15228571D01*
X47928571Y-15300000D01*
X48000000Y-15442857D01*
X48000000Y-16228571D01*
X48000000Y-15442857D02*
X48071428Y-15300000D01*
X48214285Y-15228571D01*
X48428571Y-15228571D01*
X48571428Y-15300000D01*
X48642857Y-15442857D01*
X48642857Y-16228571D01*
X16700000Y-17650000D02*
X68300000Y-17650000D01*
X16700000Y-21650000D02*
X16700000Y-17063579D01*
X68300000Y-21650000D02*
X68300000Y-17063579D01*
X68300000Y-17650000D02*
X67173496Y-18236421D01*
X68300000Y-17650000D02*
X67173496Y-17063579D01*
X16700000Y-17650000D02*
X17826504Y-18236421D01*
X16700000Y-17650000D02*
X17826504Y-17063579D01*
D11*
X39678571Y-133857142D02*
X40821428Y-133857142D01*
X40250000Y-134428571D02*
X40250000Y-133285714D01*
X39428571Y-101857142D02*
X40571428Y-101857142D01*
X40000000Y-102428571D02*
X40000000Y-101285714D01*
X38428571Y-68357142D02*
X39571428Y-68357142D01*
X39000000Y-68928571D02*
X39000000Y-67785714D01*
X46428571Y-125167857D02*
X46928571Y-125167857D01*
X47142857Y-125953571D02*
X46428571Y-125953571D01*
X46428571Y-124453571D01*
X47142857Y-124453571D01*
X48285714Y-125167857D02*
X48499999Y-125239285D01*
X48571428Y-125310714D01*
X48642857Y-125453571D01*
X48642857Y-125667857D01*
X48571428Y-125810714D01*
X48499999Y-125882142D01*
X48357142Y-125953571D01*
X47785714Y-125953571D01*
X47785714Y-124453571D01*
X48285714Y-124453571D01*
X48428571Y-124525000D01*
X48499999Y-124596428D01*
X48571428Y-124739285D01*
X48571428Y-124882142D01*
X48499999Y-125025000D01*
X48428571Y-125096428D01*
X48285714Y-125167857D01*
X47785714Y-125167857D01*
X49285714Y-125953571D02*
X49285714Y-124453571D01*
X51071428Y-125525000D02*
X51785714Y-125525000D01*
X50928571Y-125953571D02*
X51428571Y-124453571D01*
X51928571Y-125953571D01*
X52428571Y-125953571D02*
X52428571Y-124453571D01*
X52928571Y-125525000D01*
X53428571Y-124453571D01*
X53428571Y-125953571D01*
X54142857Y-125953571D02*
X54142857Y-124453571D01*
X54714285Y-124453571D01*
X54857142Y-124525000D01*
X54928571Y-124596428D01*
X54999999Y-124739285D01*
X54999999Y-124953571D01*
X54928571Y-125096428D01*
X54857142Y-125167857D01*
X54714285Y-125239285D01*
X54142857Y-125239285D01*
X55285714Y-126096428D02*
X56428571Y-126096428D01*
X56785714Y-125953571D02*
X56785714Y-124453571D01*
X57285714Y-125525000D01*
X57785714Y-124453571D01*
X57785714Y-125953571D01*
X58428571Y-125525000D02*
X59142857Y-125525000D01*
X58285714Y-125953571D02*
X58785714Y-124453571D01*
X59285714Y-125953571D01*
X59714285Y-125525000D02*
X60428571Y-125525000D01*
X59571428Y-125953571D02*
X60071428Y-124453571D01*
X60571428Y-125953571D01*
X61785714Y-125953571D02*
X61071428Y-125953571D01*
X61071428Y-124453571D01*
X49071428Y-127046428D02*
X49142857Y-126975000D01*
X49285714Y-126903571D01*
X49642857Y-126903571D01*
X49785714Y-126975000D01*
X49857142Y-127046428D01*
X49928571Y-127189285D01*
X49928571Y-127332142D01*
X49857142Y-127546428D01*
X49000000Y-128403571D01*
X49928571Y-128403571D01*
X50857142Y-126903571D02*
X51000000Y-126903571D01*
X51142857Y-126975000D01*
X51214285Y-127046428D01*
X51285714Y-127189285D01*
X51357142Y-127475000D01*
X51357142Y-127832142D01*
X51285714Y-128117857D01*
X51214285Y-128260714D01*
X51142857Y-128332142D01*
X51000000Y-128403571D01*
X50857142Y-128403571D01*
X50714285Y-128332142D01*
X50642857Y-128260714D01*
X50571428Y-128117857D01*
X50500000Y-127832142D01*
X50500000Y-127475000D01*
X50571428Y-127189285D01*
X50642857Y-127046428D01*
X50714285Y-126975000D01*
X50857142Y-126903571D01*
X52785714Y-128403571D02*
X51928571Y-128403571D01*
X52357142Y-128403571D02*
X52357142Y-126903571D01*
X52214285Y-127117857D01*
X52071428Y-127260714D01*
X51928571Y-127332142D01*
X53500000Y-128403571D02*
X53785714Y-128403571D01*
X53928571Y-128332142D01*
X54000000Y-128260714D01*
X54142857Y-128046428D01*
X54214285Y-127760714D01*
X54214285Y-127189285D01*
X54142857Y-127046428D01*
X54071428Y-126975000D01*
X53928571Y-126903571D01*
X53642857Y-126903571D01*
X53500000Y-126975000D01*
X53428571Y-127046428D01*
X53357142Y-127189285D01*
X53357142Y-127546428D01*
X53428571Y-127689285D01*
X53500000Y-127760714D01*
X53642857Y-127832142D01*
X53928571Y-127832142D01*
X54071428Y-127760714D01*
X54142857Y-127689285D01*
X54214285Y-127546428D01*
X54857142Y-127832142D02*
X56000000Y-127832142D01*
X57000000Y-126903571D02*
X57142857Y-126903571D01*
X57285714Y-126975000D01*
X57357142Y-127046428D01*
X57428571Y-127189285D01*
X57500000Y-127475000D01*
X57500000Y-127832142D01*
X57428571Y-128117857D01*
X57357142Y-128260714D01*
X57285714Y-128332142D01*
X57142857Y-128403571D01*
X57000000Y-128403571D01*
X56857142Y-128332142D01*
X56785714Y-128260714D01*
X56714285Y-128117857D01*
X56642857Y-127832142D01*
X56642857Y-127475000D01*
X56714285Y-127189285D01*
X56785714Y-127046428D01*
X56857142Y-126975000D01*
X57000000Y-126903571D01*
X58785714Y-126903571D02*
X58500000Y-126903571D01*
X58357142Y-126975000D01*
X58285714Y-127046428D01*
X58142857Y-127260714D01*
X58071428Y-127546428D01*
X58071428Y-128117857D01*
X58142857Y-128260714D01*
X58214285Y-128332142D01*
X58357142Y-128403571D01*
X58642857Y-128403571D01*
X58785714Y-128332142D01*
X58857142Y-128260714D01*
X58928571Y-128117857D01*
X58928571Y-127760714D01*
X58857142Y-127617857D01*
X58785714Y-127546428D01*
X58642857Y-127475000D01*
X58357142Y-127475000D01*
X58214285Y-127546428D01*
X58142857Y-127617857D01*
X58071428Y-127760714D01*
X68300000Y-21700000D02*
X16700000Y-21700000D01*
X68300000Y-335300000D02*
X68300000Y-21700000D01*
X16700000Y-335300000D02*
X68300000Y-335300000D01*
X16700000Y-21700000D02*
X16700000Y-335300000D01*
X18085714Y-265442857D02*
X18585714Y-265442857D01*
X18799999Y-266228571D02*
X18085714Y-266228571D01*
X18085714Y-264728571D01*
X18799999Y-264728571D01*
X19942857Y-265442857D02*
X20157142Y-265514285D01*
X20228571Y-265585714D01*
X20299999Y-265728571D01*
X20299999Y-265942857D01*
X20228571Y-266085714D01*
X20157142Y-266157142D01*
X20014285Y-266228571D01*
X19442857Y-266228571D01*
X19442857Y-264728571D01*
X19942857Y-264728571D01*
X20085714Y-264800000D01*
X20157142Y-264871428D01*
X20228571Y-265014285D01*
X20228571Y-265157142D01*
X20157142Y-265300000D01*
X20085714Y-265371428D01*
X19942857Y-265442857D01*
X19442857Y-265442857D01*
X20942857Y-266228571D02*
X20942857Y-264728571D01*
X23014285Y-265371428D02*
X22871428Y-265300000D01*
X22799999Y-265228571D01*
X22728571Y-265085714D01*
X22728571Y-265014285D01*
X22799999Y-264871428D01*
X22871428Y-264800000D01*
X23014285Y-264728571D01*
X23299999Y-264728571D01*
X23442857Y-264800000D01*
X23514285Y-264871428D01*
X23585714Y-265014285D01*
X23585714Y-265085714D01*
X23514285Y-265228571D01*
X23442857Y-265300000D01*
X23299999Y-265371428D01*
X23014285Y-265371428D01*
X22871428Y-265442857D01*
X22799999Y-265514285D01*
X22728571Y-265657142D01*
X22728571Y-265942857D01*
X22799999Y-266085714D01*
X22871428Y-266157142D01*
X23014285Y-266228571D01*
X23299999Y-266228571D01*
X23442857Y-266157142D01*
X23514285Y-266085714D01*
X23585714Y-265942857D01*
X23585714Y-265657142D01*
X23514285Y-265514285D01*
X23442857Y-265442857D01*
X23299999Y-265371428D01*
X24228571Y-266085714D02*
X24299999Y-266157142D01*
X24228571Y-266228571D01*
X24157142Y-266157142D01*
X24228571Y-266085714D01*
X24228571Y-266228571D01*
X25657142Y-264728571D02*
X24942857Y-264728571D01*
X24871428Y-265442857D01*
X24942857Y-265371428D01*
X25085714Y-265300000D01*
X25442857Y-265300000D01*
X25585714Y-265371428D01*
X25657142Y-265442857D01*
X25728571Y-265585714D01*
X25728571Y-265942857D01*
X25657142Y-266085714D01*
X25585714Y-266157142D01*
X25442857Y-266228571D01*
X25085714Y-266228571D01*
X24942857Y-266157142D01*
X24871428Y-266085714D01*
X27157142Y-264800000D02*
X27014285Y-264728571D01*
X26799999Y-264728571D01*
X26585714Y-264800000D01*
X26442857Y-264942857D01*
X26371428Y-265085714D01*
X26299999Y-265371428D01*
X26299999Y-265585714D01*
X26371428Y-265871428D01*
X26442857Y-266014285D01*
X26585714Y-266157142D01*
X26799999Y-266228571D01*
X26942857Y-266228571D01*
X27157142Y-266157142D01*
X27228571Y-266085714D01*
X27228571Y-265585714D01*
X26942857Y-265585714D01*
X27871428Y-266228571D02*
X27871428Y-264728571D01*
X28514285Y-266228571D02*
X28514285Y-265442857D01*
X28442857Y-265300000D01*
X28299999Y-265228571D01*
X28085714Y-265228571D01*
X27942857Y-265300000D01*
X27871428Y-265371428D01*
X29085714Y-265228571D02*
X29871428Y-265228571D01*
X29085714Y-266228571D01*
X29871428Y-266228571D01*
X31371428Y-265228571D02*
X31942857Y-265228571D01*
X31585714Y-266228571D02*
X31585714Y-264942857D01*
X31657142Y-264800000D01*
X31799999Y-264728571D01*
X31942857Y-264728571D01*
X33085714Y-266228571D02*
X33085714Y-265442857D01*
X33014285Y-265300000D01*
X32871428Y-265228571D01*
X32585714Y-265228571D01*
X32442857Y-265300000D01*
X33085714Y-266157142D02*
X32942857Y-266228571D01*
X32585714Y-266228571D01*
X32442857Y-266157142D01*
X32371428Y-266014285D01*
X32371428Y-265871428D01*
X32442857Y-265728571D01*
X32585714Y-265657142D01*
X32942857Y-265657142D01*
X33085714Y-265585714D01*
X33799999Y-265228571D02*
X33799999Y-266228571D01*
X33799999Y-265371428D02*
X33871428Y-265300000D01*
X34014285Y-265228571D01*
X34228571Y-265228571D01*
X34371428Y-265300000D01*
X34442857Y-265442857D01*
X34442857Y-266228571D01*
X35371428Y-266228571D02*
X35228571Y-266157142D01*
X35157142Y-266085714D01*
X35085714Y-265942857D01*
X35085714Y-265514285D01*
X35157142Y-265371428D01*
X35228571Y-265300000D01*
X35371428Y-265228571D01*
X35585714Y-265228571D01*
X35728571Y-265300000D01*
X35799999Y-265371428D01*
X35871428Y-265514285D01*
X35871428Y-265942857D01*
X35799999Y-266085714D01*
X35728571Y-266157142D01*
X35585714Y-266228571D01*
X35371428Y-266228571D01*
X37157142Y-265228571D02*
X37157142Y-266228571D01*
X36514285Y-265228571D02*
X36514285Y-266014285D01*
X36585714Y-266157142D01*
X36728571Y-266228571D01*
X36942857Y-266228571D01*
X37085714Y-266157142D01*
X37157142Y-266085714D01*
X37657142Y-265228571D02*
X38228571Y-265228571D01*
X37871428Y-264728571D02*
X37871428Y-266014285D01*
X37942857Y-266157142D01*
X38085714Y-266228571D01*
X38228571Y-266228571D01*
X25514285Y-268678571D02*
X24657142Y-268678571D01*
X25085714Y-268678571D02*
X25085714Y-267178571D01*
X24942857Y-267392857D01*
X24800000Y-267535714D01*
X24657142Y-267607142D01*
X27085714Y-267678571D02*
X27657142Y-267678571D01*
X27300000Y-267178571D02*
X27300000Y-268464285D01*
X27371428Y-268607142D01*
X27514285Y-268678571D01*
X27657142Y-268678571D01*
X28371428Y-268678571D02*
X28228571Y-268607142D01*
X28157142Y-268535714D01*
X28085714Y-268392857D01*
X28085714Y-267964285D01*
X28157142Y-267821428D01*
X28228571Y-267750000D01*
X28371428Y-267678571D01*
X28585714Y-267678571D01*
X28728571Y-267750000D01*
X28800000Y-267821428D01*
X28871428Y-267964285D01*
X28871428Y-268392857D01*
X28800000Y-268535714D01*
X28728571Y-268607142D01*
X28585714Y-268678571D01*
X28371428Y-268678571D01*
X31300000Y-267678571D02*
X31300000Y-268678571D01*
X30942857Y-267107142D02*
X30585714Y-268178571D01*
X31514285Y-268178571D01*
X23121428Y-269771428D02*
X23192857Y-269700000D01*
X23335714Y-269628571D01*
X23692857Y-269628571D01*
X23835714Y-269700000D01*
X23907142Y-269771428D01*
X23978571Y-269914285D01*
X23978571Y-270057142D01*
X23907142Y-270271428D01*
X23049999Y-271128571D01*
X23978571Y-271128571D01*
X24907142Y-269628571D02*
X25049999Y-269628571D01*
X25192857Y-269700000D01*
X25264285Y-269771428D01*
X25335714Y-269914285D01*
X25407142Y-270200000D01*
X25407142Y-270557142D01*
X25335714Y-270842857D01*
X25264285Y-270985714D01*
X25192857Y-271057142D01*
X25049999Y-271128571D01*
X24907142Y-271128571D01*
X24764285Y-271057142D01*
X24692857Y-270985714D01*
X24621428Y-270842857D01*
X24549999Y-270557142D01*
X24549999Y-270200000D01*
X24621428Y-269914285D01*
X24692857Y-269771428D01*
X24764285Y-269700000D01*
X24907142Y-269628571D01*
X26835714Y-271128571D02*
X25978571Y-271128571D01*
X26407142Y-271128571D02*
X26407142Y-269628571D01*
X26264285Y-269842857D01*
X26121428Y-269985714D01*
X25978571Y-270057142D01*
X27549999Y-271128571D02*
X27835714Y-271128571D01*
X27978571Y-271057142D01*
X28050000Y-270985714D01*
X28192857Y-270771428D01*
X28264285Y-270485714D01*
X28264285Y-269914285D01*
X28192857Y-269771428D01*
X28121428Y-269700000D01*
X27978571Y-269628571D01*
X27692857Y-269628571D01*
X27549999Y-269700000D01*
X27478571Y-269771428D01*
X27407142Y-269914285D01*
X27407142Y-270271428D01*
X27478571Y-270414285D01*
X27549999Y-270485714D01*
X27692857Y-270557142D01*
X27978571Y-270557142D01*
X28121428Y-270485714D01*
X28192857Y-270414285D01*
X28264285Y-270271428D01*
X28907142Y-270557142D02*
X30049999Y-270557142D01*
X31049999Y-269628571D02*
X31192857Y-269628571D01*
X31335714Y-269700000D01*
X31407142Y-269771428D01*
X31478571Y-269914285D01*
X31549999Y-270200000D01*
X31549999Y-270557142D01*
X31478571Y-270842857D01*
X31407142Y-270985714D01*
X31335714Y-271057142D01*
X31192857Y-271128571D01*
X31049999Y-271128571D01*
X30907142Y-271057142D01*
X30835714Y-270985714D01*
X30764285Y-270842857D01*
X30692857Y-270557142D01*
X30692857Y-270200000D01*
X30764285Y-269914285D01*
X30835714Y-269771428D01*
X30907142Y-269700000D01*
X31049999Y-269628571D01*
X32835714Y-269628571D02*
X32550000Y-269628571D01*
X32407142Y-269700000D01*
X32335714Y-269771428D01*
X32192857Y-269985714D01*
X32121428Y-270271428D01*
X32121428Y-270842857D01*
X32192857Y-270985714D01*
X32264285Y-271057142D01*
X32407142Y-271128571D01*
X32692857Y-271128571D01*
X32835714Y-271057142D01*
X32907142Y-270985714D01*
X32978571Y-270842857D01*
X32978571Y-270485714D01*
X32907142Y-270342857D01*
X32835714Y-270271428D01*
X32692857Y-270200000D01*
X32407142Y-270200000D01*
X32264285Y-270271428D01*
X32192857Y-270342857D01*
X32121428Y-270485714D01*
X19035714Y-225167857D02*
X19535714Y-225167857D01*
X19749999Y-225953571D02*
X19035714Y-225953571D01*
X19035714Y-224453571D01*
X19749999Y-224453571D01*
X20892857Y-225167857D02*
X21107142Y-225239285D01*
X21178571Y-225310714D01*
X21249999Y-225453571D01*
X21249999Y-225667857D01*
X21178571Y-225810714D01*
X21107142Y-225882142D01*
X20964285Y-225953571D01*
X20392857Y-225953571D01*
X20392857Y-224453571D01*
X20892857Y-224453571D01*
X21035714Y-224525000D01*
X21107142Y-224596428D01*
X21178571Y-224739285D01*
X21178571Y-224882142D01*
X21107142Y-225025000D01*
X21035714Y-225096428D01*
X20892857Y-225167857D01*
X20392857Y-225167857D01*
X21892857Y-225953571D02*
X21892857Y-224453571D01*
X23678571Y-224596428D02*
X23749999Y-224525000D01*
X23892857Y-224453571D01*
X24249999Y-224453571D01*
X24392857Y-224525000D01*
X24464285Y-224596428D01*
X24535714Y-224739285D01*
X24535714Y-224882142D01*
X24464285Y-225096428D01*
X23607142Y-225953571D01*
X24535714Y-225953571D01*
X25178571Y-225810714D02*
X25249999Y-225882142D01*
X25178571Y-225953571D01*
X25107142Y-225882142D01*
X25178571Y-225810714D01*
X25178571Y-225953571D01*
X26107142Y-225096428D02*
X25964285Y-225025000D01*
X25892857Y-224953571D01*
X25821428Y-224810714D01*
X25821428Y-224739285D01*
X25892857Y-224596428D01*
X25964285Y-224525000D01*
X26107142Y-224453571D01*
X26392857Y-224453571D01*
X26535714Y-224525000D01*
X26607142Y-224596428D01*
X26678571Y-224739285D01*
X26678571Y-224810714D01*
X26607142Y-224953571D01*
X26535714Y-225025000D01*
X26392857Y-225096428D01*
X26107142Y-225096428D01*
X25964285Y-225167857D01*
X25892857Y-225239285D01*
X25821428Y-225382142D01*
X25821428Y-225667857D01*
X25892857Y-225810714D01*
X25964285Y-225882142D01*
X26107142Y-225953571D01*
X26392857Y-225953571D01*
X26535714Y-225882142D01*
X26607142Y-225810714D01*
X26678571Y-225667857D01*
X26678571Y-225382142D01*
X26607142Y-225239285D01*
X26535714Y-225167857D01*
X26392857Y-225096428D01*
X28107142Y-224525000D02*
X27964285Y-224453571D01*
X27749999Y-224453571D01*
X27535714Y-224525000D01*
X27392857Y-224667857D01*
X27321428Y-224810714D01*
X27249999Y-225096428D01*
X27249999Y-225310714D01*
X27321428Y-225596428D01*
X27392857Y-225739285D01*
X27535714Y-225882142D01*
X27749999Y-225953571D01*
X27892857Y-225953571D01*
X28107142Y-225882142D01*
X28178571Y-225810714D01*
X28178571Y-225310714D01*
X27892857Y-225310714D01*
X28821428Y-225953571D02*
X28821428Y-224453571D01*
X29464285Y-225953571D02*
X29464285Y-225167857D01*
X29392857Y-225025000D01*
X29249999Y-224953571D01*
X29035714Y-224953571D01*
X28892857Y-225025000D01*
X28821428Y-225096428D01*
X30035714Y-224953571D02*
X30821428Y-224953571D01*
X30035714Y-225953571D01*
X30821428Y-225953571D01*
X32321428Y-224953571D02*
X32892857Y-224953571D01*
X32535714Y-225953571D02*
X32535714Y-224667857D01*
X32607142Y-224525000D01*
X32749999Y-224453571D01*
X32892857Y-224453571D01*
X34035714Y-225953571D02*
X34035714Y-225167857D01*
X33964285Y-225025000D01*
X33821428Y-224953571D01*
X33535714Y-224953571D01*
X33392857Y-225025000D01*
X34035714Y-225882142D02*
X33892857Y-225953571D01*
X33535714Y-225953571D01*
X33392857Y-225882142D01*
X33321428Y-225739285D01*
X33321428Y-225596428D01*
X33392857Y-225453571D01*
X33535714Y-225382142D01*
X33892857Y-225382142D01*
X34035714Y-225310714D01*
X34749999Y-224953571D02*
X34749999Y-225953571D01*
X34749999Y-225096428D02*
X34821428Y-225025000D01*
X34964285Y-224953571D01*
X35178571Y-224953571D01*
X35321428Y-225025000D01*
X35392857Y-225167857D01*
X35392857Y-225953571D01*
X36321428Y-225953571D02*
X36178571Y-225882142D01*
X36107142Y-225810714D01*
X36035714Y-225667857D01*
X36035714Y-225239285D01*
X36107142Y-225096428D01*
X36178571Y-225025000D01*
X36321428Y-224953571D01*
X36535714Y-224953571D01*
X36678571Y-225025000D01*
X36749999Y-225096428D01*
X36821428Y-225239285D01*
X36821428Y-225667857D01*
X36749999Y-225810714D01*
X36678571Y-225882142D01*
X36535714Y-225953571D01*
X36321428Y-225953571D01*
X38107142Y-224953571D02*
X38107142Y-225953571D01*
X37464285Y-224953571D02*
X37464285Y-225739285D01*
X37535714Y-225882142D01*
X37678571Y-225953571D01*
X37892857Y-225953571D01*
X38035714Y-225882142D01*
X38107142Y-225810714D01*
X38607142Y-224953571D02*
X39178571Y-224953571D01*
X38821428Y-224453571D02*
X38821428Y-225739285D01*
X38892857Y-225882142D01*
X39035714Y-225953571D01*
X39178571Y-225953571D01*
X24071428Y-227046428D02*
X24142857Y-226975000D01*
X24285714Y-226903571D01*
X24642857Y-226903571D01*
X24785714Y-226975000D01*
X24857142Y-227046428D01*
X24928571Y-227189285D01*
X24928571Y-227332142D01*
X24857142Y-227546428D01*
X23999999Y-228403571D01*
X24928571Y-228403571D01*
X25857142Y-226903571D02*
X25999999Y-226903571D01*
X26142857Y-226975000D01*
X26214285Y-227046428D01*
X26285714Y-227189285D01*
X26357142Y-227475000D01*
X26357142Y-227832142D01*
X26285714Y-228117857D01*
X26214285Y-228260714D01*
X26142857Y-228332142D01*
X25999999Y-228403571D01*
X25857142Y-228403571D01*
X25714285Y-228332142D01*
X25642857Y-228260714D01*
X25571428Y-228117857D01*
X25499999Y-227832142D01*
X25499999Y-227475000D01*
X25571428Y-227189285D01*
X25642857Y-227046428D01*
X25714285Y-226975000D01*
X25857142Y-226903571D01*
X27785714Y-228403571D02*
X26928571Y-228403571D01*
X27357142Y-228403571D02*
X27357142Y-226903571D01*
X27214285Y-227117857D01*
X27071428Y-227260714D01*
X26928571Y-227332142D01*
X28499999Y-228403571D02*
X28785714Y-228403571D01*
X28928571Y-228332142D01*
X29000000Y-228260714D01*
X29142857Y-228046428D01*
X29214285Y-227760714D01*
X29214285Y-227189285D01*
X29142857Y-227046428D01*
X29071428Y-226975000D01*
X28928571Y-226903571D01*
X28642857Y-226903571D01*
X28499999Y-226975000D01*
X28428571Y-227046428D01*
X28357142Y-227189285D01*
X28357142Y-227546428D01*
X28428571Y-227689285D01*
X28499999Y-227760714D01*
X28642857Y-227832142D01*
X28928571Y-227832142D01*
X29071428Y-227760714D01*
X29142857Y-227689285D01*
X29214285Y-227546428D01*
X29857142Y-227832142D02*
X30999999Y-227832142D01*
X31999999Y-226903571D02*
X32142857Y-226903571D01*
X32285714Y-226975000D01*
X32357142Y-227046428D01*
X32428571Y-227189285D01*
X32499999Y-227475000D01*
X32499999Y-227832142D01*
X32428571Y-228117857D01*
X32357142Y-228260714D01*
X32285714Y-228332142D01*
X32142857Y-228403571D01*
X31999999Y-228403571D01*
X31857142Y-228332142D01*
X31785714Y-228260714D01*
X31714285Y-228117857D01*
X31642857Y-227832142D01*
X31642857Y-227475000D01*
X31714285Y-227189285D01*
X31785714Y-227046428D01*
X31857142Y-226975000D01*
X31999999Y-226903571D01*
X33785714Y-226903571D02*
X33500000Y-226903571D01*
X33357142Y-226975000D01*
X33285714Y-227046428D01*
X33142857Y-227260714D01*
X33071428Y-227546428D01*
X33071428Y-228117857D01*
X33142857Y-228260714D01*
X33214285Y-228332142D01*
X33357142Y-228403571D01*
X33642857Y-228403571D01*
X33785714Y-228332142D01*
X33857142Y-228260714D01*
X33928571Y-228117857D01*
X33928571Y-227760714D01*
X33857142Y-227617857D01*
X33785714Y-227546428D01*
X33642857Y-227475000D01*
X33357142Y-227475000D01*
X33214285Y-227546428D01*
X33142857Y-227617857D01*
X33071428Y-227760714D01*
X18035714Y-182417857D02*
X18535714Y-182417857D01*
X18749999Y-183203571D02*
X18035714Y-183203571D01*
X18035714Y-181703571D01*
X18749999Y-181703571D01*
X19892857Y-182417857D02*
X20107142Y-182489285D01*
X20178571Y-182560714D01*
X20249999Y-182703571D01*
X20249999Y-182917857D01*
X20178571Y-183060714D01*
X20107142Y-183132142D01*
X19964285Y-183203571D01*
X19392857Y-183203571D01*
X19392857Y-181703571D01*
X19892857Y-181703571D01*
X20035714Y-181775000D01*
X20107142Y-181846428D01*
X20178571Y-181989285D01*
X20178571Y-182132142D01*
X20107142Y-182275000D01*
X20035714Y-182346428D01*
X19892857Y-182417857D01*
X19392857Y-182417857D01*
X20892857Y-183203571D02*
X20892857Y-181703571D01*
X22964285Y-182346428D02*
X22821428Y-182275000D01*
X22749999Y-182203571D01*
X22678571Y-182060714D01*
X22678571Y-181989285D01*
X22749999Y-181846428D01*
X22821428Y-181775000D01*
X22964285Y-181703571D01*
X23249999Y-181703571D01*
X23392857Y-181775000D01*
X23464285Y-181846428D01*
X23535714Y-181989285D01*
X23535714Y-182060714D01*
X23464285Y-182203571D01*
X23392857Y-182275000D01*
X23249999Y-182346428D01*
X22964285Y-182346428D01*
X22821428Y-182417857D01*
X22749999Y-182489285D01*
X22678571Y-182632142D01*
X22678571Y-182917857D01*
X22749999Y-183060714D01*
X22821428Y-183132142D01*
X22964285Y-183203571D01*
X23249999Y-183203571D01*
X23392857Y-183132142D01*
X23464285Y-183060714D01*
X23535714Y-182917857D01*
X23535714Y-182632142D01*
X23464285Y-182489285D01*
X23392857Y-182417857D01*
X23249999Y-182346428D01*
X24178571Y-183060714D02*
X24249999Y-183132142D01*
X24178571Y-183203571D01*
X24107142Y-183132142D01*
X24178571Y-183060714D01*
X24178571Y-183203571D01*
X25607142Y-181703571D02*
X24892857Y-181703571D01*
X24821428Y-182417857D01*
X24892857Y-182346428D01*
X25035714Y-182275000D01*
X25392857Y-182275000D01*
X25535714Y-182346428D01*
X25607142Y-182417857D01*
X25678571Y-182560714D01*
X25678571Y-182917857D01*
X25607142Y-183060714D01*
X25535714Y-183132142D01*
X25392857Y-183203571D01*
X25035714Y-183203571D01*
X24892857Y-183132142D01*
X24821428Y-183060714D01*
X27107142Y-181775000D02*
X26964285Y-181703571D01*
X26749999Y-181703571D01*
X26535714Y-181775000D01*
X26392857Y-181917857D01*
X26321428Y-182060714D01*
X26249999Y-182346428D01*
X26249999Y-182560714D01*
X26321428Y-182846428D01*
X26392857Y-182989285D01*
X26535714Y-183132142D01*
X26749999Y-183203571D01*
X26892857Y-183203571D01*
X27107142Y-183132142D01*
X27178571Y-183060714D01*
X27178571Y-182560714D01*
X26892857Y-182560714D01*
X27821428Y-183203571D02*
X27821428Y-181703571D01*
X28464285Y-183203571D02*
X28464285Y-182417857D01*
X28392857Y-182275000D01*
X28249999Y-182203571D01*
X28035714Y-182203571D01*
X27892857Y-182275000D01*
X27821428Y-182346428D01*
X29035714Y-182203571D02*
X29821428Y-182203571D01*
X29035714Y-183203571D01*
X29821428Y-183203571D01*
X31321428Y-182203571D02*
X31892857Y-182203571D01*
X31535714Y-183203571D02*
X31535714Y-181917857D01*
X31607142Y-181775000D01*
X31749999Y-181703571D01*
X31892857Y-181703571D01*
X33035714Y-183203571D02*
X33035714Y-182417857D01*
X32964285Y-182275000D01*
X32821428Y-182203571D01*
X32535714Y-182203571D01*
X32392857Y-182275000D01*
X33035714Y-183132142D02*
X32892857Y-183203571D01*
X32535714Y-183203571D01*
X32392857Y-183132142D01*
X32321428Y-182989285D01*
X32321428Y-182846428D01*
X32392857Y-182703571D01*
X32535714Y-182632142D01*
X32892857Y-182632142D01*
X33035714Y-182560714D01*
X33749999Y-182203571D02*
X33749999Y-183203571D01*
X33749999Y-182346428D02*
X33821428Y-182275000D01*
X33964285Y-182203571D01*
X34178571Y-182203571D01*
X34321428Y-182275000D01*
X34392857Y-182417857D01*
X34392857Y-183203571D01*
X35321428Y-183203571D02*
X35178571Y-183132142D01*
X35107142Y-183060714D01*
X35035714Y-182917857D01*
X35035714Y-182489285D01*
X35107142Y-182346428D01*
X35178571Y-182275000D01*
X35321428Y-182203571D01*
X35535714Y-182203571D01*
X35678571Y-182275000D01*
X35749999Y-182346428D01*
X35821428Y-182489285D01*
X35821428Y-182917857D01*
X35749999Y-183060714D01*
X35678571Y-183132142D01*
X35535714Y-183203571D01*
X35321428Y-183203571D01*
X37107142Y-182203571D02*
X37107142Y-183203571D01*
X36464285Y-182203571D02*
X36464285Y-182989285D01*
X36535714Y-183132142D01*
X36678571Y-183203571D01*
X36892857Y-183203571D01*
X37035714Y-183132142D01*
X37107142Y-183060714D01*
X37607142Y-182203571D02*
X38178571Y-182203571D01*
X37821428Y-181703571D02*
X37821428Y-182989285D01*
X37892857Y-183132142D01*
X38035714Y-183203571D01*
X38178571Y-183203571D01*
X23071428Y-184296428D02*
X23142857Y-184225000D01*
X23285714Y-184153571D01*
X23642857Y-184153571D01*
X23785714Y-184225000D01*
X23857142Y-184296428D01*
X23928571Y-184439285D01*
X23928571Y-184582142D01*
X23857142Y-184796428D01*
X22999999Y-185653571D01*
X23928571Y-185653571D01*
X24857142Y-184153571D02*
X24999999Y-184153571D01*
X25142857Y-184225000D01*
X25214285Y-184296428D01*
X25285714Y-184439285D01*
X25357142Y-184725000D01*
X25357142Y-185082142D01*
X25285714Y-185367857D01*
X25214285Y-185510714D01*
X25142857Y-185582142D01*
X24999999Y-185653571D01*
X24857142Y-185653571D01*
X24714285Y-185582142D01*
X24642857Y-185510714D01*
X24571428Y-185367857D01*
X24499999Y-185082142D01*
X24499999Y-184725000D01*
X24571428Y-184439285D01*
X24642857Y-184296428D01*
X24714285Y-184225000D01*
X24857142Y-184153571D01*
X26785714Y-185653571D02*
X25928571Y-185653571D01*
X26357142Y-185653571D02*
X26357142Y-184153571D01*
X26214285Y-184367857D01*
X26071428Y-184510714D01*
X25928571Y-184582142D01*
X27499999Y-185653571D02*
X27785714Y-185653571D01*
X27928571Y-185582142D01*
X28000000Y-185510714D01*
X28142857Y-185296428D01*
X28214285Y-185010714D01*
X28214285Y-184439285D01*
X28142857Y-184296428D01*
X28071428Y-184225000D01*
X27928571Y-184153571D01*
X27642857Y-184153571D01*
X27499999Y-184225000D01*
X27428571Y-184296428D01*
X27357142Y-184439285D01*
X27357142Y-184796428D01*
X27428571Y-184939285D01*
X27499999Y-185010714D01*
X27642857Y-185082142D01*
X27928571Y-185082142D01*
X28071428Y-185010714D01*
X28142857Y-184939285D01*
X28214285Y-184796428D01*
X28857142Y-185082142D02*
X29999999Y-185082142D01*
X30999999Y-184153571D02*
X31142857Y-184153571D01*
X31285714Y-184225000D01*
X31357142Y-184296428D01*
X31428571Y-184439285D01*
X31499999Y-184725000D01*
X31499999Y-185082142D01*
X31428571Y-185367857D01*
X31357142Y-185510714D01*
X31285714Y-185582142D01*
X31142857Y-185653571D01*
X30999999Y-185653571D01*
X30857142Y-185582142D01*
X30785714Y-185510714D01*
X30714285Y-185367857D01*
X30642857Y-185082142D01*
X30642857Y-184725000D01*
X30714285Y-184439285D01*
X30785714Y-184296428D01*
X30857142Y-184225000D01*
X30999999Y-184153571D01*
X32785714Y-184153571D02*
X32500000Y-184153571D01*
X32357142Y-184225000D01*
X32285714Y-184296428D01*
X32142857Y-184510714D01*
X32071428Y-184796428D01*
X32071428Y-185367857D01*
X32142857Y-185510714D01*
X32214285Y-185582142D01*
X32357142Y-185653571D01*
X32642857Y-185653571D01*
X32785714Y-185582142D01*
X32857142Y-185510714D01*
X32928571Y-185367857D01*
X32928571Y-185010714D01*
X32857142Y-184867857D01*
X32785714Y-184796428D01*
X32642857Y-184725000D01*
X32357142Y-184725000D01*
X32214285Y-184796428D01*
X32142857Y-184867857D01*
X32071428Y-185010714D01*
X48071428Y-36417857D02*
X48571428Y-36417857D01*
X48785714Y-37203571D02*
X48071428Y-37203571D01*
X48071428Y-35703571D01*
X48785714Y-35703571D01*
X49928571Y-36417857D02*
X50142857Y-36489285D01*
X50214285Y-36560714D01*
X50285714Y-36703571D01*
X50285714Y-36917857D01*
X50214285Y-37060714D01*
X50142857Y-37132142D01*
X50000000Y-37203571D01*
X49428571Y-37203571D01*
X49428571Y-35703571D01*
X49928571Y-35703571D01*
X50071428Y-35775000D01*
X50142857Y-35846428D01*
X50214285Y-35989285D01*
X50214285Y-36132142D01*
X50142857Y-36275000D01*
X50071428Y-36346428D01*
X49928571Y-36417857D01*
X49428571Y-36417857D01*
X50928571Y-37203571D02*
X50928571Y-35703571D01*
X53285714Y-36417857D02*
X52785714Y-36417857D01*
X52785714Y-37203571D02*
X52785714Y-35703571D01*
X53500000Y-35703571D01*
X54071428Y-37203571D02*
X54071428Y-36203571D01*
X54071428Y-35703571D02*
X54000000Y-35775000D01*
X54071428Y-35846428D01*
X54142857Y-35775000D01*
X54071428Y-35703571D01*
X54071428Y-35846428D01*
X55000000Y-37203571D02*
X54857142Y-37132142D01*
X54785714Y-36989285D01*
X54785714Y-35703571D01*
X55357142Y-36203571D02*
X55928571Y-36203571D01*
X55571428Y-35703571D02*
X55571428Y-36989285D01*
X55642857Y-37132142D01*
X55785714Y-37203571D01*
X55928571Y-37203571D01*
X57000000Y-37132142D02*
X56857142Y-37203571D01*
X56571428Y-37203571D01*
X56428571Y-37132142D01*
X56357142Y-36989285D01*
X56357142Y-36417857D01*
X56428571Y-36275000D01*
X56571428Y-36203571D01*
X56857142Y-36203571D01*
X57000000Y-36275000D01*
X57071428Y-36417857D01*
X57071428Y-36560714D01*
X56357142Y-36703571D01*
X57714285Y-37203571D02*
X57714285Y-36203571D01*
X57714285Y-36489285D02*
X57785714Y-36346428D01*
X57857142Y-36275000D01*
X58000000Y-36203571D01*
X58142857Y-36203571D01*
X48071428Y-38296428D02*
X48142857Y-38225000D01*
X48285714Y-38153571D01*
X48642857Y-38153571D01*
X48785714Y-38225000D01*
X48857142Y-38296428D01*
X48928571Y-38439285D01*
X48928571Y-38582142D01*
X48857142Y-38796428D01*
X48000000Y-39653571D01*
X48928571Y-39653571D01*
X49857142Y-38153571D02*
X50000000Y-38153571D01*
X50142857Y-38225000D01*
X50214285Y-38296428D01*
X50285714Y-38439285D01*
X50357142Y-38725000D01*
X50357142Y-39082142D01*
X50285714Y-39367857D01*
X50214285Y-39510714D01*
X50142857Y-39582142D01*
X50000000Y-39653571D01*
X49857142Y-39653571D01*
X49714285Y-39582142D01*
X49642857Y-39510714D01*
X49571428Y-39367857D01*
X49500000Y-39082142D01*
X49500000Y-38725000D01*
X49571428Y-38439285D01*
X49642857Y-38296428D01*
X49714285Y-38225000D01*
X49857142Y-38153571D01*
X51785714Y-39653571D02*
X50928571Y-39653571D01*
X51357142Y-39653571D02*
X51357142Y-38153571D01*
X51214285Y-38367857D01*
X51071428Y-38510714D01*
X50928571Y-38582142D01*
X52500000Y-39653571D02*
X52785714Y-39653571D01*
X52928571Y-39582142D01*
X53000000Y-39510714D01*
X53142857Y-39296428D01*
X53214285Y-39010714D01*
X53214285Y-38439285D01*
X53142857Y-38296428D01*
X53071428Y-38225000D01*
X52928571Y-38153571D01*
X52642857Y-38153571D01*
X52500000Y-38225000D01*
X52428571Y-38296428D01*
X52357142Y-38439285D01*
X52357142Y-38796428D01*
X52428571Y-38939285D01*
X52500000Y-39010714D01*
X52642857Y-39082142D01*
X52928571Y-39082142D01*
X53071428Y-39010714D01*
X53142857Y-38939285D01*
X53214285Y-38796428D01*
X53857142Y-39082142D02*
X55000000Y-39082142D01*
X56000000Y-38153571D02*
X56142857Y-38153571D01*
X56285714Y-38225000D01*
X56357142Y-38296428D01*
X56428571Y-38439285D01*
X56500000Y-38725000D01*
X56500000Y-39082142D01*
X56428571Y-39367857D01*
X56357142Y-39510714D01*
X56285714Y-39582142D01*
X56142857Y-39653571D01*
X56000000Y-39653571D01*
X55857142Y-39582142D01*
X55785714Y-39510714D01*
X55714285Y-39367857D01*
X55642857Y-39082142D01*
X55642857Y-38725000D01*
X55714285Y-38439285D01*
X55785714Y-38296428D01*
X55857142Y-38225000D01*
X56000000Y-38153571D01*
X57785714Y-38153571D02*
X57500000Y-38153571D01*
X57357142Y-38225000D01*
X57285714Y-38296428D01*
X57142857Y-38510714D01*
X57071428Y-38796428D01*
X57071428Y-39367857D01*
X57142857Y-39510714D01*
X57214285Y-39582142D01*
X57357142Y-39653571D01*
X57642857Y-39653571D01*
X57785714Y-39582142D01*
X57857142Y-39510714D01*
X57928571Y-39367857D01*
X57928571Y-39010714D01*
X57857142Y-38867857D01*
X57785714Y-38796428D01*
X57642857Y-38725000D01*
X57357142Y-38725000D01*
X57214285Y-38796428D01*
X57142857Y-38867857D01*
X57071428Y-39010714D01*
X49178571Y-146667857D02*
X49678571Y-146667857D01*
X49892857Y-147453571D02*
X49178571Y-147453571D01*
X49178571Y-145953571D01*
X49892857Y-145953571D01*
X51035714Y-146667857D02*
X51249999Y-146739285D01*
X51321428Y-146810714D01*
X51392857Y-146953571D01*
X51392857Y-147167857D01*
X51321428Y-147310714D01*
X51249999Y-147382142D01*
X51107142Y-147453571D01*
X50535714Y-147453571D01*
X50535714Y-145953571D01*
X51035714Y-145953571D01*
X51178571Y-146025000D01*
X51249999Y-146096428D01*
X51321428Y-146239285D01*
X51321428Y-146382142D01*
X51249999Y-146525000D01*
X51178571Y-146596428D01*
X51035714Y-146667857D01*
X50535714Y-146667857D01*
X52035714Y-147453571D02*
X52035714Y-145953571D01*
X53678571Y-145953571D02*
X54535714Y-145953571D01*
X54107142Y-147453571D02*
X54107142Y-145953571D01*
X55035714Y-147453571D02*
X55035714Y-146453571D01*
X55035714Y-146739285D02*
X55107142Y-146596428D01*
X55178571Y-146525000D01*
X55321428Y-146453571D01*
X55464285Y-146453571D01*
X55964285Y-147453571D02*
X55964285Y-146453571D01*
X55964285Y-145953571D02*
X55892857Y-146025000D01*
X55964285Y-146096428D01*
X56035714Y-146025000D01*
X55964285Y-145953571D01*
X55964285Y-146096428D01*
X56678571Y-146453571D02*
X56678571Y-147953571D01*
X56678571Y-146525000D02*
X56821428Y-146453571D01*
X57107142Y-146453571D01*
X57250000Y-146525000D01*
X57321428Y-146596428D01*
X57392857Y-146739285D01*
X57392857Y-147167857D01*
X57321428Y-147310714D01*
X57250000Y-147382142D01*
X57107142Y-147453571D01*
X56821428Y-147453571D01*
X56678571Y-147382142D01*
X58249999Y-147453571D02*
X58107142Y-147382142D01*
X58035714Y-147239285D01*
X58035714Y-145953571D01*
X59392857Y-147382142D02*
X59249999Y-147453571D01*
X58964285Y-147453571D01*
X58821428Y-147382142D01*
X58749999Y-147239285D01*
X58749999Y-146667857D01*
X58821428Y-146525000D01*
X58964285Y-146453571D01*
X59249999Y-146453571D01*
X59392857Y-146525000D01*
X59464285Y-146667857D01*
X59464285Y-146810714D01*
X58749999Y-146953571D01*
X60107142Y-147453571D02*
X60107142Y-146453571D01*
X60107142Y-146739285D02*
X60178571Y-146596428D01*
X60249999Y-146525000D01*
X60392857Y-146453571D01*
X60535714Y-146453571D01*
X49821428Y-148546428D02*
X49892857Y-148475000D01*
X50035714Y-148403571D01*
X50392857Y-148403571D01*
X50535714Y-148475000D01*
X50607142Y-148546428D01*
X50678571Y-148689285D01*
X50678571Y-148832142D01*
X50607142Y-149046428D01*
X49750000Y-149903571D01*
X50678571Y-149903571D01*
X51607142Y-148403571D02*
X51750000Y-148403571D01*
X51892857Y-148475000D01*
X51964285Y-148546428D01*
X52035714Y-148689285D01*
X52107142Y-148975000D01*
X52107142Y-149332142D01*
X52035714Y-149617857D01*
X51964285Y-149760714D01*
X51892857Y-149832142D01*
X51750000Y-149903571D01*
X51607142Y-149903571D01*
X51464285Y-149832142D01*
X51392857Y-149760714D01*
X51321428Y-149617857D01*
X51250000Y-149332142D01*
X51250000Y-148975000D01*
X51321428Y-148689285D01*
X51392857Y-148546428D01*
X51464285Y-148475000D01*
X51607142Y-148403571D01*
X53535714Y-149903571D02*
X52678571Y-149903571D01*
X53107142Y-149903571D02*
X53107142Y-148403571D01*
X52964285Y-148617857D01*
X52821428Y-148760714D01*
X52678571Y-148832142D01*
X54250000Y-149903571D02*
X54535714Y-149903571D01*
X54678571Y-149832142D01*
X54750000Y-149760714D01*
X54892857Y-149546428D01*
X54964285Y-149260714D01*
X54964285Y-148689285D01*
X54892857Y-148546428D01*
X54821428Y-148475000D01*
X54678571Y-148403571D01*
X54392857Y-148403571D01*
X54250000Y-148475000D01*
X54178571Y-148546428D01*
X54107142Y-148689285D01*
X54107142Y-149046428D01*
X54178571Y-149189285D01*
X54250000Y-149260714D01*
X54392857Y-149332142D01*
X54678571Y-149332142D01*
X54821428Y-149260714D01*
X54892857Y-149189285D01*
X54964285Y-149046428D01*
X55607142Y-149332142D02*
X56750000Y-149332142D01*
X57750000Y-148403571D02*
X57892857Y-148403571D01*
X58035714Y-148475000D01*
X58107142Y-148546428D01*
X58178571Y-148689285D01*
X58250000Y-148975000D01*
X58250000Y-149332142D01*
X58178571Y-149617857D01*
X58107142Y-149760714D01*
X58035714Y-149832142D01*
X57892857Y-149903571D01*
X57750000Y-149903571D01*
X57607142Y-149832142D01*
X57535714Y-149760714D01*
X57464285Y-149617857D01*
X57392857Y-149332142D01*
X57392857Y-148975000D01*
X57464285Y-148689285D01*
X57535714Y-148546428D01*
X57607142Y-148475000D01*
X57750000Y-148403571D01*
X59535714Y-148403571D02*
X59250000Y-148403571D01*
X59107142Y-148475000D01*
X59035714Y-148546428D01*
X58892857Y-148760714D01*
X58821428Y-149046428D01*
X58821428Y-149617857D01*
X58892857Y-149760714D01*
X58964285Y-149832142D01*
X59107142Y-149903571D01*
X59392857Y-149903571D01*
X59535714Y-149832142D01*
X59607142Y-149760714D01*
X59678571Y-149617857D01*
X59678571Y-149260714D01*
X59607142Y-149117857D01*
X59535714Y-149046428D01*
X59392857Y-148975000D01*
X59107142Y-148975000D01*
X58964285Y-149046428D01*
X58892857Y-149117857D01*
X58821428Y-149260714D01*
X47321428Y-93167857D02*
X47821428Y-93167857D01*
X48035714Y-93953571D02*
X47321428Y-93953571D01*
X47321428Y-92453571D01*
X48035714Y-92453571D01*
X49178571Y-93167857D02*
X49392857Y-93239285D01*
X49464285Y-93310714D01*
X49535714Y-93453571D01*
X49535714Y-93667857D01*
X49464285Y-93810714D01*
X49392857Y-93882142D01*
X49250000Y-93953571D01*
X48678571Y-93953571D01*
X48678571Y-92453571D01*
X49178571Y-92453571D01*
X49321428Y-92525000D01*
X49392857Y-92596428D01*
X49464285Y-92739285D01*
X49464285Y-92882142D01*
X49392857Y-93025000D01*
X49321428Y-93096428D01*
X49178571Y-93167857D01*
X48678571Y-93167857D01*
X50178571Y-93953571D02*
X50178571Y-92453571D01*
X51964285Y-93525000D02*
X52678571Y-93525000D01*
X51821428Y-93953571D02*
X52321428Y-92453571D01*
X52821428Y-93953571D01*
X53321428Y-93953571D02*
X53321428Y-92453571D01*
X53821428Y-93525000D01*
X54321428Y-92453571D01*
X54321428Y-93953571D01*
X55035714Y-93953571D02*
X55035714Y-92453571D01*
X55607142Y-92453571D01*
X55750000Y-92525000D01*
X55821428Y-92596428D01*
X55892857Y-92739285D01*
X55892857Y-92953571D01*
X55821428Y-93096428D01*
X55750000Y-93167857D01*
X55607142Y-93239285D01*
X55035714Y-93239285D01*
X56178571Y-94096428D02*
X57321428Y-94096428D01*
X57607142Y-93882142D02*
X57821428Y-93953571D01*
X58178571Y-93953571D01*
X58321428Y-93882142D01*
X58392857Y-93810714D01*
X58464285Y-93667857D01*
X58464285Y-93525000D01*
X58392857Y-93382142D01*
X58321428Y-93310714D01*
X58178571Y-93239285D01*
X57892857Y-93167857D01*
X57750000Y-93096428D01*
X57678571Y-93025000D01*
X57607142Y-92882142D01*
X57607142Y-92739285D01*
X57678571Y-92596428D01*
X57750000Y-92525000D01*
X57892857Y-92453571D01*
X58250000Y-92453571D01*
X58464285Y-92525000D01*
X59107142Y-93953571D02*
X59107142Y-92453571D01*
X59964285Y-93953571D02*
X59321428Y-93096428D01*
X59964285Y-92453571D02*
X59107142Y-93310714D01*
X60892857Y-93239285D02*
X60892857Y-93953571D01*
X60392857Y-92453571D02*
X60892857Y-93239285D01*
X61392857Y-92453571D01*
X49321428Y-95046428D02*
X49392857Y-94975000D01*
X49535714Y-94903571D01*
X49892857Y-94903571D01*
X50035714Y-94975000D01*
X50107142Y-95046428D01*
X50178571Y-95189285D01*
X50178571Y-95332142D01*
X50107142Y-95546428D01*
X49250000Y-96403571D01*
X50178571Y-96403571D01*
X51107142Y-94903571D02*
X51250000Y-94903571D01*
X51392857Y-94975000D01*
X51464285Y-95046428D01*
X51535714Y-95189285D01*
X51607142Y-95475000D01*
X51607142Y-95832142D01*
X51535714Y-96117857D01*
X51464285Y-96260714D01*
X51392857Y-96332142D01*
X51250000Y-96403571D01*
X51107142Y-96403571D01*
X50964285Y-96332142D01*
X50892857Y-96260714D01*
X50821428Y-96117857D01*
X50750000Y-95832142D01*
X50750000Y-95475000D01*
X50821428Y-95189285D01*
X50892857Y-95046428D01*
X50964285Y-94975000D01*
X51107142Y-94903571D01*
X53035714Y-96403571D02*
X52178571Y-96403571D01*
X52607142Y-96403571D02*
X52607142Y-94903571D01*
X52464285Y-95117857D01*
X52321428Y-95260714D01*
X52178571Y-95332142D01*
X53750000Y-96403571D02*
X54035714Y-96403571D01*
X54178571Y-96332142D01*
X54250000Y-96260714D01*
X54392857Y-96046428D01*
X54464285Y-95760714D01*
X54464285Y-95189285D01*
X54392857Y-95046428D01*
X54321428Y-94975000D01*
X54178571Y-94903571D01*
X53892857Y-94903571D01*
X53750000Y-94975000D01*
X53678571Y-95046428D01*
X53607142Y-95189285D01*
X53607142Y-95546428D01*
X53678571Y-95689285D01*
X53750000Y-95760714D01*
X53892857Y-95832142D01*
X54178571Y-95832142D01*
X54321428Y-95760714D01*
X54392857Y-95689285D01*
X54464285Y-95546428D01*
X55107142Y-95832142D02*
X56250000Y-95832142D01*
X57250000Y-94903571D02*
X57392857Y-94903571D01*
X57535714Y-94975000D01*
X57607142Y-95046428D01*
X57678571Y-95189285D01*
X57750000Y-95475000D01*
X57750000Y-95832142D01*
X57678571Y-96117857D01*
X57607142Y-96260714D01*
X57535714Y-96332142D01*
X57392857Y-96403571D01*
X57250000Y-96403571D01*
X57107142Y-96332142D01*
X57035714Y-96260714D01*
X56964285Y-96117857D01*
X56892857Y-95832142D01*
X56892857Y-95475000D01*
X56964285Y-95189285D01*
X57035714Y-95046428D01*
X57107142Y-94975000D01*
X57250000Y-94903571D01*
X59035714Y-94903571D02*
X58750000Y-94903571D01*
X58607142Y-94975000D01*
X58535714Y-95046428D01*
X58392857Y-95260714D01*
X58321428Y-95546428D01*
X58321428Y-96117857D01*
X58392857Y-96260714D01*
X58464285Y-96332142D01*
X58607142Y-96403571D01*
X58892857Y-96403571D01*
X59035714Y-96332142D01*
X59107142Y-96260714D01*
X59178571Y-96117857D01*
X59178571Y-95760714D01*
X59107142Y-95617857D01*
X59035714Y-95546428D01*
X58892857Y-95475000D01*
X58607142Y-95475000D01*
X58464285Y-95546428D01*
X58392857Y-95617857D01*
X58321428Y-95760714D01*
X47392857Y-60167857D02*
X47892857Y-60167857D01*
X48107142Y-60953571D02*
X47392857Y-60953571D01*
X47392857Y-59453571D01*
X48107142Y-59453571D01*
X49250000Y-60167857D02*
X49464285Y-60239285D01*
X49535714Y-60310714D01*
X49607142Y-60453571D01*
X49607142Y-60667857D01*
X49535714Y-60810714D01*
X49464285Y-60882142D01*
X49321428Y-60953571D01*
X48750000Y-60953571D01*
X48750000Y-59453571D01*
X49250000Y-59453571D01*
X49392857Y-59525000D01*
X49464285Y-59596428D01*
X49535714Y-59739285D01*
X49535714Y-59882142D01*
X49464285Y-60025000D01*
X49392857Y-60096428D01*
X49250000Y-60167857D01*
X48750000Y-60167857D01*
X50250000Y-60953571D02*
X50250000Y-59453571D01*
X51892857Y-59453571D02*
X52750000Y-59453571D01*
X52321428Y-60953571D02*
X52321428Y-59453571D01*
X53250000Y-60953571D02*
X53250000Y-59953571D01*
X53250000Y-60239285D02*
X53321428Y-60096428D01*
X53392857Y-60025000D01*
X53535714Y-59953571D01*
X53678571Y-59953571D01*
X54821428Y-60953571D02*
X54821428Y-60167857D01*
X54750000Y-60025000D01*
X54607142Y-59953571D01*
X54321428Y-59953571D01*
X54178571Y-60025000D01*
X54821428Y-60882142D02*
X54678571Y-60953571D01*
X54321428Y-60953571D01*
X54178571Y-60882142D01*
X54107142Y-60739285D01*
X54107142Y-60596428D01*
X54178571Y-60453571D01*
X54321428Y-60382142D01*
X54678571Y-60382142D01*
X54821428Y-60310714D01*
X55535714Y-59953571D02*
X55535714Y-60953571D01*
X55535714Y-60096428D02*
X55607142Y-60025000D01*
X55750000Y-59953571D01*
X55964285Y-59953571D01*
X56107142Y-60025000D01*
X56178571Y-60167857D01*
X56178571Y-60953571D01*
X56821428Y-60882142D02*
X56964285Y-60953571D01*
X57250000Y-60953571D01*
X57392857Y-60882142D01*
X57464285Y-60739285D01*
X57464285Y-60667857D01*
X57392857Y-60525000D01*
X57250000Y-60453571D01*
X57035714Y-60453571D01*
X56892857Y-60382142D01*
X56821428Y-60239285D01*
X56821428Y-60167857D01*
X56892857Y-60025000D01*
X57035714Y-59953571D01*
X57250000Y-59953571D01*
X57392857Y-60025000D01*
X58107142Y-60953571D02*
X58107142Y-59953571D01*
X58107142Y-60096428D02*
X58178571Y-60025000D01*
X58321428Y-59953571D01*
X58535714Y-59953571D01*
X58678571Y-60025000D01*
X58750000Y-60167857D01*
X58750000Y-60953571D01*
X58750000Y-60167857D02*
X58821428Y-60025000D01*
X58964285Y-59953571D01*
X59178571Y-59953571D01*
X59321428Y-60025000D01*
X59392857Y-60167857D01*
X59392857Y-60953571D01*
X60107142Y-60953571D02*
X60107142Y-59953571D01*
X60107142Y-59453571D02*
X60035714Y-59525000D01*
X60107142Y-59596428D01*
X60178571Y-59525000D01*
X60107142Y-59453571D01*
X60107142Y-59596428D01*
X60607142Y-59953571D02*
X61178571Y-59953571D01*
X60821428Y-59453571D02*
X60821428Y-60739285D01*
X60892857Y-60882142D01*
X61035714Y-60953571D01*
X61178571Y-60953571D01*
X49821428Y-62046428D02*
X49892857Y-61975000D01*
X50035714Y-61903571D01*
X50392857Y-61903571D01*
X50535714Y-61975000D01*
X50607142Y-62046428D01*
X50678571Y-62189285D01*
X50678571Y-62332142D01*
X50607142Y-62546428D01*
X49750000Y-63403571D01*
X50678571Y-63403571D01*
X51607142Y-61903571D02*
X51750000Y-61903571D01*
X51892857Y-61975000D01*
X51964285Y-62046428D01*
X52035714Y-62189285D01*
X52107142Y-62475000D01*
X52107142Y-62832142D01*
X52035714Y-63117857D01*
X51964285Y-63260714D01*
X51892857Y-63332142D01*
X51750000Y-63403571D01*
X51607142Y-63403571D01*
X51464285Y-63332142D01*
X51392857Y-63260714D01*
X51321428Y-63117857D01*
X51250000Y-62832142D01*
X51250000Y-62475000D01*
X51321428Y-62189285D01*
X51392857Y-62046428D01*
X51464285Y-61975000D01*
X51607142Y-61903571D01*
X53535714Y-63403571D02*
X52678571Y-63403571D01*
X53107142Y-63403571D02*
X53107142Y-61903571D01*
X52964285Y-62117857D01*
X52821428Y-62260714D01*
X52678571Y-62332142D01*
X54250000Y-63403571D02*
X54535714Y-63403571D01*
X54678571Y-63332142D01*
X54750000Y-63260714D01*
X54892857Y-63046428D01*
X54964285Y-62760714D01*
X54964285Y-62189285D01*
X54892857Y-62046428D01*
X54821428Y-61975000D01*
X54678571Y-61903571D01*
X54392857Y-61903571D01*
X54250000Y-61975000D01*
X54178571Y-62046428D01*
X54107142Y-62189285D01*
X54107142Y-62546428D01*
X54178571Y-62689285D01*
X54250000Y-62760714D01*
X54392857Y-62832142D01*
X54678571Y-62832142D01*
X54821428Y-62760714D01*
X54892857Y-62689285D01*
X54964285Y-62546428D01*
X55607142Y-62832142D02*
X56750000Y-62832142D01*
X57750000Y-61903571D02*
X57892857Y-61903571D01*
X58035714Y-61975000D01*
X58107142Y-62046428D01*
X58178571Y-62189285D01*
X58250000Y-62475000D01*
X58250000Y-62832142D01*
X58178571Y-63117857D01*
X58107142Y-63260714D01*
X58035714Y-63332142D01*
X57892857Y-63403571D01*
X57750000Y-63403571D01*
X57607142Y-63332142D01*
X57535714Y-63260714D01*
X57464285Y-63117857D01*
X57392857Y-62832142D01*
X57392857Y-62475000D01*
X57464285Y-62189285D01*
X57535714Y-62046428D01*
X57607142Y-61975000D01*
X57750000Y-61903571D01*
X59535714Y-61903571D02*
X59250000Y-61903571D01*
X59107142Y-61975000D01*
X59035714Y-62046428D01*
X58892857Y-62260714D01*
X58821428Y-62546428D01*
X58821428Y-63117857D01*
X58892857Y-63260714D01*
X58964285Y-63332142D01*
X59107142Y-63403571D01*
X59392857Y-63403571D01*
X59535714Y-63332142D01*
X59607142Y-63260714D01*
X59678571Y-63117857D01*
X59678571Y-62760714D01*
X59607142Y-62617857D01*
X59535714Y-62546428D01*
X59392857Y-62475000D01*
X59107142Y-62475000D01*
X58964285Y-62546428D01*
X58892857Y-62617857D01*
X58821428Y-62760714D01*
D12*
G04 #@! TO.C,U3*
X32357082Y-56260000D02*
G75*
G03X32357082Y-56260000I-67082J0D01*
G01*
X33700000Y-55950000D02*
X31700000Y-55950000D01*
X33700000Y-57950000D02*
X33700000Y-55950000D01*
X31700000Y-57950000D02*
X33700000Y-57950000D01*
X31700000Y-55950000D02*
X31700000Y-57950000D01*
G04 #@! TO.C,U4*
X42962195Y-88950000D02*
G75*
G03X42962195Y-88950000I-92195J0D01*
G01*
X44500000Y-88750000D02*
X42500000Y-88750000D01*
X44500000Y-90750000D02*
X44500000Y-88750000D01*
X42500000Y-90750000D02*
X44500000Y-90750000D01*
X42500000Y-88750000D02*
X42500000Y-90750000D01*
D13*
G04 #@! TO.C,C1*
X27350000Y-89030000D02*
X26850000Y-89030000D01*
X26850000Y-89970000D02*
X27350000Y-89970000D01*
G04 #@! TO.C,C2*
X27650000Y-122220000D02*
X28150000Y-122220000D01*
X28150000Y-121280000D02*
X27650000Y-121280000D01*
G04 #@! TO.C,C3*
X29920000Y-89790000D02*
X29920000Y-90290000D01*
X30860000Y-90290000D02*
X30860000Y-89790000D01*
G04 #@! TO.C,C4*
X32770000Y-122500000D02*
X32770000Y-122000000D01*
X31830000Y-122000000D02*
X31830000Y-122500000D01*
G04 #@! TO.C,C5*
X40780000Y-92000000D02*
X40780000Y-92500000D01*
X41720000Y-92500000D02*
X41720000Y-92000000D01*
G04 #@! TO.C,C6*
X39200000Y-94430000D02*
X39700000Y-94430000D01*
X39700000Y-93490000D02*
X39200000Y-93490000D01*
G04 #@! TO.C,C7*
X32440000Y-58350000D02*
X33140000Y-58350000D01*
X33140000Y-59550000D02*
X32440000Y-59550000D01*
G04 #@! TO.C,C8*
X51900000Y-122220000D02*
X52400000Y-122220000D01*
X52400000Y-121280000D02*
X51900000Y-121280000D01*
G04 #@! TO.C,C9*
X46050000Y-92190000D02*
X46050000Y-91690000D01*
X45110000Y-91690000D02*
X45110000Y-92190000D01*
G04 #@! TO.C,C10*
X41840000Y-125080000D02*
X41840000Y-124580000D01*
X40900000Y-124580000D02*
X40900000Y-125080000D01*
G04 #@! TO.C,C11*
X50010000Y-119860000D02*
X49310000Y-119860000D01*
X49310000Y-118660000D02*
X50010000Y-118660000D01*
G04 #@! TO.C,C12*
X44610000Y-119940000D02*
X43910000Y-119940000D01*
X43910000Y-118740000D02*
X44610000Y-118740000D01*
G04 #@! TO.C,C14*
X46700000Y-85670000D02*
X47200000Y-85670000D01*
X47200000Y-84730000D02*
X46700000Y-84730000D01*
G04 #@! TO.C,C15*
X46700000Y-87070000D02*
X47200000Y-87070000D01*
X47200000Y-86130000D02*
X46700000Y-86130000D01*
G04 #@! TO.C,C16*
X53350000Y-89950000D02*
X53850000Y-89950000D01*
X53850000Y-89010000D02*
X53350000Y-89010000D01*
G04 #@! TO.C,C17*
X45100000Y-51720000D02*
X45600000Y-51720000D01*
X45600000Y-50780000D02*
X45100000Y-50780000D01*
G04 #@! TO.C,J1*
X23220000Y-66880000D02*
X25880000Y-66880000D01*
X23220000Y-66820000D02*
X23220000Y-66880000D01*
X25880000Y-66820000D02*
X25880000Y-66880000D01*
X23220000Y-66820000D02*
X25880000Y-66820000D01*
X23220000Y-65550000D02*
X23220000Y-64220000D01*
X23220000Y-64220000D02*
X24550000Y-64220000D01*
G04 #@! TO.C,J2*
X45170000Y-66430000D02*
X45170000Y-63770000D01*
X42570000Y-66430000D02*
X45170000Y-66430000D01*
X42570000Y-63770000D02*
X45170000Y-63770000D01*
X42570000Y-66430000D02*
X42570000Y-63770000D01*
X41300000Y-66430000D02*
X39970000Y-66430000D01*
X39970000Y-66430000D02*
X39970000Y-65100000D01*
G04 #@! TO.C,J3*
X40410000Y-132100000D02*
X40410000Y-130770000D01*
X41740000Y-132100000D02*
X40410000Y-132100000D01*
X43010000Y-132100000D02*
X43010000Y-129440000D01*
X43010000Y-129440000D02*
X45610000Y-129440000D01*
X43010000Y-132100000D02*
X45610000Y-132100000D01*
X45610000Y-132100000D02*
X45610000Y-129440000D01*
G04 #@! TO.C,J4*
X45720000Y-99830000D02*
X45720000Y-97170000D01*
X43120000Y-99830000D02*
X45720000Y-99830000D01*
X43120000Y-97170000D02*
X45720000Y-97170000D01*
X43120000Y-99830000D02*
X43120000Y-97170000D01*
X41850000Y-99830000D02*
X40520000Y-99830000D01*
X40520000Y-99830000D02*
X40520000Y-98500000D01*
G04 #@! TO.C,R1*
X28550000Y-65020000D02*
X28050000Y-65020000D01*
X28050000Y-66080000D02*
X28550000Y-66080000D01*
G04 #@! TO.C,R3*
X38450000Y-92490000D02*
X38450000Y-91990000D01*
X37390000Y-91990000D02*
X37390000Y-92490000D01*
G04 #@! TO.C,R4*
X42420000Y-125600000D02*
X42420000Y-124600000D01*
X43780000Y-124600000D02*
X43780000Y-125600000D01*
G04 #@! TO.C,R5*
X50100000Y-89210000D02*
X50100000Y-88710000D01*
X49040000Y-88710000D02*
X49040000Y-89210000D01*
G04 #@! TO.C,R6*
X56370000Y-89680000D02*
X56370000Y-90180000D01*
X57430000Y-90180000D02*
X57430000Y-89680000D01*
G04 #@! TO.C,R12*
X31750000Y-67220000D02*
X31250000Y-67220000D01*
X31250000Y-68280000D02*
X31750000Y-68280000D01*
D12*
G04 #@! TO.C,U1*
X30550000Y-63900000D02*
X30550000Y-65200000D01*
X30550000Y-65200000D02*
X33450000Y-65200000D01*
X33450000Y-65200000D02*
X33450000Y-63900000D01*
X33450000Y-63900000D02*
X30550000Y-63900000D01*
G04 #@! TO.C,U2*
X42074853Y-121360000D02*
G75*
G03X42074853Y-121360000I-84853J0D01*
G01*
X41400000Y-121000000D02*
X41400000Y-123000000D01*
X41400000Y-123000000D02*
X43400000Y-123000000D01*
X43400000Y-123000000D02*
X43400000Y-121000000D01*
X43400000Y-121000000D02*
X41400000Y-121000000D01*
G04 #@! TO.C,U5*
X41690000Y-53190000D02*
X41690000Y-57010000D01*
X41690000Y-57010000D02*
X45510000Y-57010000D01*
X45510000Y-57010000D02*
X45510000Y-53190000D01*
X45510000Y-53190000D02*
X41690000Y-53190000D01*
X42386158Y-55820000D02*
G75*
G03X42386158Y-55820000I-76158J0D01*
G01*
G04 #@! TO.C,U6*
X40112111Y-32300000D02*
G75*
G03X40112111Y-32300000I-72111J0D01*
G01*
X42850000Y-31490000D02*
X39650000Y-31490000D01*
X42850000Y-33090000D02*
X42850000Y-31490000D01*
X39650000Y-33090000D02*
X42850000Y-33090000D01*
X39650000Y-31490000D02*
X39650000Y-33090000D01*
G04 #@! TO.C,U7*
X38686158Y-156580000D02*
G75*
G03X38686158Y-156580000I-76158J0D01*
G01*
X38968688Y-152970000D02*
G75*
G03X38968688Y-152970000I-418688J0D01*
G01*
X37155000Y-151335000D02*
X45025000Y-151335000D01*
X37155000Y-157685000D02*
X37155000Y-151335000D01*
X45025000Y-157685000D02*
X37155000Y-157685000D01*
X45025000Y-151335000D02*
X45025000Y-157685000D01*
G04 #@! TD*
G04 #@! TO.C,U6*
D14*
X38665714Y-31665714D02*
X38665714Y-31965714D01*
X38665714Y-31680000D02*
X38694285Y-31665714D01*
X38751428Y-31665714D01*
X38780000Y-31680000D01*
X38794285Y-31694285D01*
X38808571Y-31722857D01*
X38808571Y-31808571D01*
X38794285Y-31837142D01*
X38780000Y-31851428D01*
X38751428Y-31865714D01*
X38694285Y-31865714D01*
X38665714Y-31851428D01*
X38937142Y-31865714D02*
X38937142Y-31665714D01*
X38937142Y-31565714D02*
X38922857Y-31580000D01*
X38937142Y-31594285D01*
X38951428Y-31580000D01*
X38937142Y-31565714D01*
X38937142Y-31594285D01*
X39080000Y-31665714D02*
X39080000Y-31865714D01*
X39080000Y-31694285D02*
X39094285Y-31680000D01*
X39122857Y-31665714D01*
X39165714Y-31665714D01*
X39194285Y-31680000D01*
X39208571Y-31708571D01*
X39208571Y-31865714D01*
X39508571Y-31865714D02*
X39337142Y-31865714D01*
X39422857Y-31865714D02*
X39422857Y-31565714D01*
X39394285Y-31608571D01*
X39365714Y-31637142D01*
X39337142Y-31651428D01*
G04 #@! TD*
M02*
