G04 #@! TF.GenerationSoftware,KiCad,Pcbnew,(5.0.1)-4*
G04 #@! TF.CreationDate,2019-06-26T10:02:50-07:00*
G04 #@! TF.ProjectId,Mixed_circuit,4D697865645F636972637569742E6B69,rev?*
G04 #@! TF.SameCoordinates,Original*
G04 #@! TF.FileFunction,Paste,Top*
G04 #@! TF.FilePolarity,Positive*
%FSLAX46Y46*%
G04 Gerber Fmt 4.6, Leading zero omitted, Abs format (unit mm)*
G04 Created by KiCad (PCBNEW (5.0.1)-4) date 6/26/2019 10:02:50 AM*
%MOMM*%
%LPD*%
G01*
G04 APERTURE LIST*
%ADD10R,0.600000X1.200000*%
%ADD11R,0.350000X0.250000*%
%ADD12R,0.900000X1.700000*%
%ADD13R,0.450000X0.250000*%
%ADD14R,5.840000X2.415000*%
%ADD15R,5.840000X0.600000*%
%ADD16R,0.600000X0.500000*%
%ADD17R,0.500000X0.600000*%
%ADD18R,0.800000X0.750000*%
%ADD19C,0.200000*%
%ADD20C,0.318000*%
%ADD21C,0.590000*%
%ADD22R,0.400000X0.600000*%
%ADD23R,0.600000X0.400000*%
%ADD24R,0.900000X0.500000*%
%ADD25R,0.800000X0.900000*%
%ADD26R,0.790000X1.680000*%
%ADD27R,3.330000X0.690000*%
%ADD28R,0.690000X2.110000*%
%ADD29C,0.600000*%
%ADD30R,1.750000X0.990000*%
%ADD31R,0.990000X0.610000*%
%ADD32R,1.520000X1.650000*%
%ADD33R,0.300000X0.400000*%
G04 APERTURE END LIST*
D10*
G04 #@! TO.C,U3*
X32700000Y-56950000D03*
D11*
X33375000Y-56200000D03*
X33375000Y-56700000D03*
X33375000Y-57200000D03*
X33375000Y-57700000D03*
X32025000Y-57700000D03*
X32025000Y-57200000D03*
X32025000Y-56700000D03*
X32025000Y-56200000D03*
G04 #@! TD*
D12*
G04 #@! TO.C,U4*
X43500000Y-89750000D03*
D13*
X44425000Y-89000000D03*
X44425000Y-89500000D03*
X44425000Y-90000000D03*
X44425000Y-90500000D03*
X42575000Y-90500000D03*
X42575000Y-90000000D03*
X42575000Y-89500000D03*
X42575000Y-89000000D03*
G04 #@! TD*
D14*
G04 #@! TO.C,CON1*
X20000000Y-93882500D03*
X20000000Y-85117500D03*
D15*
X20000000Y-89500000D03*
G04 #@! TD*
D14*
G04 #@! TO.C,CON2*
X20000000Y-126132500D03*
X20000000Y-117367500D03*
D15*
X20000000Y-121750000D03*
G04 #@! TD*
D14*
G04 #@! TO.C,CON3*
X20000000Y-61082500D03*
X20000000Y-52317500D03*
D15*
X20000000Y-56700000D03*
G04 #@! TD*
D14*
G04 #@! TO.C,CON4*
X65000000Y-126132500D03*
X65000000Y-117367500D03*
D15*
X65000000Y-121750000D03*
G04 #@! TD*
D14*
G04 #@! TO.C,CON5*
X65000000Y-93862500D03*
X65000000Y-85097500D03*
D15*
X65000000Y-89480000D03*
G04 #@! TD*
D14*
G04 #@! TO.C,CON6*
X65000000Y-61082500D03*
X65000000Y-52317500D03*
D15*
X65000000Y-56700000D03*
G04 #@! TD*
D14*
G04 #@! TO.C,CON7*
X20000000Y-202882500D03*
X20000000Y-194117500D03*
D15*
X20000000Y-198500000D03*
G04 #@! TD*
D14*
G04 #@! TO.C,CON8*
X20000000Y-301382500D03*
X20000000Y-292617500D03*
D15*
X20000000Y-297000000D03*
G04 #@! TD*
D14*
G04 #@! TO.C,CON9*
X65000000Y-203582500D03*
X65000000Y-194817500D03*
D15*
X65000000Y-199200000D03*
G04 #@! TD*
D14*
G04 #@! TO.C,CON10*
X20000000Y-155882500D03*
X20000000Y-147117500D03*
D15*
X20000000Y-151500000D03*
G04 #@! TD*
D14*
G04 #@! TO.C,CON11*
X65000000Y-185122500D03*
X65000000Y-176357500D03*
D15*
X65000000Y-180740000D03*
G04 #@! TD*
D14*
G04 #@! TO.C,CON12*
X20000000Y-246802500D03*
X20000000Y-238037500D03*
D15*
X20000000Y-242420000D03*
G04 #@! TD*
D14*
G04 #@! TO.C,CON13*
X65000000Y-247552500D03*
X65000000Y-238787500D03*
D15*
X65000000Y-243170000D03*
G04 #@! TD*
D14*
G04 #@! TO.C,CON14*
X65000000Y-229232500D03*
X65000000Y-220467500D03*
D15*
X65000000Y-224850000D03*
G04 #@! TD*
D14*
G04 #@! TO.C,CON15*
X65000000Y-161832500D03*
X65000000Y-153067500D03*
D15*
X65000000Y-157450000D03*
G04 #@! TD*
D14*
G04 #@! TO.C,CON16*
X65000000Y-271382500D03*
X65000000Y-262617500D03*
D15*
X65000000Y-267000000D03*
G04 #@! TD*
D14*
G04 #@! TO.C,CON17*
X65000000Y-291382500D03*
X65000000Y-282617500D03*
D15*
X65000000Y-287000000D03*
G04 #@! TD*
D14*
G04 #@! TO.C,CON18*
X65000000Y-311382500D03*
X65000000Y-302617500D03*
D15*
X65000000Y-307000000D03*
G04 #@! TD*
D14*
G04 #@! TO.C,CON19*
X65000000Y-331382500D03*
X65000000Y-322617500D03*
D15*
X65000000Y-327000000D03*
G04 #@! TD*
D14*
G04 #@! TO.C,CON20*
X20000000Y-36672500D03*
X20000000Y-27907500D03*
D15*
X20000000Y-32290000D03*
G04 #@! TD*
D14*
G04 #@! TO.C,CON21*
X65000000Y-36672500D03*
X65000000Y-27907500D03*
D15*
X65000000Y-32290000D03*
G04 #@! TD*
D16*
G04 #@! TO.C,C1*
X26600000Y-89500000D03*
X27600000Y-89500000D03*
G04 #@! TD*
G04 #@! TO.C,C2*
X28400000Y-121750000D03*
X27400000Y-121750000D03*
G04 #@! TD*
D17*
G04 #@! TO.C,C3*
X30390000Y-90540000D03*
X30390000Y-89540000D03*
G04 #@! TD*
G04 #@! TO.C,C4*
X32300000Y-121750000D03*
X32300000Y-122750000D03*
G04 #@! TD*
G04 #@! TO.C,C5*
X41250000Y-92750000D03*
X41250000Y-91750000D03*
G04 #@! TD*
D16*
G04 #@! TO.C,C6*
X39950000Y-93960000D03*
X38950000Y-93960000D03*
G04 #@! TD*
D18*
G04 #@! TO.C,C7*
X32040000Y-58950000D03*
X33540000Y-58950000D03*
G04 #@! TD*
D16*
G04 #@! TO.C,C8*
X52650000Y-121750000D03*
X51650000Y-121750000D03*
G04 #@! TD*
D17*
G04 #@! TO.C,C9*
X45580000Y-91440000D03*
X45580000Y-92440000D03*
G04 #@! TD*
G04 #@! TO.C,C10*
X41370000Y-124330000D03*
X41370000Y-125330000D03*
G04 #@! TD*
D18*
G04 #@! TO.C,C11*
X50410000Y-119260000D03*
X48910000Y-119260000D03*
G04 #@! TD*
G04 #@! TO.C,C12*
X45010000Y-119340000D03*
X43510000Y-119340000D03*
G04 #@! TD*
D19*
G04 #@! TO.C,C13*
G36*
X57108292Y-121536383D02*
X57116010Y-121537528D01*
X57123578Y-121539423D01*
X57130923Y-121542052D01*
X57137976Y-121545387D01*
X57144668Y-121549398D01*
X57150934Y-121554046D01*
X57156715Y-121559285D01*
X57161954Y-121565066D01*
X57166602Y-121571332D01*
X57170613Y-121578024D01*
X57173948Y-121585077D01*
X57176577Y-121592422D01*
X57178472Y-121599990D01*
X57179617Y-121607708D01*
X57180000Y-121615500D01*
X57180000Y-121774500D01*
X57179617Y-121782292D01*
X57178472Y-121790010D01*
X57176577Y-121797578D01*
X57173948Y-121804923D01*
X57170613Y-121811976D01*
X57166602Y-121818668D01*
X57161954Y-121824934D01*
X57156715Y-121830715D01*
X57150934Y-121835954D01*
X57144668Y-121840602D01*
X57137976Y-121844613D01*
X57130923Y-121847948D01*
X57123578Y-121850577D01*
X57116010Y-121852472D01*
X57108292Y-121853617D01*
X57100500Y-121854000D01*
X56899500Y-121854000D01*
X56891708Y-121853617D01*
X56883990Y-121852472D01*
X56876422Y-121850577D01*
X56869077Y-121847948D01*
X56862024Y-121844613D01*
X56855332Y-121840602D01*
X56849066Y-121835954D01*
X56843285Y-121830715D01*
X56838046Y-121824934D01*
X56833398Y-121818668D01*
X56829387Y-121811976D01*
X56826052Y-121804923D01*
X56823423Y-121797578D01*
X56821528Y-121790010D01*
X56820383Y-121782292D01*
X56820000Y-121774500D01*
X56820000Y-121615500D01*
X56820383Y-121607708D01*
X56821528Y-121599990D01*
X56823423Y-121592422D01*
X56826052Y-121585077D01*
X56829387Y-121578024D01*
X56833398Y-121571332D01*
X56838046Y-121565066D01*
X56843285Y-121559285D01*
X56849066Y-121554046D01*
X56855332Y-121549398D01*
X56862024Y-121545387D01*
X56869077Y-121542052D01*
X56876422Y-121539423D01*
X56883990Y-121537528D01*
X56891708Y-121536383D01*
X56899500Y-121536000D01*
X57100500Y-121536000D01*
X57108292Y-121536383D01*
X57108292Y-121536383D01*
G37*
D20*
X57000000Y-121695000D03*
D19*
G36*
X57108292Y-120846383D02*
X57116010Y-120847528D01*
X57123578Y-120849423D01*
X57130923Y-120852052D01*
X57137976Y-120855387D01*
X57144668Y-120859398D01*
X57150934Y-120864046D01*
X57156715Y-120869285D01*
X57161954Y-120875066D01*
X57166602Y-120881332D01*
X57170613Y-120888024D01*
X57173948Y-120895077D01*
X57176577Y-120902422D01*
X57178472Y-120909990D01*
X57179617Y-120917708D01*
X57180000Y-120925500D01*
X57180000Y-121084500D01*
X57179617Y-121092292D01*
X57178472Y-121100010D01*
X57176577Y-121107578D01*
X57173948Y-121114923D01*
X57170613Y-121121976D01*
X57166602Y-121128668D01*
X57161954Y-121134934D01*
X57156715Y-121140715D01*
X57150934Y-121145954D01*
X57144668Y-121150602D01*
X57137976Y-121154613D01*
X57130923Y-121157948D01*
X57123578Y-121160577D01*
X57116010Y-121162472D01*
X57108292Y-121163617D01*
X57100500Y-121164000D01*
X56899500Y-121164000D01*
X56891708Y-121163617D01*
X56883990Y-121162472D01*
X56876422Y-121160577D01*
X56869077Y-121157948D01*
X56862024Y-121154613D01*
X56855332Y-121150602D01*
X56849066Y-121145954D01*
X56843285Y-121140715D01*
X56838046Y-121134934D01*
X56833398Y-121128668D01*
X56829387Y-121121976D01*
X56826052Y-121114923D01*
X56823423Y-121107578D01*
X56821528Y-121100010D01*
X56820383Y-121092292D01*
X56820000Y-121084500D01*
X56820000Y-120925500D01*
X56820383Y-120917708D01*
X56821528Y-120909990D01*
X56823423Y-120902422D01*
X56826052Y-120895077D01*
X56829387Y-120888024D01*
X56833398Y-120881332D01*
X56838046Y-120875066D01*
X56843285Y-120869285D01*
X56849066Y-120864046D01*
X56855332Y-120859398D01*
X56862024Y-120855387D01*
X56869077Y-120852052D01*
X56876422Y-120849423D01*
X56883990Y-120847528D01*
X56891708Y-120846383D01*
X56899500Y-120846000D01*
X57100500Y-120846000D01*
X57108292Y-120846383D01*
X57108292Y-120846383D01*
G37*
D20*
X57000000Y-121005000D03*
G04 #@! TD*
D16*
G04 #@! TO.C,C14*
X47450000Y-85200000D03*
X46450000Y-85200000D03*
G04 #@! TD*
G04 #@! TO.C,C15*
X47450000Y-86600000D03*
X46450000Y-86600000D03*
G04 #@! TD*
G04 #@! TO.C,C16*
X54100000Y-89480000D03*
X53100000Y-89480000D03*
G04 #@! TD*
G04 #@! TO.C,C17*
X45850000Y-51250000D03*
X44850000Y-51250000D03*
G04 #@! TD*
D19*
G04 #@! TO.C,L1*
G36*
X33526958Y-89180710D02*
X33541276Y-89182834D01*
X33555317Y-89186351D01*
X33568946Y-89191228D01*
X33582031Y-89197417D01*
X33594447Y-89204858D01*
X33606073Y-89213481D01*
X33616798Y-89223202D01*
X33626519Y-89233927D01*
X33635142Y-89245553D01*
X33642583Y-89257969D01*
X33648772Y-89271054D01*
X33653649Y-89284683D01*
X33657166Y-89298724D01*
X33659290Y-89313042D01*
X33660000Y-89327500D01*
X33660000Y-89672500D01*
X33659290Y-89686958D01*
X33657166Y-89701276D01*
X33653649Y-89715317D01*
X33648772Y-89728946D01*
X33642583Y-89742031D01*
X33635142Y-89754447D01*
X33626519Y-89766073D01*
X33616798Y-89776798D01*
X33606073Y-89786519D01*
X33594447Y-89795142D01*
X33582031Y-89802583D01*
X33568946Y-89808772D01*
X33555317Y-89813649D01*
X33541276Y-89817166D01*
X33526958Y-89819290D01*
X33512500Y-89820000D01*
X33217500Y-89820000D01*
X33203042Y-89819290D01*
X33188724Y-89817166D01*
X33174683Y-89813649D01*
X33161054Y-89808772D01*
X33147969Y-89802583D01*
X33135553Y-89795142D01*
X33123927Y-89786519D01*
X33113202Y-89776798D01*
X33103481Y-89766073D01*
X33094858Y-89754447D01*
X33087417Y-89742031D01*
X33081228Y-89728946D01*
X33076351Y-89715317D01*
X33072834Y-89701276D01*
X33070710Y-89686958D01*
X33070000Y-89672500D01*
X33070000Y-89327500D01*
X33070710Y-89313042D01*
X33072834Y-89298724D01*
X33076351Y-89284683D01*
X33081228Y-89271054D01*
X33087417Y-89257969D01*
X33094858Y-89245553D01*
X33103481Y-89233927D01*
X33113202Y-89223202D01*
X33123927Y-89213481D01*
X33135553Y-89204858D01*
X33147969Y-89197417D01*
X33161054Y-89191228D01*
X33174683Y-89186351D01*
X33188724Y-89182834D01*
X33203042Y-89180710D01*
X33217500Y-89180000D01*
X33512500Y-89180000D01*
X33526958Y-89180710D01*
X33526958Y-89180710D01*
G37*
D21*
X33365000Y-89500000D03*
D19*
G36*
X34496958Y-89180710D02*
X34511276Y-89182834D01*
X34525317Y-89186351D01*
X34538946Y-89191228D01*
X34552031Y-89197417D01*
X34564447Y-89204858D01*
X34576073Y-89213481D01*
X34586798Y-89223202D01*
X34596519Y-89233927D01*
X34605142Y-89245553D01*
X34612583Y-89257969D01*
X34618772Y-89271054D01*
X34623649Y-89284683D01*
X34627166Y-89298724D01*
X34629290Y-89313042D01*
X34630000Y-89327500D01*
X34630000Y-89672500D01*
X34629290Y-89686958D01*
X34627166Y-89701276D01*
X34623649Y-89715317D01*
X34618772Y-89728946D01*
X34612583Y-89742031D01*
X34605142Y-89754447D01*
X34596519Y-89766073D01*
X34586798Y-89776798D01*
X34576073Y-89786519D01*
X34564447Y-89795142D01*
X34552031Y-89802583D01*
X34538946Y-89808772D01*
X34525317Y-89813649D01*
X34511276Y-89817166D01*
X34496958Y-89819290D01*
X34482500Y-89820000D01*
X34187500Y-89820000D01*
X34173042Y-89819290D01*
X34158724Y-89817166D01*
X34144683Y-89813649D01*
X34131054Y-89808772D01*
X34117969Y-89802583D01*
X34105553Y-89795142D01*
X34093927Y-89786519D01*
X34083202Y-89776798D01*
X34073481Y-89766073D01*
X34064858Y-89754447D01*
X34057417Y-89742031D01*
X34051228Y-89728946D01*
X34046351Y-89715317D01*
X34042834Y-89701276D01*
X34040710Y-89686958D01*
X34040000Y-89672500D01*
X34040000Y-89327500D01*
X34040710Y-89313042D01*
X34042834Y-89298724D01*
X34046351Y-89284683D01*
X34051228Y-89271054D01*
X34057417Y-89257969D01*
X34064858Y-89245553D01*
X34073481Y-89233927D01*
X34083202Y-89223202D01*
X34093927Y-89213481D01*
X34105553Y-89204858D01*
X34117969Y-89197417D01*
X34131054Y-89191228D01*
X34144683Y-89186351D01*
X34158724Y-89182834D01*
X34173042Y-89180710D01*
X34187500Y-89180000D01*
X34482500Y-89180000D01*
X34496958Y-89180710D01*
X34496958Y-89180710D01*
G37*
D21*
X34335000Y-89500000D03*
G04 #@! TD*
D19*
G04 #@! TO.C,L2*
G36*
X36542292Y-121560383D02*
X36550010Y-121561528D01*
X36557578Y-121563423D01*
X36564923Y-121566052D01*
X36571976Y-121569387D01*
X36578668Y-121573398D01*
X36584934Y-121578046D01*
X36590715Y-121583285D01*
X36595954Y-121589066D01*
X36600602Y-121595332D01*
X36604613Y-121602024D01*
X36607948Y-121609077D01*
X36610577Y-121616422D01*
X36612472Y-121623990D01*
X36613617Y-121631708D01*
X36614000Y-121639500D01*
X36614000Y-121840500D01*
X36613617Y-121848292D01*
X36612472Y-121856010D01*
X36610577Y-121863578D01*
X36607948Y-121870923D01*
X36604613Y-121877976D01*
X36600602Y-121884668D01*
X36595954Y-121890934D01*
X36590715Y-121896715D01*
X36584934Y-121901954D01*
X36578668Y-121906602D01*
X36571976Y-121910613D01*
X36564923Y-121913948D01*
X36557578Y-121916577D01*
X36550010Y-121918472D01*
X36542292Y-121919617D01*
X36534500Y-121920000D01*
X36375500Y-121920000D01*
X36367708Y-121919617D01*
X36359990Y-121918472D01*
X36352422Y-121916577D01*
X36345077Y-121913948D01*
X36338024Y-121910613D01*
X36331332Y-121906602D01*
X36325066Y-121901954D01*
X36319285Y-121896715D01*
X36314046Y-121890934D01*
X36309398Y-121884668D01*
X36305387Y-121877976D01*
X36302052Y-121870923D01*
X36299423Y-121863578D01*
X36297528Y-121856010D01*
X36296383Y-121848292D01*
X36296000Y-121840500D01*
X36296000Y-121639500D01*
X36296383Y-121631708D01*
X36297528Y-121623990D01*
X36299423Y-121616422D01*
X36302052Y-121609077D01*
X36305387Y-121602024D01*
X36309398Y-121595332D01*
X36314046Y-121589066D01*
X36319285Y-121583285D01*
X36325066Y-121578046D01*
X36331332Y-121573398D01*
X36338024Y-121569387D01*
X36345077Y-121566052D01*
X36352422Y-121563423D01*
X36359990Y-121561528D01*
X36367708Y-121560383D01*
X36375500Y-121560000D01*
X36534500Y-121560000D01*
X36542292Y-121560383D01*
X36542292Y-121560383D01*
G37*
D20*
X36455000Y-121740000D03*
D19*
G36*
X37232292Y-121560383D02*
X37240010Y-121561528D01*
X37247578Y-121563423D01*
X37254923Y-121566052D01*
X37261976Y-121569387D01*
X37268668Y-121573398D01*
X37274934Y-121578046D01*
X37280715Y-121583285D01*
X37285954Y-121589066D01*
X37290602Y-121595332D01*
X37294613Y-121602024D01*
X37297948Y-121609077D01*
X37300577Y-121616422D01*
X37302472Y-121623990D01*
X37303617Y-121631708D01*
X37304000Y-121639500D01*
X37304000Y-121840500D01*
X37303617Y-121848292D01*
X37302472Y-121856010D01*
X37300577Y-121863578D01*
X37297948Y-121870923D01*
X37294613Y-121877976D01*
X37290602Y-121884668D01*
X37285954Y-121890934D01*
X37280715Y-121896715D01*
X37274934Y-121901954D01*
X37268668Y-121906602D01*
X37261976Y-121910613D01*
X37254923Y-121913948D01*
X37247578Y-121916577D01*
X37240010Y-121918472D01*
X37232292Y-121919617D01*
X37224500Y-121920000D01*
X37065500Y-121920000D01*
X37057708Y-121919617D01*
X37049990Y-121918472D01*
X37042422Y-121916577D01*
X37035077Y-121913948D01*
X37028024Y-121910613D01*
X37021332Y-121906602D01*
X37015066Y-121901954D01*
X37009285Y-121896715D01*
X37004046Y-121890934D01*
X36999398Y-121884668D01*
X36995387Y-121877976D01*
X36992052Y-121870923D01*
X36989423Y-121863578D01*
X36987528Y-121856010D01*
X36986383Y-121848292D01*
X36986000Y-121840500D01*
X36986000Y-121639500D01*
X36986383Y-121631708D01*
X36987528Y-121623990D01*
X36989423Y-121616422D01*
X36992052Y-121609077D01*
X36995387Y-121602024D01*
X36999398Y-121595332D01*
X37004046Y-121589066D01*
X37009285Y-121583285D01*
X37015066Y-121578046D01*
X37021332Y-121573398D01*
X37028024Y-121569387D01*
X37035077Y-121566052D01*
X37042422Y-121563423D01*
X37049990Y-121561528D01*
X37057708Y-121560383D01*
X37065500Y-121560000D01*
X37224500Y-121560000D01*
X37232292Y-121560383D01*
X37232292Y-121560383D01*
G37*
D20*
X37145000Y-121740000D03*
G04 #@! TD*
D19*
G04 #@! TO.C,L3*
G36*
X38086958Y-89220710D02*
X38101276Y-89222834D01*
X38115317Y-89226351D01*
X38128946Y-89231228D01*
X38142031Y-89237417D01*
X38154447Y-89244858D01*
X38166073Y-89253481D01*
X38176798Y-89263202D01*
X38186519Y-89273927D01*
X38195142Y-89285553D01*
X38202583Y-89297969D01*
X38208772Y-89311054D01*
X38213649Y-89324683D01*
X38217166Y-89338724D01*
X38219290Y-89353042D01*
X38220000Y-89367500D01*
X38220000Y-89662500D01*
X38219290Y-89676958D01*
X38217166Y-89691276D01*
X38213649Y-89705317D01*
X38208772Y-89718946D01*
X38202583Y-89732031D01*
X38195142Y-89744447D01*
X38186519Y-89756073D01*
X38176798Y-89766798D01*
X38166073Y-89776519D01*
X38154447Y-89785142D01*
X38142031Y-89792583D01*
X38128946Y-89798772D01*
X38115317Y-89803649D01*
X38101276Y-89807166D01*
X38086958Y-89809290D01*
X38072500Y-89810000D01*
X37727500Y-89810000D01*
X37713042Y-89809290D01*
X37698724Y-89807166D01*
X37684683Y-89803649D01*
X37671054Y-89798772D01*
X37657969Y-89792583D01*
X37645553Y-89785142D01*
X37633927Y-89776519D01*
X37623202Y-89766798D01*
X37613481Y-89756073D01*
X37604858Y-89744447D01*
X37597417Y-89732031D01*
X37591228Y-89718946D01*
X37586351Y-89705317D01*
X37582834Y-89691276D01*
X37580710Y-89676958D01*
X37580000Y-89662500D01*
X37580000Y-89367500D01*
X37580710Y-89353042D01*
X37582834Y-89338724D01*
X37586351Y-89324683D01*
X37591228Y-89311054D01*
X37597417Y-89297969D01*
X37604858Y-89285553D01*
X37613481Y-89273927D01*
X37623202Y-89263202D01*
X37633927Y-89253481D01*
X37645553Y-89244858D01*
X37657969Y-89237417D01*
X37671054Y-89231228D01*
X37684683Y-89226351D01*
X37698724Y-89222834D01*
X37713042Y-89220710D01*
X37727500Y-89220000D01*
X38072500Y-89220000D01*
X38086958Y-89220710D01*
X38086958Y-89220710D01*
G37*
D21*
X37900000Y-89515000D03*
D19*
G36*
X38086958Y-90190710D02*
X38101276Y-90192834D01*
X38115317Y-90196351D01*
X38128946Y-90201228D01*
X38142031Y-90207417D01*
X38154447Y-90214858D01*
X38166073Y-90223481D01*
X38176798Y-90233202D01*
X38186519Y-90243927D01*
X38195142Y-90255553D01*
X38202583Y-90267969D01*
X38208772Y-90281054D01*
X38213649Y-90294683D01*
X38217166Y-90308724D01*
X38219290Y-90323042D01*
X38220000Y-90337500D01*
X38220000Y-90632500D01*
X38219290Y-90646958D01*
X38217166Y-90661276D01*
X38213649Y-90675317D01*
X38208772Y-90688946D01*
X38202583Y-90702031D01*
X38195142Y-90714447D01*
X38186519Y-90726073D01*
X38176798Y-90736798D01*
X38166073Y-90746519D01*
X38154447Y-90755142D01*
X38142031Y-90762583D01*
X38128946Y-90768772D01*
X38115317Y-90773649D01*
X38101276Y-90777166D01*
X38086958Y-90779290D01*
X38072500Y-90780000D01*
X37727500Y-90780000D01*
X37713042Y-90779290D01*
X37698724Y-90777166D01*
X37684683Y-90773649D01*
X37671054Y-90768772D01*
X37657969Y-90762583D01*
X37645553Y-90755142D01*
X37633927Y-90746519D01*
X37623202Y-90736798D01*
X37613481Y-90726073D01*
X37604858Y-90714447D01*
X37597417Y-90702031D01*
X37591228Y-90688946D01*
X37586351Y-90675317D01*
X37582834Y-90661276D01*
X37580710Y-90646958D01*
X37580000Y-90632500D01*
X37580000Y-90337500D01*
X37580710Y-90323042D01*
X37582834Y-90308724D01*
X37586351Y-90294683D01*
X37591228Y-90281054D01*
X37597417Y-90267969D01*
X37604858Y-90255553D01*
X37613481Y-90243927D01*
X37623202Y-90233202D01*
X37633927Y-90223481D01*
X37645553Y-90214858D01*
X37657969Y-90207417D01*
X37671054Y-90201228D01*
X37684683Y-90196351D01*
X37698724Y-90192834D01*
X37713042Y-90190710D01*
X37727500Y-90190000D01*
X38072500Y-90190000D01*
X38086958Y-90190710D01*
X38086958Y-90190710D01*
G37*
D21*
X37900000Y-90485000D03*
G04 #@! TD*
D19*
G04 #@! TO.C,L4*
G36*
X47186958Y-120420710D02*
X47201276Y-120422834D01*
X47215317Y-120426351D01*
X47228946Y-120431228D01*
X47242031Y-120437417D01*
X47254447Y-120444858D01*
X47266073Y-120453481D01*
X47276798Y-120463202D01*
X47286519Y-120473927D01*
X47295142Y-120485553D01*
X47302583Y-120497969D01*
X47308772Y-120511054D01*
X47313649Y-120524683D01*
X47317166Y-120538724D01*
X47319290Y-120553042D01*
X47320000Y-120567500D01*
X47320000Y-120862500D01*
X47319290Y-120876958D01*
X47317166Y-120891276D01*
X47313649Y-120905317D01*
X47308772Y-120918946D01*
X47302583Y-120932031D01*
X47295142Y-120944447D01*
X47286519Y-120956073D01*
X47276798Y-120966798D01*
X47266073Y-120976519D01*
X47254447Y-120985142D01*
X47242031Y-120992583D01*
X47228946Y-120998772D01*
X47215317Y-121003649D01*
X47201276Y-121007166D01*
X47186958Y-121009290D01*
X47172500Y-121010000D01*
X46827500Y-121010000D01*
X46813042Y-121009290D01*
X46798724Y-121007166D01*
X46784683Y-121003649D01*
X46771054Y-120998772D01*
X46757969Y-120992583D01*
X46745553Y-120985142D01*
X46733927Y-120976519D01*
X46723202Y-120966798D01*
X46713481Y-120956073D01*
X46704858Y-120944447D01*
X46697417Y-120932031D01*
X46691228Y-120918946D01*
X46686351Y-120905317D01*
X46682834Y-120891276D01*
X46680710Y-120876958D01*
X46680000Y-120862500D01*
X46680000Y-120567500D01*
X46680710Y-120553042D01*
X46682834Y-120538724D01*
X46686351Y-120524683D01*
X46691228Y-120511054D01*
X46697417Y-120497969D01*
X46704858Y-120485553D01*
X46713481Y-120473927D01*
X46723202Y-120463202D01*
X46733927Y-120453481D01*
X46745553Y-120444858D01*
X46757969Y-120437417D01*
X46771054Y-120431228D01*
X46784683Y-120426351D01*
X46798724Y-120422834D01*
X46813042Y-120420710D01*
X46827500Y-120420000D01*
X47172500Y-120420000D01*
X47186958Y-120420710D01*
X47186958Y-120420710D01*
G37*
D21*
X47000000Y-120715000D03*
D19*
G36*
X47186958Y-121390710D02*
X47201276Y-121392834D01*
X47215317Y-121396351D01*
X47228946Y-121401228D01*
X47242031Y-121407417D01*
X47254447Y-121414858D01*
X47266073Y-121423481D01*
X47276798Y-121433202D01*
X47286519Y-121443927D01*
X47295142Y-121455553D01*
X47302583Y-121467969D01*
X47308772Y-121481054D01*
X47313649Y-121494683D01*
X47317166Y-121508724D01*
X47319290Y-121523042D01*
X47320000Y-121537500D01*
X47320000Y-121832500D01*
X47319290Y-121846958D01*
X47317166Y-121861276D01*
X47313649Y-121875317D01*
X47308772Y-121888946D01*
X47302583Y-121902031D01*
X47295142Y-121914447D01*
X47286519Y-121926073D01*
X47276798Y-121936798D01*
X47266073Y-121946519D01*
X47254447Y-121955142D01*
X47242031Y-121962583D01*
X47228946Y-121968772D01*
X47215317Y-121973649D01*
X47201276Y-121977166D01*
X47186958Y-121979290D01*
X47172500Y-121980000D01*
X46827500Y-121980000D01*
X46813042Y-121979290D01*
X46798724Y-121977166D01*
X46784683Y-121973649D01*
X46771054Y-121968772D01*
X46757969Y-121962583D01*
X46745553Y-121955142D01*
X46733927Y-121946519D01*
X46723202Y-121936798D01*
X46713481Y-121926073D01*
X46704858Y-121914447D01*
X46697417Y-121902031D01*
X46691228Y-121888946D01*
X46686351Y-121875317D01*
X46682834Y-121861276D01*
X46680710Y-121846958D01*
X46680000Y-121832500D01*
X46680000Y-121537500D01*
X46680710Y-121523042D01*
X46682834Y-121508724D01*
X46686351Y-121494683D01*
X46691228Y-121481054D01*
X46697417Y-121467969D01*
X46704858Y-121455553D01*
X46713481Y-121443927D01*
X46723202Y-121433202D01*
X46733927Y-121423481D01*
X46745553Y-121414858D01*
X46757969Y-121407417D01*
X46771054Y-121401228D01*
X46784683Y-121396351D01*
X46798724Y-121392834D01*
X46813042Y-121390710D01*
X46827500Y-121390000D01*
X47172500Y-121390000D01*
X47186958Y-121390710D01*
X47186958Y-121390710D01*
G37*
D21*
X47000000Y-121685000D03*
G04 #@! TD*
D19*
G04 #@! TO.C,L5*
G36*
X48586958Y-89190710D02*
X48601276Y-89192834D01*
X48615317Y-89196351D01*
X48628946Y-89201228D01*
X48642031Y-89207417D01*
X48654447Y-89214858D01*
X48666073Y-89223481D01*
X48676798Y-89233202D01*
X48686519Y-89243927D01*
X48695142Y-89255553D01*
X48702583Y-89267969D01*
X48708772Y-89281054D01*
X48713649Y-89294683D01*
X48717166Y-89308724D01*
X48719290Y-89323042D01*
X48720000Y-89337500D01*
X48720000Y-89632500D01*
X48719290Y-89646958D01*
X48717166Y-89661276D01*
X48713649Y-89675317D01*
X48708772Y-89688946D01*
X48702583Y-89702031D01*
X48695142Y-89714447D01*
X48686519Y-89726073D01*
X48676798Y-89736798D01*
X48666073Y-89746519D01*
X48654447Y-89755142D01*
X48642031Y-89762583D01*
X48628946Y-89768772D01*
X48615317Y-89773649D01*
X48601276Y-89777166D01*
X48586958Y-89779290D01*
X48572500Y-89780000D01*
X48227500Y-89780000D01*
X48213042Y-89779290D01*
X48198724Y-89777166D01*
X48184683Y-89773649D01*
X48171054Y-89768772D01*
X48157969Y-89762583D01*
X48145553Y-89755142D01*
X48133927Y-89746519D01*
X48123202Y-89736798D01*
X48113481Y-89726073D01*
X48104858Y-89714447D01*
X48097417Y-89702031D01*
X48091228Y-89688946D01*
X48086351Y-89675317D01*
X48082834Y-89661276D01*
X48080710Y-89646958D01*
X48080000Y-89632500D01*
X48080000Y-89337500D01*
X48080710Y-89323042D01*
X48082834Y-89308724D01*
X48086351Y-89294683D01*
X48091228Y-89281054D01*
X48097417Y-89267969D01*
X48104858Y-89255553D01*
X48113481Y-89243927D01*
X48123202Y-89233202D01*
X48133927Y-89223481D01*
X48145553Y-89214858D01*
X48157969Y-89207417D01*
X48171054Y-89201228D01*
X48184683Y-89196351D01*
X48198724Y-89192834D01*
X48213042Y-89190710D01*
X48227500Y-89190000D01*
X48572500Y-89190000D01*
X48586958Y-89190710D01*
X48586958Y-89190710D01*
G37*
D21*
X48400000Y-89485000D03*
D19*
G36*
X48586958Y-88220710D02*
X48601276Y-88222834D01*
X48615317Y-88226351D01*
X48628946Y-88231228D01*
X48642031Y-88237417D01*
X48654447Y-88244858D01*
X48666073Y-88253481D01*
X48676798Y-88263202D01*
X48686519Y-88273927D01*
X48695142Y-88285553D01*
X48702583Y-88297969D01*
X48708772Y-88311054D01*
X48713649Y-88324683D01*
X48717166Y-88338724D01*
X48719290Y-88353042D01*
X48720000Y-88367500D01*
X48720000Y-88662500D01*
X48719290Y-88676958D01*
X48717166Y-88691276D01*
X48713649Y-88705317D01*
X48708772Y-88718946D01*
X48702583Y-88732031D01*
X48695142Y-88744447D01*
X48686519Y-88756073D01*
X48676798Y-88766798D01*
X48666073Y-88776519D01*
X48654447Y-88785142D01*
X48642031Y-88792583D01*
X48628946Y-88798772D01*
X48615317Y-88803649D01*
X48601276Y-88807166D01*
X48586958Y-88809290D01*
X48572500Y-88810000D01*
X48227500Y-88810000D01*
X48213042Y-88809290D01*
X48198724Y-88807166D01*
X48184683Y-88803649D01*
X48171054Y-88798772D01*
X48157969Y-88792583D01*
X48145553Y-88785142D01*
X48133927Y-88776519D01*
X48123202Y-88766798D01*
X48113481Y-88756073D01*
X48104858Y-88744447D01*
X48097417Y-88732031D01*
X48091228Y-88718946D01*
X48086351Y-88705317D01*
X48082834Y-88691276D01*
X48080710Y-88676958D01*
X48080000Y-88662500D01*
X48080000Y-88367500D01*
X48080710Y-88353042D01*
X48082834Y-88338724D01*
X48086351Y-88324683D01*
X48091228Y-88311054D01*
X48097417Y-88297969D01*
X48104858Y-88285553D01*
X48113481Y-88273927D01*
X48123202Y-88263202D01*
X48133927Y-88253481D01*
X48145553Y-88244858D01*
X48157969Y-88237417D01*
X48171054Y-88231228D01*
X48184683Y-88226351D01*
X48198724Y-88222834D01*
X48213042Y-88220710D01*
X48227500Y-88220000D01*
X48572500Y-88220000D01*
X48586958Y-88220710D01*
X48586958Y-88220710D01*
G37*
D21*
X48400000Y-88515000D03*
G04 #@! TD*
D22*
G04 #@! TO.C,R1*
X27850000Y-65550000D03*
X28750000Y-65550000D03*
G04 #@! TD*
D19*
G04 #@! TO.C,R2*
G36*
X32092292Y-61370383D02*
X32100010Y-61371528D01*
X32107578Y-61373423D01*
X32114923Y-61376052D01*
X32121976Y-61379387D01*
X32128668Y-61383398D01*
X32134934Y-61388046D01*
X32140715Y-61393285D01*
X32145954Y-61399066D01*
X32150602Y-61405332D01*
X32154613Y-61412024D01*
X32157948Y-61419077D01*
X32160577Y-61426422D01*
X32162472Y-61433990D01*
X32163617Y-61441708D01*
X32164000Y-61449500D01*
X32164000Y-61650500D01*
X32163617Y-61658292D01*
X32162472Y-61666010D01*
X32160577Y-61673578D01*
X32157948Y-61680923D01*
X32154613Y-61687976D01*
X32150602Y-61694668D01*
X32145954Y-61700934D01*
X32140715Y-61706715D01*
X32134934Y-61711954D01*
X32128668Y-61716602D01*
X32121976Y-61720613D01*
X32114923Y-61723948D01*
X32107578Y-61726577D01*
X32100010Y-61728472D01*
X32092292Y-61729617D01*
X32084500Y-61730000D01*
X31925500Y-61730000D01*
X31917708Y-61729617D01*
X31909990Y-61728472D01*
X31902422Y-61726577D01*
X31895077Y-61723948D01*
X31888024Y-61720613D01*
X31881332Y-61716602D01*
X31875066Y-61711954D01*
X31869285Y-61706715D01*
X31864046Y-61700934D01*
X31859398Y-61694668D01*
X31855387Y-61687976D01*
X31852052Y-61680923D01*
X31849423Y-61673578D01*
X31847528Y-61666010D01*
X31846383Y-61658292D01*
X31846000Y-61650500D01*
X31846000Y-61449500D01*
X31846383Y-61441708D01*
X31847528Y-61433990D01*
X31849423Y-61426422D01*
X31852052Y-61419077D01*
X31855387Y-61412024D01*
X31859398Y-61405332D01*
X31864046Y-61399066D01*
X31869285Y-61393285D01*
X31875066Y-61388046D01*
X31881332Y-61383398D01*
X31888024Y-61379387D01*
X31895077Y-61376052D01*
X31902422Y-61373423D01*
X31909990Y-61371528D01*
X31917708Y-61370383D01*
X31925500Y-61370000D01*
X32084500Y-61370000D01*
X32092292Y-61370383D01*
X32092292Y-61370383D01*
G37*
D20*
X32005000Y-61550000D03*
D19*
G36*
X32782292Y-61370383D02*
X32790010Y-61371528D01*
X32797578Y-61373423D01*
X32804923Y-61376052D01*
X32811976Y-61379387D01*
X32818668Y-61383398D01*
X32824934Y-61388046D01*
X32830715Y-61393285D01*
X32835954Y-61399066D01*
X32840602Y-61405332D01*
X32844613Y-61412024D01*
X32847948Y-61419077D01*
X32850577Y-61426422D01*
X32852472Y-61433990D01*
X32853617Y-61441708D01*
X32854000Y-61449500D01*
X32854000Y-61650500D01*
X32853617Y-61658292D01*
X32852472Y-61666010D01*
X32850577Y-61673578D01*
X32847948Y-61680923D01*
X32844613Y-61687976D01*
X32840602Y-61694668D01*
X32835954Y-61700934D01*
X32830715Y-61706715D01*
X32824934Y-61711954D01*
X32818668Y-61716602D01*
X32811976Y-61720613D01*
X32804923Y-61723948D01*
X32797578Y-61726577D01*
X32790010Y-61728472D01*
X32782292Y-61729617D01*
X32774500Y-61730000D01*
X32615500Y-61730000D01*
X32607708Y-61729617D01*
X32599990Y-61728472D01*
X32592422Y-61726577D01*
X32585077Y-61723948D01*
X32578024Y-61720613D01*
X32571332Y-61716602D01*
X32565066Y-61711954D01*
X32559285Y-61706715D01*
X32554046Y-61700934D01*
X32549398Y-61694668D01*
X32545387Y-61687976D01*
X32542052Y-61680923D01*
X32539423Y-61673578D01*
X32537528Y-61666010D01*
X32536383Y-61658292D01*
X32536000Y-61650500D01*
X32536000Y-61449500D01*
X32536383Y-61441708D01*
X32537528Y-61433990D01*
X32539423Y-61426422D01*
X32542052Y-61419077D01*
X32545387Y-61412024D01*
X32549398Y-61405332D01*
X32554046Y-61399066D01*
X32559285Y-61393285D01*
X32565066Y-61388046D01*
X32571332Y-61383398D01*
X32578024Y-61379387D01*
X32585077Y-61376052D01*
X32592422Y-61373423D01*
X32599990Y-61371528D01*
X32607708Y-61370383D01*
X32615500Y-61370000D01*
X32774500Y-61370000D01*
X32782292Y-61370383D01*
X32782292Y-61370383D01*
G37*
D20*
X32695000Y-61550000D03*
G04 #@! TD*
D23*
G04 #@! TO.C,R3*
X37920000Y-91790000D03*
X37920000Y-92690000D03*
G04 #@! TD*
D24*
G04 #@! TO.C,R4*
X43100000Y-124350000D03*
X43100000Y-125850000D03*
G04 #@! TD*
D23*
G04 #@! TO.C,R5*
X49570000Y-88510000D03*
X49570000Y-89410000D03*
G04 #@! TD*
G04 #@! TO.C,R6*
X56900000Y-90380000D03*
X56900000Y-89480000D03*
G04 #@! TD*
D22*
G04 #@! TO.C,R12*
X31050000Y-67750000D03*
X31950000Y-67750000D03*
G04 #@! TD*
D25*
G04 #@! TO.C,U1*
X32000000Y-63550000D03*
X31050000Y-65550000D03*
X32950000Y-65550000D03*
G04 #@! TD*
D11*
G04 #@! TO.C,U2*
X41725000Y-121250000D03*
X41725000Y-121750000D03*
X41725000Y-122250000D03*
X41725000Y-122750000D03*
X43075000Y-122750000D03*
X43075000Y-122250000D03*
X43075000Y-121750000D03*
X43075000Y-121250000D03*
D10*
X42400000Y-122000000D03*
G04 #@! TD*
D26*
G04 #@! TO.C,U5*
X42330000Y-56710000D03*
X44870000Y-56710000D03*
X44870000Y-53490000D03*
X42330000Y-53490000D03*
D27*
X43600000Y-55100000D03*
D28*
X43600000Y-56500000D03*
D29*
X42250000Y-55100000D03*
X43600000Y-55100000D03*
X44950000Y-55100000D03*
X43600000Y-56200000D03*
X43600000Y-57200000D03*
G04 #@! TD*
D30*
G04 #@! TO.C,U6*
X41250000Y-31275000D03*
D31*
X43065000Y-32290000D03*
D30*
X41250000Y-33305000D03*
D31*
X39435000Y-32290000D03*
G04 #@! TD*
D29*
G04 #@! TO.C,U7*
X38550000Y-154510000D03*
D32*
X38550000Y-157495000D03*
X41090000Y-157495000D03*
X43630000Y-157495000D03*
X43630000Y-151525000D03*
X41090000Y-151525000D03*
X38550000Y-151525000D03*
G04 #@! TD*
D33*
G04 #@! TO.C,R7*
X36760000Y-198800000D03*
X36760000Y-198200000D03*
G04 #@! TD*
G04 #@! TO.C,R8*
X32000000Y-296700000D03*
X32000000Y-297300000D03*
G04 #@! TD*
G04 #@! TO.C,R9*
X48000000Y-277300000D03*
X48000000Y-276700000D03*
G04 #@! TD*
G04 #@! TO.C,R10*
X48000000Y-316700000D03*
X48000000Y-317300000D03*
G04 #@! TD*
G04 #@! TO.C,R11*
X40430000Y-242120000D03*
X40430000Y-242720000D03*
G04 #@! TD*
M02*
