M48
;DRILL file {KiCad (5.0.1)-4} date 6/26/2019 10:02:53 AM
;FORMAT={2:4/ absolute / inch / suppress leading zeros}
FMAT,2
INCH,TZ
T1C0.0100
T2C0.0130
T3C0.0134
T4C0.0138
T5C0.0157
T6C0.0394
%
G90
G05
M72
T1
X12874Y-22138
X12874Y-22421
X12874Y-22705
X17018Y-35079
X17018Y-35335
X17018Y-35591
X17234Y-35079
X17234Y-35335
X17234Y-35591
T2
X16634Y-21693
X17165Y-21693
X17165Y-22126
X17165Y-22520
X17697Y-21693
T3
X15177Y-60831
X15177Y-61421
X15677Y-60831
X15677Y-61421
X16177Y-60240
X16177Y-60831
X16177Y-61421
X16677Y-60240
X16677Y-60831
X17177Y-60240
X17177Y-60831
X16016Y-12240
X16016Y-13185
X16465Y-12240
X16465Y-13185
T4
X18193Y-124803
X18193Y-109055
X13878Y-95441
X13768Y-78150
X11894Y-116929
T5
X6988Y-15354
X6988Y-16142
X6988Y-18898
X6988Y-19685
X6988Y-37795
X6988Y-38583
X6988Y-50492
X6988Y-51280
X6988Y-62303
X6988Y-63091
X6988Y-80709
X6988Y-81496
X6988Y-119488
X6988Y-120276
X7087Y-9252
X7087Y-10039
X7087Y-21457
X7087Y-31791
X7087Y-32579
X7087Y-34350
X7087Y-36024
X7087Y-44488
X7087Y-45276
X7087Y-47047
X7087Y-56201
X7087Y-56988
X7087Y-58760
X7087Y-74705
X7087Y-75492
X7087Y-77264
X7087Y-92028
X7087Y-92815
X7087Y-94587
X7087Y-96260
X7087Y-98031
X7087Y-98819
X7087Y-113583
X7087Y-114370
X7087Y-116043
X7185Y-11811
X7185Y-23130
X7185Y-48720
X7185Y-60433
X7185Y-78937
X7185Y-117717
X7283Y-13583
X7283Y-25000
X7283Y-25787
X7579Y-15354
X7579Y-16142
X7579Y-18898
X7579Y-19685
X7579Y-37795
X7579Y-38583
X7579Y-50492
X7579Y-51280
X7579Y-62303
X7579Y-63091
X7579Y-80709
X7579Y-81496
X7579Y-119488
X7579Y-120276
X7677Y-9252
X7677Y-10039
X7677Y-31791
X7677Y-32579
X7677Y-44488
X7677Y-45276
X7677Y-56201
X7677Y-56988
X7677Y-74705
X7677Y-75492
X7677Y-92028
X7677Y-92815
X7677Y-98031
X7677Y-98819
X7677Y-113583
X7677Y-114370
X7776Y-21457
X7776Y-34350
X7776Y-36024
X7776Y-47047
X7776Y-58760
X7776Y-77264
X7776Y-94587
X7776Y-96260
X7776Y-116043
X7874Y-11811
X7874Y-23130
X7874Y-25000
X7874Y-25787
X7874Y-48720
X7874Y-60433
X7874Y-78937
X7874Y-117717
X7972Y-13583
X8169Y-15354
X8169Y-16142
X8169Y-18898
X8169Y-19685
X8169Y-37795
X8169Y-38583
X8169Y-50492
X8169Y-51280
X8169Y-62303
X8169Y-63091
X8169Y-80709
X8169Y-81496
X8169Y-119488
X8169Y-120276
X8268Y-9252
X8268Y-10039
X8268Y-31791
X8268Y-32579
X8268Y-44488
X8268Y-45276
X8268Y-56201
X8268Y-56988
X8268Y-74705
X8268Y-75492
X8268Y-92028
X8268Y-92815
X8268Y-98031
X8268Y-98819
X8268Y-113583
X8268Y-114370
X8366Y-36024
X8366Y-96260
X8465Y-21457
X8465Y-23130
X8465Y-25000
X8465Y-25787
X8465Y-34350
X8465Y-47047
X8465Y-48720
X8465Y-58760
X8465Y-60433
X8465Y-77264
X8465Y-78937
X8465Y-94587
X8465Y-116043
X8465Y-117717
X8563Y-11811
X8563Y-13583
X8760Y-15354
X8760Y-16142
X8760Y-18898
X8760Y-19685
X8760Y-37795
X8760Y-38583
X8760Y-50492
X8760Y-51280
X8760Y-62303
X8760Y-63091
X8760Y-80709
X8760Y-81496
X8760Y-119488
X8760Y-120276
X8858Y-9252
X8858Y-10039
X8858Y-31791
X8858Y-32579
X8858Y-44488
X8858Y-45276
X8858Y-56201
X8858Y-56988
X8858Y-74705
X8858Y-75492
X8858Y-92028
X8858Y-92815
X8858Y-98031
X8858Y-98819
X8858Y-113583
X8858Y-114370
X8957Y-36024
X8957Y-96260
X9055Y-21457
X9055Y-34350
X9055Y-47047
X9055Y-48720
X9055Y-58760
X9055Y-60433
X9055Y-77264
X9055Y-78937
X9055Y-94587
X9055Y-116043
X9055Y-117717
X9154Y-11811
X9154Y-13583
X9154Y-35709
X9154Y-95906
X9252Y-21831
X9252Y-22815
X9252Y-34724
X9252Y-47461
X9252Y-48406
X9252Y-59173
X9252Y-77638
X9252Y-78661
X9252Y-94961
X9252Y-117441
X9291Y-60118
X9291Y-116417
X9350Y-15354
X9350Y-16142
X9350Y-18898
X9350Y-19685
X9350Y-37795
X9350Y-38583
X9350Y-50492
X9350Y-51280
X9350Y-62303
X9350Y-63091
X9350Y-80709
X9350Y-81496
X9350Y-119488
X9350Y-120276
X9449Y-9252
X9449Y-10039
X9449Y-11024
X9449Y-12205
X9449Y-14469
X9449Y-20571
X9449Y-31791
X9449Y-32579
X9449Y-36319
X9449Y-37106
X9449Y-44488
X9449Y-45276
X9449Y-56201
X9449Y-56988
X9449Y-74705
X9449Y-75492
X9449Y-92028
X9449Y-92815
X9449Y-98031
X9449Y-98819
X9449Y-113583
X9449Y-114370
X9508Y-13228
X9646Y-35709
X9646Y-49114
X9646Y-49902
X9646Y-57579
X9646Y-58366
X9646Y-60925
X9646Y-61713
X9646Y-95906
X9744Y-21831
X9744Y-22815
X9744Y-33169
X9744Y-33957
X9744Y-34724
X9744Y-45768
X9744Y-46555
X9744Y-47461
X9744Y-48406
X9744Y-59173
X9744Y-77638
X9744Y-78661
X9744Y-79331
X9744Y-80118
X9744Y-94961
X9744Y-117441
X9783Y-60118
X9783Y-116417
X9941Y-12205
X9941Y-14173
X9941Y-75984
X9941Y-76772
X10000Y-13228
X10039Y-15453
X10039Y-36319
X10039Y-37106
X10138Y-35709
X10138Y-91732
X10138Y-92323
X10138Y-92913
X10138Y-93504
X10138Y-94094
X10138Y-95906
X10236Y-9744
X10236Y-21831
X10236Y-22815
X10236Y-23720
X10236Y-24606
X10236Y-34626
X10236Y-47461
X10236Y-48406
X10236Y-49114
X10236Y-49902
X10236Y-57579
X10236Y-58366
X10236Y-59173
X10236Y-60925
X10236Y-61713
X10236Y-77638
X10236Y-78661
X10236Y-94961
X10236Y-117441
X10276Y-60118
X10276Y-116417
X10335Y-11024
X10335Y-33169
X10335Y-33957
X10335Y-45768
X10335Y-46555
X10335Y-79331
X10335Y-80118
X10433Y-12205
X10492Y-13228
X10531Y-75984
X10531Y-76772
X10630Y-35709
X10630Y-36319
X10630Y-37106
X10630Y-95906
X10728Y-18898
X10728Y-21831
X10728Y-22815
X10728Y-34626
X10728Y-47461
X10728Y-48406
X10728Y-59173
X10728Y-77638
X10728Y-78661
X10728Y-94961
X10728Y-117441
X10728Y-119193
X10728Y-119980
X10728Y-122047
X10728Y-122835
X10728Y-124902
X10728Y-125689
X10728Y-127953
X10728Y-128740
X10768Y-60118
X10768Y-116417
X10827Y-20177
X10827Y-49114
X10827Y-49902
X10827Y-57579
X10827Y-58366
X10827Y-60925
X10827Y-61713
X10827Y-109449
X10827Y-110236
X10827Y-111614
X10827Y-112402
X10827Y-113681
X10827Y-114469
X10925Y-12205
X10925Y-14173
X10925Y-33169
X10925Y-33957
X10925Y-45768
X10925Y-46555
X10925Y-79331
X10925Y-80118
X10925Y-91732
X10925Y-92323
X10925Y-92913
X10925Y-93504
X10925Y-94094
X10984Y-13228
X10984Y-117717
X11024Y-15453
X11122Y-35709
X11122Y-75984
X11122Y-76772
X11122Y-95906
X11122Y-116102
X11220Y-9744
X11220Y-21831
X11220Y-22815
X11220Y-34724
X11220Y-36319
X11220Y-37106
X11220Y-47461
X11220Y-48406
X11220Y-59173
X11220Y-77638
X11220Y-78661
X11220Y-94961
X11260Y-60118
X11319Y-11024
X11319Y-119193
X11319Y-119980
X11319Y-122047
X11319Y-122835
X11319Y-124902
X11319Y-125689
X11319Y-127953
X11319Y-128740
X11417Y-12205
X11417Y-49114
X11417Y-49902
X11417Y-57579
X11417Y-58366
X11417Y-60925
X11417Y-61713
X11417Y-109449
X11417Y-110236
X11417Y-111614
X11417Y-112402
X11417Y-113681
X11417Y-114469
X11457Y-95984
X11457Y-117992
X11476Y-13228
X11496Y-94724
X11516Y-23720
X11516Y-24606
X11516Y-33169
X11516Y-33957
X11516Y-45768
X11516Y-46555
X11516Y-79331
X11516Y-80118
X11535Y-115827
X11614Y-35709
X11614Y-96457
X11693Y-94252
X11713Y-18898
X11713Y-21831
X11713Y-22815
X11713Y-34724
X11713Y-47461
X11713Y-48406
X11713Y-59173
X11713Y-75984
X11713Y-76772
X11713Y-77638
X11713Y-78661
X11752Y-60118
X11811Y-14173
X11811Y-20177
X11811Y-36319
X11811Y-37106
X11890Y-96969
X11909Y-12205
X11909Y-15453
X11909Y-119193
X11909Y-119980
X11909Y-122047
X11909Y-122835
X11909Y-124902
X11909Y-125689
X11909Y-127953
X11909Y-128740
X11969Y-13228
X12008Y-49114
X12008Y-49902
X12008Y-57579
X12008Y-58366
X12008Y-60925
X12008Y-61713
X12008Y-109449
X12008Y-110236
X12008Y-111614
X12008Y-112402
X12008Y-113681
X12008Y-114469
X12008Y-118110
X12047Y-93780
X12047Y-115709
X12106Y-9744
X12106Y-33169
X12106Y-33957
X12106Y-45768
X12106Y-46555
X12106Y-79331
X12106Y-80118
X12205Y-11024
X12205Y-21831
X12205Y-22815
X12205Y-47461
X12205Y-48406
X12205Y-59173
X12205Y-77638
X12205Y-78661
X12244Y-60118
X12303Y-34724
X12303Y-75984
X12303Y-76772
X12303Y-91142
X12303Y-91929
X12323Y-97402
X12402Y-12205
X12402Y-35709
X12441Y-93386
X12461Y-13228
X12500Y-48819
X12500Y-119193
X12500Y-119980
X12500Y-122047
X12500Y-122835
X12500Y-124902
X12500Y-125689
X12500Y-127953
X12500Y-128740
X12520Y-117953
X12559Y-115906
X12598Y-21752
X12598Y-109449
X12598Y-110236
X12598Y-111614
X12598Y-112402
X12598Y-113681
X12598Y-114469
X12697Y-18898
X12697Y-36417
X12697Y-37008
X12697Y-37598
X12697Y-38189
X12697Y-38780
X12697Y-47461
X12697Y-59173
X12697Y-77539
X12697Y-78661
X12736Y-60118
X12795Y-14173
X12795Y-20177
X12795Y-34724
X12835Y-97717
X12894Y-12205
X12894Y-15453
X12894Y-35709
X12894Y-57087
X12894Y-57874
X12894Y-91142
X12894Y-91929
X12953Y-13228
X12953Y-93110
X12953Y-117736
X12992Y-48819
X12992Y-49311
X12992Y-50098
X12992Y-60925
X12992Y-61516
X12992Y-62106
X12992Y-62697
X12992Y-63287
X13020Y-26677
X13031Y-79016
X13031Y-116122
X13091Y-9744
X13091Y-21752
X13091Y-77362
X13091Y-119193
X13091Y-119980
X13091Y-122047
X13091Y-122835
X13091Y-124902
X13091Y-125689
X13091Y-127953
X13091Y-128740
X13189Y-11024
X13189Y-47461
X13189Y-48406
X13189Y-59173
X13189Y-109449
X13189Y-110236
X13189Y-111614
X13189Y-112402
X13189Y-113681
X13189Y-114469
X13228Y-60118
X13287Y-34626
X13299Y-24236
X13386Y-12205
X13386Y-33169
X13386Y-33957
X13386Y-35709
X13386Y-45768
X13386Y-46555
X13386Y-73228
X13386Y-73819
X13386Y-74409
X13386Y-75000
X13386Y-75591
X13386Y-97913
X13445Y-13228
X13445Y-117736
X13484Y-36417
X13484Y-37008
X13484Y-37598
X13484Y-38189
X13484Y-38780
X13484Y-57087
X13484Y-57874
X13484Y-77165
X13484Y-91142
X13484Y-91929
X13504Y-92992
X13508Y-25795
X13524Y-116122
X13583Y-21831
X13583Y-22815
X13583Y-49311
X13583Y-50098
X13583Y-79252
X13681Y-18898
X13681Y-47461
X13681Y-48406
X13681Y-59173
X13720Y-60118
X13736Y-23217
X13780Y-14173
X13780Y-20177
X13780Y-34626
X13780Y-60925
X13780Y-61516
X13780Y-62106
X13780Y-62697
X13780Y-63287
X13878Y-12205
X13878Y-15453
X13878Y-35709
X13937Y-13228
X13976Y-33169
X13976Y-33957
X13976Y-45768
X13976Y-46555
X13976Y-77165
X13976Y-97913
X14016Y-116122
X14035Y-117736
X14075Y-9744
X14075Y-21831
X14075Y-22815
X14075Y-57087
X14075Y-57874
X14075Y-91142
X14075Y-91929
X14134Y-79213
X14134Y-92953
X14173Y-11024
X14173Y-47461
X14173Y-48406
X14173Y-49311
X14173Y-50098
X14173Y-59173
X14173Y-73228
X14173Y-73819
X14173Y-74409
X14173Y-75000
X14173Y-75591
X14213Y-60118
X14272Y-34724
X14370Y-12205
X14370Y-35709
X14402Y-25634
X14402Y-26079
X14406Y-25181
X14429Y-13228
X14449Y-109173
X14449Y-109764
X14449Y-110354
X14449Y-110945
X14449Y-111535
X14449Y-112028
X14449Y-112520
X14449Y-113110
X14449Y-113602
X14449Y-114094
X14449Y-114587
X14449Y-115177
X14449Y-115669
X14449Y-116142
X14449Y-117717
X14449Y-118209
X14449Y-118701
X14449Y-119291
X14449Y-119882
X14449Y-120472
X14449Y-121063
X14449Y-121654
X14449Y-122244
X14449Y-122835
X14449Y-123425
X14449Y-124016
X14449Y-124606
X14465Y-36969
X14469Y-24016
X14469Y-126870
X14469Y-127657
X14488Y-77362
X14520Y-51571
X14520Y-52016
X14524Y-51118
X14551Y-38866
X14551Y-39311
X14555Y-38413
X14567Y-21831
X14567Y-22815
X14567Y-33169
X14567Y-33957
X14567Y-45768
X14567Y-46555
X14567Y-60433
X14567Y-60925
X14567Y-61417
X14567Y-62008
X14567Y-62598
X14567Y-78957
X14646Y-97835
X14665Y-18898
X14665Y-37299
X14665Y-47461
X14665Y-48406
X14665Y-57087
X14665Y-57874
X14665Y-58957
X14665Y-91142
X14665Y-91929
X14685Y-108701
X14724Y-93071
X14764Y-14173
X14764Y-20177
X14764Y-34626
X14764Y-49311
X14764Y-50098
X14764Y-125197
X14823Y-25618
X14827Y-25173
X14827Y-26071
X14862Y-12205
X14862Y-15453
X14862Y-36957
X14921Y-13228
X14941Y-51555
X14941Y-77382
X14945Y-51110
X14945Y-52008
X14961Y-79823
X14961Y-80610
X14972Y-38850
X14976Y-38406
X14976Y-39303
X15059Y-9744
X15059Y-21831
X15059Y-22815
X15059Y-63484
X15059Y-64272
X15059Y-78957
X15059Y-126870
X15059Y-127657
X15157Y-11024
X15157Y-33169
X15157Y-33957
X15157Y-45768
X15157Y-46555
X15157Y-47461
X15157Y-48406
X15157Y-58957
X15157Y-62598
X15197Y-93307
X15197Y-97598
X15197Y-108504
X15256Y-34626
X15256Y-57087
X15256Y-57874
X15264Y-25626
X15268Y-26067
X15272Y-25161
X15315Y-116929
X15354Y-12205
X15354Y-35709
X15354Y-49311
X15354Y-50098
X15354Y-73031
X15354Y-73819
X15354Y-75591
X15354Y-76378
X15354Y-104823
X15354Y-105413
X15354Y-106004
X15354Y-106594
X15354Y-107185
X15374Y-125315
X15382Y-51563
X15386Y-52004
X15390Y-51098
X15413Y-13228
X15413Y-38858
X15417Y-39299
X15421Y-38394
X15433Y-77382
X15472Y-109567
X15472Y-110039
X15472Y-110531
X15472Y-111024
X15472Y-111614
X15472Y-112205
X15472Y-112795
X15472Y-113386
X15472Y-113976
X15472Y-114567
X15472Y-115157
X15472Y-115748
X15472Y-116339
X15472Y-117520
X15472Y-118012
X15472Y-118602
X15472Y-119193
X15472Y-119783
X15472Y-120374
X15472Y-120965
X15472Y-121555
X15472Y-122146
X15472Y-122736
X15472Y-123327
X15472Y-123917
X15551Y-21831
X15551Y-22815
X15551Y-79823
X15551Y-80610
X15551Y-124291
X15630Y-93701
X15630Y-97283
X15650Y-18898
X15650Y-47461
X15650Y-48406
X15650Y-58957
X15650Y-62598
X15650Y-63484
X15650Y-64272
X15650Y-78957
X15650Y-126870
X15650Y-127657
X15748Y-14173
X15748Y-20177
X15748Y-24016
X15748Y-33169
X15748Y-33957
X15748Y-34724
X15748Y-36516
X15748Y-45768
X15748Y-46555
X15748Y-108543
X15846Y-15453
X15846Y-35709
X15846Y-87008
X15846Y-87795
X15846Y-89764
X15846Y-90551
X15866Y-125315
X15886Y-109567
X15925Y-77382
X15945Y-73031
X15945Y-73819
X15945Y-75591
X15945Y-76378
X15945Y-96811
X16024Y-94134
X16043Y-9744
X16043Y-21831
X16043Y-22815
X16043Y-48524
X16142Y-11024
X16142Y-47441
X16142Y-58957
X16142Y-62598
X16142Y-79823
X16142Y-80610
X16142Y-92421
X16142Y-93209
X16142Y-104823
X16142Y-105413
X16142Y-106004
X16142Y-106594
X16142Y-107185
X16142Y-124291
X16142Y-129528
X16142Y-130315
X16193Y-36992
X16220Y-96417
X16240Y-34724
X16240Y-63484
X16240Y-64272
X16240Y-78957
X16240Y-126870
X16240Y-127657
X16287Y-49909
X16291Y-50343
X16299Y-94567
X16339Y-108543
X16358Y-125315
X16378Y-109567
X16417Y-77382
X16437Y-18898
X16437Y-23031
X16437Y-57087
X16437Y-57874
X16437Y-87008
X16437Y-87795
X16437Y-89764
X16437Y-90551
X16535Y-20177
X16535Y-73031
X16535Y-73819
X16535Y-75591
X16535Y-76378
X16575Y-46654
X16634Y-34646
X16634Y-47343
X16634Y-96240
X16654Y-50091
X16732Y-14173
X16732Y-36024
X16732Y-36516
X16732Y-58957
X16732Y-62697
X16732Y-79823
X16732Y-80610
X16732Y-92421
X16732Y-93209
X16732Y-124291
X16732Y-129528
X16732Y-130315
X16831Y-15453
X16831Y-63484
X16831Y-64272
X16831Y-78957
X16831Y-126870
X16831Y-127657
X16850Y-125315
X16890Y-94665
X16909Y-77382
X16929Y-23031
X16929Y-108543
X16969Y-109567
X17028Y-9744
X17028Y-12205
X17028Y-13189
X17028Y-57087
X17028Y-57874
X17028Y-87008
X17028Y-87795
X17028Y-89764
X17028Y-90551
X17126Y-11024
X17126Y-34646
X17126Y-44685
X17126Y-45472
X17126Y-73031
X17126Y-73819
X17126Y-75591
X17126Y-76378
X17126Y-96240
X17126Y-111220
X17126Y-112008
X17126Y-114075
X17126Y-114862
X17126Y-116929
X17126Y-117717
X17126Y-119980
X17126Y-120768
X17154Y-20177
X17224Y-58957
X17224Y-124291
X17283Y-109803
X17283Y-125551
X17323Y-79823
X17323Y-80610
X17323Y-92421
X17323Y-93209
X17323Y-129528
X17323Y-130315
X17362Y-108268
X17402Y-77382
X17421Y-12205
X17421Y-13189
X17421Y-23031
X17421Y-36024
X17421Y-36516
X17421Y-47461
X17421Y-63484
X17421Y-64272
X17421Y-96949
X17421Y-97736
X17480Y-94665
X17480Y-123898
X17520Y-14173
X17520Y-62697
X17520Y-68996
X17520Y-69783
X17520Y-78957
X17598Y-48406
X17618Y-15453
X17618Y-34646
X17618Y-57087
X17618Y-57874
X17618Y-87008
X17618Y-87795
X17618Y-89764
X17618Y-90551
X17618Y-96240
X17638Y-125906
X17677Y-110079
X17717Y-44685
X17717Y-45472
X17717Y-73031
X17717Y-73819
X17717Y-75591
X17717Y-76378
X17717Y-111220
X17717Y-112008
X17717Y-114075
X17717Y-114862
X17717Y-116929
X17717Y-117717
X17717Y-119980
X17717Y-120768
X17756Y-107992
X17815Y-9744
X17815Y-33661
X17815Y-34154
X17815Y-58957
X17894Y-77382
X17913Y-11024
X17913Y-12205
X17913Y-13189
X17913Y-23031
X17913Y-47461
X17913Y-92421
X17913Y-93209
X17913Y-123622
X17913Y-129528
X17913Y-130315
X17953Y-61496
X17953Y-62480
X18012Y-59449
X18012Y-59941
X18012Y-60531
X18012Y-61122
X18012Y-96949
X18012Y-97736
X18012Y-106102
X18012Y-106890
X18012Y-126772
X18012Y-127559
X18071Y-94665
X18091Y-34724
X18110Y-68996
X18110Y-69783
X18110Y-78957
X18150Y-126063
X18169Y-21831
X18189Y-48406
X18209Y-22815
X18209Y-57087
X18209Y-57874
X18209Y-87008
X18209Y-87795
X18209Y-89764
X18209Y-90551
X18209Y-96240
X18209Y-107913
X18209Y-110236
X18248Y-46661
X18268Y-25157
X18268Y-25626
X18287Y-26098
X18307Y-44685
X18307Y-45472
X18307Y-111220
X18307Y-112008
X18307Y-114075
X18307Y-114862
X18307Y-116929
X18307Y-117717
X18307Y-119980
X18307Y-120768
X18327Y-35709
X18378Y-36406
X18386Y-77382
X18406Y-12205
X18406Y-13189
X18406Y-61496
X18406Y-63287
X18406Y-64075
X18425Y-123583
X18429Y-51016
X18429Y-51484
X18445Y-62480
X18449Y-51957
X18484Y-71457
X18484Y-71949
X18484Y-72539
X18484Y-73031
X18484Y-73524
X18484Y-74016
X18484Y-74508
X18484Y-75000
X18484Y-75492
X18484Y-75984
X18484Y-76476
X18484Y-76969
X18504Y-79823
X18504Y-80610
X18504Y-92421
X18504Y-93209
X18504Y-129528
X18504Y-130315
X18508Y-47000
X18516Y-20181
X18520Y-38299
X18520Y-38768
X18539Y-39240
X18563Y-94665
X18583Y-34724
X18602Y-96949
X18602Y-97736
X18602Y-106102
X18602Y-106890
X18602Y-126772
X18602Y-127559
X18661Y-21831
X18661Y-70945
X18661Y-125906
X18681Y-48406
X18701Y-19390
X18701Y-22815
X18701Y-59646
X18701Y-60433
X18701Y-68996
X18701Y-69783
X18701Y-78957
X18701Y-110118
X18720Y-46669
X18724Y-25173
X18736Y-26106
X18740Y-25638
X18740Y-108031
X18799Y-20669
X18799Y-57087
X18799Y-57874
X18799Y-96240
X18819Y-35709
X18886Y-51031
X18898Y-12205
X18898Y-13189
X18898Y-44685
X18898Y-45472
X18898Y-51965
X18898Y-61496
X18898Y-111220
X18898Y-112008
X18898Y-114075
X18898Y-114862
X18898Y-116929
X18898Y-117717
X18898Y-119980
X18898Y-120768
X18898Y-123858
X18902Y-51496
X18937Y-62480
X18976Y-38315
X18988Y-39248
X18992Y-38780
X18996Y-9744
X18996Y-63287
X18996Y-64075
X19055Y-125630
X19094Y-11024
X19094Y-70630
X19094Y-79823
X19094Y-80610
X19094Y-94646
X19094Y-109862
X19114Y-88602
X19114Y-89193
X19114Y-89685
X19114Y-90276
X19114Y-90768
X19114Y-91260
X19114Y-91752
X19114Y-92244
X19114Y-92736
X19114Y-93228
X19114Y-93720
X19114Y-94213
X19134Y-47461
X19154Y-21831
X19173Y-48406
X19185Y-26114
X19189Y-25193
X19193Y-22815
X19193Y-25657
X19193Y-33563
X19193Y-33957
X19193Y-34350
X19193Y-96949
X19193Y-97736
X19193Y-106102
X19193Y-106890
X19193Y-108248
X19193Y-126772
X19193Y-127559
X19291Y-59646
X19291Y-60433
X19291Y-68996
X19291Y-69783
X19291Y-78957
X19311Y-35709
X19346Y-51972
X19350Y-51051
X19354Y-51516
X19370Y-77913
X19390Y-12205
X19390Y-13189
X19390Y-61496
X19390Y-96240
X19390Y-124035
X19429Y-62480
X19437Y-39256
X19441Y-38335
X19445Y-38799
X19449Y-88071
X19488Y-44685
X19488Y-45472
X19488Y-111220
X19488Y-112008
X19488Y-114075
X19488Y-114862
X19488Y-116929
X19488Y-117717
X19488Y-119980
X19488Y-120768
X19508Y-71634
X19508Y-72047
X19508Y-72539
X19508Y-73130
X19508Y-73622
X19508Y-74114
X19508Y-74606
X19508Y-75098
X19508Y-75591
X19508Y-76083
X19508Y-76575
X19508Y-77067
X19508Y-77559
X19587Y-33563
X19587Y-33957
X19587Y-34350
X19587Y-63287
X19587Y-64075
X19626Y-47461
X19626Y-125571
X19646Y-21831
X19665Y-48406
X19685Y-19390
X19685Y-22815
X19685Y-79823
X19685Y-80610
X19685Y-108248
X19685Y-109862
X19705Y-70650
X19783Y-20669
X19783Y-96949
X19783Y-97736
X19783Y-106102
X19783Y-106890
X19783Y-126772
X19783Y-127559
X19803Y-35709
X19843Y-77933
X19882Y-12205
X19882Y-13189
X19882Y-59646
X19882Y-60433
X19882Y-61496
X19882Y-68996
X19882Y-69783
X19882Y-78957
X19921Y-62480
X19980Y-34724
X19980Y-96240
X19980Y-124035
X20000Y-71634
X20039Y-95197
X20079Y-9744
X20118Y-47461
X20118Y-89016
X20118Y-89469
X20118Y-89961
X20118Y-90551
X20118Y-91043
X20118Y-91535
X20118Y-92028
X20118Y-92520
X20118Y-93012
X20118Y-93504
X20118Y-93996
X20118Y-94685
X20118Y-125571
X20138Y-21831
X20157Y-48406
X20177Y-11024
X20177Y-22815
X20177Y-63287
X20177Y-64075
X20177Y-108248
X20276Y-79823
X20276Y-80610
X20276Y-109862
X20295Y-35709
X20295Y-70650
X20295Y-88012
X20335Y-77933
X20374Y-12205
X20374Y-13189
X20374Y-61496
X20374Y-106102
X20374Y-106890
X20374Y-126772
X20374Y-127559
X20394Y-46929
X20413Y-62480
X20413Y-95217
X20472Y-25689
X20472Y-34724
X20472Y-51083
X20472Y-51870
X20472Y-59646
X20472Y-60433
X20472Y-78957
X20492Y-71634
X20571Y-96240
X20571Y-124035
X20610Y-47461
X20610Y-89016
X20610Y-125571
X20630Y-21831
X20650Y-48406
X20669Y-19390
X20669Y-22815
X20669Y-38484
X20669Y-108248
X20748Y-109862
X20768Y-20669
X20768Y-33268
X20768Y-34055
X20768Y-63287
X20768Y-64075
X20768Y-73031
X20768Y-73819
X20768Y-86319
X20768Y-87106
X20787Y-35709
X20787Y-70650
X20787Y-88012
X20827Y-77933
X20866Y-12205
X20866Y-13189
X20866Y-61496
X20866Y-75984
X20866Y-76772
X20866Y-79823
X20866Y-80610
X20906Y-62480
X20906Y-95217
X20965Y-34724
X20984Y-71634
X21063Y-51083
X21063Y-51870
X21063Y-59646
X21063Y-60433
X21063Y-69094
X21063Y-69882
X21063Y-90256
X21063Y-91043
X21063Y-93504
X21063Y-94291
X21102Y-47461
X21122Y-21831
X21142Y-48406
X21142Y-105020
X21142Y-105610
X21142Y-106102
X21142Y-106594
X21142Y-107185
X21142Y-107776
X21142Y-108268
X21142Y-110039
X21142Y-110630
X21142Y-111122
X21142Y-111614
X21142Y-112106
X21142Y-112697
X21142Y-121024
X21142Y-121516
X21142Y-122008
X21142Y-122500
X21142Y-122992
X21142Y-123484
X21142Y-124016
X21142Y-125591
X21142Y-126063
X21142Y-126654
X21142Y-127244
X21142Y-127835
X21142Y-128425
X21161Y-9744
X21161Y-22815
X21161Y-45768
X21161Y-46555
X21161Y-78957
X21161Y-102953
X21161Y-103740
X21201Y-89016
X21260Y-11024
X21260Y-96240
X21280Y-35709
X21280Y-70650
X21280Y-88012
X21319Y-77933
X21339Y-120512
X21358Y-12205
X21358Y-13189
X21358Y-33268
X21358Y-34055
X21358Y-61496
X21358Y-73031
X21358Y-73819
X21358Y-86319
X21358Y-87106
X21358Y-130217
X21358Y-131004
X21378Y-129016
X21398Y-62480
X21398Y-95217
X21417Y-113268
X21457Y-34724
X21457Y-75984
X21457Y-76772
X21457Y-115650
X21457Y-116240
X21457Y-116831
X21457Y-117421
X21457Y-118012
X21476Y-71634
X21555Y-63287
X21555Y-64075
X21555Y-96949
X21555Y-97736
X21594Y-47461
X21614Y-21831
X21634Y-48406
X21654Y-19390
X21654Y-22815
X21654Y-51083
X21654Y-51870
X21654Y-59843
X21654Y-60630
X21654Y-69094
X21654Y-69882
X21654Y-79823
X21654Y-80610
X21654Y-90256
X21654Y-91043
X21654Y-93504
X21654Y-94291
X21693Y-89016
X21732Y-104606
X21752Y-20669
X21752Y-45768
X21752Y-46555
X21752Y-78957
X21752Y-102953
X21752Y-103740
X21772Y-35709
X21811Y-77933
X21850Y-12205
X21850Y-13189
X21850Y-25689
X21850Y-38484
X21850Y-61496
X21850Y-96240
X21870Y-70650
X21870Y-88012
X21890Y-62480
X21890Y-95217
X21890Y-120354
X21949Y-33268
X21949Y-34055
X21949Y-34724
X21949Y-73031
X21949Y-73819
X21949Y-86319
X21949Y-87106
X21949Y-113504
X21949Y-129252
X21949Y-130217
X21949Y-131004
X21969Y-71634
X22008Y-108976
X22008Y-124843
X22047Y-75984
X22047Y-76772
X22106Y-21831
X22126Y-48406
X22146Y-22815
X22146Y-47244
X22146Y-63287
X22146Y-64075
X22146Y-96949
X22146Y-97736
X22165Y-105630
X22165Y-106102
X22165Y-106594
X22165Y-107185
X22165Y-107776
X22165Y-108268
X22165Y-109449
X22165Y-110039
X22165Y-110531
X22165Y-111122
X22165Y-111614
X22165Y-112205
X22165Y-121378
X22165Y-121850
X22165Y-122343
X22165Y-122835
X22165Y-123327
X22165Y-123917
X22165Y-124409
X22165Y-125354
X22165Y-125846
X22165Y-126339
X22165Y-126831
X22165Y-127323
X22165Y-127913
X22185Y-89016
X22205Y-35945
X22244Y-51083
X22244Y-51870
X22244Y-59843
X22244Y-60630
X22244Y-69094
X22244Y-69882
X22244Y-79823
X22244Y-80610
X22244Y-90256
X22244Y-91043
X22244Y-93504
X22244Y-94291
X22244Y-115650
X22244Y-116240
X22244Y-116831
X22244Y-117421
X22244Y-118012
X22303Y-77933
X22303Y-128228
X22323Y-104606
X22343Y-9744
X22343Y-12205
X22343Y-13189
X22343Y-45768
X22343Y-46555
X22343Y-61496
X22343Y-102953
X22343Y-103740
X22382Y-62480
X22382Y-95217
X22441Y-11024
X22441Y-34724
X22441Y-78957
X22441Y-112480
X22441Y-113504
X22441Y-129252
X22461Y-70650
X22461Y-71634
X22461Y-88012
X22480Y-120354
X22539Y-33268
X22539Y-34055
X22539Y-73031
X22539Y-73819
X22539Y-86319
X22539Y-87106
X22539Y-96240
X22539Y-121378
X22539Y-130217
X22539Y-131004
X22579Y-105630
X22598Y-21831
X22618Y-48406
X22638Y-19390
X22638Y-22815
X22638Y-75984
X22638Y-76772
X22677Y-89016
X22736Y-20669
X22736Y-35925
X22736Y-47244
X22736Y-63287
X22736Y-64075
X22736Y-96949
X22736Y-97736
X22795Y-77933
X22835Y-12205
X22835Y-13189
X22835Y-51083
X22835Y-51870
X22835Y-59843
X22835Y-60630
X22835Y-61496
X22835Y-69094
X22835Y-69882
X22835Y-79823
X22835Y-80610
X22835Y-90256
X22835Y-91043
X22835Y-93504
X22835Y-94291
X22874Y-62480
X22874Y-95217
X22894Y-128228
X22913Y-104606
X22933Y-34724
X22933Y-45768
X22933Y-46555
X22933Y-102953
X22933Y-103740
X22933Y-112480
X22953Y-70650
X22953Y-71634
X22953Y-88012
X22972Y-120354
X23031Y-25689
X23031Y-38484
X23031Y-78957
X23031Y-113504
X23031Y-129252
X23091Y-21831
X23110Y-48406
X23130Y-22815
X23130Y-33268
X23130Y-34055
X23130Y-35748
X23130Y-73031
X23130Y-73819
X23130Y-86319
X23130Y-87106
X23130Y-96240
X23130Y-121378
X23130Y-130217
X23130Y-131004
X23150Y-47461
X23169Y-105630
X23228Y-75984
X23228Y-76772
X23287Y-77933
X23327Y-9744
X23327Y-12205
X23327Y-13189
X23327Y-61496
X23327Y-63287
X23327Y-64075
X23327Y-96949
X23327Y-97736
X23366Y-62480
X23366Y-89016
X23366Y-95217
X23386Y-128228
X23425Y-11024
X23425Y-19390
X23425Y-34724
X23425Y-59843
X23425Y-60630
X23425Y-69094
X23425Y-69882
X23425Y-79823
X23425Y-80610
X23425Y-90256
X23425Y-91043
X23425Y-93504
X23425Y-94291
X23425Y-112480
X23445Y-70650
X23445Y-71634
X23445Y-88012
X23504Y-104606
X23524Y-20669
X23524Y-45768
X23524Y-46555
X23524Y-102953
X23524Y-103740
X23524Y-113504
X23524Y-129252
X23563Y-120354
X23583Y-21831
X23602Y-48406
X23622Y-22815
X23622Y-35748
X23622Y-78957
X23642Y-47461
X23720Y-96240
X23720Y-121378
X23720Y-130217
X23720Y-131004
X23760Y-105630
X23780Y-77933
X23819Y-12205
X23819Y-13189
X23819Y-33465
X23819Y-61496
X23858Y-62480
X23858Y-89016
X23858Y-95217
X23878Y-128228
X23917Y-31791
X23917Y-32579
X23917Y-34724
X23917Y-63287
X23917Y-64075
X23917Y-96949
X23917Y-97736
X23917Y-112480
X23937Y-71634
X24016Y-9252
X24016Y-10039
X24016Y-14370
X24016Y-15256
X24016Y-16043
X24016Y-18898
X24016Y-19685
X24016Y-37894
X24016Y-38681
X24016Y-44488
X24016Y-45276
X24016Y-50591
X24016Y-51378
X24016Y-58563
X24016Y-59350
X24016Y-59843
X24016Y-60630
X24016Y-64665
X24016Y-65453
X24016Y-67717
X24016Y-68504
X24016Y-73819
X24016Y-74606
X24016Y-75000
X24016Y-75787
X24016Y-79823
X24016Y-80610
X24016Y-85138
X24016Y-85925
X24016Y-91142
X24016Y-91929
X24016Y-92323
X24016Y-93110
X24035Y-70650
X24035Y-88012
X24075Y-21831
X24094Y-48406
X24094Y-104606
X24114Y-22815
X24114Y-24016
X24114Y-24902
X24114Y-25689
X24114Y-35748
X24114Y-36909
X24114Y-81102
X24114Y-81890
X24114Y-98425
X24114Y-99213
X24114Y-101673
X24114Y-102461
X24114Y-107776
X24114Y-108563
X24114Y-109646
X24114Y-110433
X24114Y-113504
X24114Y-115650
X24114Y-116437
X24114Y-117421
X24114Y-118209
X24114Y-123524
X24114Y-124311
X24114Y-125394
X24114Y-126181
X24114Y-129252
X24134Y-47461
X24154Y-120354
X24213Y-78957
X24291Y-77835
X24291Y-95197
X24311Y-12106
X24311Y-13287
X24311Y-61516
X24311Y-62500
X24311Y-96240
X24311Y-121378
X24311Y-131398
X24350Y-105630
X24370Y-112480
X24370Y-128071
X24409Y-34724
X24409Y-47146
X24508Y-21457
X24508Y-23130
X24508Y-31791
X24508Y-32579
X24508Y-36024
X24508Y-113780
X24508Y-129528
X24606Y-9252
X24606Y-10039
X24606Y-11811
X24606Y-13583
X24606Y-15256
X24606Y-16043
X24606Y-18898
X24606Y-19685
X24606Y-34449
X24606Y-37894
X24606Y-38681
X24606Y-44488
X24606Y-45276
X24606Y-48720
X24606Y-50591
X24606Y-51378
X24606Y-58563
X24606Y-59350
X24606Y-61122
X24606Y-62795
X24606Y-64665
X24606Y-65453
X24606Y-67717
X24606Y-68504
X24606Y-70276
X24606Y-71949
X24606Y-73819
X24606Y-74606
X24606Y-75000
X24606Y-75787
X24606Y-77559
X24606Y-79331
X24606Y-85138
X24606Y-85925
X24606Y-87598
X24606Y-89370
X24606Y-91142
X24606Y-91929
X24606Y-92323
X24606Y-93110
X24606Y-94882
X24606Y-104331
X24606Y-120079
X24705Y-24902
X24705Y-25689
X24705Y-81102
X24705Y-81890
X24705Y-96654
X24705Y-98425
X24705Y-99213
X24705Y-101673
X24705Y-102461
X24705Y-106004
X24705Y-107776
X24705Y-108563
X24705Y-109646
X24705Y-110433
X24705Y-115650
X24705Y-116437
X24705Y-117421
X24705Y-118209
X24705Y-121752
X24705Y-123524
X24705Y-124311
X24705Y-125394
X24705Y-126181
X24803Y-112106
X24803Y-127854
X24902Y-47146
X25000Y-131398
X25098Y-11811
X25098Y-21457
X25098Y-23130
X25098Y-31791
X25098Y-32579
X25098Y-34449
X25098Y-36024
X25098Y-61122
X25098Y-77559
X25098Y-94882
X25098Y-113780
X25098Y-129528
X25197Y-9252
X25197Y-10039
X25197Y-13583
X25197Y-15256
X25197Y-16043
X25197Y-18898
X25197Y-19685
X25197Y-37894
X25197Y-38681
X25197Y-44488
X25197Y-45276
X25197Y-48720
X25197Y-50591
X25197Y-51378
X25197Y-58563
X25197Y-59350
X25197Y-62795
X25197Y-64665
X25197Y-65453
X25197Y-67717
X25197Y-68504
X25197Y-70276
X25197Y-71949
X25197Y-73819
X25197Y-74606
X25197Y-75000
X25197Y-75787
X25197Y-79331
X25197Y-85138
X25197Y-85925
X25197Y-87598
X25197Y-89370
X25197Y-91142
X25197Y-91929
X25197Y-92323
X25197Y-93110
X25197Y-104331
X25197Y-120079
X25295Y-24902
X25295Y-25689
X25295Y-81102
X25295Y-81890
X25295Y-96654
X25295Y-98425
X25295Y-99213
X25295Y-101673
X25295Y-102461
X25295Y-106004
X25295Y-107776
X25295Y-108563
X25295Y-109646
X25295Y-110433
X25295Y-115650
X25295Y-116437
X25295Y-117421
X25295Y-118209
X25295Y-121752
X25295Y-123524
X25295Y-124311
X25295Y-125394
X25295Y-126181
X25394Y-112106
X25394Y-127854
X25591Y-47146
X25689Y-11811
X25689Y-21457
X25689Y-23130
X25689Y-31791
X25689Y-32579
X25689Y-61122
X25689Y-77559
X25689Y-94882
X25689Y-113780
X25689Y-129528
X25689Y-131398
X25787Y-9252
X25787Y-10039
X25787Y-13583
X25787Y-15256
X25787Y-16043
X25787Y-18898
X25787Y-19685
X25787Y-34449
X25787Y-36024
X25787Y-37894
X25787Y-38681
X25787Y-44488
X25787Y-45276
X25787Y-48720
X25787Y-50591
X25787Y-51378
X25787Y-58563
X25787Y-59350
X25787Y-62795
X25787Y-64665
X25787Y-65453
X25787Y-67717
X25787Y-68504
X25787Y-70276
X25787Y-71949
X25787Y-73819
X25787Y-74606
X25787Y-75000
X25787Y-75787
X25787Y-85138
X25787Y-85925
X25787Y-87598
X25787Y-89370
X25787Y-91142
X25787Y-91929
X25787Y-92323
X25787Y-93110
X25787Y-104331
X25886Y-24902
X25886Y-25689
X25886Y-79331
X25886Y-81102
X25886Y-81890
X25886Y-98425
X25886Y-99213
X25886Y-101673
X25886Y-102461
X25886Y-107776
X25886Y-108563
X25886Y-109646
X25886Y-110433
X25886Y-115650
X25886Y-116437
X25886Y-117421
X25886Y-118209
X25886Y-120079
X25886Y-123524
X25886Y-124311
X25886Y-125394
X25886Y-126181
X25984Y-96654
X25984Y-106004
X25984Y-112106
X25984Y-121752
X25984Y-127854
X26280Y-31791
X26280Y-32579
X26280Y-47146
X26378Y-9252
X26378Y-10039
X26378Y-11811
X26378Y-13583
X26378Y-15256
X26378Y-16043
X26378Y-18898
X26378Y-19685
X26378Y-21457
X26378Y-23130
X26378Y-37894
X26378Y-38681
X26378Y-44488
X26378Y-45276
X26378Y-50591
X26378Y-51378
X26378Y-58563
X26378Y-59350
X26378Y-61122
X26378Y-62795
X26378Y-64665
X26378Y-65453
X26378Y-67717
X26378Y-68504
X26378Y-71949
X26378Y-73819
X26378Y-74606
X26378Y-75000
X26378Y-75787
X26378Y-77559
X26378Y-85138
X26378Y-85925
X26378Y-89370
X26378Y-91142
X26378Y-91929
X26378Y-92323
X26378Y-93110
X26378Y-94882
X26378Y-104331
X26378Y-113780
X26378Y-129528
X26378Y-131398
X26476Y-24902
X26476Y-25689
X26476Y-34449
X26476Y-36024
X26476Y-48720
X26476Y-70276
X26476Y-79331
X26476Y-81102
X26476Y-81890
X26476Y-87598
X26476Y-98425
X26476Y-99213
X26476Y-101673
X26476Y-102461
X26476Y-107776
X26476Y-108563
X26476Y-109646
X26476Y-110433
X26476Y-112106
X26476Y-115650
X26476Y-116437
X26476Y-117421
X26476Y-118209
X26476Y-120079
X26476Y-123524
X26476Y-124311
X26476Y-125394
X26476Y-126181
X26476Y-127854
X26575Y-96654
X26575Y-106004
X26575Y-121752
T6
X16476Y-38780
X17476Y-38780
X16260Y-25630
X17260Y-25630
X16433Y-51484
X17433Y-51484
X9665Y-25807
T0
M30
