G04 #@! TF.GenerationSoftware,KiCad,Pcbnew,(5.0.1)-4*
G04 #@! TF.CreationDate,2019-06-26T10:02:51-07:00*
G04 #@! TF.ProjectId,Mixed_circuit,4D697865645F636972637569742E6B69,rev?*
G04 #@! TF.SameCoordinates,Original*
G04 #@! TF.FileFunction,Other,Fab,Top*
%FSLAX46Y46*%
G04 Gerber Fmt 4.6, Leading zero omitted, Abs format (unit mm)*
G04 Created by KiCad (PCBNEW (5.0.1)-4) date 6/26/2019 10:02:51 AM*
%MOMM*%
%LPD*%
G01*
G04 APERTURE LIST*
%ADD10C,0.100000*%
G04 APERTURE END LIST*
D10*
G04 #@! TO.C,C1*
X27600000Y-89750000D02*
X26600000Y-89750000D01*
X26600000Y-89750000D02*
X26600000Y-89250000D01*
X26600000Y-89250000D02*
X27600000Y-89250000D01*
X27600000Y-89250000D02*
X27600000Y-89750000D01*
G04 #@! TO.C,C2*
X27400000Y-121500000D02*
X28400000Y-121500000D01*
X28400000Y-121500000D02*
X28400000Y-122000000D01*
X28400000Y-122000000D02*
X27400000Y-122000000D01*
X27400000Y-122000000D02*
X27400000Y-121500000D01*
G04 #@! TO.C,C3*
X30640000Y-90540000D02*
X30140000Y-90540000D01*
X30640000Y-89540000D02*
X30640000Y-90540000D01*
X30140000Y-89540000D02*
X30640000Y-89540000D01*
X30140000Y-90540000D02*
X30140000Y-89540000D01*
G04 #@! TO.C,C4*
X32050000Y-122750000D02*
X32050000Y-121750000D01*
X32050000Y-121750000D02*
X32550000Y-121750000D01*
X32550000Y-121750000D02*
X32550000Y-122750000D01*
X32550000Y-122750000D02*
X32050000Y-122750000D01*
G04 #@! TO.C,C5*
X41500000Y-92750000D02*
X41000000Y-92750000D01*
X41500000Y-91750000D02*
X41500000Y-92750000D01*
X41000000Y-91750000D02*
X41500000Y-91750000D01*
X41000000Y-92750000D02*
X41000000Y-91750000D01*
G04 #@! TO.C,C6*
X38950000Y-93710000D02*
X39950000Y-93710000D01*
X39950000Y-93710000D02*
X39950000Y-94210000D01*
X39950000Y-94210000D02*
X38950000Y-94210000D01*
X38950000Y-94210000D02*
X38950000Y-93710000D01*
G04 #@! TO.C,C7*
X31990000Y-59350000D02*
X31990000Y-58550000D01*
X33590000Y-59350000D02*
X31990000Y-59350000D01*
X33590000Y-58550000D02*
X33590000Y-59350000D01*
X31990000Y-58550000D02*
X33590000Y-58550000D01*
G04 #@! TO.C,C8*
X52650000Y-121500000D02*
X52650000Y-122000000D01*
X51650000Y-121500000D02*
X52650000Y-121500000D01*
X51650000Y-122000000D02*
X51650000Y-121500000D01*
X52650000Y-122000000D02*
X51650000Y-122000000D01*
G04 #@! TO.C,C9*
X45330000Y-92440000D02*
X45330000Y-91440000D01*
X45330000Y-91440000D02*
X45830000Y-91440000D01*
X45830000Y-91440000D02*
X45830000Y-92440000D01*
X45830000Y-92440000D02*
X45330000Y-92440000D01*
G04 #@! TO.C,C10*
X41120000Y-124330000D02*
X41620000Y-124330000D01*
X41120000Y-125330000D02*
X41120000Y-124330000D01*
X41620000Y-125330000D02*
X41120000Y-125330000D01*
X41620000Y-124330000D02*
X41620000Y-125330000D01*
G04 #@! TO.C,C11*
X50460000Y-118860000D02*
X50460000Y-119660000D01*
X48860000Y-118860000D02*
X50460000Y-118860000D01*
X48860000Y-119660000D02*
X48860000Y-118860000D01*
X50460000Y-119660000D02*
X48860000Y-119660000D01*
G04 #@! TO.C,C12*
X43460000Y-118940000D02*
X45060000Y-118940000D01*
X45060000Y-118940000D02*
X45060000Y-119740000D01*
X45060000Y-119740000D02*
X43460000Y-119740000D01*
X43460000Y-119740000D02*
X43460000Y-118940000D01*
G04 #@! TO.C,C13*
X57150000Y-121650000D02*
X56850000Y-121650000D01*
X56850000Y-121650000D02*
X56850000Y-121050000D01*
X56850000Y-121050000D02*
X57150000Y-121050000D01*
X57150000Y-121050000D02*
X57150000Y-121650000D01*
G04 #@! TO.C,C14*
X47450000Y-84950000D02*
X47450000Y-85450000D01*
X46450000Y-84950000D02*
X47450000Y-84950000D01*
X46450000Y-85450000D02*
X46450000Y-84950000D01*
X47450000Y-85450000D02*
X46450000Y-85450000D01*
G04 #@! TO.C,C15*
X47450000Y-86350000D02*
X47450000Y-86850000D01*
X46450000Y-86350000D02*
X47450000Y-86350000D01*
X46450000Y-86850000D02*
X46450000Y-86350000D01*
X47450000Y-86850000D02*
X46450000Y-86850000D01*
G04 #@! TO.C,C16*
X53100000Y-89230000D02*
X54100000Y-89230000D01*
X54100000Y-89230000D02*
X54100000Y-89730000D01*
X54100000Y-89730000D02*
X53100000Y-89730000D01*
X53100000Y-89730000D02*
X53100000Y-89230000D01*
G04 #@! TO.C,C17*
X44850000Y-51000000D02*
X45850000Y-51000000D01*
X45850000Y-51000000D02*
X45850000Y-51500000D01*
X45850000Y-51500000D02*
X44850000Y-51500000D01*
X44850000Y-51500000D02*
X44850000Y-51000000D01*
G04 #@! TO.C,J1*
X23915000Y-64280000D02*
X25820000Y-64280000D01*
X25820000Y-64280000D02*
X25820000Y-66820000D01*
X25820000Y-66820000D02*
X23280000Y-66820000D01*
X23280000Y-66820000D02*
X23280000Y-64915000D01*
X23280000Y-64915000D02*
X23915000Y-64280000D01*
G04 #@! TO.C,J2*
X40030000Y-65735000D02*
X40030000Y-63830000D01*
X40030000Y-63830000D02*
X45110000Y-63830000D01*
X45110000Y-63830000D02*
X45110000Y-66370000D01*
X45110000Y-66370000D02*
X40665000Y-66370000D01*
X40665000Y-66370000D02*
X40030000Y-65735000D01*
G04 #@! TO.C,J3*
X41105000Y-132040000D02*
X40470000Y-131405000D01*
X45550000Y-132040000D02*
X41105000Y-132040000D01*
X45550000Y-129500000D02*
X45550000Y-132040000D01*
X40470000Y-129500000D02*
X45550000Y-129500000D01*
X40470000Y-131405000D02*
X40470000Y-129500000D01*
G04 #@! TO.C,J4*
X40580000Y-99135000D02*
X40580000Y-97230000D01*
X40580000Y-97230000D02*
X45660000Y-97230000D01*
X45660000Y-97230000D02*
X45660000Y-99770000D01*
X45660000Y-99770000D02*
X41215000Y-99770000D01*
X41215000Y-99770000D02*
X40580000Y-99135000D01*
G04 #@! TO.C,L1*
X33350000Y-89250000D02*
X34350000Y-89250000D01*
X33350000Y-89750000D02*
X33350000Y-89250000D01*
X34350000Y-89750000D02*
X33350000Y-89750000D01*
X34350000Y-89250000D02*
X34350000Y-89750000D01*
G04 #@! TO.C,L2*
X36500000Y-121890000D02*
X36500000Y-121590000D01*
X36500000Y-121590000D02*
X37100000Y-121590000D01*
X37100000Y-121590000D02*
X37100000Y-121890000D01*
X37100000Y-121890000D02*
X36500000Y-121890000D01*
G04 #@! TO.C,L3*
X38150000Y-89500000D02*
X38150000Y-90500000D01*
X37650000Y-89500000D02*
X38150000Y-89500000D01*
X37650000Y-90500000D02*
X37650000Y-89500000D01*
X38150000Y-90500000D02*
X37650000Y-90500000D01*
G04 #@! TO.C,L4*
X46750000Y-120700000D02*
X47250000Y-120700000D01*
X47250000Y-120700000D02*
X47250000Y-121700000D01*
X47250000Y-121700000D02*
X46750000Y-121700000D01*
X46750000Y-121700000D02*
X46750000Y-120700000D01*
G04 #@! TO.C,L5*
X48650000Y-89500000D02*
X48150000Y-89500000D01*
X48150000Y-89500000D02*
X48150000Y-88500000D01*
X48150000Y-88500000D02*
X48650000Y-88500000D01*
X48650000Y-88500000D02*
X48650000Y-89500000D01*
G04 #@! TO.C,R1*
X28800000Y-65800000D02*
X27800000Y-65800000D01*
X27800000Y-65800000D02*
X27800000Y-65300000D01*
X27800000Y-65300000D02*
X28800000Y-65300000D01*
X28800000Y-65300000D02*
X28800000Y-65800000D01*
G04 #@! TO.C,R2*
X32050000Y-61700000D02*
X32050000Y-61400000D01*
X32050000Y-61400000D02*
X32650000Y-61400000D01*
X32650000Y-61400000D02*
X32650000Y-61700000D01*
X32650000Y-61700000D02*
X32050000Y-61700000D01*
G04 #@! TO.C,R3*
X37670000Y-91740000D02*
X38170000Y-91740000D01*
X37670000Y-92740000D02*
X37670000Y-91740000D01*
X38170000Y-92740000D02*
X37670000Y-92740000D01*
X38170000Y-91740000D02*
X38170000Y-92740000D01*
G04 #@! TO.C,R4*
X42700000Y-125900000D02*
X42700000Y-124300000D01*
X42700000Y-124300000D02*
X43500000Y-124300000D01*
X43500000Y-124300000D02*
X43500000Y-125900000D01*
X43500000Y-125900000D02*
X42700000Y-125900000D01*
G04 #@! TO.C,R5*
X49320000Y-88460000D02*
X49820000Y-88460000D01*
X49320000Y-89460000D02*
X49320000Y-88460000D01*
X49820000Y-89460000D02*
X49320000Y-89460000D01*
X49820000Y-88460000D02*
X49820000Y-89460000D01*
G04 #@! TO.C,R6*
X57150000Y-89430000D02*
X57150000Y-90430000D01*
X57150000Y-90430000D02*
X56650000Y-90430000D01*
X56650000Y-90430000D02*
X56650000Y-89430000D01*
X56650000Y-89430000D02*
X57150000Y-89430000D01*
G04 #@! TO.C,R12*
X32000000Y-68000000D02*
X31000000Y-68000000D01*
X31000000Y-68000000D02*
X31000000Y-67500000D01*
X31000000Y-67500000D02*
X32000000Y-67500000D01*
X32000000Y-67500000D02*
X32000000Y-68000000D01*
G04 #@! TD*
M02*
