G04 #@! TF.GenerationSoftware,KiCad,Pcbnew,(5.0.1)-4*
G04 #@! TF.CreationDate,2019-05-20T12:59:14-07:00*
G04 #@! TF.ProjectId,Tripler_circuit,547269706C65725F636972637569742E,rev?*
G04 #@! TF.SameCoordinates,Original*
G04 #@! TF.FileFunction,Paste,Top*
G04 #@! TF.FilePolarity,Positive*
%FSLAX46Y46*%
G04 Gerber Fmt 4.6, Leading zero omitted, Abs format (unit mm)*
G04 Created by KiCad (PCBNEW (5.0.1)-4) date 5/20/2019 12:59:14 PM*
%MOMM*%
%LPD*%
G01*
G04 APERTURE LIST*
%ADD10R,0.900000X1.700000*%
%ADD11R,0.450000X0.250000*%
%ADD12R,1.900000X1.900000*%
%ADD13R,1.500000X1.500000*%
%ADD14R,1.520000X1.650000*%
%ADD15R,0.990000X0.610000*%
%ADD16R,1.750000X0.990000*%
%ADD17C,0.200000*%
%ADD18C,0.590000*%
%ADD19R,0.600000X0.400000*%
%ADD20R,0.600000X0.500000*%
%ADD21R,0.500000X0.600000*%
G04 APERTURE END LIST*
D10*
G04 #@! TO.C,U2*
X116450000Y-89700000D03*
D11*
X117375000Y-88950000D03*
X117375000Y-89450000D03*
X117375000Y-89950000D03*
X117375000Y-90450000D03*
X115525000Y-90450000D03*
X115525000Y-89950000D03*
X115525000Y-89450000D03*
X115525000Y-88950000D03*
G04 #@! TD*
D12*
G04 #@! TO.C,CON1*
X106125000Y-87075000D03*
X106125000Y-91825000D03*
X101375000Y-91825000D03*
X101375000Y-87075000D03*
D13*
X103750000Y-89450000D03*
G04 #@! TD*
G04 #@! TO.C,CON2*
X147700000Y-95380000D03*
D12*
X145325000Y-93005000D03*
X145325000Y-97755000D03*
X150075000Y-97755000D03*
X150075000Y-93005000D03*
G04 #@! TD*
D14*
G04 #@! TO.C,U1*
X125685000Y-89405000D03*
X128225000Y-89405000D03*
X130765000Y-89405000D03*
X130765000Y-95375000D03*
X128225000Y-95375000D03*
X125685000Y-95375000D03*
G04 #@! TD*
D15*
G04 #@! TO.C,U3*
X133315000Y-95380000D03*
D16*
X135130000Y-96395000D03*
D15*
X136945000Y-95380000D03*
D16*
X135130000Y-94365000D03*
G04 #@! TD*
G04 #@! TO.C,U5*
X140850000Y-94355000D03*
D15*
X142665000Y-95370000D03*
D16*
X140850000Y-96385000D03*
D15*
X139035000Y-95370000D03*
G04 #@! TD*
D17*
G04 #@! TO.C,L1*
G36*
X112696958Y-89155710D02*
X112711276Y-89157834D01*
X112725317Y-89161351D01*
X112738946Y-89166228D01*
X112752031Y-89172417D01*
X112764447Y-89179858D01*
X112776073Y-89188481D01*
X112786798Y-89198202D01*
X112796519Y-89208927D01*
X112805142Y-89220553D01*
X112812583Y-89232969D01*
X112818772Y-89246054D01*
X112823649Y-89259683D01*
X112827166Y-89273724D01*
X112829290Y-89288042D01*
X112830000Y-89302500D01*
X112830000Y-89647500D01*
X112829290Y-89661958D01*
X112827166Y-89676276D01*
X112823649Y-89690317D01*
X112818772Y-89703946D01*
X112812583Y-89717031D01*
X112805142Y-89729447D01*
X112796519Y-89741073D01*
X112786798Y-89751798D01*
X112776073Y-89761519D01*
X112764447Y-89770142D01*
X112752031Y-89777583D01*
X112738946Y-89783772D01*
X112725317Y-89788649D01*
X112711276Y-89792166D01*
X112696958Y-89794290D01*
X112682500Y-89795000D01*
X112387500Y-89795000D01*
X112373042Y-89794290D01*
X112358724Y-89792166D01*
X112344683Y-89788649D01*
X112331054Y-89783772D01*
X112317969Y-89777583D01*
X112305553Y-89770142D01*
X112293927Y-89761519D01*
X112283202Y-89751798D01*
X112273481Y-89741073D01*
X112264858Y-89729447D01*
X112257417Y-89717031D01*
X112251228Y-89703946D01*
X112246351Y-89690317D01*
X112242834Y-89676276D01*
X112240710Y-89661958D01*
X112240000Y-89647500D01*
X112240000Y-89302500D01*
X112240710Y-89288042D01*
X112242834Y-89273724D01*
X112246351Y-89259683D01*
X112251228Y-89246054D01*
X112257417Y-89232969D01*
X112264858Y-89220553D01*
X112273481Y-89208927D01*
X112283202Y-89198202D01*
X112293927Y-89188481D01*
X112305553Y-89179858D01*
X112317969Y-89172417D01*
X112331054Y-89166228D01*
X112344683Y-89161351D01*
X112358724Y-89157834D01*
X112373042Y-89155710D01*
X112387500Y-89155000D01*
X112682500Y-89155000D01*
X112696958Y-89155710D01*
X112696958Y-89155710D01*
G37*
D18*
X112535000Y-89475000D03*
D17*
G36*
X111726958Y-89155710D02*
X111741276Y-89157834D01*
X111755317Y-89161351D01*
X111768946Y-89166228D01*
X111782031Y-89172417D01*
X111794447Y-89179858D01*
X111806073Y-89188481D01*
X111816798Y-89198202D01*
X111826519Y-89208927D01*
X111835142Y-89220553D01*
X111842583Y-89232969D01*
X111848772Y-89246054D01*
X111853649Y-89259683D01*
X111857166Y-89273724D01*
X111859290Y-89288042D01*
X111860000Y-89302500D01*
X111860000Y-89647500D01*
X111859290Y-89661958D01*
X111857166Y-89676276D01*
X111853649Y-89690317D01*
X111848772Y-89703946D01*
X111842583Y-89717031D01*
X111835142Y-89729447D01*
X111826519Y-89741073D01*
X111816798Y-89751798D01*
X111806073Y-89761519D01*
X111794447Y-89770142D01*
X111782031Y-89777583D01*
X111768946Y-89783772D01*
X111755317Y-89788649D01*
X111741276Y-89792166D01*
X111726958Y-89794290D01*
X111712500Y-89795000D01*
X111417500Y-89795000D01*
X111403042Y-89794290D01*
X111388724Y-89792166D01*
X111374683Y-89788649D01*
X111361054Y-89783772D01*
X111347969Y-89777583D01*
X111335553Y-89770142D01*
X111323927Y-89761519D01*
X111313202Y-89751798D01*
X111303481Y-89741073D01*
X111294858Y-89729447D01*
X111287417Y-89717031D01*
X111281228Y-89703946D01*
X111276351Y-89690317D01*
X111272834Y-89676276D01*
X111270710Y-89661958D01*
X111270000Y-89647500D01*
X111270000Y-89302500D01*
X111270710Y-89288042D01*
X111272834Y-89273724D01*
X111276351Y-89259683D01*
X111281228Y-89246054D01*
X111287417Y-89232969D01*
X111294858Y-89220553D01*
X111303481Y-89208927D01*
X111313202Y-89198202D01*
X111323927Y-89188481D01*
X111335553Y-89179858D01*
X111347969Y-89172417D01*
X111361054Y-89166228D01*
X111374683Y-89161351D01*
X111388724Y-89157834D01*
X111403042Y-89155710D01*
X111417500Y-89155000D01*
X111712500Y-89155000D01*
X111726958Y-89155710D01*
X111726958Y-89155710D01*
G37*
D18*
X111565000Y-89475000D03*
G04 #@! TD*
D19*
G04 #@! TO.C,R2*
X119850000Y-89400000D03*
X119850000Y-88500000D03*
G04 #@! TD*
G04 #@! TO.C,R3*
X123250000Y-89400000D03*
X123250000Y-90300000D03*
G04 #@! TD*
D20*
G04 #@! TO.C,C1*
X108925000Y-89450000D03*
X107925000Y-89450000D03*
G04 #@! TD*
D21*
G04 #@! TO.C,C2*
X110275000Y-89475000D03*
X110275000Y-90475000D03*
G04 #@! TD*
G04 #@! TO.C,C3*
X113900000Y-91750000D03*
X113900000Y-92750000D03*
G04 #@! TD*
G04 #@! TO.C,C4*
X118525000Y-91025000D03*
X118525000Y-92025000D03*
G04 #@! TD*
D20*
G04 #@! TO.C,C5*
X111450000Y-92675000D03*
X110450000Y-92675000D03*
G04 #@! TD*
G04 #@! TO.C,C6*
X120800000Y-86475000D03*
X121800000Y-86475000D03*
G04 #@! TD*
G04 #@! TO.C,C7*
X121800000Y-85400000D03*
X120800000Y-85400000D03*
G04 #@! TD*
G04 #@! TO.C,C8*
X121050000Y-89400000D03*
X122050000Y-89400000D03*
G04 #@! TD*
D17*
G04 #@! TO.C,L2*
G36*
X114086958Y-89170710D02*
X114101276Y-89172834D01*
X114115317Y-89176351D01*
X114128946Y-89181228D01*
X114142031Y-89187417D01*
X114154447Y-89194858D01*
X114166073Y-89203481D01*
X114176798Y-89213202D01*
X114186519Y-89223927D01*
X114195142Y-89235553D01*
X114202583Y-89247969D01*
X114208772Y-89261054D01*
X114213649Y-89274683D01*
X114217166Y-89288724D01*
X114219290Y-89303042D01*
X114220000Y-89317500D01*
X114220000Y-89612500D01*
X114219290Y-89626958D01*
X114217166Y-89641276D01*
X114213649Y-89655317D01*
X114208772Y-89668946D01*
X114202583Y-89682031D01*
X114195142Y-89694447D01*
X114186519Y-89706073D01*
X114176798Y-89716798D01*
X114166073Y-89726519D01*
X114154447Y-89735142D01*
X114142031Y-89742583D01*
X114128946Y-89748772D01*
X114115317Y-89753649D01*
X114101276Y-89757166D01*
X114086958Y-89759290D01*
X114072500Y-89760000D01*
X113727500Y-89760000D01*
X113713042Y-89759290D01*
X113698724Y-89757166D01*
X113684683Y-89753649D01*
X113671054Y-89748772D01*
X113657969Y-89742583D01*
X113645553Y-89735142D01*
X113633927Y-89726519D01*
X113623202Y-89716798D01*
X113613481Y-89706073D01*
X113604858Y-89694447D01*
X113597417Y-89682031D01*
X113591228Y-89668946D01*
X113586351Y-89655317D01*
X113582834Y-89641276D01*
X113580710Y-89626958D01*
X113580000Y-89612500D01*
X113580000Y-89317500D01*
X113580710Y-89303042D01*
X113582834Y-89288724D01*
X113586351Y-89274683D01*
X113591228Y-89261054D01*
X113597417Y-89247969D01*
X113604858Y-89235553D01*
X113613481Y-89223927D01*
X113623202Y-89213202D01*
X113633927Y-89203481D01*
X113645553Y-89194858D01*
X113657969Y-89187417D01*
X113671054Y-89181228D01*
X113684683Y-89176351D01*
X113698724Y-89172834D01*
X113713042Y-89170710D01*
X113727500Y-89170000D01*
X114072500Y-89170000D01*
X114086958Y-89170710D01*
X114086958Y-89170710D01*
G37*
D18*
X113900000Y-89465000D03*
D17*
G36*
X114086958Y-90140710D02*
X114101276Y-90142834D01*
X114115317Y-90146351D01*
X114128946Y-90151228D01*
X114142031Y-90157417D01*
X114154447Y-90164858D01*
X114166073Y-90173481D01*
X114176798Y-90183202D01*
X114186519Y-90193927D01*
X114195142Y-90205553D01*
X114202583Y-90217969D01*
X114208772Y-90231054D01*
X114213649Y-90244683D01*
X114217166Y-90258724D01*
X114219290Y-90273042D01*
X114220000Y-90287500D01*
X114220000Y-90582500D01*
X114219290Y-90596958D01*
X114217166Y-90611276D01*
X114213649Y-90625317D01*
X114208772Y-90638946D01*
X114202583Y-90652031D01*
X114195142Y-90664447D01*
X114186519Y-90676073D01*
X114176798Y-90686798D01*
X114166073Y-90696519D01*
X114154447Y-90705142D01*
X114142031Y-90712583D01*
X114128946Y-90718772D01*
X114115317Y-90723649D01*
X114101276Y-90727166D01*
X114086958Y-90729290D01*
X114072500Y-90730000D01*
X113727500Y-90730000D01*
X113713042Y-90729290D01*
X113698724Y-90727166D01*
X113684683Y-90723649D01*
X113671054Y-90718772D01*
X113657969Y-90712583D01*
X113645553Y-90705142D01*
X113633927Y-90696519D01*
X113623202Y-90686798D01*
X113613481Y-90676073D01*
X113604858Y-90664447D01*
X113597417Y-90652031D01*
X113591228Y-90638946D01*
X113586351Y-90625317D01*
X113582834Y-90611276D01*
X113580710Y-90596958D01*
X113580000Y-90582500D01*
X113580000Y-90287500D01*
X113580710Y-90273042D01*
X113582834Y-90258724D01*
X113586351Y-90244683D01*
X113591228Y-90231054D01*
X113597417Y-90217969D01*
X113604858Y-90205553D01*
X113613481Y-90193927D01*
X113623202Y-90183202D01*
X113633927Y-90173481D01*
X113645553Y-90164858D01*
X113657969Y-90157417D01*
X113671054Y-90151228D01*
X113684683Y-90146351D01*
X113698724Y-90142834D01*
X113713042Y-90140710D01*
X113727500Y-90140000D01*
X114072500Y-90140000D01*
X114086958Y-90140710D01*
X114086958Y-90140710D01*
G37*
D18*
X113900000Y-90435000D03*
G04 #@! TD*
D17*
G04 #@! TO.C,L3*
G36*
X118836958Y-88965710D02*
X118851276Y-88967834D01*
X118865317Y-88971351D01*
X118878946Y-88976228D01*
X118892031Y-88982417D01*
X118904447Y-88989858D01*
X118916073Y-88998481D01*
X118926798Y-89008202D01*
X118936519Y-89018927D01*
X118945142Y-89030553D01*
X118952583Y-89042969D01*
X118958772Y-89056054D01*
X118963649Y-89069683D01*
X118967166Y-89083724D01*
X118969290Y-89098042D01*
X118970000Y-89112500D01*
X118970000Y-89407500D01*
X118969290Y-89421958D01*
X118967166Y-89436276D01*
X118963649Y-89450317D01*
X118958772Y-89463946D01*
X118952583Y-89477031D01*
X118945142Y-89489447D01*
X118936519Y-89501073D01*
X118926798Y-89511798D01*
X118916073Y-89521519D01*
X118904447Y-89530142D01*
X118892031Y-89537583D01*
X118878946Y-89543772D01*
X118865317Y-89548649D01*
X118851276Y-89552166D01*
X118836958Y-89554290D01*
X118822500Y-89555000D01*
X118477500Y-89555000D01*
X118463042Y-89554290D01*
X118448724Y-89552166D01*
X118434683Y-89548649D01*
X118421054Y-89543772D01*
X118407969Y-89537583D01*
X118395553Y-89530142D01*
X118383927Y-89521519D01*
X118373202Y-89511798D01*
X118363481Y-89501073D01*
X118354858Y-89489447D01*
X118347417Y-89477031D01*
X118341228Y-89463946D01*
X118336351Y-89450317D01*
X118332834Y-89436276D01*
X118330710Y-89421958D01*
X118330000Y-89407500D01*
X118330000Y-89112500D01*
X118330710Y-89098042D01*
X118332834Y-89083724D01*
X118336351Y-89069683D01*
X118341228Y-89056054D01*
X118347417Y-89042969D01*
X118354858Y-89030553D01*
X118363481Y-89018927D01*
X118373202Y-89008202D01*
X118383927Y-88998481D01*
X118395553Y-88989858D01*
X118407969Y-88982417D01*
X118421054Y-88976228D01*
X118434683Y-88971351D01*
X118448724Y-88967834D01*
X118463042Y-88965710D01*
X118477500Y-88965000D01*
X118822500Y-88965000D01*
X118836958Y-88965710D01*
X118836958Y-88965710D01*
G37*
D18*
X118650000Y-89260000D03*
D17*
G36*
X118836958Y-87995710D02*
X118851276Y-87997834D01*
X118865317Y-88001351D01*
X118878946Y-88006228D01*
X118892031Y-88012417D01*
X118904447Y-88019858D01*
X118916073Y-88028481D01*
X118926798Y-88038202D01*
X118936519Y-88048927D01*
X118945142Y-88060553D01*
X118952583Y-88072969D01*
X118958772Y-88086054D01*
X118963649Y-88099683D01*
X118967166Y-88113724D01*
X118969290Y-88128042D01*
X118970000Y-88142500D01*
X118970000Y-88437500D01*
X118969290Y-88451958D01*
X118967166Y-88466276D01*
X118963649Y-88480317D01*
X118958772Y-88493946D01*
X118952583Y-88507031D01*
X118945142Y-88519447D01*
X118936519Y-88531073D01*
X118926798Y-88541798D01*
X118916073Y-88551519D01*
X118904447Y-88560142D01*
X118892031Y-88567583D01*
X118878946Y-88573772D01*
X118865317Y-88578649D01*
X118851276Y-88582166D01*
X118836958Y-88584290D01*
X118822500Y-88585000D01*
X118477500Y-88585000D01*
X118463042Y-88584290D01*
X118448724Y-88582166D01*
X118434683Y-88578649D01*
X118421054Y-88573772D01*
X118407969Y-88567583D01*
X118395553Y-88560142D01*
X118383927Y-88551519D01*
X118373202Y-88541798D01*
X118363481Y-88531073D01*
X118354858Y-88519447D01*
X118347417Y-88507031D01*
X118341228Y-88493946D01*
X118336351Y-88480317D01*
X118332834Y-88466276D01*
X118330710Y-88451958D01*
X118330000Y-88437500D01*
X118330000Y-88142500D01*
X118330710Y-88128042D01*
X118332834Y-88113724D01*
X118336351Y-88099683D01*
X118341228Y-88086054D01*
X118347417Y-88072969D01*
X118354858Y-88060553D01*
X118363481Y-88048927D01*
X118373202Y-88038202D01*
X118383927Y-88028481D01*
X118395553Y-88019858D01*
X118407969Y-88012417D01*
X118421054Y-88006228D01*
X118434683Y-88001351D01*
X118448724Y-87997834D01*
X118463042Y-87995710D01*
X118477500Y-87995000D01*
X118822500Y-87995000D01*
X118836958Y-87995710D01*
X118836958Y-87995710D01*
G37*
D18*
X118650000Y-88290000D03*
G04 #@! TD*
D19*
G04 #@! TO.C,R1*
X112725000Y-92675000D03*
X112725000Y-91775000D03*
G04 #@! TD*
M02*
