M48
;DRILL file {KiCad (5.0.1)-4} date 5/20/2019 12:59:18 PM
;FORMAT={2:4/ absolute / inch / suppress leading zeros}
FMAT,2
INCH,TZ
T1C0.0100
T2C0.0134
T3C0.0157
T4C0.0394
%
G90
G05
M72
T1
X42372Y-35659
X42402Y-34813
X42559Y-35659
X42638Y-34813
X42766Y-35659
X42904Y-34813
X42982Y-35659
X43100Y-35856
X43159Y-34813
X43337Y-35955
X43406Y-34813
X43573Y-35965
X43661Y-34813
X43760Y-35817
X43907Y-34813
X43907Y-35669
X44154Y-35679
X44173Y-34813
X44409Y-35679
X44419Y-34813
X44695Y-34813
X44970Y-34813
X45187Y-35787
X45187Y-36024
X45187Y-36250
X45187Y-36476
X45217Y-34783
X45433Y-35906
X45463Y-34695
X45659Y-35915
X45699Y-34695
X45906Y-35915
X45935Y-34695
X46132Y-35915
X46201Y-34705
X46358Y-35935
X46358Y-36201
X46358Y-36398
X46792Y-35482
X46978Y-35591
X46978Y-35925
X46978Y-36230
X47215Y-35591
X47451Y-35581
X47618Y-34774
X47697Y-35581
X47736Y-34390
X47933Y-34774
X47943Y-35571
X48159Y-35571
X48189Y-34774
X48455Y-34764
X48780Y-34754
X48848Y-35600
X49045Y-35768
X49065Y-34665
X49331Y-34656
X49596Y-34656
X49882Y-34665
X49882Y-34665
X51280Y-38150
X51575Y-38150
X51949Y-38041
X51978Y-36998
X52254Y-37096
X52264Y-37953
X52608Y-37126
X52608Y-37953
X53819Y-37963
X53829Y-37106
X54085Y-37963
X54114Y-37126
X54370Y-37972
X54380Y-37136
X54656Y-37146
X54656Y-37972
X54911Y-37057
X54911Y-38061
X56033Y-37116
X56063Y-37972
X56289Y-37165
X56339Y-37943
X56624Y-37175
X56663Y-37913
X45758Y-35020
X45758Y-35167
X45758Y-35315
X45758Y-35463
X45758Y-35610
X45935Y-35020
X45935Y-35167
X45935Y-35315
X45935Y-35463
X45935Y-35610
T2
X55228Y-37075
X55228Y-38020
X55677Y-37075
X55677Y-38020
X52976Y-37079
X52976Y-38024
X53425Y-37079
X53425Y-38024
X49482Y-36374
X49482Y-36965
X49982Y-36374
X49982Y-36965
X50482Y-35783
X50482Y-36374
X50482Y-36965
X50982Y-35783
X50982Y-36374
X51482Y-35783
X51482Y-36374
T3
X39911Y-33543
X39911Y-35217
X39911Y-36870
X40364Y-37717
X40413Y-36870
X40463Y-33543
X40807Y-36132
X40817Y-34281
X40906Y-36880
X40925Y-33543
X41407Y-33543
X41407Y-36880
X41870Y-33543
X41870Y-36900
X42146Y-37726
X42323Y-33642
X42323Y-33642
X42372Y-36909
X42913Y-36693
X43799Y-33189
X43878Y-36939
X44154Y-37736
X44331Y-36959
X45059Y-33169
X45974Y-37707
X46063Y-39213
X46604Y-33169
X46713Y-34301
X47087Y-33957
X47165Y-34419
X47480Y-37687
X47500Y-39213
X47943Y-33159
X48642Y-37018
X48661Y-37549
X49173Y-33199
X49222Y-39193
X49478Y-38258
X49990Y-38268
X50482Y-34498
X50531Y-38278
X50561Y-33159
X50620Y-39232
X51024Y-34508
X51506Y-33199
X51535Y-34518
X52057Y-39252
X52234Y-35374
X52234Y-35965
X52254Y-36486
X52766Y-34026
X52766Y-34547
X52766Y-35059
X53199Y-35965
X53307Y-34006
X53307Y-34508
X53317Y-35059
X53652Y-39291
X53848Y-35059
X53858Y-34006
X53858Y-34508
X54360Y-36024
X55285Y-39311
X55591Y-36033
X55866Y-35030
X56368Y-35039
X56388Y-34006
X56388Y-34528
X56535Y-36604
X56545Y-38563
X56624Y-35965
X56762Y-39134
X56880Y-35059
X56890Y-34547
X56900Y-34016
X57146Y-35935
X57165Y-39154
X57667Y-39163
X57677Y-35955
X58110Y-36634
X58120Y-38455
X58189Y-32963
X58219Y-34124
X58219Y-35965
X58228Y-35089
X58238Y-39163
X58740Y-35945
X58760Y-39173
X59094Y-37579
X59281Y-35945
X59291Y-39163
T4
X54600Y-34000
X55600Y-34000
T0
M30
