G04 #@! TF.GenerationSoftware,KiCad,Pcbnew,(5.0.1)-4*
G04 #@! TF.CreationDate,2019-05-20T12:59:15-07:00*
G04 #@! TF.ProjectId,Tripler_circuit,547269706C65725F636972637569742E,rev?*
G04 #@! TF.SameCoordinates,Original*
G04 #@! TF.FileFunction,Other,Fab,Top*
%FSLAX46Y46*%
G04 Gerber Fmt 4.6, Leading zero omitted, Abs format (unit mm)*
G04 Created by KiCad (PCBNEW (5.0.1)-4) date 5/20/2019 12:59:15 PM*
%MOMM*%
%LPD*%
G01*
G04 APERTURE LIST*
%ADD10C,0.100000*%
G04 APERTURE END LIST*
D10*
G04 #@! TO.C,J1*
X137414000Y-86995000D02*
X137414000Y-85090000D01*
X137414000Y-85090000D02*
X142494000Y-85090000D01*
X142494000Y-85090000D02*
X142494000Y-87630000D01*
X142494000Y-87630000D02*
X138049000Y-87630000D01*
X138049000Y-87630000D02*
X137414000Y-86995000D01*
G04 #@! TO.C,L1*
X112550000Y-89225000D02*
X112550000Y-89725000D01*
X112550000Y-89725000D02*
X111550000Y-89725000D01*
X111550000Y-89725000D02*
X111550000Y-89225000D01*
X111550000Y-89225000D02*
X112550000Y-89225000D01*
G04 #@! TO.C,R2*
X120100000Y-88450000D02*
X120100000Y-89450000D01*
X120100000Y-89450000D02*
X119600000Y-89450000D01*
X119600000Y-89450000D02*
X119600000Y-88450000D01*
X119600000Y-88450000D02*
X120100000Y-88450000D01*
G04 #@! TO.C,R3*
X123000000Y-89350000D02*
X123500000Y-89350000D01*
X123000000Y-90350000D02*
X123000000Y-89350000D01*
X123500000Y-90350000D02*
X123000000Y-90350000D01*
X123500000Y-89350000D02*
X123500000Y-90350000D01*
G04 #@! TO.C,C1*
X108925000Y-89200000D02*
X108925000Y-89700000D01*
X107925000Y-89200000D02*
X108925000Y-89200000D01*
X107925000Y-89700000D02*
X107925000Y-89200000D01*
X108925000Y-89700000D02*
X107925000Y-89700000D01*
G04 #@! TO.C,C2*
X110025000Y-90475000D02*
X110025000Y-89475000D01*
X110025000Y-89475000D02*
X110525000Y-89475000D01*
X110525000Y-89475000D02*
X110525000Y-90475000D01*
X110525000Y-90475000D02*
X110025000Y-90475000D01*
G04 #@! TO.C,C3*
X113650000Y-92750000D02*
X113650000Y-91750000D01*
X113650000Y-91750000D02*
X114150000Y-91750000D01*
X114150000Y-91750000D02*
X114150000Y-92750000D01*
X114150000Y-92750000D02*
X113650000Y-92750000D01*
G04 #@! TO.C,C4*
X118275000Y-92025000D02*
X118275000Y-91025000D01*
X118275000Y-91025000D02*
X118775000Y-91025000D01*
X118775000Y-91025000D02*
X118775000Y-92025000D01*
X118775000Y-92025000D02*
X118275000Y-92025000D01*
G04 #@! TO.C,C5*
X111450000Y-92425000D02*
X111450000Y-92925000D01*
X110450000Y-92425000D02*
X111450000Y-92425000D01*
X110450000Y-92925000D02*
X110450000Y-92425000D01*
X111450000Y-92925000D02*
X110450000Y-92925000D01*
G04 #@! TO.C,C6*
X120800000Y-86725000D02*
X120800000Y-86225000D01*
X121800000Y-86725000D02*
X120800000Y-86725000D01*
X121800000Y-86225000D02*
X121800000Y-86725000D01*
X120800000Y-86225000D02*
X121800000Y-86225000D01*
G04 #@! TO.C,C7*
X120800000Y-85150000D02*
X121800000Y-85150000D01*
X121800000Y-85150000D02*
X121800000Y-85650000D01*
X121800000Y-85650000D02*
X120800000Y-85650000D01*
X120800000Y-85650000D02*
X120800000Y-85150000D01*
G04 #@! TO.C,C8*
X121050000Y-89650000D02*
X121050000Y-89150000D01*
X122050000Y-89650000D02*
X121050000Y-89650000D01*
X122050000Y-89150000D02*
X122050000Y-89650000D01*
X121050000Y-89150000D02*
X122050000Y-89150000D01*
G04 #@! TO.C,L2*
X114150000Y-89450000D02*
X114150000Y-90450000D01*
X113650000Y-89450000D02*
X114150000Y-89450000D01*
X113650000Y-90450000D02*
X113650000Y-89450000D01*
X114150000Y-90450000D02*
X113650000Y-90450000D01*
G04 #@! TO.C,L3*
X118900000Y-89275000D02*
X118400000Y-89275000D01*
X118400000Y-89275000D02*
X118400000Y-88275000D01*
X118400000Y-88275000D02*
X118900000Y-88275000D01*
X118900000Y-88275000D02*
X118900000Y-89275000D01*
G04 #@! TO.C,R1*
X112975000Y-91725000D02*
X112975000Y-92725000D01*
X112975000Y-92725000D02*
X112475000Y-92725000D01*
X112475000Y-92725000D02*
X112475000Y-91725000D01*
X112475000Y-91725000D02*
X112975000Y-91725000D01*
G04 #@! TD*
M02*
