G04 #@! TF.GenerationSoftware,KiCad,Pcbnew,(5.0.1)-4*
G04 #@! TF.CreationDate,2019-05-20T12:59:14-07:00*
G04 #@! TF.ProjectId,Tripler_circuit,547269706C65725F636972637569742E,rev?*
G04 #@! TF.SameCoordinates,Original*
G04 #@! TF.FileFunction,Copper,L4,Bot,Signal*
G04 #@! TF.FilePolarity,Positive*
%FSLAX46Y46*%
G04 Gerber Fmt 4.6, Leading zero omitted, Abs format (unit mm)*
G04 Created by KiCad (PCBNEW (5.0.1)-4) date 5/20/2019 12:59:14 PM*
%MOMM*%
%LPD*%
G01*
G04 APERTURE LIST*
G04 #@! TA.AperFunction,ComponentPad*
%ADD10R,1.700000X1.700000*%
G04 #@! TD*
G04 #@! TA.AperFunction,ComponentPad*
%ADD11O,1.700000X1.700000*%
G04 #@! TD*
G04 #@! TA.AperFunction,ViaPad*
%ADD12C,0.350000*%
G04 #@! TD*
G04 #@! TA.AperFunction,ViaPad*
%ADD13C,0.600000*%
G04 #@! TD*
G04 #@! TA.AperFunction,ComponentPad*
%ADD14C,0.600000*%
G04 #@! TD*
G04 #@! TA.AperFunction,ViaPad*
%ADD15C,0.800000*%
G04 #@! TD*
G04 #@! TA.AperFunction,Conductor*
%ADD16C,0.250000*%
G04 #@! TD*
G04 #@! TA.AperFunction,Conductor*
%ADD17C,0.254000*%
G04 #@! TD*
G04 APERTURE END LIST*
D10*
G04 #@! TO.P,J1,1*
G04 #@! TO.N,+5V*
X138684000Y-86360000D03*
D11*
G04 #@! TO.P,J1,2*
G04 #@! TO.N,GND*
X141224000Y-86360000D03*
G04 #@! TD*
D12*
G04 #@! TO.N,GND*
G04 #@! TO.C,U2*
X116675000Y-89700000D03*
X116225000Y-89700000D03*
X116675000Y-90450000D03*
X116225000Y-90450000D03*
X116225000Y-90075000D03*
X116675000Y-90075000D03*
X116675000Y-89325000D03*
X116675000Y-88950000D03*
X116225000Y-89325000D03*
X116225000Y-88950000D03*
G04 #@! TD*
D13*
G04 #@! TO.N,GND*
G04 #@! TO.C,U1*
X128225000Y-90890000D03*
X129495000Y-90890000D03*
X130765000Y-90890000D03*
X130765000Y-92390000D03*
X129495000Y-92390000D03*
X128225000Y-92390000D03*
X126955000Y-92390000D03*
X125685000Y-92390000D03*
X125685000Y-93890000D03*
X126955000Y-93890000D03*
X128225000Y-93890000D03*
G04 #@! TD*
D14*
G04 #@! TO.P,U3,2*
G04 #@! TO.N,GND*
X134560000Y-96580000D03*
X135700000Y-96580000D03*
G04 #@! TO.P,U3,4*
X134560000Y-94180000D03*
X135700000Y-94180000D03*
G04 #@! TD*
G04 #@! TO.P,U5,4*
G04 #@! TO.N,GND*
X141420000Y-94170000D03*
X140280000Y-94170000D03*
G04 #@! TO.P,U5,2*
X141420000Y-96570000D03*
X140280000Y-96570000D03*
G04 #@! TD*
D15*
G04 #@! TO.N,+5V*
X136800000Y-86375000D03*
X135400000Y-86375000D03*
X135400000Y-87650000D03*
X136800000Y-87650000D03*
X136775000Y-89050000D03*
X135425000Y-89050000D03*
X134025000Y-89050000D03*
X134025000Y-87750000D03*
X134025000Y-86425000D03*
X111450000Y-93825000D03*
X112600000Y-93875000D03*
X119800000Y-87425000D03*
X118650000Y-87125000D03*
X119600000Y-86250000D03*
G04 #@! TO.N,GND*
X147600000Y-93050000D03*
X150100000Y-95450000D03*
X147625000Y-97675000D03*
X141900000Y-88975000D03*
X143175000Y-89000000D03*
X144475000Y-89050000D03*
X144500000Y-87750000D03*
X143225000Y-87700000D03*
X143225000Y-86375000D03*
X144525000Y-86400000D03*
X143825000Y-91350000D03*
X145150000Y-91275000D03*
X146500000Y-91325000D03*
X147875000Y-91350000D03*
X149200000Y-91300000D03*
X150575000Y-91300000D03*
X144175000Y-99400000D03*
X145200000Y-99450000D03*
X146475000Y-99475000D03*
X147925000Y-99475000D03*
X149250000Y-99500000D03*
X150600000Y-99475000D03*
X143625000Y-97950000D03*
X143600000Y-92975000D03*
X103675000Y-87075000D03*
X101375000Y-89450000D03*
X103650000Y-91775000D03*
X101375000Y-93650000D03*
X102650000Y-93650000D03*
X103900000Y-93675000D03*
X105175000Y-93675000D03*
X106350000Y-93725000D03*
X107625000Y-93750000D03*
X109000000Y-93200000D03*
X101375000Y-85200000D03*
X102775000Y-85200000D03*
X103950000Y-85200000D03*
X105175000Y-85200000D03*
X106350000Y-85200000D03*
X107500000Y-85450000D03*
X107500000Y-85450000D03*
D12*
X107625000Y-90575000D03*
X108100000Y-90575000D03*
X108625000Y-90575000D03*
X109175000Y-90575000D03*
X109475000Y-91075000D03*
X110075000Y-91325000D03*
X110675000Y-91350000D03*
X111150000Y-90975000D03*
X111525000Y-90600000D03*
X112150000Y-90625000D03*
X112800000Y-90625000D03*
X107700000Y-88425000D03*
X108300000Y-88425000D03*
X108975000Y-88425000D03*
X109625000Y-88425000D03*
X110250000Y-88425000D03*
X110900000Y-88425000D03*
X111525000Y-88425000D03*
X112200000Y-88425000D03*
X112825000Y-88425000D03*
X113525000Y-88425000D03*
X114225000Y-88425000D03*
X114850000Y-88350000D03*
X115475000Y-88125000D03*
X116075000Y-88125000D03*
X116675000Y-88125000D03*
X117350000Y-88150000D03*
X114775000Y-92650000D03*
X114775000Y-92075000D03*
X114775000Y-91500000D03*
X114775000Y-90900000D03*
X115400000Y-91200000D03*
X115975000Y-91225000D03*
X116600000Y-91225000D03*
X117175000Y-91225000D03*
X117750000Y-91275000D03*
X117750000Y-91950000D03*
X117750000Y-92450000D03*
X122325000Y-90350000D03*
X121775000Y-90350000D03*
X121150000Y-90375000D03*
X120525000Y-90375000D03*
X119925000Y-90400000D03*
X119325000Y-90400000D03*
X118850498Y-90124502D03*
X119325000Y-92025000D03*
X119325000Y-91250000D03*
X121250000Y-87350000D03*
X120950000Y-88325000D03*
X121750000Y-88325000D03*
X122400000Y-88325000D03*
X123075000Y-88300000D03*
X123900000Y-88275000D03*
X124625000Y-88050000D03*
X125300000Y-88025000D03*
X125975000Y-88025000D03*
X126700000Y-88050000D03*
X126700000Y-88050000D03*
X133625000Y-96400000D03*
X132750000Y-96400000D03*
X131950000Y-96625000D03*
X131000000Y-96900000D03*
X130250000Y-96900000D03*
X133625000Y-94300000D03*
X132725000Y-94225000D03*
X132025000Y-93975000D03*
X136725000Y-94250000D03*
X137450000Y-94300000D03*
X138125000Y-94325000D03*
X138825000Y-94350000D03*
X139475000Y-94125000D03*
X142325000Y-94275000D03*
X142975000Y-94400000D03*
X143825000Y-94425000D03*
X136700000Y-96425000D03*
X137375000Y-96425000D03*
X138100000Y-96450000D03*
X138825000Y-96450000D03*
X139475000Y-96675000D03*
X142400000Y-96450000D03*
X143100000Y-96375000D03*
X143925000Y-96300000D03*
X124075000Y-90425000D03*
X124575000Y-90850000D03*
D15*
X128225000Y-87625000D03*
X129600000Y-87650000D03*
X130900000Y-87675000D03*
X125675000Y-97175000D03*
X126975000Y-97200000D03*
X128350000Y-97225000D03*
X123600000Y-95375000D03*
X123550000Y-94025000D03*
X132675000Y-89850000D03*
X132675000Y-91350000D03*
X132725000Y-92675000D03*
X120600000Y-95725000D03*
X116775000Y-95775000D03*
X112150000Y-95850000D03*
X107050000Y-95825000D03*
X102525000Y-95800000D03*
X120650000Y-99600000D03*
X117000000Y-99600000D03*
X125025000Y-99550000D03*
X128575000Y-99650000D03*
X132225000Y-99700000D03*
X136275000Y-99800000D03*
X140425000Y-99850000D03*
X135125000Y-91350000D03*
X138075000Y-91500000D03*
X141200000Y-91525000D03*
X147900000Y-89125000D03*
X147875000Y-86675000D03*
X147800000Y-83725000D03*
X128425000Y-84225000D03*
X130825000Y-84325000D03*
X124900000Y-84325000D03*
X121775000Y-84225000D03*
X118375000Y-84250000D03*
X114450000Y-84250000D03*
X111250000Y-84300000D03*
G04 #@! TD*
D16*
G04 #@! TO.N,GND*
X141925000Y-88950000D02*
X141900000Y-88975000D01*
X143175000Y-89000000D02*
X144425000Y-89000000D01*
X144425000Y-89000000D02*
X144475000Y-89050000D01*
X144500000Y-87750000D02*
X143275000Y-87750000D01*
X143275000Y-87750000D02*
X143225000Y-87700000D01*
X143225000Y-86375000D02*
X144500000Y-86375000D01*
X144500000Y-86375000D02*
X144525000Y-86400000D01*
X143825000Y-91350000D02*
X145075000Y-91350000D01*
X145075000Y-91350000D02*
X145150000Y-91275000D01*
X146500000Y-91325000D02*
X147850000Y-91325000D01*
X147850000Y-91325000D02*
X147875000Y-91350000D01*
X149200000Y-91300000D02*
X150575000Y-91300000D01*
X144175000Y-99400000D02*
X145150000Y-99400000D01*
X145150000Y-99400000D02*
X145200000Y-99450000D01*
X146475000Y-99475000D02*
X147925000Y-99475000D01*
X149250000Y-99500000D02*
X150575000Y-99500000D01*
X150575000Y-99500000D02*
X150600000Y-99475000D01*
X143825000Y-91350000D02*
X143825000Y-92750000D01*
X143825000Y-92750000D02*
X143600000Y-92975000D01*
X101375000Y-93650000D02*
X102650000Y-93650000D01*
X103900000Y-93675000D02*
X105175000Y-93675000D01*
X106350000Y-93725000D02*
X107600000Y-93725000D01*
X107600000Y-93725000D02*
X107625000Y-93750000D01*
X101375000Y-85200000D02*
X102775000Y-85200000D01*
X103950000Y-85200000D02*
X105175000Y-85200000D01*
X106350000Y-85200000D02*
X107250000Y-85200000D01*
X107250000Y-85200000D02*
X107500000Y-85450000D01*
X107625000Y-90575000D02*
X108100000Y-90575000D01*
X108625000Y-90575000D02*
X109175000Y-90575000D01*
X109475000Y-91075000D02*
X109825000Y-91075000D01*
X109825000Y-91075000D02*
X110075000Y-91325000D01*
X110675000Y-91350000D02*
X110775000Y-91350000D01*
X110775000Y-91350000D02*
X111150000Y-90975000D01*
X111525000Y-90600000D02*
X112125000Y-90600000D01*
X112125000Y-90600000D02*
X112150000Y-90625000D01*
X107700000Y-88425000D02*
X108300000Y-88425000D01*
X108975000Y-88425000D02*
X109625000Y-88425000D01*
X110250000Y-88425000D02*
X110900000Y-88425000D01*
X111525000Y-88425000D02*
X112200000Y-88425000D01*
X112825000Y-88425000D02*
X113525000Y-88425000D01*
X114225000Y-88425000D02*
X114775000Y-88425000D01*
X114775000Y-88425000D02*
X114850000Y-88350000D01*
X115475000Y-88125000D02*
X116075000Y-88125000D01*
X116675000Y-88125000D02*
X117325000Y-88125000D01*
X117325000Y-88125000D02*
X117350000Y-88150000D01*
X114775000Y-92650000D02*
X114775000Y-92075000D01*
X114775000Y-91500000D02*
X114775000Y-90900000D01*
X115400000Y-91200000D02*
X115950000Y-91200000D01*
X115950000Y-91200000D02*
X115975000Y-91225000D01*
X116600000Y-91225000D02*
X117175000Y-91225000D01*
X117750000Y-91275000D02*
X117750000Y-91950000D01*
X122325000Y-90350000D02*
X121775000Y-90350000D01*
X121150000Y-90375000D02*
X120525000Y-90375000D01*
X119925000Y-90400000D02*
X119325000Y-90400000D01*
X119325000Y-92025000D02*
X119325000Y-91250000D01*
X121250000Y-87350000D02*
X121250000Y-88025000D01*
X121250000Y-88025000D02*
X120950000Y-88325000D01*
X121750000Y-88325000D02*
X122400000Y-88325000D01*
X123075000Y-88300000D02*
X123875000Y-88300000D01*
X123875000Y-88300000D02*
X123900000Y-88275000D01*
X124625000Y-88050000D02*
X125275000Y-88050000D01*
X125275000Y-88050000D02*
X125300000Y-88025000D01*
X125975000Y-88025000D02*
X126675000Y-88025000D01*
X126675000Y-88025000D02*
X126700000Y-88050000D01*
X133625000Y-96400000D02*
X132750000Y-96400000D01*
X131950000Y-96625000D02*
X131275000Y-96625000D01*
X131275000Y-96625000D02*
X131000000Y-96900000D01*
X134560000Y-94180000D02*
X133745000Y-94180000D01*
X133745000Y-94180000D02*
X133625000Y-94300000D01*
X132725000Y-94225000D02*
X132275000Y-94225000D01*
X132275000Y-94225000D02*
X132025000Y-93975000D01*
X136725000Y-94250000D02*
X137400000Y-94250000D01*
X137400000Y-94250000D02*
X137450000Y-94300000D01*
X138125000Y-94325000D02*
X138800000Y-94325000D01*
X138800000Y-94325000D02*
X138825000Y-94350000D01*
X140235000Y-94125000D02*
X140280000Y-94170000D01*
X139475000Y-94125000D02*
X140235000Y-94125000D01*
X141420000Y-94170000D02*
X142220000Y-94170000D01*
X142220000Y-94170000D02*
X142325000Y-94275000D01*
X142975000Y-94400000D02*
X143800000Y-94400000D01*
X143800000Y-94400000D02*
X143825000Y-94425000D01*
X136700000Y-96425000D02*
X137375000Y-96425000D01*
X138100000Y-96450000D02*
X138825000Y-96450000D01*
X139827487Y-96570000D02*
X140280000Y-96570000D01*
X139475000Y-96675000D02*
X139722487Y-96675000D01*
X139722487Y-96675000D02*
X139827487Y-96570000D01*
X141420000Y-96570000D02*
X142280000Y-96570000D01*
X142280000Y-96570000D02*
X142400000Y-96450000D01*
X143100000Y-96375000D02*
X143850000Y-96375000D01*
X143850000Y-96375000D02*
X143925000Y-96300000D01*
X124075000Y-90425000D02*
X124150000Y-90425000D01*
X124150000Y-90425000D02*
X124575000Y-90850000D01*
X128225000Y-87625000D02*
X129575000Y-87625000D01*
X129575000Y-87625000D02*
X129600000Y-87650000D01*
X125675000Y-97175000D02*
X126950000Y-97175000D01*
X126950000Y-97175000D02*
X126975000Y-97200000D01*
X123600000Y-95375000D02*
X123600000Y-94075000D01*
X123600000Y-94075000D02*
X123550000Y-94025000D01*
X132675000Y-89850000D02*
X132675000Y-91350000D01*
X125675000Y-97175000D02*
X122050000Y-97175000D01*
X122050000Y-97175000D02*
X120600000Y-95725000D01*
X116775000Y-95775000D02*
X112225000Y-95775000D01*
X112225000Y-95775000D02*
X112150000Y-95850000D01*
X107050000Y-95825000D02*
X102550000Y-95825000D01*
X102550000Y-95825000D02*
X102525000Y-95800000D01*
X120650000Y-99600000D02*
X117000000Y-99600000D01*
X125025000Y-99550000D02*
X128475000Y-99550000D01*
X128475000Y-99550000D02*
X128575000Y-99650000D01*
X132225000Y-99700000D02*
X136175000Y-99700000D01*
X136175000Y-99700000D02*
X136275000Y-99800000D01*
X132675000Y-91350000D02*
X135125000Y-91350000D01*
X138075000Y-91500000D02*
X141175000Y-91500000D01*
X141175000Y-91500000D02*
X141200000Y-91525000D01*
X147900000Y-89125000D02*
X147900000Y-86700000D01*
X147900000Y-86700000D02*
X147875000Y-86675000D01*
X128225000Y-87625000D02*
X128225000Y-84425000D01*
X128225000Y-84425000D02*
X128425000Y-84225000D01*
X128425000Y-84225000D02*
X125000000Y-84225000D01*
X125000000Y-84225000D02*
X124900000Y-84325000D01*
X118375000Y-84250000D02*
X114450000Y-84250000D01*
G04 #@! TD*
D17*
G04 #@! TO.N,GND*
G36*
X151765000Y-101727000D02*
X100203000Y-101727000D01*
X100203000Y-93619126D01*
X110415000Y-93619126D01*
X110415000Y-94030874D01*
X110572569Y-94411280D01*
X110863720Y-94702431D01*
X111244126Y-94860000D01*
X111655874Y-94860000D01*
X111984972Y-94723683D01*
X112013720Y-94752431D01*
X112394126Y-94910000D01*
X112805874Y-94910000D01*
X113186280Y-94752431D01*
X113477431Y-94461280D01*
X113635000Y-94080874D01*
X113635000Y-93669126D01*
X113477431Y-93288720D01*
X113186280Y-92997569D01*
X112805874Y-92840000D01*
X112394126Y-92840000D01*
X112065028Y-92976317D01*
X112036280Y-92947569D01*
X111655874Y-92790000D01*
X111244126Y-92790000D01*
X110863720Y-92947569D01*
X110572569Y-93238720D01*
X110415000Y-93619126D01*
X100203000Y-93619126D01*
X100203000Y-86919126D01*
X117615000Y-86919126D01*
X117615000Y-87330874D01*
X117772569Y-87711280D01*
X118063720Y-88002431D01*
X118444126Y-88160000D01*
X118855874Y-88160000D01*
X119008195Y-88096906D01*
X119213720Y-88302431D01*
X119594126Y-88460000D01*
X120005874Y-88460000D01*
X120386280Y-88302431D01*
X120677431Y-88011280D01*
X120835000Y-87630874D01*
X120835000Y-87219126D01*
X120677431Y-86838720D01*
X120535295Y-86696584D01*
X120635000Y-86455874D01*
X120635000Y-86219126D01*
X132990000Y-86219126D01*
X132990000Y-86630874D01*
X133147569Y-87011280D01*
X133223789Y-87087500D01*
X133147569Y-87163720D01*
X132990000Y-87544126D01*
X132990000Y-87955874D01*
X133147569Y-88336280D01*
X133211289Y-88400000D01*
X133147569Y-88463720D01*
X132990000Y-88844126D01*
X132990000Y-89255874D01*
X133147569Y-89636280D01*
X133438720Y-89927431D01*
X133819126Y-90085000D01*
X134230874Y-90085000D01*
X134611280Y-89927431D01*
X134725000Y-89813711D01*
X134838720Y-89927431D01*
X135219126Y-90085000D01*
X135630874Y-90085000D01*
X136011280Y-89927431D01*
X136100000Y-89838711D01*
X136188720Y-89927431D01*
X136569126Y-90085000D01*
X136980874Y-90085000D01*
X137361280Y-89927431D01*
X137652431Y-89636280D01*
X137810000Y-89255874D01*
X137810000Y-88844126D01*
X137652431Y-88463720D01*
X137551211Y-88362500D01*
X137677431Y-88236280D01*
X137834351Y-87857440D01*
X139534000Y-87857440D01*
X139781765Y-87808157D01*
X139991809Y-87667809D01*
X140132157Y-87457765D01*
X140181440Y-87210000D01*
X140181440Y-85510000D01*
X140132157Y-85262235D01*
X139991809Y-85052191D01*
X139781765Y-84911843D01*
X139534000Y-84862560D01*
X137834000Y-84862560D01*
X137586235Y-84911843D01*
X137376191Y-85052191D01*
X137235843Y-85262235D01*
X137204047Y-85422086D01*
X137005874Y-85340000D01*
X136594126Y-85340000D01*
X136213720Y-85497569D01*
X136100000Y-85611289D01*
X135986280Y-85497569D01*
X135605874Y-85340000D01*
X135194126Y-85340000D01*
X134813720Y-85497569D01*
X134687500Y-85623789D01*
X134611280Y-85547569D01*
X134230874Y-85390000D01*
X133819126Y-85390000D01*
X133438720Y-85547569D01*
X133147569Y-85838720D01*
X132990000Y-86219126D01*
X120635000Y-86219126D01*
X120635000Y-86044126D01*
X120477431Y-85663720D01*
X120186280Y-85372569D01*
X119805874Y-85215000D01*
X119394126Y-85215000D01*
X119013720Y-85372569D01*
X118722569Y-85663720D01*
X118565000Y-86044126D01*
X118565000Y-86090000D01*
X118444126Y-86090000D01*
X118063720Y-86247569D01*
X117772569Y-86538720D01*
X117615000Y-86919126D01*
X100203000Y-86919126D01*
X100203000Y-82169000D01*
X151765000Y-82169000D01*
X151765000Y-101727000D01*
X151765000Y-101727000D01*
G37*
X151765000Y-101727000D02*
X100203000Y-101727000D01*
X100203000Y-93619126D01*
X110415000Y-93619126D01*
X110415000Y-94030874D01*
X110572569Y-94411280D01*
X110863720Y-94702431D01*
X111244126Y-94860000D01*
X111655874Y-94860000D01*
X111984972Y-94723683D01*
X112013720Y-94752431D01*
X112394126Y-94910000D01*
X112805874Y-94910000D01*
X113186280Y-94752431D01*
X113477431Y-94461280D01*
X113635000Y-94080874D01*
X113635000Y-93669126D01*
X113477431Y-93288720D01*
X113186280Y-92997569D01*
X112805874Y-92840000D01*
X112394126Y-92840000D01*
X112065028Y-92976317D01*
X112036280Y-92947569D01*
X111655874Y-92790000D01*
X111244126Y-92790000D01*
X110863720Y-92947569D01*
X110572569Y-93238720D01*
X110415000Y-93619126D01*
X100203000Y-93619126D01*
X100203000Y-86919126D01*
X117615000Y-86919126D01*
X117615000Y-87330874D01*
X117772569Y-87711280D01*
X118063720Y-88002431D01*
X118444126Y-88160000D01*
X118855874Y-88160000D01*
X119008195Y-88096906D01*
X119213720Y-88302431D01*
X119594126Y-88460000D01*
X120005874Y-88460000D01*
X120386280Y-88302431D01*
X120677431Y-88011280D01*
X120835000Y-87630874D01*
X120835000Y-87219126D01*
X120677431Y-86838720D01*
X120535295Y-86696584D01*
X120635000Y-86455874D01*
X120635000Y-86219126D01*
X132990000Y-86219126D01*
X132990000Y-86630874D01*
X133147569Y-87011280D01*
X133223789Y-87087500D01*
X133147569Y-87163720D01*
X132990000Y-87544126D01*
X132990000Y-87955874D01*
X133147569Y-88336280D01*
X133211289Y-88400000D01*
X133147569Y-88463720D01*
X132990000Y-88844126D01*
X132990000Y-89255874D01*
X133147569Y-89636280D01*
X133438720Y-89927431D01*
X133819126Y-90085000D01*
X134230874Y-90085000D01*
X134611280Y-89927431D01*
X134725000Y-89813711D01*
X134838720Y-89927431D01*
X135219126Y-90085000D01*
X135630874Y-90085000D01*
X136011280Y-89927431D01*
X136100000Y-89838711D01*
X136188720Y-89927431D01*
X136569126Y-90085000D01*
X136980874Y-90085000D01*
X137361280Y-89927431D01*
X137652431Y-89636280D01*
X137810000Y-89255874D01*
X137810000Y-88844126D01*
X137652431Y-88463720D01*
X137551211Y-88362500D01*
X137677431Y-88236280D01*
X137834351Y-87857440D01*
X139534000Y-87857440D01*
X139781765Y-87808157D01*
X139991809Y-87667809D01*
X140132157Y-87457765D01*
X140181440Y-87210000D01*
X140181440Y-85510000D01*
X140132157Y-85262235D01*
X139991809Y-85052191D01*
X139781765Y-84911843D01*
X139534000Y-84862560D01*
X137834000Y-84862560D01*
X137586235Y-84911843D01*
X137376191Y-85052191D01*
X137235843Y-85262235D01*
X137204047Y-85422086D01*
X137005874Y-85340000D01*
X136594126Y-85340000D01*
X136213720Y-85497569D01*
X136100000Y-85611289D01*
X135986280Y-85497569D01*
X135605874Y-85340000D01*
X135194126Y-85340000D01*
X134813720Y-85497569D01*
X134687500Y-85623789D01*
X134611280Y-85547569D01*
X134230874Y-85390000D01*
X133819126Y-85390000D01*
X133438720Y-85547569D01*
X133147569Y-85838720D01*
X132990000Y-86219126D01*
X120635000Y-86219126D01*
X120635000Y-86044126D01*
X120477431Y-85663720D01*
X120186280Y-85372569D01*
X119805874Y-85215000D01*
X119394126Y-85215000D01*
X119013720Y-85372569D01*
X118722569Y-85663720D01*
X118565000Y-86044126D01*
X118565000Y-86090000D01*
X118444126Y-86090000D01*
X118063720Y-86247569D01*
X117772569Y-86538720D01*
X117615000Y-86919126D01*
X100203000Y-86919126D01*
X100203000Y-82169000D01*
X151765000Y-82169000D01*
X151765000Y-101727000D01*
G04 #@! TD*
M02*
