M48
;DRILL file {KiCad (5.0.1)-4} date 5/20/2019 12:51:34 PM
;FORMAT={2:4/ absolute / inch / suppress leading zeros}
FMAT,2
INCH,TZ
T1C0.0100
T2C0.0134
T3C0.0157
T4C0.0394
%
G90
G05
M72
T1
X42736Y-34843
X42756Y-35551
X42953Y-34843
X42982Y-35551
X43169Y-34843
X43219Y-35551
X43425Y-34843
X43445Y-35551
X43681Y-35551
X43917Y-35561
X44134Y-34833
X44134Y-35561
X44350Y-34833
X44360Y-35571
X44567Y-34843
X44626Y-35571
X44734Y-34951
X44764Y-35807
X44961Y-35994
X45787Y-35433
X46004Y-35522
X46250Y-35531
X46467Y-34882
X46476Y-35531
X46713Y-35531
X46752Y-34882
X46949Y-35531
X46988Y-34882
X47205Y-35531
X47244Y-34892
X47441Y-35531
X47717Y-35541
X47795Y-34882
X47963Y-35610
X48041Y-34803
X48199Y-35699
X48287Y-34685
X48514Y-34685
X48760Y-34685
X49026Y-34685
X50955Y-36988
X51112Y-38091
X51280Y-37037
X51378Y-38022
X51545Y-37087
X51644Y-37992
X51841Y-37126
X51929Y-37923
X52126Y-37156
X52185Y-37904
X52441Y-37972
X52520Y-37156
X52638Y-38140
X53799Y-37933
X53819Y-37136
X54065Y-37923
X54114Y-37136
X54331Y-37923
X54400Y-37136
X54596Y-37933
X54675Y-37136
X54872Y-37972
X54921Y-37136
X56063Y-37933
X56073Y-37156
X56378Y-37913
X56398Y-37165
X56693Y-37165
X56703Y-37923
T2
X52976Y-37079
X52976Y-38024
X53425Y-37079
X53425Y-38024
X55228Y-37075
X55228Y-38020
X55677Y-37075
X55677Y-38020
X48661Y-36374
X48661Y-36965
X49161Y-36374
X49161Y-36965
X49661Y-35783
X49661Y-36374
X49661Y-36965
X50161Y-35783
X50161Y-36374
X50661Y-35783
X50661Y-36374
T3
X40276Y-35246
X40276Y-36870
X40285Y-33524
X40778Y-36870
X40827Y-33533
X41191Y-34291
X41201Y-36122
X41309Y-36870
X41407Y-33533
X41880Y-36890
X41978Y-33553
X42402Y-36890
X42520Y-33553
X42874Y-36624
X42913Y-37549
X43770Y-36378
X43780Y-37490
X43819Y-34360
X45020Y-37234
X45226Y-34626
X45610Y-37234
X45689Y-34626
X45807Y-33642
X45837Y-39370
X45856Y-38366
X46201Y-33642
X46594Y-33642
X46703Y-37323
X46722Y-36378
X46742Y-38346
X46752Y-39380
X47431Y-37283
X47441Y-36339
X47441Y-38268
X47608Y-39370
X47717Y-34163
X47756Y-33041
X48671Y-38248
X48701Y-39370
X49183Y-38248
X49193Y-33041
X49636Y-38258
X49656Y-34498
X49724Y-39370
X50148Y-34498
X50167Y-38258
X50482Y-33051
X50610Y-38258
X50650Y-34498
X50915Y-39370
X51201Y-34488
X51358Y-34941
X51407Y-35512
X51427Y-36093
X51644Y-33022
X52195Y-36299
X52264Y-39419
X52766Y-34026
X52766Y-34547
X52766Y-35059
X52894Y-32982
X53258Y-35876
X53307Y-34006
X53307Y-34508
X53317Y-35059
X53829Y-39449
X53848Y-35059
X53858Y-34006
X53858Y-34508
X54045Y-32963
X54380Y-38514
X54577Y-35876
X55197Y-32933
X55315Y-39449
X55482Y-35876
X55866Y-35030
X56368Y-35039
X56388Y-34006
X56388Y-34528
X56427Y-32982
X56506Y-36063
X56535Y-36604
X56781Y-39183
X56880Y-35059
X56890Y-34547
X56900Y-34016
X56919Y-35846
X57254Y-39193
X57441Y-35866
X57795Y-39193
X57854Y-34459
X57874Y-33346
X57992Y-35856
X58110Y-36634
X58120Y-38455
X58287Y-39183
X58524Y-35856
X58740Y-39213
X59094Y-33327
X59094Y-37579
X59114Y-34862
X59114Y-35876
X59193Y-39193
X59567Y-35866
T4
X54600Y-34000
X55600Y-34000
T0
M30
