G04 #@! TF.GenerationSoftware,KiCad,Pcbnew,(5.0.1)-4*
G04 #@! TF.CreationDate,2019-05-20T12:51:24-07:00*
G04 #@! TF.ProjectId,Tripler_circuit,547269706C65725F636972637569742E,rev?*
G04 #@! TF.SameCoordinates,Original*
G04 #@! TF.FileFunction,Copper,L1,Top,Signal*
G04 #@! TF.FilePolarity,Positive*
%FSLAX46Y46*%
G04 Gerber Fmt 4.6, Leading zero omitted, Abs format (unit mm)*
G04 Created by KiCad (PCBNEW (5.0.1)-4) date 5/20/2019 12:51:24 PM*
%MOMM*%
%LPD*%
G01*
G04 APERTURE LIST*
G04 #@! TA.AperFunction,SMDPad,CuDef*
%ADD10R,1.520000X1.650000*%
G04 #@! TD*
G04 #@! TA.AperFunction,ViaPad*
%ADD11C,0.600000*%
G04 #@! TD*
G04 #@! TA.AperFunction,SMDPad,CuDef*
%ADD12R,1.900000X1.900000*%
G04 #@! TD*
G04 #@! TA.AperFunction,SMDPad,CuDef*
%ADD13R,1.500000X1.500000*%
G04 #@! TD*
G04 #@! TA.AperFunction,SMDPad,CuDef*
%ADD14R,0.990000X0.610000*%
G04 #@! TD*
G04 #@! TA.AperFunction,SMDPad,CuDef*
%ADD15R,1.750000X0.990000*%
G04 #@! TD*
G04 #@! TA.AperFunction,ComponentPad*
%ADD16C,0.600000*%
G04 #@! TD*
G04 #@! TA.AperFunction,Conductor*
%ADD17C,0.200000*%
G04 #@! TD*
G04 #@! TA.AperFunction,SMDPad,CuDef*
%ADD18C,0.590000*%
G04 #@! TD*
G04 #@! TA.AperFunction,SMDPad,CuDef*
%ADD19R,0.600000X0.500000*%
G04 #@! TD*
G04 #@! TA.AperFunction,SMDPad,CuDef*
%ADD20R,0.500000X0.600000*%
G04 #@! TD*
G04 #@! TA.AperFunction,SMDPad,CuDef*
%ADD21R,0.800000X0.750000*%
G04 #@! TD*
G04 #@! TA.AperFunction,SMDPad,CuDef*
%ADD22C,0.400000*%
G04 #@! TD*
G04 #@! TA.AperFunction,SMDPad,CuDef*
%ADD23R,0.900000X0.500000*%
G04 #@! TD*
G04 #@! TA.AperFunction,SMDPad,CuDef*
%ADD24R,0.350000X0.250000*%
G04 #@! TD*
G04 #@! TA.AperFunction,SMDPad,CuDef*
%ADD25R,0.600000X1.200000*%
G04 #@! TD*
G04 #@! TA.AperFunction,ComponentPad*
%ADD26R,1.700000X1.700000*%
G04 #@! TD*
G04 #@! TA.AperFunction,ComponentPad*
%ADD27O,1.700000X1.700000*%
G04 #@! TD*
G04 #@! TA.AperFunction,ViaPad*
%ADD28C,0.800000*%
G04 #@! TD*
G04 #@! TA.AperFunction,ViaPad*
%ADD29C,0.350000*%
G04 #@! TD*
G04 #@! TA.AperFunction,Conductor*
%ADD30C,0.250000*%
G04 #@! TD*
G04 #@! TA.AperFunction,Conductor*
%ADD31C,0.500000*%
G04 #@! TD*
G04 #@! TA.AperFunction,Conductor*
%ADD32C,0.254000*%
G04 #@! TD*
G04 APERTURE END LIST*
D10*
G04 #@! TO.P,U1,1*
G04 #@! TO.N,/Amp_out*
X123600000Y-89405000D03*
G04 #@! TO.P,U1,2*
G04 #@! TO.N,GND*
X126140000Y-89405000D03*
G04 #@! TO.P,U1,3*
X128680000Y-89405000D03*
G04 #@! TO.P,U1,4*
G04 #@! TO.N,Net-(U1-Pad4)*
X128680000Y-95375000D03*
G04 #@! TO.P,U1,5*
G04 #@! TO.N,GND*
X126140000Y-95375000D03*
G04 #@! TO.P,U1,6*
X123600000Y-95375000D03*
D11*
G04 #@! TD*
G04 #@! TO.N,GND*
G04 #@! TO.C,U1*
X126140000Y-90890000D03*
G04 #@! TO.N,GND*
G04 #@! TO.C,U1*
X127410000Y-90890000D03*
X128680000Y-90890000D03*
X128680000Y-92390000D03*
X127410000Y-92390000D03*
X126140000Y-92390000D03*
X124870000Y-92390000D03*
X123600000Y-92390000D03*
X123600000Y-93890000D03*
X124870000Y-93890000D03*
X126140000Y-93890000D03*
G04 #@! TD*
D12*
G04 #@! TO.P,CON1,2*
G04 #@! TO.N,GND*
X107105000Y-87015000D03*
X107105000Y-91765000D03*
X102355000Y-91765000D03*
X102355000Y-87015000D03*
D13*
G04 #@! TO.P,CON1,1*
G04 #@! TO.N,Net-(C1-Pad1)*
X104730000Y-89390000D03*
G04 #@! TD*
G04 #@! TO.P,CON2,1*
G04 #@! TO.N,Net-(CON2-Pad1)*
X147700000Y-95380000D03*
D12*
G04 #@! TO.P,CON2,2*
G04 #@! TO.N,GND*
X145325000Y-93005000D03*
X145325000Y-97755000D03*
X150075000Y-97755000D03*
X150075000Y-93005000D03*
G04 #@! TD*
D14*
G04 #@! TO.P,U3,1*
G04 #@! TO.N,Net-(U1-Pad4)*
X133315000Y-95380000D03*
D15*
G04 #@! TO.P,U3,2*
G04 #@! TO.N,GND*
X135130000Y-96395000D03*
D14*
G04 #@! TO.P,U3,3*
G04 #@! TO.N,Net-(U3-Pad3)*
X136945000Y-95380000D03*
D15*
G04 #@! TO.P,U3,4*
G04 #@! TO.N,GND*
X135130000Y-94365000D03*
D16*
G04 #@! TO.P,U3,2*
X134560000Y-96580000D03*
X135700000Y-96580000D03*
G04 #@! TO.P,U3,4*
X134560000Y-94180000D03*
X135700000Y-94180000D03*
G04 #@! TD*
G04 #@! TO.P,U5,4*
G04 #@! TO.N,GND*
X141420000Y-94170000D03*
X140280000Y-94170000D03*
G04 #@! TO.P,U5,2*
X141420000Y-96570000D03*
X140280000Y-96570000D03*
D15*
G04 #@! TO.P,U5,4*
X140850000Y-94355000D03*
D14*
G04 #@! TO.P,U5,3*
G04 #@! TO.N,Net-(CON2-Pad1)*
X142665000Y-95370000D03*
D15*
G04 #@! TO.P,U5,2*
G04 #@! TO.N,GND*
X140850000Y-96385000D03*
D14*
G04 #@! TO.P,U5,1*
G04 #@! TO.N,Net-(U3-Pad3)*
X139035000Y-95370000D03*
G04 #@! TD*
D17*
G04 #@! TO.N,+5V*
G04 #@! TO.C,L1*
G36*
X117336958Y-88145710D02*
X117351276Y-88147834D01*
X117365317Y-88151351D01*
X117378946Y-88156228D01*
X117392031Y-88162417D01*
X117404447Y-88169858D01*
X117416073Y-88178481D01*
X117426798Y-88188202D01*
X117436519Y-88198927D01*
X117445142Y-88210553D01*
X117452583Y-88222969D01*
X117458772Y-88236054D01*
X117463649Y-88249683D01*
X117467166Y-88263724D01*
X117469290Y-88278042D01*
X117470000Y-88292500D01*
X117470000Y-88587500D01*
X117469290Y-88601958D01*
X117467166Y-88616276D01*
X117463649Y-88630317D01*
X117458772Y-88643946D01*
X117452583Y-88657031D01*
X117445142Y-88669447D01*
X117436519Y-88681073D01*
X117426798Y-88691798D01*
X117416073Y-88701519D01*
X117404447Y-88710142D01*
X117392031Y-88717583D01*
X117378946Y-88723772D01*
X117365317Y-88728649D01*
X117351276Y-88732166D01*
X117336958Y-88734290D01*
X117322500Y-88735000D01*
X116977500Y-88735000D01*
X116963042Y-88734290D01*
X116948724Y-88732166D01*
X116934683Y-88728649D01*
X116921054Y-88723772D01*
X116907969Y-88717583D01*
X116895553Y-88710142D01*
X116883927Y-88701519D01*
X116873202Y-88691798D01*
X116863481Y-88681073D01*
X116854858Y-88669447D01*
X116847417Y-88657031D01*
X116841228Y-88643946D01*
X116836351Y-88630317D01*
X116832834Y-88616276D01*
X116830710Y-88601958D01*
X116830000Y-88587500D01*
X116830000Y-88292500D01*
X116830710Y-88278042D01*
X116832834Y-88263724D01*
X116836351Y-88249683D01*
X116841228Y-88236054D01*
X116847417Y-88222969D01*
X116854858Y-88210553D01*
X116863481Y-88198927D01*
X116873202Y-88188202D01*
X116883927Y-88178481D01*
X116895553Y-88169858D01*
X116907969Y-88162417D01*
X116921054Y-88156228D01*
X116934683Y-88151351D01*
X116948724Y-88147834D01*
X116963042Y-88145710D01*
X116977500Y-88145000D01*
X117322500Y-88145000D01*
X117336958Y-88145710D01*
X117336958Y-88145710D01*
G37*
D18*
G04 #@! TD*
G04 #@! TO.P,L1,1*
G04 #@! TO.N,+5V*
X117150000Y-88440000D03*
D17*
G04 #@! TO.N,Net-(C4-Pad2)*
G04 #@! TO.C,L1*
G36*
X117336958Y-89115710D02*
X117351276Y-89117834D01*
X117365317Y-89121351D01*
X117378946Y-89126228D01*
X117392031Y-89132417D01*
X117404447Y-89139858D01*
X117416073Y-89148481D01*
X117426798Y-89158202D01*
X117436519Y-89168927D01*
X117445142Y-89180553D01*
X117452583Y-89192969D01*
X117458772Y-89206054D01*
X117463649Y-89219683D01*
X117467166Y-89233724D01*
X117469290Y-89248042D01*
X117470000Y-89262500D01*
X117470000Y-89557500D01*
X117469290Y-89571958D01*
X117467166Y-89586276D01*
X117463649Y-89600317D01*
X117458772Y-89613946D01*
X117452583Y-89627031D01*
X117445142Y-89639447D01*
X117436519Y-89651073D01*
X117426798Y-89661798D01*
X117416073Y-89671519D01*
X117404447Y-89680142D01*
X117392031Y-89687583D01*
X117378946Y-89693772D01*
X117365317Y-89698649D01*
X117351276Y-89702166D01*
X117336958Y-89704290D01*
X117322500Y-89705000D01*
X116977500Y-89705000D01*
X116963042Y-89704290D01*
X116948724Y-89702166D01*
X116934683Y-89698649D01*
X116921054Y-89693772D01*
X116907969Y-89687583D01*
X116895553Y-89680142D01*
X116883927Y-89671519D01*
X116873202Y-89661798D01*
X116863481Y-89651073D01*
X116854858Y-89639447D01*
X116847417Y-89627031D01*
X116841228Y-89613946D01*
X116836351Y-89600317D01*
X116832834Y-89586276D01*
X116830710Y-89571958D01*
X116830000Y-89557500D01*
X116830000Y-89262500D01*
X116830710Y-89248042D01*
X116832834Y-89233724D01*
X116836351Y-89219683D01*
X116841228Y-89206054D01*
X116847417Y-89192969D01*
X116854858Y-89180553D01*
X116863481Y-89168927D01*
X116873202Y-89158202D01*
X116883927Y-89148481D01*
X116895553Y-89139858D01*
X116907969Y-89132417D01*
X116921054Y-89126228D01*
X116934683Y-89121351D01*
X116948724Y-89117834D01*
X116963042Y-89115710D01*
X116977500Y-89115000D01*
X117322500Y-89115000D01*
X117336958Y-89115710D01*
X117336958Y-89115710D01*
G37*
D18*
G04 #@! TD*
G04 #@! TO.P,L1,2*
G04 #@! TO.N,Net-(C4-Pad2)*
X117150000Y-89410000D03*
D19*
G04 #@! TO.P,C1,2*
G04 #@! TO.N,Net-(C1-Pad2)*
X110100000Y-89400000D03*
G04 #@! TO.P,C1,1*
G04 #@! TO.N,Net-(C1-Pad1)*
X109100000Y-89400000D03*
G04 #@! TD*
D20*
G04 #@! TO.P,C2,2*
G04 #@! TO.N,Net-(C1-Pad2)*
X111275000Y-89400000D03*
G04 #@! TO.P,C2,1*
G04 #@! TO.N,GND*
X111275000Y-88400000D03*
G04 #@! TD*
G04 #@! TO.P,C3,1*
G04 #@! TO.N,GND*
X114350000Y-92350000D03*
G04 #@! TO.P,C3,2*
G04 #@! TO.N,+5V*
X114350000Y-93350000D03*
G04 #@! TD*
D19*
G04 #@! TO.P,C4,1*
G04 #@! TO.N,/Amp_out*
X119600000Y-89400000D03*
G04 #@! TO.P,C4,2*
G04 #@! TO.N,Net-(C4-Pad2)*
X118600000Y-89400000D03*
G04 #@! TD*
D21*
G04 #@! TO.P,C5,2*
G04 #@! TO.N,+5V*
X116350000Y-86750000D03*
G04 #@! TO.P,C5,1*
G04 #@! TO.N,GND*
X114850000Y-86750000D03*
G04 #@! TD*
G04 #@! TO.P,C6,1*
G04 #@! TO.N,GND*
X119675000Y-86750000D03*
G04 #@! TO.P,C6,2*
G04 #@! TO.N,+5V*
X118175000Y-86750000D03*
G04 #@! TD*
D17*
G04 #@! TO.N,/Amp_out*
G04 #@! TO.C,C7*
G36*
X120784802Y-89165482D02*
X120794509Y-89166921D01*
X120804028Y-89169306D01*
X120813268Y-89172612D01*
X120822140Y-89176808D01*
X120830557Y-89181853D01*
X120838439Y-89187699D01*
X120845711Y-89194289D01*
X120852301Y-89201561D01*
X120858147Y-89209443D01*
X120863192Y-89217860D01*
X120867388Y-89226732D01*
X120870694Y-89235972D01*
X120873079Y-89245491D01*
X120874518Y-89255198D01*
X120875000Y-89265000D01*
X120875000Y-89525000D01*
X120874518Y-89534802D01*
X120873079Y-89544509D01*
X120870694Y-89554028D01*
X120867388Y-89563268D01*
X120863192Y-89572140D01*
X120858147Y-89580557D01*
X120852301Y-89588439D01*
X120845711Y-89595711D01*
X120838439Y-89602301D01*
X120830557Y-89608147D01*
X120822140Y-89613192D01*
X120813268Y-89617388D01*
X120804028Y-89620694D01*
X120794509Y-89623079D01*
X120784802Y-89624518D01*
X120775000Y-89625000D01*
X120575000Y-89625000D01*
X120565198Y-89624518D01*
X120555491Y-89623079D01*
X120545972Y-89620694D01*
X120536732Y-89617388D01*
X120527860Y-89613192D01*
X120519443Y-89608147D01*
X120511561Y-89602301D01*
X120504289Y-89595711D01*
X120497699Y-89588439D01*
X120491853Y-89580557D01*
X120486808Y-89572140D01*
X120482612Y-89563268D01*
X120479306Y-89554028D01*
X120476921Y-89544509D01*
X120475482Y-89534802D01*
X120475000Y-89525000D01*
X120475000Y-89265000D01*
X120475482Y-89255198D01*
X120476921Y-89245491D01*
X120479306Y-89235972D01*
X120482612Y-89226732D01*
X120486808Y-89217860D01*
X120491853Y-89209443D01*
X120497699Y-89201561D01*
X120504289Y-89194289D01*
X120511561Y-89187699D01*
X120519443Y-89181853D01*
X120527860Y-89176808D01*
X120536732Y-89172612D01*
X120545972Y-89169306D01*
X120555491Y-89166921D01*
X120565198Y-89165482D01*
X120575000Y-89165000D01*
X120775000Y-89165000D01*
X120784802Y-89165482D01*
X120784802Y-89165482D01*
G37*
D22*
G04 #@! TD*
G04 #@! TO.P,C7,1*
G04 #@! TO.N,/Amp_out*
X120675000Y-89395000D03*
D17*
G04 #@! TO.N,GND*
G04 #@! TO.C,C7*
G36*
X120784802Y-88525482D02*
X120794509Y-88526921D01*
X120804028Y-88529306D01*
X120813268Y-88532612D01*
X120822140Y-88536808D01*
X120830557Y-88541853D01*
X120838439Y-88547699D01*
X120845711Y-88554289D01*
X120852301Y-88561561D01*
X120858147Y-88569443D01*
X120863192Y-88577860D01*
X120867388Y-88586732D01*
X120870694Y-88595972D01*
X120873079Y-88605491D01*
X120874518Y-88615198D01*
X120875000Y-88625000D01*
X120875000Y-88885000D01*
X120874518Y-88894802D01*
X120873079Y-88904509D01*
X120870694Y-88914028D01*
X120867388Y-88923268D01*
X120863192Y-88932140D01*
X120858147Y-88940557D01*
X120852301Y-88948439D01*
X120845711Y-88955711D01*
X120838439Y-88962301D01*
X120830557Y-88968147D01*
X120822140Y-88973192D01*
X120813268Y-88977388D01*
X120804028Y-88980694D01*
X120794509Y-88983079D01*
X120784802Y-88984518D01*
X120775000Y-88985000D01*
X120575000Y-88985000D01*
X120565198Y-88984518D01*
X120555491Y-88983079D01*
X120545972Y-88980694D01*
X120536732Y-88977388D01*
X120527860Y-88973192D01*
X120519443Y-88968147D01*
X120511561Y-88962301D01*
X120504289Y-88955711D01*
X120497699Y-88948439D01*
X120491853Y-88940557D01*
X120486808Y-88932140D01*
X120482612Y-88923268D01*
X120479306Y-88914028D01*
X120476921Y-88904509D01*
X120475482Y-88894802D01*
X120475000Y-88885000D01*
X120475000Y-88625000D01*
X120475482Y-88615198D01*
X120476921Y-88605491D01*
X120479306Y-88595972D01*
X120482612Y-88586732D01*
X120486808Y-88577860D01*
X120491853Y-88569443D01*
X120497699Y-88561561D01*
X120504289Y-88554289D01*
X120511561Y-88547699D01*
X120519443Y-88541853D01*
X120527860Y-88536808D01*
X120536732Y-88532612D01*
X120545972Y-88529306D01*
X120555491Y-88526921D01*
X120565198Y-88525482D01*
X120575000Y-88525000D01*
X120775000Y-88525000D01*
X120784802Y-88525482D01*
X120784802Y-88525482D01*
G37*
D22*
G04 #@! TD*
G04 #@! TO.P,C7,2*
G04 #@! TO.N,GND*
X120675000Y-88755000D03*
D17*
G04 #@! TO.N,Net-(C1-Pad2)*
G04 #@! TO.C,L2*
G36*
X112494802Y-89200482D02*
X112504509Y-89201921D01*
X112514028Y-89204306D01*
X112523268Y-89207612D01*
X112532140Y-89211808D01*
X112540557Y-89216853D01*
X112548439Y-89222699D01*
X112555711Y-89229289D01*
X112562301Y-89236561D01*
X112568147Y-89244443D01*
X112573192Y-89252860D01*
X112577388Y-89261732D01*
X112580694Y-89270972D01*
X112583079Y-89280491D01*
X112584518Y-89290198D01*
X112585000Y-89300000D01*
X112585000Y-89500000D01*
X112584518Y-89509802D01*
X112583079Y-89519509D01*
X112580694Y-89529028D01*
X112577388Y-89538268D01*
X112573192Y-89547140D01*
X112568147Y-89555557D01*
X112562301Y-89563439D01*
X112555711Y-89570711D01*
X112548439Y-89577301D01*
X112540557Y-89583147D01*
X112532140Y-89588192D01*
X112523268Y-89592388D01*
X112514028Y-89595694D01*
X112504509Y-89598079D01*
X112494802Y-89599518D01*
X112485000Y-89600000D01*
X112225000Y-89600000D01*
X112215198Y-89599518D01*
X112205491Y-89598079D01*
X112195972Y-89595694D01*
X112186732Y-89592388D01*
X112177860Y-89588192D01*
X112169443Y-89583147D01*
X112161561Y-89577301D01*
X112154289Y-89570711D01*
X112147699Y-89563439D01*
X112141853Y-89555557D01*
X112136808Y-89547140D01*
X112132612Y-89538268D01*
X112129306Y-89529028D01*
X112126921Y-89519509D01*
X112125482Y-89509802D01*
X112125000Y-89500000D01*
X112125000Y-89300000D01*
X112125482Y-89290198D01*
X112126921Y-89280491D01*
X112129306Y-89270972D01*
X112132612Y-89261732D01*
X112136808Y-89252860D01*
X112141853Y-89244443D01*
X112147699Y-89236561D01*
X112154289Y-89229289D01*
X112161561Y-89222699D01*
X112169443Y-89216853D01*
X112177860Y-89211808D01*
X112186732Y-89207612D01*
X112195972Y-89204306D01*
X112205491Y-89201921D01*
X112215198Y-89200482D01*
X112225000Y-89200000D01*
X112485000Y-89200000D01*
X112494802Y-89200482D01*
X112494802Y-89200482D01*
G37*
D22*
G04 #@! TD*
G04 #@! TO.P,L2,1*
G04 #@! TO.N,Net-(C1-Pad2)*
X112355000Y-89400000D03*
D17*
G04 #@! TO.N,Net-(L2-Pad2)*
G04 #@! TO.C,L2*
G36*
X113134802Y-89200482D02*
X113144509Y-89201921D01*
X113154028Y-89204306D01*
X113163268Y-89207612D01*
X113172140Y-89211808D01*
X113180557Y-89216853D01*
X113188439Y-89222699D01*
X113195711Y-89229289D01*
X113202301Y-89236561D01*
X113208147Y-89244443D01*
X113213192Y-89252860D01*
X113217388Y-89261732D01*
X113220694Y-89270972D01*
X113223079Y-89280491D01*
X113224518Y-89290198D01*
X113225000Y-89300000D01*
X113225000Y-89500000D01*
X113224518Y-89509802D01*
X113223079Y-89519509D01*
X113220694Y-89529028D01*
X113217388Y-89538268D01*
X113213192Y-89547140D01*
X113208147Y-89555557D01*
X113202301Y-89563439D01*
X113195711Y-89570711D01*
X113188439Y-89577301D01*
X113180557Y-89583147D01*
X113172140Y-89588192D01*
X113163268Y-89592388D01*
X113154028Y-89595694D01*
X113144509Y-89598079D01*
X113134802Y-89599518D01*
X113125000Y-89600000D01*
X112865000Y-89600000D01*
X112855198Y-89599518D01*
X112845491Y-89598079D01*
X112835972Y-89595694D01*
X112826732Y-89592388D01*
X112817860Y-89588192D01*
X112809443Y-89583147D01*
X112801561Y-89577301D01*
X112794289Y-89570711D01*
X112787699Y-89563439D01*
X112781853Y-89555557D01*
X112776808Y-89547140D01*
X112772612Y-89538268D01*
X112769306Y-89529028D01*
X112766921Y-89519509D01*
X112765482Y-89509802D01*
X112765000Y-89500000D01*
X112765000Y-89300000D01*
X112765482Y-89290198D01*
X112766921Y-89280491D01*
X112769306Y-89270972D01*
X112772612Y-89261732D01*
X112776808Y-89252860D01*
X112781853Y-89244443D01*
X112787699Y-89236561D01*
X112794289Y-89229289D01*
X112801561Y-89222699D01*
X112809443Y-89216853D01*
X112817860Y-89211808D01*
X112826732Y-89207612D01*
X112835972Y-89204306D01*
X112845491Y-89201921D01*
X112855198Y-89200482D01*
X112865000Y-89200000D01*
X113125000Y-89200000D01*
X113134802Y-89200482D01*
X113134802Y-89200482D01*
G37*
D22*
G04 #@! TD*
G04 #@! TO.P,L2,2*
G04 #@! TO.N,Net-(L2-Pad2)*
X112995000Y-89400000D03*
D23*
G04 #@! TO.P,R3,2*
G04 #@! TO.N,Net-(R3-Pad2)*
X115825000Y-91850000D03*
G04 #@! TO.P,R3,1*
G04 #@! TO.N,+5V*
X115825000Y-93350000D03*
G04 #@! TD*
D24*
G04 #@! TO.P,U2,1*
G04 #@! TO.N,GND*
X114275000Y-88900000D03*
G04 #@! TO.P,U2,2*
G04 #@! TO.N,Net-(L2-Pad2)*
X114275000Y-89400000D03*
G04 #@! TO.P,U2,3*
G04 #@! TO.N,GND*
X114275000Y-89900000D03*
G04 #@! TO.P,U2,4*
X114275000Y-90400000D03*
G04 #@! TO.P,U2,5*
G04 #@! TO.N,Net-(R3-Pad2)*
X115625000Y-90400000D03*
G04 #@! TO.P,U2,6*
G04 #@! TO.N,GND*
X115625000Y-89900000D03*
G04 #@! TO.P,U2,7*
G04 #@! TO.N,Net-(C4-Pad2)*
X115625000Y-89400000D03*
G04 #@! TO.P,U2,8*
G04 #@! TO.N,GND*
X115625000Y-88900000D03*
D25*
G04 #@! TO.P,U2,9*
X114950000Y-89650000D03*
G04 #@! TD*
D26*
G04 #@! TO.P,J1,1*
G04 #@! TO.N,+5V*
X138684000Y-86360000D03*
D27*
G04 #@! TO.P,J1,2*
G04 #@! TO.N,GND*
X141224000Y-86360000D03*
G04 #@! TD*
D28*
G04 #@! TO.N,+5V*
X136800000Y-86375000D03*
X135400000Y-86375000D03*
X135400000Y-87650000D03*
X136800000Y-87650000D03*
X136775000Y-89050000D03*
X135425000Y-89050000D03*
X134025000Y-89050000D03*
X134025000Y-87750000D03*
X134025000Y-86425000D03*
X114350000Y-94575000D03*
X115850000Y-94575000D03*
X116350000Y-85450000D03*
X117350000Y-85450000D03*
X118350000Y-85450000D03*
G04 #@! TO.N,GND*
X147600000Y-93050000D03*
X150100000Y-95450000D03*
X147625000Y-97675000D03*
X123625000Y-97150000D03*
X126125000Y-87625000D03*
X102300000Y-89525000D03*
X104625000Y-87100000D03*
X104650000Y-91750000D03*
X141900000Y-88975000D03*
X143175000Y-89000000D03*
X144475000Y-89050000D03*
X144500000Y-87750000D03*
X143225000Y-87700000D03*
X143225000Y-86375000D03*
X144525000Y-86400000D03*
X111300000Y-87275000D03*
X114875000Y-87950000D03*
X116050000Y-87950000D03*
X127375000Y-87625000D03*
X128650000Y-87625000D03*
X130050000Y-87600000D03*
X124925000Y-97150000D03*
X130450000Y-88750000D03*
X130575000Y-90200000D03*
X130625000Y-91675000D03*
X126075000Y-97175000D03*
X127425000Y-97175000D03*
X128550000Y-97175000D03*
X102325000Y-85150000D03*
X103700000Y-85175000D03*
X105175000Y-85175000D03*
X106625000Y-85225000D03*
X108000000Y-85225000D03*
X102300000Y-93650000D03*
X103575000Y-93650000D03*
X104925000Y-93650000D03*
X106375000Y-93700000D03*
X107700000Y-93700000D03*
X108900000Y-93025000D03*
X143600000Y-92975000D03*
X143525000Y-91600000D03*
X144575000Y-91050000D03*
X145900000Y-91100000D03*
X147300000Y-91075000D03*
X148650000Y-91075000D03*
X150150000Y-91125000D03*
X151300000Y-91100000D03*
X149200000Y-99600000D03*
X144225000Y-99525000D03*
X148050000Y-99525000D03*
X146800000Y-99550000D03*
X150350000Y-99550000D03*
X145425000Y-99550000D03*
D29*
X108550000Y-88500000D03*
X109100000Y-88500000D03*
X109650000Y-88500000D03*
X110300000Y-88500000D03*
X112100000Y-88475000D03*
X112650000Y-88475000D03*
X113200000Y-88500000D03*
X113625000Y-88775000D03*
X108600000Y-90300000D03*
X109175000Y-90300000D03*
X109775000Y-90300000D03*
X110350000Y-90300000D03*
X110950000Y-90300000D03*
X111550000Y-90325000D03*
X112100000Y-90325000D03*
X112675000Y-90350000D03*
X113350000Y-90350000D03*
X113700000Y-90950000D03*
X114200000Y-91425000D03*
X116300000Y-90000000D03*
X116850000Y-90225000D03*
X117475000Y-90250000D03*
X118050000Y-90250000D03*
X118650000Y-90250000D03*
X119250000Y-90250000D03*
X119900000Y-90250000D03*
X120500000Y-90250000D03*
X121200000Y-90275000D03*
X121825000Y-90450000D03*
X122425000Y-90675000D03*
X120000000Y-88625000D03*
X119350000Y-88600000D03*
X118750000Y-88600000D03*
X118025000Y-88600000D03*
X121400000Y-88600000D03*
X122025000Y-88400000D03*
X122650000Y-88100000D03*
X123225000Y-88100000D03*
X123850000Y-88100000D03*
X124525000Y-88100000D03*
X129825000Y-96750000D03*
X130500000Y-96575000D03*
X131175000Y-96500000D03*
X131900000Y-96325000D03*
X132550000Y-96275000D03*
X133200000Y-96450000D03*
X133700000Y-96875000D03*
X133400000Y-94375000D03*
X132400000Y-94375000D03*
X131675000Y-94300000D03*
X130925000Y-94200000D03*
X130250000Y-94075000D03*
X129425000Y-93950000D03*
X136700000Y-94325000D03*
X137450000Y-94325000D03*
X138175000Y-94325000D03*
X138875000Y-94325000D03*
X139500000Y-94325000D03*
X136650000Y-96350000D03*
X137325000Y-96325000D03*
X138000000Y-96325000D03*
X138675000Y-96350000D03*
X139375000Y-96450000D03*
X142425000Y-94375000D03*
X143250000Y-94400000D03*
X144000000Y-94400000D03*
X142400000Y-96350000D03*
X143200000Y-96300000D03*
X144025000Y-96325000D03*
D28*
X111175000Y-92400000D03*
X111200000Y-95225000D03*
X109000000Y-95375000D03*
X120500000Y-97200000D03*
X120475000Y-94700000D03*
X120500000Y-92300000D03*
X118675000Y-92400000D03*
X118625000Y-94800000D03*
X118725000Y-97400000D03*
X116475000Y-97450000D03*
X116425000Y-100000000D03*
X118750000Y-100025000D03*
X120925000Y-100000000D03*
X123700000Y-100000000D03*
X126300000Y-100000000D03*
X129325000Y-100000000D03*
X132750000Y-100125000D03*
X136725000Y-100200000D03*
X138125000Y-97825000D03*
X140500000Y-100200000D03*
X132575000Y-92200000D03*
X135275000Y-91125000D03*
X138625000Y-91125000D03*
X140925000Y-91125000D03*
X150150000Y-88550000D03*
X150100000Y-84650000D03*
X147000000Y-84700000D03*
X146950000Y-87525000D03*
X143325000Y-83775000D03*
X140200000Y-83650000D03*
X137275000Y-83725000D03*
X134350000Y-83775000D03*
X131175000Y-83875000D03*
X128225000Y-83950000D03*
X124950000Y-83925000D03*
X121300000Y-83925000D03*
X121200000Y-86775000D03*
G04 #@! TD*
D30*
G04 #@! TO.N,Net-(C1-Pad1)*
X109270000Y-89390000D02*
X109280000Y-89400000D01*
D31*
X109090000Y-89390000D02*
X109100000Y-89400000D01*
X104730000Y-89390000D02*
X109090000Y-89390000D01*
G04 #@! TO.N,Net-(C1-Pad2)*
X110100000Y-89400000D02*
X111275000Y-89400000D01*
X112025000Y-89400000D02*
X112336990Y-89400000D01*
X111275000Y-89400000D02*
X112025000Y-89400000D01*
D30*
G04 #@! TO.N,+5V*
X135400000Y-86375000D02*
X135400000Y-87650000D01*
X136800000Y-87650000D02*
X136800000Y-89025000D01*
X136800000Y-89025000D02*
X136775000Y-89050000D01*
X135425000Y-89050000D02*
X134025000Y-89050000D01*
X134025000Y-87750000D02*
X134025000Y-86425000D01*
X114350000Y-93350000D02*
X114350000Y-94575000D01*
X115825000Y-93350000D02*
X115825000Y-94550000D01*
X115825000Y-94550000D02*
X115850000Y-94575000D01*
X114350000Y-94575000D02*
X115850000Y-94575000D01*
X117150000Y-87550000D02*
X116350000Y-86750000D01*
X117150000Y-88440000D02*
X117150000Y-87550000D01*
X117150000Y-87775000D02*
X118175000Y-86750000D01*
X117150000Y-88440000D02*
X117150000Y-87775000D01*
X116350000Y-86750000D02*
X118175000Y-86750000D01*
X116350000Y-86750000D02*
X116350000Y-85450000D01*
X117350000Y-85450000D02*
X118350000Y-85450000D01*
X118175000Y-85625000D02*
X118350000Y-85450000D01*
X118175000Y-86750000D02*
X118175000Y-85625000D01*
X136815000Y-86360000D02*
X136800000Y-86375000D01*
X138684000Y-86360000D02*
X136815000Y-86360000D01*
G04 #@! TO.N,GND*
X145325000Y-93005000D02*
X147555000Y-93005000D01*
X147555000Y-93005000D02*
X147600000Y-93050000D01*
X147645000Y-93005000D02*
X147600000Y-93050000D01*
X150075000Y-93005000D02*
X147645000Y-93005000D01*
X150075000Y-97755000D02*
X150075000Y-95475000D01*
X150075000Y-95475000D02*
X150100000Y-95450000D01*
X150075000Y-95425000D02*
X150100000Y-95450000D01*
X150075000Y-93005000D02*
X150075000Y-95425000D01*
X150075000Y-97755000D02*
X147705000Y-97755000D01*
X147705000Y-97755000D02*
X147625000Y-97675000D01*
X147545000Y-97755000D02*
X147625000Y-97675000D01*
X145325000Y-97755000D02*
X147545000Y-97755000D01*
X123600000Y-95375000D02*
X123600000Y-93890000D01*
X126140000Y-95375000D02*
X126140000Y-93890000D01*
X123600000Y-97125000D02*
X123625000Y-97150000D01*
X123600000Y-95375000D02*
X123600000Y-97125000D01*
X126140000Y-90890000D02*
X126140000Y-89405000D01*
X126140000Y-89405000D02*
X126140000Y-87640000D01*
X126140000Y-87640000D02*
X126125000Y-87625000D01*
X102355000Y-91765000D02*
X102355000Y-89580000D01*
X102355000Y-89580000D02*
X102300000Y-89525000D01*
X102355000Y-89470000D02*
X102300000Y-89525000D01*
X102355000Y-87015000D02*
X102355000Y-89470000D01*
X102355000Y-87015000D02*
X104540000Y-87015000D01*
X104540000Y-87015000D02*
X104625000Y-87100000D01*
X104710000Y-87015000D02*
X104625000Y-87100000D01*
X107105000Y-87015000D02*
X104710000Y-87015000D01*
X107105000Y-91765000D02*
X104665000Y-91765000D01*
X104665000Y-91765000D02*
X104650000Y-91750000D01*
X104635000Y-91765000D02*
X104650000Y-91750000D01*
X102355000Y-91765000D02*
X104635000Y-91765000D01*
X141900000Y-88975000D02*
X143150000Y-88975000D01*
X143150000Y-88975000D02*
X143175000Y-89000000D01*
X144475000Y-89050000D02*
X144475000Y-87775000D01*
X144475000Y-87775000D02*
X144500000Y-87750000D01*
X143225000Y-87700000D02*
X143225000Y-86375000D01*
X111275000Y-88400000D02*
X111275000Y-87300000D01*
X111275000Y-87300000D02*
X111300000Y-87275000D01*
X115625000Y-88375000D02*
X116050000Y-87950000D01*
X115625000Y-88900000D02*
X115625000Y-88375000D01*
X114950000Y-88025000D02*
X114875000Y-87950000D01*
X114950000Y-89650000D02*
X114950000Y-88025000D01*
X114850000Y-87925000D02*
X114875000Y-87950000D01*
X114850000Y-86750000D02*
X114850000Y-87925000D01*
X119675000Y-86750000D02*
X119675000Y-86925000D01*
X127375000Y-87625000D02*
X128650000Y-87625000D01*
X123625000Y-97150000D02*
X124925000Y-97150000D01*
X128680000Y-87655000D02*
X128650000Y-87625000D01*
X128680000Y-89405000D02*
X128680000Y-87655000D01*
X128680000Y-89405000D02*
X129795000Y-89405000D01*
X129795000Y-89405000D02*
X130450000Y-88750000D01*
X130575000Y-90200000D02*
X130575000Y-91625000D01*
X130575000Y-91625000D02*
X130625000Y-91675000D01*
X126075000Y-95440000D02*
X126140000Y-95375000D01*
X126075000Y-97175000D02*
X126075000Y-95440000D01*
X126075000Y-97175000D02*
X127425000Y-97175000D01*
X102355000Y-87015000D02*
X102355000Y-85180000D01*
X102355000Y-85180000D02*
X102325000Y-85150000D01*
X103700000Y-85175000D02*
X105175000Y-85175000D01*
X106625000Y-85225000D02*
X108000000Y-85225000D01*
X102355000Y-91765000D02*
X102355000Y-93595000D01*
X102355000Y-93595000D02*
X102300000Y-93650000D01*
X103575000Y-93650000D02*
X104925000Y-93650000D01*
X106375000Y-93700000D02*
X107700000Y-93700000D01*
X145325000Y-93005000D02*
X143630000Y-93005000D01*
X143630000Y-93005000D02*
X143600000Y-92975000D01*
X143525000Y-91600000D02*
X144025000Y-91600000D01*
X144025000Y-91600000D02*
X144575000Y-91050000D01*
X145900000Y-91100000D02*
X147275000Y-91100000D01*
X147275000Y-91100000D02*
X147300000Y-91075000D01*
X148650000Y-91075000D02*
X150100000Y-91075000D01*
X150100000Y-91075000D02*
X150150000Y-91125000D01*
X150075000Y-91200000D02*
X150150000Y-91125000D01*
X150075000Y-93005000D02*
X150075000Y-91200000D01*
X149200000Y-99600000D02*
X150300000Y-99600000D01*
X150300000Y-99600000D02*
X150350000Y-99550000D01*
X148025000Y-99550000D02*
X148050000Y-99525000D01*
X146800000Y-99550000D02*
X148025000Y-99550000D01*
X145400000Y-99525000D02*
X145425000Y-99550000D01*
X144225000Y-99525000D02*
X145400000Y-99525000D01*
X108550000Y-87260000D02*
X108550000Y-88500000D01*
X107105000Y-87015000D02*
X108305000Y-87015000D01*
X108305000Y-87015000D02*
X108550000Y-87260000D01*
X109100000Y-88500000D02*
X109650000Y-88500000D01*
X110400000Y-88400000D02*
X110300000Y-88500000D01*
X111275000Y-88400000D02*
X110400000Y-88400000D01*
X111275000Y-88400000D02*
X112025000Y-88400000D01*
X112025000Y-88400000D02*
X112100000Y-88475000D01*
X112650000Y-88475000D02*
X113175000Y-88475000D01*
X113175000Y-88475000D02*
X113200000Y-88500000D01*
X108600000Y-91470000D02*
X108600000Y-90300000D01*
X107105000Y-91765000D02*
X108305000Y-91765000D01*
X108305000Y-91765000D02*
X108600000Y-91470000D01*
X109175000Y-90300000D02*
X109775000Y-90300000D01*
X110350000Y-90300000D02*
X110950000Y-90300000D01*
X111550000Y-90325000D02*
X112100000Y-90325000D01*
X112675000Y-90350000D02*
X113350000Y-90350000D01*
X114350000Y-92350000D02*
X114350000Y-91575000D01*
X114350000Y-91575000D02*
X114200000Y-91425000D01*
X114275000Y-91350000D02*
X114200000Y-91425000D01*
X114275000Y-90400000D02*
X114275000Y-91350000D01*
X113800000Y-89900000D02*
X113350000Y-90350000D01*
X114275000Y-89900000D02*
X113800000Y-89900000D01*
X114275000Y-90400000D02*
X114275000Y-89900000D01*
X115625000Y-89900000D02*
X116200000Y-89900000D01*
X116200000Y-89900000D02*
X116300000Y-90000000D01*
X116850000Y-90225000D02*
X117450000Y-90225000D01*
X117450000Y-90225000D02*
X117475000Y-90250000D01*
X118050000Y-90250000D02*
X118650000Y-90250000D01*
X119250000Y-90250000D02*
X119900000Y-90250000D01*
X120500000Y-90250000D02*
X121175000Y-90250000D01*
X121175000Y-90250000D02*
X121200000Y-90275000D01*
X121825000Y-90450000D02*
X122200000Y-90450000D01*
X122200000Y-90450000D02*
X122425000Y-90675000D01*
X120675000Y-88755000D02*
X120130000Y-88755000D01*
X120130000Y-88755000D02*
X120000000Y-88625000D01*
X119350000Y-88600000D02*
X118750000Y-88600000D01*
X120675000Y-88755000D02*
X121245000Y-88755000D01*
X121245000Y-88755000D02*
X121400000Y-88600000D01*
X122025000Y-88400000D02*
X122350000Y-88400000D01*
X122350000Y-88400000D02*
X122650000Y-88100000D01*
X123225000Y-88100000D02*
X123850000Y-88100000D01*
X128550000Y-97175000D02*
X129400000Y-97175000D01*
X129400000Y-97175000D02*
X129825000Y-96750000D01*
X130500000Y-96575000D02*
X131100000Y-96575000D01*
X131100000Y-96575000D02*
X131175000Y-96500000D01*
X131900000Y-96325000D02*
X132500000Y-96325000D01*
X132500000Y-96325000D02*
X132550000Y-96275000D01*
X133200000Y-96450000D02*
X133275000Y-96450000D01*
X133275000Y-96450000D02*
X133700000Y-96875000D01*
X133400000Y-94375000D02*
X132400000Y-94375000D01*
X131675000Y-94300000D02*
X131025000Y-94300000D01*
X131025000Y-94300000D02*
X130925000Y-94200000D01*
X130250000Y-94075000D02*
X129550000Y-94075000D01*
X129550000Y-94075000D02*
X129425000Y-93950000D01*
X136700000Y-94325000D02*
X137450000Y-94325000D01*
X138175000Y-94325000D02*
X138875000Y-94325000D01*
X135130000Y-96395000D02*
X136605000Y-96395000D01*
X136605000Y-96395000D02*
X136650000Y-96350000D01*
X137325000Y-96325000D02*
X138000000Y-96325000D01*
X138675000Y-96350000D02*
X139275000Y-96350000D01*
X139275000Y-96350000D02*
X139375000Y-96450000D01*
X142425000Y-94375000D02*
X143225000Y-94375000D01*
X143225000Y-94375000D02*
X143250000Y-94400000D01*
X140850000Y-96385000D02*
X142365000Y-96385000D01*
X142365000Y-96385000D02*
X142400000Y-96350000D01*
X143200000Y-96300000D02*
X144000000Y-96300000D01*
X144000000Y-96300000D02*
X144025000Y-96325000D01*
X108900000Y-93025000D02*
X110550000Y-93025000D01*
X110550000Y-93025000D02*
X111175000Y-92400000D01*
X111200000Y-95225000D02*
X109150000Y-95225000D01*
X109150000Y-95225000D02*
X109000000Y-95375000D01*
X120500000Y-97200000D02*
X120500000Y-94725000D01*
X120500000Y-94725000D02*
X120475000Y-94700000D01*
X120500000Y-92300000D02*
X118775000Y-92300000D01*
X118775000Y-92300000D02*
X118675000Y-92400000D01*
X118625000Y-94800000D02*
X118625000Y-97300000D01*
X118625000Y-97300000D02*
X118725000Y-97400000D01*
X116475000Y-97450000D02*
X116475000Y-99950000D01*
X116475000Y-99950000D02*
X116425000Y-100000000D01*
X118750000Y-100025000D02*
X120900000Y-100025000D01*
X120900000Y-100025000D02*
X120925000Y-100000000D01*
X123700000Y-100000000D02*
X126300000Y-100000000D01*
X129325000Y-100000000D02*
X132625000Y-100000000D01*
X132625000Y-100000000D02*
X132750000Y-100125000D01*
X136725000Y-100200000D02*
X136725000Y-99225000D01*
X136725000Y-99225000D02*
X138125000Y-97825000D01*
X143550000Y-100200000D02*
X144225000Y-99525000D01*
X140500000Y-100200000D02*
X143550000Y-100200000D01*
X130625000Y-91675000D02*
X132050000Y-91675000D01*
X132050000Y-91675000D02*
X132575000Y-92200000D01*
X135275000Y-91125000D02*
X138625000Y-91125000D01*
X148650000Y-91075000D02*
X148650000Y-90050000D01*
X148650000Y-90050000D02*
X150150000Y-88550000D01*
X150100000Y-84650000D02*
X147050000Y-84650000D01*
X147050000Y-84650000D02*
X147000000Y-84700000D01*
X146950000Y-84750000D02*
X147000000Y-84700000D01*
X146950000Y-87525000D02*
X146950000Y-84750000D01*
X147000000Y-84700000D02*
X144250000Y-84700000D01*
X144250000Y-84700000D02*
X143325000Y-83775000D01*
X140200000Y-83650000D02*
X137350000Y-83650000D01*
X137350000Y-83650000D02*
X137275000Y-83725000D01*
X134350000Y-83775000D02*
X131275000Y-83775000D01*
X131275000Y-83775000D02*
X131175000Y-83875000D01*
X128225000Y-83950000D02*
X124975000Y-83950000D01*
X124975000Y-83950000D02*
X124950000Y-83925000D01*
X121300000Y-83925000D02*
X121300000Y-86675000D01*
X121300000Y-86675000D02*
X121200000Y-86775000D01*
X121175000Y-86750000D02*
X121200000Y-86775000D01*
X119675000Y-86750000D02*
X121175000Y-86750000D01*
X141239000Y-86375000D02*
X141224000Y-86360000D01*
X143225000Y-86375000D02*
X141239000Y-86375000D01*
D31*
G04 #@! TO.N,Net-(CON2-Pad1)*
X142675000Y-95380000D02*
X142665000Y-95370000D01*
X147700000Y-95380000D02*
X142675000Y-95380000D01*
G04 #@! TO.N,Net-(U1-Pad4)*
X133310000Y-95375000D02*
X133315000Y-95380000D01*
X128680000Y-95375000D02*
X133310000Y-95375000D01*
G04 #@! TO.N,Net-(U3-Pad3)*
X136955000Y-95370000D02*
X136945000Y-95380000D01*
X139035000Y-95370000D02*
X136955000Y-95370000D01*
D30*
G04 #@! TO.N,/Amp_out*
X123595000Y-89410000D02*
X123600000Y-89405000D01*
X123595000Y-89400000D02*
X123600000Y-89405000D01*
X120670000Y-89400000D02*
X120675000Y-89395000D01*
X123590000Y-89395000D02*
X123600000Y-89405000D01*
D31*
X119600000Y-89400000D02*
X120400000Y-89400000D01*
X120993712Y-89413010D02*
X120675000Y-89413010D01*
X121001722Y-89405000D02*
X120993712Y-89413010D01*
X123600000Y-89405000D02*
X121001722Y-89405000D01*
D30*
X120991722Y-89395000D02*
X120675000Y-89395000D01*
X121001722Y-89405000D02*
X120991722Y-89395000D01*
X120405000Y-89395000D02*
X120400000Y-89400000D01*
X120675000Y-89395000D02*
X120405000Y-89395000D01*
G04 #@! TO.N,Net-(C4-Pad2)*
X117235000Y-89400000D02*
X117250000Y-89415000D01*
X118585000Y-89415000D02*
X118600000Y-89400000D01*
X117140000Y-89400000D02*
X117150000Y-89410000D01*
X115625000Y-89400000D02*
X117140000Y-89400000D01*
D31*
X118590000Y-89410000D02*
X118600000Y-89400000D01*
X117150000Y-89410000D02*
X118590000Y-89410000D01*
D30*
G04 #@! TO.N,Net-(L2-Pad2)*
X114275000Y-89400000D02*
X112995000Y-89400000D01*
G04 #@! TO.N,Net-(R3-Pad2)*
X115625000Y-91650000D02*
X115825000Y-91850000D01*
X115625000Y-90400000D02*
X115625000Y-91650000D01*
G04 #@! TD*
D32*
G04 #@! TO.N,GND*
G36*
X151765000Y-101727000D02*
X100203000Y-101727000D01*
X100203000Y-94083024D01*
X113495106Y-94083024D01*
X113520106Y-95033024D01*
X113542108Y-95139004D01*
X113607269Y-95238584D01*
X113705578Y-95305648D01*
X113822067Y-95329986D01*
X116422067Y-95354986D01*
X116527134Y-95337391D01*
X116629339Y-95276430D01*
X116700436Y-95180997D01*
X116729600Y-95065620D01*
X116756042Y-94550000D01*
X127609025Y-94550000D01*
X127609025Y-96200000D01*
X127632697Y-96319005D01*
X127700107Y-96419893D01*
X127800995Y-96487303D01*
X127920000Y-96510975D01*
X129440000Y-96510975D01*
X129545074Y-96490074D01*
X132787203Y-95989451D01*
X132820000Y-95995975D01*
X133810000Y-95995975D01*
X133929005Y-95972303D01*
X134029893Y-95904893D01*
X134097303Y-95804005D01*
X134120975Y-95685000D01*
X134120975Y-95075000D01*
X136139025Y-95075000D01*
X136139025Y-95685000D01*
X136162697Y-95804005D01*
X136230107Y-95904893D01*
X136330995Y-95972303D01*
X136450000Y-95995975D01*
X137440000Y-95995975D01*
X137520310Y-95980000D01*
X138509962Y-95980000D01*
X138540000Y-95985975D01*
X139530000Y-95985975D01*
X139649005Y-95962303D01*
X139749893Y-95894893D01*
X139817303Y-95794005D01*
X139840975Y-95675000D01*
X139840975Y-95065000D01*
X141859025Y-95065000D01*
X141859025Y-95675000D01*
X141882697Y-95794005D01*
X141950107Y-95894893D01*
X142050995Y-95962303D01*
X142170000Y-95985975D01*
X143160000Y-95985975D01*
X143168380Y-95984308D01*
X146840136Y-96419121D01*
X146950000Y-96440975D01*
X148450000Y-96440975D01*
X148569005Y-96417303D01*
X148669893Y-96349893D01*
X148737303Y-96249005D01*
X148760975Y-96130000D01*
X148760975Y-94630000D01*
X148737303Y-94510995D01*
X148669893Y-94410107D01*
X148569005Y-94342697D01*
X148450000Y-94319025D01*
X146950000Y-94319025D01*
X146830995Y-94342697D01*
X146801508Y-94362399D01*
X143201888Y-94762357D01*
X143160000Y-94754025D01*
X142170000Y-94754025D01*
X142050995Y-94777697D01*
X141950107Y-94845107D01*
X141882697Y-94945995D01*
X141859025Y-95065000D01*
X139840975Y-95065000D01*
X139817303Y-94945995D01*
X139749893Y-94845107D01*
X139649005Y-94777697D01*
X139530000Y-94754025D01*
X138540000Y-94754025D01*
X138459690Y-94770000D01*
X137470038Y-94770000D01*
X137440000Y-94764025D01*
X136450000Y-94764025D01*
X136330995Y-94787697D01*
X136230107Y-94855107D01*
X136162697Y-94955995D01*
X136139025Y-95075000D01*
X134120975Y-95075000D01*
X134097303Y-94955995D01*
X134029893Y-94855107D01*
X133929005Y-94787697D01*
X133810000Y-94764025D01*
X132834262Y-94764025D01*
X129543255Y-94259564D01*
X129440000Y-94239025D01*
X127920000Y-94239025D01*
X127800995Y-94262697D01*
X127700107Y-94330107D01*
X127632697Y-94430995D01*
X127609025Y-94550000D01*
X116756042Y-94550000D01*
X116779600Y-94090620D01*
X116756783Y-93958282D01*
X116690668Y-93859332D01*
X116591718Y-93793217D01*
X116521985Y-93779346D01*
X116562303Y-93719005D01*
X116585975Y-93600000D01*
X116585975Y-93100000D01*
X116562303Y-92980995D01*
X116494893Y-92880107D01*
X116394005Y-92812697D01*
X116275000Y-92789025D01*
X115375000Y-92789025D01*
X115255995Y-92812697D01*
X115155107Y-92880107D01*
X115087697Y-92980995D01*
X115064025Y-93100000D01*
X115064025Y-93600000D01*
X115087697Y-93719005D01*
X115121770Y-93770000D01*
X114886638Y-93770000D01*
X114887303Y-93769005D01*
X114910975Y-93650000D01*
X114910975Y-93050000D01*
X114887303Y-92930995D01*
X114819893Y-92830107D01*
X114719005Y-92762697D01*
X114600000Y-92739025D01*
X114100000Y-92739025D01*
X113980995Y-92762697D01*
X113880107Y-92830107D01*
X113812697Y-92930995D01*
X113789025Y-93050000D01*
X113789025Y-93650000D01*
X113812697Y-93769005D01*
X113813362Y-93770000D01*
X113800000Y-93770000D01*
X113675909Y-93796385D01*
X113578734Y-93865081D01*
X113515244Y-93965735D01*
X113495106Y-94083024D01*
X100203000Y-94083024D01*
X100203000Y-91600000D01*
X115064025Y-91600000D01*
X115064025Y-92100000D01*
X115087697Y-92219005D01*
X115155107Y-92319893D01*
X115255995Y-92387303D01*
X115375000Y-92410975D01*
X116275000Y-92410975D01*
X116394005Y-92387303D01*
X116494893Y-92319893D01*
X116562303Y-92219005D01*
X116585975Y-92100000D01*
X116585975Y-91600000D01*
X116562303Y-91480995D01*
X116494893Y-91380107D01*
X116394005Y-91312697D01*
X116275000Y-91289025D01*
X116055000Y-91289025D01*
X116055000Y-90692351D01*
X116087303Y-90644005D01*
X116110975Y-90525000D01*
X116110975Y-90275000D01*
X116087303Y-90155995D01*
X116019893Y-90055107D01*
X115919005Y-89987697D01*
X115800000Y-89964025D01*
X115637312Y-89964025D01*
X115625000Y-89961576D01*
X115612688Y-89964025D01*
X115450000Y-89964025D01*
X115330995Y-89987697D01*
X115230107Y-90055107D01*
X115162697Y-90155995D01*
X115139025Y-90275000D01*
X115139025Y-90525000D01*
X115162697Y-90644005D01*
X115195000Y-90692351D01*
X115195001Y-91353451D01*
X115155107Y-91380107D01*
X115087697Y-91480995D01*
X115064025Y-91600000D01*
X100203000Y-91600000D01*
X100203000Y-88640000D01*
X103669025Y-88640000D01*
X103669025Y-90140000D01*
X103692697Y-90259005D01*
X103760107Y-90359893D01*
X103860995Y-90427303D01*
X103980000Y-90450975D01*
X105480000Y-90450975D01*
X105599005Y-90427303D01*
X105621698Y-90412140D01*
X108791580Y-89959300D01*
X108800000Y-89960975D01*
X109075376Y-89960975D01*
X109099999Y-89965873D01*
X109124622Y-89960975D01*
X109400000Y-89960975D01*
X109519005Y-89937303D01*
X109600000Y-89883185D01*
X109680995Y-89937303D01*
X109800000Y-89960975D01*
X110400000Y-89960975D01*
X110430038Y-89955000D01*
X110857649Y-89955000D01*
X110905995Y-89987303D01*
X111025000Y-90010975D01*
X111525000Y-90010975D01*
X111644005Y-89987303D01*
X111692351Y-89955000D01*
X112391652Y-89955000D01*
X112553540Y-89922798D01*
X112607789Y-89886550D01*
X112642273Y-89879691D01*
X112675000Y-89857824D01*
X112707727Y-89879691D01*
X112865000Y-89910975D01*
X113125000Y-89910975D01*
X113156325Y-89904744D01*
X113174649Y-89904002D01*
X114074994Y-89831001D01*
X114100000Y-89835975D01*
X114450000Y-89835975D01*
X114569005Y-89812303D01*
X114669893Y-89744893D01*
X114737303Y-89644005D01*
X114760975Y-89525000D01*
X114760975Y-89275000D01*
X115139025Y-89275000D01*
X115139025Y-89525000D01*
X115162697Y-89644005D01*
X115230107Y-89744893D01*
X115330995Y-89812303D01*
X115450000Y-89835975D01*
X115800000Y-89835975D01*
X115806507Y-89834681D01*
X116878119Y-90001376D01*
X116920624Y-90004662D01*
X116977500Y-90015975D01*
X117322500Y-90015975D01*
X117497951Y-89981076D01*
X117522010Y-89965000D01*
X118535340Y-89965000D01*
X118590000Y-89975873D01*
X118644660Y-89965000D01*
X118644662Y-89965000D01*
X118664897Y-89960975D01*
X118900000Y-89960975D01*
X119019005Y-89937303D01*
X119100000Y-89883185D01*
X119180995Y-89937303D01*
X119300000Y-89960975D01*
X119900000Y-89960975D01*
X119930038Y-89955000D01*
X120454662Y-89955000D01*
X120504798Y-89945027D01*
X120620338Y-89968010D01*
X120744389Y-89968010D01*
X120788229Y-89974273D01*
X122675399Y-90486837D01*
X122720995Y-90517303D01*
X122840000Y-90540975D01*
X124360000Y-90540975D01*
X124479005Y-90517303D01*
X124579893Y-90449893D01*
X124647303Y-90349005D01*
X124670975Y-90230000D01*
X124670975Y-88580000D01*
X124647303Y-88460995D01*
X124579893Y-88360107D01*
X124479005Y-88292697D01*
X124360000Y-88269025D01*
X122840000Y-88269025D01*
X122720995Y-88292697D01*
X122632567Y-88351782D01*
X120849764Y-88858010D01*
X120795034Y-88858010D01*
X120775000Y-88854025D01*
X120575000Y-88854025D01*
X120537517Y-88861481D01*
X120454662Y-88845000D01*
X119930038Y-88845000D01*
X119900000Y-88839025D01*
X119300000Y-88839025D01*
X119180995Y-88862697D01*
X119100000Y-88916815D01*
X119019005Y-88862697D01*
X118900000Y-88839025D01*
X118624622Y-88839025D01*
X118599999Y-88834127D01*
X118575376Y-88839025D01*
X118300000Y-88839025D01*
X118219690Y-88855000D01*
X117684571Y-88855000D01*
X117746076Y-88762951D01*
X117780975Y-88587500D01*
X117780975Y-88292500D01*
X117746076Y-88117049D01*
X117646691Y-87968309D01*
X117597602Y-87935509D01*
X118097136Y-87435975D01*
X118575000Y-87435975D01*
X118694005Y-87412303D01*
X118794893Y-87344893D01*
X118862303Y-87244005D01*
X118885975Y-87125000D01*
X118885975Y-86375000D01*
X118881484Y-86352424D01*
X119045272Y-86354963D01*
X119179393Y-86326193D01*
X119275238Y-86255652D01*
X119336793Y-86153803D01*
X119354685Y-86036151D01*
X119341679Y-85750000D01*
X133195000Y-85750000D01*
X133195000Y-89500000D01*
X133218217Y-89616718D01*
X133284332Y-89715668D01*
X133383282Y-89781783D01*
X133500000Y-89805000D01*
X137250000Y-89805000D01*
X137366718Y-89781783D01*
X137465668Y-89715668D01*
X137531783Y-89616718D01*
X137555000Y-89500000D01*
X137555000Y-87341432D01*
X137614107Y-87429893D01*
X137714995Y-87497303D01*
X137834000Y-87520975D01*
X139534000Y-87520975D01*
X139653005Y-87497303D01*
X139753893Y-87429893D01*
X139821303Y-87329005D01*
X139844975Y-87210000D01*
X139844975Y-85510000D01*
X139821303Y-85390995D01*
X139753893Y-85290107D01*
X139653005Y-85222697D01*
X139534000Y-85199025D01*
X137834000Y-85199025D01*
X137714995Y-85222697D01*
X137614107Y-85290107D01*
X137546697Y-85390995D01*
X137523025Y-85510000D01*
X137523025Y-85620174D01*
X137465668Y-85534332D01*
X137366718Y-85468217D01*
X137250000Y-85445000D01*
X133500000Y-85445000D01*
X133383282Y-85468217D01*
X133284332Y-85534332D01*
X133218217Y-85633282D01*
X133195000Y-85750000D01*
X119341679Y-85750000D01*
X119304685Y-84936151D01*
X119282686Y-84835486D01*
X119217346Y-84736024D01*
X119118916Y-84669137D01*
X119002383Y-84645009D01*
X115802383Y-84620009D01*
X115676762Y-84646007D01*
X115579377Y-84714405D01*
X115515579Y-84814864D01*
X115495082Y-84932091D01*
X115520082Y-86007091D01*
X115541441Y-86112336D01*
X115606015Y-86212298D01*
X115664772Y-86252890D01*
X115662697Y-86255995D01*
X115639025Y-86375000D01*
X115639025Y-87125000D01*
X115662697Y-87244005D01*
X115730107Y-87344893D01*
X115830995Y-87412303D01*
X115950000Y-87435975D01*
X116427865Y-87435975D01*
X116720001Y-87728112D01*
X116720001Y-87732646D01*
X116711576Y-87775000D01*
X116720001Y-87817354D01*
X116720001Y-87923747D01*
X116653309Y-87968309D01*
X116553924Y-88117049D01*
X116519025Y-88292500D01*
X116519025Y-88587500D01*
X116553924Y-88762951D01*
X116619152Y-88860571D01*
X115810298Y-88966073D01*
X115800000Y-88964025D01*
X115450000Y-88964025D01*
X115330995Y-88987697D01*
X115230107Y-89055107D01*
X115162697Y-89155995D01*
X115139025Y-89275000D01*
X114760975Y-89275000D01*
X114737303Y-89155995D01*
X114669893Y-89055107D01*
X114569005Y-88987697D01*
X114450000Y-88964025D01*
X114100000Y-88964025D01*
X114074994Y-88968999D01*
X113174649Y-88895998D01*
X113156325Y-88895256D01*
X113125000Y-88889025D01*
X112865000Y-88889025D01*
X112707727Y-88920309D01*
X112675000Y-88942176D01*
X112642273Y-88920309D01*
X112607789Y-88913450D01*
X112553540Y-88877202D01*
X112391652Y-88845000D01*
X111692351Y-88845000D01*
X111644005Y-88812697D01*
X111525000Y-88789025D01*
X111025000Y-88789025D01*
X110905995Y-88812697D01*
X110857649Y-88845000D01*
X110430038Y-88845000D01*
X110400000Y-88839025D01*
X109800000Y-88839025D01*
X109680995Y-88862697D01*
X109600000Y-88916815D01*
X109519005Y-88862697D01*
X109400000Y-88839025D01*
X109164897Y-88839025D01*
X109144662Y-88835000D01*
X109144660Y-88835000D01*
X109090000Y-88824127D01*
X109035340Y-88835000D01*
X108780639Y-88835000D01*
X105613328Y-88362267D01*
X105599005Y-88352697D01*
X105480000Y-88329025D01*
X103980000Y-88329025D01*
X103860995Y-88352697D01*
X103760107Y-88420107D01*
X103692697Y-88520995D01*
X103669025Y-88640000D01*
X100203000Y-88640000D01*
X100203000Y-82169000D01*
X151765000Y-82169000D01*
X151765000Y-101727000D01*
X151765000Y-101727000D01*
G37*
X151765000Y-101727000D02*
X100203000Y-101727000D01*
X100203000Y-94083024D01*
X113495106Y-94083024D01*
X113520106Y-95033024D01*
X113542108Y-95139004D01*
X113607269Y-95238584D01*
X113705578Y-95305648D01*
X113822067Y-95329986D01*
X116422067Y-95354986D01*
X116527134Y-95337391D01*
X116629339Y-95276430D01*
X116700436Y-95180997D01*
X116729600Y-95065620D01*
X116756042Y-94550000D01*
X127609025Y-94550000D01*
X127609025Y-96200000D01*
X127632697Y-96319005D01*
X127700107Y-96419893D01*
X127800995Y-96487303D01*
X127920000Y-96510975D01*
X129440000Y-96510975D01*
X129545074Y-96490074D01*
X132787203Y-95989451D01*
X132820000Y-95995975D01*
X133810000Y-95995975D01*
X133929005Y-95972303D01*
X134029893Y-95904893D01*
X134097303Y-95804005D01*
X134120975Y-95685000D01*
X134120975Y-95075000D01*
X136139025Y-95075000D01*
X136139025Y-95685000D01*
X136162697Y-95804005D01*
X136230107Y-95904893D01*
X136330995Y-95972303D01*
X136450000Y-95995975D01*
X137440000Y-95995975D01*
X137520310Y-95980000D01*
X138509962Y-95980000D01*
X138540000Y-95985975D01*
X139530000Y-95985975D01*
X139649005Y-95962303D01*
X139749893Y-95894893D01*
X139817303Y-95794005D01*
X139840975Y-95675000D01*
X139840975Y-95065000D01*
X141859025Y-95065000D01*
X141859025Y-95675000D01*
X141882697Y-95794005D01*
X141950107Y-95894893D01*
X142050995Y-95962303D01*
X142170000Y-95985975D01*
X143160000Y-95985975D01*
X143168380Y-95984308D01*
X146840136Y-96419121D01*
X146950000Y-96440975D01*
X148450000Y-96440975D01*
X148569005Y-96417303D01*
X148669893Y-96349893D01*
X148737303Y-96249005D01*
X148760975Y-96130000D01*
X148760975Y-94630000D01*
X148737303Y-94510995D01*
X148669893Y-94410107D01*
X148569005Y-94342697D01*
X148450000Y-94319025D01*
X146950000Y-94319025D01*
X146830995Y-94342697D01*
X146801508Y-94362399D01*
X143201888Y-94762357D01*
X143160000Y-94754025D01*
X142170000Y-94754025D01*
X142050995Y-94777697D01*
X141950107Y-94845107D01*
X141882697Y-94945995D01*
X141859025Y-95065000D01*
X139840975Y-95065000D01*
X139817303Y-94945995D01*
X139749893Y-94845107D01*
X139649005Y-94777697D01*
X139530000Y-94754025D01*
X138540000Y-94754025D01*
X138459690Y-94770000D01*
X137470038Y-94770000D01*
X137440000Y-94764025D01*
X136450000Y-94764025D01*
X136330995Y-94787697D01*
X136230107Y-94855107D01*
X136162697Y-94955995D01*
X136139025Y-95075000D01*
X134120975Y-95075000D01*
X134097303Y-94955995D01*
X134029893Y-94855107D01*
X133929005Y-94787697D01*
X133810000Y-94764025D01*
X132834262Y-94764025D01*
X129543255Y-94259564D01*
X129440000Y-94239025D01*
X127920000Y-94239025D01*
X127800995Y-94262697D01*
X127700107Y-94330107D01*
X127632697Y-94430995D01*
X127609025Y-94550000D01*
X116756042Y-94550000D01*
X116779600Y-94090620D01*
X116756783Y-93958282D01*
X116690668Y-93859332D01*
X116591718Y-93793217D01*
X116521985Y-93779346D01*
X116562303Y-93719005D01*
X116585975Y-93600000D01*
X116585975Y-93100000D01*
X116562303Y-92980995D01*
X116494893Y-92880107D01*
X116394005Y-92812697D01*
X116275000Y-92789025D01*
X115375000Y-92789025D01*
X115255995Y-92812697D01*
X115155107Y-92880107D01*
X115087697Y-92980995D01*
X115064025Y-93100000D01*
X115064025Y-93600000D01*
X115087697Y-93719005D01*
X115121770Y-93770000D01*
X114886638Y-93770000D01*
X114887303Y-93769005D01*
X114910975Y-93650000D01*
X114910975Y-93050000D01*
X114887303Y-92930995D01*
X114819893Y-92830107D01*
X114719005Y-92762697D01*
X114600000Y-92739025D01*
X114100000Y-92739025D01*
X113980995Y-92762697D01*
X113880107Y-92830107D01*
X113812697Y-92930995D01*
X113789025Y-93050000D01*
X113789025Y-93650000D01*
X113812697Y-93769005D01*
X113813362Y-93770000D01*
X113800000Y-93770000D01*
X113675909Y-93796385D01*
X113578734Y-93865081D01*
X113515244Y-93965735D01*
X113495106Y-94083024D01*
X100203000Y-94083024D01*
X100203000Y-91600000D01*
X115064025Y-91600000D01*
X115064025Y-92100000D01*
X115087697Y-92219005D01*
X115155107Y-92319893D01*
X115255995Y-92387303D01*
X115375000Y-92410975D01*
X116275000Y-92410975D01*
X116394005Y-92387303D01*
X116494893Y-92319893D01*
X116562303Y-92219005D01*
X116585975Y-92100000D01*
X116585975Y-91600000D01*
X116562303Y-91480995D01*
X116494893Y-91380107D01*
X116394005Y-91312697D01*
X116275000Y-91289025D01*
X116055000Y-91289025D01*
X116055000Y-90692351D01*
X116087303Y-90644005D01*
X116110975Y-90525000D01*
X116110975Y-90275000D01*
X116087303Y-90155995D01*
X116019893Y-90055107D01*
X115919005Y-89987697D01*
X115800000Y-89964025D01*
X115637312Y-89964025D01*
X115625000Y-89961576D01*
X115612688Y-89964025D01*
X115450000Y-89964025D01*
X115330995Y-89987697D01*
X115230107Y-90055107D01*
X115162697Y-90155995D01*
X115139025Y-90275000D01*
X115139025Y-90525000D01*
X115162697Y-90644005D01*
X115195000Y-90692351D01*
X115195001Y-91353451D01*
X115155107Y-91380107D01*
X115087697Y-91480995D01*
X115064025Y-91600000D01*
X100203000Y-91600000D01*
X100203000Y-88640000D01*
X103669025Y-88640000D01*
X103669025Y-90140000D01*
X103692697Y-90259005D01*
X103760107Y-90359893D01*
X103860995Y-90427303D01*
X103980000Y-90450975D01*
X105480000Y-90450975D01*
X105599005Y-90427303D01*
X105621698Y-90412140D01*
X108791580Y-89959300D01*
X108800000Y-89960975D01*
X109075376Y-89960975D01*
X109099999Y-89965873D01*
X109124622Y-89960975D01*
X109400000Y-89960975D01*
X109519005Y-89937303D01*
X109600000Y-89883185D01*
X109680995Y-89937303D01*
X109800000Y-89960975D01*
X110400000Y-89960975D01*
X110430038Y-89955000D01*
X110857649Y-89955000D01*
X110905995Y-89987303D01*
X111025000Y-90010975D01*
X111525000Y-90010975D01*
X111644005Y-89987303D01*
X111692351Y-89955000D01*
X112391652Y-89955000D01*
X112553540Y-89922798D01*
X112607789Y-89886550D01*
X112642273Y-89879691D01*
X112675000Y-89857824D01*
X112707727Y-89879691D01*
X112865000Y-89910975D01*
X113125000Y-89910975D01*
X113156325Y-89904744D01*
X113174649Y-89904002D01*
X114074994Y-89831001D01*
X114100000Y-89835975D01*
X114450000Y-89835975D01*
X114569005Y-89812303D01*
X114669893Y-89744893D01*
X114737303Y-89644005D01*
X114760975Y-89525000D01*
X114760975Y-89275000D01*
X115139025Y-89275000D01*
X115139025Y-89525000D01*
X115162697Y-89644005D01*
X115230107Y-89744893D01*
X115330995Y-89812303D01*
X115450000Y-89835975D01*
X115800000Y-89835975D01*
X115806507Y-89834681D01*
X116878119Y-90001376D01*
X116920624Y-90004662D01*
X116977500Y-90015975D01*
X117322500Y-90015975D01*
X117497951Y-89981076D01*
X117522010Y-89965000D01*
X118535340Y-89965000D01*
X118590000Y-89975873D01*
X118644660Y-89965000D01*
X118644662Y-89965000D01*
X118664897Y-89960975D01*
X118900000Y-89960975D01*
X119019005Y-89937303D01*
X119100000Y-89883185D01*
X119180995Y-89937303D01*
X119300000Y-89960975D01*
X119900000Y-89960975D01*
X119930038Y-89955000D01*
X120454662Y-89955000D01*
X120504798Y-89945027D01*
X120620338Y-89968010D01*
X120744389Y-89968010D01*
X120788229Y-89974273D01*
X122675399Y-90486837D01*
X122720995Y-90517303D01*
X122840000Y-90540975D01*
X124360000Y-90540975D01*
X124479005Y-90517303D01*
X124579893Y-90449893D01*
X124647303Y-90349005D01*
X124670975Y-90230000D01*
X124670975Y-88580000D01*
X124647303Y-88460995D01*
X124579893Y-88360107D01*
X124479005Y-88292697D01*
X124360000Y-88269025D01*
X122840000Y-88269025D01*
X122720995Y-88292697D01*
X122632567Y-88351782D01*
X120849764Y-88858010D01*
X120795034Y-88858010D01*
X120775000Y-88854025D01*
X120575000Y-88854025D01*
X120537517Y-88861481D01*
X120454662Y-88845000D01*
X119930038Y-88845000D01*
X119900000Y-88839025D01*
X119300000Y-88839025D01*
X119180995Y-88862697D01*
X119100000Y-88916815D01*
X119019005Y-88862697D01*
X118900000Y-88839025D01*
X118624622Y-88839025D01*
X118599999Y-88834127D01*
X118575376Y-88839025D01*
X118300000Y-88839025D01*
X118219690Y-88855000D01*
X117684571Y-88855000D01*
X117746076Y-88762951D01*
X117780975Y-88587500D01*
X117780975Y-88292500D01*
X117746076Y-88117049D01*
X117646691Y-87968309D01*
X117597602Y-87935509D01*
X118097136Y-87435975D01*
X118575000Y-87435975D01*
X118694005Y-87412303D01*
X118794893Y-87344893D01*
X118862303Y-87244005D01*
X118885975Y-87125000D01*
X118885975Y-86375000D01*
X118881484Y-86352424D01*
X119045272Y-86354963D01*
X119179393Y-86326193D01*
X119275238Y-86255652D01*
X119336793Y-86153803D01*
X119354685Y-86036151D01*
X119341679Y-85750000D01*
X133195000Y-85750000D01*
X133195000Y-89500000D01*
X133218217Y-89616718D01*
X133284332Y-89715668D01*
X133383282Y-89781783D01*
X133500000Y-89805000D01*
X137250000Y-89805000D01*
X137366718Y-89781783D01*
X137465668Y-89715668D01*
X137531783Y-89616718D01*
X137555000Y-89500000D01*
X137555000Y-87341432D01*
X137614107Y-87429893D01*
X137714995Y-87497303D01*
X137834000Y-87520975D01*
X139534000Y-87520975D01*
X139653005Y-87497303D01*
X139753893Y-87429893D01*
X139821303Y-87329005D01*
X139844975Y-87210000D01*
X139844975Y-85510000D01*
X139821303Y-85390995D01*
X139753893Y-85290107D01*
X139653005Y-85222697D01*
X139534000Y-85199025D01*
X137834000Y-85199025D01*
X137714995Y-85222697D01*
X137614107Y-85290107D01*
X137546697Y-85390995D01*
X137523025Y-85510000D01*
X137523025Y-85620174D01*
X137465668Y-85534332D01*
X137366718Y-85468217D01*
X137250000Y-85445000D01*
X133500000Y-85445000D01*
X133383282Y-85468217D01*
X133284332Y-85534332D01*
X133218217Y-85633282D01*
X133195000Y-85750000D01*
X119341679Y-85750000D01*
X119304685Y-84936151D01*
X119282686Y-84835486D01*
X119217346Y-84736024D01*
X119118916Y-84669137D01*
X119002383Y-84645009D01*
X115802383Y-84620009D01*
X115676762Y-84646007D01*
X115579377Y-84714405D01*
X115515579Y-84814864D01*
X115495082Y-84932091D01*
X115520082Y-86007091D01*
X115541441Y-86112336D01*
X115606015Y-86212298D01*
X115664772Y-86252890D01*
X115662697Y-86255995D01*
X115639025Y-86375000D01*
X115639025Y-87125000D01*
X115662697Y-87244005D01*
X115730107Y-87344893D01*
X115830995Y-87412303D01*
X115950000Y-87435975D01*
X116427865Y-87435975D01*
X116720001Y-87728112D01*
X116720001Y-87732646D01*
X116711576Y-87775000D01*
X116720001Y-87817354D01*
X116720001Y-87923747D01*
X116653309Y-87968309D01*
X116553924Y-88117049D01*
X116519025Y-88292500D01*
X116519025Y-88587500D01*
X116553924Y-88762951D01*
X116619152Y-88860571D01*
X115810298Y-88966073D01*
X115800000Y-88964025D01*
X115450000Y-88964025D01*
X115330995Y-88987697D01*
X115230107Y-89055107D01*
X115162697Y-89155995D01*
X115139025Y-89275000D01*
X114760975Y-89275000D01*
X114737303Y-89155995D01*
X114669893Y-89055107D01*
X114569005Y-88987697D01*
X114450000Y-88964025D01*
X114100000Y-88964025D01*
X114074994Y-88968999D01*
X113174649Y-88895998D01*
X113156325Y-88895256D01*
X113125000Y-88889025D01*
X112865000Y-88889025D01*
X112707727Y-88920309D01*
X112675000Y-88942176D01*
X112642273Y-88920309D01*
X112607789Y-88913450D01*
X112553540Y-88877202D01*
X112391652Y-88845000D01*
X111692351Y-88845000D01*
X111644005Y-88812697D01*
X111525000Y-88789025D01*
X111025000Y-88789025D01*
X110905995Y-88812697D01*
X110857649Y-88845000D01*
X110430038Y-88845000D01*
X110400000Y-88839025D01*
X109800000Y-88839025D01*
X109680995Y-88862697D01*
X109600000Y-88916815D01*
X109519005Y-88862697D01*
X109400000Y-88839025D01*
X109164897Y-88839025D01*
X109144662Y-88835000D01*
X109144660Y-88835000D01*
X109090000Y-88824127D01*
X109035340Y-88835000D01*
X108780639Y-88835000D01*
X105613328Y-88362267D01*
X105599005Y-88352697D01*
X105480000Y-88329025D01*
X103980000Y-88329025D01*
X103860995Y-88352697D01*
X103760107Y-88420107D01*
X103692697Y-88520995D01*
X103669025Y-88640000D01*
X100203000Y-88640000D01*
X100203000Y-82169000D01*
X151765000Y-82169000D01*
X151765000Y-101727000D01*
G04 #@! TO.N,Net-(U1-Pad4)*
G36*
X132830758Y-95200534D02*
X132850000Y-95202000D01*
X133198000Y-95202000D01*
X133198000Y-95548000D01*
X132825000Y-95548000D01*
X132805619Y-95549487D01*
X129415249Y-96073000D01*
X128802000Y-96073000D01*
X128802000Y-94697838D01*
X129417431Y-94677323D01*
X132830758Y-95200534D01*
X132830758Y-95200534D01*
G37*
X132830758Y-95200534D02*
X132850000Y-95202000D01*
X133198000Y-95202000D01*
X133198000Y-95548000D01*
X132825000Y-95548000D01*
X132805619Y-95549487D01*
X129415249Y-96073000D01*
X128802000Y-96073000D01*
X128802000Y-94697838D01*
X129417431Y-94677323D01*
X132830758Y-95200534D01*
G04 #@! TO.N,Net-(U3-Pad3)*
G36*
X138798000Y-95548000D02*
X137152000Y-95548000D01*
X137152000Y-95202000D01*
X138798000Y-95202000D01*
X138798000Y-95548000D01*
X138798000Y-95548000D01*
G37*
X138798000Y-95548000D02*
X137152000Y-95548000D01*
X137152000Y-95202000D01*
X138798000Y-95202000D01*
X138798000Y-95548000D01*
G04 #@! TO.N,Net-(CON2-Pad1)*
G36*
X147598000Y-95891842D02*
X146947304Y-95996793D01*
X143164935Y-95548881D01*
X143150000Y-95548000D01*
X142782402Y-95548000D01*
X142796819Y-95202000D01*
X143150000Y-95202000D01*
X143164025Y-95201223D01*
X146982032Y-94777000D01*
X147598000Y-94777000D01*
X147598000Y-95891842D01*
X147598000Y-95891842D01*
G37*
X147598000Y-95891842D02*
X146947304Y-95996793D01*
X143164935Y-95548881D01*
X143150000Y-95548000D01*
X142782402Y-95548000D01*
X142796819Y-95202000D01*
X143150000Y-95202000D01*
X143164025Y-95201223D01*
X146982032Y-94777000D01*
X147598000Y-94777000D01*
X147598000Y-95891842D01*
G04 #@! TO.N,+5V*
G36*
X137123000Y-89373000D02*
X133627000Y-89373000D01*
X133627000Y-85877000D01*
X137123000Y-85877000D01*
X137123000Y-89373000D01*
X137123000Y-89373000D01*
G37*
X137123000Y-89373000D02*
X133627000Y-89373000D01*
X133627000Y-85877000D01*
X137123000Y-85877000D01*
X137123000Y-89373000D01*
G04 #@! TO.N,Net-(C1-Pad1)*
G36*
X108806252Y-89275609D02*
X108825000Y-89277000D01*
X108998000Y-89277000D01*
X108998000Y-89507394D01*
X108790260Y-89523374D01*
X108782039Y-89524276D01*
X105465971Y-89998000D01*
X104831378Y-89998000D01*
X104872768Y-88777000D01*
X105465572Y-88777000D01*
X108806252Y-89275609D01*
X108806252Y-89275609D01*
G37*
X108806252Y-89275609D02*
X108825000Y-89277000D01*
X108998000Y-89277000D01*
X108998000Y-89507394D01*
X108790260Y-89523374D01*
X108782039Y-89524276D01*
X105465971Y-89998000D01*
X104831378Y-89998000D01*
X104872768Y-88777000D01*
X105465572Y-88777000D01*
X108806252Y-89275609D01*
G04 #@! TO.N,Net-(L2-Pad2)*
G36*
X114045188Y-89400000D02*
X113144854Y-89473000D01*
X113110186Y-89473000D01*
X113119311Y-89327000D01*
X113144854Y-89327000D01*
X114045188Y-89400000D01*
X114045188Y-89400000D01*
G37*
X114045188Y-89400000D02*
X113144854Y-89473000D01*
X113110186Y-89473000D01*
X113119311Y-89327000D01*
X113144854Y-89327000D01*
X114045188Y-89400000D01*
G04 #@! TO.N,Net-(C4-Pad2)*
G36*
X117123000Y-89573000D02*
X116934820Y-89573000D01*
X115823089Y-89400064D01*
X116958246Y-89252000D01*
X117123000Y-89252000D01*
X117123000Y-89573000D01*
X117123000Y-89573000D01*
G37*
X117123000Y-89573000D02*
X116934820Y-89573000D01*
X115823089Y-89400064D01*
X116958246Y-89252000D01*
X117123000Y-89252000D01*
X117123000Y-89573000D01*
G04 #@! TO.N,+5V*
G36*
X118878599Y-85076055D02*
X118917002Y-85920922D01*
X115949126Y-85874909D01*
X115930012Y-85053019D01*
X118878599Y-85076055D01*
X118878599Y-85076055D01*
G37*
X118878599Y-85076055D02*
X118917002Y-85920922D01*
X115949126Y-85874909D01*
X115930012Y-85053019D01*
X118878599Y-85076055D01*
G36*
X116304406Y-94921835D02*
X113948733Y-94899184D01*
X113930386Y-94202000D01*
X116341321Y-94202000D01*
X116304406Y-94921835D01*
X116304406Y-94921835D01*
G37*
X116304406Y-94921835D02*
X113948733Y-94899184D01*
X113930386Y-94202000D01*
X116341321Y-94202000D01*
X116304406Y-94921835D01*
G04 #@! TO.N,/Amp_out*
G36*
X123598000Y-90076680D02*
X122890103Y-90097501D01*
X120883288Y-89552440D01*
X120867961Y-89549276D01*
X120802000Y-89539853D01*
X120802000Y-89302000D01*
X120850000Y-89302000D01*
X120884690Y-89297170D01*
X121261884Y-89190066D01*
X121287350Y-89185000D01*
X121412778Y-89160051D01*
X121446175Y-89137736D01*
X122892680Y-88727000D01*
X123598000Y-88727000D01*
X123598000Y-90076680D01*
X123598000Y-90076680D01*
G37*
X123598000Y-90076680D02*
X122890103Y-90097501D01*
X120883288Y-89552440D01*
X120867961Y-89549276D01*
X120802000Y-89539853D01*
X120802000Y-89302000D01*
X120850000Y-89302000D01*
X120884690Y-89297170D01*
X121261884Y-89190066D01*
X121287350Y-89185000D01*
X121412778Y-89160051D01*
X121446175Y-89137736D01*
X122892680Y-88727000D01*
X123598000Y-88727000D01*
X123598000Y-90076680D01*
G04 #@! TD*
M02*
