G04 #@! TF.GenerationSoftware,KiCad,Pcbnew,(5.0.1)-4*
G04 #@! TF.CreationDate,2019-05-20T12:51:24-07:00*
G04 #@! TF.ProjectId,Tripler_circuit,547269706C65725F636972637569742E,rev?*
G04 #@! TF.SameCoordinates,Original*
G04 #@! TF.FileFunction,Copper,L2,Inr,Plane*
G04 #@! TF.FilePolarity,Positive*
%FSLAX46Y46*%
G04 Gerber Fmt 4.6, Leading zero omitted, Abs format (unit mm)*
G04 Created by KiCad (PCBNEW (5.0.1)-4) date 5/20/2019 12:51:24 PM*
%MOMM*%
%LPD*%
G01*
G04 APERTURE LIST*
G04 #@! TA.AperFunction,ViaPad*
%ADD10C,0.600000*%
G04 #@! TD*
G04 #@! TA.AperFunction,ViaPad*
%ADD11R,1.700000X1.700000*%
G04 #@! TD*
G04 #@! TA.AperFunction,ViaPad*
%ADD12O,1.700000X1.700000*%
G04 #@! TD*
G04 #@! TA.AperFunction,ViaPad*
%ADD13C,0.800000*%
G04 #@! TD*
G04 #@! TA.AperFunction,ViaPad*
%ADD14C,0.350000*%
G04 #@! TD*
G04 #@! TA.AperFunction,Conductor*
%ADD15C,0.254000*%
G04 #@! TD*
G04 APERTURE END LIST*
D10*
G04 #@! TO.N,GND*
G04 #@! TO.C,U1*
X126140000Y-90890000D03*
X127410000Y-90890000D03*
X128680000Y-90890000D03*
X128680000Y-92390000D03*
X127410000Y-92390000D03*
X126140000Y-92390000D03*
X124870000Y-92390000D03*
X123600000Y-92390000D03*
X123600000Y-93890000D03*
X124870000Y-93890000D03*
X126140000Y-93890000D03*
G04 #@! TD*
G04 #@! TO.N,GND*
G04 #@! TO.C,U3*
X134560000Y-96580000D03*
X135700000Y-96580000D03*
X134560000Y-94180000D03*
X135700000Y-94180000D03*
G04 #@! TD*
G04 #@! TO.N,GND*
G04 #@! TO.C,U5*
X141420000Y-94170000D03*
X140280000Y-94170000D03*
X141420000Y-96570000D03*
X140280000Y-96570000D03*
G04 #@! TD*
D11*
G04 #@! TO.N,+5V*
G04 #@! TO.C,J1*
X138684000Y-86360000D03*
D12*
G04 #@! TO.N,GND*
X141224000Y-86360000D03*
G04 #@! TD*
D13*
G04 #@! TO.N,+5V*
X136800000Y-86375000D03*
X135400000Y-86375000D03*
X135400000Y-87650000D03*
X136800000Y-87650000D03*
X136775000Y-89050000D03*
X135425000Y-89050000D03*
X134025000Y-89050000D03*
X134025000Y-87750000D03*
X134025000Y-86425000D03*
X114350000Y-94575000D03*
X115850000Y-94575000D03*
X116350000Y-85450000D03*
X117350000Y-85450000D03*
X118350000Y-85450000D03*
G04 #@! TO.N,GND*
X147600000Y-93050000D03*
X150100000Y-95450000D03*
X147625000Y-97675000D03*
X123625000Y-97150000D03*
X126125000Y-87625000D03*
X102300000Y-89525000D03*
X104625000Y-87100000D03*
X104650000Y-91750000D03*
X141900000Y-88975000D03*
X143175000Y-89000000D03*
X144475000Y-89050000D03*
X144500000Y-87750000D03*
X143225000Y-87700000D03*
X143225000Y-86375000D03*
X144525000Y-86400000D03*
X111300000Y-87275000D03*
X114875000Y-87950000D03*
X116050000Y-87950000D03*
X127375000Y-87625000D03*
X128650000Y-87625000D03*
X130050000Y-87600000D03*
X124925000Y-97150000D03*
X130450000Y-88750000D03*
X130575000Y-90200000D03*
X130625000Y-91675000D03*
X126075000Y-97175000D03*
X127425000Y-97175000D03*
X128550000Y-97175000D03*
X102325000Y-85150000D03*
X103700000Y-85175000D03*
X105175000Y-85175000D03*
X106625000Y-85225000D03*
X108000000Y-85225000D03*
X102300000Y-93650000D03*
X103575000Y-93650000D03*
X104925000Y-93650000D03*
X106375000Y-93700000D03*
X107700000Y-93700000D03*
X108900000Y-93025000D03*
X143600000Y-92975000D03*
X143525000Y-91600000D03*
X144575000Y-91050000D03*
X145900000Y-91100000D03*
X147300000Y-91075000D03*
X148650000Y-91075000D03*
X150150000Y-91125000D03*
X151300000Y-91100000D03*
X149200000Y-99600000D03*
X144225000Y-99525000D03*
X148050000Y-99525000D03*
X146800000Y-99550000D03*
X150350000Y-99550000D03*
X145425000Y-99550000D03*
D14*
X108550000Y-88500000D03*
X109100000Y-88500000D03*
X109650000Y-88500000D03*
X110300000Y-88500000D03*
X112100000Y-88475000D03*
X112650000Y-88475000D03*
X113200000Y-88500000D03*
X113625000Y-88775000D03*
X108600000Y-90300000D03*
X109175000Y-90300000D03*
X109775000Y-90300000D03*
X110350000Y-90300000D03*
X110950000Y-90300000D03*
X111550000Y-90325000D03*
X112100000Y-90325000D03*
X112675000Y-90350000D03*
X113350000Y-90350000D03*
X113700000Y-90950000D03*
X114200000Y-91425000D03*
X116300000Y-90000000D03*
X116850000Y-90225000D03*
X117475000Y-90250000D03*
X118050000Y-90250000D03*
X118650000Y-90250000D03*
X119250000Y-90250000D03*
X119900000Y-90250000D03*
X120500000Y-90250000D03*
X121200000Y-90275000D03*
X121825000Y-90450000D03*
X122425000Y-90675000D03*
X120000000Y-88625000D03*
X119350000Y-88600000D03*
X118750000Y-88600000D03*
X118025000Y-88600000D03*
X121400000Y-88600000D03*
X122025000Y-88400000D03*
X122650000Y-88100000D03*
X123225000Y-88100000D03*
X123850000Y-88100000D03*
X124525000Y-88100000D03*
X129825000Y-96750000D03*
X130500000Y-96575000D03*
X131175000Y-96500000D03*
X131900000Y-96325000D03*
X132550000Y-96275000D03*
X133200000Y-96450000D03*
X133700000Y-96875000D03*
X133400000Y-94375000D03*
X132400000Y-94375000D03*
X131675000Y-94300000D03*
X130925000Y-94200000D03*
X130250000Y-94075000D03*
X129425000Y-93950000D03*
X136700000Y-94325000D03*
X137450000Y-94325000D03*
X138175000Y-94325000D03*
X138875000Y-94325000D03*
X139500000Y-94325000D03*
X136650000Y-96350000D03*
X137325000Y-96325000D03*
X138000000Y-96325000D03*
X138675000Y-96350000D03*
X139375000Y-96450000D03*
X142425000Y-94375000D03*
X143250000Y-94400000D03*
X144000000Y-94400000D03*
X142400000Y-96350000D03*
X143200000Y-96300000D03*
X144025000Y-96325000D03*
D13*
X111175000Y-92400000D03*
X111200000Y-95225000D03*
X109000000Y-95375000D03*
X120500000Y-97200000D03*
X120475000Y-94700000D03*
X120500000Y-92300000D03*
X118675000Y-92400000D03*
X118625000Y-94800000D03*
X118725000Y-97400000D03*
X116475000Y-97450000D03*
X116425000Y-100000000D03*
X118750000Y-100025000D03*
X120925000Y-100000000D03*
X123700000Y-100000000D03*
X126300000Y-100000000D03*
X129325000Y-100000000D03*
X132750000Y-100125000D03*
X136725000Y-100200000D03*
X138125000Y-97825000D03*
X140500000Y-100200000D03*
X132575000Y-92200000D03*
X135275000Y-91125000D03*
X138625000Y-91125000D03*
X140925000Y-91125000D03*
X150150000Y-88550000D03*
X150100000Y-84650000D03*
X147000000Y-84700000D03*
X146950000Y-87525000D03*
X143325000Y-83775000D03*
X140200000Y-83650000D03*
X137275000Y-83725000D03*
X134350000Y-83775000D03*
X131175000Y-83875000D03*
X128225000Y-83950000D03*
X124950000Y-83925000D03*
X121300000Y-83925000D03*
X121200000Y-86775000D03*
G04 #@! TD*
D15*
G04 #@! TO.N,GND*
G36*
X151765000Y-101727000D02*
X100203000Y-101727000D01*
X100203000Y-94369126D01*
X113315000Y-94369126D01*
X113315000Y-94780874D01*
X113472569Y-95161280D01*
X113763720Y-95452431D01*
X114144126Y-95610000D01*
X114555874Y-95610000D01*
X114936280Y-95452431D01*
X115100000Y-95288711D01*
X115263720Y-95452431D01*
X115644126Y-95610000D01*
X116055874Y-95610000D01*
X116436280Y-95452431D01*
X116727431Y-95161280D01*
X116885000Y-94780874D01*
X116885000Y-94369126D01*
X116727431Y-93988720D01*
X116436280Y-93697569D01*
X116055874Y-93540000D01*
X115644126Y-93540000D01*
X115263720Y-93697569D01*
X115100000Y-93861289D01*
X114936280Y-93697569D01*
X114555874Y-93540000D01*
X114144126Y-93540000D01*
X113763720Y-93697569D01*
X113472569Y-93988720D01*
X113315000Y-94369126D01*
X100203000Y-94369126D01*
X100203000Y-85244126D01*
X115315000Y-85244126D01*
X115315000Y-85655874D01*
X115472569Y-86036280D01*
X115763720Y-86327431D01*
X116144126Y-86485000D01*
X116555874Y-86485000D01*
X116850000Y-86363169D01*
X117144126Y-86485000D01*
X117555874Y-86485000D01*
X117850000Y-86363169D01*
X118144126Y-86485000D01*
X118555874Y-86485000D01*
X118936280Y-86327431D01*
X119044585Y-86219126D01*
X132990000Y-86219126D01*
X132990000Y-86630874D01*
X133147569Y-87011280D01*
X133223789Y-87087500D01*
X133147569Y-87163720D01*
X132990000Y-87544126D01*
X132990000Y-87955874D01*
X133147569Y-88336280D01*
X133211289Y-88400000D01*
X133147569Y-88463720D01*
X132990000Y-88844126D01*
X132990000Y-89255874D01*
X133147569Y-89636280D01*
X133438720Y-89927431D01*
X133819126Y-90085000D01*
X134230874Y-90085000D01*
X134611280Y-89927431D01*
X134725000Y-89813711D01*
X134838720Y-89927431D01*
X135219126Y-90085000D01*
X135630874Y-90085000D01*
X136011280Y-89927431D01*
X136100000Y-89838711D01*
X136188720Y-89927431D01*
X136569126Y-90085000D01*
X136980874Y-90085000D01*
X137361280Y-89927431D01*
X137652431Y-89636280D01*
X137810000Y-89255874D01*
X137810000Y-88844126D01*
X137652431Y-88463720D01*
X137551211Y-88362500D01*
X137677431Y-88236280D01*
X137834351Y-87857440D01*
X139534000Y-87857440D01*
X139781765Y-87808157D01*
X139991809Y-87667809D01*
X140132157Y-87457765D01*
X140181440Y-87210000D01*
X140181440Y-85510000D01*
X140132157Y-85262235D01*
X139991809Y-85052191D01*
X139781765Y-84911843D01*
X139534000Y-84862560D01*
X137834000Y-84862560D01*
X137586235Y-84911843D01*
X137376191Y-85052191D01*
X137235843Y-85262235D01*
X137204047Y-85422086D01*
X137005874Y-85340000D01*
X136594126Y-85340000D01*
X136213720Y-85497569D01*
X136100000Y-85611289D01*
X135986280Y-85497569D01*
X135605874Y-85340000D01*
X135194126Y-85340000D01*
X134813720Y-85497569D01*
X134687500Y-85623789D01*
X134611280Y-85547569D01*
X134230874Y-85390000D01*
X133819126Y-85390000D01*
X133438720Y-85547569D01*
X133147569Y-85838720D01*
X132990000Y-86219126D01*
X119044585Y-86219126D01*
X119227431Y-86036280D01*
X119385000Y-85655874D01*
X119385000Y-85244126D01*
X119227431Y-84863720D01*
X118936280Y-84572569D01*
X118555874Y-84415000D01*
X118144126Y-84415000D01*
X117850000Y-84536831D01*
X117555874Y-84415000D01*
X117144126Y-84415000D01*
X116850000Y-84536831D01*
X116555874Y-84415000D01*
X116144126Y-84415000D01*
X115763720Y-84572569D01*
X115472569Y-84863720D01*
X115315000Y-85244126D01*
X100203000Y-85244126D01*
X100203000Y-82169000D01*
X151765000Y-82169000D01*
X151765000Y-101727000D01*
X151765000Y-101727000D01*
G37*
X151765000Y-101727000D02*
X100203000Y-101727000D01*
X100203000Y-94369126D01*
X113315000Y-94369126D01*
X113315000Y-94780874D01*
X113472569Y-95161280D01*
X113763720Y-95452431D01*
X114144126Y-95610000D01*
X114555874Y-95610000D01*
X114936280Y-95452431D01*
X115100000Y-95288711D01*
X115263720Y-95452431D01*
X115644126Y-95610000D01*
X116055874Y-95610000D01*
X116436280Y-95452431D01*
X116727431Y-95161280D01*
X116885000Y-94780874D01*
X116885000Y-94369126D01*
X116727431Y-93988720D01*
X116436280Y-93697569D01*
X116055874Y-93540000D01*
X115644126Y-93540000D01*
X115263720Y-93697569D01*
X115100000Y-93861289D01*
X114936280Y-93697569D01*
X114555874Y-93540000D01*
X114144126Y-93540000D01*
X113763720Y-93697569D01*
X113472569Y-93988720D01*
X113315000Y-94369126D01*
X100203000Y-94369126D01*
X100203000Y-85244126D01*
X115315000Y-85244126D01*
X115315000Y-85655874D01*
X115472569Y-86036280D01*
X115763720Y-86327431D01*
X116144126Y-86485000D01*
X116555874Y-86485000D01*
X116850000Y-86363169D01*
X117144126Y-86485000D01*
X117555874Y-86485000D01*
X117850000Y-86363169D01*
X118144126Y-86485000D01*
X118555874Y-86485000D01*
X118936280Y-86327431D01*
X119044585Y-86219126D01*
X132990000Y-86219126D01*
X132990000Y-86630874D01*
X133147569Y-87011280D01*
X133223789Y-87087500D01*
X133147569Y-87163720D01*
X132990000Y-87544126D01*
X132990000Y-87955874D01*
X133147569Y-88336280D01*
X133211289Y-88400000D01*
X133147569Y-88463720D01*
X132990000Y-88844126D01*
X132990000Y-89255874D01*
X133147569Y-89636280D01*
X133438720Y-89927431D01*
X133819126Y-90085000D01*
X134230874Y-90085000D01*
X134611280Y-89927431D01*
X134725000Y-89813711D01*
X134838720Y-89927431D01*
X135219126Y-90085000D01*
X135630874Y-90085000D01*
X136011280Y-89927431D01*
X136100000Y-89838711D01*
X136188720Y-89927431D01*
X136569126Y-90085000D01*
X136980874Y-90085000D01*
X137361280Y-89927431D01*
X137652431Y-89636280D01*
X137810000Y-89255874D01*
X137810000Y-88844126D01*
X137652431Y-88463720D01*
X137551211Y-88362500D01*
X137677431Y-88236280D01*
X137834351Y-87857440D01*
X139534000Y-87857440D01*
X139781765Y-87808157D01*
X139991809Y-87667809D01*
X140132157Y-87457765D01*
X140181440Y-87210000D01*
X140181440Y-85510000D01*
X140132157Y-85262235D01*
X139991809Y-85052191D01*
X139781765Y-84911843D01*
X139534000Y-84862560D01*
X137834000Y-84862560D01*
X137586235Y-84911843D01*
X137376191Y-85052191D01*
X137235843Y-85262235D01*
X137204047Y-85422086D01*
X137005874Y-85340000D01*
X136594126Y-85340000D01*
X136213720Y-85497569D01*
X136100000Y-85611289D01*
X135986280Y-85497569D01*
X135605874Y-85340000D01*
X135194126Y-85340000D01*
X134813720Y-85497569D01*
X134687500Y-85623789D01*
X134611280Y-85547569D01*
X134230874Y-85390000D01*
X133819126Y-85390000D01*
X133438720Y-85547569D01*
X133147569Y-85838720D01*
X132990000Y-86219126D01*
X119044585Y-86219126D01*
X119227431Y-86036280D01*
X119385000Y-85655874D01*
X119385000Y-85244126D01*
X119227431Y-84863720D01*
X118936280Y-84572569D01*
X118555874Y-84415000D01*
X118144126Y-84415000D01*
X117850000Y-84536831D01*
X117555874Y-84415000D01*
X117144126Y-84415000D01*
X116850000Y-84536831D01*
X116555874Y-84415000D01*
X116144126Y-84415000D01*
X115763720Y-84572569D01*
X115472569Y-84863720D01*
X115315000Y-85244126D01*
X100203000Y-85244126D01*
X100203000Y-82169000D01*
X151765000Y-82169000D01*
X151765000Y-101727000D01*
G04 #@! TD*
M02*
