G04 #@! TF.GenerationSoftware,KiCad,Pcbnew,(5.0.1)-4*
G04 #@! TF.CreationDate,2019-05-20T17:02:09-07:00*
G04 #@! TF.ProjectId,Fanout_circuit,46616E6F75745F636972637569742E6B,rev?*
G04 #@! TF.SameCoordinates,Original*
G04 #@! TF.FileFunction,Copper,L1,Top,Signal*
G04 #@! TF.FilePolarity,Positive*
%FSLAX46Y46*%
G04 Gerber Fmt 4.6, Leading zero omitted, Abs format (unit mm)*
G04 Created by KiCad (PCBNEW (5.0.1)-4) date 5/20/2019 5:02:09 PM*
%MOMM*%
%LPD*%
G01*
G04 APERTURE LIST*
G04 #@! TA.AperFunction,SMDPad,CuDef*
%ADD10C,0.300000*%
G04 #@! TD*
G04 #@! TA.AperFunction,Conductor*
%ADD11C,0.200000*%
G04 #@! TD*
G04 #@! TA.AperFunction,SMDPad,CuDef*
%ADD12R,0.300000X0.290000*%
G04 #@! TD*
G04 #@! TA.AperFunction,SMDPad,CuDef*
%ADD13R,0.300000X0.345000*%
G04 #@! TD*
G04 #@! TA.AperFunction,ComponentPad*
%ADD14O,1.700000X1.700000*%
G04 #@! TD*
G04 #@! TA.AperFunction,ComponentPad*
%ADD15R,1.700000X1.700000*%
G04 #@! TD*
G04 #@! TA.AperFunction,SMDPad,CuDef*
%ADD16R,1.900000X1.900000*%
G04 #@! TD*
G04 #@! TA.AperFunction,SMDPad,CuDef*
%ADD17R,1.500000X1.500000*%
G04 #@! TD*
G04 #@! TA.AperFunction,SMDPad,CuDef*
%ADD18R,0.600000X0.400000*%
G04 #@! TD*
G04 #@! TA.AperFunction,SMDPad,CuDef*
%ADD19R,0.600000X0.500000*%
G04 #@! TD*
G04 #@! TA.AperFunction,ViaPad*
%ADD20C,0.800000*%
G04 #@! TD*
G04 #@! TA.AperFunction,Conductor*
%ADD21C,0.267000*%
G04 #@! TD*
G04 #@! TA.AperFunction,Conductor*
%ADD22C,0.254000*%
G04 #@! TD*
G04 APERTURE END LIST*
D10*
G04 #@! TO.P,J1,1*
G04 #@! TO.N,/LO*
X130000000Y-84000000D03*
D11*
G04 #@! TD*
G04 #@! TO.N,/LO*
G04 #@! TO.C,J1*
G36*
X136240000Y-77880000D02*
X130150000Y-83994979D01*
X130150000Y-84005021D01*
X136240000Y-90120000D01*
X136240000Y-90410000D01*
X130000000Y-84172500D01*
X121180000Y-84172500D01*
X121180000Y-83827500D01*
X130000000Y-83827500D01*
X136240000Y-77590000D01*
X136240000Y-77880000D01*
X136240000Y-77880000D01*
G37*
D12*
G04 #@! TO.P,J1,1*
G04 #@! TO.N,/LO*
X136390000Y-77735000D03*
X136390000Y-90265000D03*
D13*
X121050000Y-84000000D03*
G04 #@! TD*
D14*
G04 #@! TO.P,J3,2*
G04 #@! TO.N,GND*
X119790000Y-74050000D03*
D15*
G04 #@! TO.P,J3,1*
G04 #@! TO.N,+5V*
X117250000Y-74050000D03*
G04 #@! TD*
D16*
G04 #@! TO.P,CON2,2*
G04 #@! TO.N,GND*
X143375000Y-87925000D03*
X143375000Y-92675000D03*
X138625000Y-92675000D03*
X138625000Y-87925000D03*
D17*
G04 #@! TO.P,CON2,1*
G04 #@! TO.N,/LO*
X141000000Y-90300000D03*
G04 #@! TD*
D16*
G04 #@! TO.P,CON1,2*
G04 #@! TO.N,GND*
X121375000Y-81625000D03*
X121375000Y-86375000D03*
X116625000Y-86375000D03*
X116625000Y-81625000D03*
D17*
G04 #@! TO.P,CON1,1*
G04 #@! TO.N,/LO*
X119000000Y-84000000D03*
G04 #@! TD*
G04 #@! TO.P,CON3,1*
G04 #@! TO.N,/LO*
X141000000Y-77700000D03*
D16*
G04 #@! TO.P,CON3,2*
G04 #@! TO.N,GND*
X138625000Y-75325000D03*
X138625000Y-80075000D03*
X143375000Y-80075000D03*
X143375000Y-75325000D03*
G04 #@! TD*
D18*
G04 #@! TO.P,R1,2*
G04 #@! TO.N,/LO*
X136350000Y-83550000D03*
G04 #@! TO.P,R1,1*
X136350000Y-84450000D03*
G04 #@! TD*
D19*
G04 #@! TO.P,C1,2*
G04 #@! TO.N,GND*
X118975000Y-76675000D03*
G04 #@! TO.P,C1,1*
G04 #@! TO.N,+5V*
X117975000Y-76675000D03*
G04 #@! TD*
D20*
G04 #@! TO.N,GND*
X140950000Y-87950000D03*
X143375000Y-90125000D03*
X141025000Y-92625000D03*
X136550000Y-91525000D03*
X134925000Y-90725000D03*
X133975000Y-89675000D03*
X132925000Y-88650000D03*
X131925000Y-87625000D03*
X130775000Y-86475000D03*
X129750000Y-85350000D03*
X128400000Y-85175000D03*
X126825000Y-85175000D03*
X125275000Y-85150000D03*
X123800000Y-85150000D03*
X123300000Y-86400000D03*
X123250000Y-81625000D03*
X123775000Y-82750000D03*
X125250000Y-82800000D03*
X126800000Y-82825000D03*
X128300000Y-82825000D03*
X129650000Y-82800000D03*
X130775000Y-81675000D03*
X131625000Y-80775000D03*
X132575000Y-79825000D03*
X133550000Y-78850000D03*
X134550000Y-77900000D03*
X135500000Y-76875000D03*
X136825000Y-76625000D03*
X140975000Y-75400000D03*
X143350000Y-77825000D03*
X141000000Y-80050000D03*
X137200000Y-78650000D03*
X135450000Y-80100000D03*
X134400000Y-81200000D03*
X133275000Y-82325000D03*
X131650000Y-83975000D03*
X132850000Y-85200000D03*
X134075000Y-86450000D03*
X135450000Y-87950000D03*
X134775000Y-83900000D03*
X135325000Y-82225000D03*
X135225000Y-85525000D03*
X137150000Y-89425000D03*
X138625000Y-85300000D03*
X138625000Y-82625000D03*
X141000000Y-82525000D03*
X143250000Y-82575000D03*
X141000000Y-85300000D03*
X143300000Y-85350000D03*
X118975000Y-81725000D03*
X116575000Y-84125000D03*
X119025000Y-86325000D03*
X116600000Y-88500000D03*
X119175000Y-88525000D03*
X121425000Y-88450000D03*
X124500000Y-88500000D03*
X127950000Y-88500000D03*
X130675000Y-88525000D03*
X130825000Y-90875000D03*
X127750000Y-90725000D03*
X124575000Y-90675000D03*
X121475000Y-90850000D03*
X118850000Y-90650000D03*
X116575000Y-90675000D03*
X116550000Y-93350000D03*
X119025000Y-93325000D03*
X122025000Y-93325000D03*
X125250000Y-93325000D03*
X128175000Y-93250000D03*
X131350000Y-93325000D03*
X134875000Y-93325000D03*
X116575000Y-79375000D03*
X118975000Y-79425000D03*
X121625000Y-79475000D03*
X121600000Y-77300000D03*
X124850000Y-77300000D03*
X124925000Y-80300000D03*
X129150000Y-80425000D03*
X129050000Y-77475000D03*
X132225000Y-77675000D03*
X138575000Y-73100000D03*
X140975000Y-73075000D03*
X143350000Y-73075000D03*
X135600000Y-73125000D03*
X122650000Y-73250000D03*
G04 #@! TD*
D21*
G04 #@! TO.N,GND*
X138625000Y-87925000D02*
X140925000Y-87925000D01*
X140925000Y-87925000D02*
X140950000Y-87950000D01*
X140975000Y-87925000D02*
X140950000Y-87950000D01*
X143375000Y-87925000D02*
X140975000Y-87925000D01*
X143375000Y-87925000D02*
X143375000Y-90125000D01*
X143375000Y-92675000D02*
X143375000Y-90125000D01*
X143375000Y-92675000D02*
X141075000Y-92675000D01*
X141075000Y-92675000D02*
X141025000Y-92625000D01*
X140975000Y-92675000D02*
X141025000Y-92625000D01*
X138625000Y-92675000D02*
X140975000Y-92675000D01*
X136550000Y-91817000D02*
X136550000Y-91525000D01*
X138625000Y-92675000D02*
X137408000Y-92675000D01*
X137408000Y-92675000D02*
X136550000Y-91817000D01*
X134925000Y-90725000D02*
X134925000Y-90625000D01*
X134925000Y-90625000D02*
X133975000Y-89675000D01*
X132925000Y-88650000D02*
X132925000Y-88625000D01*
X132925000Y-88625000D02*
X131925000Y-87625000D01*
X130775000Y-86475000D02*
X130775000Y-86375000D01*
X130775000Y-86375000D02*
X129750000Y-85350000D01*
X128400000Y-85175000D02*
X126825000Y-85175000D01*
X125275000Y-85150000D02*
X123800000Y-85150000D01*
X121375000Y-86375000D02*
X123275000Y-86375000D01*
X123275000Y-86375000D02*
X123300000Y-86400000D01*
X121375000Y-81625000D02*
X123250000Y-81625000D01*
X123775000Y-82750000D02*
X125200000Y-82750000D01*
X125200000Y-82750000D02*
X125250000Y-82800000D01*
X126800000Y-82825000D02*
X128300000Y-82825000D01*
X129650000Y-82800000D02*
X130775000Y-81675000D01*
X131625000Y-80775000D02*
X132575000Y-79825000D01*
X133550000Y-78850000D02*
X133600000Y-78850000D01*
X133600000Y-78850000D02*
X134550000Y-77900000D01*
X135500000Y-76875000D02*
X136575000Y-76875000D01*
X136575000Y-76875000D02*
X136825000Y-76625000D01*
X137390685Y-76625000D02*
X136825000Y-76625000D01*
X138542000Y-76625000D02*
X137390685Y-76625000D01*
X138625000Y-76542000D02*
X138542000Y-76625000D01*
X138625000Y-75325000D02*
X138625000Y-76542000D01*
X138625000Y-75325000D02*
X140900000Y-75325000D01*
X140900000Y-75325000D02*
X140975000Y-75400000D01*
X141050000Y-75325000D02*
X140975000Y-75400000D01*
X143375000Y-75325000D02*
X141050000Y-75325000D01*
X143375000Y-80075000D02*
X143375000Y-77850000D01*
X143375000Y-77850000D02*
X143350000Y-77825000D01*
X143375000Y-77800000D02*
X143350000Y-77825000D01*
X143375000Y-75325000D02*
X143375000Y-77800000D01*
X143375000Y-80075000D02*
X141025000Y-80075000D01*
X141025000Y-80075000D02*
X141000000Y-80050000D01*
X140975000Y-80075000D02*
X141000000Y-80050000D01*
X138625000Y-80075000D02*
X140975000Y-80075000D01*
X138417000Y-78650000D02*
X137200000Y-78650000D01*
X138625000Y-80075000D02*
X138625000Y-78858000D01*
X138625000Y-78858000D02*
X138417000Y-78650000D01*
X135450000Y-80100000D02*
X135450000Y-80150000D01*
X135450000Y-80150000D02*
X134400000Y-81200000D01*
X133275000Y-82325000D02*
X133275000Y-82350000D01*
X133275000Y-82350000D02*
X131650000Y-83975000D01*
X132850000Y-85200000D02*
X132850000Y-85225000D01*
X132850000Y-85225000D02*
X134075000Y-86450000D01*
X131650000Y-83975000D02*
X134700000Y-83975000D01*
X134700000Y-83975000D02*
X134775000Y-83900000D01*
X134775000Y-83900000D02*
X134775000Y-85075000D01*
X134775000Y-85075000D02*
X135225000Y-85525000D01*
X138342000Y-89425000D02*
X137150000Y-89425000D01*
X138625000Y-87925000D02*
X138625000Y-89142000D01*
X138625000Y-89142000D02*
X138342000Y-89425000D01*
X138625000Y-87925000D02*
X138625000Y-85300000D01*
X138625000Y-82625000D02*
X138625000Y-80075000D01*
X138625000Y-82625000D02*
X140900000Y-82625000D01*
X140900000Y-82625000D02*
X141000000Y-82525000D01*
X138625000Y-85300000D02*
X141000000Y-85300000D01*
X121375000Y-81625000D02*
X119075000Y-81625000D01*
X119075000Y-81625000D02*
X118975000Y-81725000D01*
X118875000Y-81625000D02*
X118975000Y-81725000D01*
X116625000Y-81625000D02*
X118875000Y-81625000D01*
X116625000Y-86375000D02*
X116625000Y-84175000D01*
X116625000Y-84175000D02*
X116575000Y-84125000D01*
X116625000Y-84075000D02*
X116575000Y-84125000D01*
X116625000Y-81625000D02*
X116625000Y-84075000D01*
X116625000Y-86375000D02*
X118975000Y-86375000D01*
X118975000Y-86375000D02*
X119025000Y-86325000D01*
X119075000Y-86375000D02*
X119025000Y-86325000D01*
X121375000Y-86375000D02*
X119075000Y-86375000D01*
X116625000Y-86375000D02*
X116625000Y-88475000D01*
X116625000Y-88475000D02*
X116600000Y-88500000D01*
X119175000Y-88525000D02*
X121350000Y-88525000D01*
X121350000Y-88525000D02*
X121425000Y-88450000D01*
X124500000Y-88500000D02*
X127950000Y-88500000D01*
X130675000Y-88525000D02*
X130675000Y-90725000D01*
X130675000Y-90725000D02*
X130825000Y-90875000D01*
X127750000Y-90725000D02*
X124625000Y-90725000D01*
X124625000Y-90725000D02*
X124575000Y-90675000D01*
X121475000Y-90850000D02*
X119050000Y-90850000D01*
X119050000Y-90850000D02*
X118850000Y-90650000D01*
X116575000Y-90675000D02*
X116575000Y-93325000D01*
X116575000Y-93325000D02*
X116550000Y-93350000D01*
X119025000Y-93325000D02*
X122025000Y-93325000D01*
X125250000Y-93325000D02*
X128100000Y-93325000D01*
X128100000Y-93325000D02*
X128175000Y-93250000D01*
X131350000Y-93325000D02*
X134875000Y-93325000D01*
X116625000Y-81625000D02*
X116625000Y-79425000D01*
X116625000Y-79425000D02*
X116575000Y-79375000D01*
X118975000Y-79425000D02*
X121575000Y-79425000D01*
X121575000Y-79425000D02*
X121625000Y-79475000D01*
X121600000Y-77300000D02*
X124850000Y-77300000D01*
X124925000Y-80300000D02*
X129025000Y-80300000D01*
X129025000Y-80300000D02*
X129150000Y-80425000D01*
X119865000Y-74125000D02*
X119790000Y-74050000D01*
X129050000Y-77475000D02*
X132025000Y-77475000D01*
X132025000Y-77475000D02*
X132225000Y-77675000D01*
X138625000Y-75325000D02*
X138625000Y-73150000D01*
X138625000Y-73150000D02*
X138575000Y-73100000D01*
X140975000Y-73075000D02*
X143350000Y-73075000D01*
X119790000Y-74050000D02*
X121850000Y-74050000D01*
X121850000Y-74050000D02*
X122650000Y-73250000D01*
X119790000Y-75252081D02*
X119790000Y-74050000D01*
X119790000Y-76427000D02*
X119790000Y-75252081D01*
X119542000Y-76675000D02*
X119790000Y-76427000D01*
X118975000Y-76675000D02*
X119542000Y-76675000D01*
G04 #@! TO.N,/LO*
X119000000Y-84000000D02*
X121050000Y-84000000D01*
X140965000Y-90265000D02*
X141000000Y-90300000D01*
X136390000Y-90265000D02*
X140965000Y-90265000D01*
X140965000Y-77735000D02*
X141000000Y-77700000D01*
X136390000Y-77735000D02*
X140965000Y-77735000D01*
X136350000Y-77775000D02*
X136390000Y-77735000D01*
X136350000Y-83550000D02*
X136350000Y-77775000D01*
X136350000Y-90225000D02*
X136390000Y-90265000D01*
X136350000Y-84450000D02*
X136350000Y-90225000D01*
G04 #@! TO.N,+5V*
X117250000Y-75167000D02*
X117250000Y-74050000D01*
X117250000Y-76000000D02*
X117250000Y-75167000D01*
X117925000Y-76675000D02*
X117250000Y-76000000D01*
X117975000Y-76675000D02*
X117925000Y-76675000D01*
G04 #@! TD*
D22*
G04 #@! TO.N,GND*
G36*
X144873000Y-94873000D02*
X115127000Y-94873000D01*
X115127000Y-83250000D01*
X117916594Y-83250000D01*
X117916594Y-84750000D01*
X117941973Y-84877589D01*
X118014246Y-84985754D01*
X118122411Y-85058027D01*
X118250000Y-85083406D01*
X119750000Y-85083406D01*
X119877589Y-85058027D01*
X119985754Y-84985754D01*
X120058027Y-84877589D01*
X120083406Y-84750000D01*
X120083406Y-84460500D01*
X120742438Y-84460500D01*
X120772411Y-84480527D01*
X120900000Y-84505906D01*
X129861938Y-84505906D01*
X136004244Y-90645751D01*
X136004246Y-90645754D01*
X136004249Y-90645756D01*
X136004294Y-90645801D01*
X136112411Y-90718027D01*
X136240000Y-90743406D01*
X136540000Y-90743406D01*
X136630020Y-90725500D01*
X139916594Y-90725500D01*
X139916594Y-91050000D01*
X139941973Y-91177589D01*
X140014246Y-91285754D01*
X140122411Y-91358027D01*
X140250000Y-91383406D01*
X141750000Y-91383406D01*
X141877589Y-91358027D01*
X141985754Y-91285754D01*
X142058027Y-91177589D01*
X142083406Y-91050000D01*
X142083406Y-89550000D01*
X142058027Y-89422411D01*
X141985754Y-89314246D01*
X141877589Y-89241973D01*
X141750000Y-89216594D01*
X140250000Y-89216594D01*
X140122411Y-89241973D01*
X140014246Y-89314246D01*
X139941973Y-89422411D01*
X139916594Y-89550000D01*
X139916594Y-89804500D01*
X136810500Y-89804500D01*
X136810500Y-84936037D01*
X136885754Y-84885754D01*
X136958027Y-84777589D01*
X136983406Y-84650000D01*
X136983406Y-84250000D01*
X136958027Y-84122411D01*
X136885754Y-84014246D01*
X136864433Y-84000000D01*
X136885754Y-83985754D01*
X136958027Y-83877589D01*
X136983406Y-83750000D01*
X136983406Y-83350000D01*
X136958027Y-83222411D01*
X136885754Y-83114246D01*
X136810500Y-83063963D01*
X136810500Y-78195500D01*
X139916594Y-78195500D01*
X139916594Y-78450000D01*
X139941973Y-78577589D01*
X140014246Y-78685754D01*
X140122411Y-78758027D01*
X140250000Y-78783406D01*
X141750000Y-78783406D01*
X141877589Y-78758027D01*
X141985754Y-78685754D01*
X142058027Y-78577589D01*
X142083406Y-78450000D01*
X142083406Y-76950000D01*
X142058027Y-76822411D01*
X141985754Y-76714246D01*
X141877589Y-76641973D01*
X141750000Y-76616594D01*
X140250000Y-76616594D01*
X140122411Y-76641973D01*
X140014246Y-76714246D01*
X139941973Y-76822411D01*
X139916594Y-76950000D01*
X139916594Y-77274500D01*
X136630020Y-77274500D01*
X136540000Y-77256594D01*
X136240000Y-77256594D01*
X136177074Y-77269111D01*
X136112473Y-77281947D01*
X136112444Y-77281966D01*
X136112411Y-77281973D01*
X136057494Y-77318667D01*
X136004294Y-77354199D01*
X136004249Y-77354244D01*
X136004246Y-77354246D01*
X136004244Y-77354249D01*
X129861938Y-83494094D01*
X120900000Y-83494094D01*
X120772411Y-83519473D01*
X120742438Y-83539500D01*
X120083406Y-83539500D01*
X120083406Y-83250000D01*
X120058027Y-83122411D01*
X119985754Y-83014246D01*
X119877589Y-82941973D01*
X119750000Y-82916594D01*
X118250000Y-82916594D01*
X118122411Y-82941973D01*
X118014246Y-83014246D01*
X117941973Y-83122411D01*
X117916594Y-83250000D01*
X115127000Y-83250000D01*
X115127000Y-73200000D01*
X116066594Y-73200000D01*
X116066594Y-74900000D01*
X116091973Y-75027589D01*
X116164246Y-75135754D01*
X116272411Y-75208027D01*
X116400000Y-75233406D01*
X116789501Y-75233406D01*
X116789500Y-75954652D01*
X116780480Y-76000000D01*
X116789500Y-76045348D01*
X116789500Y-76045351D01*
X116816219Y-76179677D01*
X116917999Y-76332001D01*
X116956448Y-76357692D01*
X117341594Y-76742839D01*
X117341594Y-76925000D01*
X117366973Y-77052589D01*
X117439246Y-77160754D01*
X117547411Y-77233027D01*
X117675000Y-77258406D01*
X118275000Y-77258406D01*
X118402589Y-77233027D01*
X118510754Y-77160754D01*
X118583027Y-77052589D01*
X118608406Y-76925000D01*
X118608406Y-76425000D01*
X118583027Y-76297411D01*
X118510754Y-76189246D01*
X118402589Y-76116973D01*
X118275000Y-76091594D01*
X117992839Y-76091594D01*
X117710500Y-75809256D01*
X117710500Y-75233406D01*
X118100000Y-75233406D01*
X118227589Y-75208027D01*
X118335754Y-75135754D01*
X118408027Y-75027589D01*
X118433406Y-74900000D01*
X118433406Y-73200000D01*
X118408027Y-73072411D01*
X118335754Y-72964246D01*
X118227589Y-72891973D01*
X118100000Y-72866594D01*
X116400000Y-72866594D01*
X116272411Y-72891973D01*
X116164246Y-72964246D01*
X116091973Y-73072411D01*
X116066594Y-73200000D01*
X115127000Y-73200000D01*
X115127000Y-72127000D01*
X144873000Y-72127000D01*
X144873000Y-94873000D01*
X144873000Y-94873000D01*
G37*
X144873000Y-94873000D02*
X115127000Y-94873000D01*
X115127000Y-83250000D01*
X117916594Y-83250000D01*
X117916594Y-84750000D01*
X117941973Y-84877589D01*
X118014246Y-84985754D01*
X118122411Y-85058027D01*
X118250000Y-85083406D01*
X119750000Y-85083406D01*
X119877589Y-85058027D01*
X119985754Y-84985754D01*
X120058027Y-84877589D01*
X120083406Y-84750000D01*
X120083406Y-84460500D01*
X120742438Y-84460500D01*
X120772411Y-84480527D01*
X120900000Y-84505906D01*
X129861938Y-84505906D01*
X136004244Y-90645751D01*
X136004246Y-90645754D01*
X136004249Y-90645756D01*
X136004294Y-90645801D01*
X136112411Y-90718027D01*
X136240000Y-90743406D01*
X136540000Y-90743406D01*
X136630020Y-90725500D01*
X139916594Y-90725500D01*
X139916594Y-91050000D01*
X139941973Y-91177589D01*
X140014246Y-91285754D01*
X140122411Y-91358027D01*
X140250000Y-91383406D01*
X141750000Y-91383406D01*
X141877589Y-91358027D01*
X141985754Y-91285754D01*
X142058027Y-91177589D01*
X142083406Y-91050000D01*
X142083406Y-89550000D01*
X142058027Y-89422411D01*
X141985754Y-89314246D01*
X141877589Y-89241973D01*
X141750000Y-89216594D01*
X140250000Y-89216594D01*
X140122411Y-89241973D01*
X140014246Y-89314246D01*
X139941973Y-89422411D01*
X139916594Y-89550000D01*
X139916594Y-89804500D01*
X136810500Y-89804500D01*
X136810500Y-84936037D01*
X136885754Y-84885754D01*
X136958027Y-84777589D01*
X136983406Y-84650000D01*
X136983406Y-84250000D01*
X136958027Y-84122411D01*
X136885754Y-84014246D01*
X136864433Y-84000000D01*
X136885754Y-83985754D01*
X136958027Y-83877589D01*
X136983406Y-83750000D01*
X136983406Y-83350000D01*
X136958027Y-83222411D01*
X136885754Y-83114246D01*
X136810500Y-83063963D01*
X136810500Y-78195500D01*
X139916594Y-78195500D01*
X139916594Y-78450000D01*
X139941973Y-78577589D01*
X140014246Y-78685754D01*
X140122411Y-78758027D01*
X140250000Y-78783406D01*
X141750000Y-78783406D01*
X141877589Y-78758027D01*
X141985754Y-78685754D01*
X142058027Y-78577589D01*
X142083406Y-78450000D01*
X142083406Y-76950000D01*
X142058027Y-76822411D01*
X141985754Y-76714246D01*
X141877589Y-76641973D01*
X141750000Y-76616594D01*
X140250000Y-76616594D01*
X140122411Y-76641973D01*
X140014246Y-76714246D01*
X139941973Y-76822411D01*
X139916594Y-76950000D01*
X139916594Y-77274500D01*
X136630020Y-77274500D01*
X136540000Y-77256594D01*
X136240000Y-77256594D01*
X136177074Y-77269111D01*
X136112473Y-77281947D01*
X136112444Y-77281966D01*
X136112411Y-77281973D01*
X136057494Y-77318667D01*
X136004294Y-77354199D01*
X136004249Y-77354244D01*
X136004246Y-77354246D01*
X136004244Y-77354249D01*
X129861938Y-83494094D01*
X120900000Y-83494094D01*
X120772411Y-83519473D01*
X120742438Y-83539500D01*
X120083406Y-83539500D01*
X120083406Y-83250000D01*
X120058027Y-83122411D01*
X119985754Y-83014246D01*
X119877589Y-82941973D01*
X119750000Y-82916594D01*
X118250000Y-82916594D01*
X118122411Y-82941973D01*
X118014246Y-83014246D01*
X117941973Y-83122411D01*
X117916594Y-83250000D01*
X115127000Y-83250000D01*
X115127000Y-73200000D01*
X116066594Y-73200000D01*
X116066594Y-74900000D01*
X116091973Y-75027589D01*
X116164246Y-75135754D01*
X116272411Y-75208027D01*
X116400000Y-75233406D01*
X116789501Y-75233406D01*
X116789500Y-75954652D01*
X116780480Y-76000000D01*
X116789500Y-76045348D01*
X116789500Y-76045351D01*
X116816219Y-76179677D01*
X116917999Y-76332001D01*
X116956448Y-76357692D01*
X117341594Y-76742839D01*
X117341594Y-76925000D01*
X117366973Y-77052589D01*
X117439246Y-77160754D01*
X117547411Y-77233027D01*
X117675000Y-77258406D01*
X118275000Y-77258406D01*
X118402589Y-77233027D01*
X118510754Y-77160754D01*
X118583027Y-77052589D01*
X118608406Y-76925000D01*
X118608406Y-76425000D01*
X118583027Y-76297411D01*
X118510754Y-76189246D01*
X118402589Y-76116973D01*
X118275000Y-76091594D01*
X117992839Y-76091594D01*
X117710500Y-75809256D01*
X117710500Y-75233406D01*
X118100000Y-75233406D01*
X118227589Y-75208027D01*
X118335754Y-75135754D01*
X118408027Y-75027589D01*
X118433406Y-74900000D01*
X118433406Y-73200000D01*
X118408027Y-73072411D01*
X118335754Y-72964246D01*
X118227589Y-72891973D01*
X118100000Y-72866594D01*
X116400000Y-72866594D01*
X116272411Y-72891973D01*
X116164246Y-72964246D01*
X116091973Y-73072411D01*
X116066594Y-73200000D01*
X115127000Y-73200000D01*
X115127000Y-72127000D01*
X144873000Y-72127000D01*
X144873000Y-94873000D01*
G36*
X135889500Y-83063963D02*
X135814246Y-83114246D01*
X135741973Y-83222411D01*
X135716594Y-83350000D01*
X135716594Y-83750000D01*
X135741973Y-83877589D01*
X135814246Y-83985754D01*
X135835567Y-84000000D01*
X135814246Y-84014246D01*
X135741973Y-84122411D01*
X135716594Y-84250000D01*
X135716594Y-84650000D01*
X135741973Y-84777589D01*
X135814246Y-84885754D01*
X135889500Y-84936037D01*
X135889501Y-89295587D01*
X130615545Y-84000000D01*
X135889501Y-78704413D01*
X135889500Y-83063963D01*
X135889500Y-83063963D01*
G37*
X135889500Y-83063963D02*
X135814246Y-83114246D01*
X135741973Y-83222411D01*
X135716594Y-83350000D01*
X135716594Y-83750000D01*
X135741973Y-83877589D01*
X135814246Y-83985754D01*
X135835567Y-84000000D01*
X135814246Y-84014246D01*
X135741973Y-84122411D01*
X135716594Y-84250000D01*
X135716594Y-84650000D01*
X135741973Y-84777589D01*
X135814246Y-84885754D01*
X135889500Y-84936037D01*
X135889501Y-89295587D01*
X130615545Y-84000000D01*
X135889501Y-78704413D01*
X135889500Y-83063963D01*
G04 #@! TD*
M02*
