M48
;DRILL file {KiCad (5.0.1)-4} date 5/20/2019 5:02:14 PM
;FORMAT={2:4/ absolute / inch / suppress leading zeros}
FMAT,2
INCH,TZ
T1C0.0157
T2C0.0394
%
G90
G05
M72
T1
X45886Y-36752
X45896Y-31250
X45896Y-33120
X45896Y-35699
X45906Y-34843
X46791Y-35689
X46841Y-31270
X46841Y-32175
X46860Y-33986
X46860Y-36742
X46919Y-34852
X47805Y-34823
X47825Y-35768
X47874Y-30433
X47884Y-31289
X48041Y-36742
X48287Y-28839
X48524Y-32136
X48543Y-34016
X48730Y-32579
X48740Y-33524
X49016Y-34843
X49045Y-35699
X49154Y-30433
X49183Y-31614
X49311Y-32598
X49311Y-36742
X49321Y-33524
X49921Y-32608
X49931Y-33533
X50295Y-35719
X50374Y-34843
X50463Y-36713
X50512Y-32608
X50551Y-33533
X50807Y-30502
X50846Y-31663
X51043Y-32598
X51083Y-33602
X51447Y-34852
X51486Y-32156
X51486Y-34045
X51506Y-35778
X51713Y-36742
X51821Y-31801
X51831Y-33061
X51939Y-34498
X52057Y-30581
X52195Y-31427
X52303Y-33543
X52333Y-34902
X52470Y-32411
X52579Y-31043
X52746Y-35305
X52785Y-34035
X52913Y-31969
X52972Y-30669
X53061Y-33031
X53100Y-36742
X53120Y-35719
X53238Y-33671
X53278Y-32372
X53327Y-31535
X53327Y-34626
X53346Y-30266
X53386Y-28789
X53760Y-36033
X53868Y-30167
X53996Y-35207
X54016Y-30965
X54557Y-28780
X54577Y-32530
X54577Y-33583
X55492Y-34626
X55502Y-28770
X55502Y-29685
X55512Y-31516
X55512Y-32490
X55512Y-33583
X55522Y-36467
X56398Y-32510
X56417Y-33602
X56437Y-28770
X56437Y-30640
X56447Y-35482
T2
X46161Y-29154
X47161Y-29154
T0
M30
