G04 #@! TF.GenerationSoftware,KiCad,Pcbnew,(5.0.1)-4*
G04 #@! TF.CreationDate,2019-05-20T17:02:10-07:00*
G04 #@! TF.ProjectId,Fanout_circuit,46616E6F75745F636972637569742E6B,rev?*
G04 #@! TF.SameCoordinates,Original*
G04 #@! TF.FileFunction,Legend,Top*
G04 #@! TF.FilePolarity,Positive*
%FSLAX46Y46*%
G04 Gerber Fmt 4.6, Leading zero omitted, Abs format (unit mm)*
G04 Created by KiCad (PCBNEW (5.0.1)-4) date 5/20/2019 5:02:10 PM*
%MOMM*%
%LPD*%
G01*
G04 APERTURE LIST*
%ADD10C,0.100000*%
%ADD11C,0.200000*%
%ADD12C,0.120000*%
%ADD13C,0.150000*%
G04 APERTURE END LIST*
D10*
X126901190Y-73203571D02*
X127234523Y-73203571D01*
X127377380Y-73727380D02*
X126901190Y-73727380D01*
X126901190Y-72727380D01*
X127377380Y-72727380D01*
X127948809Y-73727380D02*
X127853571Y-73679761D01*
X127805952Y-73584523D01*
X127805952Y-72727380D01*
X128472619Y-73727380D02*
X128377380Y-73679761D01*
X128329761Y-73584523D01*
X128329761Y-72727380D01*
X128853571Y-73727380D02*
X128853571Y-72727380D01*
X128853571Y-73108333D02*
X128948809Y-73060714D01*
X129139285Y-73060714D01*
X129234523Y-73108333D01*
X129282142Y-73155952D01*
X129329761Y-73251190D01*
X129329761Y-73536904D01*
X129282142Y-73632142D01*
X129234523Y-73679761D01*
X129139285Y-73727380D01*
X128948809Y-73727380D01*
X128853571Y-73679761D01*
X130186904Y-73727380D02*
X130186904Y-73203571D01*
X130139285Y-73108333D01*
X130044047Y-73060714D01*
X129853571Y-73060714D01*
X129758333Y-73108333D01*
X130186904Y-73679761D02*
X130091666Y-73727380D01*
X129853571Y-73727380D01*
X129758333Y-73679761D01*
X129710714Y-73584523D01*
X129710714Y-73489285D01*
X129758333Y-73394047D01*
X129853571Y-73346428D01*
X130091666Y-73346428D01*
X130186904Y-73298809D01*
X130567857Y-73060714D02*
X130805952Y-73727380D01*
X131044047Y-73060714D02*
X130805952Y-73727380D01*
X130710714Y-73965476D01*
X130663095Y-74013095D01*
X130567857Y-74060714D01*
X124210714Y-74803571D02*
X123877380Y-74803571D01*
X123877380Y-75327380D02*
X123877380Y-74327380D01*
X124353571Y-74327380D01*
X125163095Y-75327380D02*
X125163095Y-74803571D01*
X125115476Y-74708333D01*
X125020238Y-74660714D01*
X124829761Y-74660714D01*
X124734523Y-74708333D01*
X125163095Y-75279761D02*
X125067857Y-75327380D01*
X124829761Y-75327380D01*
X124734523Y-75279761D01*
X124686904Y-75184523D01*
X124686904Y-75089285D01*
X124734523Y-74994047D01*
X124829761Y-74946428D01*
X125067857Y-74946428D01*
X125163095Y-74898809D01*
X125639285Y-74660714D02*
X125639285Y-75327380D01*
X125639285Y-74755952D02*
X125686904Y-74708333D01*
X125782142Y-74660714D01*
X125925000Y-74660714D01*
X126020238Y-74708333D01*
X126067857Y-74803571D01*
X126067857Y-75327380D01*
X126686904Y-75327380D02*
X126591666Y-75279761D01*
X126544047Y-75232142D01*
X126496428Y-75136904D01*
X126496428Y-74851190D01*
X126544047Y-74755952D01*
X126591666Y-74708333D01*
X126686904Y-74660714D01*
X126829761Y-74660714D01*
X126925000Y-74708333D01*
X126972619Y-74755952D01*
X127020238Y-74851190D01*
X127020238Y-75136904D01*
X126972619Y-75232142D01*
X126925000Y-75279761D01*
X126829761Y-75327380D01*
X126686904Y-75327380D01*
X127877380Y-74660714D02*
X127877380Y-75327380D01*
X127448809Y-74660714D02*
X127448809Y-75184523D01*
X127496428Y-75279761D01*
X127591666Y-75327380D01*
X127734523Y-75327380D01*
X127829761Y-75279761D01*
X127877380Y-75232142D01*
X128210714Y-74660714D02*
X128591666Y-74660714D01*
X128353571Y-74327380D02*
X128353571Y-75184523D01*
X128401190Y-75279761D01*
X128496428Y-75327380D01*
X128591666Y-75327380D01*
X130115476Y-75279761D02*
X130020238Y-75327380D01*
X129829761Y-75327380D01*
X129734523Y-75279761D01*
X129686904Y-75232142D01*
X129639285Y-75136904D01*
X129639285Y-74851190D01*
X129686904Y-74755952D01*
X129734523Y-74708333D01*
X129829761Y-74660714D01*
X130020238Y-74660714D01*
X130115476Y-74708333D01*
X130544047Y-75327380D02*
X130544047Y-74660714D01*
X130544047Y-74327380D02*
X130496428Y-74375000D01*
X130544047Y-74422619D01*
X130591666Y-74375000D01*
X130544047Y-74327380D01*
X130544047Y-74422619D01*
X131020238Y-75327380D02*
X131020238Y-74660714D01*
X131020238Y-74851190D02*
X131067857Y-74755952D01*
X131115476Y-74708333D01*
X131210714Y-74660714D01*
X131305952Y-74660714D01*
X132067857Y-75279761D02*
X131972619Y-75327380D01*
X131782142Y-75327380D01*
X131686904Y-75279761D01*
X131639285Y-75232142D01*
X131591666Y-75136904D01*
X131591666Y-74851190D01*
X131639285Y-74755952D01*
X131686904Y-74708333D01*
X131782142Y-74660714D01*
X131972619Y-74660714D01*
X132067857Y-74708333D01*
X132925000Y-74660714D02*
X132925000Y-75327380D01*
X132496428Y-74660714D02*
X132496428Y-75184523D01*
X132544047Y-75279761D01*
X132639285Y-75327380D01*
X132782142Y-75327380D01*
X132877380Y-75279761D01*
X132925000Y-75232142D01*
X133401190Y-75327380D02*
X133401190Y-74660714D01*
X133401190Y-74327380D02*
X133353571Y-74375000D01*
X133401190Y-74422619D01*
X133448809Y-74375000D01*
X133401190Y-74327380D01*
X133401190Y-74422619D01*
X133734523Y-74660714D02*
X134115476Y-74660714D01*
X133877380Y-74327380D02*
X133877380Y-75184523D01*
X133925000Y-75279761D01*
X134020238Y-75327380D01*
X134115476Y-75327380D01*
X125639285Y-76022619D02*
X125686904Y-75975000D01*
X125782142Y-75927380D01*
X126020238Y-75927380D01*
X126115476Y-75975000D01*
X126163095Y-76022619D01*
X126210714Y-76117857D01*
X126210714Y-76213095D01*
X126163095Y-76355952D01*
X125591666Y-76927380D01*
X126210714Y-76927380D01*
X126829761Y-75927380D02*
X126925000Y-75927380D01*
X127020238Y-75975000D01*
X127067857Y-76022619D01*
X127115476Y-76117857D01*
X127163095Y-76308333D01*
X127163095Y-76546428D01*
X127115476Y-76736904D01*
X127067857Y-76832142D01*
X127020238Y-76879761D01*
X126925000Y-76927380D01*
X126829761Y-76927380D01*
X126734523Y-76879761D01*
X126686904Y-76832142D01*
X126639285Y-76736904D01*
X126591666Y-76546428D01*
X126591666Y-76308333D01*
X126639285Y-76117857D01*
X126686904Y-76022619D01*
X126734523Y-75975000D01*
X126829761Y-75927380D01*
X128115476Y-76927380D02*
X127544047Y-76927380D01*
X127829761Y-76927380D02*
X127829761Y-75927380D01*
X127734523Y-76070238D01*
X127639285Y-76165476D01*
X127544047Y-76213095D01*
X128591666Y-76927380D02*
X128782142Y-76927380D01*
X128877380Y-76879761D01*
X128925000Y-76832142D01*
X129020238Y-76689285D01*
X129067857Y-76498809D01*
X129067857Y-76117857D01*
X129020238Y-76022619D01*
X128972619Y-75975000D01*
X128877380Y-75927380D01*
X128686904Y-75927380D01*
X128591666Y-75975000D01*
X128544047Y-76022619D01*
X128496428Y-76117857D01*
X128496428Y-76355952D01*
X128544047Y-76451190D01*
X128591666Y-76498809D01*
X128686904Y-76546428D01*
X128877380Y-76546428D01*
X128972619Y-76498809D01*
X129020238Y-76451190D01*
X129067857Y-76355952D01*
X129496428Y-76546428D02*
X130258333Y-76546428D01*
X130925000Y-75927380D02*
X131020238Y-75927380D01*
X131115476Y-75975000D01*
X131163095Y-76022619D01*
X131210714Y-76117857D01*
X131258333Y-76308333D01*
X131258333Y-76546428D01*
X131210714Y-76736904D01*
X131163095Y-76832142D01*
X131115476Y-76879761D01*
X131020238Y-76927380D01*
X130925000Y-76927380D01*
X130829761Y-76879761D01*
X130782142Y-76832142D01*
X130734523Y-76736904D01*
X130686904Y-76546428D01*
X130686904Y-76308333D01*
X130734523Y-76117857D01*
X130782142Y-76022619D01*
X130829761Y-75975000D01*
X130925000Y-75927380D01*
X132163095Y-75927380D02*
X131686904Y-75927380D01*
X131639285Y-76403571D01*
X131686904Y-76355952D01*
X131782142Y-76308333D01*
X132020238Y-76308333D01*
X132115476Y-76355952D01*
X132163095Y-76403571D01*
X132210714Y-76498809D01*
X132210714Y-76736904D01*
X132163095Y-76832142D01*
X132115476Y-76879761D01*
X132020238Y-76927380D01*
X131782142Y-76927380D01*
X131686904Y-76879761D01*
X131639285Y-76832142D01*
D11*
X145000000Y-72000000D02*
X115000000Y-72000000D01*
X145000000Y-95000000D02*
X145000000Y-72000000D01*
X115000000Y-95000000D02*
X145000000Y-95000000D01*
X115000000Y-72000000D02*
X115000000Y-95000000D01*
D12*
G04 #@! TO.C,J3*
X115920000Y-75380000D02*
X115920000Y-74050000D01*
X117250000Y-75380000D02*
X115920000Y-75380000D01*
X118520000Y-75380000D02*
X118520000Y-72720000D01*
X118520000Y-72720000D02*
X121120000Y-72720000D01*
X118520000Y-75380000D02*
X121120000Y-75380000D01*
X121120000Y-75380000D02*
X121120000Y-72720000D01*
D13*
G04 #@! TO.C,CON2*
X137710000Y-86980000D02*
X137710000Y-93630000D01*
X137710000Y-93630000D02*
X144290000Y-93630000D01*
X144290000Y-93630000D02*
X144290000Y-86990000D01*
X144290000Y-86990000D02*
X137690000Y-86990000D01*
G04 #@! TO.C,CON1*
X115710000Y-80680000D02*
X115710000Y-87330000D01*
X115710000Y-87330000D02*
X122290000Y-87330000D01*
X122290000Y-87330000D02*
X122290000Y-80690000D01*
X122290000Y-80690000D02*
X115690000Y-80690000D01*
G04 #@! TO.C,CON3*
X144290000Y-74390000D02*
X137690000Y-74390000D01*
X144290000Y-81030000D02*
X144290000Y-74390000D01*
X137710000Y-81030000D02*
X144290000Y-81030000D01*
X137710000Y-74380000D02*
X137710000Y-81030000D01*
D12*
G04 #@! TO.C,R1*
X136880000Y-84250000D02*
X136880000Y-83750000D01*
X135820000Y-83750000D02*
X135820000Y-84250000D01*
G04 #@! TO.C,C1*
X118225000Y-77145000D02*
X118725000Y-77145000D01*
X118725000Y-76205000D02*
X118225000Y-76205000D01*
G04 #@! TD*
M02*
