G04 #@! TF.GenerationSoftware,KiCad,Pcbnew,(5.0.1)-4*
G04 #@! TF.CreationDate,2019-05-20T17:02:09-07:00*
G04 #@! TF.ProjectId,Fanout_circuit,46616E6F75745F636972637569742E6B,rev?*
G04 #@! TF.SameCoordinates,Original*
G04 #@! TF.FileFunction,Copper,L2,Inr,Plane*
G04 #@! TF.FilePolarity,Positive*
%FSLAX46Y46*%
G04 Gerber Fmt 4.6, Leading zero omitted, Abs format (unit mm)*
G04 Created by KiCad (PCBNEW (5.0.1)-4) date 5/20/2019 5:02:09 PM*
%MOMM*%
%LPD*%
G01*
G04 APERTURE LIST*
G04 #@! TA.AperFunction,ViaPad*
%ADD10O,1.700000X1.700000*%
G04 #@! TD*
G04 #@! TA.AperFunction,ViaPad*
%ADD11R,1.700000X1.700000*%
G04 #@! TD*
G04 #@! TA.AperFunction,ViaPad*
%ADD12C,0.800000*%
G04 #@! TD*
G04 #@! TA.AperFunction,Conductor*
%ADD13C,0.254000*%
G04 #@! TD*
G04 APERTURE END LIST*
D10*
G04 #@! TO.N,GND*
G04 #@! TO.C,J3*
X119790000Y-74050000D03*
D11*
G04 #@! TO.N,+5V*
X117250000Y-74050000D03*
G04 #@! TD*
D12*
G04 #@! TO.N,GND*
X140950000Y-87950000D03*
X143375000Y-90125000D03*
X141025000Y-92625000D03*
X136550000Y-91525000D03*
X134925000Y-90725000D03*
X133975000Y-89675000D03*
X132925000Y-88650000D03*
X131925000Y-87625000D03*
X130775000Y-86475000D03*
X129750000Y-85350000D03*
X128400000Y-85175000D03*
X126825000Y-85175000D03*
X125275000Y-85150000D03*
X123800000Y-85150000D03*
X123300000Y-86400000D03*
X123250000Y-81625000D03*
X123775000Y-82750000D03*
X125250000Y-82800000D03*
X126800000Y-82825000D03*
X128300000Y-82825000D03*
X129650000Y-82800000D03*
X130775000Y-81675000D03*
X131625000Y-80775000D03*
X132575000Y-79825000D03*
X133550000Y-78850000D03*
X134550000Y-77900000D03*
X135500000Y-76875000D03*
X136825000Y-76625000D03*
X140975000Y-75400000D03*
X143350000Y-77825000D03*
X141000000Y-80050000D03*
X137200000Y-78650000D03*
X135450000Y-80100000D03*
X134400000Y-81200000D03*
X133275000Y-82325000D03*
X131650000Y-83975000D03*
X132850000Y-85200000D03*
X134075000Y-86450000D03*
X135450000Y-87950000D03*
X134775000Y-83900000D03*
X135325000Y-82225000D03*
X135225000Y-85525000D03*
X137150000Y-89425000D03*
X138625000Y-85300000D03*
X138625000Y-82625000D03*
X141000000Y-82525000D03*
X143250000Y-82575000D03*
X141000000Y-85300000D03*
X143300000Y-85350000D03*
X118975000Y-81725000D03*
X116575000Y-84125000D03*
X119025000Y-86325000D03*
X116600000Y-88500000D03*
X119175000Y-88525000D03*
X121425000Y-88450000D03*
X124500000Y-88500000D03*
X127950000Y-88500000D03*
X130675000Y-88525000D03*
X130825000Y-90875000D03*
X127750000Y-90725000D03*
X124575000Y-90675000D03*
X121475000Y-90850000D03*
X118850000Y-90650000D03*
X116575000Y-90675000D03*
X116550000Y-93350000D03*
X119025000Y-93325000D03*
X122025000Y-93325000D03*
X125250000Y-93325000D03*
X128175000Y-93250000D03*
X131350000Y-93325000D03*
X134875000Y-93325000D03*
X116575000Y-79375000D03*
X118975000Y-79425000D03*
X121625000Y-79475000D03*
X121600000Y-77300000D03*
X124850000Y-77300000D03*
X124925000Y-80300000D03*
X129150000Y-80425000D03*
X129050000Y-77475000D03*
X132225000Y-77675000D03*
X138575000Y-73100000D03*
X140975000Y-73075000D03*
X143350000Y-73075000D03*
X135600000Y-73125000D03*
X122650000Y-73250000D03*
G04 #@! TD*
D13*
G04 #@! TO.N,GND*
G36*
X144873000Y-94873000D02*
X115127000Y-94873000D01*
X115127000Y-73200000D01*
X116066594Y-73200000D01*
X116066594Y-74900000D01*
X116091973Y-75027589D01*
X116164246Y-75135754D01*
X116272411Y-75208027D01*
X116400000Y-75233406D01*
X118100000Y-75233406D01*
X118227589Y-75208027D01*
X118335754Y-75135754D01*
X118408027Y-75027589D01*
X118433406Y-74900000D01*
X118433406Y-73200000D01*
X118408027Y-73072411D01*
X118335754Y-72964246D01*
X118227589Y-72891973D01*
X118100000Y-72866594D01*
X116400000Y-72866594D01*
X116272411Y-72891973D01*
X116164246Y-72964246D01*
X116091973Y-73072411D01*
X116066594Y-73200000D01*
X115127000Y-73200000D01*
X115127000Y-72127000D01*
X144873000Y-72127000D01*
X144873000Y-94873000D01*
X144873000Y-94873000D01*
G37*
X144873000Y-94873000D02*
X115127000Y-94873000D01*
X115127000Y-73200000D01*
X116066594Y-73200000D01*
X116066594Y-74900000D01*
X116091973Y-75027589D01*
X116164246Y-75135754D01*
X116272411Y-75208027D01*
X116400000Y-75233406D01*
X118100000Y-75233406D01*
X118227589Y-75208027D01*
X118335754Y-75135754D01*
X118408027Y-75027589D01*
X118433406Y-74900000D01*
X118433406Y-73200000D01*
X118408027Y-73072411D01*
X118335754Y-72964246D01*
X118227589Y-72891973D01*
X118100000Y-72866594D01*
X116400000Y-72866594D01*
X116272411Y-72891973D01*
X116164246Y-72964246D01*
X116091973Y-73072411D01*
X116066594Y-73200000D01*
X115127000Y-73200000D01*
X115127000Y-72127000D01*
X144873000Y-72127000D01*
X144873000Y-94873000D01*
G04 #@! TD*
M02*
