G04 #@! TF.GenerationSoftware,KiCad,Pcbnew,(5.0.1)-4*
G04 #@! TF.CreationDate,2019-05-20T17:02:10-07:00*
G04 #@! TF.ProjectId,Fanout_circuit,46616E6F75745F636972637569742E6B,rev?*
G04 #@! TF.SameCoordinates,Original*
G04 #@! TF.FileFunction,Soldermask,Bot*
G04 #@! TF.FilePolarity,Negative*
%FSLAX46Y46*%
G04 Gerber Fmt 4.6, Leading zero omitted, Abs format (unit mm)*
G04 Created by KiCad (PCBNEW (5.0.1)-4) date 5/20/2019 5:02:10 PM*
%MOMM*%
%LPD*%
G01*
G04 APERTURE LIST*
%ADD10C,0.200000*%
G04 APERTURE END LIST*
D10*
G36*
X116681552Y-92916331D02*
X116763625Y-92950327D01*
X116763626Y-92950328D01*
X116763629Y-92950329D01*
X116837496Y-92999686D01*
X116837500Y-92999689D01*
X116900311Y-93062500D01*
X116900313Y-93062503D01*
X116900314Y-93062504D01*
X116949671Y-93136371D01*
X116949672Y-93136374D01*
X116949673Y-93136375D01*
X116983669Y-93218448D01*
X117001000Y-93305579D01*
X117001000Y-93394421D01*
X116983669Y-93481552D01*
X116949673Y-93563625D01*
X116949671Y-93563629D01*
X116917016Y-93612500D01*
X116900311Y-93637500D01*
X116837500Y-93700311D01*
X116837497Y-93700313D01*
X116837496Y-93700314D01*
X116763629Y-93749671D01*
X116763626Y-93749672D01*
X116763625Y-93749673D01*
X116681552Y-93783669D01*
X116594421Y-93801000D01*
X116505579Y-93801000D01*
X116418448Y-93783669D01*
X116336375Y-93749673D01*
X116336374Y-93749672D01*
X116336371Y-93749671D01*
X116262504Y-93700314D01*
X116262503Y-93700313D01*
X116262500Y-93700311D01*
X116199689Y-93637500D01*
X116182984Y-93612500D01*
X116150329Y-93563629D01*
X116150327Y-93563625D01*
X116116331Y-93481552D01*
X116099000Y-93394421D01*
X116099000Y-93305579D01*
X116116331Y-93218448D01*
X116150327Y-93136375D01*
X116150328Y-93136374D01*
X116150329Y-93136371D01*
X116199686Y-93062504D01*
X116199687Y-93062503D01*
X116199689Y-93062500D01*
X116262500Y-92999689D01*
X116262504Y-92999686D01*
X116336371Y-92950329D01*
X116336374Y-92950328D01*
X116336375Y-92950327D01*
X116418448Y-92916331D01*
X116505579Y-92899000D01*
X116594421Y-92899000D01*
X116681552Y-92916331D01*
X116681552Y-92916331D01*
G37*
G36*
X135006552Y-92891331D02*
X135088625Y-92925327D01*
X135088626Y-92925328D01*
X135088629Y-92925329D01*
X135162496Y-92974686D01*
X135162500Y-92974689D01*
X135225311Y-93037500D01*
X135225313Y-93037503D01*
X135225314Y-93037504D01*
X135274671Y-93111371D01*
X135274672Y-93111374D01*
X135274673Y-93111375D01*
X135308669Y-93193448D01*
X135326000Y-93280579D01*
X135326000Y-93369421D01*
X135308669Y-93456552D01*
X135275139Y-93537500D01*
X135274671Y-93538629D01*
X135225314Y-93612496D01*
X135225311Y-93612500D01*
X135162500Y-93675311D01*
X135162497Y-93675313D01*
X135162496Y-93675314D01*
X135088629Y-93724671D01*
X135088626Y-93724672D01*
X135088625Y-93724673D01*
X135006552Y-93758669D01*
X134919421Y-93776000D01*
X134830579Y-93776000D01*
X134743448Y-93758669D01*
X134661375Y-93724673D01*
X134661374Y-93724672D01*
X134661371Y-93724671D01*
X134587504Y-93675314D01*
X134587503Y-93675313D01*
X134587500Y-93675311D01*
X134524689Y-93612500D01*
X134524686Y-93612496D01*
X134475329Y-93538629D01*
X134474861Y-93537500D01*
X134441331Y-93456552D01*
X134424000Y-93369421D01*
X134424000Y-93280579D01*
X134441331Y-93193448D01*
X134475327Y-93111375D01*
X134475328Y-93111374D01*
X134475329Y-93111371D01*
X134524686Y-93037504D01*
X134524687Y-93037503D01*
X134524689Y-93037500D01*
X134587500Y-92974689D01*
X134587504Y-92974686D01*
X134661371Y-92925329D01*
X134661374Y-92925328D01*
X134661375Y-92925327D01*
X134743448Y-92891331D01*
X134830579Y-92874000D01*
X134919421Y-92874000D01*
X135006552Y-92891331D01*
X135006552Y-92891331D01*
G37*
G36*
X131481552Y-92891331D02*
X131563625Y-92925327D01*
X131563626Y-92925328D01*
X131563629Y-92925329D01*
X131637496Y-92974686D01*
X131637500Y-92974689D01*
X131700311Y-93037500D01*
X131700313Y-93037503D01*
X131700314Y-93037504D01*
X131749671Y-93111371D01*
X131749672Y-93111374D01*
X131749673Y-93111375D01*
X131783669Y-93193448D01*
X131801000Y-93280579D01*
X131801000Y-93369421D01*
X131783669Y-93456552D01*
X131750139Y-93537500D01*
X131749671Y-93538629D01*
X131700314Y-93612496D01*
X131700311Y-93612500D01*
X131637500Y-93675311D01*
X131637497Y-93675313D01*
X131637496Y-93675314D01*
X131563629Y-93724671D01*
X131563626Y-93724672D01*
X131563625Y-93724673D01*
X131481552Y-93758669D01*
X131394421Y-93776000D01*
X131305579Y-93776000D01*
X131218448Y-93758669D01*
X131136375Y-93724673D01*
X131136374Y-93724672D01*
X131136371Y-93724671D01*
X131062504Y-93675314D01*
X131062503Y-93675313D01*
X131062500Y-93675311D01*
X130999689Y-93612500D01*
X130999686Y-93612496D01*
X130950329Y-93538629D01*
X130949861Y-93537500D01*
X130916331Y-93456552D01*
X130899000Y-93369421D01*
X130899000Y-93280579D01*
X130916331Y-93193448D01*
X130950327Y-93111375D01*
X130950328Y-93111374D01*
X130950329Y-93111371D01*
X130999686Y-93037504D01*
X130999687Y-93037503D01*
X130999689Y-93037500D01*
X131062500Y-92974689D01*
X131062504Y-92974686D01*
X131136371Y-92925329D01*
X131136374Y-92925328D01*
X131136375Y-92925327D01*
X131218448Y-92891331D01*
X131305579Y-92874000D01*
X131394421Y-92874000D01*
X131481552Y-92891331D01*
X131481552Y-92891331D01*
G37*
G36*
X125381552Y-92891331D02*
X125463625Y-92925327D01*
X125463626Y-92925328D01*
X125463629Y-92925329D01*
X125537496Y-92974686D01*
X125537500Y-92974689D01*
X125600311Y-93037500D01*
X125600313Y-93037503D01*
X125600314Y-93037504D01*
X125649671Y-93111371D01*
X125649672Y-93111374D01*
X125649673Y-93111375D01*
X125683669Y-93193448D01*
X125701000Y-93280579D01*
X125701000Y-93369421D01*
X125683669Y-93456552D01*
X125650139Y-93537500D01*
X125649671Y-93538629D01*
X125600314Y-93612496D01*
X125600311Y-93612500D01*
X125537500Y-93675311D01*
X125537497Y-93675313D01*
X125537496Y-93675314D01*
X125463629Y-93724671D01*
X125463626Y-93724672D01*
X125463625Y-93724673D01*
X125381552Y-93758669D01*
X125294421Y-93776000D01*
X125205579Y-93776000D01*
X125118448Y-93758669D01*
X125036375Y-93724673D01*
X125036374Y-93724672D01*
X125036371Y-93724671D01*
X124962504Y-93675314D01*
X124962503Y-93675313D01*
X124962500Y-93675311D01*
X124899689Y-93612500D01*
X124899686Y-93612496D01*
X124850329Y-93538629D01*
X124849861Y-93537500D01*
X124816331Y-93456552D01*
X124799000Y-93369421D01*
X124799000Y-93280579D01*
X124816331Y-93193448D01*
X124850327Y-93111375D01*
X124850328Y-93111374D01*
X124850329Y-93111371D01*
X124899686Y-93037504D01*
X124899687Y-93037503D01*
X124899689Y-93037500D01*
X124962500Y-92974689D01*
X124962504Y-92974686D01*
X125036371Y-92925329D01*
X125036374Y-92925328D01*
X125036375Y-92925327D01*
X125118448Y-92891331D01*
X125205579Y-92874000D01*
X125294421Y-92874000D01*
X125381552Y-92891331D01*
X125381552Y-92891331D01*
G37*
G36*
X119156552Y-92891331D02*
X119238625Y-92925327D01*
X119238626Y-92925328D01*
X119238629Y-92925329D01*
X119312496Y-92974686D01*
X119312500Y-92974689D01*
X119375311Y-93037500D01*
X119375313Y-93037503D01*
X119375314Y-93037504D01*
X119424671Y-93111371D01*
X119424672Y-93111374D01*
X119424673Y-93111375D01*
X119458669Y-93193448D01*
X119476000Y-93280579D01*
X119476000Y-93369421D01*
X119458669Y-93456552D01*
X119425139Y-93537500D01*
X119424671Y-93538629D01*
X119375314Y-93612496D01*
X119375311Y-93612500D01*
X119312500Y-93675311D01*
X119312497Y-93675313D01*
X119312496Y-93675314D01*
X119238629Y-93724671D01*
X119238626Y-93724672D01*
X119238625Y-93724673D01*
X119156552Y-93758669D01*
X119069421Y-93776000D01*
X118980579Y-93776000D01*
X118893448Y-93758669D01*
X118811375Y-93724673D01*
X118811374Y-93724672D01*
X118811371Y-93724671D01*
X118737504Y-93675314D01*
X118737503Y-93675313D01*
X118737500Y-93675311D01*
X118674689Y-93612500D01*
X118674686Y-93612496D01*
X118625329Y-93538629D01*
X118624861Y-93537500D01*
X118591331Y-93456552D01*
X118574000Y-93369421D01*
X118574000Y-93280579D01*
X118591331Y-93193448D01*
X118625327Y-93111375D01*
X118625328Y-93111374D01*
X118625329Y-93111371D01*
X118674686Y-93037504D01*
X118674687Y-93037503D01*
X118674689Y-93037500D01*
X118737500Y-92974689D01*
X118737504Y-92974686D01*
X118811371Y-92925329D01*
X118811374Y-92925328D01*
X118811375Y-92925327D01*
X118893448Y-92891331D01*
X118980579Y-92874000D01*
X119069421Y-92874000D01*
X119156552Y-92891331D01*
X119156552Y-92891331D01*
G37*
G36*
X122156552Y-92891331D02*
X122238625Y-92925327D01*
X122238626Y-92925328D01*
X122238629Y-92925329D01*
X122312496Y-92974686D01*
X122312500Y-92974689D01*
X122375311Y-93037500D01*
X122375313Y-93037503D01*
X122375314Y-93037504D01*
X122424671Y-93111371D01*
X122424672Y-93111374D01*
X122424673Y-93111375D01*
X122458669Y-93193448D01*
X122476000Y-93280579D01*
X122476000Y-93369421D01*
X122458669Y-93456552D01*
X122425139Y-93537500D01*
X122424671Y-93538629D01*
X122375314Y-93612496D01*
X122375311Y-93612500D01*
X122312500Y-93675311D01*
X122312497Y-93675313D01*
X122312496Y-93675314D01*
X122238629Y-93724671D01*
X122238626Y-93724672D01*
X122238625Y-93724673D01*
X122156552Y-93758669D01*
X122069421Y-93776000D01*
X121980579Y-93776000D01*
X121893448Y-93758669D01*
X121811375Y-93724673D01*
X121811374Y-93724672D01*
X121811371Y-93724671D01*
X121737504Y-93675314D01*
X121737503Y-93675313D01*
X121737500Y-93675311D01*
X121674689Y-93612500D01*
X121674686Y-93612496D01*
X121625329Y-93538629D01*
X121624861Y-93537500D01*
X121591331Y-93456552D01*
X121574000Y-93369421D01*
X121574000Y-93280579D01*
X121591331Y-93193448D01*
X121625327Y-93111375D01*
X121625328Y-93111374D01*
X121625329Y-93111371D01*
X121674686Y-93037504D01*
X121674687Y-93037503D01*
X121674689Y-93037500D01*
X121737500Y-92974689D01*
X121737504Y-92974686D01*
X121811371Y-92925329D01*
X121811374Y-92925328D01*
X121811375Y-92925327D01*
X121893448Y-92891331D01*
X121980579Y-92874000D01*
X122069421Y-92874000D01*
X122156552Y-92891331D01*
X122156552Y-92891331D01*
G37*
G36*
X128306552Y-92816331D02*
X128388625Y-92850327D01*
X128388626Y-92850328D01*
X128388629Y-92850329D01*
X128461469Y-92899000D01*
X128462500Y-92899689D01*
X128525311Y-92962500D01*
X128525313Y-92962503D01*
X128525314Y-92962504D01*
X128574671Y-93036371D01*
X128574672Y-93036374D01*
X128574673Y-93036375D01*
X128608669Y-93118448D01*
X128626000Y-93205579D01*
X128626000Y-93294421D01*
X128608669Y-93381552D01*
X128574673Y-93463625D01*
X128574671Y-93463629D01*
X128525314Y-93537496D01*
X128525311Y-93537500D01*
X128462500Y-93600311D01*
X128462497Y-93600313D01*
X128462496Y-93600314D01*
X128388629Y-93649671D01*
X128388626Y-93649672D01*
X128388625Y-93649673D01*
X128306552Y-93683669D01*
X128219421Y-93701000D01*
X128130579Y-93701000D01*
X128043448Y-93683669D01*
X127961375Y-93649673D01*
X127961374Y-93649672D01*
X127961371Y-93649671D01*
X127887504Y-93600314D01*
X127887503Y-93600313D01*
X127887500Y-93600311D01*
X127824689Y-93537500D01*
X127824686Y-93537496D01*
X127775329Y-93463629D01*
X127775327Y-93463625D01*
X127741331Y-93381552D01*
X127724000Y-93294421D01*
X127724000Y-93205579D01*
X127741331Y-93118448D01*
X127775327Y-93036375D01*
X127775328Y-93036374D01*
X127775329Y-93036371D01*
X127824686Y-92962504D01*
X127824687Y-92962503D01*
X127824689Y-92962500D01*
X127887500Y-92899689D01*
X127888531Y-92899000D01*
X127961371Y-92850329D01*
X127961374Y-92850328D01*
X127961375Y-92850327D01*
X128043448Y-92816331D01*
X128130579Y-92799000D01*
X128219421Y-92799000D01*
X128306552Y-92816331D01*
X128306552Y-92816331D01*
G37*
G36*
X141156552Y-92191331D02*
X141238625Y-92225327D01*
X141238626Y-92225328D01*
X141238629Y-92225329D01*
X141312496Y-92274686D01*
X141312500Y-92274689D01*
X141375311Y-92337500D01*
X141375313Y-92337503D01*
X141375314Y-92337504D01*
X141424671Y-92411371D01*
X141424672Y-92411374D01*
X141424673Y-92411375D01*
X141458669Y-92493448D01*
X141476000Y-92580579D01*
X141476000Y-92669421D01*
X141458669Y-92756552D01*
X141433907Y-92816332D01*
X141424671Y-92838629D01*
X141383873Y-92899686D01*
X141375311Y-92912500D01*
X141312500Y-92975311D01*
X141312497Y-92975313D01*
X141312496Y-92975314D01*
X141238629Y-93024671D01*
X141238626Y-93024672D01*
X141238625Y-93024673D01*
X141156552Y-93058669D01*
X141069421Y-93076000D01*
X140980579Y-93076000D01*
X140893448Y-93058669D01*
X140811375Y-93024673D01*
X140811374Y-93024672D01*
X140811371Y-93024671D01*
X140737504Y-92975314D01*
X140737503Y-92975313D01*
X140737500Y-92975311D01*
X140674689Y-92912500D01*
X140666127Y-92899686D01*
X140625329Y-92838629D01*
X140616093Y-92816332D01*
X140591331Y-92756552D01*
X140574000Y-92669421D01*
X140574000Y-92580579D01*
X140591331Y-92493448D01*
X140625327Y-92411375D01*
X140625328Y-92411374D01*
X140625329Y-92411371D01*
X140674686Y-92337504D01*
X140674687Y-92337503D01*
X140674689Y-92337500D01*
X140737500Y-92274689D01*
X140737504Y-92274686D01*
X140811371Y-92225329D01*
X140811374Y-92225328D01*
X140811375Y-92225327D01*
X140893448Y-92191331D01*
X140980579Y-92174000D01*
X141069421Y-92174000D01*
X141156552Y-92191331D01*
X141156552Y-92191331D01*
G37*
G36*
X136681552Y-91091331D02*
X136763625Y-91125327D01*
X136763626Y-91125328D01*
X136763629Y-91125329D01*
X136837496Y-91174686D01*
X136837500Y-91174689D01*
X136900311Y-91237500D01*
X136900313Y-91237503D01*
X136900314Y-91237504D01*
X136949671Y-91311371D01*
X136949672Y-91311374D01*
X136949673Y-91311375D01*
X136983669Y-91393448D01*
X137001000Y-91480579D01*
X137001000Y-91569421D01*
X136983669Y-91656552D01*
X136949673Y-91738625D01*
X136949671Y-91738629D01*
X136900314Y-91812496D01*
X136900311Y-91812500D01*
X136837500Y-91875311D01*
X136837497Y-91875313D01*
X136837496Y-91875314D01*
X136763629Y-91924671D01*
X136763626Y-91924672D01*
X136763625Y-91924673D01*
X136681552Y-91958669D01*
X136594421Y-91976000D01*
X136505579Y-91976000D01*
X136418448Y-91958669D01*
X136336375Y-91924673D01*
X136336374Y-91924672D01*
X136336371Y-91924671D01*
X136262504Y-91875314D01*
X136262503Y-91875313D01*
X136262500Y-91875311D01*
X136199689Y-91812500D01*
X136199686Y-91812496D01*
X136150329Y-91738629D01*
X136150327Y-91738625D01*
X136116331Y-91656552D01*
X136099000Y-91569421D01*
X136099000Y-91480579D01*
X136116331Y-91393448D01*
X136150327Y-91311375D01*
X136150328Y-91311374D01*
X136150329Y-91311371D01*
X136199686Y-91237504D01*
X136199687Y-91237503D01*
X136199689Y-91237500D01*
X136262500Y-91174689D01*
X136262504Y-91174686D01*
X136336371Y-91125329D01*
X136336374Y-91125328D01*
X136336375Y-91125327D01*
X136418448Y-91091331D01*
X136505579Y-91074000D01*
X136594421Y-91074000D01*
X136681552Y-91091331D01*
X136681552Y-91091331D01*
G37*
G36*
X130956552Y-90441331D02*
X131038625Y-90475327D01*
X131038626Y-90475328D01*
X131038629Y-90475329D01*
X131112496Y-90524686D01*
X131112500Y-90524689D01*
X131175311Y-90587500D01*
X131175313Y-90587503D01*
X131175314Y-90587504D01*
X131224671Y-90661371D01*
X131224672Y-90661374D01*
X131224673Y-90661375D01*
X131258669Y-90743448D01*
X131276000Y-90830579D01*
X131276000Y-90919421D01*
X131258669Y-91006552D01*
X131224673Y-91088625D01*
X131224671Y-91088629D01*
X131177871Y-91158669D01*
X131175311Y-91162500D01*
X131112500Y-91225311D01*
X131112497Y-91225313D01*
X131112496Y-91225314D01*
X131038629Y-91274671D01*
X131038626Y-91274672D01*
X131038625Y-91274673D01*
X130956552Y-91308669D01*
X130869421Y-91326000D01*
X130780579Y-91326000D01*
X130693448Y-91308669D01*
X130611375Y-91274673D01*
X130611374Y-91274672D01*
X130611371Y-91274671D01*
X130537504Y-91225314D01*
X130537503Y-91225313D01*
X130537500Y-91225311D01*
X130474689Y-91162500D01*
X130472129Y-91158669D01*
X130425329Y-91088629D01*
X130425327Y-91088625D01*
X130391331Y-91006552D01*
X130374000Y-90919421D01*
X130374000Y-90830579D01*
X130391331Y-90743448D01*
X130425327Y-90661375D01*
X130425328Y-90661374D01*
X130425329Y-90661371D01*
X130474686Y-90587504D01*
X130474687Y-90587503D01*
X130474689Y-90587500D01*
X130537500Y-90524689D01*
X130537504Y-90524686D01*
X130611371Y-90475329D01*
X130611374Y-90475328D01*
X130611375Y-90475327D01*
X130693448Y-90441331D01*
X130780579Y-90424000D01*
X130869421Y-90424000D01*
X130956552Y-90441331D01*
X130956552Y-90441331D01*
G37*
G36*
X121606552Y-90416331D02*
X121688625Y-90450327D01*
X121688626Y-90450328D01*
X121688629Y-90450329D01*
X121762496Y-90499686D01*
X121762500Y-90499689D01*
X121825311Y-90562500D01*
X121825313Y-90562503D01*
X121825314Y-90562504D01*
X121874671Y-90636371D01*
X121874672Y-90636374D01*
X121874673Y-90636375D01*
X121908669Y-90718448D01*
X121926000Y-90805579D01*
X121926000Y-90894421D01*
X121908669Y-90981552D01*
X121880453Y-91049671D01*
X121874671Y-91063629D01*
X121832995Y-91126000D01*
X121825311Y-91137500D01*
X121762500Y-91200311D01*
X121762497Y-91200313D01*
X121762496Y-91200314D01*
X121688629Y-91249671D01*
X121688626Y-91249672D01*
X121688625Y-91249673D01*
X121606552Y-91283669D01*
X121519421Y-91301000D01*
X121430579Y-91301000D01*
X121343448Y-91283669D01*
X121261375Y-91249673D01*
X121261374Y-91249672D01*
X121261371Y-91249671D01*
X121187504Y-91200314D01*
X121187503Y-91200313D01*
X121187500Y-91200311D01*
X121124689Y-91137500D01*
X121117005Y-91126000D01*
X121075329Y-91063629D01*
X121069547Y-91049671D01*
X121041331Y-90981552D01*
X121024000Y-90894421D01*
X121024000Y-90805579D01*
X121041331Y-90718448D01*
X121075327Y-90636375D01*
X121075328Y-90636374D01*
X121075329Y-90636371D01*
X121124686Y-90562504D01*
X121124687Y-90562503D01*
X121124689Y-90562500D01*
X121187500Y-90499689D01*
X121187504Y-90499686D01*
X121261371Y-90450329D01*
X121261374Y-90450328D01*
X121261375Y-90450327D01*
X121343448Y-90416331D01*
X121430579Y-90399000D01*
X121519421Y-90399000D01*
X121606552Y-90416331D01*
X121606552Y-90416331D01*
G37*
G36*
X135056552Y-90291331D02*
X135138625Y-90325327D01*
X135138626Y-90325328D01*
X135138629Y-90325329D01*
X135212496Y-90374686D01*
X135212500Y-90374689D01*
X135275311Y-90437500D01*
X135275313Y-90437503D01*
X135275314Y-90437504D01*
X135324671Y-90511371D01*
X135324672Y-90511374D01*
X135324673Y-90511375D01*
X135358669Y-90593448D01*
X135376000Y-90680579D01*
X135376000Y-90769421D01*
X135358669Y-90856552D01*
X135325139Y-90937500D01*
X135324671Y-90938629D01*
X135275314Y-91012496D01*
X135275311Y-91012500D01*
X135212500Y-91075311D01*
X135212497Y-91075313D01*
X135212496Y-91075314D01*
X135138629Y-91124671D01*
X135138626Y-91124672D01*
X135138625Y-91124673D01*
X135056552Y-91158669D01*
X134969421Y-91176000D01*
X134880579Y-91176000D01*
X134793448Y-91158669D01*
X134711375Y-91124673D01*
X134711374Y-91124672D01*
X134711371Y-91124671D01*
X134637504Y-91075314D01*
X134637503Y-91075313D01*
X134637500Y-91075311D01*
X134574689Y-91012500D01*
X134574686Y-91012496D01*
X134525329Y-90938629D01*
X134524861Y-90937500D01*
X134491331Y-90856552D01*
X134474000Y-90769421D01*
X134474000Y-90680579D01*
X134491331Y-90593448D01*
X134525327Y-90511375D01*
X134525328Y-90511374D01*
X134525329Y-90511371D01*
X134574686Y-90437504D01*
X134574687Y-90437503D01*
X134574689Y-90437500D01*
X134637500Y-90374689D01*
X134637504Y-90374686D01*
X134711371Y-90325329D01*
X134711374Y-90325328D01*
X134711375Y-90325327D01*
X134793448Y-90291331D01*
X134880579Y-90274000D01*
X134969421Y-90274000D01*
X135056552Y-90291331D01*
X135056552Y-90291331D01*
G37*
G36*
X127881552Y-90291331D02*
X127963625Y-90325327D01*
X127963626Y-90325328D01*
X127963629Y-90325329D01*
X128037496Y-90374686D01*
X128037500Y-90374689D01*
X128100311Y-90437500D01*
X128100313Y-90437503D01*
X128100314Y-90437504D01*
X128149671Y-90511371D01*
X128149672Y-90511374D01*
X128149673Y-90511375D01*
X128183669Y-90593448D01*
X128201000Y-90680579D01*
X128201000Y-90769421D01*
X128183669Y-90856552D01*
X128150139Y-90937500D01*
X128149671Y-90938629D01*
X128100314Y-91012496D01*
X128100311Y-91012500D01*
X128037500Y-91075311D01*
X128037497Y-91075313D01*
X128037496Y-91075314D01*
X127963629Y-91124671D01*
X127963626Y-91124672D01*
X127963625Y-91124673D01*
X127881552Y-91158669D01*
X127794421Y-91176000D01*
X127705579Y-91176000D01*
X127618448Y-91158669D01*
X127536375Y-91124673D01*
X127536374Y-91124672D01*
X127536371Y-91124671D01*
X127462504Y-91075314D01*
X127462503Y-91075313D01*
X127462500Y-91075311D01*
X127399689Y-91012500D01*
X127399686Y-91012496D01*
X127350329Y-90938629D01*
X127349861Y-90937500D01*
X127316331Y-90856552D01*
X127299000Y-90769421D01*
X127299000Y-90680579D01*
X127316331Y-90593448D01*
X127350327Y-90511375D01*
X127350328Y-90511374D01*
X127350329Y-90511371D01*
X127399686Y-90437504D01*
X127399687Y-90437503D01*
X127399689Y-90437500D01*
X127462500Y-90374689D01*
X127462504Y-90374686D01*
X127536371Y-90325329D01*
X127536374Y-90325328D01*
X127536375Y-90325327D01*
X127618448Y-90291331D01*
X127705579Y-90274000D01*
X127794421Y-90274000D01*
X127881552Y-90291331D01*
X127881552Y-90291331D01*
G37*
G36*
X124706552Y-90241331D02*
X124788625Y-90275327D01*
X124788626Y-90275328D01*
X124788629Y-90275329D01*
X124862496Y-90324686D01*
X124862500Y-90324689D01*
X124925311Y-90387500D01*
X124925313Y-90387503D01*
X124925314Y-90387504D01*
X124974671Y-90461371D01*
X124974672Y-90461374D01*
X124974673Y-90461375D01*
X125008669Y-90543448D01*
X125026000Y-90630579D01*
X125026000Y-90719421D01*
X125008669Y-90806552D01*
X124974673Y-90888625D01*
X124974671Y-90888629D01*
X124925314Y-90962496D01*
X124925311Y-90962500D01*
X124862500Y-91025311D01*
X124862497Y-91025313D01*
X124862496Y-91025314D01*
X124788629Y-91074671D01*
X124788626Y-91074672D01*
X124788625Y-91074673D01*
X124706552Y-91108669D01*
X124619421Y-91126000D01*
X124530579Y-91126000D01*
X124443448Y-91108669D01*
X124361375Y-91074673D01*
X124361374Y-91074672D01*
X124361371Y-91074671D01*
X124287504Y-91025314D01*
X124287503Y-91025313D01*
X124287500Y-91025311D01*
X124224689Y-90962500D01*
X124224686Y-90962496D01*
X124175329Y-90888629D01*
X124175327Y-90888625D01*
X124141331Y-90806552D01*
X124124000Y-90719421D01*
X124124000Y-90630579D01*
X124141331Y-90543448D01*
X124175327Y-90461375D01*
X124175328Y-90461374D01*
X124175329Y-90461371D01*
X124224686Y-90387504D01*
X124224687Y-90387503D01*
X124224689Y-90387500D01*
X124287500Y-90324689D01*
X124287504Y-90324686D01*
X124361371Y-90275329D01*
X124361374Y-90275328D01*
X124361375Y-90275327D01*
X124443448Y-90241331D01*
X124530579Y-90224000D01*
X124619421Y-90224000D01*
X124706552Y-90241331D01*
X124706552Y-90241331D01*
G37*
G36*
X116706552Y-90241331D02*
X116788625Y-90275327D01*
X116788626Y-90275328D01*
X116788629Y-90275329D01*
X116862496Y-90324686D01*
X116862500Y-90324689D01*
X116925311Y-90387500D01*
X116925313Y-90387503D01*
X116925314Y-90387504D01*
X116974671Y-90461371D01*
X116974672Y-90461374D01*
X116974673Y-90461375D01*
X117008669Y-90543448D01*
X117026000Y-90630579D01*
X117026000Y-90719421D01*
X117008669Y-90806552D01*
X116974673Y-90888625D01*
X116974671Y-90888629D01*
X116925314Y-90962496D01*
X116925311Y-90962500D01*
X116862500Y-91025311D01*
X116862497Y-91025313D01*
X116862496Y-91025314D01*
X116788629Y-91074671D01*
X116788626Y-91074672D01*
X116788625Y-91074673D01*
X116706552Y-91108669D01*
X116619421Y-91126000D01*
X116530579Y-91126000D01*
X116443448Y-91108669D01*
X116361375Y-91074673D01*
X116361374Y-91074672D01*
X116361371Y-91074671D01*
X116287504Y-91025314D01*
X116287503Y-91025313D01*
X116287500Y-91025311D01*
X116224689Y-90962500D01*
X116224686Y-90962496D01*
X116175329Y-90888629D01*
X116175327Y-90888625D01*
X116141331Y-90806552D01*
X116124000Y-90719421D01*
X116124000Y-90630579D01*
X116141331Y-90543448D01*
X116175327Y-90461375D01*
X116175328Y-90461374D01*
X116175329Y-90461371D01*
X116224686Y-90387504D01*
X116224687Y-90387503D01*
X116224689Y-90387500D01*
X116287500Y-90324689D01*
X116287504Y-90324686D01*
X116361371Y-90275329D01*
X116361374Y-90275328D01*
X116361375Y-90275327D01*
X116443448Y-90241331D01*
X116530579Y-90224000D01*
X116619421Y-90224000D01*
X116706552Y-90241331D01*
X116706552Y-90241331D01*
G37*
G36*
X118981552Y-90216331D02*
X119063625Y-90250327D01*
X119063626Y-90250328D01*
X119063629Y-90250329D01*
X119137496Y-90299686D01*
X119137500Y-90299689D01*
X119200311Y-90362500D01*
X119200313Y-90362503D01*
X119200314Y-90362504D01*
X119249671Y-90436371D01*
X119249672Y-90436374D01*
X119249673Y-90436375D01*
X119283669Y-90518448D01*
X119301000Y-90605579D01*
X119301000Y-90694421D01*
X119283669Y-90781552D01*
X119249673Y-90863625D01*
X119249671Y-90863629D01*
X119229096Y-90894421D01*
X119200311Y-90937500D01*
X119137500Y-91000311D01*
X119137497Y-91000313D01*
X119137496Y-91000314D01*
X119063629Y-91049671D01*
X119063626Y-91049672D01*
X119063625Y-91049673D01*
X118981552Y-91083669D01*
X118894421Y-91101000D01*
X118805579Y-91101000D01*
X118718448Y-91083669D01*
X118636375Y-91049673D01*
X118636374Y-91049672D01*
X118636371Y-91049671D01*
X118562504Y-91000314D01*
X118562503Y-91000313D01*
X118562500Y-91000311D01*
X118499689Y-90937500D01*
X118470904Y-90894421D01*
X118450329Y-90863629D01*
X118450327Y-90863625D01*
X118416331Y-90781552D01*
X118399000Y-90694421D01*
X118399000Y-90605579D01*
X118416331Y-90518448D01*
X118450327Y-90436375D01*
X118450328Y-90436374D01*
X118450329Y-90436371D01*
X118499686Y-90362504D01*
X118499687Y-90362503D01*
X118499689Y-90362500D01*
X118562500Y-90299689D01*
X118562504Y-90299686D01*
X118636371Y-90250329D01*
X118636374Y-90250328D01*
X118636375Y-90250327D01*
X118718448Y-90216331D01*
X118805579Y-90199000D01*
X118894421Y-90199000D01*
X118981552Y-90216331D01*
X118981552Y-90216331D01*
G37*
G36*
X143506552Y-89691331D02*
X143588625Y-89725327D01*
X143588626Y-89725328D01*
X143588629Y-89725329D01*
X143662496Y-89774686D01*
X143662500Y-89774689D01*
X143725311Y-89837500D01*
X143725313Y-89837503D01*
X143725314Y-89837504D01*
X143774671Y-89911371D01*
X143774672Y-89911374D01*
X143774673Y-89911375D01*
X143808669Y-89993448D01*
X143826000Y-90080579D01*
X143826000Y-90169421D01*
X143808669Y-90256552D01*
X143780181Y-90325327D01*
X143774671Y-90338629D01*
X143725314Y-90412496D01*
X143725311Y-90412500D01*
X143662500Y-90475311D01*
X143662497Y-90475313D01*
X143662496Y-90475314D01*
X143588629Y-90524671D01*
X143588626Y-90524672D01*
X143588625Y-90524673D01*
X143506552Y-90558669D01*
X143419421Y-90576000D01*
X143330579Y-90576000D01*
X143243448Y-90558669D01*
X143161375Y-90524673D01*
X143161374Y-90524672D01*
X143161371Y-90524671D01*
X143087504Y-90475314D01*
X143087503Y-90475313D01*
X143087500Y-90475311D01*
X143024689Y-90412500D01*
X143024686Y-90412496D01*
X142975329Y-90338629D01*
X142969819Y-90325327D01*
X142941331Y-90256552D01*
X142924000Y-90169421D01*
X142924000Y-90080579D01*
X142941331Y-89993448D01*
X142975327Y-89911375D01*
X142975328Y-89911374D01*
X142975329Y-89911371D01*
X143024686Y-89837504D01*
X143024687Y-89837503D01*
X143024689Y-89837500D01*
X143087500Y-89774689D01*
X143087504Y-89774686D01*
X143161371Y-89725329D01*
X143161374Y-89725328D01*
X143161375Y-89725327D01*
X143243448Y-89691331D01*
X143330579Y-89674000D01*
X143419421Y-89674000D01*
X143506552Y-89691331D01*
X143506552Y-89691331D01*
G37*
G36*
X134106552Y-89241331D02*
X134188625Y-89275327D01*
X134188626Y-89275328D01*
X134188629Y-89275329D01*
X134262496Y-89324686D01*
X134262500Y-89324689D01*
X134325311Y-89387500D01*
X134325313Y-89387503D01*
X134325314Y-89387504D01*
X134374671Y-89461371D01*
X134374672Y-89461374D01*
X134374673Y-89461375D01*
X134408669Y-89543448D01*
X134426000Y-89630579D01*
X134426000Y-89719421D01*
X134408669Y-89806552D01*
X134387081Y-89858669D01*
X134374671Y-89888629D01*
X134359475Y-89911371D01*
X134325311Y-89962500D01*
X134262500Y-90025311D01*
X134262497Y-90025313D01*
X134262496Y-90025314D01*
X134188629Y-90074671D01*
X134188626Y-90074672D01*
X134188625Y-90074673D01*
X134106552Y-90108669D01*
X134019421Y-90126000D01*
X133930579Y-90126000D01*
X133843448Y-90108669D01*
X133761375Y-90074673D01*
X133761374Y-90074672D01*
X133761371Y-90074671D01*
X133687504Y-90025314D01*
X133687503Y-90025313D01*
X133687500Y-90025311D01*
X133624689Y-89962500D01*
X133590525Y-89911371D01*
X133575329Y-89888629D01*
X133562919Y-89858669D01*
X133541331Y-89806552D01*
X133524000Y-89719421D01*
X133524000Y-89630579D01*
X133541331Y-89543448D01*
X133575327Y-89461375D01*
X133575328Y-89461374D01*
X133575329Y-89461371D01*
X133624686Y-89387504D01*
X133624687Y-89387503D01*
X133624689Y-89387500D01*
X133687500Y-89324689D01*
X133687504Y-89324686D01*
X133761371Y-89275329D01*
X133761374Y-89275328D01*
X133761375Y-89275327D01*
X133843448Y-89241331D01*
X133930579Y-89224000D01*
X134019421Y-89224000D01*
X134106552Y-89241331D01*
X134106552Y-89241331D01*
G37*
G36*
X137281552Y-88991331D02*
X137363625Y-89025327D01*
X137363626Y-89025328D01*
X137363629Y-89025329D01*
X137437496Y-89074686D01*
X137437500Y-89074689D01*
X137500311Y-89137500D01*
X137500313Y-89137503D01*
X137500314Y-89137504D01*
X137549671Y-89211371D01*
X137549672Y-89211374D01*
X137549673Y-89211375D01*
X137583669Y-89293448D01*
X137601000Y-89380579D01*
X137601000Y-89469421D01*
X137583669Y-89556552D01*
X137553005Y-89630580D01*
X137549671Y-89638629D01*
X137500314Y-89712496D01*
X137500311Y-89712500D01*
X137437500Y-89775311D01*
X137437497Y-89775313D01*
X137437496Y-89775314D01*
X137363629Y-89824671D01*
X137363626Y-89824672D01*
X137363625Y-89824673D01*
X137281552Y-89858669D01*
X137194421Y-89876000D01*
X137105579Y-89876000D01*
X137018448Y-89858669D01*
X136936375Y-89824673D01*
X136936374Y-89824672D01*
X136936371Y-89824671D01*
X136862504Y-89775314D01*
X136862503Y-89775313D01*
X136862500Y-89775311D01*
X136799689Y-89712500D01*
X136799686Y-89712496D01*
X136750329Y-89638629D01*
X136746995Y-89630580D01*
X136716331Y-89556552D01*
X136699000Y-89469421D01*
X136699000Y-89380579D01*
X136716331Y-89293448D01*
X136750327Y-89211375D01*
X136750328Y-89211374D01*
X136750329Y-89211371D01*
X136799686Y-89137504D01*
X136799687Y-89137503D01*
X136799689Y-89137500D01*
X136862500Y-89074689D01*
X136862504Y-89074686D01*
X136936371Y-89025329D01*
X136936374Y-89025328D01*
X136936375Y-89025327D01*
X137018448Y-88991331D01*
X137105579Y-88974000D01*
X137194421Y-88974000D01*
X137281552Y-88991331D01*
X137281552Y-88991331D01*
G37*
G36*
X133056552Y-88216331D02*
X133138625Y-88250327D01*
X133138626Y-88250328D01*
X133138629Y-88250329D01*
X133212496Y-88299686D01*
X133212500Y-88299689D01*
X133275311Y-88362500D01*
X133275313Y-88362503D01*
X133275314Y-88362504D01*
X133324671Y-88436371D01*
X133324672Y-88436374D01*
X133324673Y-88436375D01*
X133358669Y-88518448D01*
X133376000Y-88605579D01*
X133376000Y-88694421D01*
X133358669Y-88781552D01*
X133324673Y-88863625D01*
X133324671Y-88863629D01*
X133277871Y-88933669D01*
X133275311Y-88937500D01*
X133212500Y-89000311D01*
X133212497Y-89000313D01*
X133212496Y-89000314D01*
X133138629Y-89049671D01*
X133138626Y-89049672D01*
X133138625Y-89049673D01*
X133056552Y-89083669D01*
X132969421Y-89101000D01*
X132880579Y-89101000D01*
X132793448Y-89083669D01*
X132711375Y-89049673D01*
X132711374Y-89049672D01*
X132711371Y-89049671D01*
X132637504Y-89000314D01*
X132637503Y-89000313D01*
X132637500Y-89000311D01*
X132574689Y-88937500D01*
X132572129Y-88933669D01*
X132525329Y-88863629D01*
X132525327Y-88863625D01*
X132491331Y-88781552D01*
X132474000Y-88694421D01*
X132474000Y-88605579D01*
X132491331Y-88518448D01*
X132525327Y-88436375D01*
X132525328Y-88436374D01*
X132525329Y-88436371D01*
X132574686Y-88362504D01*
X132574687Y-88362503D01*
X132574689Y-88362500D01*
X132637500Y-88299689D01*
X132637504Y-88299686D01*
X132711371Y-88250329D01*
X132711374Y-88250328D01*
X132711375Y-88250327D01*
X132793448Y-88216331D01*
X132880579Y-88199000D01*
X132969421Y-88199000D01*
X133056552Y-88216331D01*
X133056552Y-88216331D01*
G37*
G36*
X130806552Y-88091331D02*
X130888625Y-88125327D01*
X130888626Y-88125328D01*
X130888629Y-88125329D01*
X130945942Y-88163625D01*
X130962500Y-88174689D01*
X131025311Y-88237500D01*
X131025313Y-88237503D01*
X131025314Y-88237504D01*
X131074671Y-88311371D01*
X131074672Y-88311374D01*
X131074673Y-88311375D01*
X131108669Y-88393448D01*
X131126000Y-88480579D01*
X131126000Y-88569421D01*
X131108669Y-88656552D01*
X131075139Y-88737500D01*
X131074671Y-88738629D01*
X131025314Y-88812496D01*
X131025311Y-88812500D01*
X130962500Y-88875311D01*
X130962497Y-88875313D01*
X130962496Y-88875314D01*
X130888629Y-88924671D01*
X130888626Y-88924672D01*
X130888625Y-88924673D01*
X130806552Y-88958669D01*
X130719421Y-88976000D01*
X130630579Y-88976000D01*
X130543448Y-88958669D01*
X130461375Y-88924673D01*
X130461374Y-88924672D01*
X130461371Y-88924671D01*
X130387504Y-88875314D01*
X130387503Y-88875313D01*
X130387500Y-88875311D01*
X130324689Y-88812500D01*
X130324686Y-88812496D01*
X130275329Y-88738629D01*
X130274861Y-88737500D01*
X130241331Y-88656552D01*
X130224000Y-88569421D01*
X130224000Y-88480579D01*
X130241331Y-88393448D01*
X130275327Y-88311375D01*
X130275328Y-88311374D01*
X130275329Y-88311371D01*
X130324686Y-88237504D01*
X130324687Y-88237503D01*
X130324689Y-88237500D01*
X130387500Y-88174689D01*
X130404058Y-88163625D01*
X130461371Y-88125329D01*
X130461374Y-88125328D01*
X130461375Y-88125327D01*
X130543448Y-88091331D01*
X130630579Y-88074000D01*
X130719421Y-88074000D01*
X130806552Y-88091331D01*
X130806552Y-88091331D01*
G37*
G36*
X119306552Y-88091331D02*
X119388625Y-88125327D01*
X119388626Y-88125328D01*
X119388629Y-88125329D01*
X119445942Y-88163625D01*
X119462500Y-88174689D01*
X119525311Y-88237500D01*
X119525313Y-88237503D01*
X119525314Y-88237504D01*
X119574671Y-88311371D01*
X119574672Y-88311374D01*
X119574673Y-88311375D01*
X119608669Y-88393448D01*
X119626000Y-88480579D01*
X119626000Y-88569421D01*
X119608669Y-88656552D01*
X119575139Y-88737500D01*
X119574671Y-88738629D01*
X119525314Y-88812496D01*
X119525311Y-88812500D01*
X119462500Y-88875311D01*
X119462497Y-88875313D01*
X119462496Y-88875314D01*
X119388629Y-88924671D01*
X119388626Y-88924672D01*
X119388625Y-88924673D01*
X119306552Y-88958669D01*
X119219421Y-88976000D01*
X119130579Y-88976000D01*
X119043448Y-88958669D01*
X118961375Y-88924673D01*
X118961374Y-88924672D01*
X118961371Y-88924671D01*
X118887504Y-88875314D01*
X118887503Y-88875313D01*
X118887500Y-88875311D01*
X118824689Y-88812500D01*
X118824686Y-88812496D01*
X118775329Y-88738629D01*
X118774861Y-88737500D01*
X118741331Y-88656552D01*
X118724000Y-88569421D01*
X118724000Y-88480579D01*
X118741331Y-88393448D01*
X118775327Y-88311375D01*
X118775328Y-88311374D01*
X118775329Y-88311371D01*
X118824686Y-88237504D01*
X118824687Y-88237503D01*
X118824689Y-88237500D01*
X118887500Y-88174689D01*
X118904058Y-88163625D01*
X118961371Y-88125329D01*
X118961374Y-88125328D01*
X118961375Y-88125327D01*
X119043448Y-88091331D01*
X119130579Y-88074000D01*
X119219421Y-88074000D01*
X119306552Y-88091331D01*
X119306552Y-88091331D01*
G37*
G36*
X128081552Y-88066331D02*
X128163625Y-88100327D01*
X128163626Y-88100328D01*
X128163629Y-88100329D01*
X128237496Y-88149686D01*
X128237500Y-88149689D01*
X128300311Y-88212500D01*
X128300313Y-88212503D01*
X128300314Y-88212504D01*
X128349671Y-88286371D01*
X128349672Y-88286374D01*
X128349673Y-88286375D01*
X128383669Y-88368448D01*
X128401000Y-88455579D01*
X128401000Y-88544421D01*
X128383669Y-88631552D01*
X128349673Y-88713625D01*
X128349671Y-88713629D01*
X128300314Y-88787496D01*
X128300311Y-88787500D01*
X128237500Y-88850311D01*
X128237497Y-88850313D01*
X128237496Y-88850314D01*
X128163629Y-88899671D01*
X128163626Y-88899672D01*
X128163625Y-88899673D01*
X128081552Y-88933669D01*
X127994421Y-88951000D01*
X127905579Y-88951000D01*
X127818448Y-88933669D01*
X127736375Y-88899673D01*
X127736374Y-88899672D01*
X127736371Y-88899671D01*
X127662504Y-88850314D01*
X127662503Y-88850313D01*
X127662500Y-88850311D01*
X127599689Y-88787500D01*
X127599686Y-88787496D01*
X127550329Y-88713629D01*
X127550327Y-88713625D01*
X127516331Y-88631552D01*
X127499000Y-88544421D01*
X127499000Y-88455579D01*
X127516331Y-88368448D01*
X127550327Y-88286375D01*
X127550328Y-88286374D01*
X127550329Y-88286371D01*
X127599686Y-88212504D01*
X127599687Y-88212503D01*
X127599689Y-88212500D01*
X127662500Y-88149689D01*
X127662504Y-88149686D01*
X127736371Y-88100329D01*
X127736374Y-88100328D01*
X127736375Y-88100327D01*
X127818448Y-88066331D01*
X127905579Y-88049000D01*
X127994421Y-88049000D01*
X128081552Y-88066331D01*
X128081552Y-88066331D01*
G37*
G36*
X116731552Y-88066331D02*
X116813625Y-88100327D01*
X116813626Y-88100328D01*
X116813629Y-88100329D01*
X116887496Y-88149686D01*
X116887500Y-88149689D01*
X116950311Y-88212500D01*
X116950313Y-88212503D01*
X116950314Y-88212504D01*
X116999671Y-88286371D01*
X116999672Y-88286374D01*
X116999673Y-88286375D01*
X117033669Y-88368448D01*
X117051000Y-88455579D01*
X117051000Y-88544421D01*
X117033669Y-88631552D01*
X116999673Y-88713625D01*
X116999671Y-88713629D01*
X116950314Y-88787496D01*
X116950311Y-88787500D01*
X116887500Y-88850311D01*
X116887497Y-88850313D01*
X116887496Y-88850314D01*
X116813629Y-88899671D01*
X116813626Y-88899672D01*
X116813625Y-88899673D01*
X116731552Y-88933669D01*
X116644421Y-88951000D01*
X116555579Y-88951000D01*
X116468448Y-88933669D01*
X116386375Y-88899673D01*
X116386374Y-88899672D01*
X116386371Y-88899671D01*
X116312504Y-88850314D01*
X116312503Y-88850313D01*
X116312500Y-88850311D01*
X116249689Y-88787500D01*
X116249686Y-88787496D01*
X116200329Y-88713629D01*
X116200327Y-88713625D01*
X116166331Y-88631552D01*
X116149000Y-88544421D01*
X116149000Y-88455579D01*
X116166331Y-88368448D01*
X116200327Y-88286375D01*
X116200328Y-88286374D01*
X116200329Y-88286371D01*
X116249686Y-88212504D01*
X116249687Y-88212503D01*
X116249689Y-88212500D01*
X116312500Y-88149689D01*
X116312504Y-88149686D01*
X116386371Y-88100329D01*
X116386374Y-88100328D01*
X116386375Y-88100327D01*
X116468448Y-88066331D01*
X116555579Y-88049000D01*
X116644421Y-88049000D01*
X116731552Y-88066331D01*
X116731552Y-88066331D01*
G37*
G36*
X124631552Y-88066331D02*
X124713625Y-88100327D01*
X124713626Y-88100328D01*
X124713629Y-88100329D01*
X124787496Y-88149686D01*
X124787500Y-88149689D01*
X124850311Y-88212500D01*
X124850313Y-88212503D01*
X124850314Y-88212504D01*
X124899671Y-88286371D01*
X124899672Y-88286374D01*
X124899673Y-88286375D01*
X124933669Y-88368448D01*
X124951000Y-88455579D01*
X124951000Y-88544421D01*
X124933669Y-88631552D01*
X124899673Y-88713625D01*
X124899671Y-88713629D01*
X124850314Y-88787496D01*
X124850311Y-88787500D01*
X124787500Y-88850311D01*
X124787497Y-88850313D01*
X124787496Y-88850314D01*
X124713629Y-88899671D01*
X124713626Y-88899672D01*
X124713625Y-88899673D01*
X124631552Y-88933669D01*
X124544421Y-88951000D01*
X124455579Y-88951000D01*
X124368448Y-88933669D01*
X124286375Y-88899673D01*
X124286374Y-88899672D01*
X124286371Y-88899671D01*
X124212504Y-88850314D01*
X124212503Y-88850313D01*
X124212500Y-88850311D01*
X124149689Y-88787500D01*
X124149686Y-88787496D01*
X124100329Y-88713629D01*
X124100327Y-88713625D01*
X124066331Y-88631552D01*
X124049000Y-88544421D01*
X124049000Y-88455579D01*
X124066331Y-88368448D01*
X124100327Y-88286375D01*
X124100328Y-88286374D01*
X124100329Y-88286371D01*
X124149686Y-88212504D01*
X124149687Y-88212503D01*
X124149689Y-88212500D01*
X124212500Y-88149689D01*
X124212504Y-88149686D01*
X124286371Y-88100329D01*
X124286374Y-88100328D01*
X124286375Y-88100327D01*
X124368448Y-88066331D01*
X124455579Y-88049000D01*
X124544421Y-88049000D01*
X124631552Y-88066331D01*
X124631552Y-88066331D01*
G37*
G36*
X121556552Y-88016331D02*
X121638625Y-88050327D01*
X121638626Y-88050328D01*
X121638629Y-88050329D01*
X121712496Y-88099686D01*
X121712500Y-88099689D01*
X121775311Y-88162500D01*
X121775313Y-88162503D01*
X121775314Y-88162504D01*
X121824671Y-88236371D01*
X121824672Y-88236374D01*
X121824673Y-88236375D01*
X121858669Y-88318448D01*
X121876000Y-88405579D01*
X121876000Y-88494421D01*
X121858669Y-88581552D01*
X121824673Y-88663625D01*
X121824671Y-88663629D01*
X121775314Y-88737496D01*
X121775311Y-88737500D01*
X121712500Y-88800311D01*
X121712497Y-88800313D01*
X121712496Y-88800314D01*
X121638629Y-88849671D01*
X121638626Y-88849672D01*
X121638625Y-88849673D01*
X121556552Y-88883669D01*
X121469421Y-88901000D01*
X121380579Y-88901000D01*
X121293448Y-88883669D01*
X121211375Y-88849673D01*
X121211374Y-88849672D01*
X121211371Y-88849671D01*
X121137504Y-88800314D01*
X121137503Y-88800313D01*
X121137500Y-88800311D01*
X121074689Y-88737500D01*
X121074686Y-88737496D01*
X121025329Y-88663629D01*
X121025327Y-88663625D01*
X120991331Y-88581552D01*
X120974000Y-88494421D01*
X120974000Y-88405579D01*
X120991331Y-88318448D01*
X121025327Y-88236375D01*
X121025328Y-88236374D01*
X121025329Y-88236371D01*
X121074686Y-88162504D01*
X121074687Y-88162503D01*
X121074689Y-88162500D01*
X121137500Y-88099689D01*
X121137504Y-88099686D01*
X121211371Y-88050329D01*
X121211374Y-88050328D01*
X121211375Y-88050327D01*
X121293448Y-88016331D01*
X121380579Y-87999000D01*
X121469421Y-87999000D01*
X121556552Y-88016331D01*
X121556552Y-88016331D01*
G37*
G36*
X135581552Y-87516331D02*
X135663625Y-87550327D01*
X135663626Y-87550328D01*
X135663629Y-87550329D01*
X135708902Y-87580580D01*
X135737500Y-87599689D01*
X135800311Y-87662500D01*
X135800313Y-87662503D01*
X135800314Y-87662504D01*
X135849671Y-87736371D01*
X135849672Y-87736374D01*
X135849673Y-87736375D01*
X135883669Y-87818448D01*
X135901000Y-87905579D01*
X135901000Y-87994421D01*
X135883669Y-88081552D01*
X135850139Y-88162500D01*
X135849671Y-88163629D01*
X135801063Y-88236375D01*
X135800311Y-88237500D01*
X135737500Y-88300311D01*
X135737497Y-88300313D01*
X135737496Y-88300314D01*
X135663629Y-88349671D01*
X135663626Y-88349672D01*
X135663625Y-88349673D01*
X135581552Y-88383669D01*
X135494421Y-88401000D01*
X135405579Y-88401000D01*
X135318448Y-88383669D01*
X135236375Y-88349673D01*
X135236374Y-88349672D01*
X135236371Y-88349671D01*
X135162504Y-88300314D01*
X135162503Y-88300313D01*
X135162500Y-88300311D01*
X135099689Y-88237500D01*
X135098937Y-88236375D01*
X135050329Y-88163629D01*
X135049861Y-88162500D01*
X135016331Y-88081552D01*
X134999000Y-87994421D01*
X134999000Y-87905579D01*
X135016331Y-87818448D01*
X135050327Y-87736375D01*
X135050328Y-87736374D01*
X135050329Y-87736371D01*
X135099686Y-87662504D01*
X135099687Y-87662503D01*
X135099689Y-87662500D01*
X135162500Y-87599689D01*
X135191098Y-87580580D01*
X135236371Y-87550329D01*
X135236374Y-87550328D01*
X135236375Y-87550327D01*
X135318448Y-87516331D01*
X135405579Y-87499000D01*
X135494421Y-87499000D01*
X135581552Y-87516331D01*
X135581552Y-87516331D01*
G37*
G36*
X141081552Y-87516331D02*
X141163625Y-87550327D01*
X141163626Y-87550328D01*
X141163629Y-87550329D01*
X141208902Y-87580580D01*
X141237500Y-87599689D01*
X141300311Y-87662500D01*
X141300313Y-87662503D01*
X141300314Y-87662504D01*
X141349671Y-87736371D01*
X141349672Y-87736374D01*
X141349673Y-87736375D01*
X141383669Y-87818448D01*
X141401000Y-87905579D01*
X141401000Y-87994421D01*
X141383669Y-88081552D01*
X141350139Y-88162500D01*
X141349671Y-88163629D01*
X141301063Y-88236375D01*
X141300311Y-88237500D01*
X141237500Y-88300311D01*
X141237497Y-88300313D01*
X141237496Y-88300314D01*
X141163629Y-88349671D01*
X141163626Y-88349672D01*
X141163625Y-88349673D01*
X141081552Y-88383669D01*
X140994421Y-88401000D01*
X140905579Y-88401000D01*
X140818448Y-88383669D01*
X140736375Y-88349673D01*
X140736374Y-88349672D01*
X140736371Y-88349671D01*
X140662504Y-88300314D01*
X140662503Y-88300313D01*
X140662500Y-88300311D01*
X140599689Y-88237500D01*
X140598937Y-88236375D01*
X140550329Y-88163629D01*
X140549861Y-88162500D01*
X140516331Y-88081552D01*
X140499000Y-87994421D01*
X140499000Y-87905579D01*
X140516331Y-87818448D01*
X140550327Y-87736375D01*
X140550328Y-87736374D01*
X140550329Y-87736371D01*
X140599686Y-87662504D01*
X140599687Y-87662503D01*
X140599689Y-87662500D01*
X140662500Y-87599689D01*
X140691098Y-87580580D01*
X140736371Y-87550329D01*
X140736374Y-87550328D01*
X140736375Y-87550327D01*
X140818448Y-87516331D01*
X140905579Y-87499000D01*
X140994421Y-87499000D01*
X141081552Y-87516331D01*
X141081552Y-87516331D01*
G37*
G36*
X132056552Y-87191331D02*
X132138625Y-87225327D01*
X132138626Y-87225328D01*
X132138629Y-87225329D01*
X132212496Y-87274686D01*
X132212500Y-87274689D01*
X132275311Y-87337500D01*
X132275313Y-87337503D01*
X132275314Y-87337504D01*
X132324671Y-87411371D01*
X132324672Y-87411374D01*
X132324673Y-87411375D01*
X132358669Y-87493448D01*
X132376000Y-87580579D01*
X132376000Y-87669421D01*
X132358669Y-87756552D01*
X132324673Y-87838625D01*
X132324671Y-87838629D01*
X132279935Y-87905580D01*
X132275311Y-87912500D01*
X132212500Y-87975311D01*
X132212497Y-87975313D01*
X132212496Y-87975314D01*
X132138629Y-88024671D01*
X132138626Y-88024672D01*
X132138625Y-88024673D01*
X132056552Y-88058669D01*
X131969421Y-88076000D01*
X131880579Y-88076000D01*
X131793448Y-88058669D01*
X131711375Y-88024673D01*
X131711374Y-88024672D01*
X131711371Y-88024671D01*
X131637504Y-87975314D01*
X131637503Y-87975313D01*
X131637500Y-87975311D01*
X131574689Y-87912500D01*
X131570065Y-87905580D01*
X131525329Y-87838629D01*
X131525327Y-87838625D01*
X131491331Y-87756552D01*
X131474000Y-87669421D01*
X131474000Y-87580579D01*
X131491331Y-87493448D01*
X131525327Y-87411375D01*
X131525328Y-87411374D01*
X131525329Y-87411371D01*
X131574686Y-87337504D01*
X131574687Y-87337503D01*
X131574689Y-87337500D01*
X131637500Y-87274689D01*
X131637504Y-87274686D01*
X131711371Y-87225329D01*
X131711374Y-87225328D01*
X131711375Y-87225327D01*
X131793448Y-87191331D01*
X131880579Y-87174000D01*
X131969421Y-87174000D01*
X132056552Y-87191331D01*
X132056552Y-87191331D01*
G37*
G36*
X130906552Y-86041331D02*
X130988625Y-86075327D01*
X130988626Y-86075328D01*
X130988629Y-86075329D01*
X131062496Y-86124686D01*
X131062500Y-86124689D01*
X131125311Y-86187500D01*
X131125313Y-86187503D01*
X131125314Y-86187504D01*
X131174671Y-86261371D01*
X131174672Y-86261374D01*
X131174673Y-86261375D01*
X131208669Y-86343448D01*
X131226000Y-86430579D01*
X131226000Y-86519421D01*
X131208669Y-86606552D01*
X131175139Y-86687500D01*
X131174671Y-86688629D01*
X131127871Y-86758669D01*
X131125311Y-86762500D01*
X131062500Y-86825311D01*
X131062497Y-86825313D01*
X131062496Y-86825314D01*
X130988629Y-86874671D01*
X130988626Y-86874672D01*
X130988625Y-86874673D01*
X130906552Y-86908669D01*
X130819421Y-86926000D01*
X130730579Y-86926000D01*
X130643448Y-86908669D01*
X130561375Y-86874673D01*
X130561374Y-86874672D01*
X130561371Y-86874671D01*
X130487504Y-86825314D01*
X130487503Y-86825313D01*
X130487500Y-86825311D01*
X130424689Y-86762500D01*
X130422129Y-86758669D01*
X130375329Y-86688629D01*
X130374861Y-86687500D01*
X130341331Y-86606552D01*
X130324000Y-86519421D01*
X130324000Y-86430579D01*
X130341331Y-86343448D01*
X130375327Y-86261375D01*
X130375328Y-86261374D01*
X130375329Y-86261371D01*
X130424686Y-86187504D01*
X130424687Y-86187503D01*
X130424689Y-86187500D01*
X130487500Y-86124689D01*
X130487504Y-86124686D01*
X130561371Y-86075329D01*
X130561374Y-86075328D01*
X130561375Y-86075327D01*
X130643448Y-86041331D01*
X130730579Y-86024000D01*
X130819421Y-86024000D01*
X130906552Y-86041331D01*
X130906552Y-86041331D01*
G37*
G36*
X134206552Y-86016331D02*
X134288625Y-86050327D01*
X134288626Y-86050328D01*
X134288629Y-86050329D01*
X134362496Y-86099686D01*
X134362500Y-86099689D01*
X134425311Y-86162500D01*
X134425313Y-86162503D01*
X134425314Y-86162504D01*
X134474671Y-86236371D01*
X134474672Y-86236374D01*
X134474673Y-86236375D01*
X134508669Y-86318448D01*
X134526000Y-86405579D01*
X134526000Y-86494421D01*
X134508669Y-86581552D01*
X134474673Y-86663625D01*
X134474671Y-86663629D01*
X134433882Y-86724673D01*
X134425311Y-86737500D01*
X134362500Y-86800311D01*
X134362497Y-86800313D01*
X134362496Y-86800314D01*
X134288629Y-86849671D01*
X134288626Y-86849672D01*
X134288625Y-86849673D01*
X134206552Y-86883669D01*
X134119421Y-86901000D01*
X134030579Y-86901000D01*
X133943448Y-86883669D01*
X133861375Y-86849673D01*
X133861374Y-86849672D01*
X133861371Y-86849671D01*
X133787504Y-86800314D01*
X133787503Y-86800313D01*
X133787500Y-86800311D01*
X133724689Y-86737500D01*
X133716118Y-86724673D01*
X133675329Y-86663629D01*
X133675327Y-86663625D01*
X133641331Y-86581552D01*
X133624000Y-86494421D01*
X133624000Y-86405579D01*
X133641331Y-86318448D01*
X133675327Y-86236375D01*
X133675328Y-86236374D01*
X133675329Y-86236371D01*
X133724686Y-86162504D01*
X133724687Y-86162503D01*
X133724689Y-86162500D01*
X133787500Y-86099689D01*
X133787504Y-86099686D01*
X133861371Y-86050329D01*
X133861374Y-86050328D01*
X133861375Y-86050327D01*
X133943448Y-86016331D01*
X134030579Y-85999000D01*
X134119421Y-85999000D01*
X134206552Y-86016331D01*
X134206552Y-86016331D01*
G37*
G36*
X123431552Y-85966331D02*
X123513625Y-86000327D01*
X123513626Y-86000328D01*
X123513629Y-86000329D01*
X123587496Y-86049686D01*
X123587500Y-86049689D01*
X123650311Y-86112500D01*
X123650313Y-86112503D01*
X123650314Y-86112504D01*
X123699671Y-86186371D01*
X123699672Y-86186374D01*
X123699673Y-86186375D01*
X123733669Y-86268448D01*
X123751000Y-86355579D01*
X123751000Y-86444421D01*
X123733669Y-86531552D01*
X123700139Y-86612500D01*
X123699671Y-86613629D01*
X123650314Y-86687496D01*
X123650311Y-86687500D01*
X123587500Y-86750311D01*
X123587497Y-86750313D01*
X123587496Y-86750314D01*
X123513629Y-86799671D01*
X123513626Y-86799672D01*
X123513625Y-86799673D01*
X123431552Y-86833669D01*
X123344421Y-86851000D01*
X123255579Y-86851000D01*
X123168448Y-86833669D01*
X123086375Y-86799673D01*
X123086374Y-86799672D01*
X123086371Y-86799671D01*
X123012504Y-86750314D01*
X123012503Y-86750313D01*
X123012500Y-86750311D01*
X122949689Y-86687500D01*
X122949686Y-86687496D01*
X122900329Y-86613629D01*
X122899861Y-86612500D01*
X122866331Y-86531552D01*
X122849000Y-86444421D01*
X122849000Y-86355579D01*
X122866331Y-86268448D01*
X122900327Y-86186375D01*
X122900328Y-86186374D01*
X122900329Y-86186371D01*
X122949686Y-86112504D01*
X122949687Y-86112503D01*
X122949689Y-86112500D01*
X123012500Y-86049689D01*
X123012504Y-86049686D01*
X123086371Y-86000329D01*
X123086374Y-86000328D01*
X123086375Y-86000327D01*
X123168448Y-85966331D01*
X123255579Y-85949000D01*
X123344421Y-85949000D01*
X123431552Y-85966331D01*
X123431552Y-85966331D01*
G37*
G36*
X119156552Y-85891331D02*
X119238625Y-85925327D01*
X119238626Y-85925328D01*
X119238629Y-85925329D01*
X119312496Y-85974686D01*
X119312500Y-85974689D01*
X119375311Y-86037500D01*
X119375313Y-86037503D01*
X119375314Y-86037504D01*
X119424671Y-86111371D01*
X119424672Y-86111374D01*
X119424673Y-86111375D01*
X119458669Y-86193448D01*
X119476000Y-86280579D01*
X119476000Y-86369421D01*
X119458669Y-86456552D01*
X119424673Y-86538625D01*
X119424671Y-86538629D01*
X119375314Y-86612496D01*
X119375311Y-86612500D01*
X119312500Y-86675311D01*
X119312497Y-86675313D01*
X119312496Y-86675314D01*
X119238629Y-86724671D01*
X119238626Y-86724672D01*
X119238625Y-86724673D01*
X119156552Y-86758669D01*
X119069421Y-86776000D01*
X118980579Y-86776000D01*
X118893448Y-86758669D01*
X118811375Y-86724673D01*
X118811374Y-86724672D01*
X118811371Y-86724671D01*
X118737504Y-86675314D01*
X118737503Y-86675313D01*
X118737500Y-86675311D01*
X118674689Y-86612500D01*
X118674686Y-86612496D01*
X118625329Y-86538629D01*
X118625327Y-86538625D01*
X118591331Y-86456552D01*
X118574000Y-86369421D01*
X118574000Y-86280579D01*
X118591331Y-86193448D01*
X118625327Y-86111375D01*
X118625328Y-86111374D01*
X118625329Y-86111371D01*
X118674686Y-86037504D01*
X118674687Y-86037503D01*
X118674689Y-86037500D01*
X118737500Y-85974689D01*
X118737504Y-85974686D01*
X118811371Y-85925329D01*
X118811374Y-85925328D01*
X118811375Y-85925327D01*
X118893448Y-85891331D01*
X118980579Y-85874000D01*
X119069421Y-85874000D01*
X119156552Y-85891331D01*
X119156552Y-85891331D01*
G37*
G36*
X135356552Y-85091331D02*
X135438625Y-85125327D01*
X135438626Y-85125328D01*
X135438629Y-85125329D01*
X135483902Y-85155580D01*
X135512500Y-85174689D01*
X135575311Y-85237500D01*
X135575313Y-85237503D01*
X135575314Y-85237504D01*
X135624671Y-85311371D01*
X135624672Y-85311374D01*
X135624673Y-85311375D01*
X135658669Y-85393448D01*
X135676000Y-85480579D01*
X135676000Y-85569421D01*
X135658669Y-85656552D01*
X135624673Y-85738625D01*
X135624671Y-85738629D01*
X135582995Y-85801000D01*
X135575311Y-85812500D01*
X135512500Y-85875311D01*
X135512497Y-85875313D01*
X135512496Y-85875314D01*
X135438629Y-85924671D01*
X135438626Y-85924672D01*
X135438625Y-85924673D01*
X135356552Y-85958669D01*
X135269421Y-85976000D01*
X135180579Y-85976000D01*
X135093448Y-85958669D01*
X135011375Y-85924673D01*
X135011374Y-85924672D01*
X135011371Y-85924671D01*
X134937504Y-85875314D01*
X134937503Y-85875313D01*
X134937500Y-85875311D01*
X134874689Y-85812500D01*
X134867005Y-85801000D01*
X134825329Y-85738629D01*
X134825327Y-85738625D01*
X134791331Y-85656552D01*
X134774000Y-85569421D01*
X134774000Y-85480579D01*
X134791331Y-85393448D01*
X134825327Y-85311375D01*
X134825328Y-85311374D01*
X134825329Y-85311371D01*
X134874686Y-85237504D01*
X134874687Y-85237503D01*
X134874689Y-85237500D01*
X134937500Y-85174689D01*
X134966098Y-85155580D01*
X135011371Y-85125329D01*
X135011374Y-85125328D01*
X135011375Y-85125327D01*
X135093448Y-85091331D01*
X135180579Y-85074000D01*
X135269421Y-85074000D01*
X135356552Y-85091331D01*
X135356552Y-85091331D01*
G37*
G36*
X143431552Y-84916331D02*
X143513625Y-84950327D01*
X143513626Y-84950328D01*
X143513629Y-84950329D01*
X143587496Y-84999686D01*
X143587500Y-84999689D01*
X143650311Y-85062500D01*
X143650313Y-85062503D01*
X143650314Y-85062504D01*
X143699671Y-85136371D01*
X143699672Y-85136374D01*
X143699673Y-85136375D01*
X143733669Y-85218448D01*
X143751000Y-85305579D01*
X143751000Y-85394421D01*
X143733669Y-85481552D01*
X143699673Y-85563625D01*
X143699671Y-85563629D01*
X143652871Y-85633669D01*
X143650311Y-85637500D01*
X143587500Y-85700311D01*
X143587497Y-85700313D01*
X143587496Y-85700314D01*
X143513629Y-85749671D01*
X143513626Y-85749672D01*
X143513625Y-85749673D01*
X143431552Y-85783669D01*
X143344421Y-85801000D01*
X143255579Y-85801000D01*
X143168448Y-85783669D01*
X143086375Y-85749673D01*
X143086374Y-85749672D01*
X143086371Y-85749671D01*
X143012504Y-85700314D01*
X143012503Y-85700313D01*
X143012500Y-85700311D01*
X142949689Y-85637500D01*
X142947129Y-85633669D01*
X142900329Y-85563629D01*
X142900327Y-85563625D01*
X142866331Y-85481552D01*
X142849000Y-85394421D01*
X142849000Y-85305579D01*
X142866331Y-85218448D01*
X142900327Y-85136375D01*
X142900328Y-85136374D01*
X142900329Y-85136371D01*
X142949686Y-85062504D01*
X142949687Y-85062503D01*
X142949689Y-85062500D01*
X143012500Y-84999689D01*
X143012504Y-84999686D01*
X143086371Y-84950329D01*
X143086374Y-84950328D01*
X143086375Y-84950327D01*
X143168448Y-84916331D01*
X143255579Y-84899000D01*
X143344421Y-84899000D01*
X143431552Y-84916331D01*
X143431552Y-84916331D01*
G37*
G36*
X129881552Y-84916331D02*
X129963625Y-84950327D01*
X129963626Y-84950328D01*
X129963629Y-84950329D01*
X130037496Y-84999686D01*
X130037500Y-84999689D01*
X130100311Y-85062500D01*
X130100313Y-85062503D01*
X130100314Y-85062504D01*
X130149671Y-85136371D01*
X130149672Y-85136374D01*
X130149673Y-85136375D01*
X130183669Y-85218448D01*
X130201000Y-85305579D01*
X130201000Y-85394421D01*
X130183669Y-85481552D01*
X130149673Y-85563625D01*
X130149671Y-85563629D01*
X130102871Y-85633669D01*
X130100311Y-85637500D01*
X130037500Y-85700311D01*
X130037497Y-85700313D01*
X130037496Y-85700314D01*
X129963629Y-85749671D01*
X129963626Y-85749672D01*
X129963625Y-85749673D01*
X129881552Y-85783669D01*
X129794421Y-85801000D01*
X129705579Y-85801000D01*
X129618448Y-85783669D01*
X129536375Y-85749673D01*
X129536374Y-85749672D01*
X129536371Y-85749671D01*
X129462504Y-85700314D01*
X129462503Y-85700313D01*
X129462500Y-85700311D01*
X129399689Y-85637500D01*
X129397129Y-85633669D01*
X129350329Y-85563629D01*
X129350327Y-85563625D01*
X129316331Y-85481552D01*
X129299000Y-85394421D01*
X129299000Y-85305579D01*
X129316331Y-85218448D01*
X129350327Y-85136375D01*
X129350328Y-85136374D01*
X129350329Y-85136371D01*
X129399686Y-85062504D01*
X129399687Y-85062503D01*
X129399689Y-85062500D01*
X129462500Y-84999689D01*
X129462504Y-84999686D01*
X129536371Y-84950329D01*
X129536374Y-84950328D01*
X129536375Y-84950327D01*
X129618448Y-84916331D01*
X129705579Y-84899000D01*
X129794421Y-84899000D01*
X129881552Y-84916331D01*
X129881552Y-84916331D01*
G37*
G36*
X138756552Y-84866331D02*
X138838625Y-84900327D01*
X138838626Y-84900328D01*
X138838629Y-84900329D01*
X138912496Y-84949686D01*
X138912500Y-84949689D01*
X138975311Y-85012500D01*
X138975313Y-85012503D01*
X138975314Y-85012504D01*
X139024671Y-85086371D01*
X139024672Y-85086374D01*
X139024673Y-85086375D01*
X139058669Y-85168448D01*
X139076000Y-85255579D01*
X139076000Y-85344421D01*
X139058669Y-85431552D01*
X139024673Y-85513625D01*
X139024671Y-85513629D01*
X138977871Y-85583669D01*
X138975311Y-85587500D01*
X138912500Y-85650311D01*
X138912497Y-85650313D01*
X138912496Y-85650314D01*
X138838629Y-85699671D01*
X138838626Y-85699672D01*
X138838625Y-85699673D01*
X138756552Y-85733669D01*
X138669421Y-85751000D01*
X138580579Y-85751000D01*
X138493448Y-85733669D01*
X138411375Y-85699673D01*
X138411374Y-85699672D01*
X138411371Y-85699671D01*
X138337504Y-85650314D01*
X138337503Y-85650313D01*
X138337500Y-85650311D01*
X138274689Y-85587500D01*
X138272129Y-85583669D01*
X138225329Y-85513629D01*
X138225327Y-85513625D01*
X138191331Y-85431552D01*
X138174000Y-85344421D01*
X138174000Y-85255579D01*
X138191331Y-85168448D01*
X138225327Y-85086375D01*
X138225328Y-85086374D01*
X138225329Y-85086371D01*
X138274686Y-85012504D01*
X138274687Y-85012503D01*
X138274689Y-85012500D01*
X138337500Y-84949689D01*
X138337504Y-84949686D01*
X138411371Y-84900329D01*
X138411374Y-84900328D01*
X138411375Y-84900327D01*
X138493448Y-84866331D01*
X138580579Y-84849000D01*
X138669421Y-84849000D01*
X138756552Y-84866331D01*
X138756552Y-84866331D01*
G37*
G36*
X141131552Y-84866331D02*
X141213625Y-84900327D01*
X141213626Y-84900328D01*
X141213629Y-84900329D01*
X141287496Y-84949686D01*
X141287500Y-84949689D01*
X141350311Y-85012500D01*
X141350313Y-85012503D01*
X141350314Y-85012504D01*
X141399671Y-85086371D01*
X141399672Y-85086374D01*
X141399673Y-85086375D01*
X141433669Y-85168448D01*
X141451000Y-85255579D01*
X141451000Y-85344421D01*
X141433669Y-85431552D01*
X141399673Y-85513625D01*
X141399671Y-85513629D01*
X141352871Y-85583669D01*
X141350311Y-85587500D01*
X141287500Y-85650311D01*
X141287497Y-85650313D01*
X141287496Y-85650314D01*
X141213629Y-85699671D01*
X141213626Y-85699672D01*
X141213625Y-85699673D01*
X141131552Y-85733669D01*
X141044421Y-85751000D01*
X140955579Y-85751000D01*
X140868448Y-85733669D01*
X140786375Y-85699673D01*
X140786374Y-85699672D01*
X140786371Y-85699671D01*
X140712504Y-85650314D01*
X140712503Y-85650313D01*
X140712500Y-85650311D01*
X140649689Y-85587500D01*
X140647129Y-85583669D01*
X140600329Y-85513629D01*
X140600327Y-85513625D01*
X140566331Y-85431552D01*
X140549000Y-85344421D01*
X140549000Y-85255579D01*
X140566331Y-85168448D01*
X140600327Y-85086375D01*
X140600328Y-85086374D01*
X140600329Y-85086371D01*
X140649686Y-85012504D01*
X140649687Y-85012503D01*
X140649689Y-85012500D01*
X140712500Y-84949689D01*
X140712504Y-84949686D01*
X140786371Y-84900329D01*
X140786374Y-84900328D01*
X140786375Y-84900327D01*
X140868448Y-84866331D01*
X140955579Y-84849000D01*
X141044421Y-84849000D01*
X141131552Y-84866331D01*
X141131552Y-84866331D01*
G37*
G36*
X132981552Y-84766331D02*
X133063625Y-84800327D01*
X133063626Y-84800328D01*
X133063629Y-84800329D01*
X133136469Y-84849000D01*
X133137500Y-84849689D01*
X133200311Y-84912500D01*
X133200313Y-84912503D01*
X133200314Y-84912504D01*
X133249671Y-84986371D01*
X133249672Y-84986374D01*
X133249673Y-84986375D01*
X133283669Y-85068448D01*
X133301000Y-85155579D01*
X133301000Y-85244421D01*
X133283669Y-85331552D01*
X133249673Y-85413625D01*
X133249671Y-85413629D01*
X133200314Y-85487496D01*
X133200311Y-85487500D01*
X133137500Y-85550311D01*
X133137497Y-85550313D01*
X133137496Y-85550314D01*
X133063629Y-85599671D01*
X133063626Y-85599672D01*
X133063625Y-85599673D01*
X132981552Y-85633669D01*
X132894421Y-85651000D01*
X132805579Y-85651000D01*
X132718448Y-85633669D01*
X132636375Y-85599673D01*
X132636374Y-85599672D01*
X132636371Y-85599671D01*
X132562504Y-85550314D01*
X132562503Y-85550313D01*
X132562500Y-85550311D01*
X132499689Y-85487500D01*
X132499686Y-85487496D01*
X132450329Y-85413629D01*
X132450327Y-85413625D01*
X132416331Y-85331552D01*
X132399000Y-85244421D01*
X132399000Y-85155579D01*
X132416331Y-85068448D01*
X132450327Y-84986375D01*
X132450328Y-84986374D01*
X132450329Y-84986371D01*
X132499686Y-84912504D01*
X132499687Y-84912503D01*
X132499689Y-84912500D01*
X132562500Y-84849689D01*
X132563531Y-84849000D01*
X132636371Y-84800329D01*
X132636374Y-84800328D01*
X132636375Y-84800327D01*
X132718448Y-84766331D01*
X132805579Y-84749000D01*
X132894421Y-84749000D01*
X132981552Y-84766331D01*
X132981552Y-84766331D01*
G37*
G36*
X128531552Y-84741331D02*
X128613625Y-84775327D01*
X128613626Y-84775328D01*
X128613629Y-84775329D01*
X128687496Y-84824686D01*
X128687500Y-84824689D01*
X128750311Y-84887500D01*
X128750313Y-84887503D01*
X128750314Y-84887504D01*
X128799671Y-84961371D01*
X128799672Y-84961374D01*
X128799673Y-84961375D01*
X128833669Y-85043448D01*
X128851000Y-85130579D01*
X128851000Y-85219421D01*
X128833669Y-85306552D01*
X128799673Y-85388625D01*
X128799671Y-85388629D01*
X128767016Y-85437500D01*
X128750311Y-85462500D01*
X128687500Y-85525311D01*
X128687497Y-85525313D01*
X128687496Y-85525314D01*
X128613629Y-85574671D01*
X128613626Y-85574672D01*
X128613625Y-85574673D01*
X128531552Y-85608669D01*
X128444421Y-85626000D01*
X128355579Y-85626000D01*
X128268448Y-85608669D01*
X128186375Y-85574673D01*
X128186374Y-85574672D01*
X128186371Y-85574671D01*
X128112504Y-85525314D01*
X128112503Y-85525313D01*
X128112500Y-85525311D01*
X128049689Y-85462500D01*
X128032984Y-85437500D01*
X128000329Y-85388629D01*
X128000327Y-85388625D01*
X127966331Y-85306552D01*
X127949000Y-85219421D01*
X127949000Y-85130579D01*
X127966331Y-85043448D01*
X128000327Y-84961375D01*
X128000328Y-84961374D01*
X128000329Y-84961371D01*
X128049686Y-84887504D01*
X128049687Y-84887503D01*
X128049689Y-84887500D01*
X128112500Y-84824689D01*
X128112504Y-84824686D01*
X128186371Y-84775329D01*
X128186374Y-84775328D01*
X128186375Y-84775327D01*
X128268448Y-84741331D01*
X128355579Y-84724000D01*
X128444421Y-84724000D01*
X128531552Y-84741331D01*
X128531552Y-84741331D01*
G37*
G36*
X126956552Y-84741331D02*
X127038625Y-84775327D01*
X127038626Y-84775328D01*
X127038629Y-84775329D01*
X127112496Y-84824686D01*
X127112500Y-84824689D01*
X127175311Y-84887500D01*
X127175313Y-84887503D01*
X127175314Y-84887504D01*
X127224671Y-84961371D01*
X127224672Y-84961374D01*
X127224673Y-84961375D01*
X127258669Y-85043448D01*
X127276000Y-85130579D01*
X127276000Y-85219421D01*
X127258669Y-85306552D01*
X127224673Y-85388625D01*
X127224671Y-85388629D01*
X127192016Y-85437500D01*
X127175311Y-85462500D01*
X127112500Y-85525311D01*
X127112497Y-85525313D01*
X127112496Y-85525314D01*
X127038629Y-85574671D01*
X127038626Y-85574672D01*
X127038625Y-85574673D01*
X126956552Y-85608669D01*
X126869421Y-85626000D01*
X126780579Y-85626000D01*
X126693448Y-85608669D01*
X126611375Y-85574673D01*
X126611374Y-85574672D01*
X126611371Y-85574671D01*
X126537504Y-85525314D01*
X126537503Y-85525313D01*
X126537500Y-85525311D01*
X126474689Y-85462500D01*
X126457984Y-85437500D01*
X126425329Y-85388629D01*
X126425327Y-85388625D01*
X126391331Y-85306552D01*
X126374000Y-85219421D01*
X126374000Y-85130579D01*
X126391331Y-85043448D01*
X126425327Y-84961375D01*
X126425328Y-84961374D01*
X126425329Y-84961371D01*
X126474686Y-84887504D01*
X126474687Y-84887503D01*
X126474689Y-84887500D01*
X126537500Y-84824689D01*
X126537504Y-84824686D01*
X126611371Y-84775329D01*
X126611374Y-84775328D01*
X126611375Y-84775327D01*
X126693448Y-84741331D01*
X126780579Y-84724000D01*
X126869421Y-84724000D01*
X126956552Y-84741331D01*
X126956552Y-84741331D01*
G37*
G36*
X125406552Y-84716331D02*
X125488625Y-84750327D01*
X125488626Y-84750328D01*
X125488629Y-84750329D01*
X125562496Y-84799686D01*
X125562500Y-84799689D01*
X125625311Y-84862500D01*
X125625313Y-84862503D01*
X125625314Y-84862504D01*
X125674671Y-84936371D01*
X125674672Y-84936374D01*
X125674673Y-84936375D01*
X125708669Y-85018448D01*
X125726000Y-85105579D01*
X125726000Y-85194421D01*
X125708669Y-85281552D01*
X125674673Y-85363625D01*
X125674671Y-85363629D01*
X125625314Y-85437496D01*
X125625311Y-85437500D01*
X125562500Y-85500311D01*
X125562497Y-85500313D01*
X125562496Y-85500314D01*
X125488629Y-85549671D01*
X125488626Y-85549672D01*
X125488625Y-85549673D01*
X125406552Y-85583669D01*
X125319421Y-85601000D01*
X125230579Y-85601000D01*
X125143448Y-85583669D01*
X125061375Y-85549673D01*
X125061374Y-85549672D01*
X125061371Y-85549671D01*
X124987504Y-85500314D01*
X124987503Y-85500313D01*
X124987500Y-85500311D01*
X124924689Y-85437500D01*
X124924686Y-85437496D01*
X124875329Y-85363629D01*
X124875327Y-85363625D01*
X124841331Y-85281552D01*
X124824000Y-85194421D01*
X124824000Y-85105579D01*
X124841331Y-85018448D01*
X124875327Y-84936375D01*
X124875328Y-84936374D01*
X124875329Y-84936371D01*
X124924686Y-84862504D01*
X124924687Y-84862503D01*
X124924689Y-84862500D01*
X124987500Y-84799689D01*
X124987504Y-84799686D01*
X125061371Y-84750329D01*
X125061374Y-84750328D01*
X125061375Y-84750327D01*
X125143448Y-84716331D01*
X125230579Y-84699000D01*
X125319421Y-84699000D01*
X125406552Y-84716331D01*
X125406552Y-84716331D01*
G37*
G36*
X123931552Y-84716331D02*
X124013625Y-84750327D01*
X124013626Y-84750328D01*
X124013629Y-84750329D01*
X124087496Y-84799686D01*
X124087500Y-84799689D01*
X124150311Y-84862500D01*
X124150313Y-84862503D01*
X124150314Y-84862504D01*
X124199671Y-84936371D01*
X124199672Y-84936374D01*
X124199673Y-84936375D01*
X124233669Y-85018448D01*
X124251000Y-85105579D01*
X124251000Y-85194421D01*
X124233669Y-85281552D01*
X124199673Y-85363625D01*
X124199671Y-85363629D01*
X124150314Y-85437496D01*
X124150311Y-85437500D01*
X124087500Y-85500311D01*
X124087497Y-85500313D01*
X124087496Y-85500314D01*
X124013629Y-85549671D01*
X124013626Y-85549672D01*
X124013625Y-85549673D01*
X123931552Y-85583669D01*
X123844421Y-85601000D01*
X123755579Y-85601000D01*
X123668448Y-85583669D01*
X123586375Y-85549673D01*
X123586374Y-85549672D01*
X123586371Y-85549671D01*
X123512504Y-85500314D01*
X123512503Y-85500313D01*
X123512500Y-85500311D01*
X123449689Y-85437500D01*
X123449686Y-85437496D01*
X123400329Y-85363629D01*
X123400327Y-85363625D01*
X123366331Y-85281552D01*
X123349000Y-85194421D01*
X123349000Y-85105579D01*
X123366331Y-85018448D01*
X123400327Y-84936375D01*
X123400328Y-84936374D01*
X123400329Y-84936371D01*
X123449686Y-84862504D01*
X123449687Y-84862503D01*
X123449689Y-84862500D01*
X123512500Y-84799689D01*
X123512504Y-84799686D01*
X123586371Y-84750329D01*
X123586374Y-84750328D01*
X123586375Y-84750327D01*
X123668448Y-84716331D01*
X123755579Y-84699000D01*
X123844421Y-84699000D01*
X123931552Y-84716331D01*
X123931552Y-84716331D01*
G37*
G36*
X116706552Y-83691331D02*
X116788625Y-83725327D01*
X116788626Y-83725328D01*
X116788629Y-83725329D01*
X116853160Y-83768448D01*
X116862500Y-83774689D01*
X116925311Y-83837500D01*
X116925313Y-83837503D01*
X116925314Y-83837504D01*
X116974671Y-83911371D01*
X116974672Y-83911374D01*
X116974673Y-83911375D01*
X117008669Y-83993448D01*
X117026000Y-84080579D01*
X117026000Y-84169421D01*
X117008669Y-84256552D01*
X116974673Y-84338625D01*
X116974671Y-84338629D01*
X116927871Y-84408669D01*
X116925311Y-84412500D01*
X116862500Y-84475311D01*
X116862497Y-84475313D01*
X116862496Y-84475314D01*
X116788629Y-84524671D01*
X116788626Y-84524672D01*
X116788625Y-84524673D01*
X116706552Y-84558669D01*
X116619421Y-84576000D01*
X116530579Y-84576000D01*
X116443448Y-84558669D01*
X116361375Y-84524673D01*
X116361374Y-84524672D01*
X116361371Y-84524671D01*
X116287504Y-84475314D01*
X116287503Y-84475313D01*
X116287500Y-84475311D01*
X116224689Y-84412500D01*
X116222129Y-84408669D01*
X116175329Y-84338629D01*
X116175327Y-84338625D01*
X116141331Y-84256552D01*
X116124000Y-84169421D01*
X116124000Y-84080579D01*
X116141331Y-83993448D01*
X116175327Y-83911375D01*
X116175328Y-83911374D01*
X116175329Y-83911371D01*
X116224686Y-83837504D01*
X116224687Y-83837503D01*
X116224689Y-83837500D01*
X116287500Y-83774689D01*
X116296840Y-83768448D01*
X116361371Y-83725329D01*
X116361374Y-83725328D01*
X116361375Y-83725327D01*
X116443448Y-83691331D01*
X116530579Y-83674000D01*
X116619421Y-83674000D01*
X116706552Y-83691331D01*
X116706552Y-83691331D01*
G37*
G36*
X131781552Y-83541331D02*
X131863625Y-83575327D01*
X131863626Y-83575328D01*
X131863629Y-83575329D01*
X131937496Y-83624686D01*
X131937500Y-83624689D01*
X132000311Y-83687500D01*
X132000313Y-83687503D01*
X132000314Y-83687504D01*
X132049671Y-83761371D01*
X132049672Y-83761374D01*
X132049673Y-83761375D01*
X132083669Y-83843448D01*
X132101000Y-83930579D01*
X132101000Y-84019421D01*
X132083669Y-84106552D01*
X132050139Y-84187500D01*
X132049671Y-84188629D01*
X132000314Y-84262496D01*
X132000311Y-84262500D01*
X131937500Y-84325311D01*
X131937497Y-84325313D01*
X131937496Y-84325314D01*
X131863629Y-84374671D01*
X131863626Y-84374672D01*
X131863625Y-84374673D01*
X131781552Y-84408669D01*
X131694421Y-84426000D01*
X131605579Y-84426000D01*
X131518448Y-84408669D01*
X131436375Y-84374673D01*
X131436374Y-84374672D01*
X131436371Y-84374671D01*
X131362504Y-84325314D01*
X131362503Y-84325313D01*
X131362500Y-84325311D01*
X131299689Y-84262500D01*
X131299686Y-84262496D01*
X131250329Y-84188629D01*
X131249861Y-84187500D01*
X131216331Y-84106552D01*
X131199000Y-84019421D01*
X131199000Y-83930579D01*
X131216331Y-83843448D01*
X131250327Y-83761375D01*
X131250328Y-83761374D01*
X131250329Y-83761371D01*
X131299686Y-83687504D01*
X131299687Y-83687503D01*
X131299689Y-83687500D01*
X131362500Y-83624689D01*
X131362504Y-83624686D01*
X131436371Y-83575329D01*
X131436374Y-83575328D01*
X131436375Y-83575327D01*
X131518448Y-83541331D01*
X131605579Y-83524000D01*
X131694421Y-83524000D01*
X131781552Y-83541331D01*
X131781552Y-83541331D01*
G37*
G36*
X134906552Y-83466331D02*
X134988625Y-83500327D01*
X134988626Y-83500328D01*
X134988629Y-83500329D01*
X135062496Y-83549686D01*
X135062500Y-83549689D01*
X135125311Y-83612500D01*
X135125313Y-83612503D01*
X135125314Y-83612504D01*
X135174671Y-83686371D01*
X135174672Y-83686374D01*
X135174673Y-83686375D01*
X135208669Y-83768448D01*
X135226000Y-83855579D01*
X135226000Y-83944421D01*
X135208669Y-84031552D01*
X135174673Y-84113625D01*
X135174671Y-84113629D01*
X135137392Y-84169420D01*
X135125311Y-84187500D01*
X135062500Y-84250311D01*
X135062497Y-84250313D01*
X135062496Y-84250314D01*
X134988629Y-84299671D01*
X134988626Y-84299672D01*
X134988625Y-84299673D01*
X134906552Y-84333669D01*
X134819421Y-84351000D01*
X134730579Y-84351000D01*
X134643448Y-84333669D01*
X134561375Y-84299673D01*
X134561374Y-84299672D01*
X134561371Y-84299671D01*
X134487504Y-84250314D01*
X134487503Y-84250313D01*
X134487500Y-84250311D01*
X134424689Y-84187500D01*
X134412608Y-84169420D01*
X134375329Y-84113629D01*
X134375327Y-84113625D01*
X134341331Y-84031552D01*
X134324000Y-83944421D01*
X134324000Y-83855579D01*
X134341331Y-83768448D01*
X134375327Y-83686375D01*
X134375328Y-83686374D01*
X134375329Y-83686371D01*
X134424686Y-83612504D01*
X134424687Y-83612503D01*
X134424689Y-83612500D01*
X134487500Y-83549689D01*
X134487504Y-83549686D01*
X134561371Y-83500329D01*
X134561374Y-83500328D01*
X134561375Y-83500327D01*
X134643448Y-83466331D01*
X134730579Y-83449000D01*
X134819421Y-83449000D01*
X134906552Y-83466331D01*
X134906552Y-83466331D01*
G37*
G36*
X126931552Y-82391331D02*
X127013625Y-82425327D01*
X127013626Y-82425328D01*
X127013629Y-82425329D01*
X127087496Y-82474686D01*
X127087500Y-82474689D01*
X127150311Y-82537500D01*
X127150313Y-82537503D01*
X127150314Y-82537504D01*
X127199671Y-82611371D01*
X127199672Y-82611374D01*
X127199673Y-82611375D01*
X127233669Y-82693448D01*
X127251000Y-82780579D01*
X127251000Y-82869421D01*
X127233669Y-82956552D01*
X127200139Y-83037500D01*
X127199671Y-83038629D01*
X127150314Y-83112496D01*
X127150311Y-83112500D01*
X127087500Y-83175311D01*
X127087497Y-83175313D01*
X127087496Y-83175314D01*
X127013629Y-83224671D01*
X127013626Y-83224672D01*
X127013625Y-83224673D01*
X126931552Y-83258669D01*
X126844421Y-83276000D01*
X126755579Y-83276000D01*
X126668448Y-83258669D01*
X126586375Y-83224673D01*
X126586374Y-83224672D01*
X126586371Y-83224671D01*
X126512504Y-83175314D01*
X126512503Y-83175313D01*
X126512500Y-83175311D01*
X126449689Y-83112500D01*
X126449686Y-83112496D01*
X126400329Y-83038629D01*
X126399861Y-83037500D01*
X126366331Y-82956552D01*
X126349000Y-82869421D01*
X126349000Y-82780579D01*
X126366331Y-82693448D01*
X126400327Y-82611375D01*
X126400328Y-82611374D01*
X126400329Y-82611371D01*
X126449686Y-82537504D01*
X126449687Y-82537503D01*
X126449689Y-82537500D01*
X126512500Y-82474689D01*
X126512504Y-82474686D01*
X126586371Y-82425329D01*
X126586374Y-82425328D01*
X126586375Y-82425327D01*
X126668448Y-82391331D01*
X126755579Y-82374000D01*
X126844421Y-82374000D01*
X126931552Y-82391331D01*
X126931552Y-82391331D01*
G37*
G36*
X128431552Y-82391331D02*
X128513625Y-82425327D01*
X128513626Y-82425328D01*
X128513629Y-82425329D01*
X128587496Y-82474686D01*
X128587500Y-82474689D01*
X128650311Y-82537500D01*
X128650313Y-82537503D01*
X128650314Y-82537504D01*
X128699671Y-82611371D01*
X128699672Y-82611374D01*
X128699673Y-82611375D01*
X128733669Y-82693448D01*
X128751000Y-82780579D01*
X128751000Y-82869421D01*
X128733669Y-82956552D01*
X128700139Y-83037500D01*
X128699671Y-83038629D01*
X128650314Y-83112496D01*
X128650311Y-83112500D01*
X128587500Y-83175311D01*
X128587497Y-83175313D01*
X128587496Y-83175314D01*
X128513629Y-83224671D01*
X128513626Y-83224672D01*
X128513625Y-83224673D01*
X128431552Y-83258669D01*
X128344421Y-83276000D01*
X128255579Y-83276000D01*
X128168448Y-83258669D01*
X128086375Y-83224673D01*
X128086374Y-83224672D01*
X128086371Y-83224671D01*
X128012504Y-83175314D01*
X128012503Y-83175313D01*
X128012500Y-83175311D01*
X127949689Y-83112500D01*
X127949686Y-83112496D01*
X127900329Y-83038629D01*
X127899861Y-83037500D01*
X127866331Y-82956552D01*
X127849000Y-82869421D01*
X127849000Y-82780579D01*
X127866331Y-82693448D01*
X127900327Y-82611375D01*
X127900328Y-82611374D01*
X127900329Y-82611371D01*
X127949686Y-82537504D01*
X127949687Y-82537503D01*
X127949689Y-82537500D01*
X128012500Y-82474689D01*
X128012504Y-82474686D01*
X128086371Y-82425329D01*
X128086374Y-82425328D01*
X128086375Y-82425327D01*
X128168448Y-82391331D01*
X128255579Y-82374000D01*
X128344421Y-82374000D01*
X128431552Y-82391331D01*
X128431552Y-82391331D01*
G37*
G36*
X129781552Y-82366331D02*
X129863625Y-82400327D01*
X129863626Y-82400328D01*
X129863629Y-82400329D01*
X129920942Y-82438625D01*
X129937500Y-82449689D01*
X130000311Y-82512500D01*
X130000313Y-82512503D01*
X130000314Y-82512504D01*
X130049671Y-82586371D01*
X130049672Y-82586374D01*
X130049673Y-82586375D01*
X130083669Y-82668448D01*
X130101000Y-82755579D01*
X130101000Y-82844421D01*
X130083669Y-82931552D01*
X130049673Y-83013625D01*
X130049671Y-83013629D01*
X130007995Y-83076000D01*
X130000311Y-83087500D01*
X129937500Y-83150311D01*
X129937497Y-83150313D01*
X129937496Y-83150314D01*
X129863629Y-83199671D01*
X129863626Y-83199672D01*
X129863625Y-83199673D01*
X129781552Y-83233669D01*
X129694421Y-83251000D01*
X129605579Y-83251000D01*
X129518448Y-83233669D01*
X129436375Y-83199673D01*
X129436374Y-83199672D01*
X129436371Y-83199671D01*
X129362504Y-83150314D01*
X129362503Y-83150313D01*
X129362500Y-83150311D01*
X129299689Y-83087500D01*
X129292005Y-83076000D01*
X129250329Y-83013629D01*
X129250327Y-83013625D01*
X129216331Y-82931552D01*
X129199000Y-82844421D01*
X129199000Y-82755579D01*
X129216331Y-82668448D01*
X129250327Y-82586375D01*
X129250328Y-82586374D01*
X129250329Y-82586371D01*
X129299686Y-82512504D01*
X129299687Y-82512503D01*
X129299689Y-82512500D01*
X129362500Y-82449689D01*
X129379058Y-82438625D01*
X129436371Y-82400329D01*
X129436374Y-82400328D01*
X129436375Y-82400327D01*
X129518448Y-82366331D01*
X129605579Y-82349000D01*
X129694421Y-82349000D01*
X129781552Y-82366331D01*
X129781552Y-82366331D01*
G37*
G36*
X125381552Y-82366331D02*
X125463625Y-82400327D01*
X125463626Y-82400328D01*
X125463629Y-82400329D01*
X125520942Y-82438625D01*
X125537500Y-82449689D01*
X125600311Y-82512500D01*
X125600313Y-82512503D01*
X125600314Y-82512504D01*
X125649671Y-82586371D01*
X125649672Y-82586374D01*
X125649673Y-82586375D01*
X125683669Y-82668448D01*
X125701000Y-82755579D01*
X125701000Y-82844421D01*
X125683669Y-82931552D01*
X125649673Y-83013625D01*
X125649671Y-83013629D01*
X125607995Y-83076000D01*
X125600311Y-83087500D01*
X125537500Y-83150311D01*
X125537497Y-83150313D01*
X125537496Y-83150314D01*
X125463629Y-83199671D01*
X125463626Y-83199672D01*
X125463625Y-83199673D01*
X125381552Y-83233669D01*
X125294421Y-83251000D01*
X125205579Y-83251000D01*
X125118448Y-83233669D01*
X125036375Y-83199673D01*
X125036374Y-83199672D01*
X125036371Y-83199671D01*
X124962504Y-83150314D01*
X124962503Y-83150313D01*
X124962500Y-83150311D01*
X124899689Y-83087500D01*
X124892005Y-83076000D01*
X124850329Y-83013629D01*
X124850327Y-83013625D01*
X124816331Y-82931552D01*
X124799000Y-82844421D01*
X124799000Y-82755579D01*
X124816331Y-82668448D01*
X124850327Y-82586375D01*
X124850328Y-82586374D01*
X124850329Y-82586371D01*
X124899686Y-82512504D01*
X124899687Y-82512503D01*
X124899689Y-82512500D01*
X124962500Y-82449689D01*
X124979058Y-82438625D01*
X125036371Y-82400329D01*
X125036374Y-82400328D01*
X125036375Y-82400327D01*
X125118448Y-82366331D01*
X125205579Y-82349000D01*
X125294421Y-82349000D01*
X125381552Y-82366331D01*
X125381552Y-82366331D01*
G37*
G36*
X123906552Y-82316331D02*
X123988625Y-82350327D01*
X123988626Y-82350328D01*
X123988629Y-82350329D01*
X124053160Y-82393448D01*
X124062500Y-82399689D01*
X124125311Y-82462500D01*
X124125313Y-82462503D01*
X124125314Y-82462504D01*
X124174671Y-82536371D01*
X124174672Y-82536374D01*
X124174673Y-82536375D01*
X124208669Y-82618448D01*
X124226000Y-82705579D01*
X124226000Y-82794421D01*
X124208669Y-82881552D01*
X124174673Y-82963625D01*
X124174671Y-82963629D01*
X124133882Y-83024673D01*
X124125311Y-83037500D01*
X124062500Y-83100311D01*
X124062497Y-83100313D01*
X124062496Y-83100314D01*
X123988629Y-83149671D01*
X123988626Y-83149672D01*
X123988625Y-83149673D01*
X123906552Y-83183669D01*
X123819421Y-83201000D01*
X123730579Y-83201000D01*
X123643448Y-83183669D01*
X123561375Y-83149673D01*
X123561374Y-83149672D01*
X123561371Y-83149671D01*
X123487504Y-83100314D01*
X123487503Y-83100313D01*
X123487500Y-83100311D01*
X123424689Y-83037500D01*
X123416118Y-83024673D01*
X123375329Y-82963629D01*
X123375327Y-82963625D01*
X123341331Y-82881552D01*
X123324000Y-82794421D01*
X123324000Y-82705579D01*
X123341331Y-82618448D01*
X123375327Y-82536375D01*
X123375328Y-82536374D01*
X123375329Y-82536371D01*
X123424686Y-82462504D01*
X123424687Y-82462503D01*
X123424689Y-82462500D01*
X123487500Y-82399689D01*
X123496840Y-82393448D01*
X123561371Y-82350329D01*
X123561374Y-82350328D01*
X123561375Y-82350327D01*
X123643448Y-82316331D01*
X123730579Y-82299000D01*
X123819421Y-82299000D01*
X123906552Y-82316331D01*
X123906552Y-82316331D01*
G37*
G36*
X138756552Y-82191331D02*
X138838625Y-82225327D01*
X138838626Y-82225328D01*
X138838629Y-82225329D01*
X138904616Y-82269421D01*
X138912500Y-82274689D01*
X138975311Y-82337500D01*
X138975313Y-82337503D01*
X138975314Y-82337504D01*
X139024671Y-82411371D01*
X139024672Y-82411374D01*
X139024673Y-82411375D01*
X139058669Y-82493448D01*
X139076000Y-82580579D01*
X139076000Y-82669421D01*
X139058669Y-82756552D01*
X139035496Y-82812496D01*
X139024671Y-82838629D01*
X138995990Y-82881552D01*
X138975311Y-82912500D01*
X138912500Y-82975311D01*
X138912497Y-82975313D01*
X138912496Y-82975314D01*
X138838629Y-83024671D01*
X138838626Y-83024672D01*
X138838625Y-83024673D01*
X138756552Y-83058669D01*
X138669421Y-83076000D01*
X138580579Y-83076000D01*
X138493448Y-83058669D01*
X138411375Y-83024673D01*
X138411374Y-83024672D01*
X138411371Y-83024671D01*
X138337504Y-82975314D01*
X138337503Y-82975313D01*
X138337500Y-82975311D01*
X138274689Y-82912500D01*
X138254010Y-82881552D01*
X138225329Y-82838629D01*
X138214504Y-82812496D01*
X138191331Y-82756552D01*
X138174000Y-82669421D01*
X138174000Y-82580579D01*
X138191331Y-82493448D01*
X138225327Y-82411375D01*
X138225328Y-82411374D01*
X138225329Y-82411371D01*
X138274686Y-82337504D01*
X138274687Y-82337503D01*
X138274689Y-82337500D01*
X138337500Y-82274689D01*
X138345384Y-82269421D01*
X138411371Y-82225329D01*
X138411374Y-82225328D01*
X138411375Y-82225327D01*
X138493448Y-82191331D01*
X138580579Y-82174000D01*
X138669421Y-82174000D01*
X138756552Y-82191331D01*
X138756552Y-82191331D01*
G37*
G36*
X143381552Y-82141331D02*
X143463625Y-82175327D01*
X143463626Y-82175328D01*
X143463629Y-82175329D01*
X143537496Y-82224686D01*
X143537500Y-82224689D01*
X143600311Y-82287500D01*
X143600313Y-82287503D01*
X143600314Y-82287504D01*
X143649671Y-82361371D01*
X143649672Y-82361374D01*
X143649673Y-82361375D01*
X143683669Y-82443448D01*
X143701000Y-82530579D01*
X143701000Y-82619421D01*
X143683669Y-82706552D01*
X143653005Y-82780580D01*
X143649671Y-82788629D01*
X143612392Y-82844420D01*
X143600311Y-82862500D01*
X143537500Y-82925311D01*
X143537497Y-82925313D01*
X143537496Y-82925314D01*
X143463629Y-82974671D01*
X143463626Y-82974672D01*
X143463625Y-82974673D01*
X143381552Y-83008669D01*
X143294421Y-83026000D01*
X143205579Y-83026000D01*
X143118448Y-83008669D01*
X143036375Y-82974673D01*
X143036374Y-82974672D01*
X143036371Y-82974671D01*
X142962504Y-82925314D01*
X142962503Y-82925313D01*
X142962500Y-82925311D01*
X142899689Y-82862500D01*
X142887608Y-82844420D01*
X142850329Y-82788629D01*
X142846995Y-82780580D01*
X142816331Y-82706552D01*
X142799000Y-82619421D01*
X142799000Y-82530579D01*
X142816331Y-82443448D01*
X142850327Y-82361375D01*
X142850328Y-82361374D01*
X142850329Y-82361371D01*
X142899686Y-82287504D01*
X142899687Y-82287503D01*
X142899689Y-82287500D01*
X142962500Y-82224689D01*
X142962504Y-82224686D01*
X143036371Y-82175329D01*
X143036374Y-82175328D01*
X143036375Y-82175327D01*
X143118448Y-82141331D01*
X143205579Y-82124000D01*
X143294421Y-82124000D01*
X143381552Y-82141331D01*
X143381552Y-82141331D01*
G37*
G36*
X141131552Y-82091331D02*
X141213625Y-82125327D01*
X141213626Y-82125328D01*
X141213629Y-82125329D01*
X141263525Y-82158669D01*
X141287500Y-82174689D01*
X141350311Y-82237500D01*
X141350313Y-82237503D01*
X141350314Y-82237504D01*
X141399671Y-82311371D01*
X141399672Y-82311374D01*
X141399673Y-82311375D01*
X141433669Y-82393448D01*
X141451000Y-82480579D01*
X141451000Y-82569421D01*
X141433669Y-82656552D01*
X141412958Y-82706552D01*
X141399671Y-82738629D01*
X141362392Y-82794420D01*
X141350311Y-82812500D01*
X141287500Y-82875311D01*
X141287497Y-82875313D01*
X141287496Y-82875314D01*
X141213629Y-82924671D01*
X141213626Y-82924672D01*
X141213625Y-82924673D01*
X141131552Y-82958669D01*
X141044421Y-82976000D01*
X140955579Y-82976000D01*
X140868448Y-82958669D01*
X140786375Y-82924673D01*
X140786374Y-82924672D01*
X140786371Y-82924671D01*
X140712504Y-82875314D01*
X140712503Y-82875313D01*
X140712500Y-82875311D01*
X140649689Y-82812500D01*
X140637608Y-82794420D01*
X140600329Y-82738629D01*
X140587042Y-82706552D01*
X140566331Y-82656552D01*
X140549000Y-82569421D01*
X140549000Y-82480579D01*
X140566331Y-82393448D01*
X140600327Y-82311375D01*
X140600328Y-82311374D01*
X140600329Y-82311371D01*
X140649686Y-82237504D01*
X140649687Y-82237503D01*
X140649689Y-82237500D01*
X140712500Y-82174689D01*
X140736475Y-82158669D01*
X140786371Y-82125329D01*
X140786374Y-82125328D01*
X140786375Y-82125327D01*
X140868448Y-82091331D01*
X140955579Y-82074000D01*
X141044421Y-82074000D01*
X141131552Y-82091331D01*
X141131552Y-82091331D01*
G37*
G36*
X133406552Y-81891331D02*
X133488625Y-81925327D01*
X133488626Y-81925328D01*
X133488629Y-81925329D01*
X133562496Y-81974686D01*
X133562500Y-81974689D01*
X133625311Y-82037500D01*
X133625313Y-82037503D01*
X133625314Y-82037504D01*
X133674671Y-82111371D01*
X133674672Y-82111374D01*
X133674673Y-82111375D01*
X133708669Y-82193448D01*
X133726000Y-82280579D01*
X133726000Y-82369421D01*
X133708669Y-82456552D01*
X133675605Y-82536375D01*
X133674671Y-82538629D01*
X133626063Y-82611375D01*
X133625311Y-82612500D01*
X133562500Y-82675311D01*
X133562497Y-82675313D01*
X133562496Y-82675314D01*
X133488629Y-82724671D01*
X133488626Y-82724672D01*
X133488625Y-82724673D01*
X133406552Y-82758669D01*
X133319421Y-82776000D01*
X133230579Y-82776000D01*
X133143448Y-82758669D01*
X133061375Y-82724673D01*
X133061374Y-82724672D01*
X133061371Y-82724671D01*
X132987504Y-82675314D01*
X132987503Y-82675313D01*
X132987500Y-82675311D01*
X132924689Y-82612500D01*
X132923937Y-82611375D01*
X132875329Y-82538629D01*
X132874395Y-82536375D01*
X132841331Y-82456552D01*
X132824000Y-82369421D01*
X132824000Y-82280579D01*
X132841331Y-82193448D01*
X132875327Y-82111375D01*
X132875328Y-82111374D01*
X132875329Y-82111371D01*
X132924686Y-82037504D01*
X132924687Y-82037503D01*
X132924689Y-82037500D01*
X132987500Y-81974689D01*
X132987504Y-81974686D01*
X133061371Y-81925329D01*
X133061374Y-81925328D01*
X133061375Y-81925327D01*
X133143448Y-81891331D01*
X133230579Y-81874000D01*
X133319421Y-81874000D01*
X133406552Y-81891331D01*
X133406552Y-81891331D01*
G37*
G36*
X135456552Y-81791331D02*
X135538625Y-81825327D01*
X135538626Y-81825328D01*
X135538629Y-81825329D01*
X135611469Y-81874000D01*
X135612500Y-81874689D01*
X135675311Y-81937500D01*
X135675313Y-81937503D01*
X135675314Y-81937504D01*
X135724671Y-82011371D01*
X135724672Y-82011374D01*
X135724673Y-82011375D01*
X135758669Y-82093448D01*
X135776000Y-82180579D01*
X135776000Y-82269421D01*
X135758669Y-82356552D01*
X135735960Y-82411375D01*
X135724671Y-82438629D01*
X135675314Y-82512496D01*
X135675311Y-82512500D01*
X135612500Y-82575311D01*
X135612497Y-82575313D01*
X135612496Y-82575314D01*
X135538629Y-82624671D01*
X135538626Y-82624672D01*
X135538625Y-82624673D01*
X135456552Y-82658669D01*
X135369421Y-82676000D01*
X135280579Y-82676000D01*
X135193448Y-82658669D01*
X135111375Y-82624673D01*
X135111374Y-82624672D01*
X135111371Y-82624671D01*
X135037504Y-82575314D01*
X135037503Y-82575313D01*
X135037500Y-82575311D01*
X134974689Y-82512500D01*
X134974686Y-82512496D01*
X134925329Y-82438629D01*
X134914040Y-82411375D01*
X134891331Y-82356552D01*
X134874000Y-82269421D01*
X134874000Y-82180579D01*
X134891331Y-82093448D01*
X134925327Y-82011375D01*
X134925328Y-82011374D01*
X134925329Y-82011371D01*
X134974686Y-81937504D01*
X134974687Y-81937503D01*
X134974689Y-81937500D01*
X135037500Y-81874689D01*
X135038531Y-81874000D01*
X135111371Y-81825329D01*
X135111374Y-81825328D01*
X135111375Y-81825327D01*
X135193448Y-81791331D01*
X135280579Y-81774000D01*
X135369421Y-81774000D01*
X135456552Y-81791331D01*
X135456552Y-81791331D01*
G37*
G36*
X119106552Y-81291331D02*
X119188625Y-81325327D01*
X119188626Y-81325328D01*
X119188629Y-81325329D01*
X119262496Y-81374686D01*
X119262500Y-81374689D01*
X119325311Y-81437500D01*
X119325313Y-81437503D01*
X119325314Y-81437504D01*
X119374671Y-81511371D01*
X119374672Y-81511374D01*
X119374673Y-81511375D01*
X119408669Y-81593448D01*
X119426000Y-81680579D01*
X119426000Y-81769421D01*
X119408669Y-81856552D01*
X119385496Y-81912496D01*
X119374671Y-81938629D01*
X119326063Y-82011375D01*
X119325311Y-82012500D01*
X119262500Y-82075311D01*
X119262497Y-82075313D01*
X119262496Y-82075314D01*
X119188629Y-82124671D01*
X119188626Y-82124672D01*
X119188625Y-82124673D01*
X119106552Y-82158669D01*
X119019421Y-82176000D01*
X118930579Y-82176000D01*
X118843448Y-82158669D01*
X118761375Y-82124673D01*
X118761374Y-82124672D01*
X118761371Y-82124671D01*
X118687504Y-82075314D01*
X118687503Y-82075313D01*
X118687500Y-82075311D01*
X118624689Y-82012500D01*
X118623937Y-82011375D01*
X118575329Y-81938629D01*
X118564504Y-81912496D01*
X118541331Y-81856552D01*
X118524000Y-81769421D01*
X118524000Y-81680579D01*
X118541331Y-81593448D01*
X118575327Y-81511375D01*
X118575328Y-81511374D01*
X118575329Y-81511371D01*
X118624686Y-81437504D01*
X118624687Y-81437503D01*
X118624689Y-81437500D01*
X118687500Y-81374689D01*
X118687504Y-81374686D01*
X118761371Y-81325329D01*
X118761374Y-81325328D01*
X118761375Y-81325327D01*
X118843448Y-81291331D01*
X118930579Y-81274000D01*
X119019421Y-81274000D01*
X119106552Y-81291331D01*
X119106552Y-81291331D01*
G37*
G36*
X130906552Y-81241331D02*
X130988625Y-81275327D01*
X130988626Y-81275328D01*
X130988629Y-81275329D01*
X131062496Y-81324686D01*
X131062500Y-81324689D01*
X131125311Y-81387500D01*
X131125313Y-81387503D01*
X131125314Y-81387504D01*
X131174671Y-81461371D01*
X131174672Y-81461374D01*
X131174673Y-81461375D01*
X131208669Y-81543448D01*
X131226000Y-81630579D01*
X131226000Y-81719421D01*
X131208669Y-81806552D01*
X131174673Y-81888625D01*
X131174671Y-81888629D01*
X131125314Y-81962496D01*
X131125311Y-81962500D01*
X131062500Y-82025311D01*
X131062497Y-82025313D01*
X131062496Y-82025314D01*
X130988629Y-82074671D01*
X130988626Y-82074672D01*
X130988625Y-82074673D01*
X130906552Y-82108669D01*
X130819421Y-82126000D01*
X130730579Y-82126000D01*
X130643448Y-82108669D01*
X130561375Y-82074673D01*
X130561374Y-82074672D01*
X130561371Y-82074671D01*
X130487504Y-82025314D01*
X130487503Y-82025313D01*
X130487500Y-82025311D01*
X130424689Y-81962500D01*
X130424686Y-81962496D01*
X130375329Y-81888629D01*
X130375327Y-81888625D01*
X130341331Y-81806552D01*
X130324000Y-81719421D01*
X130324000Y-81630579D01*
X130341331Y-81543448D01*
X130375327Y-81461375D01*
X130375328Y-81461374D01*
X130375329Y-81461371D01*
X130424686Y-81387504D01*
X130424687Y-81387503D01*
X130424689Y-81387500D01*
X130487500Y-81324689D01*
X130487504Y-81324686D01*
X130561371Y-81275329D01*
X130561374Y-81275328D01*
X130561375Y-81275327D01*
X130643448Y-81241331D01*
X130730579Y-81224000D01*
X130819421Y-81224000D01*
X130906552Y-81241331D01*
X130906552Y-81241331D01*
G37*
G36*
X123381552Y-81191331D02*
X123463625Y-81225327D01*
X123463626Y-81225328D01*
X123463629Y-81225329D01*
X123536469Y-81274000D01*
X123537500Y-81274689D01*
X123600311Y-81337500D01*
X123600313Y-81337503D01*
X123600314Y-81337504D01*
X123649671Y-81411371D01*
X123649672Y-81411374D01*
X123649673Y-81411375D01*
X123683669Y-81493448D01*
X123701000Y-81580579D01*
X123701000Y-81669421D01*
X123683669Y-81756552D01*
X123662958Y-81806552D01*
X123649671Y-81838629D01*
X123600314Y-81912496D01*
X123600311Y-81912500D01*
X123537500Y-81975311D01*
X123537497Y-81975313D01*
X123537496Y-81975314D01*
X123463629Y-82024671D01*
X123463626Y-82024672D01*
X123463625Y-82024673D01*
X123381552Y-82058669D01*
X123294421Y-82076000D01*
X123205579Y-82076000D01*
X123118448Y-82058669D01*
X123036375Y-82024673D01*
X123036374Y-82024672D01*
X123036371Y-82024671D01*
X122962504Y-81975314D01*
X122962503Y-81975313D01*
X122962500Y-81975311D01*
X122899689Y-81912500D01*
X122899686Y-81912496D01*
X122850329Y-81838629D01*
X122837042Y-81806552D01*
X122816331Y-81756552D01*
X122799000Y-81669421D01*
X122799000Y-81580579D01*
X122816331Y-81493448D01*
X122850327Y-81411375D01*
X122850328Y-81411374D01*
X122850329Y-81411371D01*
X122899686Y-81337504D01*
X122899687Y-81337503D01*
X122899689Y-81337500D01*
X122962500Y-81274689D01*
X122963531Y-81274000D01*
X123036371Y-81225329D01*
X123036374Y-81225328D01*
X123036375Y-81225327D01*
X123118448Y-81191331D01*
X123205579Y-81174000D01*
X123294421Y-81174000D01*
X123381552Y-81191331D01*
X123381552Y-81191331D01*
G37*
G36*
X134531552Y-80766331D02*
X134613625Y-80800327D01*
X134613626Y-80800328D01*
X134613629Y-80800329D01*
X134687496Y-80849686D01*
X134687500Y-80849689D01*
X134750311Y-80912500D01*
X134750313Y-80912503D01*
X134750314Y-80912504D01*
X134799671Y-80986371D01*
X134799672Y-80986374D01*
X134799673Y-80986375D01*
X134833669Y-81068448D01*
X134851000Y-81155579D01*
X134851000Y-81244421D01*
X134833669Y-81331552D01*
X134800605Y-81411375D01*
X134799671Y-81413629D01*
X134750314Y-81487496D01*
X134750311Y-81487500D01*
X134687500Y-81550311D01*
X134687497Y-81550313D01*
X134687496Y-81550314D01*
X134613629Y-81599671D01*
X134613626Y-81599672D01*
X134613625Y-81599673D01*
X134531552Y-81633669D01*
X134444421Y-81651000D01*
X134355579Y-81651000D01*
X134268448Y-81633669D01*
X134186375Y-81599673D01*
X134186374Y-81599672D01*
X134186371Y-81599671D01*
X134112504Y-81550314D01*
X134112503Y-81550313D01*
X134112500Y-81550311D01*
X134049689Y-81487500D01*
X134049686Y-81487496D01*
X134000329Y-81413629D01*
X133999395Y-81411375D01*
X133966331Y-81331552D01*
X133949000Y-81244421D01*
X133949000Y-81155579D01*
X133966331Y-81068448D01*
X134000327Y-80986375D01*
X134000328Y-80986374D01*
X134000329Y-80986371D01*
X134049686Y-80912504D01*
X134049687Y-80912503D01*
X134049689Y-80912500D01*
X134112500Y-80849689D01*
X134112504Y-80849686D01*
X134186371Y-80800329D01*
X134186374Y-80800328D01*
X134186375Y-80800327D01*
X134268448Y-80766331D01*
X134355579Y-80749000D01*
X134444421Y-80749000D01*
X134531552Y-80766331D01*
X134531552Y-80766331D01*
G37*
G36*
X131756552Y-80341331D02*
X131838625Y-80375327D01*
X131838626Y-80375328D01*
X131838629Y-80375329D01*
X131912496Y-80424686D01*
X131912500Y-80424689D01*
X131975311Y-80487500D01*
X131975313Y-80487503D01*
X131975314Y-80487504D01*
X132024671Y-80561371D01*
X132024672Y-80561374D01*
X132024673Y-80561375D01*
X132058669Y-80643448D01*
X132076000Y-80730579D01*
X132076000Y-80819421D01*
X132058669Y-80906552D01*
X132025605Y-80986375D01*
X132024671Y-80988629D01*
X131975314Y-81062496D01*
X131975311Y-81062500D01*
X131912500Y-81125311D01*
X131912497Y-81125313D01*
X131912496Y-81125314D01*
X131838629Y-81174671D01*
X131838626Y-81174672D01*
X131838625Y-81174673D01*
X131756552Y-81208669D01*
X131669421Y-81226000D01*
X131580579Y-81226000D01*
X131493448Y-81208669D01*
X131411375Y-81174673D01*
X131411374Y-81174672D01*
X131411371Y-81174671D01*
X131337504Y-81125314D01*
X131337503Y-81125313D01*
X131337500Y-81125311D01*
X131274689Y-81062500D01*
X131274686Y-81062496D01*
X131225329Y-80988629D01*
X131224395Y-80986375D01*
X131191331Y-80906552D01*
X131174000Y-80819421D01*
X131174000Y-80730579D01*
X131191331Y-80643448D01*
X131225327Y-80561375D01*
X131225328Y-80561374D01*
X131225329Y-80561371D01*
X131274686Y-80487504D01*
X131274687Y-80487503D01*
X131274689Y-80487500D01*
X131337500Y-80424689D01*
X131337504Y-80424686D01*
X131411371Y-80375329D01*
X131411374Y-80375328D01*
X131411375Y-80375327D01*
X131493448Y-80341331D01*
X131580579Y-80324000D01*
X131669421Y-80324000D01*
X131756552Y-80341331D01*
X131756552Y-80341331D01*
G37*
G36*
X129281552Y-79991331D02*
X129363625Y-80025327D01*
X129363626Y-80025328D01*
X129363629Y-80025329D01*
X129408902Y-80055580D01*
X129437500Y-80074689D01*
X129500311Y-80137500D01*
X129500313Y-80137503D01*
X129500314Y-80137504D01*
X129549671Y-80211371D01*
X129549672Y-80211374D01*
X129549673Y-80211375D01*
X129583669Y-80293448D01*
X129601000Y-80380579D01*
X129601000Y-80469421D01*
X129583669Y-80556552D01*
X129549673Y-80638625D01*
X129549671Y-80638629D01*
X129508882Y-80699673D01*
X129500311Y-80712500D01*
X129437500Y-80775311D01*
X129437497Y-80775313D01*
X129437496Y-80775314D01*
X129363629Y-80824671D01*
X129363626Y-80824672D01*
X129363625Y-80824673D01*
X129281552Y-80858669D01*
X129194421Y-80876000D01*
X129105579Y-80876000D01*
X129018448Y-80858669D01*
X128936375Y-80824673D01*
X128936374Y-80824672D01*
X128936371Y-80824671D01*
X128862504Y-80775314D01*
X128862503Y-80775313D01*
X128862500Y-80775311D01*
X128799689Y-80712500D01*
X128791118Y-80699673D01*
X128750329Y-80638629D01*
X128750327Y-80638625D01*
X128716331Y-80556552D01*
X128699000Y-80469421D01*
X128699000Y-80380579D01*
X128716331Y-80293448D01*
X128750327Y-80211375D01*
X128750328Y-80211374D01*
X128750329Y-80211371D01*
X128799686Y-80137504D01*
X128799687Y-80137503D01*
X128799689Y-80137500D01*
X128862500Y-80074689D01*
X128891098Y-80055580D01*
X128936371Y-80025329D01*
X128936374Y-80025328D01*
X128936375Y-80025327D01*
X129018448Y-79991331D01*
X129105579Y-79974000D01*
X129194421Y-79974000D01*
X129281552Y-79991331D01*
X129281552Y-79991331D01*
G37*
G36*
X125056552Y-79866331D02*
X125138625Y-79900327D01*
X125138626Y-79900328D01*
X125138629Y-79900329D01*
X125212496Y-79949686D01*
X125212500Y-79949689D01*
X125275311Y-80012500D01*
X125275313Y-80012503D01*
X125275314Y-80012504D01*
X125324671Y-80086371D01*
X125324672Y-80086374D01*
X125324673Y-80086375D01*
X125358669Y-80168448D01*
X125376000Y-80255579D01*
X125376000Y-80344421D01*
X125358669Y-80431552D01*
X125330453Y-80499671D01*
X125324671Y-80513629D01*
X125275314Y-80587496D01*
X125275311Y-80587500D01*
X125212500Y-80650311D01*
X125212497Y-80650313D01*
X125212496Y-80650314D01*
X125138629Y-80699671D01*
X125138626Y-80699672D01*
X125138625Y-80699673D01*
X125056552Y-80733669D01*
X124969421Y-80751000D01*
X124880579Y-80751000D01*
X124793448Y-80733669D01*
X124711375Y-80699673D01*
X124711374Y-80699672D01*
X124711371Y-80699671D01*
X124637504Y-80650314D01*
X124637503Y-80650313D01*
X124637500Y-80650311D01*
X124574689Y-80587500D01*
X124574686Y-80587496D01*
X124525329Y-80513629D01*
X124519547Y-80499671D01*
X124491331Y-80431552D01*
X124474000Y-80344421D01*
X124474000Y-80255579D01*
X124491331Y-80168448D01*
X124525327Y-80086375D01*
X124525328Y-80086374D01*
X124525329Y-80086371D01*
X124574686Y-80012504D01*
X124574687Y-80012503D01*
X124574689Y-80012500D01*
X124637500Y-79949689D01*
X124637504Y-79949686D01*
X124711371Y-79900329D01*
X124711374Y-79900328D01*
X124711375Y-79900327D01*
X124793448Y-79866331D01*
X124880579Y-79849000D01*
X124969421Y-79849000D01*
X125056552Y-79866331D01*
X125056552Y-79866331D01*
G37*
G36*
X135581552Y-79666331D02*
X135663625Y-79700327D01*
X135663626Y-79700328D01*
X135663629Y-79700329D01*
X135737496Y-79749686D01*
X135737500Y-79749689D01*
X135800311Y-79812500D01*
X135800313Y-79812503D01*
X135800314Y-79812504D01*
X135849671Y-79886371D01*
X135849672Y-79886374D01*
X135849673Y-79886375D01*
X135883669Y-79968448D01*
X135901000Y-80055579D01*
X135901000Y-80144421D01*
X135883669Y-80231552D01*
X135849673Y-80313625D01*
X135849671Y-80313629D01*
X135804935Y-80380580D01*
X135800311Y-80387500D01*
X135737500Y-80450311D01*
X135737497Y-80450313D01*
X135737496Y-80450314D01*
X135663629Y-80499671D01*
X135663626Y-80499672D01*
X135663625Y-80499673D01*
X135581552Y-80533669D01*
X135494421Y-80551000D01*
X135405579Y-80551000D01*
X135318448Y-80533669D01*
X135236375Y-80499673D01*
X135236374Y-80499672D01*
X135236371Y-80499671D01*
X135162504Y-80450314D01*
X135162503Y-80450313D01*
X135162500Y-80450311D01*
X135099689Y-80387500D01*
X135095065Y-80380580D01*
X135050329Y-80313629D01*
X135050327Y-80313625D01*
X135016331Y-80231552D01*
X134999000Y-80144421D01*
X134999000Y-80055579D01*
X135016331Y-79968448D01*
X135050327Y-79886375D01*
X135050328Y-79886374D01*
X135050329Y-79886371D01*
X135099686Y-79812504D01*
X135099687Y-79812503D01*
X135099689Y-79812500D01*
X135162500Y-79749689D01*
X135162504Y-79749686D01*
X135236371Y-79700329D01*
X135236374Y-79700328D01*
X135236375Y-79700327D01*
X135318448Y-79666331D01*
X135405579Y-79649000D01*
X135494421Y-79649000D01*
X135581552Y-79666331D01*
X135581552Y-79666331D01*
G37*
G36*
X141131552Y-79616331D02*
X141213625Y-79650327D01*
X141213626Y-79650328D01*
X141213629Y-79650329D01*
X141270942Y-79688625D01*
X141287500Y-79699689D01*
X141350311Y-79762500D01*
X141350313Y-79762503D01*
X141350314Y-79762504D01*
X141399671Y-79836371D01*
X141399672Y-79836374D01*
X141399673Y-79836375D01*
X141433669Y-79918448D01*
X141451000Y-80005579D01*
X141451000Y-80094421D01*
X141433669Y-80181552D01*
X141399673Y-80263625D01*
X141399671Y-80263629D01*
X141350314Y-80337496D01*
X141350311Y-80337500D01*
X141287500Y-80400311D01*
X141287497Y-80400313D01*
X141287496Y-80400314D01*
X141213629Y-80449671D01*
X141213626Y-80449672D01*
X141213625Y-80449673D01*
X141131552Y-80483669D01*
X141044421Y-80501000D01*
X140955579Y-80501000D01*
X140868448Y-80483669D01*
X140786375Y-80449673D01*
X140786374Y-80449672D01*
X140786371Y-80449671D01*
X140712504Y-80400314D01*
X140712503Y-80400313D01*
X140712500Y-80400311D01*
X140649689Y-80337500D01*
X140649686Y-80337496D01*
X140600329Y-80263629D01*
X140600327Y-80263625D01*
X140566331Y-80181552D01*
X140549000Y-80094421D01*
X140549000Y-80005579D01*
X140566331Y-79918448D01*
X140600327Y-79836375D01*
X140600328Y-79836374D01*
X140600329Y-79836371D01*
X140649686Y-79762504D01*
X140649687Y-79762503D01*
X140649689Y-79762500D01*
X140712500Y-79699689D01*
X140729058Y-79688625D01*
X140786371Y-79650329D01*
X140786374Y-79650328D01*
X140786375Y-79650327D01*
X140868448Y-79616331D01*
X140955579Y-79599000D01*
X141044421Y-79599000D01*
X141131552Y-79616331D01*
X141131552Y-79616331D01*
G37*
G36*
X132706552Y-79391331D02*
X132788625Y-79425327D01*
X132788626Y-79425328D01*
X132788629Y-79425329D01*
X132854616Y-79469421D01*
X132862500Y-79474689D01*
X132925311Y-79537500D01*
X132925313Y-79537503D01*
X132925314Y-79537504D01*
X132974671Y-79611371D01*
X132974672Y-79611374D01*
X132974673Y-79611375D01*
X133008669Y-79693448D01*
X133026000Y-79780579D01*
X133026000Y-79869421D01*
X133008669Y-79956552D01*
X132980181Y-80025327D01*
X132974671Y-80038629D01*
X132937392Y-80094420D01*
X132925311Y-80112500D01*
X132862500Y-80175311D01*
X132862497Y-80175313D01*
X132862496Y-80175314D01*
X132788629Y-80224671D01*
X132788626Y-80224672D01*
X132788625Y-80224673D01*
X132706552Y-80258669D01*
X132619421Y-80276000D01*
X132530579Y-80276000D01*
X132443448Y-80258669D01*
X132361375Y-80224673D01*
X132361374Y-80224672D01*
X132361371Y-80224671D01*
X132287504Y-80175314D01*
X132287503Y-80175313D01*
X132287500Y-80175311D01*
X132224689Y-80112500D01*
X132212608Y-80094420D01*
X132175329Y-80038629D01*
X132169819Y-80025327D01*
X132141331Y-79956552D01*
X132124000Y-79869421D01*
X132124000Y-79780579D01*
X132141331Y-79693448D01*
X132175327Y-79611375D01*
X132175328Y-79611374D01*
X132175329Y-79611371D01*
X132224686Y-79537504D01*
X132224687Y-79537503D01*
X132224689Y-79537500D01*
X132287500Y-79474689D01*
X132295384Y-79469421D01*
X132361371Y-79425329D01*
X132361374Y-79425328D01*
X132361375Y-79425327D01*
X132443448Y-79391331D01*
X132530579Y-79374000D01*
X132619421Y-79374000D01*
X132706552Y-79391331D01*
X132706552Y-79391331D01*
G37*
G36*
X121756552Y-79041331D02*
X121838625Y-79075327D01*
X121838626Y-79075328D01*
X121838629Y-79075329D01*
X121912496Y-79124686D01*
X121912500Y-79124689D01*
X121975311Y-79187500D01*
X121975313Y-79187503D01*
X121975314Y-79187504D01*
X122024671Y-79261371D01*
X122024672Y-79261374D01*
X122024673Y-79261375D01*
X122058669Y-79343448D01*
X122076000Y-79430579D01*
X122076000Y-79519421D01*
X122058669Y-79606552D01*
X122033907Y-79666332D01*
X122024671Y-79688629D01*
X121983873Y-79749686D01*
X121975311Y-79762500D01*
X121912500Y-79825311D01*
X121912497Y-79825313D01*
X121912496Y-79825314D01*
X121838629Y-79874671D01*
X121838626Y-79874672D01*
X121838625Y-79874673D01*
X121756552Y-79908669D01*
X121669421Y-79926000D01*
X121580579Y-79926000D01*
X121493448Y-79908669D01*
X121411375Y-79874673D01*
X121411374Y-79874672D01*
X121411371Y-79874671D01*
X121337504Y-79825314D01*
X121337503Y-79825313D01*
X121337500Y-79825311D01*
X121274689Y-79762500D01*
X121266127Y-79749686D01*
X121225329Y-79688629D01*
X121216093Y-79666332D01*
X121191331Y-79606552D01*
X121174000Y-79519421D01*
X121174000Y-79430579D01*
X121191331Y-79343448D01*
X121225327Y-79261375D01*
X121225328Y-79261374D01*
X121225329Y-79261371D01*
X121274686Y-79187504D01*
X121274687Y-79187503D01*
X121274689Y-79187500D01*
X121337500Y-79124689D01*
X121337504Y-79124686D01*
X121411371Y-79075329D01*
X121411374Y-79075328D01*
X121411375Y-79075327D01*
X121493448Y-79041331D01*
X121580579Y-79024000D01*
X121669421Y-79024000D01*
X121756552Y-79041331D01*
X121756552Y-79041331D01*
G37*
G36*
X119106552Y-78991331D02*
X119188625Y-79025327D01*
X119188626Y-79025328D01*
X119188629Y-79025329D01*
X119245942Y-79063625D01*
X119262500Y-79074689D01*
X119325311Y-79137500D01*
X119325313Y-79137503D01*
X119325314Y-79137504D01*
X119374671Y-79211371D01*
X119374672Y-79211374D01*
X119374673Y-79211375D01*
X119408669Y-79293448D01*
X119426000Y-79380579D01*
X119426000Y-79469421D01*
X119408669Y-79556552D01*
X119383907Y-79616332D01*
X119374671Y-79638629D01*
X119325314Y-79712496D01*
X119325311Y-79712500D01*
X119262500Y-79775311D01*
X119262497Y-79775313D01*
X119262496Y-79775314D01*
X119188629Y-79824671D01*
X119188626Y-79824672D01*
X119188625Y-79824673D01*
X119106552Y-79858669D01*
X119019421Y-79876000D01*
X118930579Y-79876000D01*
X118843448Y-79858669D01*
X118761375Y-79824673D01*
X118761374Y-79824672D01*
X118761371Y-79824671D01*
X118687504Y-79775314D01*
X118687503Y-79775313D01*
X118687500Y-79775311D01*
X118624689Y-79712500D01*
X118624686Y-79712496D01*
X118575329Y-79638629D01*
X118566093Y-79616332D01*
X118541331Y-79556552D01*
X118524000Y-79469421D01*
X118524000Y-79380579D01*
X118541331Y-79293448D01*
X118575327Y-79211375D01*
X118575328Y-79211374D01*
X118575329Y-79211371D01*
X118624686Y-79137504D01*
X118624687Y-79137503D01*
X118624689Y-79137500D01*
X118687500Y-79074689D01*
X118704058Y-79063625D01*
X118761371Y-79025329D01*
X118761374Y-79025328D01*
X118761375Y-79025327D01*
X118843448Y-78991331D01*
X118930579Y-78974000D01*
X119019421Y-78974000D01*
X119106552Y-78991331D01*
X119106552Y-78991331D01*
G37*
G36*
X116706552Y-78941331D02*
X116788625Y-78975327D01*
X116788626Y-78975328D01*
X116788629Y-78975329D01*
X116861469Y-79024000D01*
X116862500Y-79024689D01*
X116925311Y-79087500D01*
X116925313Y-79087503D01*
X116925314Y-79087504D01*
X116974671Y-79161371D01*
X116974672Y-79161374D01*
X116974673Y-79161375D01*
X117008669Y-79243448D01*
X117026000Y-79330579D01*
X117026000Y-79419421D01*
X117008669Y-79506552D01*
X116987958Y-79556552D01*
X116974671Y-79588629D01*
X116925314Y-79662496D01*
X116925311Y-79662500D01*
X116862500Y-79725311D01*
X116862497Y-79725313D01*
X116862496Y-79725314D01*
X116788629Y-79774671D01*
X116788626Y-79774672D01*
X116788625Y-79774673D01*
X116706552Y-79808669D01*
X116619421Y-79826000D01*
X116530579Y-79826000D01*
X116443448Y-79808669D01*
X116361375Y-79774673D01*
X116361374Y-79774672D01*
X116361371Y-79774671D01*
X116287504Y-79725314D01*
X116287503Y-79725313D01*
X116287500Y-79725311D01*
X116224689Y-79662500D01*
X116224686Y-79662496D01*
X116175329Y-79588629D01*
X116162042Y-79556552D01*
X116141331Y-79506552D01*
X116124000Y-79419421D01*
X116124000Y-79330579D01*
X116141331Y-79243448D01*
X116175327Y-79161375D01*
X116175328Y-79161374D01*
X116175329Y-79161371D01*
X116224686Y-79087504D01*
X116224687Y-79087503D01*
X116224689Y-79087500D01*
X116287500Y-79024689D01*
X116288531Y-79024000D01*
X116361371Y-78975329D01*
X116361374Y-78975328D01*
X116361375Y-78975327D01*
X116443448Y-78941331D01*
X116530579Y-78924000D01*
X116619421Y-78924000D01*
X116706552Y-78941331D01*
X116706552Y-78941331D01*
G37*
G36*
X133681552Y-78416331D02*
X133763625Y-78450327D01*
X133763626Y-78450328D01*
X133763629Y-78450329D01*
X133837496Y-78499686D01*
X133837500Y-78499689D01*
X133900311Y-78562500D01*
X133900313Y-78562503D01*
X133900314Y-78562504D01*
X133949671Y-78636371D01*
X133949672Y-78636374D01*
X133949673Y-78636375D01*
X133983669Y-78718448D01*
X134001000Y-78805579D01*
X134001000Y-78894421D01*
X133983669Y-78981552D01*
X133958907Y-79041332D01*
X133949671Y-79063629D01*
X133924700Y-79101000D01*
X133900311Y-79137500D01*
X133837500Y-79200311D01*
X133837497Y-79200313D01*
X133837496Y-79200314D01*
X133763629Y-79249671D01*
X133763626Y-79249672D01*
X133763625Y-79249673D01*
X133681552Y-79283669D01*
X133594421Y-79301000D01*
X133505579Y-79301000D01*
X133418448Y-79283669D01*
X133336375Y-79249673D01*
X133336374Y-79249672D01*
X133336371Y-79249671D01*
X133262504Y-79200314D01*
X133262503Y-79200313D01*
X133262500Y-79200311D01*
X133199689Y-79137500D01*
X133175300Y-79101000D01*
X133150329Y-79063629D01*
X133141093Y-79041332D01*
X133116331Y-78981552D01*
X133099000Y-78894421D01*
X133099000Y-78805579D01*
X133116331Y-78718448D01*
X133150327Y-78636375D01*
X133150328Y-78636374D01*
X133150329Y-78636371D01*
X133199686Y-78562504D01*
X133199687Y-78562503D01*
X133199689Y-78562500D01*
X133262500Y-78499689D01*
X133262504Y-78499686D01*
X133336371Y-78450329D01*
X133336374Y-78450328D01*
X133336375Y-78450327D01*
X133418448Y-78416331D01*
X133505579Y-78399000D01*
X133594421Y-78399000D01*
X133681552Y-78416331D01*
X133681552Y-78416331D01*
G37*
G36*
X137331552Y-78216331D02*
X137413625Y-78250327D01*
X137413626Y-78250328D01*
X137413629Y-78250329D01*
X137487496Y-78299686D01*
X137487500Y-78299689D01*
X137550311Y-78362500D01*
X137550313Y-78362503D01*
X137550314Y-78362504D01*
X137599671Y-78436371D01*
X137599672Y-78436374D01*
X137599673Y-78436375D01*
X137633669Y-78518448D01*
X137651000Y-78605579D01*
X137651000Y-78694421D01*
X137633669Y-78781552D01*
X137599673Y-78863625D01*
X137599671Y-78863629D01*
X137550314Y-78937496D01*
X137550311Y-78937500D01*
X137487500Y-79000311D01*
X137487497Y-79000313D01*
X137487496Y-79000314D01*
X137413629Y-79049671D01*
X137413626Y-79049672D01*
X137413625Y-79049673D01*
X137331552Y-79083669D01*
X137244421Y-79101000D01*
X137155579Y-79101000D01*
X137068448Y-79083669D01*
X136986375Y-79049673D01*
X136986374Y-79049672D01*
X136986371Y-79049671D01*
X136912504Y-79000314D01*
X136912503Y-79000313D01*
X136912500Y-79000311D01*
X136849689Y-78937500D01*
X136849686Y-78937496D01*
X136800329Y-78863629D01*
X136800327Y-78863625D01*
X136766331Y-78781552D01*
X136749000Y-78694421D01*
X136749000Y-78605579D01*
X136766331Y-78518448D01*
X136800327Y-78436375D01*
X136800328Y-78436374D01*
X136800329Y-78436371D01*
X136849686Y-78362504D01*
X136849687Y-78362503D01*
X136849689Y-78362500D01*
X136912500Y-78299689D01*
X136912504Y-78299686D01*
X136986371Y-78250329D01*
X136986374Y-78250328D01*
X136986375Y-78250327D01*
X137068448Y-78216331D01*
X137155579Y-78199000D01*
X137244421Y-78199000D01*
X137331552Y-78216331D01*
X137331552Y-78216331D01*
G37*
G36*
X134681552Y-77466331D02*
X134763625Y-77500327D01*
X134763626Y-77500328D01*
X134763629Y-77500329D01*
X134828160Y-77543448D01*
X134837500Y-77549689D01*
X134900311Y-77612500D01*
X134900313Y-77612503D01*
X134900314Y-77612504D01*
X134949671Y-77686371D01*
X134949672Y-77686374D01*
X134949673Y-77686375D01*
X134983669Y-77768448D01*
X135001000Y-77855579D01*
X135001000Y-77944421D01*
X134983669Y-78031552D01*
X134950139Y-78112500D01*
X134949671Y-78113629D01*
X134900314Y-78187496D01*
X134900311Y-78187500D01*
X134837500Y-78250311D01*
X134837497Y-78250313D01*
X134837496Y-78250314D01*
X134763629Y-78299671D01*
X134763626Y-78299672D01*
X134763625Y-78299673D01*
X134681552Y-78333669D01*
X134594421Y-78351000D01*
X134505579Y-78351000D01*
X134418448Y-78333669D01*
X134336375Y-78299673D01*
X134336374Y-78299672D01*
X134336371Y-78299671D01*
X134262504Y-78250314D01*
X134262503Y-78250313D01*
X134262500Y-78250311D01*
X134199689Y-78187500D01*
X134199686Y-78187496D01*
X134150329Y-78113629D01*
X134149861Y-78112500D01*
X134116331Y-78031552D01*
X134099000Y-77944421D01*
X134099000Y-77855579D01*
X134116331Y-77768448D01*
X134150327Y-77686375D01*
X134150328Y-77686374D01*
X134150329Y-77686371D01*
X134199686Y-77612504D01*
X134199687Y-77612503D01*
X134199689Y-77612500D01*
X134262500Y-77549689D01*
X134271840Y-77543448D01*
X134336371Y-77500329D01*
X134336374Y-77500328D01*
X134336375Y-77500327D01*
X134418448Y-77466331D01*
X134505579Y-77449000D01*
X134594421Y-77449000D01*
X134681552Y-77466331D01*
X134681552Y-77466331D01*
G37*
G36*
X143481552Y-77391331D02*
X143563625Y-77425327D01*
X143563626Y-77425328D01*
X143563629Y-77425329D01*
X143637496Y-77474686D01*
X143637500Y-77474689D01*
X143700311Y-77537500D01*
X143700313Y-77537503D01*
X143700314Y-77537504D01*
X143749671Y-77611371D01*
X143749672Y-77611374D01*
X143749673Y-77611375D01*
X143783669Y-77693448D01*
X143801000Y-77780579D01*
X143801000Y-77869421D01*
X143783669Y-77956552D01*
X143749673Y-78038625D01*
X143749671Y-78038629D01*
X143702871Y-78108669D01*
X143700311Y-78112500D01*
X143637500Y-78175311D01*
X143637497Y-78175313D01*
X143637496Y-78175314D01*
X143563629Y-78224671D01*
X143563626Y-78224672D01*
X143563625Y-78224673D01*
X143481552Y-78258669D01*
X143394421Y-78276000D01*
X143305579Y-78276000D01*
X143218448Y-78258669D01*
X143136375Y-78224673D01*
X143136374Y-78224672D01*
X143136371Y-78224671D01*
X143062504Y-78175314D01*
X143062503Y-78175313D01*
X143062500Y-78175311D01*
X142999689Y-78112500D01*
X142997129Y-78108669D01*
X142950329Y-78038629D01*
X142950327Y-78038625D01*
X142916331Y-77956552D01*
X142899000Y-77869421D01*
X142899000Y-77780579D01*
X142916331Y-77693448D01*
X142950327Y-77611375D01*
X142950328Y-77611374D01*
X142950329Y-77611371D01*
X142999686Y-77537504D01*
X142999687Y-77537503D01*
X142999689Y-77537500D01*
X143062500Y-77474689D01*
X143062504Y-77474686D01*
X143136371Y-77425329D01*
X143136374Y-77425328D01*
X143136375Y-77425327D01*
X143218448Y-77391331D01*
X143305579Y-77374000D01*
X143394421Y-77374000D01*
X143481552Y-77391331D01*
X143481552Y-77391331D01*
G37*
G36*
X132356552Y-77241331D02*
X132438625Y-77275327D01*
X132438626Y-77275328D01*
X132438629Y-77275329D01*
X132488525Y-77308669D01*
X132512500Y-77324689D01*
X132575311Y-77387500D01*
X132575313Y-77387503D01*
X132575314Y-77387504D01*
X132624671Y-77461371D01*
X132624672Y-77461374D01*
X132624673Y-77461375D01*
X132658669Y-77543448D01*
X132676000Y-77630579D01*
X132676000Y-77719421D01*
X132658669Y-77806552D01*
X132630453Y-77874671D01*
X132624671Y-77888629D01*
X132575314Y-77962496D01*
X132575311Y-77962500D01*
X132512500Y-78025311D01*
X132512497Y-78025313D01*
X132512496Y-78025314D01*
X132438629Y-78074671D01*
X132438626Y-78074672D01*
X132438625Y-78074673D01*
X132356552Y-78108669D01*
X132269421Y-78126000D01*
X132180579Y-78126000D01*
X132093448Y-78108669D01*
X132011375Y-78074673D01*
X132011374Y-78074672D01*
X132011371Y-78074671D01*
X131937504Y-78025314D01*
X131937503Y-78025313D01*
X131937500Y-78025311D01*
X131874689Y-77962500D01*
X131874686Y-77962496D01*
X131825329Y-77888629D01*
X131819547Y-77874671D01*
X131791331Y-77806552D01*
X131774000Y-77719421D01*
X131774000Y-77630579D01*
X131791331Y-77543448D01*
X131825327Y-77461375D01*
X131825328Y-77461374D01*
X131825329Y-77461371D01*
X131874686Y-77387504D01*
X131874687Y-77387503D01*
X131874689Y-77387500D01*
X131937500Y-77324689D01*
X131961475Y-77308669D01*
X132011371Y-77275329D01*
X132011374Y-77275328D01*
X132011375Y-77275327D01*
X132093448Y-77241331D01*
X132180579Y-77224000D01*
X132269421Y-77224000D01*
X132356552Y-77241331D01*
X132356552Y-77241331D01*
G37*
G36*
X129181552Y-77041331D02*
X129263625Y-77075327D01*
X129263626Y-77075328D01*
X129263629Y-77075329D01*
X129337496Y-77124686D01*
X129337500Y-77124689D01*
X129400311Y-77187500D01*
X129400313Y-77187503D01*
X129400314Y-77187504D01*
X129449671Y-77261371D01*
X129449672Y-77261374D01*
X129449673Y-77261375D01*
X129483669Y-77343448D01*
X129501000Y-77430579D01*
X129501000Y-77519421D01*
X129483669Y-77606552D01*
X129450605Y-77686375D01*
X129449671Y-77688629D01*
X129407995Y-77751000D01*
X129400311Y-77762500D01*
X129337500Y-77825311D01*
X129337497Y-77825313D01*
X129337496Y-77825314D01*
X129263629Y-77874671D01*
X129263626Y-77874672D01*
X129263625Y-77874673D01*
X129181552Y-77908669D01*
X129094421Y-77926000D01*
X129005579Y-77926000D01*
X128918448Y-77908669D01*
X128836375Y-77874673D01*
X128836374Y-77874672D01*
X128836371Y-77874671D01*
X128762504Y-77825314D01*
X128762503Y-77825313D01*
X128762500Y-77825311D01*
X128699689Y-77762500D01*
X128692005Y-77751000D01*
X128650329Y-77688629D01*
X128649395Y-77686375D01*
X128616331Y-77606552D01*
X128599000Y-77519421D01*
X128599000Y-77430579D01*
X128616331Y-77343448D01*
X128650327Y-77261375D01*
X128650328Y-77261374D01*
X128650329Y-77261371D01*
X128699686Y-77187504D01*
X128699687Y-77187503D01*
X128699689Y-77187500D01*
X128762500Y-77124689D01*
X128762504Y-77124686D01*
X128836371Y-77075329D01*
X128836374Y-77075328D01*
X128836375Y-77075327D01*
X128918448Y-77041331D01*
X129005579Y-77024000D01*
X129094421Y-77024000D01*
X129181552Y-77041331D01*
X129181552Y-77041331D01*
G37*
G36*
X121731552Y-76866331D02*
X121813625Y-76900327D01*
X121813626Y-76900328D01*
X121813629Y-76900329D01*
X121887496Y-76949686D01*
X121887500Y-76949689D01*
X121950311Y-77012500D01*
X121950313Y-77012503D01*
X121950314Y-77012504D01*
X121999671Y-77086371D01*
X121999672Y-77086374D01*
X121999673Y-77086375D01*
X122033669Y-77168448D01*
X122051000Y-77255579D01*
X122051000Y-77344421D01*
X122033669Y-77431552D01*
X122005181Y-77500327D01*
X121999671Y-77513629D01*
X121979746Y-77543448D01*
X121950311Y-77587500D01*
X121887500Y-77650311D01*
X121887497Y-77650313D01*
X121887496Y-77650314D01*
X121813629Y-77699671D01*
X121813626Y-77699672D01*
X121813625Y-77699673D01*
X121731552Y-77733669D01*
X121644421Y-77751000D01*
X121555579Y-77751000D01*
X121468448Y-77733669D01*
X121386375Y-77699673D01*
X121386374Y-77699672D01*
X121386371Y-77699671D01*
X121312504Y-77650314D01*
X121312503Y-77650313D01*
X121312500Y-77650311D01*
X121249689Y-77587500D01*
X121220254Y-77543448D01*
X121200329Y-77513629D01*
X121194819Y-77500327D01*
X121166331Y-77431552D01*
X121149000Y-77344421D01*
X121149000Y-77255579D01*
X121166331Y-77168448D01*
X121200327Y-77086375D01*
X121200328Y-77086374D01*
X121200329Y-77086371D01*
X121249686Y-77012504D01*
X121249687Y-77012503D01*
X121249689Y-77012500D01*
X121312500Y-76949689D01*
X121312504Y-76949686D01*
X121386371Y-76900329D01*
X121386374Y-76900328D01*
X121386375Y-76900327D01*
X121468448Y-76866331D01*
X121555579Y-76849000D01*
X121644421Y-76849000D01*
X121731552Y-76866331D01*
X121731552Y-76866331D01*
G37*
G36*
X124981552Y-76866331D02*
X125063625Y-76900327D01*
X125063626Y-76900328D01*
X125063629Y-76900329D01*
X125137496Y-76949686D01*
X125137500Y-76949689D01*
X125200311Y-77012500D01*
X125200313Y-77012503D01*
X125200314Y-77012504D01*
X125249671Y-77086371D01*
X125249672Y-77086374D01*
X125249673Y-77086375D01*
X125283669Y-77168448D01*
X125301000Y-77255579D01*
X125301000Y-77344421D01*
X125283669Y-77431552D01*
X125255181Y-77500327D01*
X125249671Y-77513629D01*
X125229746Y-77543448D01*
X125200311Y-77587500D01*
X125137500Y-77650311D01*
X125137497Y-77650313D01*
X125137496Y-77650314D01*
X125063629Y-77699671D01*
X125063626Y-77699672D01*
X125063625Y-77699673D01*
X124981552Y-77733669D01*
X124894421Y-77751000D01*
X124805579Y-77751000D01*
X124718448Y-77733669D01*
X124636375Y-77699673D01*
X124636374Y-77699672D01*
X124636371Y-77699671D01*
X124562504Y-77650314D01*
X124562503Y-77650313D01*
X124562500Y-77650311D01*
X124499689Y-77587500D01*
X124470254Y-77543448D01*
X124450329Y-77513629D01*
X124444819Y-77500327D01*
X124416331Y-77431552D01*
X124399000Y-77344421D01*
X124399000Y-77255579D01*
X124416331Y-77168448D01*
X124450327Y-77086375D01*
X124450328Y-77086374D01*
X124450329Y-77086371D01*
X124499686Y-77012504D01*
X124499687Y-77012503D01*
X124499689Y-77012500D01*
X124562500Y-76949689D01*
X124562504Y-76949686D01*
X124636371Y-76900329D01*
X124636374Y-76900328D01*
X124636375Y-76900327D01*
X124718448Y-76866331D01*
X124805579Y-76849000D01*
X124894421Y-76849000D01*
X124981552Y-76866331D01*
X124981552Y-76866331D01*
G37*
G36*
X135631552Y-76441331D02*
X135713625Y-76475327D01*
X135713626Y-76475328D01*
X135713629Y-76475329D01*
X135787496Y-76524686D01*
X135787500Y-76524689D01*
X135850311Y-76587500D01*
X135850313Y-76587503D01*
X135850314Y-76587504D01*
X135899671Y-76661371D01*
X135899672Y-76661374D01*
X135899673Y-76661375D01*
X135933669Y-76743448D01*
X135951000Y-76830579D01*
X135951000Y-76919421D01*
X135933669Y-77006552D01*
X135900605Y-77086375D01*
X135899671Y-77088629D01*
X135875578Y-77124686D01*
X135850311Y-77162500D01*
X135787500Y-77225311D01*
X135787497Y-77225313D01*
X135787496Y-77225314D01*
X135713629Y-77274671D01*
X135713626Y-77274672D01*
X135713625Y-77274673D01*
X135631552Y-77308669D01*
X135544421Y-77326000D01*
X135455579Y-77326000D01*
X135368448Y-77308669D01*
X135286375Y-77274673D01*
X135286374Y-77274672D01*
X135286371Y-77274671D01*
X135212504Y-77225314D01*
X135212503Y-77225313D01*
X135212500Y-77225311D01*
X135149689Y-77162500D01*
X135124422Y-77124686D01*
X135100329Y-77088629D01*
X135099395Y-77086375D01*
X135066331Y-77006552D01*
X135049000Y-76919421D01*
X135049000Y-76830579D01*
X135066331Y-76743448D01*
X135100327Y-76661375D01*
X135100328Y-76661374D01*
X135100329Y-76661371D01*
X135149686Y-76587504D01*
X135149687Y-76587503D01*
X135149689Y-76587500D01*
X135212500Y-76524689D01*
X135212504Y-76524686D01*
X135286371Y-76475329D01*
X135286374Y-76475328D01*
X135286375Y-76475327D01*
X135368448Y-76441331D01*
X135455579Y-76424000D01*
X135544421Y-76424000D01*
X135631552Y-76441331D01*
X135631552Y-76441331D01*
G37*
G36*
X136956552Y-76191331D02*
X137038625Y-76225327D01*
X137038626Y-76225328D01*
X137038629Y-76225329D01*
X137112496Y-76274686D01*
X137112500Y-76274689D01*
X137175311Y-76337500D01*
X137175313Y-76337503D01*
X137175314Y-76337504D01*
X137224671Y-76411371D01*
X137224672Y-76411374D01*
X137224673Y-76411375D01*
X137258669Y-76493448D01*
X137276000Y-76580579D01*
X137276000Y-76669421D01*
X137258669Y-76756552D01*
X137228005Y-76830580D01*
X137224671Y-76838629D01*
X137175314Y-76912496D01*
X137175311Y-76912500D01*
X137112500Y-76975311D01*
X137112497Y-76975313D01*
X137112496Y-76975314D01*
X137038629Y-77024671D01*
X137038626Y-77024672D01*
X137038625Y-77024673D01*
X136956552Y-77058669D01*
X136869421Y-77076000D01*
X136780579Y-77076000D01*
X136693448Y-77058669D01*
X136611375Y-77024673D01*
X136611374Y-77024672D01*
X136611371Y-77024671D01*
X136537504Y-76975314D01*
X136537503Y-76975313D01*
X136537500Y-76975311D01*
X136474689Y-76912500D01*
X136474686Y-76912496D01*
X136425329Y-76838629D01*
X136421995Y-76830580D01*
X136391331Y-76756552D01*
X136374000Y-76669421D01*
X136374000Y-76580579D01*
X136391331Y-76493448D01*
X136425327Y-76411375D01*
X136425328Y-76411374D01*
X136425329Y-76411371D01*
X136474686Y-76337504D01*
X136474687Y-76337503D01*
X136474689Y-76337500D01*
X136537500Y-76274689D01*
X136537504Y-76274686D01*
X136611371Y-76225329D01*
X136611374Y-76225328D01*
X136611375Y-76225327D01*
X136693448Y-76191331D01*
X136780579Y-76174000D01*
X136869421Y-76174000D01*
X136956552Y-76191331D01*
X136956552Y-76191331D01*
G37*
G36*
X141106552Y-74966331D02*
X141188625Y-75000327D01*
X141188626Y-75000328D01*
X141188629Y-75000329D01*
X141262496Y-75049686D01*
X141262500Y-75049689D01*
X141325311Y-75112500D01*
X141325313Y-75112503D01*
X141325314Y-75112504D01*
X141374671Y-75186371D01*
X141374672Y-75186374D01*
X141374673Y-75186375D01*
X141408669Y-75268448D01*
X141426000Y-75355579D01*
X141426000Y-75444421D01*
X141408669Y-75531552D01*
X141374673Y-75613625D01*
X141374671Y-75613629D01*
X141325314Y-75687496D01*
X141325311Y-75687500D01*
X141262500Y-75750311D01*
X141262497Y-75750313D01*
X141262496Y-75750314D01*
X141188629Y-75799671D01*
X141188626Y-75799672D01*
X141188625Y-75799673D01*
X141106552Y-75833669D01*
X141019421Y-75851000D01*
X140930579Y-75851000D01*
X140843448Y-75833669D01*
X140761375Y-75799673D01*
X140761374Y-75799672D01*
X140761371Y-75799671D01*
X140687504Y-75750314D01*
X140687503Y-75750313D01*
X140687500Y-75750311D01*
X140624689Y-75687500D01*
X140624686Y-75687496D01*
X140575329Y-75613629D01*
X140575327Y-75613625D01*
X140541331Y-75531552D01*
X140524000Y-75444421D01*
X140524000Y-75355579D01*
X140541331Y-75268448D01*
X140575327Y-75186375D01*
X140575328Y-75186374D01*
X140575329Y-75186371D01*
X140624686Y-75112504D01*
X140624687Y-75112503D01*
X140624689Y-75112500D01*
X140687500Y-75049689D01*
X140687504Y-75049686D01*
X140761371Y-75000329D01*
X140761374Y-75000328D01*
X140761375Y-75000327D01*
X140843448Y-74966331D01*
X140930579Y-74949000D01*
X141019421Y-74949000D01*
X141106552Y-74966331D01*
X141106552Y-74966331D01*
G37*
G36*
X119900443Y-73155519D02*
X119966627Y-73162037D01*
X120079853Y-73196384D01*
X120136467Y-73213557D01*
X120275087Y-73287652D01*
X120292991Y-73297222D01*
X120312978Y-73313625D01*
X120430186Y-73409814D01*
X120503930Y-73499673D01*
X120542778Y-73547009D01*
X120542779Y-73547011D01*
X120626443Y-73703533D01*
X120626443Y-73703534D01*
X120677963Y-73873373D01*
X120695359Y-74050000D01*
X120677963Y-74226627D01*
X120643616Y-74339853D01*
X120626443Y-74396467D01*
X120552348Y-74535087D01*
X120542778Y-74552991D01*
X120513448Y-74588729D01*
X120430186Y-74690186D01*
X120328729Y-74773448D01*
X120292991Y-74802778D01*
X120292989Y-74802779D01*
X120136467Y-74886443D01*
X120079853Y-74903616D01*
X119966627Y-74937963D01*
X119900442Y-74944482D01*
X119834260Y-74951000D01*
X119745740Y-74951000D01*
X119679558Y-74944482D01*
X119613373Y-74937963D01*
X119500147Y-74903616D01*
X119443533Y-74886443D01*
X119287011Y-74802779D01*
X119287009Y-74802778D01*
X119251271Y-74773448D01*
X119149814Y-74690186D01*
X119066552Y-74588729D01*
X119037222Y-74552991D01*
X119027652Y-74535087D01*
X118953557Y-74396467D01*
X118936384Y-74339853D01*
X118902037Y-74226627D01*
X118884641Y-74050000D01*
X118902037Y-73873373D01*
X118953557Y-73703534D01*
X118953557Y-73703533D01*
X119037221Y-73547011D01*
X119037222Y-73547009D01*
X119076070Y-73499673D01*
X119149814Y-73409814D01*
X119267022Y-73313625D01*
X119287009Y-73297222D01*
X119304913Y-73287652D01*
X119443533Y-73213557D01*
X119500147Y-73196384D01*
X119613373Y-73162037D01*
X119679557Y-73155519D01*
X119745740Y-73149000D01*
X119834260Y-73149000D01*
X119900443Y-73155519D01*
X119900443Y-73155519D01*
G37*
G36*
X118151000Y-74951000D02*
X116349000Y-74951000D01*
X116349000Y-73149000D01*
X118151000Y-73149000D01*
X118151000Y-74951000D01*
X118151000Y-74951000D01*
G37*
G36*
X122781552Y-72816331D02*
X122863625Y-72850327D01*
X122863626Y-72850328D01*
X122863629Y-72850329D01*
X122937496Y-72899686D01*
X122937500Y-72899689D01*
X123000311Y-72962500D01*
X123000313Y-72962503D01*
X123000314Y-72962504D01*
X123049671Y-73036371D01*
X123049672Y-73036374D01*
X123049673Y-73036375D01*
X123083669Y-73118448D01*
X123101000Y-73205579D01*
X123101000Y-73294421D01*
X123083669Y-73381552D01*
X123049673Y-73463625D01*
X123049671Y-73463629D01*
X123002871Y-73533669D01*
X123000311Y-73537500D01*
X122937500Y-73600311D01*
X122937497Y-73600313D01*
X122937496Y-73600314D01*
X122863629Y-73649671D01*
X122863626Y-73649672D01*
X122863625Y-73649673D01*
X122781552Y-73683669D01*
X122694421Y-73701000D01*
X122605579Y-73701000D01*
X122518448Y-73683669D01*
X122436375Y-73649673D01*
X122436374Y-73649672D01*
X122436371Y-73649671D01*
X122362504Y-73600314D01*
X122362503Y-73600313D01*
X122362500Y-73600311D01*
X122299689Y-73537500D01*
X122297129Y-73533669D01*
X122250329Y-73463629D01*
X122250327Y-73463625D01*
X122216331Y-73381552D01*
X122199000Y-73294421D01*
X122199000Y-73205579D01*
X122216331Y-73118448D01*
X122250327Y-73036375D01*
X122250328Y-73036374D01*
X122250329Y-73036371D01*
X122299686Y-72962504D01*
X122299687Y-72962503D01*
X122299689Y-72962500D01*
X122362500Y-72899689D01*
X122362504Y-72899686D01*
X122436371Y-72850329D01*
X122436374Y-72850328D01*
X122436375Y-72850327D01*
X122518448Y-72816331D01*
X122605579Y-72799000D01*
X122694421Y-72799000D01*
X122781552Y-72816331D01*
X122781552Y-72816331D01*
G37*
G36*
X135731552Y-72691331D02*
X135813625Y-72725327D01*
X135813626Y-72725328D01*
X135813629Y-72725329D01*
X135887496Y-72774686D01*
X135887500Y-72774689D01*
X135950311Y-72837500D01*
X135950313Y-72837503D01*
X135950314Y-72837504D01*
X135999671Y-72911371D01*
X135999672Y-72911374D01*
X135999673Y-72911375D01*
X136033669Y-72993448D01*
X136051000Y-73080579D01*
X136051000Y-73169421D01*
X136033669Y-73256552D01*
X135999673Y-73338625D01*
X135999671Y-73338629D01*
X135967016Y-73387500D01*
X135950311Y-73412500D01*
X135887500Y-73475311D01*
X135887497Y-73475313D01*
X135887496Y-73475314D01*
X135813629Y-73524671D01*
X135813626Y-73524672D01*
X135813625Y-73524673D01*
X135731552Y-73558669D01*
X135644421Y-73576000D01*
X135555579Y-73576000D01*
X135468448Y-73558669D01*
X135386375Y-73524673D01*
X135386374Y-73524672D01*
X135386371Y-73524671D01*
X135312504Y-73475314D01*
X135312503Y-73475313D01*
X135312500Y-73475311D01*
X135249689Y-73412500D01*
X135232984Y-73387500D01*
X135200329Y-73338629D01*
X135200327Y-73338625D01*
X135166331Y-73256552D01*
X135149000Y-73169421D01*
X135149000Y-73080579D01*
X135166331Y-72993448D01*
X135200327Y-72911375D01*
X135200328Y-72911374D01*
X135200329Y-72911371D01*
X135249686Y-72837504D01*
X135249687Y-72837503D01*
X135249689Y-72837500D01*
X135312500Y-72774689D01*
X135312504Y-72774686D01*
X135386371Y-72725329D01*
X135386374Y-72725328D01*
X135386375Y-72725327D01*
X135468448Y-72691331D01*
X135555579Y-72674000D01*
X135644421Y-72674000D01*
X135731552Y-72691331D01*
X135731552Y-72691331D01*
G37*
G36*
X138706552Y-72666331D02*
X138788625Y-72700327D01*
X138788626Y-72700328D01*
X138788629Y-72700329D01*
X138862496Y-72749686D01*
X138862500Y-72749689D01*
X138925311Y-72812500D01*
X138925313Y-72812503D01*
X138925314Y-72812504D01*
X138974671Y-72886371D01*
X138974672Y-72886374D01*
X138974673Y-72886375D01*
X139008669Y-72968448D01*
X139026000Y-73055579D01*
X139026000Y-73144421D01*
X139008669Y-73231552D01*
X138981467Y-73297222D01*
X138974671Y-73313629D01*
X138925314Y-73387496D01*
X138925311Y-73387500D01*
X138862500Y-73450311D01*
X138862497Y-73450313D01*
X138862496Y-73450314D01*
X138788629Y-73499671D01*
X138788626Y-73499672D01*
X138788625Y-73499673D01*
X138706552Y-73533669D01*
X138619421Y-73551000D01*
X138530579Y-73551000D01*
X138443448Y-73533669D01*
X138361375Y-73499673D01*
X138361374Y-73499672D01*
X138361371Y-73499671D01*
X138287504Y-73450314D01*
X138287503Y-73450313D01*
X138287500Y-73450311D01*
X138224689Y-73387500D01*
X138224686Y-73387496D01*
X138175329Y-73313629D01*
X138168533Y-73297222D01*
X138141331Y-73231552D01*
X138124000Y-73144421D01*
X138124000Y-73055579D01*
X138141331Y-72968448D01*
X138175327Y-72886375D01*
X138175328Y-72886374D01*
X138175329Y-72886371D01*
X138224686Y-72812504D01*
X138224687Y-72812503D01*
X138224689Y-72812500D01*
X138287500Y-72749689D01*
X138287504Y-72749686D01*
X138361371Y-72700329D01*
X138361374Y-72700328D01*
X138361375Y-72700327D01*
X138443448Y-72666331D01*
X138530579Y-72649000D01*
X138619421Y-72649000D01*
X138706552Y-72666331D01*
X138706552Y-72666331D01*
G37*
G36*
X141106552Y-72641331D02*
X141188625Y-72675327D01*
X141188626Y-72675328D01*
X141188629Y-72675329D01*
X141262496Y-72724686D01*
X141262500Y-72724689D01*
X141325311Y-72787500D01*
X141325313Y-72787503D01*
X141325314Y-72787504D01*
X141374671Y-72861371D01*
X141374672Y-72861374D01*
X141374673Y-72861375D01*
X141408669Y-72943448D01*
X141426000Y-73030579D01*
X141426000Y-73119421D01*
X141408669Y-73206552D01*
X141387958Y-73256552D01*
X141374671Y-73288629D01*
X141325314Y-73362496D01*
X141325311Y-73362500D01*
X141262500Y-73425311D01*
X141262497Y-73425313D01*
X141262496Y-73425314D01*
X141188629Y-73474671D01*
X141188626Y-73474672D01*
X141188625Y-73474673D01*
X141106552Y-73508669D01*
X141019421Y-73526000D01*
X140930579Y-73526000D01*
X140843448Y-73508669D01*
X140761375Y-73474673D01*
X140761374Y-73474672D01*
X140761371Y-73474671D01*
X140687504Y-73425314D01*
X140687503Y-73425313D01*
X140687500Y-73425311D01*
X140624689Y-73362500D01*
X140624686Y-73362496D01*
X140575329Y-73288629D01*
X140562042Y-73256552D01*
X140541331Y-73206552D01*
X140524000Y-73119421D01*
X140524000Y-73030579D01*
X140541331Y-72943448D01*
X140575327Y-72861375D01*
X140575328Y-72861374D01*
X140575329Y-72861371D01*
X140624686Y-72787504D01*
X140624687Y-72787503D01*
X140624689Y-72787500D01*
X140687500Y-72724689D01*
X140687504Y-72724686D01*
X140761371Y-72675329D01*
X140761374Y-72675328D01*
X140761375Y-72675327D01*
X140843448Y-72641331D01*
X140930579Y-72624000D01*
X141019421Y-72624000D01*
X141106552Y-72641331D01*
X141106552Y-72641331D01*
G37*
G36*
X143481552Y-72641331D02*
X143563625Y-72675327D01*
X143563626Y-72675328D01*
X143563629Y-72675329D01*
X143637496Y-72724686D01*
X143637500Y-72724689D01*
X143700311Y-72787500D01*
X143700313Y-72787503D01*
X143700314Y-72787504D01*
X143749671Y-72861371D01*
X143749672Y-72861374D01*
X143749673Y-72861375D01*
X143783669Y-72943448D01*
X143801000Y-73030579D01*
X143801000Y-73119421D01*
X143783669Y-73206552D01*
X143762958Y-73256552D01*
X143749671Y-73288629D01*
X143700314Y-73362496D01*
X143700311Y-73362500D01*
X143637500Y-73425311D01*
X143637497Y-73425313D01*
X143637496Y-73425314D01*
X143563629Y-73474671D01*
X143563626Y-73474672D01*
X143563625Y-73474673D01*
X143481552Y-73508669D01*
X143394421Y-73526000D01*
X143305579Y-73526000D01*
X143218448Y-73508669D01*
X143136375Y-73474673D01*
X143136374Y-73474672D01*
X143136371Y-73474671D01*
X143062504Y-73425314D01*
X143062503Y-73425313D01*
X143062500Y-73425311D01*
X142999689Y-73362500D01*
X142999686Y-73362496D01*
X142950329Y-73288629D01*
X142937042Y-73256552D01*
X142916331Y-73206552D01*
X142899000Y-73119421D01*
X142899000Y-73030579D01*
X142916331Y-72943448D01*
X142950327Y-72861375D01*
X142950328Y-72861374D01*
X142950329Y-72861371D01*
X142999686Y-72787504D01*
X142999687Y-72787503D01*
X142999689Y-72787500D01*
X143062500Y-72724689D01*
X143062504Y-72724686D01*
X143136371Y-72675329D01*
X143136374Y-72675328D01*
X143136375Y-72675327D01*
X143218448Y-72641331D01*
X143305579Y-72624000D01*
X143394421Y-72624000D01*
X143481552Y-72641331D01*
X143481552Y-72641331D01*
G37*
M02*
